G04 Layer: TopPasteMaskLayer*
G04 EasyEDA v6.5.39, 2024-02-04 17:57:03*
G04 f6d63844dc264826aa4dc6ae726a4a04,5509f98a9368439c9cde498926e245b9,10*
G04 Gerber Generator version 0.2*
G04 Scale: 100 percent, Rotated: No, Reflected: No *
G04 Dimensions in inches *
G04 leading zeros omitted , absolute positions ,3 integer and 6 decimal *
%FSLAX36Y36*%
%MOIN*%

%AMMACRO1*21,1,$1,$2,0,0,$3*%
%ADD10R,0.0394X0.0236*%
%ADD11MACRO1,0.0532X0.0555X90.0000*%
%ADD12MACRO1,0.0532X0.0555X-90.0000*%
%ADD13R,0.0360X0.0380*%
%ADD14R,0.0380X0.0360*%
%ADD15R,0.0386X0.0972*%
%ADD16MACRO1,0.1417X0.0972X0.0000*%
%ADD17R,0.1339X0.0591*%
%ADD18MACRO1,0.1102X0.1185X0.0000*%
%ADD19R,0.0945X0.0433*%
%ADD20R,0.0551X0.0244*%
%ADD21MACRO1,0.1102X0.1185X90.0000*%

%LPD*%
D10*
G01*
X6447240Y2867600D03*
G01*
X6447240Y2905000D03*
G01*
X6447240Y2942399D03*
G01*
X6352759Y2942399D03*
G01*
X6352759Y2905000D03*
G01*
X6352759Y2867600D03*
G01*
X6447240Y3132600D03*
G01*
X6447240Y3170000D03*
G01*
X6447240Y3207399D03*
G01*
X6352759Y3207399D03*
G01*
X6352759Y3170000D03*
G01*
X6352759Y3132600D03*
D11*
G01*
X3839375Y1259995D03*
G01*
X3760630Y1259995D03*
D12*
G01*
X4160630Y714995D03*
G01*
X4239375Y714995D03*
G01*
X3644375Y1259995D03*
G01*
X3565630Y1259995D03*
D11*
G01*
X4365630Y714995D03*
G01*
X4444375Y714995D03*
D12*
G01*
X6635630Y3339995D03*
G01*
X6714375Y3339995D03*
D13*
G01*
X6208509Y2905000D03*
G01*
X6271509Y2905000D03*
D14*
G01*
X6550000Y2781500D03*
G01*
X6550000Y2718499D03*
D15*
G01*
X6684600Y3676379D03*
G01*
X6594049Y3676379D03*
G01*
X6503490Y3676379D03*
D16*
G01*
X6594045Y3453150D03*
D17*
G01*
X6100000Y649259D03*
G01*
X6100000Y830749D03*
D18*
G01*
X5843110Y675000D03*
G01*
X5606889Y675000D03*
D19*
G01*
X6942489Y3525030D03*
G01*
X7296819Y3525030D03*
G01*
X7296819Y2889200D03*
G01*
X6942489Y2889200D03*
D20*
G01*
X6865050Y2943530D03*
G01*
X6865050Y2986840D03*
G01*
X6865050Y3030149D03*
G01*
X6865050Y3073460D03*
G01*
X6865050Y3116759D03*
G01*
X6865050Y3160070D03*
G01*
X6865050Y3203380D03*
G01*
X6865050Y3246680D03*
G01*
X6865050Y3289989D03*
D14*
G01*
X6635000Y3156500D03*
G01*
X6635000Y3093499D03*
G01*
X6775000Y3093510D03*
G01*
X6775000Y3156509D03*
D13*
G01*
X6343509Y3675000D03*
G01*
X6406509Y3675000D03*
G01*
X6208509Y3170000D03*
G01*
X6271509Y3170000D03*
D14*
G01*
X6775000Y3016500D03*
G01*
X6775000Y2953499D03*
G01*
X6850000Y2718499D03*
G01*
X6850000Y2781500D03*
G01*
X6750000Y2718499D03*
G01*
X6750000Y2781500D03*
G01*
X6650000Y2718499D03*
G01*
X6650000Y2781500D03*
D18*
G01*
X2256889Y1310000D03*
G01*
X2493110Y1310000D03*
G01*
X6406889Y650000D03*
G01*
X6643110Y650000D03*
D21*
G01*
X6175000Y3376890D03*
G01*
X6175000Y3613109D03*
G01*
X1590000Y3476890D03*
G01*
X1590000Y3713109D03*
M02*
