M48
INCH,LZ
;FILE_FORMAT=2:4
;TYPE=PLATED
;Layer: PTH_Through
;EasyEDA v6.5.39, 2024-02-04 18:14:06
;e2768ddda3314ff98ce937aebec43eb4,5509f98a9368439c9cde498926e245b9,10
;Gerber Generator version 0.2
;Holesize 1 = 0.0300 inch
T01C0.0300
;Holesize 2 = 0.0350 inch
T02C0.0350
%
G05
G90
T01
X022250Y003250
X021250Y003250
X020250Y003250
X019250Y003250
X018250Y003250
X017250Y003250
X016250Y003250
X015250Y003250
X014250Y003250
X014250Y006250
X015250Y006250
X016250Y006250
X017250Y006250
X018250Y006250
X019250Y006250
X020250Y006250
X021250Y006250
X022250Y006250
T02
X003250Y008250
X002250Y008250
X021250Y008250
X004250Y008250
X005250Y008250
X006250Y008250
X007250Y008250
X008250Y008250
X009250Y008250
X010250Y008250
X011250Y008250
X012250Y008250
X013250Y008250
X014250Y008250
X015250Y008250
X016250Y008250
X017250Y008250
X018250Y008250
X019250Y008250
X020250Y008250
X002250Y015250
X020250Y015250
X019250Y015250
X018250Y015250
X017250Y015250
X016250Y015250
X015250Y015250
X014250Y015250
X013250Y015250
X012250Y015250
X011250Y015250
X010250Y015250
X009250Y015250
X008250Y015250
X007250Y015250
X006250Y015250
X005250Y015250
X004250Y015250
X021250Y015250
X003250Y015250
X021156Y011750
X021156Y010750
X021156Y012750
X002250Y004750
X003250Y004750
X004250Y004750
X005250Y004750
X006250Y004750
X007250Y004750
X008250Y004750
X009250Y004750
X010250Y004750
X022750Y013750
X023750Y015750
X023750Y014750
X023750Y013750
X007250Y002000
X002250Y002000
X003250Y002000
X004250Y002000
X005250Y002000
X006250Y002000
X008250Y002000
X009250Y002000
X010250Y002000
X011250Y002000
X015250Y002000
X016250Y002000
X017250Y002000
X018250Y002000
X019250Y002000
X020250Y002000
X021250Y002000
X022250Y002000
X012250Y002000
X013250Y002000
X014250Y002000
X023750Y007750
X023750Y008750
X023750Y009750
X023750Y012750
X023750Y011750
X023750Y010750
X011750Y004250
M30
