G04 Layer: TopLayer*
G04 EasyEDA v6.5.39, 2024-02-04 18:14:06*
G04 e2768ddda3314ff98ce937aebec43eb4,5509f98a9368439c9cde498926e245b9,10*
G04 Gerber Generator version 0.2*
G04 Scale: 100 percent, Rotated: No, Reflected: No *
G04 Dimensions in inches *
G04 leading zeros omitted , absolute positions ,3 integer and 6 decimal *
%FSLAX36Y36*%
%MOIN*%

%ADD10C,0.0150*%
%ADD11R,0.0630X0.0630*%
%ADD12C,0.0620*%
%ADD13R,0.0620X0.0630*%
%ADD14R,0.0620X0.0620*%
%ADD15C,0.0700*%
%ADD16C,0.0191*%

%LPD*%
G36*
X114200Y110200D02*
G01*
X112660Y110500D01*
X111380Y111380D01*
X110500Y112660D01*
X110200Y114200D01*
X110200Y1660600D01*
X110500Y1662140D01*
X111380Y1663420D01*
X112660Y1664300D01*
X114200Y1664600D01*
X2487380Y1664600D01*
X2488900Y1664300D01*
X2490200Y1663420D01*
X2491060Y1662140D01*
X2491380Y1660600D01*
X2491380Y114200D01*
X2491060Y112660D01*
X2490200Y111380D01*
X2488900Y110500D01*
X2487380Y110200D01*
G37*

%LPC*%
G36*
X194200Y156800D02*
G01*
X219000Y156800D01*
X219000Y194000D01*
X181800Y194000D01*
X181800Y169200D01*
X182040Y166620D01*
X182740Y164340D01*
X183860Y162220D01*
X185380Y160380D01*
X187220Y158860D01*
X189340Y157740D01*
X191620Y157040D01*
G37*
G36*
X231000Y156800D02*
G01*
X255799Y156800D01*
X258380Y157040D01*
X260660Y157740D01*
X262780Y158860D01*
X264620Y160380D01*
X266140Y162220D01*
X267260Y164340D01*
X267960Y166620D01*
X268200Y169200D01*
X268200Y194000D01*
X231000Y194000D01*
G37*
G36*
X726380Y156820D02*
G01*
X731900Y157360D01*
X737300Y158580D01*
X742480Y160500D01*
X747400Y163060D01*
X751940Y166220D01*
X756040Y169940D01*
X759620Y174160D01*
X762640Y178800D01*
X765040Y183780D01*
X766780Y189040D01*
X767840Y194480D01*
X768199Y200000D01*
X767840Y205520D01*
X766780Y210960D01*
X765040Y216220D01*
X762640Y221200D01*
X759620Y225840D01*
X756040Y230060D01*
X751940Y233780D01*
X747400Y236940D01*
X742480Y239500D01*
X737300Y241420D01*
X731900Y242640D01*
X726380Y243180D01*
X720860Y243000D01*
X715380Y242120D01*
X710080Y240539D01*
X705020Y238299D01*
X700280Y235440D01*
X695960Y231980D01*
X692099Y228000D01*
X688800Y223560D01*
X686080Y218740D01*
X684000Y213619D01*
X682600Y208260D01*
X681880Y202760D01*
X681880Y197240D01*
X682600Y191740D01*
X684000Y186380D01*
X686080Y181260D01*
X688800Y176439D01*
X692099Y172000D01*
X695960Y168020D01*
X700280Y164560D01*
X705020Y161700D01*
X710080Y159460D01*
X715380Y157880D01*
X720860Y157000D01*
G37*
G36*
X826380Y156820D02*
G01*
X831900Y157360D01*
X837300Y158580D01*
X842480Y160500D01*
X847400Y163060D01*
X851940Y166220D01*
X856040Y169940D01*
X859620Y174160D01*
X862640Y178800D01*
X865040Y183780D01*
X866780Y189040D01*
X867840Y194480D01*
X868199Y200000D01*
X867840Y205520D01*
X866780Y210960D01*
X865040Y216220D01*
X862640Y221200D01*
X859620Y225840D01*
X856040Y230060D01*
X851940Y233780D01*
X847400Y236940D01*
X842480Y239500D01*
X837300Y241420D01*
X831900Y242640D01*
X826380Y243180D01*
X820860Y243000D01*
X815380Y242120D01*
X810080Y240539D01*
X805020Y238299D01*
X800280Y235440D01*
X795960Y231980D01*
X792099Y228000D01*
X788800Y223560D01*
X786080Y218740D01*
X784000Y213619D01*
X782600Y208260D01*
X781880Y202760D01*
X781880Y197240D01*
X782600Y191740D01*
X784000Y186380D01*
X786080Y181260D01*
X788800Y176439D01*
X792099Y172000D01*
X795960Y168020D01*
X800280Y164560D01*
X805020Y161700D01*
X810080Y159460D01*
X815380Y157880D01*
X820860Y157000D01*
G37*
G36*
X526380Y156820D02*
G01*
X531900Y157360D01*
X537300Y158580D01*
X542480Y160500D01*
X547400Y163060D01*
X551940Y166220D01*
X556040Y169940D01*
X559620Y174160D01*
X562640Y178800D01*
X565040Y183780D01*
X566780Y189040D01*
X567840Y194480D01*
X568200Y200000D01*
X567840Y205520D01*
X566780Y210960D01*
X565040Y216220D01*
X562640Y221200D01*
X559620Y225840D01*
X556040Y230060D01*
X551940Y233780D01*
X547400Y236940D01*
X542480Y239500D01*
X537300Y241420D01*
X531900Y242640D01*
X526380Y243180D01*
X520860Y243000D01*
X515379Y242120D01*
X510080Y240539D01*
X505020Y238299D01*
X500280Y235440D01*
X495959Y231980D01*
X492100Y228000D01*
X488800Y223560D01*
X486079Y218740D01*
X484000Y213619D01*
X482600Y208260D01*
X481880Y202760D01*
X481880Y197240D01*
X482600Y191740D01*
X484000Y186380D01*
X486079Y181260D01*
X488800Y176439D01*
X492100Y172000D01*
X495959Y168020D01*
X500280Y164560D01*
X505020Y161700D01*
X510080Y159460D01*
X515379Y157880D01*
X520860Y157000D01*
G37*
G36*
X626380Y156820D02*
G01*
X631900Y157360D01*
X637300Y158580D01*
X642480Y160500D01*
X647400Y163060D01*
X651940Y166220D01*
X656040Y169940D01*
X659620Y174160D01*
X662640Y178800D01*
X665040Y183780D01*
X666780Y189040D01*
X667840Y194480D01*
X668199Y200000D01*
X667840Y205520D01*
X666780Y210960D01*
X665040Y216220D01*
X662640Y221200D01*
X659620Y225840D01*
X656040Y230060D01*
X651940Y233780D01*
X647400Y236940D01*
X642480Y239500D01*
X637300Y241420D01*
X631900Y242640D01*
X626380Y243180D01*
X620860Y243000D01*
X615380Y242120D01*
X610080Y240539D01*
X605020Y238299D01*
X600280Y235440D01*
X595960Y231980D01*
X592100Y228000D01*
X588800Y223560D01*
X586080Y218740D01*
X584000Y213619D01*
X582600Y208260D01*
X581880Y202760D01*
X581880Y197240D01*
X582600Y191740D01*
X584000Y186380D01*
X586080Y181260D01*
X588800Y176439D01*
X592100Y172000D01*
X595960Y168020D01*
X600280Y164560D01*
X605020Y161700D01*
X610080Y159460D01*
X615380Y157880D01*
X620860Y157000D01*
G37*
G36*
X426380Y156820D02*
G01*
X431900Y157360D01*
X437299Y158580D01*
X442480Y160500D01*
X447400Y163060D01*
X451940Y166220D01*
X456040Y169940D01*
X459620Y174160D01*
X462640Y178800D01*
X465040Y183780D01*
X466780Y189040D01*
X467840Y194480D01*
X468200Y200000D01*
X467840Y205520D01*
X466780Y210960D01*
X465040Y216220D01*
X462640Y221200D01*
X459620Y225840D01*
X456040Y230060D01*
X451940Y233780D01*
X447400Y236940D01*
X442480Y239500D01*
X437299Y241420D01*
X431900Y242640D01*
X426380Y243180D01*
X420860Y243000D01*
X415379Y242120D01*
X410080Y240539D01*
X405020Y238299D01*
X400280Y235440D01*
X395959Y231980D01*
X392100Y228000D01*
X388800Y223560D01*
X386079Y218740D01*
X384000Y213619D01*
X382600Y208260D01*
X381880Y202760D01*
X381880Y197240D01*
X382600Y191740D01*
X384000Y186380D01*
X386079Y181260D01*
X388800Y176439D01*
X392100Y172000D01*
X395959Y168020D01*
X400280Y164560D01*
X405020Y161700D01*
X410080Y159460D01*
X415379Y157880D01*
X420860Y157000D01*
G37*
G36*
X326380Y156820D02*
G01*
X331900Y157360D01*
X337299Y158580D01*
X342480Y160500D01*
X347400Y163060D01*
X351940Y166220D01*
X356040Y169940D01*
X359620Y174160D01*
X362640Y178800D01*
X365040Y183780D01*
X366780Y189040D01*
X367840Y194480D01*
X368200Y200000D01*
X367840Y205520D01*
X366780Y210960D01*
X365040Y216220D01*
X362640Y221200D01*
X359620Y225840D01*
X356040Y230060D01*
X351940Y233780D01*
X347400Y236940D01*
X342480Y239500D01*
X337299Y241420D01*
X331900Y242640D01*
X326380Y243180D01*
X320860Y243000D01*
X315380Y242120D01*
X310080Y240539D01*
X305020Y238299D01*
X300280Y235440D01*
X295960Y231980D01*
X292100Y228000D01*
X288800Y223560D01*
X286080Y218740D01*
X284000Y213619D01*
X282600Y208260D01*
X281880Y202760D01*
X281880Y197240D01*
X282600Y191740D01*
X284000Y186380D01*
X286080Y181260D01*
X288800Y176439D01*
X292100Y172000D01*
X295960Y168020D01*
X300280Y164560D01*
X305020Y161700D01*
X310080Y159460D01*
X315380Y157880D01*
X320860Y157000D01*
G37*
G36*
X926380Y156820D02*
G01*
X931900Y157360D01*
X937300Y158580D01*
X942480Y160500D01*
X947400Y163060D01*
X951940Y166220D01*
X956040Y169940D01*
X959620Y174160D01*
X962640Y178800D01*
X965040Y183780D01*
X966780Y189040D01*
X967840Y194480D01*
X968199Y200000D01*
X967840Y205520D01*
X966780Y210960D01*
X965040Y216220D01*
X962640Y221200D01*
X959620Y225840D01*
X956040Y230060D01*
X951940Y233780D01*
X947400Y236940D01*
X942480Y239500D01*
X937300Y241420D01*
X931900Y242640D01*
X926380Y243180D01*
X920860Y243000D01*
X915380Y242120D01*
X910080Y240539D01*
X905020Y238299D01*
X900280Y235440D01*
X895960Y231980D01*
X892099Y228000D01*
X888800Y223560D01*
X886080Y218740D01*
X884000Y213619D01*
X882600Y208260D01*
X881880Y202760D01*
X881880Y197240D01*
X882600Y191740D01*
X884000Y186380D01*
X886080Y181260D01*
X888800Y176439D01*
X892099Y172000D01*
X895960Y168020D01*
X900280Y164560D01*
X905020Y161700D01*
X910080Y159460D01*
X915380Y157880D01*
X920860Y157000D01*
G37*
G36*
X1526380Y156820D02*
G01*
X1531900Y157360D01*
X1537300Y158580D01*
X1542480Y160500D01*
X1547400Y163060D01*
X1551940Y166220D01*
X1556040Y169940D01*
X1559620Y174160D01*
X1562640Y178800D01*
X1565040Y183780D01*
X1566780Y189040D01*
X1567840Y194480D01*
X1568200Y200000D01*
X1567840Y205520D01*
X1566780Y210960D01*
X1565040Y216220D01*
X1562640Y221200D01*
X1559620Y225840D01*
X1556040Y230060D01*
X1551940Y233780D01*
X1547400Y236940D01*
X1542480Y239500D01*
X1537300Y241420D01*
X1531900Y242640D01*
X1526380Y243180D01*
X1520860Y243000D01*
X1515380Y242120D01*
X1510080Y240539D01*
X1505020Y238299D01*
X1500280Y235440D01*
X1495960Y231980D01*
X1492100Y228000D01*
X1488800Y223560D01*
X1486080Y218740D01*
X1484000Y213619D01*
X1482600Y208260D01*
X1481879Y202760D01*
X1481879Y197240D01*
X1482600Y191740D01*
X1484000Y186380D01*
X1486080Y181260D01*
X1488800Y176439D01*
X1492100Y172000D01*
X1495960Y168020D01*
X1500280Y164560D01*
X1505020Y161700D01*
X1510080Y159460D01*
X1515380Y157880D01*
X1520860Y157000D01*
G37*
G36*
X2026380Y156820D02*
G01*
X2031900Y157360D01*
X2037300Y158580D01*
X2042480Y160500D01*
X2047400Y163060D01*
X2051940Y166220D01*
X2056040Y169940D01*
X2059620Y174160D01*
X2062640Y178800D01*
X2065040Y183780D01*
X2066780Y189040D01*
X2067840Y194480D01*
X2068200Y200000D01*
X2067840Y205520D01*
X2066780Y210960D01*
X2065040Y216220D01*
X2062640Y221200D01*
X2059620Y225840D01*
X2056040Y230060D01*
X2051940Y233780D01*
X2047400Y236940D01*
X2042480Y239500D01*
X2037300Y241420D01*
X2031900Y242640D01*
X2026380Y243180D01*
X2020860Y243000D01*
X2015380Y242120D01*
X2010080Y240539D01*
X2005020Y238299D01*
X2000280Y235440D01*
X1995960Y231980D01*
X1992100Y228000D01*
X1988800Y223560D01*
X1986080Y218740D01*
X1984000Y213619D01*
X1982600Y208260D01*
X1981879Y202760D01*
X1981879Y197240D01*
X1982600Y191740D01*
X1984000Y186380D01*
X1986080Y181260D01*
X1988800Y176439D01*
X1992100Y172000D01*
X1995960Y168020D01*
X2000280Y164560D01*
X2005020Y161700D01*
X2010080Y159460D01*
X2015380Y157880D01*
X2020860Y157000D01*
G37*
G36*
X1126380Y156820D02*
G01*
X1131900Y157360D01*
X1137300Y158580D01*
X1142480Y160500D01*
X1147400Y163060D01*
X1151940Y166220D01*
X1156040Y169940D01*
X1159620Y174160D01*
X1162640Y178800D01*
X1165040Y183780D01*
X1166780Y189040D01*
X1167840Y194480D01*
X1168200Y200000D01*
X1167840Y205520D01*
X1166780Y210960D01*
X1165040Y216220D01*
X1162640Y221200D01*
X1159620Y225840D01*
X1156040Y230060D01*
X1151940Y233780D01*
X1147400Y236940D01*
X1142480Y239500D01*
X1137300Y241420D01*
X1131900Y242640D01*
X1126380Y243180D01*
X1120860Y243000D01*
X1115380Y242120D01*
X1110080Y240539D01*
X1105020Y238299D01*
X1100280Y235440D01*
X1095960Y231980D01*
X1092100Y228000D01*
X1088800Y223560D01*
X1086080Y218740D01*
X1084000Y213619D01*
X1082600Y208260D01*
X1081880Y202760D01*
X1081880Y197240D01*
X1082600Y191740D01*
X1084000Y186380D01*
X1086080Y181260D01*
X1088800Y176439D01*
X1092100Y172000D01*
X1095960Y168020D01*
X1100280Y164560D01*
X1105020Y161700D01*
X1110080Y159460D01*
X1115380Y157880D01*
X1120860Y157000D01*
G37*
G36*
X2226380Y156820D02*
G01*
X2231900Y157360D01*
X2237300Y158580D01*
X2242480Y160500D01*
X2247400Y163060D01*
X2251940Y166220D01*
X2256040Y169940D01*
X2259620Y174160D01*
X2262640Y178800D01*
X2265040Y183780D01*
X2266780Y189040D01*
X2267840Y194480D01*
X2268200Y200000D01*
X2267840Y205520D01*
X2266780Y210960D01*
X2265040Y216220D01*
X2262640Y221200D01*
X2259620Y225840D01*
X2256040Y230060D01*
X2251940Y233780D01*
X2247400Y236940D01*
X2242480Y239500D01*
X2237300Y241420D01*
X2231900Y242640D01*
X2226380Y243180D01*
X2220860Y243000D01*
X2215380Y242120D01*
X2210080Y240539D01*
X2205020Y238299D01*
X2200280Y235440D01*
X2195960Y231980D01*
X2192100Y228000D01*
X2188800Y223560D01*
X2186080Y218740D01*
X2184000Y213619D01*
X2182600Y208260D01*
X2181880Y202760D01*
X2181880Y197240D01*
X2182600Y191740D01*
X2184000Y186380D01*
X2186080Y181260D01*
X2188800Y176439D01*
X2192100Y172000D01*
X2195960Y168020D01*
X2200280Y164560D01*
X2205020Y161700D01*
X2210080Y159460D01*
X2215380Y157880D01*
X2220860Y157000D01*
G37*
G36*
X2126380Y156820D02*
G01*
X2131900Y157360D01*
X2137300Y158580D01*
X2142480Y160500D01*
X2147400Y163060D01*
X2151940Y166220D01*
X2156040Y169940D01*
X2159620Y174160D01*
X2162640Y178800D01*
X2165040Y183780D01*
X2166780Y189040D01*
X2167840Y194480D01*
X2168200Y200000D01*
X2167840Y205520D01*
X2166780Y210960D01*
X2165040Y216220D01*
X2162640Y221200D01*
X2159620Y225840D01*
X2156040Y230060D01*
X2151940Y233780D01*
X2147400Y236940D01*
X2142480Y239500D01*
X2137300Y241420D01*
X2131900Y242640D01*
X2126380Y243180D01*
X2120860Y243000D01*
X2115380Y242120D01*
X2110080Y240539D01*
X2105020Y238299D01*
X2100280Y235440D01*
X2095960Y231980D01*
X2092100Y228000D01*
X2088800Y223560D01*
X2086080Y218740D01*
X2084000Y213619D01*
X2082600Y208260D01*
X2081879Y202760D01*
X2081879Y197240D01*
X2082600Y191740D01*
X2084000Y186380D01*
X2086080Y181260D01*
X2088800Y176439D01*
X2092100Y172000D01*
X2095960Y168020D01*
X2100280Y164560D01*
X2105020Y161700D01*
X2110080Y159460D01*
X2115380Y157880D01*
X2120860Y157000D01*
G37*
G36*
X1426380Y156820D02*
G01*
X1431900Y157360D01*
X1437300Y158580D01*
X1442480Y160500D01*
X1447400Y163060D01*
X1451940Y166220D01*
X1456040Y169940D01*
X1459620Y174160D01*
X1462640Y178800D01*
X1465040Y183780D01*
X1466780Y189040D01*
X1467840Y194480D01*
X1468200Y200000D01*
X1467840Y205520D01*
X1466780Y210960D01*
X1465040Y216220D01*
X1462640Y221200D01*
X1459620Y225840D01*
X1456040Y230060D01*
X1451940Y233780D01*
X1447400Y236940D01*
X1442480Y239500D01*
X1437300Y241420D01*
X1431900Y242640D01*
X1426380Y243180D01*
X1420860Y243000D01*
X1415380Y242120D01*
X1410080Y240539D01*
X1405020Y238299D01*
X1400280Y235440D01*
X1395960Y231980D01*
X1392100Y228000D01*
X1388800Y223560D01*
X1386080Y218740D01*
X1384000Y213619D01*
X1382600Y208260D01*
X1381879Y202760D01*
X1381879Y197240D01*
X1382600Y191740D01*
X1384000Y186380D01*
X1386080Y181260D01*
X1388800Y176439D01*
X1392100Y172000D01*
X1395960Y168020D01*
X1400280Y164560D01*
X1405020Y161700D01*
X1410080Y159460D01*
X1415380Y157880D01*
X1420860Y157000D01*
G37*
G36*
X1926380Y156820D02*
G01*
X1931900Y157360D01*
X1937300Y158580D01*
X1942480Y160500D01*
X1947400Y163060D01*
X1951940Y166220D01*
X1956040Y169940D01*
X1959620Y174160D01*
X1962640Y178800D01*
X1965040Y183780D01*
X1966780Y189040D01*
X1967840Y194480D01*
X1968200Y200000D01*
X1967840Y205520D01*
X1966780Y210960D01*
X1965040Y216220D01*
X1962640Y221200D01*
X1959620Y225840D01*
X1956040Y230060D01*
X1951940Y233780D01*
X1947400Y236940D01*
X1942480Y239500D01*
X1937300Y241420D01*
X1931900Y242640D01*
X1926380Y243180D01*
X1920860Y243000D01*
X1915380Y242120D01*
X1910080Y240539D01*
X1905020Y238299D01*
X1900280Y235440D01*
X1895960Y231980D01*
X1892100Y228000D01*
X1888800Y223560D01*
X1886080Y218740D01*
X1884000Y213619D01*
X1882600Y208260D01*
X1881879Y202760D01*
X1881879Y197240D01*
X1882600Y191740D01*
X1884000Y186380D01*
X1886080Y181260D01*
X1888800Y176439D01*
X1892100Y172000D01*
X1895960Y168020D01*
X1900280Y164560D01*
X1905020Y161700D01*
X1910080Y159460D01*
X1915380Y157880D01*
X1920860Y157000D01*
G37*
G36*
X1826380Y156820D02*
G01*
X1831900Y157360D01*
X1837300Y158580D01*
X1842480Y160500D01*
X1847400Y163060D01*
X1851940Y166220D01*
X1856040Y169940D01*
X1859620Y174160D01*
X1862640Y178800D01*
X1865040Y183780D01*
X1866780Y189040D01*
X1867840Y194480D01*
X1868200Y200000D01*
X1867840Y205520D01*
X1866780Y210960D01*
X1865040Y216220D01*
X1862640Y221200D01*
X1859620Y225840D01*
X1856040Y230060D01*
X1851940Y233780D01*
X1847400Y236940D01*
X1842480Y239500D01*
X1837300Y241420D01*
X1831900Y242640D01*
X1826380Y243180D01*
X1820860Y243000D01*
X1815380Y242120D01*
X1810080Y240539D01*
X1805020Y238299D01*
X1800280Y235440D01*
X1795960Y231980D01*
X1792100Y228000D01*
X1788800Y223560D01*
X1786080Y218740D01*
X1784000Y213619D01*
X1782600Y208260D01*
X1781879Y202760D01*
X1781879Y197240D01*
X1782600Y191740D01*
X1784000Y186380D01*
X1786080Y181260D01*
X1788800Y176439D01*
X1792100Y172000D01*
X1795960Y168020D01*
X1800280Y164560D01*
X1805020Y161700D01*
X1810080Y159460D01*
X1815380Y157880D01*
X1820860Y157000D01*
G37*
G36*
X1726380Y156820D02*
G01*
X1731900Y157360D01*
X1737300Y158580D01*
X1742480Y160500D01*
X1747400Y163060D01*
X1751940Y166220D01*
X1756040Y169940D01*
X1759620Y174160D01*
X1762640Y178800D01*
X1765040Y183780D01*
X1766780Y189040D01*
X1767840Y194480D01*
X1768200Y200000D01*
X1767840Y205520D01*
X1766780Y210960D01*
X1765040Y216220D01*
X1762640Y221200D01*
X1759620Y225840D01*
X1756040Y230060D01*
X1751940Y233780D01*
X1747400Y236940D01*
X1742480Y239500D01*
X1737300Y241420D01*
X1731900Y242640D01*
X1726380Y243180D01*
X1720860Y243000D01*
X1715380Y242120D01*
X1710080Y240539D01*
X1705020Y238299D01*
X1700280Y235440D01*
X1695960Y231980D01*
X1692100Y228000D01*
X1688800Y223560D01*
X1686080Y218740D01*
X1684000Y213619D01*
X1682600Y208260D01*
X1681879Y202760D01*
X1681879Y197240D01*
X1682600Y191740D01*
X1684000Y186380D01*
X1686080Y181260D01*
X1688800Y176439D01*
X1692100Y172000D01*
X1695960Y168020D01*
X1700280Y164560D01*
X1705020Y161700D01*
X1710080Y159460D01*
X1715380Y157880D01*
X1720860Y157000D01*
G37*
G36*
X1626380Y156820D02*
G01*
X1631900Y157360D01*
X1637300Y158580D01*
X1642480Y160500D01*
X1647400Y163060D01*
X1651940Y166220D01*
X1656040Y169940D01*
X1659620Y174160D01*
X1662640Y178800D01*
X1665040Y183780D01*
X1666780Y189040D01*
X1667840Y194480D01*
X1668200Y200000D01*
X1667840Y205520D01*
X1666780Y210960D01*
X1665040Y216220D01*
X1662640Y221200D01*
X1659620Y225840D01*
X1656040Y230060D01*
X1651940Y233780D01*
X1647400Y236940D01*
X1642480Y239500D01*
X1637300Y241420D01*
X1631900Y242640D01*
X1626380Y243180D01*
X1620860Y243000D01*
X1615380Y242120D01*
X1610080Y240539D01*
X1605020Y238299D01*
X1600280Y235440D01*
X1595960Y231980D01*
X1592100Y228000D01*
X1588800Y223560D01*
X1586080Y218740D01*
X1584000Y213619D01*
X1582600Y208260D01*
X1581879Y202760D01*
X1581879Y197240D01*
X1582600Y191740D01*
X1584000Y186380D01*
X1586080Y181260D01*
X1588800Y176439D01*
X1592100Y172000D01*
X1595960Y168020D01*
X1600280Y164560D01*
X1605020Y161700D01*
X1610080Y159460D01*
X1615380Y157880D01*
X1620860Y157000D01*
G37*
G36*
X1326380Y156820D02*
G01*
X1331900Y157360D01*
X1337300Y158580D01*
X1342480Y160500D01*
X1347400Y163060D01*
X1351940Y166220D01*
X1356040Y169940D01*
X1359620Y174160D01*
X1362640Y178800D01*
X1365040Y183780D01*
X1366780Y189040D01*
X1367840Y194480D01*
X1368200Y200000D01*
X1367840Y205520D01*
X1366780Y210960D01*
X1365040Y216220D01*
X1362640Y221200D01*
X1359600Y225859D01*
X1358120Y227680D01*
X1345480Y245120D01*
X1344900Y246240D01*
X1344700Y247460D01*
X1344700Y274920D01*
X1344620Y276720D01*
X1344400Y278420D01*
X1344040Y280100D01*
X1343520Y281740D01*
X1342860Y283320D01*
X1342060Y284860D01*
X1341140Y286300D01*
X1340100Y287660D01*
X1338880Y289000D01*
X1226520Y401360D01*
X1225760Y402420D01*
X1225380Y403660D01*
X1222020Y428960D01*
X1221860Y430740D01*
X1220780Y436520D01*
X1219020Y442060D01*
X1216580Y447340D01*
X1213520Y452280D01*
X1209880Y456800D01*
X1205700Y460840D01*
X1201080Y464340D01*
X1196040Y467260D01*
X1190680Y469520D01*
X1185100Y471100D01*
X1179360Y472000D01*
X1173540Y472180D01*
X1167760Y471640D01*
X1162080Y470400D01*
X1156600Y468459D01*
X1151400Y465880D01*
X1146560Y462660D01*
X1142140Y458880D01*
X1138220Y454600D01*
X1134860Y449840D01*
X1132120Y444720D01*
X1130020Y439300D01*
X1128600Y433680D01*
X1127880Y427900D01*
X1127880Y422100D01*
X1128600Y416320D01*
X1130020Y410700D01*
X1132120Y405280D01*
X1134860Y400160D01*
X1138220Y395400D01*
X1142140Y391120D01*
X1146560Y387340D01*
X1151400Y384120D01*
X1156600Y381540D01*
X1162080Y379600D01*
X1167800Y378340D01*
X1171200Y377960D01*
X1196340Y374620D01*
X1197580Y374240D01*
X1198640Y373480D01*
X1304120Y268000D01*
X1304980Y266720D01*
X1305300Y265180D01*
X1305300Y247460D01*
X1305100Y246240D01*
X1304520Y245120D01*
X1292180Y228100D01*
X1288800Y223560D01*
X1286080Y218740D01*
X1284000Y213619D01*
X1282600Y208260D01*
X1281879Y202760D01*
X1281879Y197240D01*
X1282600Y191740D01*
X1284000Y186380D01*
X1286080Y181260D01*
X1288800Y176439D01*
X1292100Y172000D01*
X1295960Y168020D01*
X1300280Y164560D01*
X1305020Y161700D01*
X1310080Y159460D01*
X1315380Y157880D01*
X1320860Y157000D01*
G37*
G36*
X1231000Y157260D02*
G01*
X1231900Y157360D01*
X1237300Y158580D01*
X1242480Y160500D01*
X1247400Y163060D01*
X1251940Y166220D01*
X1256040Y169940D01*
X1259620Y174160D01*
X1262640Y178800D01*
X1265040Y183780D01*
X1266780Y189040D01*
X1267760Y194000D01*
X1231000Y194000D01*
G37*
G36*
X1031000Y157260D02*
G01*
X1031900Y157360D01*
X1037300Y158580D01*
X1042480Y160500D01*
X1047400Y163060D01*
X1051940Y166220D01*
X1056040Y169940D01*
X1059620Y174160D01*
X1062640Y178800D01*
X1065040Y183780D01*
X1066780Y189040D01*
X1067760Y194000D01*
X1031000Y194000D01*
G37*
G36*
X1219000Y157300D02*
G01*
X1219000Y194000D01*
X1182300Y194000D01*
X1182600Y191740D01*
X1184000Y186380D01*
X1186080Y181260D01*
X1188800Y176439D01*
X1192100Y172000D01*
X1195960Y168020D01*
X1200280Y164560D01*
X1205020Y161700D01*
X1210080Y159460D01*
X1215380Y157880D01*
G37*
G36*
X1019000Y157300D02*
G01*
X1019000Y194000D01*
X982300Y194000D01*
X982600Y191740D01*
X984000Y186380D01*
X986080Y181260D01*
X988800Y176439D01*
X992099Y172000D01*
X995960Y168020D01*
X1000280Y164560D01*
X1005020Y161700D01*
X1010080Y159460D01*
X1015380Y157880D01*
G37*
G36*
X1182300Y206000D02*
G01*
X1219000Y206000D01*
X1219000Y242700D01*
X1215380Y242120D01*
X1210080Y240539D01*
X1205020Y238299D01*
X1200280Y235440D01*
X1195960Y231980D01*
X1192100Y228000D01*
X1188800Y223560D01*
X1186080Y218740D01*
X1184000Y213619D01*
X1182600Y208260D01*
G37*
G36*
X982300Y206000D02*
G01*
X1019000Y206000D01*
X1019000Y242700D01*
X1015380Y242120D01*
X1010080Y240539D01*
X1005020Y238299D01*
X1000280Y235440D01*
X995960Y231980D01*
X992099Y228000D01*
X988800Y223560D01*
X986080Y218740D01*
X984000Y213619D01*
X982600Y208260D01*
G37*
G36*
X1231000Y206000D02*
G01*
X1267760Y206000D01*
X1266780Y210960D01*
X1265040Y216220D01*
X1262640Y221200D01*
X1259620Y225840D01*
X1256040Y230060D01*
X1251940Y233780D01*
X1247400Y236940D01*
X1242480Y239500D01*
X1237300Y241420D01*
X1231900Y242640D01*
X1231000Y242740D01*
G37*
G36*
X1031000Y206000D02*
G01*
X1067760Y206000D01*
X1066780Y210960D01*
X1065040Y216220D01*
X1062640Y221200D01*
X1059620Y225840D01*
X1056040Y230060D01*
X1051940Y233780D01*
X1047400Y236940D01*
X1042480Y239500D01*
X1037300Y241420D01*
X1031900Y242640D01*
X1031000Y242740D01*
G37*
G36*
X231000Y206000D02*
G01*
X268200Y206000D01*
X268200Y230799D01*
X267960Y233380D01*
X267260Y235660D01*
X266140Y237780D01*
X264620Y239620D01*
X262780Y241140D01*
X260660Y242260D01*
X258380Y242960D01*
X255799Y243200D01*
X231000Y243200D01*
G37*
G36*
X181800Y206000D02*
G01*
X219000Y206000D01*
X219000Y243200D01*
X194200Y243200D01*
X191620Y242960D01*
X189340Y242260D01*
X187220Y241140D01*
X185380Y239620D01*
X183860Y237780D01*
X182740Y235660D01*
X182040Y233380D01*
X181800Y230799D01*
G37*
G36*
X1523620Y281820D02*
G01*
X1529139Y282000D01*
X1534620Y282880D01*
X1539920Y284460D01*
X1544980Y286700D01*
X1549720Y289560D01*
X1554040Y293020D01*
X1557900Y297000D01*
X1561200Y301440D01*
X1563920Y306260D01*
X1566000Y311380D01*
X1567400Y316740D01*
X1568120Y322239D01*
X1568120Y327760D01*
X1567400Y333260D01*
X1566000Y338620D01*
X1563920Y343740D01*
X1561200Y348560D01*
X1557900Y353000D01*
X1554040Y356980D01*
X1549720Y360439D01*
X1544980Y363300D01*
X1539920Y365540D01*
X1534620Y367120D01*
X1529139Y368000D01*
X1523620Y368180D01*
X1518100Y367640D01*
X1512700Y366420D01*
X1507520Y364500D01*
X1502600Y361940D01*
X1498060Y358780D01*
X1493959Y355060D01*
X1490380Y350840D01*
X1487360Y346200D01*
X1484960Y341220D01*
X1483220Y335959D01*
X1482160Y330520D01*
X1481800Y325000D01*
X1482160Y319480D01*
X1483220Y314040D01*
X1484960Y308780D01*
X1487360Y303800D01*
X1490380Y299160D01*
X1493959Y294940D01*
X1498060Y291220D01*
X1502600Y288060D01*
X1507520Y285500D01*
X1512700Y283580D01*
X1518100Y282360D01*
G37*
G36*
X2023620Y281820D02*
G01*
X2029139Y282000D01*
X2034620Y282880D01*
X2039920Y284460D01*
X2044980Y286700D01*
X2049720Y289560D01*
X2054040Y293020D01*
X2057900Y297000D01*
X2061200Y301440D01*
X2063920Y306260D01*
X2066000Y311380D01*
X2067400Y316740D01*
X2068120Y322239D01*
X2068120Y327760D01*
X2067400Y333260D01*
X2066000Y338620D01*
X2063920Y343740D01*
X2061200Y348560D01*
X2057900Y353000D01*
X2054040Y356980D01*
X2049720Y360439D01*
X2044980Y363300D01*
X2039920Y365540D01*
X2034620Y367120D01*
X2029139Y368000D01*
X2023620Y368180D01*
X2018100Y367640D01*
X2012700Y366420D01*
X2007520Y364500D01*
X2002600Y361940D01*
X1998060Y358780D01*
X1993959Y355060D01*
X1990380Y350840D01*
X1987360Y346200D01*
X1984960Y341220D01*
X1983220Y335959D01*
X1982160Y330520D01*
X1981800Y325000D01*
X1982160Y319480D01*
X1983220Y314040D01*
X1984960Y308780D01*
X1987360Y303800D01*
X1990380Y299160D01*
X1993959Y294940D01*
X1998060Y291220D01*
X2002600Y288060D01*
X2007520Y285500D01*
X2012700Y283580D01*
X2018100Y282360D01*
G37*
G36*
X1423620Y281820D02*
G01*
X1429139Y282000D01*
X1434620Y282880D01*
X1439920Y284460D01*
X1444980Y286700D01*
X1449720Y289560D01*
X1454040Y293020D01*
X1457900Y297000D01*
X1461200Y301440D01*
X1463920Y306260D01*
X1466000Y311380D01*
X1467400Y316740D01*
X1468120Y322239D01*
X1468120Y327760D01*
X1467400Y333260D01*
X1466000Y338620D01*
X1463920Y343740D01*
X1461200Y348560D01*
X1457900Y353000D01*
X1454040Y356980D01*
X1449720Y360439D01*
X1444980Y363300D01*
X1439920Y365540D01*
X1434620Y367120D01*
X1429139Y368000D01*
X1423620Y368180D01*
X1418100Y367640D01*
X1412700Y366420D01*
X1407520Y364500D01*
X1402600Y361940D01*
X1398060Y358780D01*
X1393959Y355060D01*
X1390380Y350840D01*
X1387360Y346200D01*
X1384960Y341220D01*
X1383220Y335959D01*
X1382160Y330520D01*
X1381800Y325000D01*
X1382160Y319480D01*
X1383220Y314040D01*
X1384960Y308780D01*
X1387360Y303800D01*
X1390380Y299160D01*
X1393959Y294940D01*
X1398060Y291220D01*
X1402600Y288060D01*
X1407520Y285500D01*
X1412700Y283580D01*
X1418100Y282360D01*
G37*
G36*
X1923620Y281820D02*
G01*
X1929139Y282000D01*
X1934620Y282880D01*
X1939920Y284460D01*
X1944980Y286700D01*
X1949720Y289560D01*
X1954040Y293020D01*
X1957900Y297000D01*
X1961200Y301440D01*
X1963920Y306260D01*
X1966000Y311380D01*
X1967400Y316740D01*
X1968120Y322239D01*
X1968120Y327760D01*
X1967400Y333260D01*
X1966000Y338620D01*
X1963920Y343740D01*
X1961200Y348560D01*
X1957900Y353000D01*
X1954040Y356980D01*
X1949720Y360439D01*
X1944980Y363300D01*
X1939920Y365540D01*
X1934620Y367120D01*
X1929139Y368000D01*
X1923620Y368180D01*
X1918100Y367640D01*
X1912700Y366420D01*
X1907520Y364500D01*
X1902600Y361940D01*
X1898060Y358780D01*
X1893959Y355060D01*
X1890380Y350840D01*
X1887360Y346200D01*
X1884960Y341220D01*
X1883220Y335959D01*
X1882160Y330520D01*
X1881800Y325000D01*
X1882160Y319480D01*
X1883220Y314040D01*
X1884960Y308780D01*
X1887360Y303800D01*
X1890380Y299160D01*
X1893959Y294940D01*
X1898060Y291220D01*
X1902600Y288060D01*
X1907520Y285500D01*
X1912700Y283580D01*
X1918100Y282360D01*
G37*
G36*
X2123620Y281820D02*
G01*
X2129140Y282000D01*
X2134620Y282880D01*
X2139920Y284460D01*
X2144980Y286700D01*
X2149720Y289560D01*
X2154040Y293020D01*
X2157900Y297000D01*
X2161200Y301440D01*
X2163920Y306260D01*
X2166000Y311380D01*
X2167400Y316740D01*
X2168120Y322239D01*
X2168120Y327760D01*
X2167400Y333260D01*
X2166000Y338620D01*
X2163920Y343740D01*
X2161200Y348560D01*
X2157900Y353000D01*
X2154040Y356980D01*
X2149720Y360439D01*
X2144980Y363300D01*
X2139920Y365540D01*
X2134620Y367120D01*
X2129140Y368000D01*
X2123620Y368180D01*
X2118100Y367640D01*
X2112700Y366420D01*
X2107520Y364500D01*
X2102600Y361940D01*
X2098060Y358780D01*
X2093959Y355060D01*
X2090380Y350840D01*
X2087360Y346200D01*
X2084960Y341220D01*
X2083220Y335959D01*
X2082160Y330520D01*
X2081800Y325000D01*
X2082160Y319480D01*
X2083220Y314040D01*
X2084960Y308780D01*
X2087360Y303800D01*
X2090380Y299160D01*
X2093959Y294940D01*
X2098060Y291220D01*
X2102600Y288060D01*
X2107520Y285500D01*
X2112700Y283580D01*
X2118100Y282360D01*
G37*
G36*
X2223620Y281820D02*
G01*
X2229140Y282000D01*
X2234620Y282880D01*
X2239920Y284460D01*
X2244980Y286700D01*
X2249720Y289560D01*
X2254040Y293020D01*
X2257900Y297000D01*
X2261200Y301440D01*
X2263920Y306260D01*
X2266000Y311380D01*
X2267400Y316740D01*
X2268120Y322239D01*
X2268120Y327760D01*
X2267400Y333260D01*
X2266000Y338620D01*
X2263920Y343740D01*
X2261200Y348560D01*
X2257900Y353000D01*
X2254040Y356980D01*
X2249720Y360439D01*
X2244980Y363300D01*
X2239920Y365540D01*
X2234620Y367120D01*
X2229140Y368000D01*
X2223620Y368180D01*
X2218100Y367640D01*
X2212700Y366420D01*
X2207520Y364500D01*
X2202600Y361940D01*
X2198060Y358780D01*
X2193960Y355060D01*
X2190380Y350840D01*
X2187360Y346200D01*
X2184960Y341220D01*
X2183220Y335959D01*
X2182160Y330520D01*
X2181800Y325000D01*
X2182160Y319480D01*
X2183220Y314040D01*
X2184960Y308780D01*
X2187360Y303800D01*
X2190380Y299160D01*
X2193960Y294940D01*
X2198060Y291220D01*
X2202600Y288060D01*
X2207520Y285500D01*
X2212700Y283580D01*
X2218100Y282360D01*
G37*
G36*
X1623620Y281820D02*
G01*
X1629139Y282000D01*
X1634620Y282880D01*
X1639920Y284460D01*
X1644980Y286700D01*
X1649720Y289560D01*
X1654040Y293020D01*
X1657900Y297000D01*
X1661200Y301440D01*
X1663920Y306260D01*
X1666000Y311380D01*
X1667400Y316740D01*
X1668120Y322239D01*
X1668120Y327760D01*
X1667400Y333260D01*
X1666000Y338620D01*
X1663920Y343740D01*
X1661200Y348560D01*
X1657900Y353000D01*
X1654040Y356980D01*
X1649720Y360439D01*
X1644980Y363300D01*
X1639920Y365540D01*
X1634620Y367120D01*
X1629139Y368000D01*
X1623620Y368180D01*
X1618100Y367640D01*
X1612700Y366420D01*
X1607520Y364500D01*
X1602600Y361940D01*
X1598060Y358780D01*
X1593959Y355060D01*
X1590380Y350840D01*
X1587360Y346200D01*
X1584960Y341220D01*
X1583220Y335959D01*
X1582160Y330520D01*
X1581800Y325000D01*
X1582160Y319480D01*
X1583220Y314040D01*
X1584960Y308780D01*
X1587360Y303800D01*
X1590380Y299160D01*
X1593959Y294940D01*
X1598060Y291220D01*
X1602600Y288060D01*
X1607520Y285500D01*
X1612700Y283580D01*
X1618100Y282360D01*
G37*
G36*
X1823620Y281820D02*
G01*
X1829139Y282000D01*
X1834620Y282880D01*
X1839920Y284460D01*
X1844980Y286700D01*
X1849720Y289560D01*
X1854040Y293020D01*
X1857900Y297000D01*
X1861200Y301440D01*
X1863920Y306260D01*
X1866000Y311380D01*
X1867400Y316740D01*
X1868120Y322239D01*
X1868120Y327760D01*
X1867400Y333260D01*
X1866000Y338620D01*
X1863920Y343740D01*
X1861200Y348560D01*
X1857900Y353000D01*
X1854040Y356980D01*
X1849720Y360439D01*
X1844980Y363300D01*
X1839920Y365540D01*
X1834620Y367120D01*
X1829139Y368000D01*
X1823620Y368180D01*
X1818100Y367640D01*
X1812700Y366420D01*
X1807520Y364500D01*
X1802600Y361940D01*
X1798060Y358780D01*
X1793959Y355060D01*
X1790380Y350840D01*
X1787360Y346200D01*
X1784960Y341220D01*
X1783220Y335959D01*
X1782160Y330520D01*
X1781800Y325000D01*
X1782160Y319480D01*
X1783220Y314040D01*
X1784960Y308780D01*
X1787360Y303800D01*
X1790380Y299160D01*
X1793959Y294940D01*
X1798060Y291220D01*
X1802600Y288060D01*
X1807520Y285500D01*
X1812700Y283580D01*
X1818100Y282360D01*
G37*
G36*
X1723620Y281820D02*
G01*
X1729139Y282000D01*
X1734620Y282880D01*
X1739920Y284460D01*
X1744980Y286700D01*
X1749720Y289560D01*
X1754040Y293020D01*
X1757900Y297000D01*
X1761200Y301440D01*
X1763920Y306260D01*
X1766000Y311380D01*
X1767400Y316740D01*
X1768120Y322239D01*
X1768120Y327760D01*
X1767400Y333260D01*
X1766000Y338620D01*
X1763920Y343740D01*
X1761200Y348560D01*
X1757900Y353000D01*
X1754040Y356980D01*
X1749720Y360439D01*
X1744980Y363300D01*
X1739920Y365540D01*
X1734620Y367120D01*
X1729139Y368000D01*
X1723620Y368180D01*
X1718100Y367640D01*
X1712700Y366420D01*
X1707520Y364500D01*
X1702600Y361940D01*
X1698060Y358780D01*
X1693959Y355060D01*
X1690380Y350840D01*
X1687360Y346200D01*
X1684960Y341220D01*
X1683220Y335959D01*
X1682160Y330520D01*
X1681800Y325000D01*
X1682160Y319480D01*
X1683220Y314040D01*
X1684960Y308780D01*
X1687360Y303800D01*
X1690380Y299160D01*
X1693959Y294940D01*
X1698060Y291220D01*
X1702600Y288060D01*
X1707520Y285500D01*
X1712700Y283580D01*
X1718100Y282360D01*
G37*
G36*
X194200Y431300D02*
G01*
X255799Y431300D01*
X258380Y431540D01*
X260660Y432239D01*
X262780Y433360D01*
X264620Y434880D01*
X266140Y436740D01*
X267260Y438840D01*
X267960Y441120D01*
X268200Y443700D01*
X268200Y506300D01*
X267960Y508880D01*
X267260Y511160D01*
X266140Y513260D01*
X264620Y515120D01*
X262780Y516640D01*
X260660Y517760D01*
X258380Y518459D01*
X255799Y518700D01*
X194200Y518700D01*
X191620Y518459D01*
X189340Y517760D01*
X187220Y516640D01*
X185380Y515120D01*
X183860Y513260D01*
X182740Y511160D01*
X182040Y508880D01*
X181800Y506300D01*
X181800Y443700D01*
X182040Y441120D01*
X182740Y438840D01*
X183860Y436740D01*
X185380Y434880D01*
X187220Y433360D01*
X189340Y432239D01*
X191620Y431540D01*
G37*
G36*
X826380Y431820D02*
G01*
X831900Y432360D01*
X837300Y433579D01*
X842480Y435500D01*
X847400Y438060D01*
X851940Y441220D01*
X856040Y444940D01*
X859620Y449159D01*
X862640Y453800D01*
X865040Y458780D01*
X866780Y464040D01*
X867840Y469480D01*
X868199Y475000D01*
X867840Y480520D01*
X866780Y485959D01*
X865040Y491220D01*
X862640Y496200D01*
X859620Y500840D01*
X856040Y505060D01*
X851940Y508780D01*
X847400Y511940D01*
X842480Y514500D01*
X837300Y516420D01*
X831900Y517640D01*
X826380Y518180D01*
X820860Y518000D01*
X815380Y517120D01*
X810080Y515540D01*
X805020Y513300D01*
X800280Y510439D01*
X795960Y506980D01*
X792099Y503000D01*
X788800Y498560D01*
X786080Y493740D01*
X784000Y488620D01*
X782600Y483260D01*
X781880Y477760D01*
X781880Y472239D01*
X782600Y466740D01*
X784000Y461380D01*
X786080Y456260D01*
X788800Y451440D01*
X792099Y447000D01*
X795960Y443020D01*
X800280Y439560D01*
X805020Y436700D01*
X810080Y434460D01*
X815380Y432879D01*
X820860Y432000D01*
G37*
G36*
X626380Y431820D02*
G01*
X631900Y432360D01*
X637300Y433579D01*
X642480Y435500D01*
X647400Y438060D01*
X651940Y441220D01*
X656040Y444940D01*
X659620Y449159D01*
X662640Y453800D01*
X665040Y458780D01*
X666780Y464040D01*
X667840Y469480D01*
X668199Y475000D01*
X667840Y480520D01*
X666780Y485959D01*
X665040Y491220D01*
X662640Y496200D01*
X659620Y500840D01*
X656040Y505060D01*
X651940Y508780D01*
X647400Y511940D01*
X642480Y514500D01*
X637300Y516420D01*
X631900Y517640D01*
X626380Y518180D01*
X620860Y518000D01*
X615380Y517120D01*
X610080Y515540D01*
X605020Y513300D01*
X600280Y510439D01*
X595960Y506980D01*
X592100Y503000D01*
X588800Y498560D01*
X586080Y493740D01*
X584000Y488620D01*
X582600Y483260D01*
X581880Y477760D01*
X581880Y472239D01*
X582600Y466740D01*
X584000Y461380D01*
X586080Y456260D01*
X588800Y451440D01*
X592100Y447000D01*
X595960Y443020D01*
X600280Y439560D01*
X605020Y436700D01*
X610080Y434460D01*
X615380Y432879D01*
X620860Y432000D01*
G37*
G36*
X426380Y431820D02*
G01*
X431900Y432360D01*
X437299Y433579D01*
X442480Y435500D01*
X447400Y438060D01*
X451940Y441220D01*
X456040Y444940D01*
X459620Y449159D01*
X462640Y453800D01*
X465040Y458780D01*
X466780Y464040D01*
X467840Y469480D01*
X468200Y475000D01*
X467840Y480520D01*
X466780Y485959D01*
X465040Y491220D01*
X462640Y496200D01*
X459620Y500840D01*
X456040Y505060D01*
X451940Y508780D01*
X447400Y511940D01*
X442480Y514500D01*
X437299Y516420D01*
X431900Y517640D01*
X426380Y518180D01*
X420860Y518000D01*
X415379Y517120D01*
X410080Y515540D01*
X405020Y513300D01*
X400280Y510439D01*
X395959Y506980D01*
X392100Y503000D01*
X388800Y498560D01*
X386079Y493740D01*
X384000Y488620D01*
X382600Y483260D01*
X381880Y477760D01*
X381880Y472239D01*
X382600Y466740D01*
X384000Y461380D01*
X386079Y456260D01*
X388800Y451440D01*
X392100Y447000D01*
X395959Y443020D01*
X400280Y439560D01*
X405020Y436700D01*
X410080Y434460D01*
X415379Y432879D01*
X420860Y432000D01*
G37*
G36*
X526380Y431820D02*
G01*
X531900Y432360D01*
X537300Y433579D01*
X542480Y435500D01*
X547400Y438060D01*
X551940Y441220D01*
X556040Y444940D01*
X559620Y449159D01*
X562640Y453800D01*
X565040Y458780D01*
X566780Y464040D01*
X567840Y469480D01*
X568200Y475000D01*
X567840Y480520D01*
X566780Y485959D01*
X565040Y491220D01*
X562640Y496200D01*
X559620Y500840D01*
X556040Y505060D01*
X551940Y508780D01*
X547400Y511940D01*
X542480Y514500D01*
X537300Y516420D01*
X531900Y517640D01*
X526380Y518180D01*
X520860Y518000D01*
X515379Y517120D01*
X510080Y515540D01*
X505020Y513300D01*
X500280Y510439D01*
X495959Y506980D01*
X492100Y503000D01*
X488800Y498560D01*
X486079Y493740D01*
X484000Y488620D01*
X482600Y483260D01*
X481880Y477760D01*
X481880Y472239D01*
X482600Y466740D01*
X484000Y461380D01*
X486079Y456260D01*
X488800Y451440D01*
X492100Y447000D01*
X495959Y443020D01*
X500280Y439560D01*
X505020Y436700D01*
X510080Y434460D01*
X515379Y432879D01*
X520860Y432000D01*
G37*
G36*
X326380Y431820D02*
G01*
X331900Y432360D01*
X337299Y433579D01*
X342480Y435500D01*
X347400Y438060D01*
X351940Y441220D01*
X356040Y444940D01*
X359620Y449159D01*
X362640Y453800D01*
X365040Y458780D01*
X366780Y464040D01*
X367840Y469480D01*
X368200Y475000D01*
X367840Y480520D01*
X366780Y485959D01*
X365040Y491220D01*
X362640Y496200D01*
X359620Y500840D01*
X356040Y505060D01*
X351940Y508780D01*
X347400Y511940D01*
X342480Y514500D01*
X337299Y516420D01*
X331900Y517640D01*
X326380Y518180D01*
X320860Y518000D01*
X315380Y517120D01*
X310080Y515540D01*
X305020Y513300D01*
X300280Y510439D01*
X295960Y506980D01*
X292100Y503000D01*
X288800Y498560D01*
X286080Y493740D01*
X284000Y488620D01*
X282600Y483260D01*
X281880Y477760D01*
X281880Y472239D01*
X282600Y466740D01*
X284000Y461380D01*
X286080Y456260D01*
X288800Y451440D01*
X292100Y447000D01*
X295960Y443020D01*
X300280Y439560D01*
X305020Y436700D01*
X310080Y434460D01*
X315380Y432879D01*
X320860Y432000D01*
G37*
G36*
X726380Y431820D02*
G01*
X731900Y432360D01*
X737300Y433579D01*
X742480Y435500D01*
X747400Y438060D01*
X751940Y441220D01*
X756040Y444940D01*
X759620Y449159D01*
X762640Y453800D01*
X765040Y458780D01*
X766780Y464040D01*
X767840Y469480D01*
X768199Y475000D01*
X767840Y480520D01*
X766780Y485959D01*
X765040Y491220D01*
X762640Y496200D01*
X759620Y500840D01*
X756040Y505060D01*
X751940Y508780D01*
X747400Y511940D01*
X742480Y514500D01*
X737300Y516420D01*
X731900Y517640D01*
X726380Y518180D01*
X720860Y518000D01*
X715380Y517120D01*
X710080Y515540D01*
X705020Y513300D01*
X700280Y510439D01*
X695960Y506980D01*
X692099Y503000D01*
X688800Y498560D01*
X686080Y493740D01*
X684000Y488620D01*
X682600Y483260D01*
X681880Y477760D01*
X681880Y472239D01*
X682600Y466740D01*
X684000Y461380D01*
X686080Y456260D01*
X688800Y451440D01*
X692099Y447000D01*
X695960Y443020D01*
X700280Y439560D01*
X705020Y436700D01*
X710080Y434460D01*
X715380Y432879D01*
X720860Y432000D01*
G37*
G36*
X1026380Y431820D02*
G01*
X1031900Y432360D01*
X1037300Y433579D01*
X1042480Y435500D01*
X1047400Y438060D01*
X1051940Y441220D01*
X1056040Y444940D01*
X1059620Y449159D01*
X1062640Y453800D01*
X1065040Y458780D01*
X1066780Y464040D01*
X1067840Y469480D01*
X1068200Y475000D01*
X1067840Y480520D01*
X1066780Y485959D01*
X1065040Y491220D01*
X1062640Y496200D01*
X1059620Y500840D01*
X1056040Y505060D01*
X1051940Y508780D01*
X1047400Y511940D01*
X1042480Y514500D01*
X1037300Y516420D01*
X1031900Y517640D01*
X1026380Y518180D01*
X1020860Y518000D01*
X1015380Y517120D01*
X1010080Y515540D01*
X1005020Y513300D01*
X1000280Y510439D01*
X995960Y506980D01*
X992099Y503000D01*
X988800Y498560D01*
X986080Y493740D01*
X984000Y488620D01*
X982600Y483260D01*
X981880Y477760D01*
X981880Y472239D01*
X982600Y466740D01*
X984000Y461380D01*
X986080Y456260D01*
X988800Y451440D01*
X992099Y447000D01*
X995960Y443020D01*
X1000280Y439560D01*
X1005020Y436700D01*
X1010080Y434460D01*
X1015380Y432879D01*
X1020860Y432000D01*
G37*
G36*
X926380Y431820D02*
G01*
X931900Y432360D01*
X937300Y433579D01*
X942480Y435500D01*
X947400Y438060D01*
X951940Y441220D01*
X956040Y444940D01*
X959620Y449159D01*
X962640Y453800D01*
X965040Y458780D01*
X966780Y464040D01*
X967840Y469480D01*
X968199Y475000D01*
X967840Y480520D01*
X966780Y485959D01*
X965040Y491220D01*
X962640Y496200D01*
X959620Y500840D01*
X956040Y505060D01*
X951940Y508780D01*
X947400Y511940D01*
X942480Y514500D01*
X937300Y516420D01*
X931900Y517640D01*
X926380Y518180D01*
X920860Y518000D01*
X915380Y517120D01*
X910080Y515540D01*
X905020Y513300D01*
X900280Y510439D01*
X895960Y506980D01*
X892099Y503000D01*
X888800Y498560D01*
X886080Y493740D01*
X884000Y488620D01*
X882600Y483260D01*
X881880Y477760D01*
X881880Y472239D01*
X882600Y466740D01*
X884000Y461380D01*
X886080Y456260D01*
X888800Y451440D01*
X892099Y447000D01*
X895960Y443020D01*
X900280Y439560D01*
X905020Y436700D01*
X910080Y434460D01*
X915380Y432879D01*
X920860Y432000D01*
G37*
G36*
X2023620Y581820D02*
G01*
X2029139Y582000D01*
X2034620Y582880D01*
X2039920Y584460D01*
X2044980Y586700D01*
X2049720Y589560D01*
X2054040Y593020D01*
X2057900Y597000D01*
X2061200Y601440D01*
X2063920Y606260D01*
X2066000Y611380D01*
X2067400Y616740D01*
X2068120Y622240D01*
X2068120Y627760D01*
X2067400Y633260D01*
X2066000Y638620D01*
X2063920Y643740D01*
X2061200Y648560D01*
X2057900Y653000D01*
X2054040Y656979D01*
X2049720Y660440D01*
X2044980Y663300D01*
X2039920Y665540D01*
X2034620Y667120D01*
X2029139Y668000D01*
X2023620Y668180D01*
X2018100Y667640D01*
X2012700Y666420D01*
X2007520Y664500D01*
X2002600Y661940D01*
X1998060Y658780D01*
X1993959Y655060D01*
X1990380Y650840D01*
X1987360Y646200D01*
X1984960Y641220D01*
X1983220Y635960D01*
X1982160Y630520D01*
X1981800Y625000D01*
X1982160Y619480D01*
X1983220Y614040D01*
X1984960Y608780D01*
X1987360Y603800D01*
X1990380Y599160D01*
X1993959Y594940D01*
X1998060Y591220D01*
X2002600Y588060D01*
X2007520Y585500D01*
X2012700Y583580D01*
X2018100Y582360D01*
G37*
G36*
X1723620Y581820D02*
G01*
X1729139Y582000D01*
X1734620Y582880D01*
X1739920Y584460D01*
X1744980Y586700D01*
X1749720Y589560D01*
X1754040Y593020D01*
X1757900Y597000D01*
X1761200Y601440D01*
X1763920Y606260D01*
X1766000Y611380D01*
X1767400Y616740D01*
X1768120Y622240D01*
X1768120Y627760D01*
X1767400Y633260D01*
X1766000Y638620D01*
X1763920Y643740D01*
X1761200Y648560D01*
X1757900Y653000D01*
X1754040Y656979D01*
X1749720Y660440D01*
X1744980Y663300D01*
X1739920Y665540D01*
X1734620Y667120D01*
X1729139Y668000D01*
X1723620Y668180D01*
X1718100Y667640D01*
X1712700Y666420D01*
X1707520Y664500D01*
X1702600Y661940D01*
X1698060Y658780D01*
X1693959Y655060D01*
X1690380Y650840D01*
X1687360Y646200D01*
X1684960Y641220D01*
X1683220Y635960D01*
X1682160Y630520D01*
X1681800Y625000D01*
X1682160Y619480D01*
X1683220Y614040D01*
X1684960Y608780D01*
X1687360Y603800D01*
X1690380Y599160D01*
X1693959Y594940D01*
X1698060Y591220D01*
X1702600Y588060D01*
X1707520Y585500D01*
X1712700Y583580D01*
X1718100Y582360D01*
G37*
G36*
X1823620Y581820D02*
G01*
X1829139Y582000D01*
X1834620Y582880D01*
X1839920Y584460D01*
X1844980Y586700D01*
X1849720Y589560D01*
X1854040Y593020D01*
X1857900Y597000D01*
X1861200Y601440D01*
X1863920Y606260D01*
X1866000Y611380D01*
X1867400Y616740D01*
X1868120Y622240D01*
X1868120Y627760D01*
X1867400Y633260D01*
X1866000Y638620D01*
X1863920Y643740D01*
X1861200Y648560D01*
X1857900Y653000D01*
X1854040Y656979D01*
X1849720Y660440D01*
X1844980Y663300D01*
X1839920Y665540D01*
X1834620Y667120D01*
X1829139Y668000D01*
X1823620Y668180D01*
X1818100Y667640D01*
X1812700Y666420D01*
X1807520Y664500D01*
X1802600Y661940D01*
X1798060Y658780D01*
X1793959Y655060D01*
X1790380Y650840D01*
X1787360Y646200D01*
X1784960Y641220D01*
X1783220Y635960D01*
X1782160Y630520D01*
X1781800Y625000D01*
X1782160Y619480D01*
X1783220Y614040D01*
X1784960Y608780D01*
X1787360Y603800D01*
X1790380Y599160D01*
X1793959Y594940D01*
X1798060Y591220D01*
X1802600Y588060D01*
X1807520Y585500D01*
X1812700Y583580D01*
X1818100Y582360D01*
G37*
G36*
X1923620Y581820D02*
G01*
X1929139Y582000D01*
X1934620Y582880D01*
X1939920Y584460D01*
X1944980Y586700D01*
X1949720Y589560D01*
X1954040Y593020D01*
X1957900Y597000D01*
X1961200Y601440D01*
X1963920Y606260D01*
X1966000Y611380D01*
X1967400Y616740D01*
X1968120Y622240D01*
X1968120Y627760D01*
X1967400Y633260D01*
X1966000Y638620D01*
X1963920Y643740D01*
X1961200Y648560D01*
X1957900Y653000D01*
X1954040Y656979D01*
X1949720Y660440D01*
X1944980Y663300D01*
X1939920Y665540D01*
X1934620Y667120D01*
X1929139Y668000D01*
X1923620Y668180D01*
X1918100Y667640D01*
X1912700Y666420D01*
X1907520Y664500D01*
X1902600Y661940D01*
X1898060Y658780D01*
X1893959Y655060D01*
X1890380Y650840D01*
X1887360Y646200D01*
X1884960Y641220D01*
X1883220Y635960D01*
X1882160Y630520D01*
X1881800Y625000D01*
X1882160Y619480D01*
X1883220Y614040D01*
X1884960Y608780D01*
X1887360Y603800D01*
X1890380Y599160D01*
X1893959Y594940D01*
X1898060Y591220D01*
X1902600Y588060D01*
X1907520Y585500D01*
X1912700Y583580D01*
X1918100Y582360D01*
G37*
G36*
X2123620Y581820D02*
G01*
X2129140Y582000D01*
X2134620Y582880D01*
X2139920Y584460D01*
X2144980Y586700D01*
X2149720Y589560D01*
X2154040Y593020D01*
X2157900Y597000D01*
X2161200Y601440D01*
X2163920Y606260D01*
X2166000Y611380D01*
X2167400Y616740D01*
X2168120Y622240D01*
X2168120Y627760D01*
X2167400Y633260D01*
X2166000Y638620D01*
X2163920Y643740D01*
X2161200Y648560D01*
X2157900Y653000D01*
X2154040Y656979D01*
X2149720Y660440D01*
X2144980Y663300D01*
X2139920Y665540D01*
X2134620Y667120D01*
X2129140Y668000D01*
X2123620Y668180D01*
X2118100Y667640D01*
X2112700Y666420D01*
X2107520Y664500D01*
X2102600Y661940D01*
X2098060Y658780D01*
X2093959Y655060D01*
X2090380Y650840D01*
X2087360Y646200D01*
X2084960Y641220D01*
X2083220Y635960D01*
X2082160Y630520D01*
X2081800Y625000D01*
X2082160Y619480D01*
X2083220Y614040D01*
X2084960Y608780D01*
X2087360Y603800D01*
X2090380Y599160D01*
X2093959Y594940D01*
X2098060Y591220D01*
X2102600Y588060D01*
X2107520Y585500D01*
X2112700Y583580D01*
X2118100Y582360D01*
G37*
G36*
X1623620Y581820D02*
G01*
X1629139Y582000D01*
X1634620Y582880D01*
X1639920Y584460D01*
X1644980Y586700D01*
X1649720Y589560D01*
X1654040Y593020D01*
X1657900Y597000D01*
X1661200Y601440D01*
X1663920Y606260D01*
X1666000Y611380D01*
X1667400Y616740D01*
X1668120Y622240D01*
X1668120Y627760D01*
X1667400Y633260D01*
X1666000Y638620D01*
X1663920Y643740D01*
X1661200Y648560D01*
X1657900Y653000D01*
X1654040Y656979D01*
X1649720Y660440D01*
X1644980Y663300D01*
X1639920Y665540D01*
X1634620Y667120D01*
X1629139Y668000D01*
X1623620Y668180D01*
X1618100Y667640D01*
X1612700Y666420D01*
X1607520Y664500D01*
X1602600Y661940D01*
X1598060Y658780D01*
X1593959Y655060D01*
X1590380Y650840D01*
X1587360Y646200D01*
X1584960Y641220D01*
X1583220Y635960D01*
X1582160Y630520D01*
X1581800Y625000D01*
X1582160Y619480D01*
X1583220Y614040D01*
X1584960Y608780D01*
X1587360Y603800D01*
X1590380Y599160D01*
X1593959Y594940D01*
X1598060Y591220D01*
X1602600Y588060D01*
X1607520Y585500D01*
X1612700Y583580D01*
X1618100Y582360D01*
G37*
G36*
X2223620Y581820D02*
G01*
X2229140Y582000D01*
X2234620Y582880D01*
X2239920Y584460D01*
X2244980Y586700D01*
X2249720Y589560D01*
X2254040Y593020D01*
X2257900Y597000D01*
X2261200Y601440D01*
X2263920Y606260D01*
X2266000Y611380D01*
X2267400Y616740D01*
X2268120Y622240D01*
X2268120Y627760D01*
X2267400Y633260D01*
X2266000Y638620D01*
X2263920Y643740D01*
X2261200Y648560D01*
X2257900Y653000D01*
X2254040Y656979D01*
X2249720Y660440D01*
X2244980Y663300D01*
X2239920Y665540D01*
X2234620Y667120D01*
X2229140Y668000D01*
X2223620Y668180D01*
X2218100Y667640D01*
X2212700Y666420D01*
X2207520Y664500D01*
X2202600Y661940D01*
X2198060Y658780D01*
X2193960Y655060D01*
X2190380Y650840D01*
X2187360Y646200D01*
X2184960Y641220D01*
X2183220Y635960D01*
X2182160Y630520D01*
X2181800Y625000D01*
X2182160Y619480D01*
X2183220Y614040D01*
X2184960Y608780D01*
X2187360Y603800D01*
X2190380Y599160D01*
X2193960Y594940D01*
X2198060Y591220D01*
X2202600Y588060D01*
X2207520Y585500D01*
X2212700Y583580D01*
X2218100Y582360D01*
G37*
G36*
X1523620Y581820D02*
G01*
X1529139Y582000D01*
X1534620Y582880D01*
X1539920Y584460D01*
X1544980Y586700D01*
X1549720Y589560D01*
X1554040Y593020D01*
X1557900Y597000D01*
X1561200Y601440D01*
X1563920Y606260D01*
X1566000Y611380D01*
X1567400Y616740D01*
X1568120Y622240D01*
X1568120Y627760D01*
X1567400Y633260D01*
X1566000Y638620D01*
X1563920Y643740D01*
X1561200Y648560D01*
X1557900Y653000D01*
X1554040Y656979D01*
X1549720Y660440D01*
X1544980Y663300D01*
X1539920Y665540D01*
X1534620Y667120D01*
X1529139Y668000D01*
X1523620Y668180D01*
X1518100Y667640D01*
X1512700Y666420D01*
X1507520Y664500D01*
X1502600Y661940D01*
X1498060Y658780D01*
X1493959Y655060D01*
X1490380Y650840D01*
X1487360Y646200D01*
X1484960Y641220D01*
X1483220Y635960D01*
X1482160Y630520D01*
X1481800Y625000D01*
X1482160Y619480D01*
X1483220Y614040D01*
X1484960Y608780D01*
X1487360Y603800D01*
X1490380Y599160D01*
X1493959Y594940D01*
X1498060Y591220D01*
X1502600Y588060D01*
X1507520Y585500D01*
X1512700Y583580D01*
X1518100Y582360D01*
G37*
G36*
X1419000Y582260D02*
G01*
X1419000Y619000D01*
X1382240Y619000D01*
X1383220Y614040D01*
X1384960Y608780D01*
X1387360Y603800D01*
X1390380Y599160D01*
X1393959Y594940D01*
X1398060Y591220D01*
X1402600Y588060D01*
X1407520Y585500D01*
X1412700Y583580D01*
X1418100Y582360D01*
G37*
G36*
X1431000Y582300D02*
G01*
X1434620Y582880D01*
X1439920Y584460D01*
X1444980Y586700D01*
X1449720Y589560D01*
X1454040Y593020D01*
X1457900Y597000D01*
X1461200Y601440D01*
X1463920Y606260D01*
X1466000Y611380D01*
X1467400Y616740D01*
X1467700Y619000D01*
X1431000Y619000D01*
G37*
G36*
X1431000Y631000D02*
G01*
X1467700Y631000D01*
X1467400Y633260D01*
X1466000Y638620D01*
X1463920Y643740D01*
X1461200Y648560D01*
X1457900Y653000D01*
X1454040Y656979D01*
X1449720Y660440D01*
X1444980Y663300D01*
X1439920Y665540D01*
X1434620Y667120D01*
X1431000Y667700D01*
G37*
G36*
X1382240Y631000D02*
G01*
X1419000Y631000D01*
X1419000Y667740D01*
X1418100Y667640D01*
X1412700Y666420D01*
X1407520Y664500D01*
X1402600Y661940D01*
X1398060Y658780D01*
X1393959Y655060D01*
X1390380Y650840D01*
X1387360Y646200D01*
X1384960Y641220D01*
X1383220Y635960D01*
G37*
G36*
X393700Y717900D02*
G01*
X419000Y717900D01*
X419000Y755600D01*
X381300Y755600D01*
X381300Y730320D01*
X381540Y727740D01*
X382239Y725440D01*
X383360Y723340D01*
X384880Y721500D01*
X386740Y719980D01*
X388840Y718860D01*
X391120Y718160D01*
G37*
G36*
X431000Y717900D02*
G01*
X456300Y717900D01*
X458880Y718160D01*
X461160Y718860D01*
X463260Y719980D01*
X465120Y721500D01*
X466640Y723340D01*
X467760Y725440D01*
X468459Y727740D01*
X468700Y730320D01*
X468700Y755600D01*
X431000Y755600D01*
G37*
G36*
X1431000Y717900D02*
G01*
X1456300Y717900D01*
X1458880Y718160D01*
X1461160Y718860D01*
X1463260Y719980D01*
X1465120Y721500D01*
X1466639Y723340D01*
X1467760Y725440D01*
X1468460Y727740D01*
X1468700Y730320D01*
X1468700Y755600D01*
X1431000Y755600D01*
G37*
G36*
X893700Y717900D02*
G01*
X919000Y717900D01*
X919000Y755600D01*
X881300Y755600D01*
X881300Y730320D01*
X881540Y727740D01*
X882240Y725440D01*
X883360Y723340D01*
X884880Y721500D01*
X886740Y719980D01*
X888840Y718860D01*
X891120Y718160D01*
G37*
G36*
X1393700Y717900D02*
G01*
X1419000Y717900D01*
X1419000Y755600D01*
X1381300Y755600D01*
X1381300Y730320D01*
X1381540Y727740D01*
X1382240Y725440D01*
X1383360Y723340D01*
X1384880Y721500D01*
X1386740Y719980D01*
X1388839Y718860D01*
X1391120Y718160D01*
G37*
G36*
X931000Y717900D02*
G01*
X956300Y717900D01*
X958880Y718160D01*
X961160Y718860D01*
X963259Y719980D01*
X965120Y721500D01*
X966640Y723340D01*
X967760Y725440D01*
X968460Y727740D01*
X968700Y730320D01*
X968700Y755600D01*
X931000Y755600D01*
G37*
G36*
X1893700Y717900D02*
G01*
X1919000Y717900D01*
X1919000Y755600D01*
X1881300Y755600D01*
X1881300Y730320D01*
X1881540Y727740D01*
X1882240Y725440D01*
X1883360Y723340D01*
X1884880Y721500D01*
X1886740Y719980D01*
X1888839Y718860D01*
X1891120Y718160D01*
G37*
G36*
X1931000Y717900D02*
G01*
X1956300Y717900D01*
X1958880Y718160D01*
X1961160Y718860D01*
X1963260Y719980D01*
X1965120Y721500D01*
X1966639Y723340D01*
X1967760Y725440D01*
X1968460Y727740D01*
X1968700Y730320D01*
X1968700Y755600D01*
X1931000Y755600D01*
G37*
G36*
X2093700Y717900D02*
G01*
X2156300Y717900D01*
X2158880Y718160D01*
X2161160Y718860D01*
X2163260Y719980D01*
X2165120Y721500D01*
X2166640Y723340D01*
X2167760Y725460D01*
X2168460Y727740D01*
X2168700Y730320D01*
X2168700Y824599D01*
X2168460Y827180D01*
X2167900Y829260D01*
X2167640Y831900D01*
X2166420Y837300D01*
X2164500Y842480D01*
X2161940Y847400D01*
X2158780Y851940D01*
X2155060Y856040D01*
X2150840Y859620D01*
X2146200Y862640D01*
X2141220Y865040D01*
X2135960Y866780D01*
X2130520Y867840D01*
X2125000Y868199D01*
X2119480Y867840D01*
X2114040Y866780D01*
X2108780Y865040D01*
X2103800Y862640D01*
X2099160Y859620D01*
X2094940Y856040D01*
X2091220Y851940D01*
X2088060Y847400D01*
X2085500Y842480D01*
X2083580Y837300D01*
X2082360Y831900D01*
X2082100Y829260D01*
X2081540Y827180D01*
X2081300Y824599D01*
X2081300Y730320D01*
X2081540Y727740D01*
X2082240Y725460D01*
X2083360Y723340D01*
X2084880Y721500D01*
X2086740Y719980D01*
X2088839Y718860D01*
X2091120Y718160D01*
G37*
G36*
X493700Y717900D02*
G01*
X556300Y717900D01*
X558880Y718160D01*
X561160Y718860D01*
X563260Y719980D01*
X565120Y721500D01*
X566640Y723340D01*
X567760Y725440D01*
X568460Y727740D01*
X568700Y730320D01*
X568700Y824599D01*
X568460Y827180D01*
X567900Y829260D01*
X567640Y831900D01*
X566420Y837300D01*
X564500Y842480D01*
X561940Y847400D01*
X558780Y851940D01*
X555060Y856040D01*
X550840Y859620D01*
X546200Y862640D01*
X541220Y865040D01*
X535960Y866780D01*
X530520Y867840D01*
X525000Y868199D01*
X519480Y867840D01*
X514040Y866780D01*
X508780Y865040D01*
X503800Y862640D01*
X499159Y859620D01*
X494940Y856040D01*
X491220Y851940D01*
X488060Y847400D01*
X485500Y842480D01*
X483579Y837300D01*
X482360Y831900D01*
X482100Y829260D01*
X481540Y827180D01*
X481300Y824599D01*
X481300Y730320D01*
X481540Y727740D01*
X482239Y725440D01*
X483360Y723340D01*
X484880Y721500D01*
X486740Y719980D01*
X488840Y718860D01*
X491120Y718160D01*
G37*
G36*
X593700Y717900D02*
G01*
X656300Y717900D01*
X658880Y718160D01*
X661160Y718860D01*
X663259Y719980D01*
X665120Y721500D01*
X666640Y723340D01*
X667760Y725440D01*
X668460Y727740D01*
X668700Y730320D01*
X668700Y824599D01*
X668460Y827180D01*
X667900Y829260D01*
X667640Y831900D01*
X666420Y837300D01*
X664500Y842480D01*
X661940Y847400D01*
X658780Y851940D01*
X655060Y856040D01*
X650840Y859620D01*
X646200Y862640D01*
X641220Y865040D01*
X635960Y866780D01*
X630520Y867840D01*
X625000Y868199D01*
X619480Y867840D01*
X614040Y866780D01*
X608780Y865040D01*
X603800Y862640D01*
X599160Y859620D01*
X594940Y856040D01*
X591220Y851940D01*
X588060Y847400D01*
X585500Y842480D01*
X583580Y837300D01*
X582360Y831900D01*
X582100Y829260D01*
X581540Y827180D01*
X581300Y824599D01*
X581300Y730320D01*
X581540Y727740D01*
X582240Y725440D01*
X583360Y723340D01*
X584880Y721500D01*
X586740Y719980D01*
X588840Y718860D01*
X591120Y718160D01*
G37*
G36*
X293700Y717900D02*
G01*
X356300Y717900D01*
X358880Y718160D01*
X361160Y718860D01*
X363260Y719980D01*
X365120Y721500D01*
X366640Y723340D01*
X367760Y725440D01*
X368459Y727740D01*
X368700Y730320D01*
X368700Y824599D01*
X368459Y827180D01*
X367900Y829260D01*
X367640Y831900D01*
X366420Y837300D01*
X364500Y842480D01*
X361940Y847400D01*
X358780Y851940D01*
X355060Y856040D01*
X350840Y859620D01*
X346200Y862640D01*
X341220Y865040D01*
X335959Y866780D01*
X330520Y867840D01*
X325000Y868199D01*
X319480Y867840D01*
X314040Y866780D01*
X308780Y865040D01*
X303800Y862640D01*
X299160Y859620D01*
X294940Y856040D01*
X291220Y851940D01*
X288060Y847400D01*
X285500Y842480D01*
X283580Y837300D01*
X282360Y831900D01*
X282100Y829260D01*
X281540Y827180D01*
X281300Y824599D01*
X281300Y730320D01*
X281540Y727740D01*
X282240Y725440D01*
X283360Y723340D01*
X284880Y721500D01*
X286740Y719980D01*
X288840Y718860D01*
X291120Y718160D01*
G37*
G36*
X693700Y717900D02*
G01*
X756300Y717900D01*
X758880Y718160D01*
X761160Y718860D01*
X763259Y719980D01*
X765120Y721500D01*
X766640Y723340D01*
X767760Y725440D01*
X768460Y727740D01*
X768700Y730320D01*
X768700Y824599D01*
X768460Y827180D01*
X767900Y829260D01*
X767640Y831900D01*
X766420Y837300D01*
X764500Y842480D01*
X761940Y847400D01*
X758780Y851940D01*
X755060Y856040D01*
X750840Y859620D01*
X746200Y862640D01*
X741220Y865040D01*
X735960Y866780D01*
X730520Y867840D01*
X725000Y868199D01*
X719479Y867840D01*
X714040Y866780D01*
X708780Y865040D01*
X703800Y862640D01*
X699160Y859620D01*
X694940Y856040D01*
X691220Y851940D01*
X688060Y847400D01*
X685500Y842480D01*
X683580Y837300D01*
X682360Y831900D01*
X682099Y829260D01*
X681540Y827180D01*
X681300Y824599D01*
X681300Y730320D01*
X681540Y727740D01*
X682240Y725440D01*
X683360Y723340D01*
X684880Y721500D01*
X686740Y719980D01*
X688840Y718860D01*
X691120Y718160D01*
G37*
G36*
X193700Y717900D02*
G01*
X256300Y717900D01*
X258880Y718160D01*
X261160Y718860D01*
X263260Y719980D01*
X265120Y721500D01*
X266640Y723340D01*
X267760Y725440D01*
X268460Y727740D01*
X268700Y730320D01*
X268700Y824599D01*
X268460Y827180D01*
X267900Y829260D01*
X267640Y831900D01*
X266420Y837300D01*
X264500Y842480D01*
X261940Y847400D01*
X258780Y851940D01*
X255060Y856040D01*
X250840Y859620D01*
X246200Y862640D01*
X241220Y865040D01*
X235960Y866780D01*
X230520Y867840D01*
X225000Y868199D01*
X219480Y867840D01*
X214040Y866780D01*
X208780Y865040D01*
X203800Y862640D01*
X199160Y859620D01*
X194940Y856040D01*
X191220Y851940D01*
X188060Y847400D01*
X185500Y842480D01*
X183580Y837300D01*
X182360Y831900D01*
X182100Y829260D01*
X181540Y827180D01*
X181300Y824599D01*
X181300Y730320D01*
X181540Y727740D01*
X182240Y725440D01*
X183359Y723340D01*
X184880Y721500D01*
X186740Y719980D01*
X188840Y718860D01*
X191119Y718160D01*
G37*
G36*
X993700Y717900D02*
G01*
X1056300Y717900D01*
X1058880Y718160D01*
X1061160Y718860D01*
X1063260Y719980D01*
X1065120Y721500D01*
X1066640Y723340D01*
X1067760Y725440D01*
X1068460Y727740D01*
X1068700Y730320D01*
X1068700Y824599D01*
X1068460Y827180D01*
X1067900Y829260D01*
X1067640Y831900D01*
X1066420Y837300D01*
X1064500Y842480D01*
X1061940Y847400D01*
X1058780Y851940D01*
X1055060Y856040D01*
X1050840Y859620D01*
X1046200Y862640D01*
X1041220Y865040D01*
X1035960Y866780D01*
X1030520Y867840D01*
X1025000Y868199D01*
X1019479Y867840D01*
X1014040Y866780D01*
X1008780Y865040D01*
X1003800Y862640D01*
X999160Y859620D01*
X994940Y856040D01*
X991220Y851940D01*
X988060Y847400D01*
X985500Y842480D01*
X983580Y837300D01*
X982360Y831900D01*
X982099Y829260D01*
X981540Y827180D01*
X981300Y824599D01*
X981300Y730320D01*
X981540Y727740D01*
X982240Y725440D01*
X983360Y723340D01*
X984880Y721500D01*
X986740Y719980D01*
X988840Y718860D01*
X991120Y718160D01*
G37*
G36*
X1193700Y717900D02*
G01*
X1256300Y717900D01*
X1258880Y718160D01*
X1261160Y718860D01*
X1263260Y719980D01*
X1265120Y721500D01*
X1266640Y723340D01*
X1267760Y725440D01*
X1268460Y727740D01*
X1268700Y730320D01*
X1268700Y824599D01*
X1268460Y827180D01*
X1267900Y829260D01*
X1267640Y831900D01*
X1266420Y837300D01*
X1264500Y842480D01*
X1261940Y847400D01*
X1258780Y851940D01*
X1255060Y856040D01*
X1250840Y859620D01*
X1246200Y862640D01*
X1241220Y865040D01*
X1235960Y866780D01*
X1230520Y867840D01*
X1225000Y868199D01*
X1219480Y867840D01*
X1214040Y866780D01*
X1208780Y865040D01*
X1203800Y862640D01*
X1199160Y859620D01*
X1194940Y856040D01*
X1191220Y851940D01*
X1188060Y847400D01*
X1185500Y842480D01*
X1183580Y837300D01*
X1182360Y831900D01*
X1182100Y829260D01*
X1181540Y827180D01*
X1181300Y824599D01*
X1181300Y730320D01*
X1181540Y727740D01*
X1182240Y725440D01*
X1183360Y723340D01*
X1184880Y721500D01*
X1186740Y719980D01*
X1188840Y718860D01*
X1191120Y718160D01*
G37*
G36*
X1493700Y717900D02*
G01*
X1556300Y717900D01*
X1558880Y718160D01*
X1561160Y718860D01*
X1563260Y719980D01*
X1565120Y721500D01*
X1566639Y723340D01*
X1567760Y725440D01*
X1568460Y727740D01*
X1568700Y730320D01*
X1568700Y824599D01*
X1568460Y827180D01*
X1567900Y829260D01*
X1567640Y831900D01*
X1566420Y837300D01*
X1564500Y842480D01*
X1561940Y847400D01*
X1558779Y851940D01*
X1555060Y856040D01*
X1550840Y859620D01*
X1546200Y862640D01*
X1541220Y865040D01*
X1535960Y866780D01*
X1530520Y867840D01*
X1525000Y868199D01*
X1519480Y867840D01*
X1514040Y866780D01*
X1508779Y865040D01*
X1503800Y862640D01*
X1499160Y859620D01*
X1494940Y856040D01*
X1491220Y851940D01*
X1488060Y847400D01*
X1485500Y842480D01*
X1483580Y837300D01*
X1482360Y831900D01*
X1482100Y829260D01*
X1481540Y827180D01*
X1481300Y824599D01*
X1481300Y730320D01*
X1481540Y727740D01*
X1482240Y725440D01*
X1483360Y723340D01*
X1484880Y721500D01*
X1486740Y719980D01*
X1488839Y718860D01*
X1491120Y718160D01*
G37*
G36*
X793700Y717900D02*
G01*
X856300Y717900D01*
X858880Y718160D01*
X861160Y718860D01*
X863259Y719980D01*
X865120Y721500D01*
X866640Y723340D01*
X867760Y725440D01*
X868460Y727740D01*
X868700Y730320D01*
X868700Y824599D01*
X868460Y827180D01*
X867900Y829260D01*
X867640Y831900D01*
X866420Y837300D01*
X864500Y842480D01*
X861940Y847400D01*
X858780Y851940D01*
X855060Y856040D01*
X850840Y859620D01*
X846200Y862640D01*
X841220Y865040D01*
X835960Y866780D01*
X830520Y867840D01*
X825000Y868199D01*
X819479Y867840D01*
X814040Y866780D01*
X808780Y865040D01*
X803800Y862640D01*
X799160Y859620D01*
X794940Y856040D01*
X791220Y851940D01*
X788060Y847400D01*
X785500Y842480D01*
X783580Y837300D01*
X782360Y831900D01*
X782099Y829260D01*
X781540Y827180D01*
X781300Y824599D01*
X781300Y730320D01*
X781540Y727740D01*
X782240Y725440D01*
X783360Y723340D01*
X784880Y721500D01*
X786740Y719980D01*
X788840Y718860D01*
X791120Y718160D01*
G37*
G36*
X1093700Y717900D02*
G01*
X1156300Y717900D01*
X1158880Y718160D01*
X1161160Y718860D01*
X1163260Y719980D01*
X1165120Y721500D01*
X1166640Y723340D01*
X1167760Y725440D01*
X1168460Y727740D01*
X1168700Y730320D01*
X1168700Y824599D01*
X1168460Y827180D01*
X1167900Y829260D01*
X1167640Y831900D01*
X1166420Y837300D01*
X1164500Y842480D01*
X1161940Y847400D01*
X1158780Y851940D01*
X1155060Y856040D01*
X1150840Y859620D01*
X1146200Y862640D01*
X1141220Y865040D01*
X1135960Y866780D01*
X1130520Y867840D01*
X1125000Y868199D01*
X1119480Y867840D01*
X1114040Y866780D01*
X1108780Y865040D01*
X1103800Y862640D01*
X1099160Y859620D01*
X1094940Y856040D01*
X1091220Y851940D01*
X1088060Y847400D01*
X1085500Y842480D01*
X1083580Y837300D01*
X1082360Y831900D01*
X1082100Y829260D01*
X1081540Y827180D01*
X1081300Y824599D01*
X1081300Y730320D01*
X1081540Y727740D01*
X1082240Y725440D01*
X1083360Y723340D01*
X1084880Y721500D01*
X1086740Y719980D01*
X1088840Y718860D01*
X1091120Y718160D01*
G37*
G36*
X1293700Y717900D02*
G01*
X1356300Y717900D01*
X1358880Y718160D01*
X1361160Y718860D01*
X1363260Y719980D01*
X1365120Y721500D01*
X1366639Y723340D01*
X1367760Y725440D01*
X1368460Y727740D01*
X1368700Y730320D01*
X1368700Y824599D01*
X1368460Y827180D01*
X1367900Y829260D01*
X1367640Y831900D01*
X1366420Y837300D01*
X1364500Y842480D01*
X1361940Y847400D01*
X1358779Y851940D01*
X1355060Y856040D01*
X1350840Y859620D01*
X1346200Y862640D01*
X1341220Y865040D01*
X1335960Y866780D01*
X1330520Y867840D01*
X1325000Y868199D01*
X1319480Y867840D01*
X1314040Y866780D01*
X1308779Y865040D01*
X1303800Y862640D01*
X1299160Y859620D01*
X1294940Y856040D01*
X1291220Y851940D01*
X1288060Y847400D01*
X1285500Y842480D01*
X1283580Y837300D01*
X1282360Y831900D01*
X1282100Y829260D01*
X1281540Y827180D01*
X1281300Y824599D01*
X1281300Y730320D01*
X1281540Y727740D01*
X1282240Y725440D01*
X1283360Y723340D01*
X1284880Y721500D01*
X1286740Y719980D01*
X1288839Y718860D01*
X1291120Y718160D01*
G37*
G36*
X1593700Y717900D02*
G01*
X1656300Y717900D01*
X1658880Y718160D01*
X1661160Y718860D01*
X1663260Y719980D01*
X1665120Y721500D01*
X1666639Y723340D01*
X1667760Y725440D01*
X1668460Y727740D01*
X1668700Y730320D01*
X1668700Y824599D01*
X1668460Y827180D01*
X1667900Y829260D01*
X1667640Y831900D01*
X1666420Y837300D01*
X1664500Y842480D01*
X1661940Y847400D01*
X1658779Y851940D01*
X1655060Y856040D01*
X1650840Y859620D01*
X1646200Y862640D01*
X1641220Y865040D01*
X1635960Y866780D01*
X1630520Y867840D01*
X1625000Y868199D01*
X1619480Y867840D01*
X1614040Y866780D01*
X1608779Y865040D01*
X1603800Y862640D01*
X1599160Y859620D01*
X1594940Y856040D01*
X1591220Y851940D01*
X1588060Y847400D01*
X1585500Y842480D01*
X1583580Y837300D01*
X1582360Y831900D01*
X1582100Y829260D01*
X1581540Y827180D01*
X1581300Y824599D01*
X1581300Y730320D01*
X1581540Y727740D01*
X1582240Y725440D01*
X1583360Y723340D01*
X1584880Y721500D01*
X1586740Y719980D01*
X1588839Y718860D01*
X1591120Y718160D01*
G37*
G36*
X1793700Y717900D02*
G01*
X1856300Y717900D01*
X1858880Y718160D01*
X1861160Y718860D01*
X1863260Y719980D01*
X1865120Y721500D01*
X1866639Y723340D01*
X1867760Y725440D01*
X1868460Y727740D01*
X1868700Y730320D01*
X1868700Y824599D01*
X1868460Y827180D01*
X1867900Y829260D01*
X1867640Y831900D01*
X1866420Y837300D01*
X1864500Y842480D01*
X1861940Y847400D01*
X1858779Y851940D01*
X1855060Y856040D01*
X1850840Y859620D01*
X1846200Y862640D01*
X1841220Y865040D01*
X1835960Y866780D01*
X1830520Y867840D01*
X1825000Y868199D01*
X1819480Y867840D01*
X1814040Y866780D01*
X1808779Y865040D01*
X1803800Y862640D01*
X1799160Y859620D01*
X1794940Y856040D01*
X1791220Y851940D01*
X1788060Y847400D01*
X1785500Y842480D01*
X1783580Y837300D01*
X1782360Y831900D01*
X1782100Y829260D01*
X1781540Y827180D01*
X1781300Y824599D01*
X1781300Y730320D01*
X1781540Y727740D01*
X1782240Y725440D01*
X1783360Y723340D01*
X1784880Y721500D01*
X1786740Y719980D01*
X1788839Y718860D01*
X1791120Y718160D01*
G37*
G36*
X1693700Y717900D02*
G01*
X1756300Y717900D01*
X1758880Y718160D01*
X1761160Y718860D01*
X1763260Y719980D01*
X1765120Y721500D01*
X1766639Y723340D01*
X1767760Y725440D01*
X1768460Y727740D01*
X1768700Y730320D01*
X1768700Y824599D01*
X1768460Y827180D01*
X1767900Y829260D01*
X1767640Y831900D01*
X1766420Y837300D01*
X1764500Y842480D01*
X1761940Y847400D01*
X1758779Y851940D01*
X1755060Y856040D01*
X1750840Y859620D01*
X1746200Y862640D01*
X1741220Y865040D01*
X1735960Y866780D01*
X1730520Y867840D01*
X1725000Y868199D01*
X1719480Y867840D01*
X1714040Y866780D01*
X1708779Y865040D01*
X1703800Y862640D01*
X1699160Y859620D01*
X1694940Y856040D01*
X1691220Y851940D01*
X1688060Y847400D01*
X1685500Y842480D01*
X1683580Y837300D01*
X1682360Y831900D01*
X1682100Y829260D01*
X1681540Y827180D01*
X1681300Y824599D01*
X1681300Y730320D01*
X1681540Y727740D01*
X1682240Y725440D01*
X1683360Y723340D01*
X1684880Y721500D01*
X1686740Y719980D01*
X1688839Y718860D01*
X1691120Y718160D01*
G37*
G36*
X1993700Y717900D02*
G01*
X2056300Y717900D01*
X2058880Y718160D01*
X2061160Y718860D01*
X2063260Y719980D01*
X2065120Y721500D01*
X2066639Y723340D01*
X2067760Y725440D01*
X2068460Y727740D01*
X2068700Y730320D01*
X2068700Y824599D01*
X2068460Y827180D01*
X2067900Y829260D01*
X2067640Y831900D01*
X2066420Y837300D01*
X2064500Y842480D01*
X2061940Y847400D01*
X2058779Y851940D01*
X2055060Y856040D01*
X2050840Y859620D01*
X2046200Y862640D01*
X2041220Y865040D01*
X2035960Y866780D01*
X2030520Y867840D01*
X2025000Y868199D01*
X2019480Y867840D01*
X2014040Y866780D01*
X2008779Y865040D01*
X2003800Y862640D01*
X1999160Y859620D01*
X1994940Y856040D01*
X1991220Y851940D01*
X1988060Y847400D01*
X1985500Y842480D01*
X1983580Y837300D01*
X1982360Y831900D01*
X1982100Y829260D01*
X1981540Y827180D01*
X1981300Y824599D01*
X1981300Y730320D01*
X1981540Y727740D01*
X1982240Y725440D01*
X1983360Y723340D01*
X1984880Y721500D01*
X1986740Y719980D01*
X1988839Y718860D01*
X1991120Y718160D01*
G37*
G36*
X2375000Y731800D02*
G01*
X2380520Y732159D01*
X2385960Y733220D01*
X2391220Y734960D01*
X2396200Y737360D01*
X2400840Y740380D01*
X2405060Y743960D01*
X2408780Y748060D01*
X2411940Y752600D01*
X2414500Y757520D01*
X2416420Y762700D01*
X2417640Y768100D01*
X2418180Y773620D01*
X2418000Y779140D01*
X2417120Y784620D01*
X2415540Y789920D01*
X2413300Y794980D01*
X2410440Y799720D01*
X2406980Y804040D01*
X2403000Y807900D01*
X2398560Y811200D01*
X2393740Y813920D01*
X2388620Y816000D01*
X2383260Y817400D01*
X2377760Y818120D01*
X2372240Y818120D01*
X2366740Y817400D01*
X2361380Y816000D01*
X2356260Y813920D01*
X2351440Y811200D01*
X2347000Y807900D01*
X2343020Y804040D01*
X2339560Y799720D01*
X2336700Y794980D01*
X2334460Y789920D01*
X2332880Y784620D01*
X2332000Y779140D01*
X2331820Y773620D01*
X2332360Y768100D01*
X2333580Y762700D01*
X2335500Y757520D01*
X2338060Y752600D01*
X2341220Y748060D01*
X2344940Y743960D01*
X2349160Y740380D01*
X2353800Y737360D01*
X2358780Y734960D01*
X2364040Y733220D01*
X2369480Y732159D01*
G37*
G36*
X431000Y767600D02*
G01*
X468700Y767600D01*
X468700Y787300D01*
X431000Y787300D01*
G37*
G36*
X381300Y767600D02*
G01*
X419000Y767600D01*
X419000Y787300D01*
X381300Y787300D01*
G37*
G36*
X881300Y767600D02*
G01*
X919000Y767600D01*
X919000Y787300D01*
X881300Y787300D01*
G37*
G36*
X1381300Y767600D02*
G01*
X1419000Y767600D01*
X1419000Y787300D01*
X1381300Y787300D01*
G37*
G36*
X931000Y767600D02*
G01*
X968700Y767600D01*
X968700Y787300D01*
X931000Y787300D01*
G37*
G36*
X1431000Y767600D02*
G01*
X1468700Y767600D01*
X1468700Y787300D01*
X1431000Y787300D01*
G37*
G36*
X1881300Y767600D02*
G01*
X1919000Y767600D01*
X1919000Y787300D01*
X1881300Y787300D01*
G37*
G36*
X1931000Y767600D02*
G01*
X1968700Y767600D01*
X1968700Y787300D01*
X1931000Y787300D01*
G37*
G36*
X381300Y799300D02*
G01*
X419000Y799300D01*
X419000Y819000D01*
X381300Y819000D01*
G37*
G36*
X431000Y799300D02*
G01*
X468700Y799300D01*
X468700Y819000D01*
X431000Y819000D01*
G37*
G36*
X881300Y799300D02*
G01*
X919000Y799300D01*
X919000Y819000D01*
X881300Y819000D01*
G37*
G36*
X1881300Y799300D02*
G01*
X1919000Y799300D01*
X1919000Y819000D01*
X1881300Y819000D01*
G37*
G36*
X1381300Y799300D02*
G01*
X1419000Y799300D01*
X1419000Y819000D01*
X1381300Y819000D01*
G37*
G36*
X1431000Y799300D02*
G01*
X1468700Y799300D01*
X1468700Y819000D01*
X1431000Y819000D01*
G37*
G36*
X931000Y799300D02*
G01*
X968700Y799300D01*
X968700Y819000D01*
X931000Y819000D01*
G37*
G36*
X1931000Y799300D02*
G01*
X1968700Y799300D01*
X1968700Y819000D01*
X1931000Y819000D01*
G37*
G36*
X382260Y831000D02*
G01*
X419000Y831000D01*
X419000Y867760D01*
X414040Y866780D01*
X408780Y865040D01*
X403800Y862640D01*
X399159Y859620D01*
X394940Y856040D01*
X391220Y851940D01*
X388060Y847400D01*
X385500Y842480D01*
X383579Y837300D01*
X382360Y831900D01*
G37*
G36*
X431000Y831000D02*
G01*
X467740Y831000D01*
X467640Y831900D01*
X466420Y837300D01*
X464500Y842480D01*
X461940Y847400D01*
X458780Y851940D01*
X455060Y856040D01*
X450840Y859620D01*
X446200Y862640D01*
X441220Y865040D01*
X435959Y866780D01*
X431000Y867760D01*
G37*
G36*
X882260Y831000D02*
G01*
X919000Y831000D01*
X919000Y867760D01*
X914040Y866780D01*
X908780Y865040D01*
X903800Y862640D01*
X899160Y859620D01*
X894940Y856040D01*
X891220Y851940D01*
X888060Y847400D01*
X885500Y842480D01*
X883580Y837300D01*
X882360Y831900D01*
G37*
G36*
X931000Y831000D02*
G01*
X967740Y831000D01*
X967640Y831900D01*
X966420Y837300D01*
X964500Y842480D01*
X961940Y847400D01*
X958780Y851940D01*
X955060Y856040D01*
X950840Y859620D01*
X946200Y862640D01*
X941220Y865040D01*
X935960Y866780D01*
X931000Y867760D01*
G37*
G36*
X1382260Y831000D02*
G01*
X1419000Y831000D01*
X1419000Y867760D01*
X1414040Y866780D01*
X1408779Y865040D01*
X1403800Y862640D01*
X1399160Y859620D01*
X1394940Y856040D01*
X1391220Y851940D01*
X1388060Y847400D01*
X1385500Y842480D01*
X1383580Y837300D01*
X1382360Y831900D01*
G37*
G36*
X1431000Y831000D02*
G01*
X1467740Y831000D01*
X1467640Y831900D01*
X1466420Y837300D01*
X1464500Y842480D01*
X1461940Y847400D01*
X1458779Y851940D01*
X1455060Y856040D01*
X1450840Y859620D01*
X1446200Y862640D01*
X1441220Y865040D01*
X1435960Y866780D01*
X1431000Y867760D01*
G37*
G36*
X1882260Y831000D02*
G01*
X1919000Y831000D01*
X1919000Y867760D01*
X1914040Y866780D01*
X1908779Y865040D01*
X1903800Y862640D01*
X1899160Y859620D01*
X1894940Y856040D01*
X1891220Y851940D01*
X1888060Y847400D01*
X1885500Y842480D01*
X1883580Y837300D01*
X1882360Y831900D01*
G37*
G36*
X1931000Y831000D02*
G01*
X1967740Y831000D01*
X1967640Y831900D01*
X1966420Y837300D01*
X1964500Y842480D01*
X1961940Y847400D01*
X1958779Y851940D01*
X1955060Y856040D01*
X1950840Y859620D01*
X1946200Y862640D01*
X1941220Y865040D01*
X1935960Y866780D01*
X1931000Y867760D01*
G37*
G36*
X2375000Y831800D02*
G01*
X2380520Y832159D01*
X2385960Y833220D01*
X2391220Y834960D01*
X2396200Y837360D01*
X2400840Y840380D01*
X2405060Y843960D01*
X2408780Y848060D01*
X2411940Y852600D01*
X2414500Y857520D01*
X2416420Y862700D01*
X2417640Y868100D01*
X2418180Y873620D01*
X2418000Y879140D01*
X2417120Y884620D01*
X2415540Y889920D01*
X2413300Y894980D01*
X2410440Y899720D01*
X2406980Y904040D01*
X2403000Y907900D01*
X2398560Y911200D01*
X2393740Y913920D01*
X2388620Y916000D01*
X2383260Y917400D01*
X2377760Y918120D01*
X2372240Y918120D01*
X2366740Y917400D01*
X2361380Y916000D01*
X2356260Y913920D01*
X2351440Y911200D01*
X2347000Y907900D01*
X2343020Y904040D01*
X2339560Y899720D01*
X2336700Y894980D01*
X2334460Y889920D01*
X2332880Y884620D01*
X2332000Y879140D01*
X2331820Y873620D01*
X2332360Y868100D01*
X2333580Y862700D01*
X2335500Y857520D01*
X2338060Y852600D01*
X2341220Y848060D01*
X2344940Y843960D01*
X2349160Y840380D01*
X2353800Y837360D01*
X2358780Y834960D01*
X2364040Y833220D01*
X2369480Y832159D01*
G37*
G36*
X2344200Y931800D02*
G01*
X2369000Y931800D01*
X2369000Y969000D01*
X2331800Y969000D01*
X2331800Y944200D01*
X2332040Y941620D01*
X2332740Y939340D01*
X2333860Y937220D01*
X2335380Y935380D01*
X2337220Y933860D01*
X2339340Y932740D01*
X2341620Y932039D01*
G37*
G36*
X2381000Y931800D02*
G01*
X2405800Y931800D01*
X2408380Y932039D01*
X2410660Y932740D01*
X2412780Y933860D01*
X2414620Y935380D01*
X2416140Y937220D01*
X2417260Y939340D01*
X2417960Y941620D01*
X2418200Y944200D01*
X2418200Y969000D01*
X2381000Y969000D01*
G37*
G36*
X2381000Y981000D02*
G01*
X2418200Y981000D01*
X2418200Y1005800D01*
X2417960Y1008379D01*
X2417260Y1010660D01*
X2416140Y1012780D01*
X2414620Y1014620D01*
X2412780Y1016140D01*
X2410660Y1017260D01*
X2408380Y1017960D01*
X2405800Y1018199D01*
X2381000Y1018199D01*
G37*
G36*
X2331800Y981000D02*
G01*
X2369000Y981000D01*
X2369000Y1018199D01*
X2344200Y1018199D01*
X2341620Y1017960D01*
X2339340Y1017260D01*
X2337220Y1016140D01*
X2335380Y1014620D01*
X2333860Y1012780D01*
X2332740Y1010660D01*
X2332040Y1008379D01*
X2331800Y1005800D01*
G37*
G36*
X2115940Y1031300D02*
G01*
X2210240Y1031300D01*
X2212820Y1031540D01*
X2215100Y1032240D01*
X2217200Y1033360D01*
X2219060Y1034880D01*
X2220580Y1036740D01*
X2221700Y1038840D01*
X2222400Y1041120D01*
X2222640Y1043700D01*
X2222640Y1106300D01*
X2222400Y1108880D01*
X2221700Y1111160D01*
X2220580Y1113260D01*
X2219060Y1115120D01*
X2217200Y1116640D01*
X2215100Y1117760D01*
X2212820Y1118460D01*
X2210240Y1118700D01*
X2115940Y1118700D01*
X2113360Y1118460D01*
X2111280Y1117900D01*
X2108660Y1117640D01*
X2103260Y1116420D01*
X2098060Y1114500D01*
X2093160Y1111940D01*
X2088620Y1108780D01*
X2084520Y1105060D01*
X2080920Y1100840D01*
X2077900Y1096200D01*
X2075500Y1091220D01*
X2073760Y1085960D01*
X2072700Y1080520D01*
X2072360Y1075000D01*
X2072700Y1069480D01*
X2073760Y1064040D01*
X2075500Y1058780D01*
X2077900Y1053800D01*
X2080920Y1049160D01*
X2084520Y1044940D01*
X2088620Y1041220D01*
X2093160Y1038060D01*
X2098060Y1035500D01*
X2103260Y1033580D01*
X2108660Y1032360D01*
X2111280Y1032099D01*
X2113360Y1031540D01*
G37*
G36*
X2372240Y1031880D02*
G01*
X2377760Y1031880D01*
X2383260Y1032600D01*
X2388620Y1034000D01*
X2393740Y1036080D01*
X2398560Y1038800D01*
X2403000Y1042099D01*
X2406980Y1045960D01*
X2410440Y1050280D01*
X2413300Y1055020D01*
X2415540Y1060080D01*
X2417120Y1065380D01*
X2418000Y1070860D01*
X2418180Y1076380D01*
X2417640Y1081900D01*
X2416420Y1087300D01*
X2414500Y1092480D01*
X2411940Y1097400D01*
X2408780Y1101940D01*
X2405060Y1106040D01*
X2400840Y1109620D01*
X2396200Y1112640D01*
X2391220Y1115040D01*
X2385960Y1116780D01*
X2380520Y1117840D01*
X2375000Y1118200D01*
X2369480Y1117840D01*
X2364040Y1116780D01*
X2358780Y1115040D01*
X2353800Y1112640D01*
X2349160Y1109620D01*
X2344940Y1106040D01*
X2341220Y1101940D01*
X2338060Y1097400D01*
X2335500Y1092480D01*
X2333580Y1087300D01*
X2332360Y1081900D01*
X2331820Y1076380D01*
X2332000Y1070860D01*
X2332880Y1065380D01*
X2334460Y1060080D01*
X2336700Y1055020D01*
X2339560Y1050280D01*
X2343020Y1045960D01*
X2347000Y1042099D01*
X2351440Y1038800D01*
X2356260Y1036080D01*
X2361380Y1034000D01*
X2366740Y1032600D01*
G37*
G36*
X2121560Y1131300D02*
G01*
X2141240Y1131300D01*
X2141240Y1169000D01*
X2121560Y1169000D01*
G37*
G36*
X2153240Y1131300D02*
G01*
X2172940Y1131300D01*
X2172940Y1169000D01*
X2153240Y1169000D01*
G37*
G36*
X2184940Y1131300D02*
G01*
X2210240Y1131300D01*
X2212820Y1131540D01*
X2215100Y1132240D01*
X2217200Y1133360D01*
X2219060Y1134880D01*
X2220580Y1136740D01*
X2221700Y1138840D01*
X2222400Y1141120D01*
X2222640Y1143700D01*
X2222640Y1169000D01*
X2184940Y1169000D01*
G37*
G36*
X2344200Y1131800D02*
G01*
X2369000Y1131800D01*
X2369000Y1169000D01*
X2331800Y1169000D01*
X2331800Y1144200D01*
X2332040Y1141620D01*
X2332740Y1139340D01*
X2333860Y1137220D01*
X2335380Y1135380D01*
X2337220Y1133860D01*
X2339340Y1132740D01*
X2341620Y1132040D01*
G37*
G36*
X2381000Y1131800D02*
G01*
X2405800Y1131800D01*
X2408380Y1132040D01*
X2410660Y1132740D01*
X2412780Y1133860D01*
X2414620Y1135380D01*
X2416140Y1137220D01*
X2417260Y1139340D01*
X2417960Y1141620D01*
X2418200Y1144200D01*
X2418200Y1169000D01*
X2381000Y1169000D01*
G37*
G36*
X2109560Y1132260D02*
G01*
X2109560Y1169000D01*
X2072800Y1169000D01*
X2073760Y1164040D01*
X2075500Y1158780D01*
X2077900Y1153800D01*
X2080920Y1149160D01*
X2084520Y1144940D01*
X2088620Y1141220D01*
X2093160Y1138060D01*
X2098060Y1135500D01*
X2103260Y1133580D01*
X2108660Y1132360D01*
G37*
G36*
X2121560Y1181000D02*
G01*
X2141240Y1181000D01*
X2141240Y1218700D01*
X2121560Y1218700D01*
G37*
G36*
X2153240Y1181000D02*
G01*
X2172940Y1181000D01*
X2172940Y1218700D01*
X2153240Y1218700D01*
G37*
G36*
X2072800Y1181000D02*
G01*
X2109560Y1181000D01*
X2109560Y1217740D01*
X2108660Y1217640D01*
X2103260Y1216420D01*
X2098060Y1214500D01*
X2093160Y1211940D01*
X2088620Y1208780D01*
X2084520Y1205060D01*
X2080920Y1200840D01*
X2077900Y1196200D01*
X2075500Y1191220D01*
X2073760Y1185960D01*
G37*
G36*
X2381000Y1181000D02*
G01*
X2418200Y1181000D01*
X2418200Y1205800D01*
X2417960Y1208380D01*
X2417260Y1210660D01*
X2416140Y1212780D01*
X2414620Y1214620D01*
X2412780Y1216140D01*
X2410660Y1217260D01*
X2408380Y1217960D01*
X2405800Y1218200D01*
X2381000Y1218200D01*
G37*
G36*
X2331800Y1181000D02*
G01*
X2369000Y1181000D01*
X2369000Y1218200D01*
X2344200Y1218200D01*
X2341620Y1217960D01*
X2339340Y1217260D01*
X2337220Y1216140D01*
X2335380Y1214620D01*
X2333860Y1212780D01*
X2332740Y1210660D01*
X2332040Y1208380D01*
X2331800Y1205800D01*
G37*
G36*
X2184940Y1181000D02*
G01*
X2222640Y1181000D01*
X2222640Y1206300D01*
X2222400Y1208880D01*
X2221700Y1211160D01*
X2220580Y1213260D01*
X2219060Y1215120D01*
X2217200Y1216640D01*
X2215100Y1217760D01*
X2212820Y1218460D01*
X2210240Y1218700D01*
X2184940Y1218700D01*
G37*
G36*
X2115940Y1231300D02*
G01*
X2210240Y1231300D01*
X2212820Y1231540D01*
X2215100Y1232240D01*
X2217200Y1233360D01*
X2219060Y1234880D01*
X2220580Y1236740D01*
X2221700Y1238840D01*
X2222400Y1241120D01*
X2222640Y1243700D01*
X2222640Y1306300D01*
X2222400Y1308880D01*
X2221700Y1311160D01*
X2220580Y1313260D01*
X2219060Y1315120D01*
X2217200Y1316639D01*
X2215100Y1317760D01*
X2212820Y1318460D01*
X2210240Y1318700D01*
X2115940Y1318700D01*
X2113280Y1318440D01*
X2111660Y1318040D01*
X2105940Y1317120D01*
X2100640Y1315540D01*
X2095560Y1313300D01*
X2090840Y1310440D01*
X2086500Y1306980D01*
X2082660Y1303000D01*
X2079340Y1298560D01*
X2076620Y1293740D01*
X2074560Y1288620D01*
X2073140Y1283260D01*
X2072440Y1277760D01*
X2072440Y1272240D01*
X2073140Y1266740D01*
X2074560Y1261380D01*
X2076620Y1256260D01*
X2079340Y1251440D01*
X2082660Y1247000D01*
X2086500Y1243020D01*
X2090840Y1239560D01*
X2095560Y1236700D01*
X2100640Y1234460D01*
X2105940Y1232880D01*
X2112020Y1231880D01*
X2113280Y1231560D01*
G37*
G36*
X2372240Y1231880D02*
G01*
X2377760Y1231880D01*
X2383260Y1232600D01*
X2388620Y1234000D01*
X2393740Y1236080D01*
X2398560Y1238800D01*
X2403000Y1242100D01*
X2406980Y1245960D01*
X2410440Y1250280D01*
X2413300Y1255020D01*
X2415540Y1260080D01*
X2417120Y1265380D01*
X2418000Y1270860D01*
X2418180Y1276380D01*
X2417640Y1281900D01*
X2416420Y1287300D01*
X2414500Y1292480D01*
X2411940Y1297400D01*
X2408780Y1301940D01*
X2405060Y1306040D01*
X2400840Y1309620D01*
X2396200Y1312640D01*
X2391220Y1315040D01*
X2385960Y1316780D01*
X2380520Y1317840D01*
X2375000Y1318200D01*
X2369480Y1317840D01*
X2364040Y1316780D01*
X2358780Y1315040D01*
X2353800Y1312640D01*
X2349160Y1309620D01*
X2344940Y1306040D01*
X2341220Y1301940D01*
X2338060Y1297400D01*
X2335500Y1292480D01*
X2333580Y1287300D01*
X2332360Y1281900D01*
X2331820Y1276380D01*
X2332000Y1270860D01*
X2332880Y1265380D01*
X2334460Y1260080D01*
X2336700Y1255020D01*
X2339560Y1250280D01*
X2343020Y1245960D01*
X2347000Y1242100D01*
X2351440Y1238800D01*
X2356260Y1236080D01*
X2361380Y1234000D01*
X2366740Y1232600D01*
G37*
G36*
X2344200Y1331800D02*
G01*
X2369000Y1331800D01*
X2369000Y1369000D01*
X2331800Y1369000D01*
X2331800Y1344199D01*
X2332040Y1341620D01*
X2332740Y1339340D01*
X2333860Y1337220D01*
X2335380Y1335380D01*
X2337220Y1333860D01*
X2339340Y1332740D01*
X2341620Y1332040D01*
G37*
G36*
X2381000Y1331800D02*
G01*
X2405800Y1331800D01*
X2408380Y1332040D01*
X2410660Y1332740D01*
X2412780Y1333860D01*
X2414620Y1335380D01*
X2416140Y1337220D01*
X2417260Y1339340D01*
X2417960Y1341620D01*
X2418200Y1344199D01*
X2418200Y1369000D01*
X2381000Y1369000D01*
G37*
G36*
X2275000Y1331800D02*
G01*
X2280520Y1332160D01*
X2285960Y1333220D01*
X2291220Y1334960D01*
X2296200Y1337360D01*
X2300840Y1340380D01*
X2305060Y1343959D01*
X2308780Y1348060D01*
X2311940Y1352600D01*
X2314500Y1357520D01*
X2316420Y1362700D01*
X2317640Y1368100D01*
X2318180Y1373620D01*
X2318000Y1379139D01*
X2317120Y1384620D01*
X2315540Y1389920D01*
X2313300Y1394980D01*
X2310440Y1399720D01*
X2306980Y1404040D01*
X2303000Y1407900D01*
X2298560Y1411200D01*
X2293740Y1413920D01*
X2288620Y1416000D01*
X2283260Y1417400D01*
X2277760Y1418120D01*
X2272240Y1418120D01*
X2266740Y1417400D01*
X2261380Y1416000D01*
X2256260Y1413920D01*
X2251440Y1411200D01*
X2247000Y1407900D01*
X2243020Y1404040D01*
X2239560Y1399720D01*
X2236700Y1394980D01*
X2234460Y1389920D01*
X2232880Y1384620D01*
X2232000Y1379139D01*
X2231820Y1373620D01*
X2232360Y1368100D01*
X2233580Y1362700D01*
X2235500Y1357520D01*
X2238060Y1352600D01*
X2241220Y1348060D01*
X2244940Y1343959D01*
X2249160Y1340380D01*
X2253800Y1337360D01*
X2258780Y1334960D01*
X2264040Y1333220D01*
X2269480Y1332160D01*
G37*
G36*
X2381000Y1381000D02*
G01*
X2418200Y1381000D01*
X2418200Y1405800D01*
X2417960Y1408380D01*
X2417260Y1410660D01*
X2416140Y1412780D01*
X2414620Y1414620D01*
X2412780Y1416140D01*
X2410660Y1417260D01*
X2408380Y1417960D01*
X2405800Y1418200D01*
X2381000Y1418200D01*
G37*
G36*
X2331800Y1381000D02*
G01*
X2369000Y1381000D01*
X2369000Y1418200D01*
X2344200Y1418200D01*
X2341620Y1417960D01*
X2339340Y1417260D01*
X2337220Y1416140D01*
X2335380Y1414620D01*
X2333860Y1412780D01*
X2332740Y1410660D01*
X2332040Y1408380D01*
X2331800Y1405800D01*
G37*
G36*
X2372240Y1431879D02*
G01*
X2377760Y1431879D01*
X2383260Y1432600D01*
X2388620Y1434000D01*
X2393740Y1436080D01*
X2398560Y1438800D01*
X2403000Y1442100D01*
X2406980Y1445960D01*
X2410440Y1450280D01*
X2413300Y1455020D01*
X2415540Y1460080D01*
X2417120Y1465380D01*
X2418000Y1470860D01*
X2418180Y1476380D01*
X2417640Y1481900D01*
X2416420Y1487300D01*
X2414500Y1492480D01*
X2411940Y1497400D01*
X2408780Y1501940D01*
X2405060Y1506040D01*
X2400840Y1509620D01*
X2396200Y1512640D01*
X2391220Y1515040D01*
X2385960Y1516780D01*
X2380520Y1517840D01*
X2375000Y1518200D01*
X2369480Y1517840D01*
X2364040Y1516780D01*
X2358780Y1515040D01*
X2353800Y1512640D01*
X2349160Y1509620D01*
X2344940Y1506040D01*
X2341220Y1501940D01*
X2338060Y1497400D01*
X2335500Y1492480D01*
X2333580Y1487300D01*
X2332360Y1481900D01*
X2331820Y1476380D01*
X2332000Y1470860D01*
X2332880Y1465380D01*
X2334460Y1460080D01*
X2336700Y1455020D01*
X2339560Y1450280D01*
X2343020Y1445960D01*
X2347000Y1442100D01*
X2351440Y1438800D01*
X2356260Y1436080D01*
X2361380Y1434000D01*
X2366740Y1432600D01*
G37*
G36*
X322239Y1481879D02*
G01*
X327760Y1481879D01*
X333260Y1482600D01*
X338620Y1484000D01*
X343740Y1486080D01*
X348560Y1488800D01*
X353000Y1492100D01*
X356980Y1495960D01*
X360439Y1500280D01*
X363300Y1505020D01*
X365540Y1510080D01*
X367120Y1515380D01*
X368120Y1521459D01*
X368440Y1522740D01*
X368700Y1525400D01*
X368700Y1619680D01*
X368459Y1622260D01*
X367760Y1624560D01*
X366640Y1626660D01*
X365120Y1628500D01*
X363260Y1630020D01*
X361160Y1631140D01*
X358880Y1631840D01*
X356300Y1632100D01*
X293700Y1632100D01*
X291120Y1631840D01*
X288840Y1631140D01*
X286740Y1630020D01*
X284880Y1628500D01*
X283360Y1626660D01*
X282240Y1624560D01*
X281540Y1622260D01*
X281300Y1619680D01*
X281300Y1525400D01*
X281560Y1522740D01*
X281960Y1521100D01*
X282880Y1515380D01*
X284460Y1510080D01*
X286700Y1505020D01*
X289560Y1500280D01*
X293020Y1495960D01*
X297000Y1492100D01*
X301440Y1488800D01*
X306260Y1486080D01*
X311380Y1484000D01*
X316740Y1482600D01*
G37*
G36*
X722240Y1481879D02*
G01*
X727760Y1481879D01*
X733259Y1482600D01*
X738620Y1484000D01*
X743740Y1486080D01*
X748560Y1488800D01*
X753000Y1492100D01*
X756979Y1495960D01*
X760440Y1500280D01*
X763300Y1505020D01*
X765540Y1510080D01*
X767120Y1515380D01*
X768120Y1521459D01*
X768439Y1522740D01*
X768700Y1525400D01*
X768700Y1619680D01*
X768460Y1622260D01*
X767760Y1624560D01*
X766640Y1626660D01*
X765120Y1628500D01*
X763259Y1630020D01*
X761160Y1631140D01*
X758880Y1631840D01*
X756300Y1632100D01*
X693700Y1632100D01*
X691120Y1631840D01*
X688840Y1631140D01*
X686740Y1630020D01*
X684880Y1628500D01*
X683360Y1626660D01*
X682240Y1624560D01*
X681540Y1622260D01*
X681300Y1619680D01*
X681300Y1525400D01*
X681560Y1522740D01*
X681960Y1521100D01*
X682880Y1515380D01*
X684460Y1510080D01*
X686700Y1505020D01*
X689560Y1500280D01*
X693020Y1495960D01*
X697000Y1492100D01*
X701440Y1488800D01*
X706260Y1486080D01*
X711380Y1484000D01*
X716740Y1482600D01*
G37*
G36*
X522239Y1481879D02*
G01*
X527760Y1481879D01*
X533260Y1482600D01*
X538620Y1484000D01*
X543740Y1486080D01*
X548560Y1488800D01*
X553000Y1492100D01*
X556980Y1495960D01*
X560440Y1500280D01*
X563300Y1505020D01*
X565540Y1510080D01*
X567120Y1515380D01*
X568120Y1521459D01*
X568440Y1522740D01*
X568700Y1525400D01*
X568700Y1619680D01*
X568460Y1622260D01*
X567760Y1624560D01*
X566640Y1626660D01*
X565120Y1628500D01*
X563260Y1630020D01*
X561160Y1631140D01*
X558880Y1631840D01*
X556300Y1632100D01*
X493700Y1632100D01*
X491120Y1631840D01*
X488840Y1631140D01*
X486740Y1630020D01*
X484880Y1628500D01*
X483360Y1626660D01*
X482239Y1624560D01*
X481540Y1622260D01*
X481300Y1619680D01*
X481300Y1525400D01*
X481560Y1522740D01*
X481960Y1521100D01*
X482879Y1515380D01*
X484460Y1510080D01*
X486700Y1505020D01*
X489560Y1500280D01*
X493020Y1495960D01*
X497000Y1492100D01*
X501440Y1488800D01*
X506260Y1486080D01*
X511380Y1484000D01*
X516740Y1482600D01*
G37*
G36*
X622240Y1481879D02*
G01*
X627760Y1481879D01*
X633260Y1482600D01*
X638620Y1484000D01*
X643740Y1486080D01*
X648560Y1488800D01*
X653000Y1492100D01*
X656979Y1495960D01*
X660440Y1500280D01*
X663300Y1505020D01*
X665540Y1510080D01*
X667120Y1515380D01*
X668120Y1521459D01*
X668439Y1522740D01*
X668700Y1525400D01*
X668700Y1619680D01*
X668460Y1622260D01*
X667760Y1624560D01*
X666640Y1626660D01*
X665120Y1628500D01*
X663259Y1630020D01*
X661160Y1631140D01*
X658880Y1631840D01*
X656300Y1632100D01*
X593700Y1632100D01*
X591120Y1631840D01*
X588840Y1631140D01*
X586740Y1630020D01*
X584880Y1628500D01*
X583360Y1626660D01*
X582240Y1624560D01*
X581540Y1622260D01*
X581300Y1619680D01*
X581300Y1525400D01*
X581560Y1522740D01*
X581960Y1521100D01*
X582880Y1515380D01*
X584460Y1510080D01*
X586700Y1505020D01*
X589560Y1500280D01*
X593020Y1495960D01*
X597000Y1492100D01*
X601440Y1488800D01*
X606260Y1486080D01*
X611380Y1484000D01*
X616740Y1482600D01*
G37*
G36*
X222240Y1481879D02*
G01*
X227760Y1481879D01*
X233260Y1482600D01*
X238619Y1484000D01*
X243740Y1486080D01*
X248560Y1488800D01*
X253000Y1492100D01*
X256980Y1495960D01*
X260440Y1500280D01*
X263300Y1505020D01*
X265540Y1510080D01*
X267120Y1515380D01*
X268120Y1521459D01*
X268440Y1522740D01*
X268700Y1525400D01*
X268700Y1619680D01*
X268460Y1622260D01*
X267760Y1624560D01*
X266640Y1626660D01*
X265120Y1628500D01*
X263260Y1630020D01*
X261160Y1631140D01*
X258880Y1631840D01*
X256300Y1632100D01*
X193700Y1632100D01*
X191119Y1631840D01*
X188840Y1631140D01*
X186740Y1630020D01*
X184880Y1628500D01*
X183359Y1626660D01*
X182240Y1624560D01*
X181540Y1622260D01*
X181300Y1619680D01*
X181300Y1525400D01*
X181560Y1522740D01*
X181960Y1521100D01*
X182880Y1515380D01*
X184460Y1510080D01*
X186700Y1505020D01*
X189560Y1500280D01*
X193020Y1495960D01*
X197000Y1492100D01*
X201439Y1488800D01*
X206260Y1486080D01*
X211380Y1484000D01*
X216740Y1482600D01*
G37*
G36*
X1022240Y1481879D02*
G01*
X1027760Y1481879D01*
X1033259Y1482600D01*
X1038620Y1484000D01*
X1043740Y1486080D01*
X1048560Y1488800D01*
X1053000Y1492100D01*
X1056980Y1495960D01*
X1060440Y1500280D01*
X1063300Y1505020D01*
X1065540Y1510080D01*
X1067120Y1515380D01*
X1068120Y1521459D01*
X1068440Y1522740D01*
X1068700Y1525400D01*
X1068700Y1619680D01*
X1068460Y1622260D01*
X1067760Y1624560D01*
X1066640Y1626660D01*
X1065120Y1628500D01*
X1063260Y1630020D01*
X1061160Y1631140D01*
X1058880Y1631840D01*
X1056300Y1632100D01*
X993700Y1632100D01*
X991120Y1631840D01*
X988840Y1631140D01*
X986740Y1630020D01*
X984880Y1628500D01*
X983360Y1626660D01*
X982240Y1624560D01*
X981540Y1622260D01*
X981300Y1619680D01*
X981300Y1525400D01*
X981560Y1522740D01*
X981960Y1521100D01*
X982880Y1515380D01*
X984460Y1510080D01*
X986700Y1505020D01*
X989560Y1500280D01*
X993020Y1495960D01*
X997000Y1492100D01*
X1001440Y1488800D01*
X1006260Y1486080D01*
X1011380Y1484000D01*
X1016740Y1482600D01*
G37*
G36*
X1222240Y1481879D02*
G01*
X1227760Y1481879D01*
X1233260Y1482600D01*
X1238620Y1484000D01*
X1243740Y1486080D01*
X1248560Y1488800D01*
X1253000Y1492100D01*
X1256980Y1495960D01*
X1260440Y1500280D01*
X1263300Y1505020D01*
X1265540Y1510080D01*
X1267120Y1515380D01*
X1268120Y1521459D01*
X1268440Y1522740D01*
X1268700Y1525400D01*
X1268700Y1619680D01*
X1268460Y1622260D01*
X1267760Y1624560D01*
X1266640Y1626660D01*
X1265120Y1628500D01*
X1263260Y1630020D01*
X1261160Y1631140D01*
X1258880Y1631840D01*
X1256300Y1632100D01*
X1193700Y1632100D01*
X1191120Y1631840D01*
X1188840Y1631140D01*
X1186740Y1630020D01*
X1184880Y1628500D01*
X1183360Y1626660D01*
X1182240Y1624560D01*
X1181540Y1622260D01*
X1181300Y1619680D01*
X1181300Y1525400D01*
X1181560Y1522740D01*
X1181960Y1521100D01*
X1182880Y1515380D01*
X1184460Y1510080D01*
X1186700Y1505020D01*
X1189560Y1500280D01*
X1193020Y1495960D01*
X1197000Y1492100D01*
X1201440Y1488800D01*
X1206260Y1486080D01*
X1211380Y1484000D01*
X1216740Y1482600D01*
G37*
G36*
X1322240Y1481879D02*
G01*
X1327760Y1481879D01*
X1333260Y1482600D01*
X1338620Y1484000D01*
X1343740Y1486080D01*
X1348560Y1488800D01*
X1353000Y1492100D01*
X1356980Y1495960D01*
X1360440Y1500280D01*
X1363300Y1505020D01*
X1365540Y1510080D01*
X1367120Y1515380D01*
X1368120Y1521459D01*
X1368440Y1522740D01*
X1368700Y1525400D01*
X1368700Y1619680D01*
X1368460Y1622260D01*
X1367760Y1624560D01*
X1366639Y1626660D01*
X1365120Y1628500D01*
X1363260Y1630020D01*
X1361160Y1631140D01*
X1358880Y1631840D01*
X1356300Y1632100D01*
X1293700Y1632100D01*
X1291120Y1631840D01*
X1288839Y1631140D01*
X1286740Y1630020D01*
X1284880Y1628500D01*
X1283360Y1626660D01*
X1282240Y1624560D01*
X1281540Y1622260D01*
X1281300Y1619680D01*
X1281300Y1525400D01*
X1281560Y1522740D01*
X1281960Y1521100D01*
X1282880Y1515380D01*
X1284460Y1510080D01*
X1286699Y1505020D01*
X1289560Y1500280D01*
X1293020Y1495960D01*
X1297000Y1492100D01*
X1301440Y1488800D01*
X1306260Y1486080D01*
X1311380Y1484000D01*
X1316740Y1482600D01*
G37*
G36*
X1622240Y1481879D02*
G01*
X1627760Y1481879D01*
X1633260Y1482600D01*
X1638620Y1484000D01*
X1643740Y1486080D01*
X1648560Y1488800D01*
X1653000Y1492100D01*
X1656980Y1495960D01*
X1660440Y1500280D01*
X1663300Y1505020D01*
X1665540Y1510080D01*
X1667120Y1515380D01*
X1668120Y1521459D01*
X1668440Y1522740D01*
X1668700Y1525400D01*
X1668700Y1619680D01*
X1668460Y1622260D01*
X1667760Y1624560D01*
X1666639Y1626660D01*
X1665120Y1628500D01*
X1663260Y1630020D01*
X1661160Y1631140D01*
X1658880Y1631840D01*
X1656300Y1632100D01*
X1593700Y1632100D01*
X1591120Y1631840D01*
X1588839Y1631140D01*
X1586740Y1630020D01*
X1584880Y1628500D01*
X1583360Y1626660D01*
X1582240Y1624560D01*
X1581540Y1622260D01*
X1581300Y1619680D01*
X1581300Y1525400D01*
X1581560Y1522740D01*
X1581960Y1521100D01*
X1582880Y1515380D01*
X1584460Y1510080D01*
X1586699Y1505020D01*
X1589560Y1500280D01*
X1593020Y1495960D01*
X1597000Y1492100D01*
X1601440Y1488800D01*
X1606260Y1486080D01*
X1611380Y1484000D01*
X1616740Y1482600D01*
G37*
G36*
X822240Y1481879D02*
G01*
X827760Y1481879D01*
X833259Y1482600D01*
X838620Y1484000D01*
X843740Y1486080D01*
X848560Y1488800D01*
X853000Y1492100D01*
X856979Y1495960D01*
X860440Y1500280D01*
X863300Y1505020D01*
X865540Y1510080D01*
X867120Y1515380D01*
X868120Y1521459D01*
X868439Y1522740D01*
X868700Y1525400D01*
X868700Y1619680D01*
X868460Y1622260D01*
X867760Y1624560D01*
X866640Y1626660D01*
X865120Y1628500D01*
X863259Y1630020D01*
X861160Y1631140D01*
X858880Y1631840D01*
X856300Y1632100D01*
X793700Y1632100D01*
X791120Y1631840D01*
X788840Y1631140D01*
X786740Y1630020D01*
X784880Y1628500D01*
X783360Y1626660D01*
X782240Y1624560D01*
X781540Y1622260D01*
X781300Y1619680D01*
X781300Y1525400D01*
X781560Y1522740D01*
X781960Y1521100D01*
X782880Y1515380D01*
X784460Y1510080D01*
X786700Y1505020D01*
X789560Y1500280D01*
X793020Y1495960D01*
X797000Y1492100D01*
X801440Y1488800D01*
X806260Y1486080D01*
X811380Y1484000D01*
X816740Y1482600D01*
G37*
G36*
X1522240Y1481879D02*
G01*
X1527760Y1481879D01*
X1533260Y1482600D01*
X1538620Y1484000D01*
X1543740Y1486080D01*
X1548560Y1488800D01*
X1553000Y1492100D01*
X1556980Y1495960D01*
X1560440Y1500280D01*
X1563300Y1505020D01*
X1565540Y1510080D01*
X1567120Y1515380D01*
X1568120Y1521459D01*
X1568440Y1522740D01*
X1568700Y1525400D01*
X1568700Y1619680D01*
X1568460Y1622260D01*
X1567760Y1624560D01*
X1566639Y1626660D01*
X1565120Y1628500D01*
X1563260Y1630020D01*
X1561160Y1631140D01*
X1558880Y1631840D01*
X1556300Y1632100D01*
X1493700Y1632100D01*
X1491120Y1631840D01*
X1488839Y1631140D01*
X1486740Y1630020D01*
X1484880Y1628500D01*
X1483360Y1626660D01*
X1482240Y1624560D01*
X1481540Y1622260D01*
X1481300Y1619680D01*
X1481300Y1525400D01*
X1481560Y1522740D01*
X1481960Y1521100D01*
X1482880Y1515380D01*
X1484460Y1510080D01*
X1486699Y1505020D01*
X1489560Y1500280D01*
X1493020Y1495960D01*
X1497000Y1492100D01*
X1501440Y1488800D01*
X1506260Y1486080D01*
X1511380Y1484000D01*
X1516740Y1482600D01*
G37*
G36*
X1722240Y1481879D02*
G01*
X1727760Y1481879D01*
X1733260Y1482600D01*
X1738620Y1484000D01*
X1743740Y1486080D01*
X1748560Y1488800D01*
X1753000Y1492100D01*
X1756980Y1495960D01*
X1760440Y1500280D01*
X1763300Y1505020D01*
X1765540Y1510080D01*
X1767120Y1515380D01*
X1768120Y1521459D01*
X1768440Y1522740D01*
X1768700Y1525400D01*
X1768700Y1619680D01*
X1768460Y1622260D01*
X1767760Y1624560D01*
X1766639Y1626660D01*
X1765120Y1628500D01*
X1763260Y1630020D01*
X1761160Y1631140D01*
X1758880Y1631840D01*
X1756300Y1632100D01*
X1693700Y1632100D01*
X1691120Y1631840D01*
X1688839Y1631140D01*
X1686740Y1630020D01*
X1684880Y1628500D01*
X1683360Y1626660D01*
X1682240Y1624560D01*
X1681540Y1622260D01*
X1681300Y1619680D01*
X1681300Y1525400D01*
X1681560Y1522740D01*
X1681960Y1521100D01*
X1682880Y1515380D01*
X1684460Y1510080D01*
X1686699Y1505020D01*
X1689560Y1500280D01*
X1693020Y1495960D01*
X1697000Y1492100D01*
X1701440Y1488800D01*
X1706260Y1486080D01*
X1711380Y1484000D01*
X1716740Y1482600D01*
G37*
G36*
X1122240Y1481879D02*
G01*
X1127760Y1481879D01*
X1133260Y1482600D01*
X1138620Y1484000D01*
X1143740Y1486080D01*
X1148560Y1488800D01*
X1153000Y1492100D01*
X1156980Y1495960D01*
X1160440Y1500280D01*
X1163300Y1505020D01*
X1165540Y1510080D01*
X1167120Y1515380D01*
X1168120Y1521459D01*
X1168440Y1522740D01*
X1168700Y1525400D01*
X1168700Y1619680D01*
X1168460Y1622260D01*
X1167760Y1624560D01*
X1166640Y1626660D01*
X1165120Y1628500D01*
X1163260Y1630020D01*
X1161160Y1631140D01*
X1158880Y1631840D01*
X1156300Y1632100D01*
X1093700Y1632100D01*
X1091120Y1631840D01*
X1088840Y1631140D01*
X1086740Y1630020D01*
X1084880Y1628500D01*
X1083360Y1626660D01*
X1082240Y1624560D01*
X1081540Y1622260D01*
X1081300Y1619680D01*
X1081300Y1525400D01*
X1081560Y1522740D01*
X1081960Y1521100D01*
X1082880Y1515380D01*
X1084460Y1510080D01*
X1086700Y1505020D01*
X1089560Y1500280D01*
X1093020Y1495960D01*
X1097000Y1492100D01*
X1101440Y1488800D01*
X1106260Y1486080D01*
X1111380Y1484000D01*
X1116740Y1482600D01*
G37*
G36*
X2022240Y1481879D02*
G01*
X2027760Y1481879D01*
X2033260Y1482600D01*
X2038620Y1484000D01*
X2043740Y1486080D01*
X2048560Y1488800D01*
X2053000Y1492100D01*
X2056980Y1495960D01*
X2060440Y1500280D01*
X2063300Y1505020D01*
X2065540Y1510080D01*
X2067120Y1515380D01*
X2068120Y1521459D01*
X2068440Y1522740D01*
X2068700Y1525400D01*
X2068700Y1619680D01*
X2068460Y1622260D01*
X2067760Y1624560D01*
X2066639Y1626660D01*
X2065120Y1628500D01*
X2063260Y1630020D01*
X2061160Y1631140D01*
X2058880Y1631840D01*
X2056300Y1632100D01*
X1993700Y1632100D01*
X1991120Y1631840D01*
X1988839Y1631140D01*
X1986740Y1630020D01*
X1984880Y1628500D01*
X1983360Y1626660D01*
X1982240Y1624560D01*
X1981540Y1622260D01*
X1981300Y1619680D01*
X1981300Y1525400D01*
X1981560Y1522740D01*
X1981960Y1521100D01*
X1982880Y1515380D01*
X1984460Y1510080D01*
X1986699Y1505020D01*
X1989560Y1500280D01*
X1993020Y1495960D01*
X1997000Y1492100D01*
X2001440Y1488800D01*
X2006260Y1486080D01*
X2011380Y1484000D01*
X2016740Y1482600D01*
G37*
G36*
X1822240Y1481879D02*
G01*
X1827760Y1481879D01*
X1833260Y1482600D01*
X1838620Y1484000D01*
X1843740Y1486080D01*
X1848560Y1488800D01*
X1853000Y1492100D01*
X1856980Y1495960D01*
X1860440Y1500280D01*
X1863300Y1505020D01*
X1865540Y1510080D01*
X1867120Y1515380D01*
X1868120Y1521459D01*
X1868440Y1522740D01*
X1868700Y1525400D01*
X1868700Y1619680D01*
X1868460Y1622260D01*
X1867760Y1624560D01*
X1866639Y1626660D01*
X1865120Y1628500D01*
X1863260Y1630020D01*
X1861160Y1631140D01*
X1858880Y1631840D01*
X1856300Y1632100D01*
X1793700Y1632100D01*
X1791120Y1631840D01*
X1788839Y1631140D01*
X1786740Y1630020D01*
X1784880Y1628500D01*
X1783360Y1626660D01*
X1782240Y1624560D01*
X1781540Y1622260D01*
X1781300Y1619680D01*
X1781300Y1525400D01*
X1781560Y1522740D01*
X1781960Y1521100D01*
X1782880Y1515380D01*
X1784460Y1510080D01*
X1786699Y1505020D01*
X1789560Y1500280D01*
X1793020Y1495960D01*
X1797000Y1492100D01*
X1801440Y1488800D01*
X1806260Y1486080D01*
X1811380Y1484000D01*
X1816740Y1482600D01*
G37*
G36*
X2122240Y1481879D02*
G01*
X2127760Y1481879D01*
X2133260Y1482600D01*
X2138620Y1484000D01*
X2143740Y1486080D01*
X2148560Y1488800D01*
X2153000Y1492100D01*
X2156980Y1495960D01*
X2160440Y1500280D01*
X2163300Y1505020D01*
X2165540Y1510080D01*
X2167120Y1515380D01*
X2168120Y1521459D01*
X2168440Y1522740D01*
X2168700Y1525400D01*
X2168700Y1619680D01*
X2168460Y1622260D01*
X2167760Y1624560D01*
X2166640Y1626660D01*
X2165120Y1628500D01*
X2163260Y1630020D01*
X2161160Y1631140D01*
X2158880Y1631840D01*
X2156300Y1632100D01*
X2093700Y1632100D01*
X2091120Y1631840D01*
X2088839Y1631140D01*
X2086740Y1630020D01*
X2084880Y1628500D01*
X2083360Y1626660D01*
X2082240Y1624560D01*
X2081540Y1622260D01*
X2081300Y1619680D01*
X2081300Y1525400D01*
X2081560Y1522740D01*
X2081960Y1521100D01*
X2082880Y1515380D01*
X2084460Y1510080D01*
X2086699Y1505020D01*
X2089560Y1500280D01*
X2093020Y1495960D01*
X2097000Y1492100D01*
X2101440Y1488800D01*
X2106260Y1486080D01*
X2111380Y1484000D01*
X2116740Y1482600D01*
G37*
G36*
X1431000Y1482300D02*
G01*
X1433260Y1482600D01*
X1438620Y1484000D01*
X1443740Y1486080D01*
X1448560Y1488800D01*
X1453000Y1492100D01*
X1456980Y1495960D01*
X1460440Y1500280D01*
X1463300Y1505020D01*
X1465540Y1510080D01*
X1467120Y1515380D01*
X1467700Y1519000D01*
X1431000Y1519000D01*
G37*
G36*
X1931000Y1482300D02*
G01*
X1933260Y1482600D01*
X1938620Y1484000D01*
X1943740Y1486080D01*
X1948560Y1488800D01*
X1953000Y1492100D01*
X1956980Y1495960D01*
X1960440Y1500280D01*
X1963300Y1505020D01*
X1965540Y1510080D01*
X1967120Y1515380D01*
X1967700Y1519000D01*
X1931000Y1519000D01*
G37*
G36*
X931000Y1482300D02*
G01*
X933259Y1482600D01*
X938620Y1484000D01*
X943740Y1486080D01*
X948560Y1488800D01*
X953000Y1492100D01*
X956979Y1495960D01*
X960440Y1500280D01*
X963300Y1505020D01*
X965540Y1510080D01*
X967120Y1515380D01*
X967700Y1519000D01*
X931000Y1519000D01*
G37*
G36*
X431000Y1482300D02*
G01*
X433260Y1482600D01*
X438620Y1484000D01*
X443740Y1486080D01*
X448560Y1488800D01*
X453000Y1492100D01*
X456980Y1495960D01*
X460439Y1500280D01*
X463300Y1505020D01*
X465540Y1510080D01*
X467120Y1515380D01*
X467700Y1519000D01*
X431000Y1519000D01*
G37*
G36*
X419000Y1482300D02*
G01*
X419000Y1519000D01*
X382299Y1519000D01*
X382879Y1515380D01*
X384460Y1510080D01*
X386700Y1505020D01*
X389560Y1500280D01*
X393020Y1495960D01*
X397000Y1492100D01*
X401440Y1488800D01*
X406260Y1486080D01*
X411380Y1484000D01*
X416740Y1482600D01*
G37*
G36*
X919000Y1482300D02*
G01*
X919000Y1519000D01*
X882300Y1519000D01*
X882880Y1515380D01*
X884460Y1510080D01*
X886700Y1505020D01*
X889560Y1500280D01*
X893020Y1495960D01*
X897000Y1492100D01*
X901440Y1488800D01*
X906260Y1486080D01*
X911380Y1484000D01*
X916740Y1482600D01*
G37*
G36*
X1419000Y1482300D02*
G01*
X1419000Y1519000D01*
X1382300Y1519000D01*
X1382880Y1515380D01*
X1384460Y1510080D01*
X1386699Y1505020D01*
X1389560Y1500280D01*
X1393020Y1495960D01*
X1397000Y1492100D01*
X1401440Y1488800D01*
X1406260Y1486080D01*
X1411380Y1484000D01*
X1416740Y1482600D01*
G37*
G36*
X1919000Y1482300D02*
G01*
X1919000Y1519000D01*
X1882300Y1519000D01*
X1882880Y1515380D01*
X1884460Y1510080D01*
X1886699Y1505020D01*
X1889560Y1500280D01*
X1893020Y1495960D01*
X1897000Y1492100D01*
X1901440Y1488800D01*
X1906260Y1486080D01*
X1911380Y1484000D01*
X1916740Y1482600D01*
G37*
G36*
X381300Y1531000D02*
G01*
X419000Y1531000D01*
X419000Y1550700D01*
X381300Y1550700D01*
G37*
G36*
X431000Y1531000D02*
G01*
X468700Y1531000D01*
X468700Y1550700D01*
X431000Y1550700D01*
G37*
G36*
X881300Y1531000D02*
G01*
X919000Y1531000D01*
X919000Y1550700D01*
X881300Y1550700D01*
G37*
G36*
X1431000Y1531000D02*
G01*
X1468700Y1531000D01*
X1468700Y1550700D01*
X1431000Y1550700D01*
G37*
G36*
X1381300Y1531000D02*
G01*
X1419000Y1531000D01*
X1419000Y1550700D01*
X1381300Y1550700D01*
G37*
G36*
X1931000Y1531000D02*
G01*
X1968700Y1531000D01*
X1968700Y1550700D01*
X1931000Y1550700D01*
G37*
G36*
X931000Y1531000D02*
G01*
X968700Y1531000D01*
X968700Y1550700D01*
X931000Y1550700D01*
G37*
G36*
X1881300Y1531000D02*
G01*
X1919000Y1531000D01*
X1919000Y1550700D01*
X1881300Y1550700D01*
G37*
G36*
X2372240Y1531879D02*
G01*
X2377760Y1531879D01*
X2383260Y1532600D01*
X2388620Y1534000D01*
X2393740Y1536080D01*
X2398560Y1538800D01*
X2403000Y1542100D01*
X2406980Y1545960D01*
X2410440Y1550280D01*
X2413300Y1555020D01*
X2415540Y1560080D01*
X2417120Y1565380D01*
X2418000Y1570860D01*
X2418180Y1576380D01*
X2417640Y1581900D01*
X2416420Y1587300D01*
X2414500Y1592480D01*
X2411940Y1597400D01*
X2408780Y1601940D01*
X2405060Y1606040D01*
X2400840Y1609620D01*
X2396200Y1612640D01*
X2391220Y1615040D01*
X2385960Y1616780D01*
X2380520Y1617840D01*
X2375000Y1618200D01*
X2369480Y1617840D01*
X2364040Y1616780D01*
X2358780Y1615040D01*
X2353800Y1612640D01*
X2349160Y1609620D01*
X2344940Y1606040D01*
X2341220Y1601940D01*
X2338060Y1597400D01*
X2335500Y1592480D01*
X2333580Y1587300D01*
X2332360Y1581900D01*
X2331820Y1576380D01*
X2332000Y1570860D01*
X2332880Y1565380D01*
X2334460Y1560080D01*
X2336700Y1555020D01*
X2339560Y1550280D01*
X2343020Y1545960D01*
X2347000Y1542100D01*
X2351440Y1538800D01*
X2356260Y1536080D01*
X2361380Y1534000D01*
X2366740Y1532600D01*
G37*
G36*
X381300Y1562700D02*
G01*
X419000Y1562700D01*
X419000Y1582380D01*
X381300Y1582380D01*
G37*
G36*
X431000Y1562700D02*
G01*
X468700Y1562700D01*
X468700Y1582380D01*
X431000Y1582380D01*
G37*
G36*
X931000Y1562700D02*
G01*
X968700Y1562700D01*
X968700Y1582380D01*
X931000Y1582380D01*
G37*
G36*
X1381300Y1562700D02*
G01*
X1419000Y1562700D01*
X1419000Y1582380D01*
X1381300Y1582380D01*
G37*
G36*
X881300Y1562700D02*
G01*
X919000Y1562700D01*
X919000Y1582380D01*
X881300Y1582380D01*
G37*
G36*
X1881300Y1562700D02*
G01*
X1919000Y1562700D01*
X1919000Y1582380D01*
X1881300Y1582380D01*
G37*
G36*
X1431000Y1562700D02*
G01*
X1468700Y1562700D01*
X1468700Y1582380D01*
X1431000Y1582380D01*
G37*
G36*
X1931000Y1562700D02*
G01*
X1968700Y1562700D01*
X1968700Y1582380D01*
X1931000Y1582380D01*
G37*
G36*
X431000Y1594379D02*
G01*
X468700Y1594379D01*
X468700Y1619680D01*
X468459Y1622260D01*
X467760Y1624560D01*
X466640Y1626660D01*
X465120Y1628500D01*
X463260Y1630020D01*
X461160Y1631140D01*
X458880Y1631840D01*
X456300Y1632100D01*
X431000Y1632100D01*
G37*
G36*
X381300Y1594379D02*
G01*
X419000Y1594379D01*
X419000Y1632100D01*
X393700Y1632100D01*
X391120Y1631840D01*
X388840Y1631140D01*
X386740Y1630020D01*
X384880Y1628500D01*
X383360Y1626660D01*
X382239Y1624560D01*
X381540Y1622260D01*
X381300Y1619680D01*
G37*
G36*
X881300Y1594379D02*
G01*
X919000Y1594379D01*
X919000Y1632100D01*
X893700Y1632100D01*
X891120Y1631840D01*
X888840Y1631140D01*
X886740Y1630020D01*
X884880Y1628500D01*
X883360Y1626660D01*
X882240Y1624560D01*
X881540Y1622260D01*
X881300Y1619680D01*
G37*
G36*
X1381300Y1594379D02*
G01*
X1419000Y1594379D01*
X1419000Y1632100D01*
X1393700Y1632100D01*
X1391120Y1631840D01*
X1388839Y1631140D01*
X1386740Y1630020D01*
X1384880Y1628500D01*
X1383360Y1626660D01*
X1382240Y1624560D01*
X1381540Y1622260D01*
X1381300Y1619680D01*
G37*
G36*
X1881300Y1594379D02*
G01*
X1919000Y1594379D01*
X1919000Y1632100D01*
X1893700Y1632100D01*
X1891120Y1631840D01*
X1888839Y1631140D01*
X1886740Y1630020D01*
X1884880Y1628500D01*
X1883360Y1626660D01*
X1882240Y1624560D01*
X1881540Y1622260D01*
X1881300Y1619680D01*
G37*
G36*
X1431000Y1594379D02*
G01*
X1468700Y1594379D01*
X1468700Y1619680D01*
X1468460Y1622260D01*
X1467760Y1624560D01*
X1466639Y1626660D01*
X1465120Y1628500D01*
X1463260Y1630020D01*
X1461160Y1631140D01*
X1458880Y1631840D01*
X1456300Y1632100D01*
X1431000Y1632100D01*
G37*
G36*
X931000Y1594379D02*
G01*
X968700Y1594379D01*
X968700Y1619680D01*
X968460Y1622260D01*
X967760Y1624560D01*
X966640Y1626660D01*
X965120Y1628500D01*
X963259Y1630020D01*
X961160Y1631140D01*
X958880Y1631840D01*
X956300Y1632100D01*
X931000Y1632100D01*
G37*
G36*
X1931000Y1594379D02*
G01*
X1968700Y1594379D01*
X1968700Y1619680D01*
X1968460Y1622260D01*
X1967760Y1624560D01*
X1966639Y1626660D01*
X1965120Y1628500D01*
X1963260Y1630020D01*
X1961160Y1631140D01*
X1958880Y1631840D01*
X1956300Y1632100D01*
X1931000Y1632100D01*
G37*

%LPD*%
G36*
X1209940Y427200D02*
G01*
X1172800Y390060D01*
X1203400Y386000D01*
X1214000Y396599D01*
G37*
G36*
X1317500Y242200D02*
G01*
X1301759Y220500D01*
X1348240Y220500D01*
X1332500Y242200D01*
G37*
D10*
X1175000Y425000D02*
G01*
X1325000Y275000D01*
X1325000Y200000D01*
D11*
G01*
X325000Y761610D03*
G01*
X325000Y793310D03*
G01*
X225000Y761610D03*
G01*
X225000Y793310D03*
G01*
X2125000Y761610D03*
G01*
X2125000Y793310D03*
G01*
X425000Y761610D03*
G01*
X425000Y793310D03*
G01*
X525000Y761610D03*
G01*
X525000Y793310D03*
G01*
X625000Y761610D03*
G01*
X625000Y793310D03*
G01*
X725000Y761610D03*
G01*
X725000Y793310D03*
G01*
X825000Y761610D03*
G01*
X825000Y793310D03*
G01*
X925000Y761610D03*
G01*
X925000Y793310D03*
G01*
X1025000Y761610D03*
G01*
X1025000Y793310D03*
G01*
X1125000Y761610D03*
G01*
X1125000Y793310D03*
G01*
X1225000Y761610D03*
G01*
X1225000Y793310D03*
G01*
X1325000Y761610D03*
G01*
X1325000Y793310D03*
G01*
X1425000Y761610D03*
G01*
X1425000Y793310D03*
G01*
X1525000Y761610D03*
G01*
X1525000Y793310D03*
G01*
X1625000Y761610D03*
G01*
X1625000Y793310D03*
G01*
X1725000Y761610D03*
G01*
X1725000Y793310D03*
G01*
X1825000Y761610D03*
G01*
X1825000Y793310D03*
G01*
X1925000Y761610D03*
G01*
X1925000Y793310D03*
G01*
X2025000Y761610D03*
G01*
X2025000Y793310D03*
G01*
X2025000Y1588389D03*
G01*
X1925000Y1588389D03*
G01*
X1825000Y1588389D03*
G01*
X1725000Y1588389D03*
G01*
X1625000Y1588389D03*
G01*
X1525000Y1588389D03*
G01*
X1425000Y1588389D03*
G01*
X1325000Y1588389D03*
G01*
X1225000Y1588389D03*
G01*
X1125000Y1588389D03*
G01*
X1025000Y1588389D03*
G01*
X925000Y1588389D03*
G01*
X825000Y1588389D03*
G01*
X725000Y1588389D03*
G01*
X625000Y1588389D03*
G01*
X525000Y1588389D03*
G01*
X425000Y1588389D03*
G01*
X2125000Y1588389D03*
G01*
X225000Y1588389D03*
G01*
X325000Y1588389D03*
G01*
X2025000Y1556689D03*
G01*
X1925000Y1556689D03*
G01*
X1825000Y1556689D03*
G01*
X1725000Y1556689D03*
G01*
X1625000Y1556689D03*
G01*
X1525000Y1556689D03*
G01*
X1425000Y1556689D03*
G01*
X1325000Y1556689D03*
G01*
X1225000Y1556689D03*
G01*
X1125000Y1556689D03*
G01*
X1025000Y1556689D03*
G01*
X925000Y1556689D03*
G01*
X825000Y1556689D03*
G01*
X725000Y1556689D03*
G01*
X625000Y1556689D03*
G01*
X525000Y1556689D03*
G01*
X425000Y1556689D03*
G01*
X2125000Y1556689D03*
G01*
X225000Y1556689D03*
G01*
X325000Y1556689D03*
G01*
X2147240Y1175000D03*
G01*
X2178940Y1175000D03*
G01*
X2178940Y1075000D03*
G01*
X2147240Y1075000D03*
G01*
X2147240Y1275000D03*
G01*
X2178940Y1275000D03*
D12*
G01*
X325000Y825000D03*
G01*
X225000Y825000D03*
G01*
X2125000Y825000D03*
G01*
X425000Y825000D03*
G01*
X525000Y825000D03*
G01*
X625000Y825000D03*
G01*
X725000Y825000D03*
G01*
X825000Y825000D03*
G01*
X925000Y825000D03*
G01*
X1025000Y825000D03*
G01*
X1125000Y825000D03*
G01*
X1225000Y825000D03*
G01*
X1325000Y825000D03*
G01*
X1425000Y825000D03*
G01*
X1525000Y825000D03*
G01*
X1625000Y825000D03*
G01*
X1725000Y825000D03*
G01*
X1825000Y825000D03*
G01*
X1925000Y825000D03*
G01*
X2025000Y825000D03*
G01*
X225000Y1525000D03*
G01*
X2025000Y1525000D03*
G01*
X1925000Y1525000D03*
G01*
X1825000Y1525000D03*
G01*
X1725000Y1525000D03*
G01*
X1625000Y1525000D03*
G01*
X1525000Y1525000D03*
G01*
X1425000Y1525000D03*
G01*
X1325000Y1525000D03*
G01*
X1225000Y1525000D03*
G01*
X1125000Y1525000D03*
G01*
X1025000Y1525000D03*
G01*
X925000Y1525000D03*
G01*
X825000Y1525000D03*
G01*
X725000Y1525000D03*
G01*
X625000Y1525000D03*
G01*
X525000Y1525000D03*
G01*
X425000Y1525000D03*
G01*
X2125000Y1525000D03*
G01*
X325000Y1525000D03*
G01*
X2115550Y1175000D03*
G01*
X2115550Y1075000D03*
G01*
X2115550Y1275000D03*
D13*
G01*
X225000Y475000D03*
D12*
G01*
X325000Y475000D03*
G01*
X425000Y475000D03*
G01*
X525000Y475000D03*
G01*
X625000Y475000D03*
G01*
X725000Y475000D03*
G01*
X825000Y475000D03*
G01*
X925000Y475000D03*
G01*
X1025000Y475000D03*
G01*
X2275000Y1375000D03*
G01*
X2225000Y325000D03*
G01*
X2125000Y325000D03*
G01*
X2025000Y325000D03*
G01*
X1925000Y325000D03*
G01*
X1825000Y325000D03*
G01*
X1725000Y325000D03*
G01*
X1625000Y325000D03*
G01*
X1525000Y325000D03*
G01*
X1425000Y325000D03*
G01*
X1425000Y625000D03*
G01*
X1525000Y625000D03*
G01*
X1625000Y625000D03*
G01*
X1725000Y625000D03*
G01*
X1825000Y625000D03*
G01*
X1925000Y625000D03*
G01*
X2025000Y625000D03*
G01*
X2125000Y625000D03*
G01*
X2225000Y625000D03*
G01*
X2375000Y1575000D03*
G01*
X2375000Y1475000D03*
D14*
G01*
X2375000Y1375000D03*
D12*
G01*
X725000Y200000D03*
D14*
G01*
X225000Y200000D03*
D12*
G01*
X325000Y200000D03*
G01*
X425000Y200000D03*
G01*
X525000Y200000D03*
G01*
X625000Y200000D03*
G01*
X825000Y200000D03*
G01*
X925000Y200000D03*
G01*
X1025000Y200000D03*
G01*
X1125000Y200000D03*
G01*
X1525000Y200000D03*
G01*
X1625000Y200000D03*
G01*
X1725000Y200000D03*
G01*
X1825000Y200000D03*
G01*
X1925000Y200000D03*
G01*
X2025000Y200000D03*
G01*
X2125000Y200000D03*
G01*
X2225000Y200000D03*
G01*
X1225000Y200000D03*
G01*
X1325000Y200000D03*
G01*
X1425000Y200000D03*
G01*
X2375000Y775000D03*
G01*
X2375000Y875000D03*
D14*
G01*
X2375000Y975000D03*
D12*
G01*
X2375000Y1275000D03*
D14*
G01*
X2375000Y1175000D03*
D12*
G01*
X2375000Y1075000D03*
D15*
G01*
X1175000Y425000D03*
M02*
