G04 Layer: TopPasteMaskLayer*
G04 EasyEDA v6.5.39, 2024-02-04 18:14:06*
G04 e2768ddda3314ff98ce937aebec43eb4,5509f98a9368439c9cde498926e245b9,10*
G04 Gerber Generator version 0.2*
G04 Scale: 100 percent, Rotated: No, Reflected: No *
G04 Dimensions in inches *
G04 leading zeros omitted , absolute positions ,3 integer and 6 decimal *
%FSLAX36Y36*%
%MOIN*%

%ADD10R,0.0630X0.0630*%

%LPD*%
D10*
G01*
X325000Y761610D03*
G01*
X325000Y793310D03*
G01*
X225000Y761610D03*
G01*
X225000Y793310D03*
G01*
X2125000Y761610D03*
G01*
X2125000Y793310D03*
G01*
X425000Y761610D03*
G01*
X425000Y793310D03*
G01*
X525000Y761610D03*
G01*
X525000Y793310D03*
G01*
X625000Y761610D03*
G01*
X625000Y793310D03*
G01*
X725000Y761610D03*
G01*
X725000Y793310D03*
G01*
X825000Y761610D03*
G01*
X825000Y793310D03*
G01*
X925000Y761610D03*
G01*
X925000Y793310D03*
G01*
X1025000Y761610D03*
G01*
X1025000Y793310D03*
G01*
X1125000Y761610D03*
G01*
X1125000Y793310D03*
G01*
X1225000Y761610D03*
G01*
X1225000Y793310D03*
G01*
X1325000Y761610D03*
G01*
X1325000Y793310D03*
G01*
X1425000Y761610D03*
G01*
X1425000Y793310D03*
G01*
X1525000Y761610D03*
G01*
X1525000Y793310D03*
G01*
X1625000Y761610D03*
G01*
X1625000Y793310D03*
G01*
X1725000Y761610D03*
G01*
X1725000Y793310D03*
G01*
X1825000Y761610D03*
G01*
X1825000Y793310D03*
G01*
X1925000Y761610D03*
G01*
X1925000Y793310D03*
G01*
X2025000Y761610D03*
G01*
X2025000Y793310D03*
G01*
X2025000Y1588389D03*
G01*
X1925000Y1588389D03*
G01*
X1825000Y1588389D03*
G01*
X1725000Y1588389D03*
G01*
X1625000Y1588389D03*
G01*
X1525000Y1588389D03*
G01*
X1425000Y1588389D03*
G01*
X1325000Y1588389D03*
G01*
X1225000Y1588389D03*
G01*
X1125000Y1588389D03*
G01*
X1025000Y1588389D03*
G01*
X925000Y1588389D03*
G01*
X825000Y1588389D03*
G01*
X725000Y1588389D03*
G01*
X625000Y1588389D03*
G01*
X525000Y1588389D03*
G01*
X425000Y1588389D03*
G01*
X2125000Y1588389D03*
G01*
X225000Y1588389D03*
G01*
X325000Y1588389D03*
G01*
X2025000Y1556689D03*
G01*
X1925000Y1556689D03*
G01*
X1825000Y1556689D03*
G01*
X1725000Y1556689D03*
G01*
X1625000Y1556689D03*
G01*
X1525000Y1556689D03*
G01*
X1425000Y1556689D03*
G01*
X1325000Y1556689D03*
G01*
X1225000Y1556689D03*
G01*
X1125000Y1556689D03*
G01*
X1025000Y1556689D03*
G01*
X925000Y1556689D03*
G01*
X825000Y1556689D03*
G01*
X725000Y1556689D03*
G01*
X625000Y1556689D03*
G01*
X525000Y1556689D03*
G01*
X425000Y1556689D03*
G01*
X2125000Y1556689D03*
G01*
X225000Y1556689D03*
G01*
X325000Y1556689D03*
G01*
X2147240Y1175000D03*
G01*
X2178940Y1175000D03*
G01*
X2178940Y1075000D03*
G01*
X2147240Y1075000D03*
G01*
X2147240Y1275000D03*
G01*
X2178940Y1275000D03*
M02*
