G04 Layer: BottomSolderMaskLayer*
G04 EasyEDA v6.5.39, 2024-02-04 18:14:06*
G04 e2768ddda3314ff98ce937aebec43eb4,5509f98a9368439c9cde498926e245b9,10*
G04 Gerber Generator version 0.2*
G04 Scale: 100 percent, Rotated: No, Reflected: No *
G04 Dimensions in inches *
G04 leading zeros omitted , absolute positions ,3 integer and 6 decimal *
%FSLAX36Y36*%
%MOIN*%

%AMMACRO1*1,1,$1,$2,$3*1,1,$1,$4,$5*1,1,$1,0-$2,0-$3*1,1,$1,0-$4,0-$5*20,1,$1,$2,$3,$4,$5,0*20,1,$1,$4,$5,0-$2,0-$3,0*20,1,$1,0-$2,0-$3,0-$4,0-$5,0*20,1,$1,0-$4,0-$5,$2,$3,0*4,1,4,$2,$3,$4,$5,0-$2,0-$3,0-$4,0-$5,$2,$3,0*%
%ADD10MACRO1,0.004X-0.0266X-0.0278X0.0266X-0.0278*%
%ADD11MACRO1,0.004X-0.0266X0.0278X0.0266X0.0278*%
%ADD12MACRO1,0.004X-0.0278X0.0266X-0.0278X-0.0266*%
%ADD13MACRO1,0.004X0.0278X0.0266X0.0278X-0.0266*%
%ADD14R,0.0572X0.0595*%
%ADD15MACRO1,0.0039X-0.0125X-0.025X0.0125X-0.025*%
%ADD16MACRO1,0.004X-0.0278X-0.0266X-0.0278X0.0266*%
%ADD17MACRO1,0.004X0.0278X-0.0266X0.0278X0.0266*%
%ADD18C,0.0660*%
%ADD19MACRO1,0.004X-0.031X0.0315X0.031X0.0315*%
%ADD20R,0.0660X0.0660*%
%ADD21MACRO1,0.004X-0.031X0.031X0.031X0.031*%
%ADD22MACRO1,0.004X0.031X0.031X0.031X-0.031*%

%LPD*%
D10*
G01*
X225000Y369371D03*
D11*
G01*
X225000Y290628D03*
D12*
G01*
X1114371Y325000D03*
D13*
G01*
X1035628Y325000D03*
D14*
G01*
X2280000Y895630D03*
G01*
X2280000Y974369D03*
D15*
G01*
X1175000Y531693D03*
G01*
X1137599Y618306D03*
G01*
X1212402Y618306D03*
D16*
G01*
X1214371Y700000D03*
D17*
G01*
X1135628Y700000D03*
D11*
G01*
X2225000Y410628D03*
D10*
G01*
X2225000Y489371D03*
D11*
G01*
X2125000Y410628D03*
D10*
G01*
X2125000Y489371D03*
D11*
G01*
X2025000Y410628D03*
D10*
G01*
X2025000Y489371D03*
D11*
G01*
X1925000Y410628D03*
D10*
G01*
X1925000Y489371D03*
D11*
G01*
X1825000Y410628D03*
D10*
G01*
X1825000Y489371D03*
D11*
G01*
X1725000Y410628D03*
D10*
G01*
X1725000Y489371D03*
D11*
G01*
X1625000Y410628D03*
D10*
G01*
X1625000Y489371D03*
D11*
G01*
X1525000Y410628D03*
D10*
G01*
X1525000Y489371D03*
D13*
G01*
X1345628Y515000D03*
D12*
G01*
X1424371Y515000D03*
D18*
G01*
X325000Y825000D03*
G01*
X225000Y825000D03*
G01*
X2125000Y825000D03*
G01*
X425000Y825000D03*
G01*
X525000Y825000D03*
G01*
X625000Y825000D03*
G01*
X725000Y825000D03*
G01*
X825000Y825000D03*
G01*
X925000Y825000D03*
G01*
X1025000Y825000D03*
G01*
X1125000Y825000D03*
G01*
X1225000Y825000D03*
G01*
X1325000Y825000D03*
G01*
X1425000Y825000D03*
G01*
X1525000Y825000D03*
G01*
X1625000Y825000D03*
G01*
X1725000Y825000D03*
G01*
X1825000Y825000D03*
G01*
X1925000Y825000D03*
G01*
X2025000Y825000D03*
G01*
X225000Y1525000D03*
G01*
X2025000Y1525000D03*
G01*
X1925000Y1525000D03*
G01*
X1825000Y1525000D03*
G01*
X1725000Y1525000D03*
G01*
X1625000Y1525000D03*
G01*
X1525000Y1525000D03*
G01*
X1425000Y1525000D03*
G01*
X1325000Y1525000D03*
G01*
X1225000Y1525000D03*
G01*
X1125000Y1525000D03*
G01*
X1025000Y1525000D03*
G01*
X925000Y1525000D03*
G01*
X825000Y1525000D03*
G01*
X725000Y1525000D03*
G01*
X625000Y1525000D03*
G01*
X525000Y1525000D03*
G01*
X425000Y1525000D03*
G01*
X2125000Y1525000D03*
G01*
X325000Y1525000D03*
G01*
X2115550Y1175000D03*
G01*
X2115550Y1075000D03*
G01*
X2115550Y1275000D03*
D19*
G01*
X225000Y475000D03*
D18*
G01*
X325000Y475000D03*
G01*
X425000Y475000D03*
G01*
X525000Y475000D03*
G01*
X625000Y475000D03*
G01*
X725000Y475000D03*
G01*
X825000Y475000D03*
G01*
X925000Y475000D03*
G01*
X1025000Y475000D03*
G01*
X2275000Y1375000D03*
G01*
X2225000Y325000D03*
G01*
X2125000Y325000D03*
G01*
X2025000Y325000D03*
G01*
X1925000Y325000D03*
G01*
X1825000Y325000D03*
G01*
X1725000Y325000D03*
G01*
X1625000Y325000D03*
G01*
X1525000Y325000D03*
G01*
X1425000Y325000D03*
G01*
X1425000Y625000D03*
G01*
X1525000Y625000D03*
G01*
X1625000Y625000D03*
G01*
X1725000Y625000D03*
G01*
X1825000Y625000D03*
G01*
X1925000Y625000D03*
G01*
X2025000Y625000D03*
G01*
X2125000Y625000D03*
G01*
X2225000Y625000D03*
G01*
X2375000Y1575000D03*
G01*
X2375000Y1475000D03*
D20*
G01*
X2375000Y1375000D03*
D18*
G01*
X725000Y200000D03*
D21*
G01*
X225000Y200000D03*
D18*
G01*
X325000Y200000D03*
G01*
X425000Y200000D03*
G01*
X525000Y200000D03*
G01*
X625000Y200000D03*
G01*
X825000Y200000D03*
G01*
X925000Y200000D03*
G01*
X1025000Y200000D03*
G01*
X1125000Y200000D03*
G01*
X1525000Y200000D03*
G01*
X1625000Y200000D03*
G01*
X1725000Y200000D03*
G01*
X1825000Y200000D03*
G01*
X1925000Y200000D03*
G01*
X2025000Y200000D03*
G01*
X2125000Y200000D03*
G01*
X2225000Y200000D03*
G01*
X1225000Y200000D03*
G01*
X1325000Y200000D03*
G01*
X1425000Y200000D03*
G01*
X2375000Y775000D03*
G01*
X2375000Y875000D03*
D22*
G01*
X2375000Y975000D03*
D18*
G01*
X2375000Y1275000D03*
D20*
G01*
X2375000Y1175000D03*
D18*
G01*
X2375000Y1075000D03*
M02*
