G04 Layer: BottomLayer*
G04 EasyEDA v6.5.39, 2024-02-04 18:14:06*
G04 e2768ddda3314ff98ce937aebec43eb4,5509f98a9368439c9cde498926e245b9,10*
G04 Gerber Generator version 0.2*
G04 Scale: 100 percent, Rotated: No, Reflected: No *
G04 Dimensions in inches *
G04 leading zeros omitted , absolute positions ,3 integer and 6 decimal *
%FSLAX36Y36*%
%MOIN*%

%AMMACRO1*21,1,$1,$2,0,0,$3*%
%ADD10C,0.0100*%
%ADD11C,0.0150*%
%ADD12C,0.0500*%
%ADD13R,0.0532X0.0555*%
%ADD14MACRO1,0.0531X0.0555X0.0000*%
%ADD15MACRO1,0.0531X0.0555X-90.0000*%
%ADD16MACRO1,0.0532X0.0555X0.0000*%
%ADD17MACRO1,0.025X0.05X0.0000*%
%ADD18MACRO1,0.0531X0.0555X90.0000*%
%ADD19C,0.0620*%
%ADD20R,0.0620X0.0630*%
%ADD21R,0.0620X0.0620*%
%ADD22C,0.0700*%
%ADD23C,0.0157*%

%LPD*%
G36*
X114200Y110200D02*
G01*
X112660Y110500D01*
X111380Y111380D01*
X110500Y112660D01*
X110200Y114200D01*
X110200Y1660600D01*
X110500Y1662140D01*
X111380Y1663420D01*
X112660Y1664300D01*
X114200Y1664600D01*
X2487380Y1664600D01*
X2488900Y1664300D01*
X2490200Y1663420D01*
X2491060Y1662140D01*
X2491380Y1660600D01*
X2491380Y114200D01*
X2491060Y112660D01*
X2490200Y111380D01*
X2488900Y110500D01*
X2487380Y110200D01*
G37*

%LPC*%
G36*
X194200Y156800D02*
G01*
X219000Y156800D01*
X219000Y194000D01*
X181800Y194000D01*
X181800Y169200D01*
X182040Y166620D01*
X182740Y164340D01*
X183860Y162220D01*
X185380Y160380D01*
X187220Y158860D01*
X189340Y157740D01*
X191620Y157040D01*
G37*
G36*
X231000Y156800D02*
G01*
X255799Y156800D01*
X258380Y157040D01*
X260660Y157740D01*
X262780Y158860D01*
X264620Y160380D01*
X266140Y162220D01*
X267260Y164340D01*
X267960Y166620D01*
X268200Y169200D01*
X268200Y194000D01*
X231000Y194000D01*
G37*
G36*
X1426380Y156820D02*
G01*
X1431900Y157360D01*
X1437300Y158580D01*
X1442480Y160500D01*
X1447400Y163060D01*
X1451940Y166220D01*
X1456040Y169940D01*
X1459620Y174160D01*
X1462640Y178800D01*
X1465040Y183780D01*
X1466780Y189040D01*
X1467840Y194480D01*
X1468200Y200000D01*
X1467840Y205520D01*
X1466780Y210960D01*
X1465040Y216220D01*
X1462640Y221200D01*
X1459620Y225840D01*
X1456040Y230060D01*
X1451940Y233780D01*
X1447400Y236940D01*
X1442480Y239500D01*
X1437300Y241420D01*
X1431900Y242640D01*
X1426380Y243180D01*
X1420860Y243000D01*
X1415380Y242120D01*
X1410080Y240539D01*
X1405020Y238299D01*
X1400280Y235440D01*
X1395960Y231980D01*
X1392100Y228000D01*
X1388800Y223560D01*
X1386080Y218740D01*
X1384000Y213619D01*
X1382600Y208260D01*
X1381879Y202760D01*
X1381879Y197240D01*
X1382600Y191740D01*
X1384000Y186380D01*
X1386080Y181260D01*
X1388800Y176439D01*
X1392100Y172000D01*
X1395960Y168020D01*
X1400280Y164560D01*
X1405020Y161700D01*
X1410080Y159460D01*
X1415380Y157880D01*
X1420860Y157000D01*
G37*
G36*
X1326380Y156820D02*
G01*
X1331900Y157360D01*
X1337300Y158580D01*
X1342480Y160500D01*
X1347400Y163060D01*
X1351940Y166220D01*
X1356040Y169940D01*
X1359620Y174160D01*
X1362640Y178800D01*
X1365040Y183780D01*
X1366780Y189040D01*
X1367840Y194480D01*
X1368200Y200000D01*
X1367840Y205520D01*
X1366780Y210960D01*
X1365040Y216220D01*
X1362640Y221200D01*
X1359620Y225840D01*
X1356040Y230060D01*
X1351940Y233780D01*
X1347400Y236940D01*
X1342480Y239500D01*
X1337300Y241420D01*
X1331900Y242640D01*
X1326380Y243180D01*
X1320860Y243000D01*
X1315380Y242120D01*
X1310080Y240539D01*
X1305020Y238299D01*
X1300280Y235440D01*
X1295960Y231980D01*
X1292100Y228000D01*
X1288800Y223560D01*
X1286080Y218740D01*
X1284000Y213619D01*
X1282600Y208260D01*
X1281879Y202760D01*
X1281879Y197240D01*
X1282600Y191740D01*
X1284000Y186380D01*
X1286080Y181260D01*
X1288800Y176439D01*
X1292100Y172000D01*
X1295960Y168020D01*
X1300280Y164560D01*
X1305020Y161700D01*
X1310080Y159460D01*
X1315380Y157880D01*
X1320860Y157000D01*
G37*
G36*
X726380Y156820D02*
G01*
X731900Y157360D01*
X737300Y158580D01*
X742480Y160500D01*
X747400Y163060D01*
X751940Y166220D01*
X756040Y169940D01*
X759620Y174160D01*
X762640Y178800D01*
X765040Y183780D01*
X766780Y189040D01*
X767840Y194480D01*
X768199Y200000D01*
X767840Y205520D01*
X766780Y210960D01*
X765040Y216220D01*
X762640Y221200D01*
X759599Y225859D01*
X758120Y227680D01*
X745480Y245120D01*
X744900Y246240D01*
X744700Y247460D01*
X744700Y427540D01*
X744900Y428760D01*
X745480Y429880D01*
X758280Y447500D01*
X759599Y449120D01*
X762640Y453800D01*
X765040Y458780D01*
X766780Y464040D01*
X767840Y469480D01*
X768199Y475000D01*
X767840Y480520D01*
X766780Y485959D01*
X765040Y491220D01*
X762640Y496200D01*
X759599Y500860D01*
X758120Y502680D01*
X745480Y520120D01*
X744900Y521240D01*
X744700Y522460D01*
X744700Y777540D01*
X744900Y778760D01*
X745480Y779880D01*
X758220Y797440D01*
X760420Y800260D01*
X763300Y805020D01*
X765540Y810080D01*
X767120Y815380D01*
X768000Y820860D01*
X768180Y826380D01*
X767640Y831900D01*
X766420Y837300D01*
X764500Y842480D01*
X761940Y847400D01*
X758780Y851940D01*
X755060Y856040D01*
X750840Y859620D01*
X746200Y862640D01*
X741220Y865040D01*
X735960Y866780D01*
X730520Y867840D01*
X725000Y868199D01*
X719479Y867840D01*
X714040Y866780D01*
X708780Y865040D01*
X703800Y862640D01*
X699160Y859620D01*
X694940Y856040D01*
X691220Y851940D01*
X688060Y847400D01*
X685500Y842480D01*
X683580Y837300D01*
X682360Y831900D01*
X681820Y826380D01*
X682000Y820860D01*
X682880Y815380D01*
X684460Y810080D01*
X686700Y805020D01*
X689580Y800260D01*
X691880Y797320D01*
X704520Y779880D01*
X705100Y778760D01*
X705300Y777540D01*
X705300Y522460D01*
X705100Y521240D01*
X704520Y520120D01*
X692180Y503100D01*
X688800Y498560D01*
X686080Y493740D01*
X684000Y488620D01*
X682600Y483260D01*
X681880Y477760D01*
X681880Y472239D01*
X682600Y466740D01*
X684000Y461380D01*
X686080Y456260D01*
X688800Y451440D01*
X704520Y429880D01*
X705100Y428760D01*
X705300Y427540D01*
X705300Y247460D01*
X705100Y246240D01*
X704520Y245120D01*
X692180Y228100D01*
X688800Y223560D01*
X686080Y218740D01*
X684000Y213619D01*
X682600Y208260D01*
X681880Y202760D01*
X681880Y197240D01*
X682600Y191740D01*
X684000Y186380D01*
X686080Y181260D01*
X688800Y176439D01*
X692099Y172000D01*
X695960Y168020D01*
X700280Y164560D01*
X705020Y161700D01*
X710080Y159460D01*
X715380Y157880D01*
X720860Y157000D01*
G37*
G36*
X626380Y156820D02*
G01*
X631900Y157360D01*
X637300Y158580D01*
X642480Y160500D01*
X647400Y163060D01*
X651940Y166220D01*
X656040Y169940D01*
X659620Y174160D01*
X662640Y178800D01*
X665040Y183780D01*
X666780Y189040D01*
X667840Y194480D01*
X668199Y200000D01*
X667840Y205520D01*
X666780Y210960D01*
X665040Y216220D01*
X662640Y221200D01*
X659599Y225859D01*
X658120Y227680D01*
X645480Y245120D01*
X644900Y246240D01*
X644700Y247460D01*
X644700Y427540D01*
X644900Y428760D01*
X645480Y429880D01*
X658280Y447500D01*
X659599Y449120D01*
X662640Y453800D01*
X665040Y458780D01*
X666780Y464040D01*
X667840Y469480D01*
X668199Y475000D01*
X667840Y480520D01*
X666780Y485959D01*
X665040Y491220D01*
X662640Y496200D01*
X659599Y500860D01*
X658120Y502680D01*
X645480Y520120D01*
X644900Y521240D01*
X644700Y522460D01*
X644700Y777540D01*
X644900Y778760D01*
X645480Y779880D01*
X658220Y797440D01*
X660420Y800260D01*
X663300Y805020D01*
X665540Y810080D01*
X667120Y815380D01*
X668000Y820860D01*
X668180Y826380D01*
X667640Y831900D01*
X666420Y837300D01*
X664500Y842480D01*
X661940Y847400D01*
X658780Y851940D01*
X655060Y856040D01*
X650840Y859620D01*
X646200Y862640D01*
X641220Y865040D01*
X635960Y866780D01*
X630520Y867840D01*
X625000Y868199D01*
X619480Y867840D01*
X614040Y866780D01*
X608780Y865040D01*
X603800Y862640D01*
X599160Y859620D01*
X594940Y856040D01*
X591220Y851940D01*
X588060Y847400D01*
X585500Y842480D01*
X583580Y837300D01*
X582360Y831900D01*
X581820Y826380D01*
X582000Y820860D01*
X582880Y815380D01*
X584460Y810080D01*
X586700Y805020D01*
X589580Y800260D01*
X591880Y797320D01*
X604520Y779880D01*
X605100Y778760D01*
X605300Y777540D01*
X605300Y522460D01*
X605100Y521240D01*
X604520Y520120D01*
X592180Y503100D01*
X588800Y498560D01*
X586080Y493740D01*
X584000Y488620D01*
X582600Y483260D01*
X581880Y477760D01*
X581880Y472239D01*
X582600Y466740D01*
X584000Y461380D01*
X586080Y456260D01*
X588800Y451440D01*
X604520Y429880D01*
X605100Y428760D01*
X605300Y427540D01*
X605300Y247460D01*
X605100Y246240D01*
X604520Y245120D01*
X592180Y228100D01*
X588800Y223560D01*
X586080Y218740D01*
X584000Y213619D01*
X582600Y208260D01*
X581880Y202760D01*
X581880Y197240D01*
X582600Y191740D01*
X584000Y186380D01*
X586080Y181260D01*
X588800Y176439D01*
X592100Y172000D01*
X595960Y168020D01*
X600280Y164560D01*
X605020Y161700D01*
X610080Y159460D01*
X615380Y157880D01*
X620860Y157000D01*
G37*
G36*
X826380Y156820D02*
G01*
X831900Y157360D01*
X837300Y158580D01*
X842480Y160500D01*
X847400Y163060D01*
X851940Y166220D01*
X856040Y169940D01*
X859620Y174160D01*
X862640Y178800D01*
X865040Y183780D01*
X866780Y189040D01*
X867840Y194480D01*
X868199Y200000D01*
X867840Y205520D01*
X866780Y210960D01*
X865040Y216220D01*
X862640Y221200D01*
X859599Y225859D01*
X858120Y227680D01*
X845480Y245120D01*
X844900Y246240D01*
X844700Y247460D01*
X844700Y427540D01*
X844900Y428760D01*
X845480Y429880D01*
X858280Y447500D01*
X859599Y449120D01*
X862640Y453800D01*
X865040Y458780D01*
X866780Y464040D01*
X867840Y469480D01*
X868199Y475000D01*
X867840Y480520D01*
X866780Y485959D01*
X865040Y491220D01*
X862640Y496200D01*
X859599Y500860D01*
X858120Y502680D01*
X845480Y520120D01*
X844900Y521240D01*
X844700Y522460D01*
X844700Y777540D01*
X844900Y778760D01*
X845480Y779880D01*
X858220Y797440D01*
X860420Y800260D01*
X863300Y805020D01*
X865540Y810080D01*
X867120Y815380D01*
X868000Y820860D01*
X868180Y826380D01*
X867640Y831900D01*
X866420Y837300D01*
X864500Y842480D01*
X861940Y847400D01*
X858780Y851940D01*
X855060Y856040D01*
X850840Y859620D01*
X846200Y862640D01*
X841220Y865040D01*
X835960Y866780D01*
X830520Y867840D01*
X825000Y868199D01*
X819479Y867840D01*
X814040Y866780D01*
X808780Y865040D01*
X803800Y862640D01*
X799160Y859620D01*
X794940Y856040D01*
X791220Y851940D01*
X788060Y847400D01*
X785500Y842480D01*
X783580Y837300D01*
X782360Y831900D01*
X781820Y826380D01*
X782000Y820860D01*
X782880Y815380D01*
X784460Y810080D01*
X786700Y805020D01*
X789580Y800260D01*
X791880Y797320D01*
X804520Y779880D01*
X805100Y778760D01*
X805300Y777540D01*
X805300Y522460D01*
X805100Y521240D01*
X804520Y520120D01*
X792180Y503100D01*
X788800Y498560D01*
X786080Y493740D01*
X784000Y488620D01*
X782600Y483260D01*
X781880Y477760D01*
X781880Y472239D01*
X782600Y466740D01*
X784000Y461380D01*
X786080Y456260D01*
X788800Y451440D01*
X804520Y429880D01*
X805100Y428760D01*
X805300Y427540D01*
X805300Y247460D01*
X805100Y246240D01*
X804520Y245120D01*
X792180Y228100D01*
X788800Y223560D01*
X786080Y218740D01*
X784000Y213619D01*
X782600Y208260D01*
X781880Y202760D01*
X781880Y197240D01*
X782600Y191740D01*
X784000Y186380D01*
X786080Y181260D01*
X788800Y176439D01*
X792099Y172000D01*
X795960Y168020D01*
X800280Y164560D01*
X805020Y161700D01*
X810080Y159460D01*
X815380Y157880D01*
X820860Y157000D01*
G37*
G36*
X526380Y156820D02*
G01*
X531900Y157360D01*
X537300Y158580D01*
X542480Y160500D01*
X547400Y163060D01*
X551940Y166220D01*
X556040Y169940D01*
X559620Y174160D01*
X562640Y178800D01*
X565040Y183780D01*
X566780Y189040D01*
X567840Y194480D01*
X568200Y200000D01*
X567840Y205520D01*
X566780Y210960D01*
X565040Y216220D01*
X562640Y221200D01*
X559600Y225859D01*
X558120Y227680D01*
X545480Y245120D01*
X544900Y246240D01*
X544700Y247460D01*
X544700Y427540D01*
X544900Y428760D01*
X545480Y429880D01*
X558280Y447500D01*
X559600Y449120D01*
X562640Y453800D01*
X565040Y458780D01*
X566780Y464040D01*
X567840Y469480D01*
X568200Y475000D01*
X567840Y480520D01*
X566780Y485959D01*
X565040Y491220D01*
X562640Y496200D01*
X559600Y500860D01*
X558120Y502680D01*
X545480Y520120D01*
X544900Y521240D01*
X544700Y522460D01*
X544700Y777540D01*
X544900Y778760D01*
X545480Y779880D01*
X558220Y797440D01*
X560420Y800260D01*
X563300Y805020D01*
X565540Y810080D01*
X567120Y815380D01*
X568000Y820860D01*
X568180Y826380D01*
X567640Y831900D01*
X566420Y837300D01*
X564500Y842480D01*
X561940Y847400D01*
X558780Y851940D01*
X555060Y856040D01*
X550840Y859620D01*
X546200Y862640D01*
X541220Y865040D01*
X535960Y866780D01*
X530520Y867840D01*
X525000Y868199D01*
X519480Y867840D01*
X514040Y866780D01*
X508780Y865040D01*
X503800Y862640D01*
X499159Y859620D01*
X494940Y856040D01*
X491220Y851940D01*
X488060Y847400D01*
X485500Y842480D01*
X483579Y837300D01*
X482360Y831900D01*
X481820Y826380D01*
X482000Y820860D01*
X482879Y815380D01*
X484460Y810080D01*
X486700Y805020D01*
X489580Y800260D01*
X491880Y797320D01*
X504520Y779880D01*
X505100Y778760D01*
X505300Y777540D01*
X505300Y522460D01*
X505100Y521240D01*
X504520Y520120D01*
X492180Y503100D01*
X488800Y498560D01*
X486079Y493740D01*
X484000Y488620D01*
X482600Y483260D01*
X481880Y477760D01*
X481880Y472239D01*
X482600Y466740D01*
X484000Y461380D01*
X486079Y456260D01*
X488800Y451440D01*
X504520Y429880D01*
X505100Y428760D01*
X505300Y427540D01*
X505300Y247460D01*
X505100Y246240D01*
X504520Y245120D01*
X492180Y228100D01*
X488800Y223560D01*
X486079Y218740D01*
X484000Y213619D01*
X482600Y208260D01*
X481880Y202760D01*
X481880Y197240D01*
X482600Y191740D01*
X484000Y186380D01*
X486079Y181260D01*
X488800Y176439D01*
X492100Y172000D01*
X495959Y168020D01*
X500280Y164560D01*
X505020Y161700D01*
X510080Y159460D01*
X515379Y157880D01*
X520860Y157000D01*
G37*
G36*
X926380Y156820D02*
G01*
X931900Y157360D01*
X937300Y158580D01*
X942480Y160500D01*
X947400Y163060D01*
X951940Y166220D01*
X956040Y169940D01*
X959620Y174160D01*
X962640Y178800D01*
X965040Y183780D01*
X966780Y189040D01*
X967840Y194480D01*
X968199Y200000D01*
X967840Y205520D01*
X966780Y210960D01*
X965040Y216220D01*
X962640Y221200D01*
X959599Y225859D01*
X958120Y227680D01*
X945480Y245120D01*
X944900Y246240D01*
X944700Y247460D01*
X944700Y427540D01*
X944900Y428760D01*
X945480Y429880D01*
X958280Y447500D01*
X959599Y449120D01*
X962640Y453800D01*
X965040Y458780D01*
X966780Y464040D01*
X967840Y469480D01*
X968199Y475000D01*
X967840Y480520D01*
X966780Y485959D01*
X965040Y491220D01*
X962640Y496200D01*
X959599Y500860D01*
X958120Y502680D01*
X945480Y520120D01*
X944900Y521240D01*
X944700Y522460D01*
X944700Y590180D01*
X945020Y591720D01*
X945879Y593000D01*
X1038880Y686000D01*
X1040100Y687340D01*
X1041140Y688700D01*
X1042060Y690140D01*
X1042860Y691680D01*
X1043520Y693259D01*
X1044040Y694900D01*
X1044400Y696580D01*
X1044620Y698280D01*
X1044700Y700080D01*
X1044700Y777540D01*
X1044900Y778760D01*
X1045480Y779880D01*
X1058220Y797440D01*
X1060420Y800260D01*
X1063300Y805020D01*
X1065540Y810080D01*
X1067120Y815380D01*
X1068000Y820860D01*
X1068180Y826380D01*
X1067640Y831900D01*
X1066420Y837300D01*
X1064500Y842480D01*
X1061940Y847400D01*
X1058780Y851940D01*
X1055060Y856040D01*
X1050840Y859620D01*
X1046200Y862640D01*
X1041220Y865040D01*
X1035960Y866780D01*
X1030520Y867840D01*
X1025000Y868199D01*
X1019479Y867840D01*
X1014040Y866780D01*
X1008780Y865040D01*
X1003800Y862640D01*
X999160Y859620D01*
X994940Y856040D01*
X991220Y851940D01*
X988060Y847400D01*
X985500Y842480D01*
X983580Y837300D01*
X982360Y831900D01*
X981820Y826380D01*
X982000Y820860D01*
X982880Y815380D01*
X984460Y810080D01*
X986700Y805020D01*
X989580Y800260D01*
X991880Y797320D01*
X1004520Y779880D01*
X1005100Y778760D01*
X1005300Y777540D01*
X1005300Y709820D01*
X1004980Y708280D01*
X1004120Y707000D01*
X911120Y614000D01*
X909900Y612660D01*
X908860Y611300D01*
X907940Y609860D01*
X907140Y608320D01*
X906480Y606740D01*
X905960Y605100D01*
X905600Y603420D01*
X905380Y601720D01*
X905300Y599920D01*
X905300Y522460D01*
X905100Y521240D01*
X904520Y520120D01*
X892180Y503100D01*
X888800Y498560D01*
X886080Y493740D01*
X884000Y488620D01*
X882600Y483260D01*
X881880Y477760D01*
X881880Y472239D01*
X882600Y466740D01*
X884000Y461380D01*
X886080Y456260D01*
X888800Y451440D01*
X904520Y429880D01*
X905100Y428760D01*
X905300Y427540D01*
X905300Y247460D01*
X905100Y246240D01*
X904520Y245120D01*
X892180Y228100D01*
X888800Y223560D01*
X886080Y218740D01*
X884000Y213619D01*
X882600Y208260D01*
X881880Y202760D01*
X881880Y197240D01*
X882600Y191740D01*
X884000Y186380D01*
X886080Y181260D01*
X888800Y176439D01*
X892099Y172000D01*
X895960Y168020D01*
X900280Y164560D01*
X905020Y161700D01*
X910080Y159460D01*
X915380Y157880D01*
X920860Y157000D01*
G37*
G36*
X326380Y156820D02*
G01*
X331900Y157360D01*
X337299Y158580D01*
X342480Y160500D01*
X347400Y163060D01*
X351940Y166220D01*
X356040Y169940D01*
X359620Y174160D01*
X362640Y178800D01*
X365040Y183780D01*
X366780Y189040D01*
X367840Y194480D01*
X368200Y200000D01*
X367840Y205520D01*
X366780Y210960D01*
X365040Y216220D01*
X362640Y221200D01*
X359600Y225859D01*
X358120Y227680D01*
X345480Y245120D01*
X344900Y246240D01*
X344700Y247460D01*
X344700Y427540D01*
X344900Y428760D01*
X345480Y429880D01*
X358280Y447500D01*
X359600Y449120D01*
X362640Y453800D01*
X365040Y458780D01*
X366780Y464040D01*
X367840Y469480D01*
X368200Y475000D01*
X367840Y480520D01*
X366780Y485959D01*
X365040Y491220D01*
X362640Y496200D01*
X359600Y500860D01*
X358120Y502680D01*
X345480Y520120D01*
X344900Y521240D01*
X344700Y522460D01*
X344700Y599920D01*
X344620Y601720D01*
X344400Y603420D01*
X344040Y605100D01*
X343519Y606740D01*
X342860Y608320D01*
X342060Y609860D01*
X341140Y611300D01*
X340100Y612660D01*
X338880Y614000D01*
X245880Y707000D01*
X245020Y708280D01*
X244700Y709820D01*
X244700Y777540D01*
X244899Y778760D01*
X245479Y779880D01*
X258220Y797440D01*
X260420Y800260D01*
X263300Y805020D01*
X265540Y810080D01*
X267120Y815380D01*
X268000Y820860D01*
X268180Y826380D01*
X267640Y831900D01*
X266420Y837300D01*
X264500Y842480D01*
X261940Y847400D01*
X258780Y851940D01*
X255060Y856040D01*
X250840Y859620D01*
X246200Y862640D01*
X241220Y865040D01*
X235960Y866780D01*
X230520Y867840D01*
X225000Y868199D01*
X219480Y867840D01*
X214040Y866780D01*
X208780Y865040D01*
X203800Y862640D01*
X199160Y859620D01*
X194940Y856040D01*
X191220Y851940D01*
X188060Y847400D01*
X185500Y842480D01*
X183580Y837300D01*
X182360Y831900D01*
X181820Y826380D01*
X182000Y820860D01*
X182880Y815380D01*
X184460Y810080D01*
X186700Y805020D01*
X189579Y800260D01*
X191880Y797320D01*
X204520Y779880D01*
X205100Y778760D01*
X205300Y777540D01*
X205300Y700080D01*
X205380Y698280D01*
X205600Y696580D01*
X205960Y694900D01*
X206480Y693259D01*
X207140Y691680D01*
X207940Y690140D01*
X208860Y688700D01*
X209899Y687340D01*
X211119Y686000D01*
X304120Y593000D01*
X304980Y591720D01*
X305300Y590180D01*
X305300Y522460D01*
X305100Y521240D01*
X304520Y520120D01*
X292180Y503100D01*
X288800Y498560D01*
X286080Y493740D01*
X284000Y488620D01*
X282600Y483260D01*
X281880Y477760D01*
X281880Y472239D01*
X282600Y466740D01*
X284000Y461380D01*
X286080Y456260D01*
X288800Y451440D01*
X304520Y429880D01*
X305100Y428760D01*
X305300Y427540D01*
X305300Y247460D01*
X305100Y246240D01*
X304520Y245120D01*
X292180Y228100D01*
X288800Y223560D01*
X286080Y218740D01*
X284000Y213619D01*
X282600Y208260D01*
X281880Y202760D01*
X281880Y197240D01*
X282600Y191740D01*
X284000Y186380D01*
X286080Y181260D01*
X288800Y176439D01*
X292100Y172000D01*
X295960Y168020D01*
X300280Y164560D01*
X305020Y161700D01*
X310080Y159460D01*
X315380Y157880D01*
X320860Y157000D01*
G37*
G36*
X426380Y156820D02*
G01*
X431900Y157360D01*
X437299Y158580D01*
X442480Y160500D01*
X447400Y163060D01*
X451940Y166220D01*
X456040Y169940D01*
X459620Y174160D01*
X462640Y178800D01*
X465040Y183780D01*
X466780Y189040D01*
X467840Y194480D01*
X468200Y200000D01*
X467840Y205520D01*
X466780Y210960D01*
X465040Y216220D01*
X462640Y221200D01*
X459600Y225859D01*
X458120Y227680D01*
X445480Y245120D01*
X444900Y246240D01*
X444700Y247460D01*
X444700Y427540D01*
X444900Y428760D01*
X445480Y429880D01*
X458280Y447500D01*
X459600Y449120D01*
X462640Y453800D01*
X465040Y458780D01*
X466780Y464040D01*
X467840Y469480D01*
X468200Y475000D01*
X467840Y480520D01*
X466780Y485959D01*
X465040Y491220D01*
X462640Y496200D01*
X459600Y500860D01*
X458120Y502680D01*
X445480Y520120D01*
X444900Y521240D01*
X444700Y522460D01*
X444700Y599920D01*
X444620Y601720D01*
X444400Y603420D01*
X444040Y605100D01*
X443519Y606740D01*
X442860Y608320D01*
X442060Y609860D01*
X441140Y611300D01*
X440100Y612660D01*
X438880Y614000D01*
X345880Y707000D01*
X345020Y708280D01*
X344700Y709820D01*
X344700Y777540D01*
X344900Y778760D01*
X345480Y779880D01*
X358220Y797440D01*
X360420Y800260D01*
X363300Y805020D01*
X365540Y810080D01*
X367120Y815380D01*
X368000Y820860D01*
X368180Y826380D01*
X367640Y831900D01*
X366420Y837300D01*
X364500Y842480D01*
X361940Y847400D01*
X358780Y851940D01*
X355060Y856040D01*
X350840Y859620D01*
X346200Y862640D01*
X341220Y865040D01*
X335959Y866780D01*
X330520Y867840D01*
X325000Y868199D01*
X319480Y867840D01*
X314040Y866780D01*
X308780Y865040D01*
X303800Y862640D01*
X299160Y859620D01*
X294940Y856040D01*
X291220Y851940D01*
X288060Y847400D01*
X285500Y842480D01*
X283580Y837300D01*
X282360Y831900D01*
X281820Y826380D01*
X282000Y820860D01*
X282880Y815380D01*
X284460Y810080D01*
X286700Y805020D01*
X289580Y800260D01*
X291880Y797320D01*
X304520Y779880D01*
X305100Y778760D01*
X305300Y777540D01*
X305300Y700080D01*
X305380Y698280D01*
X305600Y696580D01*
X305960Y694900D01*
X306480Y693259D01*
X307140Y691680D01*
X307940Y690140D01*
X308860Y688700D01*
X309900Y687340D01*
X311120Y686000D01*
X404120Y593000D01*
X404980Y591720D01*
X405300Y590180D01*
X405300Y522460D01*
X405100Y521240D01*
X404520Y520120D01*
X392180Y503100D01*
X388800Y498560D01*
X386079Y493740D01*
X384000Y488620D01*
X382600Y483260D01*
X381880Y477760D01*
X381880Y472239D01*
X382600Y466740D01*
X384000Y461380D01*
X386079Y456260D01*
X388800Y451440D01*
X404520Y429880D01*
X405100Y428760D01*
X405300Y427540D01*
X405300Y247460D01*
X405100Y246240D01*
X404520Y245120D01*
X392180Y228100D01*
X388800Y223560D01*
X386079Y218740D01*
X384000Y213619D01*
X382600Y208260D01*
X381880Y202760D01*
X381880Y197240D01*
X382600Y191740D01*
X384000Y186380D01*
X386079Y181260D01*
X388800Y176439D01*
X392100Y172000D01*
X395959Y168020D01*
X400280Y164560D01*
X405020Y161700D01*
X410080Y159460D01*
X415379Y157880D01*
X420860Y157000D01*
G37*
G36*
X1126380Y156820D02*
G01*
X1131900Y157360D01*
X1137300Y158580D01*
X1142480Y160500D01*
X1147400Y163060D01*
X1151940Y166220D01*
X1156040Y169940D01*
X1159620Y174160D01*
X1162640Y178800D01*
X1165040Y183780D01*
X1166780Y189040D01*
X1167840Y194480D01*
X1168200Y200000D01*
X1167840Y205520D01*
X1166780Y210960D01*
X1165040Y216220D01*
X1162600Y221280D01*
X1162200Y223020D01*
X1162200Y282720D01*
X1162500Y284240D01*
X1163360Y285520D01*
X1164620Y286400D01*
X1166120Y286720D01*
X1217300Y287800D01*
X1402140Y287800D01*
X1403080Y287680D01*
X1403980Y287340D01*
X1407520Y285500D01*
X1412700Y283580D01*
X1418100Y282360D01*
X1423620Y281820D01*
X1429139Y282000D01*
X1434620Y282880D01*
X1439920Y284460D01*
X1444980Y286700D01*
X1449720Y289560D01*
X1454040Y293020D01*
X1457900Y297000D01*
X1461200Y301440D01*
X1463920Y306260D01*
X1466000Y311380D01*
X1467400Y316740D01*
X1468120Y322239D01*
X1468120Y327760D01*
X1467400Y333260D01*
X1466000Y338620D01*
X1463920Y343740D01*
X1462720Y345880D01*
X1462340Y346820D01*
X1462200Y347840D01*
X1462200Y413300D01*
X1463899Y472660D01*
X1464220Y474140D01*
X1465080Y475379D01*
X1466339Y476220D01*
X1467800Y476540D01*
X1482140Y476840D01*
X1483680Y476560D01*
X1485020Y475700D01*
X1485900Y474400D01*
X1486220Y472840D01*
X1486220Y461820D01*
X1486480Y459240D01*
X1487160Y456960D01*
X1488280Y454860D01*
X1490200Y452580D01*
X1490900Y451380D01*
X1491160Y450000D01*
X1490900Y448620D01*
X1490200Y447420D01*
X1488280Y445140D01*
X1487160Y443040D01*
X1486480Y440760D01*
X1486220Y438180D01*
X1486220Y383060D01*
X1486480Y380500D01*
X1487160Y378200D01*
X1488300Y376100D01*
X1489800Y374260D01*
X1491660Y372740D01*
X1493760Y371620D01*
X1496040Y370920D01*
X1497800Y370520D01*
X1498899Y369760D01*
X1499700Y368680D01*
X1500160Y367760D01*
X1500560Y366380D01*
X1500440Y364920D01*
X1499820Y363620D01*
X1491720Y352500D01*
X1490400Y350860D01*
X1487360Y346200D01*
X1484960Y341220D01*
X1483220Y335959D01*
X1482160Y330520D01*
X1481800Y325000D01*
X1482160Y319480D01*
X1483220Y314040D01*
X1484960Y308780D01*
X1487360Y303800D01*
X1490400Y299120D01*
X1491879Y297320D01*
X1504520Y279880D01*
X1505100Y278760D01*
X1505300Y277540D01*
X1505300Y247460D01*
X1505100Y246240D01*
X1504520Y245120D01*
X1492180Y228100D01*
X1488800Y223560D01*
X1486080Y218740D01*
X1484000Y213619D01*
X1482600Y208260D01*
X1481879Y202760D01*
X1481879Y197240D01*
X1482600Y191740D01*
X1484000Y186380D01*
X1486080Y181260D01*
X1488800Y176439D01*
X1492100Y172000D01*
X1495960Y168020D01*
X1500280Y164560D01*
X1505020Y161700D01*
X1510080Y159460D01*
X1515380Y157880D01*
X1520860Y157000D01*
X1526380Y156820D01*
X1531900Y157360D01*
X1537300Y158580D01*
X1542480Y160500D01*
X1547400Y163060D01*
X1551940Y166220D01*
X1556040Y169940D01*
X1559620Y174160D01*
X1562640Y178800D01*
X1565040Y183780D01*
X1566780Y189040D01*
X1567840Y194480D01*
X1568200Y200000D01*
X1567840Y205520D01*
X1566780Y210960D01*
X1565040Y216220D01*
X1562640Y221200D01*
X1559600Y225859D01*
X1558120Y227680D01*
X1545480Y245120D01*
X1544900Y246240D01*
X1544700Y247460D01*
X1544700Y277540D01*
X1544900Y278760D01*
X1545480Y279880D01*
X1557820Y296900D01*
X1561200Y301440D01*
X1563920Y306260D01*
X1566000Y311380D01*
X1567400Y316740D01*
X1568120Y322239D01*
X1568120Y327760D01*
X1567400Y333260D01*
X1566000Y338620D01*
X1563920Y343740D01*
X1561200Y348560D01*
X1550180Y363620D01*
X1549560Y364920D01*
X1549440Y366380D01*
X1549840Y367760D01*
X1550300Y368680D01*
X1551100Y369760D01*
X1552200Y370520D01*
X1553959Y370920D01*
X1556240Y371620D01*
X1558340Y372740D01*
X1560200Y374260D01*
X1561699Y376100D01*
X1562840Y378200D01*
X1563520Y380500D01*
X1563779Y383060D01*
X1563779Y438180D01*
X1563520Y440760D01*
X1562840Y443040D01*
X1561720Y445140D01*
X1559800Y447420D01*
X1559100Y448620D01*
X1558839Y450000D01*
X1559100Y451380D01*
X1559800Y452580D01*
X1561720Y454860D01*
X1562840Y456960D01*
X1563520Y459240D01*
X1563779Y461820D01*
X1563779Y473800D01*
X1564079Y475319D01*
X1564960Y476620D01*
X1566260Y477480D01*
X1567780Y477800D01*
X1582220Y477800D01*
X1583740Y477480D01*
X1585040Y476620D01*
X1585920Y475319D01*
X1586220Y473800D01*
X1586220Y461820D01*
X1586480Y459240D01*
X1587160Y456960D01*
X1588280Y454860D01*
X1590200Y452580D01*
X1590900Y451380D01*
X1591160Y450000D01*
X1590900Y448620D01*
X1590200Y447420D01*
X1588280Y445140D01*
X1587160Y443040D01*
X1586480Y440760D01*
X1586220Y438180D01*
X1586220Y383060D01*
X1586480Y380500D01*
X1587160Y378200D01*
X1588300Y376100D01*
X1589800Y374260D01*
X1591660Y372740D01*
X1593760Y371620D01*
X1596040Y370920D01*
X1597800Y370520D01*
X1598899Y369760D01*
X1599700Y368680D01*
X1600160Y367760D01*
X1600560Y366380D01*
X1600440Y364920D01*
X1599820Y363620D01*
X1591720Y352500D01*
X1590400Y350860D01*
X1587360Y346200D01*
X1584960Y341220D01*
X1583220Y335959D01*
X1582160Y330520D01*
X1581800Y325000D01*
X1582160Y319480D01*
X1583220Y314040D01*
X1584960Y308780D01*
X1587360Y303800D01*
X1590400Y299120D01*
X1591879Y297320D01*
X1604520Y279880D01*
X1605100Y278760D01*
X1605300Y277540D01*
X1605300Y247460D01*
X1605100Y246240D01*
X1604520Y245120D01*
X1592180Y228100D01*
X1588800Y223560D01*
X1586080Y218740D01*
X1584000Y213619D01*
X1582600Y208260D01*
X1581879Y202760D01*
X1581879Y197240D01*
X1582600Y191740D01*
X1584000Y186380D01*
X1586080Y181260D01*
X1588800Y176439D01*
X1592100Y172000D01*
X1595960Y168020D01*
X1600280Y164560D01*
X1605020Y161700D01*
X1610080Y159460D01*
X1615380Y157880D01*
X1620860Y157000D01*
X1626380Y156820D01*
X1631900Y157360D01*
X1637300Y158580D01*
X1642480Y160500D01*
X1647400Y163060D01*
X1651940Y166220D01*
X1656040Y169940D01*
X1659620Y174160D01*
X1662640Y178800D01*
X1665040Y183780D01*
X1666780Y189040D01*
X1667840Y194480D01*
X1668200Y200000D01*
X1667840Y205520D01*
X1666780Y210960D01*
X1665040Y216220D01*
X1662640Y221200D01*
X1659600Y225859D01*
X1658120Y227680D01*
X1645480Y245120D01*
X1644900Y246240D01*
X1644700Y247460D01*
X1644700Y277540D01*
X1644900Y278760D01*
X1645480Y279880D01*
X1657820Y296900D01*
X1661200Y301440D01*
X1663920Y306260D01*
X1666000Y311380D01*
X1667400Y316740D01*
X1668120Y322239D01*
X1668120Y327760D01*
X1667400Y333260D01*
X1666000Y338620D01*
X1663920Y343740D01*
X1661200Y348560D01*
X1650180Y363620D01*
X1649560Y364920D01*
X1649440Y366380D01*
X1649840Y367760D01*
X1650300Y368680D01*
X1651100Y369760D01*
X1652200Y370520D01*
X1653959Y370920D01*
X1656240Y371620D01*
X1658340Y372740D01*
X1660200Y374260D01*
X1661699Y376100D01*
X1662840Y378200D01*
X1663520Y380500D01*
X1663779Y383060D01*
X1663779Y438180D01*
X1663520Y440760D01*
X1662840Y443040D01*
X1661720Y445140D01*
X1659800Y447420D01*
X1659100Y448620D01*
X1658839Y450000D01*
X1659100Y451380D01*
X1659800Y452580D01*
X1661720Y454860D01*
X1662840Y456960D01*
X1663520Y459240D01*
X1663779Y461820D01*
X1663779Y473800D01*
X1664079Y475319D01*
X1664960Y476620D01*
X1666260Y477480D01*
X1667780Y477800D01*
X1682220Y477800D01*
X1683740Y477480D01*
X1685040Y476620D01*
X1685920Y475319D01*
X1686220Y473800D01*
X1686220Y461820D01*
X1686480Y459240D01*
X1687160Y456960D01*
X1688280Y454860D01*
X1690200Y452580D01*
X1690900Y451380D01*
X1691160Y450000D01*
X1690900Y448620D01*
X1690200Y447420D01*
X1688280Y445140D01*
X1687160Y443040D01*
X1686480Y440760D01*
X1686220Y438180D01*
X1686220Y383060D01*
X1686480Y380500D01*
X1687160Y378200D01*
X1688300Y376100D01*
X1689800Y374260D01*
X1691660Y372740D01*
X1693760Y371620D01*
X1696040Y370920D01*
X1697800Y370520D01*
X1698899Y369760D01*
X1699700Y368680D01*
X1700160Y367760D01*
X1700560Y366380D01*
X1700440Y364920D01*
X1699820Y363620D01*
X1691720Y352500D01*
X1690400Y350860D01*
X1687360Y346200D01*
X1684960Y341220D01*
X1683220Y335959D01*
X1682160Y330520D01*
X1681800Y325000D01*
X1682160Y319480D01*
X1683220Y314040D01*
X1684960Y308780D01*
X1687360Y303800D01*
X1690400Y299120D01*
X1691879Y297320D01*
X1704520Y279880D01*
X1705100Y278760D01*
X1705300Y277540D01*
X1705300Y247460D01*
X1705100Y246240D01*
X1704520Y245120D01*
X1692180Y228100D01*
X1688800Y223560D01*
X1686080Y218740D01*
X1684000Y213619D01*
X1682600Y208260D01*
X1681879Y202760D01*
X1681879Y197240D01*
X1682600Y191740D01*
X1684000Y186380D01*
X1686080Y181260D01*
X1688800Y176439D01*
X1692100Y172000D01*
X1695960Y168020D01*
X1700280Y164560D01*
X1705020Y161700D01*
X1710080Y159460D01*
X1715380Y157880D01*
X1720860Y157000D01*
X1726380Y156820D01*
X1731900Y157360D01*
X1737300Y158580D01*
X1742480Y160500D01*
X1747400Y163060D01*
X1751940Y166220D01*
X1756040Y169940D01*
X1759620Y174160D01*
X1762640Y178800D01*
X1765040Y183780D01*
X1766780Y189040D01*
X1767840Y194480D01*
X1768200Y200000D01*
X1767840Y205520D01*
X1766780Y210960D01*
X1765040Y216220D01*
X1762640Y221200D01*
X1759600Y225859D01*
X1758120Y227680D01*
X1745480Y245120D01*
X1744900Y246240D01*
X1744700Y247460D01*
X1744700Y277540D01*
X1744900Y278760D01*
X1745480Y279880D01*
X1757820Y296900D01*
X1761200Y301440D01*
X1763920Y306260D01*
X1766000Y311380D01*
X1767400Y316740D01*
X1768120Y322239D01*
X1768120Y327760D01*
X1767400Y333260D01*
X1766000Y338620D01*
X1763920Y343740D01*
X1761200Y348560D01*
X1750180Y363620D01*
X1749560Y364920D01*
X1749440Y366380D01*
X1749840Y367760D01*
X1750300Y368680D01*
X1751100Y369760D01*
X1752200Y370520D01*
X1753959Y370920D01*
X1756240Y371620D01*
X1758340Y372740D01*
X1760200Y374260D01*
X1761699Y376100D01*
X1762840Y378200D01*
X1763520Y380500D01*
X1763779Y383060D01*
X1763779Y438180D01*
X1763520Y440760D01*
X1762840Y443040D01*
X1761720Y445140D01*
X1759800Y447420D01*
X1759100Y448620D01*
X1758839Y450000D01*
X1759100Y451380D01*
X1759800Y452580D01*
X1761720Y454860D01*
X1762840Y456960D01*
X1763520Y459240D01*
X1763779Y461820D01*
X1763779Y473800D01*
X1764079Y475319D01*
X1764960Y476620D01*
X1766260Y477480D01*
X1767780Y477800D01*
X1782220Y477800D01*
X1783740Y477480D01*
X1785040Y476620D01*
X1785920Y475319D01*
X1786220Y473800D01*
X1786220Y461820D01*
X1786480Y459240D01*
X1787160Y456960D01*
X1788280Y454860D01*
X1790200Y452580D01*
X1790900Y451380D01*
X1791160Y450000D01*
X1790900Y448620D01*
X1790200Y447420D01*
X1788280Y445140D01*
X1787160Y443040D01*
X1786480Y440760D01*
X1786220Y438180D01*
X1786220Y383060D01*
X1786480Y380500D01*
X1787160Y378200D01*
X1788300Y376100D01*
X1789800Y374260D01*
X1791660Y372740D01*
X1793760Y371620D01*
X1796040Y370920D01*
X1797800Y370520D01*
X1798899Y369760D01*
X1799700Y368680D01*
X1800160Y367760D01*
X1800560Y366380D01*
X1800440Y364920D01*
X1799820Y363620D01*
X1791720Y352500D01*
X1790400Y350860D01*
X1787360Y346200D01*
X1784960Y341220D01*
X1783220Y335959D01*
X1782160Y330520D01*
X1781800Y325000D01*
X1782160Y319480D01*
X1783220Y314040D01*
X1784960Y308780D01*
X1787360Y303800D01*
X1790400Y299120D01*
X1791879Y297320D01*
X1804520Y279880D01*
X1805100Y278760D01*
X1805300Y277540D01*
X1805300Y247460D01*
X1805100Y246240D01*
X1804520Y245120D01*
X1792180Y228100D01*
X1788800Y223560D01*
X1786080Y218740D01*
X1784000Y213619D01*
X1782600Y208260D01*
X1781879Y202760D01*
X1781879Y197240D01*
X1782600Y191740D01*
X1784000Y186380D01*
X1786080Y181260D01*
X1788800Y176439D01*
X1792100Y172000D01*
X1795960Y168020D01*
X1800280Y164560D01*
X1805020Y161700D01*
X1810080Y159460D01*
X1815380Y157880D01*
X1820860Y157000D01*
X1826380Y156820D01*
X1831900Y157360D01*
X1837300Y158580D01*
X1842480Y160500D01*
X1847400Y163060D01*
X1851940Y166220D01*
X1856040Y169940D01*
X1859620Y174160D01*
X1862640Y178800D01*
X1865040Y183780D01*
X1866780Y189040D01*
X1867840Y194480D01*
X1868200Y200000D01*
X1867840Y205520D01*
X1866780Y210960D01*
X1865040Y216220D01*
X1862640Y221200D01*
X1859600Y225859D01*
X1858120Y227680D01*
X1845480Y245120D01*
X1844900Y246240D01*
X1844700Y247460D01*
X1844700Y277540D01*
X1844900Y278760D01*
X1845480Y279880D01*
X1857820Y296900D01*
X1861200Y301440D01*
X1863920Y306260D01*
X1866000Y311380D01*
X1867400Y316740D01*
X1868120Y322239D01*
X1868120Y327760D01*
X1867400Y333260D01*
X1866000Y338620D01*
X1863920Y343740D01*
X1861200Y348560D01*
X1850180Y363620D01*
X1849560Y364920D01*
X1849440Y366380D01*
X1849840Y367760D01*
X1850300Y368680D01*
X1851100Y369760D01*
X1852200Y370520D01*
X1853959Y370920D01*
X1856240Y371620D01*
X1858340Y372740D01*
X1860200Y374260D01*
X1861699Y376100D01*
X1862840Y378200D01*
X1863520Y380500D01*
X1863779Y383060D01*
X1863779Y438180D01*
X1863520Y440760D01*
X1862840Y443040D01*
X1861720Y445140D01*
X1859800Y447420D01*
X1859100Y448620D01*
X1858839Y450000D01*
X1859100Y451380D01*
X1859800Y452580D01*
X1861720Y454860D01*
X1862840Y456960D01*
X1863520Y459240D01*
X1863779Y461820D01*
X1863779Y473800D01*
X1864079Y475319D01*
X1864960Y476620D01*
X1866260Y477480D01*
X1867780Y477800D01*
X1882220Y477800D01*
X1883740Y477480D01*
X1885040Y476620D01*
X1885920Y475319D01*
X1886220Y473800D01*
X1886220Y461820D01*
X1886480Y459240D01*
X1887160Y456960D01*
X1888280Y454860D01*
X1890200Y452580D01*
X1890900Y451380D01*
X1891160Y450000D01*
X1890900Y448620D01*
X1890200Y447420D01*
X1888280Y445140D01*
X1887160Y443040D01*
X1886480Y440760D01*
X1886220Y438180D01*
X1886220Y383060D01*
X1886480Y380500D01*
X1887160Y378200D01*
X1888300Y376100D01*
X1889800Y374260D01*
X1891660Y372740D01*
X1893760Y371620D01*
X1896040Y370920D01*
X1897800Y370520D01*
X1898899Y369760D01*
X1899700Y368680D01*
X1900160Y367760D01*
X1900560Y366380D01*
X1900440Y364920D01*
X1899820Y363620D01*
X1891720Y352500D01*
X1890400Y350860D01*
X1887360Y346200D01*
X1884960Y341220D01*
X1883220Y335959D01*
X1882160Y330520D01*
X1881800Y325000D01*
X1882160Y319480D01*
X1883220Y314040D01*
X1884960Y308780D01*
X1887360Y303800D01*
X1890400Y299120D01*
X1891879Y297320D01*
X1904520Y279880D01*
X1905100Y278760D01*
X1905300Y277540D01*
X1905300Y247460D01*
X1905100Y246240D01*
X1904520Y245120D01*
X1892180Y228100D01*
X1888800Y223560D01*
X1886080Y218740D01*
X1884000Y213619D01*
X1882600Y208260D01*
X1881879Y202760D01*
X1881879Y197240D01*
X1882600Y191740D01*
X1884000Y186380D01*
X1886080Y181260D01*
X1888800Y176439D01*
X1892100Y172000D01*
X1895960Y168020D01*
X1900280Y164560D01*
X1905020Y161700D01*
X1910080Y159460D01*
X1915380Y157880D01*
X1920860Y157000D01*
X1926380Y156820D01*
X1931900Y157360D01*
X1937300Y158580D01*
X1942480Y160500D01*
X1947400Y163060D01*
X1951940Y166220D01*
X1956040Y169940D01*
X1959620Y174160D01*
X1962640Y178800D01*
X1965040Y183780D01*
X1966780Y189040D01*
X1967840Y194480D01*
X1968200Y200000D01*
X1967840Y205520D01*
X1966780Y210960D01*
X1965040Y216220D01*
X1962640Y221200D01*
X1959600Y225859D01*
X1958120Y227680D01*
X1945480Y245120D01*
X1944900Y246240D01*
X1944700Y247460D01*
X1944700Y277540D01*
X1944900Y278760D01*
X1945480Y279880D01*
X1957820Y296900D01*
X1961200Y301440D01*
X1963920Y306260D01*
X1966000Y311380D01*
X1967400Y316740D01*
X1968120Y322239D01*
X1968120Y327760D01*
X1967400Y333260D01*
X1966000Y338620D01*
X1963920Y343740D01*
X1961200Y348560D01*
X1950180Y363620D01*
X1949560Y364920D01*
X1949440Y366380D01*
X1949840Y367760D01*
X1950300Y368680D01*
X1951100Y369760D01*
X1952200Y370520D01*
X1953959Y370920D01*
X1956240Y371620D01*
X1958340Y372740D01*
X1960200Y374260D01*
X1961699Y376100D01*
X1962840Y378200D01*
X1963520Y380500D01*
X1963779Y383060D01*
X1963779Y438180D01*
X1963520Y440760D01*
X1962840Y443040D01*
X1961720Y445140D01*
X1959800Y447420D01*
X1959100Y448620D01*
X1958839Y450000D01*
X1959100Y451380D01*
X1959800Y452580D01*
X1961720Y454860D01*
X1962840Y456960D01*
X1963520Y459240D01*
X1963779Y461820D01*
X1963779Y473800D01*
X1964079Y475319D01*
X1964960Y476620D01*
X1966260Y477480D01*
X1967780Y477800D01*
X1982220Y477800D01*
X1983740Y477480D01*
X1985040Y476620D01*
X1985920Y475319D01*
X1986220Y473800D01*
X1986220Y461820D01*
X1986480Y459240D01*
X1987160Y456960D01*
X1988280Y454860D01*
X1990200Y452580D01*
X1990900Y451380D01*
X1991160Y450000D01*
X1990900Y448620D01*
X1990200Y447420D01*
X1988280Y445140D01*
X1987160Y443040D01*
X1986480Y440760D01*
X1986220Y438180D01*
X1986220Y383060D01*
X1986480Y380500D01*
X1987160Y378200D01*
X1988300Y376100D01*
X1989800Y374260D01*
X1991660Y372740D01*
X1993760Y371620D01*
X1996040Y370920D01*
X1997800Y370520D01*
X1998899Y369760D01*
X1999700Y368680D01*
X2000160Y367760D01*
X2000560Y366380D01*
X2000440Y364920D01*
X1999820Y363620D01*
X1991720Y352500D01*
X1990400Y350860D01*
X1987360Y346200D01*
X1984960Y341220D01*
X1983220Y335959D01*
X1982160Y330520D01*
X1981800Y325000D01*
X1982160Y319480D01*
X1983220Y314040D01*
X1984960Y308780D01*
X1987360Y303800D01*
X1990400Y299120D01*
X1991879Y297320D01*
X2004520Y279880D01*
X2005100Y278760D01*
X2005300Y277540D01*
X2005300Y247460D01*
X2005100Y246240D01*
X2004520Y245120D01*
X1992180Y228100D01*
X1988800Y223560D01*
X1986080Y218740D01*
X1984000Y213619D01*
X1982600Y208260D01*
X1981879Y202760D01*
X1981879Y197240D01*
X1982600Y191740D01*
X1984000Y186380D01*
X1986080Y181260D01*
X1988800Y176439D01*
X1992100Y172000D01*
X1995960Y168020D01*
X2000280Y164560D01*
X2005020Y161700D01*
X2010080Y159460D01*
X2015380Y157880D01*
X2020860Y157000D01*
X2026380Y156820D01*
X2031900Y157360D01*
X2037300Y158580D01*
X2042480Y160500D01*
X2047400Y163060D01*
X2051940Y166220D01*
X2056040Y169940D01*
X2059620Y174160D01*
X2062640Y178800D01*
X2065040Y183780D01*
X2066780Y189040D01*
X2067840Y194480D01*
X2068200Y200000D01*
X2067840Y205520D01*
X2066780Y210960D01*
X2065040Y216220D01*
X2062640Y221200D01*
X2059600Y225859D01*
X2058120Y227680D01*
X2045480Y245120D01*
X2044900Y246240D01*
X2044700Y247460D01*
X2044700Y277540D01*
X2044900Y278760D01*
X2045480Y279880D01*
X2057820Y296900D01*
X2061200Y301440D01*
X2063920Y306260D01*
X2066000Y311380D01*
X2067400Y316740D01*
X2068120Y322239D01*
X2068120Y327760D01*
X2067400Y333260D01*
X2066000Y338620D01*
X2063920Y343740D01*
X2061200Y348560D01*
X2050180Y363620D01*
X2049560Y364920D01*
X2049440Y366380D01*
X2049840Y367760D01*
X2050300Y368680D01*
X2051100Y369760D01*
X2052200Y370520D01*
X2053959Y370920D01*
X2056240Y371620D01*
X2058340Y372740D01*
X2060200Y374260D01*
X2061699Y376100D01*
X2062840Y378200D01*
X2063520Y380500D01*
X2063779Y383060D01*
X2063779Y438180D01*
X2063520Y440760D01*
X2062840Y443040D01*
X2061720Y445140D01*
X2059800Y447420D01*
X2059100Y448620D01*
X2058839Y450000D01*
X2059100Y451380D01*
X2059800Y452580D01*
X2061720Y454860D01*
X2062840Y456960D01*
X2063520Y459240D01*
X2063779Y461820D01*
X2063779Y473800D01*
X2064079Y475319D01*
X2064960Y476620D01*
X2066260Y477480D01*
X2067780Y477800D01*
X2082220Y477800D01*
X2083740Y477480D01*
X2085040Y476620D01*
X2085920Y475319D01*
X2086220Y473800D01*
X2086220Y461820D01*
X2086480Y459240D01*
X2087160Y456960D01*
X2088280Y454860D01*
X2090200Y452580D01*
X2090900Y451380D01*
X2091160Y450000D01*
X2090900Y448620D01*
X2090200Y447420D01*
X2088280Y445140D01*
X2087160Y443040D01*
X2086480Y440760D01*
X2086220Y438180D01*
X2086220Y383060D01*
X2086480Y380500D01*
X2087160Y378200D01*
X2088300Y376100D01*
X2089800Y374260D01*
X2091660Y372740D01*
X2093760Y371620D01*
X2096040Y370920D01*
X2097800Y370520D01*
X2098900Y369760D01*
X2099700Y368680D01*
X2100160Y367760D01*
X2100560Y366380D01*
X2100440Y364920D01*
X2099820Y363620D01*
X2091720Y352500D01*
X2090400Y350860D01*
X2087360Y346200D01*
X2084960Y341220D01*
X2083220Y335959D01*
X2082160Y330520D01*
X2081800Y325000D01*
X2082160Y319480D01*
X2083220Y314040D01*
X2084960Y308780D01*
X2087360Y303800D01*
X2090400Y299120D01*
X2091879Y297320D01*
X2104520Y279880D01*
X2105100Y278760D01*
X2105300Y277540D01*
X2105300Y247460D01*
X2105100Y246240D01*
X2104520Y245120D01*
X2092180Y228100D01*
X2088800Y223560D01*
X2086080Y218740D01*
X2084000Y213619D01*
X2082600Y208260D01*
X2081879Y202760D01*
X2081879Y197240D01*
X2082600Y191740D01*
X2084000Y186380D01*
X2086080Y181260D01*
X2088800Y176439D01*
X2092100Y172000D01*
X2095960Y168020D01*
X2100280Y164560D01*
X2105020Y161700D01*
X2110080Y159460D01*
X2115380Y157880D01*
X2120860Y157000D01*
X2126380Y156820D01*
X2131900Y157360D01*
X2137300Y158580D01*
X2142480Y160500D01*
X2147400Y163060D01*
X2151940Y166220D01*
X2156040Y169940D01*
X2159620Y174160D01*
X2162640Y178800D01*
X2165040Y183780D01*
X2166780Y189040D01*
X2167840Y194480D01*
X2168200Y200000D01*
X2167840Y205520D01*
X2166780Y210960D01*
X2165040Y216220D01*
X2162640Y221200D01*
X2159600Y225859D01*
X2158120Y227680D01*
X2145480Y245120D01*
X2144900Y246240D01*
X2144700Y247460D01*
X2144700Y277540D01*
X2144900Y278760D01*
X2145480Y279880D01*
X2157820Y296900D01*
X2161200Y301440D01*
X2163920Y306260D01*
X2166000Y311380D01*
X2167400Y316740D01*
X2168120Y322239D01*
X2168120Y327760D01*
X2167400Y333260D01*
X2166000Y338620D01*
X2163920Y343740D01*
X2161200Y348560D01*
X2150180Y363620D01*
X2149560Y364920D01*
X2149440Y366380D01*
X2149840Y367760D01*
X2150300Y368680D01*
X2151100Y369760D01*
X2152200Y370520D01*
X2153960Y370920D01*
X2156240Y371620D01*
X2158340Y372740D01*
X2160200Y374260D01*
X2161700Y376100D01*
X2162840Y378200D01*
X2163520Y380500D01*
X2163780Y383060D01*
X2163780Y438180D01*
X2163520Y440760D01*
X2162840Y443040D01*
X2161720Y445140D01*
X2159800Y447420D01*
X2159100Y448620D01*
X2158840Y450000D01*
X2159100Y451380D01*
X2159800Y452580D01*
X2161720Y454860D01*
X2162840Y456960D01*
X2163520Y459240D01*
X2163780Y461820D01*
X2163780Y473800D01*
X2164080Y475319D01*
X2164960Y476620D01*
X2166260Y477480D01*
X2167780Y477800D01*
X2182220Y477800D01*
X2183740Y477480D01*
X2185040Y476620D01*
X2185920Y475319D01*
X2186220Y473800D01*
X2186220Y461820D01*
X2186480Y459240D01*
X2187160Y456960D01*
X2188280Y454860D01*
X2190200Y452580D01*
X2190900Y451380D01*
X2191160Y450000D01*
X2190900Y448620D01*
X2190200Y447420D01*
X2188280Y445140D01*
X2187160Y443040D01*
X2186480Y440760D01*
X2186220Y438180D01*
X2186220Y383060D01*
X2186480Y380500D01*
X2187160Y378200D01*
X2188300Y376100D01*
X2189800Y374260D01*
X2191660Y372740D01*
X2193760Y371620D01*
X2196040Y370920D01*
X2197800Y370520D01*
X2198900Y369760D01*
X2199700Y368680D01*
X2200160Y367760D01*
X2200560Y366380D01*
X2200440Y364920D01*
X2199820Y363620D01*
X2191720Y352500D01*
X2190400Y350860D01*
X2187360Y346200D01*
X2184960Y341220D01*
X2183220Y335959D01*
X2182160Y330520D01*
X2181800Y325000D01*
X2182160Y319480D01*
X2183220Y314040D01*
X2184960Y308780D01*
X2187360Y303800D01*
X2190400Y299120D01*
X2191880Y297320D01*
X2204520Y279880D01*
X2205100Y278760D01*
X2205300Y277540D01*
X2205300Y247460D01*
X2205100Y246240D01*
X2204520Y245120D01*
X2192180Y228100D01*
X2188800Y223560D01*
X2186080Y218740D01*
X2184000Y213619D01*
X2182600Y208260D01*
X2181880Y202760D01*
X2181880Y197240D01*
X2182600Y191740D01*
X2184000Y186380D01*
X2186080Y181260D01*
X2188800Y176439D01*
X2192100Y172000D01*
X2195960Y168020D01*
X2200280Y164560D01*
X2205020Y161700D01*
X2210080Y159460D01*
X2215380Y157880D01*
X2220860Y157000D01*
X2226380Y156820D01*
X2231900Y157360D01*
X2237300Y158580D01*
X2242480Y160500D01*
X2247400Y163060D01*
X2251940Y166220D01*
X2256040Y169940D01*
X2259620Y174160D01*
X2262640Y178800D01*
X2265040Y183780D01*
X2266780Y189040D01*
X2267840Y194480D01*
X2268200Y200000D01*
X2267840Y205520D01*
X2266780Y210960D01*
X2265040Y216220D01*
X2262640Y221200D01*
X2259600Y225859D01*
X2258120Y227680D01*
X2245480Y245120D01*
X2244900Y246240D01*
X2244700Y247460D01*
X2244700Y277540D01*
X2244900Y278760D01*
X2245480Y279880D01*
X2257820Y296900D01*
X2261200Y301440D01*
X2263920Y306260D01*
X2266000Y311380D01*
X2267400Y316740D01*
X2268120Y322239D01*
X2268120Y327760D01*
X2267400Y333260D01*
X2266000Y338620D01*
X2263920Y343740D01*
X2261200Y348560D01*
X2250180Y363620D01*
X2249560Y364920D01*
X2249440Y366380D01*
X2249840Y367760D01*
X2250300Y368680D01*
X2251100Y369760D01*
X2252200Y370520D01*
X2253960Y370920D01*
X2256240Y371620D01*
X2258340Y372740D01*
X2260200Y374260D01*
X2261700Y376100D01*
X2262840Y378200D01*
X2263520Y380500D01*
X2263780Y383060D01*
X2263780Y438180D01*
X2263520Y440760D01*
X2262840Y443040D01*
X2261720Y445140D01*
X2259800Y447420D01*
X2259100Y448620D01*
X2258840Y450000D01*
X2259100Y451380D01*
X2259800Y452580D01*
X2261720Y454860D01*
X2262840Y456960D01*
X2263520Y459240D01*
X2263780Y461820D01*
X2263780Y473800D01*
X2264080Y475319D01*
X2264960Y476620D01*
X2266260Y477480D01*
X2267780Y477800D01*
X2289900Y477800D01*
X2293880Y478000D01*
X2295000Y478140D01*
X2298880Y478860D01*
X2299980Y479159D01*
X2303720Y480420D01*
X2304760Y480840D01*
X2308300Y482600D01*
X2309280Y483180D01*
X2312540Y485400D01*
X2313420Y486100D01*
X2316380Y488760D01*
X2401240Y573620D01*
X2403900Y576580D01*
X2404600Y577460D01*
X2406820Y580720D01*
X2407400Y581700D01*
X2409160Y585240D01*
X2409580Y586280D01*
X2410840Y590020D01*
X2411140Y591120D01*
X2411860Y595000D01*
X2412000Y596120D01*
X2412200Y600100D01*
X2412200Y752140D01*
X2412320Y753080D01*
X2412660Y753980D01*
X2414500Y757520D01*
X2416420Y762700D01*
X2417640Y768100D01*
X2418180Y773620D01*
X2418000Y779140D01*
X2417120Y784620D01*
X2415540Y789920D01*
X2413300Y794980D01*
X2410440Y799720D01*
X2406980Y804040D01*
X2403000Y807900D01*
X2398560Y811200D01*
X2393740Y813920D01*
X2388620Y816000D01*
X2383260Y817400D01*
X2377760Y818120D01*
X2372240Y818120D01*
X2366740Y817400D01*
X2361380Y816000D01*
X2356260Y813920D01*
X2351440Y811200D01*
X2347000Y807900D01*
X2343020Y804040D01*
X2339560Y799720D01*
X2336700Y794980D01*
X2334460Y789920D01*
X2332880Y784620D01*
X2332000Y779140D01*
X2331820Y773620D01*
X2332360Y768100D01*
X2333580Y762700D01*
X2335500Y757520D01*
X2337340Y753980D01*
X2337680Y753080D01*
X2337800Y752140D01*
X2337800Y617060D01*
X2337480Y615540D01*
X2336620Y614240D01*
X2275760Y553380D01*
X2274460Y552520D01*
X2272940Y552200D01*
X1527300Y552200D01*
X1452400Y553780D01*
X1396819Y553780D01*
X1394240Y553520D01*
X1391960Y552840D01*
X1389860Y551720D01*
X1387580Y549800D01*
X1386380Y549100D01*
X1385000Y548840D01*
X1383620Y549100D01*
X1382420Y549800D01*
X1380140Y551720D01*
X1378040Y552840D01*
X1375760Y553520D01*
X1373180Y553780D01*
X1317980Y553780D01*
X1316500Y553700D01*
X1294520Y551400D01*
X1213820Y551400D01*
X1212040Y551840D01*
X1201340Y557180D01*
X1200060Y558180D01*
X1199300Y559600D01*
X1198760Y561360D01*
X1197640Y563460D01*
X1196120Y565320D01*
X1194280Y566820D01*
X1192160Y567960D01*
X1189880Y568640D01*
X1187300Y568900D01*
X1162700Y568900D01*
X1160120Y568640D01*
X1157840Y567960D01*
X1155720Y566820D01*
X1153880Y565320D01*
X1152360Y563460D01*
X1151240Y561360D01*
X1150540Y559080D01*
X1150300Y556500D01*
X1150300Y506800D01*
X1150360Y505420D01*
X1150600Y503940D01*
X1155200Y483280D01*
X1155300Y482420D01*
X1155300Y478140D01*
X1155080Y476860D01*
X1154460Y475700D01*
X1138900Y455379D01*
X1138260Y454640D01*
X1134860Y449840D01*
X1132120Y444720D01*
X1130020Y439300D01*
X1128600Y433680D01*
X1127880Y427900D01*
X1127880Y422100D01*
X1128600Y416320D01*
X1130020Y410700D01*
X1132120Y405280D01*
X1134860Y400160D01*
X1138220Y395400D01*
X1142140Y391120D01*
X1146560Y387340D01*
X1151400Y384120D01*
X1156600Y381540D01*
X1162080Y379600D01*
X1167760Y378360D01*
X1173540Y377819D01*
X1179360Y378000D01*
X1185100Y378900D01*
X1190680Y380480D01*
X1196040Y382740D01*
X1201080Y385660D01*
X1205700Y389159D01*
X1209880Y393200D01*
X1213520Y397720D01*
X1216580Y402660D01*
X1219020Y407939D01*
X1220780Y413480D01*
X1221840Y419200D01*
X1222200Y425000D01*
X1221840Y430800D01*
X1220780Y436520D01*
X1219020Y442060D01*
X1216580Y447340D01*
X1213520Y452280D01*
X1195540Y475700D01*
X1194920Y476860D01*
X1194700Y478140D01*
X1194700Y482420D01*
X1194800Y483280D01*
X1199300Y503560D01*
X1200060Y505140D01*
X1201420Y506260D01*
X1212040Y511560D01*
X1213820Y512000D01*
X1291540Y512000D01*
X1293340Y511560D01*
X1303460Y506500D01*
X1304620Y505620D01*
X1305400Y504380D01*
X1305660Y502939D01*
X1305660Y488620D01*
X1305920Y486040D01*
X1306620Y483760D01*
X1307740Y481659D01*
X1309259Y479799D01*
X1311100Y478300D01*
X1313200Y477160D01*
X1315500Y476480D01*
X1318060Y476220D01*
X1373180Y476220D01*
X1375760Y476480D01*
X1378040Y477160D01*
X1379139Y477760D01*
X1380680Y478200D01*
X1382280Y478020D01*
X1383660Y477239D01*
X1384640Y475959D01*
X1385020Y474400D01*
X1387780Y413240D01*
X1387800Y366200D01*
X1387480Y364680D01*
X1386620Y363380D01*
X1385320Y362520D01*
X1383800Y362200D01*
X1217220Y362200D01*
X1142400Y363780D01*
X1086820Y363780D01*
X1084240Y363519D01*
X1081960Y362840D01*
X1079860Y361719D01*
X1077580Y359799D01*
X1076380Y359099D01*
X1075000Y358840D01*
X1073620Y359099D01*
X1072420Y359799D01*
X1070140Y361719D01*
X1068040Y362840D01*
X1065760Y363519D01*
X1063180Y363780D01*
X1041620Y363780D01*
X1041620Y331000D01*
X1070400Y331000D01*
X1071940Y330700D01*
X1073240Y329820D01*
X1074100Y328540D01*
X1074400Y327000D01*
X1074400Y323000D01*
X1074100Y321460D01*
X1073240Y320180D01*
X1071940Y319300D01*
X1070400Y319000D01*
X1041620Y319000D01*
X1041620Y286220D01*
X1063180Y286220D01*
X1065760Y286480D01*
X1068040Y287160D01*
X1070140Y288280D01*
X1072420Y290200D01*
X1073620Y290900D01*
X1075000Y291160D01*
X1076380Y290900D01*
X1077580Y290200D01*
X1079860Y288280D01*
X1081960Y287160D01*
X1085620Y286040D01*
X1086780Y285160D01*
X1087520Y283920D01*
X1087800Y282500D01*
X1087800Y222840D01*
X1087660Y221820D01*
X1087280Y220880D01*
X1086080Y218740D01*
X1084000Y213619D01*
X1082600Y208260D01*
X1081880Y202760D01*
X1081880Y197240D01*
X1082600Y191740D01*
X1084000Y186380D01*
X1086080Y181260D01*
X1088800Y176439D01*
X1092100Y172000D01*
X1095960Y168020D01*
X1100280Y164560D01*
X1105020Y161700D01*
X1110080Y159460D01*
X1115380Y157880D01*
X1120860Y157000D01*
G37*
G36*
X1031000Y157260D02*
G01*
X1031900Y157360D01*
X1037300Y158580D01*
X1042480Y160500D01*
X1047400Y163060D01*
X1051940Y166220D01*
X1056040Y169940D01*
X1059620Y174160D01*
X1062640Y178800D01*
X1065040Y183780D01*
X1066780Y189040D01*
X1067760Y194000D01*
X1031000Y194000D01*
G37*
G36*
X1231000Y157260D02*
G01*
X1231900Y157360D01*
X1237300Y158580D01*
X1242480Y160500D01*
X1247400Y163060D01*
X1251940Y166220D01*
X1256040Y169940D01*
X1259620Y174160D01*
X1262640Y178800D01*
X1265040Y183780D01*
X1266780Y189040D01*
X1267760Y194000D01*
X1231000Y194000D01*
G37*
G36*
X1019000Y157300D02*
G01*
X1019000Y194000D01*
X982300Y194000D01*
X982600Y191740D01*
X984000Y186380D01*
X986080Y181260D01*
X988800Y176439D01*
X992099Y172000D01*
X995960Y168020D01*
X1000280Y164560D01*
X1005020Y161700D01*
X1010080Y159460D01*
X1015380Y157880D01*
G37*
G36*
X1219000Y157300D02*
G01*
X1219000Y194000D01*
X1182300Y194000D01*
X1182600Y191740D01*
X1184000Y186380D01*
X1186080Y181260D01*
X1188800Y176439D01*
X1192100Y172000D01*
X1195960Y168020D01*
X1200280Y164560D01*
X1205020Y161700D01*
X1210080Y159460D01*
X1215380Y157880D01*
G37*
G36*
X982300Y206000D02*
G01*
X1019000Y206000D01*
X1019000Y242700D01*
X1015380Y242120D01*
X1010080Y240539D01*
X1005020Y238299D01*
X1000280Y235440D01*
X995960Y231980D01*
X992099Y228000D01*
X988800Y223560D01*
X986080Y218740D01*
X984000Y213619D01*
X982600Y208260D01*
G37*
G36*
X1182300Y206000D02*
G01*
X1219000Y206000D01*
X1219000Y242700D01*
X1215380Y242120D01*
X1210080Y240539D01*
X1205020Y238299D01*
X1200280Y235440D01*
X1195960Y231980D01*
X1192100Y228000D01*
X1188800Y223560D01*
X1186080Y218740D01*
X1184000Y213619D01*
X1182600Y208260D01*
G37*
G36*
X1031000Y206000D02*
G01*
X1067760Y206000D01*
X1066780Y210960D01*
X1065040Y216220D01*
X1062640Y221200D01*
X1059620Y225840D01*
X1056040Y230060D01*
X1051940Y233780D01*
X1047400Y236940D01*
X1042480Y239500D01*
X1037300Y241420D01*
X1031900Y242640D01*
X1031000Y242740D01*
G37*
G36*
X1231000Y206000D02*
G01*
X1267760Y206000D01*
X1266780Y210960D01*
X1265040Y216220D01*
X1262640Y221200D01*
X1259620Y225840D01*
X1256040Y230060D01*
X1251940Y233780D01*
X1247400Y236940D01*
X1242480Y239500D01*
X1237300Y241420D01*
X1231900Y242640D01*
X1231000Y242740D01*
G37*
G36*
X181800Y206000D02*
G01*
X219000Y206000D01*
X219000Y284620D01*
X186220Y284620D01*
X186220Y263060D01*
X186480Y260500D01*
X187160Y258200D01*
X188299Y256100D01*
X189800Y254259D01*
X191660Y252740D01*
X193760Y251620D01*
X195660Y251040D01*
X197040Y250300D01*
X198039Y249080D01*
X198480Y247580D01*
X198320Y246020D01*
X197560Y244640D01*
X196340Y243660D01*
X194840Y243220D01*
X191600Y242940D01*
X189340Y242260D01*
X187220Y241140D01*
X185380Y239620D01*
X183860Y237780D01*
X182740Y235660D01*
X182040Y233380D01*
X181800Y230799D01*
G37*
G36*
X231000Y206000D02*
G01*
X268200Y206000D01*
X268200Y230799D01*
X267960Y233380D01*
X267260Y235660D01*
X266140Y237780D01*
X264620Y239620D01*
X262780Y241140D01*
X260660Y242260D01*
X258400Y242940D01*
X255159Y243220D01*
X253660Y243660D01*
X252440Y244640D01*
X251680Y246020D01*
X251520Y247580D01*
X251960Y249080D01*
X252960Y250300D01*
X254340Y251040D01*
X256240Y251620D01*
X258340Y252740D01*
X260200Y254259D01*
X261700Y256100D01*
X262840Y258200D01*
X263520Y260500D01*
X263780Y263060D01*
X263780Y284620D01*
X231000Y284620D01*
G37*
G36*
X1008060Y286220D02*
G01*
X1029620Y286220D01*
X1029620Y319000D01*
X995660Y319000D01*
X995660Y298620D01*
X995920Y296040D01*
X996620Y293760D01*
X997740Y291660D01*
X999260Y289800D01*
X1001100Y288300D01*
X1003199Y287160D01*
X1005500Y286480D01*
G37*
G36*
X186220Y296620D02*
G01*
X219000Y296620D01*
X219000Y325400D01*
X219300Y326940D01*
X220180Y328240D01*
X221460Y329099D01*
X223000Y329400D01*
X227000Y329400D01*
X228540Y329099D01*
X229820Y328240D01*
X230700Y326940D01*
X231000Y325400D01*
X231000Y296620D01*
X263780Y296620D01*
X263780Y318180D01*
X263520Y320760D01*
X262840Y323040D01*
X261720Y325140D01*
X259800Y327420D01*
X259100Y328620D01*
X258840Y330000D01*
X259100Y331380D01*
X259800Y332580D01*
X261720Y334860D01*
X262840Y336960D01*
X263520Y339240D01*
X263780Y341820D01*
X263780Y396940D01*
X263520Y399500D01*
X262840Y401800D01*
X261700Y403900D01*
X260200Y405740D01*
X258340Y407260D01*
X256240Y408380D01*
X253960Y409080D01*
X252200Y409480D01*
X251100Y410240D01*
X250300Y411320D01*
X246700Y418519D01*
X246320Y419700D01*
X246320Y420940D01*
X246700Y422100D01*
X250180Y429080D01*
X251080Y430260D01*
X252320Y431019D01*
X253760Y431300D01*
X255799Y431300D01*
X258380Y431540D01*
X260660Y432239D01*
X262780Y433360D01*
X264620Y434880D01*
X266140Y436740D01*
X267260Y438840D01*
X267960Y441120D01*
X268200Y443700D01*
X268200Y506300D01*
X267960Y508880D01*
X267260Y511160D01*
X266140Y513260D01*
X264620Y515120D01*
X262780Y516640D01*
X260660Y517760D01*
X258380Y518459D01*
X255799Y518700D01*
X253760Y518700D01*
X252320Y518980D01*
X251080Y519739D01*
X250180Y520920D01*
X245140Y531040D01*
X244700Y532820D01*
X244700Y599920D01*
X244620Y601720D01*
X244400Y603420D01*
X244040Y605100D01*
X243520Y606740D01*
X242860Y608320D01*
X242060Y609860D01*
X241140Y611300D01*
X240100Y612660D01*
X238880Y614000D01*
X170880Y682000D01*
X170020Y683280D01*
X169700Y684820D01*
X169700Y1565180D01*
X170020Y1566720D01*
X170880Y1568000D01*
X207000Y1604120D01*
X208280Y1604980D01*
X209820Y1605300D01*
X590180Y1605300D01*
X591720Y1604980D01*
X593000Y1604120D01*
X604120Y1593000D01*
X604980Y1591720D01*
X605300Y1590180D01*
X605300Y1572460D01*
X605100Y1571240D01*
X604520Y1570120D01*
X591880Y1552700D01*
X591220Y1551940D01*
X588060Y1547400D01*
X585500Y1542480D01*
X583580Y1537300D01*
X582360Y1531900D01*
X581820Y1526380D01*
X582000Y1520860D01*
X582880Y1515380D01*
X584460Y1510080D01*
X586700Y1505020D01*
X589560Y1500280D01*
X593020Y1495960D01*
X597000Y1492100D01*
X601440Y1488800D01*
X606260Y1486080D01*
X611380Y1484000D01*
X616740Y1482600D01*
X622240Y1481879D01*
X627760Y1481879D01*
X633260Y1482600D01*
X638620Y1484000D01*
X643740Y1486080D01*
X648560Y1488800D01*
X653000Y1492100D01*
X656979Y1495960D01*
X660440Y1500280D01*
X663300Y1505020D01*
X665540Y1510080D01*
X667120Y1515380D01*
X668000Y1520860D01*
X668180Y1526380D01*
X667640Y1531900D01*
X666420Y1537300D01*
X664500Y1542480D01*
X661940Y1547400D01*
X658780Y1551940D01*
X658120Y1552700D01*
X645480Y1570120D01*
X644900Y1571240D01*
X644700Y1572460D01*
X644700Y1599920D01*
X644620Y1601720D01*
X644400Y1603420D01*
X644040Y1605100D01*
X643520Y1606740D01*
X642860Y1608320D01*
X642060Y1609860D01*
X641140Y1611300D01*
X640100Y1612660D01*
X638880Y1614000D01*
X614000Y1638880D01*
X612660Y1640100D01*
X611300Y1641140D01*
X609860Y1642060D01*
X608320Y1642860D01*
X606740Y1643520D01*
X605100Y1644040D01*
X603420Y1644400D01*
X601720Y1644620D01*
X599920Y1644700D01*
X200080Y1644700D01*
X198280Y1644620D01*
X196580Y1644400D01*
X194899Y1644040D01*
X193260Y1643520D01*
X191680Y1642860D01*
X190140Y1642060D01*
X188700Y1641140D01*
X187340Y1640100D01*
X186000Y1638880D01*
X136120Y1589000D01*
X134900Y1587660D01*
X133860Y1586300D01*
X132940Y1584860D01*
X132140Y1583320D01*
X131480Y1581740D01*
X130960Y1580100D01*
X130600Y1578420D01*
X130380Y1576720D01*
X130300Y1574920D01*
X130300Y675080D01*
X130380Y673280D01*
X130600Y671580D01*
X130960Y669900D01*
X131480Y668259D01*
X132140Y666680D01*
X132940Y665140D01*
X133860Y663700D01*
X134900Y662340D01*
X136120Y661000D01*
X204120Y593000D01*
X204980Y591720D01*
X205300Y590180D01*
X205300Y532820D01*
X204860Y531040D01*
X199820Y520920D01*
X198920Y519739D01*
X197680Y518980D01*
X196240Y518700D01*
X194200Y518700D01*
X191620Y518459D01*
X189340Y517760D01*
X187220Y516640D01*
X185380Y515120D01*
X183860Y513260D01*
X182740Y511160D01*
X182040Y508880D01*
X181800Y506300D01*
X181800Y443700D01*
X182040Y441120D01*
X182740Y438840D01*
X183860Y436740D01*
X185380Y434880D01*
X187220Y433360D01*
X189340Y432239D01*
X191620Y431540D01*
X194200Y431300D01*
X196240Y431300D01*
X197680Y431019D01*
X198920Y430260D01*
X199820Y429080D01*
X203299Y422100D01*
X203680Y420940D01*
X203680Y419700D01*
X203299Y418519D01*
X199700Y411320D01*
X198900Y410240D01*
X197800Y409480D01*
X196040Y409080D01*
X193760Y408380D01*
X191660Y407260D01*
X189800Y405740D01*
X188299Y403900D01*
X187160Y401800D01*
X186480Y399500D01*
X186220Y396940D01*
X186220Y341820D01*
X186480Y339240D01*
X187160Y336960D01*
X188280Y334860D01*
X190200Y332580D01*
X190900Y331380D01*
X191160Y330000D01*
X190900Y328620D01*
X190200Y327420D01*
X188280Y325140D01*
X187160Y323040D01*
X186480Y320760D01*
X186220Y318180D01*
G37*
G36*
X995660Y331000D02*
G01*
X1029620Y331000D01*
X1029620Y363780D01*
X1008060Y363780D01*
X1005500Y363519D01*
X1003199Y362840D01*
X1001100Y361700D01*
X999260Y360200D01*
X997740Y358340D01*
X996620Y356240D01*
X995920Y353960D01*
X995660Y351380D01*
G37*
G36*
X1026380Y431820D02*
G01*
X1031900Y432360D01*
X1037300Y433579D01*
X1042480Y435500D01*
X1047400Y438060D01*
X1051940Y441220D01*
X1056040Y444940D01*
X1059620Y449159D01*
X1062640Y453800D01*
X1065040Y458780D01*
X1066780Y464040D01*
X1067840Y469480D01*
X1068200Y475000D01*
X1067840Y480520D01*
X1066780Y485959D01*
X1065040Y491220D01*
X1062640Y496200D01*
X1059620Y500840D01*
X1056040Y505060D01*
X1051940Y508780D01*
X1047400Y511940D01*
X1042480Y514500D01*
X1037300Y516420D01*
X1031900Y517640D01*
X1026380Y518180D01*
X1020860Y518000D01*
X1015380Y517120D01*
X1010080Y515540D01*
X1005020Y513300D01*
X1000280Y510439D01*
X995960Y506980D01*
X992099Y503000D01*
X988800Y498560D01*
X986080Y493740D01*
X984000Y488620D01*
X982600Y483260D01*
X981880Y477760D01*
X981880Y472239D01*
X982600Y466740D01*
X984000Y461380D01*
X986080Y456260D01*
X988800Y451440D01*
X992099Y447000D01*
X995960Y443020D01*
X1000280Y439560D01*
X1005020Y436700D01*
X1010080Y434460D01*
X1015380Y432879D01*
X1020860Y432000D01*
G37*
G36*
X1200100Y581100D02*
G01*
X1206400Y581100D01*
X1206400Y612300D01*
X1187700Y612300D01*
X1187700Y593500D01*
X1187940Y590920D01*
X1188640Y588640D01*
X1189760Y586540D01*
X1191280Y584680D01*
X1193120Y583180D01*
X1195240Y582040D01*
X1197520Y581360D01*
G37*
G36*
X1218400Y581100D02*
G01*
X1224700Y581100D01*
X1227280Y581360D01*
X1229560Y582040D01*
X1231680Y583180D01*
X1233520Y584680D01*
X1235040Y586540D01*
X1236160Y588640D01*
X1236860Y590920D01*
X1237100Y593500D01*
X1237100Y612300D01*
X1218400Y612300D01*
G37*
G36*
X1125300Y581100D02*
G01*
X1149900Y581100D01*
X1152480Y581360D01*
X1154760Y582040D01*
X1156880Y583180D01*
X1158720Y584680D01*
X1160240Y586540D01*
X1161360Y588640D01*
X1162060Y590920D01*
X1162300Y593500D01*
X1162300Y643199D01*
X1162240Y644580D01*
X1162000Y646060D01*
X1160560Y652540D01*
X1160480Y653900D01*
X1160880Y655220D01*
X1162980Y659340D01*
X1163980Y660600D01*
X1165380Y661360D01*
X1168040Y662159D01*
X1170140Y663280D01*
X1172420Y665200D01*
X1173620Y665900D01*
X1175000Y666160D01*
X1176380Y665900D01*
X1177580Y665200D01*
X1179860Y663280D01*
X1181960Y662159D01*
X1184240Y661480D01*
X1186820Y661220D01*
X1191700Y661220D01*
X1193420Y660840D01*
X1194800Y659760D01*
X1195580Y658180D01*
X1195640Y656440D01*
X1194920Y654840D01*
X1193600Y653680D01*
X1193120Y653439D01*
X1191280Y651919D01*
X1189760Y650080D01*
X1188640Y647980D01*
X1187940Y645680D01*
X1187700Y643120D01*
X1187700Y624300D01*
X1206400Y624300D01*
X1206400Y659520D01*
X1206640Y660879D01*
X1207320Y662060D01*
X1208380Y662960D01*
X1208380Y694000D01*
X1179600Y694000D01*
X1178060Y694300D01*
X1176760Y695180D01*
X1175900Y696460D01*
X1175600Y698000D01*
X1175600Y702000D01*
X1175900Y703540D01*
X1176760Y704820D01*
X1178060Y705699D01*
X1179600Y706000D01*
X1208380Y706000D01*
X1208380Y738780D01*
X1186820Y738780D01*
X1184240Y738520D01*
X1181960Y737840D01*
X1179860Y736720D01*
X1177580Y734800D01*
X1176380Y734100D01*
X1175000Y733840D01*
X1173620Y734100D01*
X1172420Y734800D01*
X1170140Y736720D01*
X1168040Y737840D01*
X1165760Y738520D01*
X1163180Y738780D01*
X1153760Y738780D01*
X1152320Y739060D01*
X1151080Y739820D01*
X1150180Y741000D01*
X1145140Y751120D01*
X1144700Y752900D01*
X1144700Y777540D01*
X1144900Y778760D01*
X1145480Y779880D01*
X1158220Y797440D01*
X1160420Y800260D01*
X1163300Y805020D01*
X1165540Y810080D01*
X1167120Y815380D01*
X1168000Y820860D01*
X1168180Y826380D01*
X1167640Y831900D01*
X1166420Y837300D01*
X1164500Y842480D01*
X1161940Y847400D01*
X1158780Y851940D01*
X1155060Y856040D01*
X1150840Y859620D01*
X1146200Y862640D01*
X1141220Y865040D01*
X1135960Y866780D01*
X1130520Y867840D01*
X1125000Y868199D01*
X1119480Y867840D01*
X1114040Y866780D01*
X1108780Y865040D01*
X1103800Y862640D01*
X1099160Y859620D01*
X1094940Y856040D01*
X1091220Y851940D01*
X1088060Y847400D01*
X1085500Y842480D01*
X1083580Y837300D01*
X1082360Y831900D01*
X1081820Y826380D01*
X1082000Y820860D01*
X1082880Y815380D01*
X1084460Y810080D01*
X1086700Y805020D01*
X1089580Y800260D01*
X1091880Y797320D01*
X1104520Y779880D01*
X1105100Y778760D01*
X1105300Y777540D01*
X1105300Y752400D01*
X1104960Y750819D01*
X1096620Y731300D01*
X1095900Y728900D01*
X1095660Y726240D01*
X1095660Y673620D01*
X1095920Y671040D01*
X1096620Y668760D01*
X1097740Y666660D01*
X1099260Y664800D01*
X1101100Y663300D01*
X1103200Y662159D01*
X1105500Y661480D01*
X1108840Y661220D01*
X1110280Y660939D01*
X1111520Y660180D01*
X1112400Y659000D01*
X1114320Y655200D01*
X1114700Y653900D01*
X1114640Y652560D01*
X1113120Y645500D01*
X1112900Y643199D01*
X1112900Y593500D01*
X1113140Y590920D01*
X1113840Y588640D01*
X1114960Y586540D01*
X1116480Y584680D01*
X1118320Y583180D01*
X1120440Y582040D01*
X1122720Y581360D01*
G37*
G36*
X1523620Y581820D02*
G01*
X1529139Y582000D01*
X1534620Y582880D01*
X1539920Y584460D01*
X1544980Y586700D01*
X1549720Y589560D01*
X1554040Y593020D01*
X1557900Y597000D01*
X1561200Y601440D01*
X1563920Y606260D01*
X1565560Y610300D01*
X1566420Y611600D01*
X1567720Y612480D01*
X1569259Y612800D01*
X1580740Y612800D01*
X1582360Y612440D01*
X1583700Y611480D01*
X1584540Y610060D01*
X1584960Y608780D01*
X1587360Y603800D01*
X1590380Y599160D01*
X1593959Y594940D01*
X1598060Y591220D01*
X1602600Y588060D01*
X1607520Y585500D01*
X1612700Y583580D01*
X1618100Y582360D01*
X1623620Y581820D01*
X1629139Y582000D01*
X1634620Y582880D01*
X1639920Y584460D01*
X1644980Y586700D01*
X1649720Y589560D01*
X1654040Y593020D01*
X1657900Y597000D01*
X1661200Y601440D01*
X1663920Y606260D01*
X1665560Y610300D01*
X1666420Y611600D01*
X1667720Y612480D01*
X1669259Y612800D01*
X1680740Y612800D01*
X1682360Y612440D01*
X1683700Y611480D01*
X1684540Y610060D01*
X1684960Y608780D01*
X1687360Y603800D01*
X1690380Y599160D01*
X1693959Y594940D01*
X1698060Y591220D01*
X1702600Y588060D01*
X1707520Y585500D01*
X1712700Y583580D01*
X1718100Y582360D01*
X1723620Y581820D01*
X1729139Y582000D01*
X1734620Y582880D01*
X1739920Y584460D01*
X1744980Y586700D01*
X1749720Y589560D01*
X1754040Y593020D01*
X1757900Y597000D01*
X1761200Y601440D01*
X1763920Y606260D01*
X1765560Y610300D01*
X1766420Y611600D01*
X1767720Y612480D01*
X1769259Y612800D01*
X1780740Y612800D01*
X1782360Y612440D01*
X1783700Y611480D01*
X1784540Y610060D01*
X1784960Y608780D01*
X1787360Y603800D01*
X1790380Y599160D01*
X1793959Y594940D01*
X1798060Y591220D01*
X1802600Y588060D01*
X1807520Y585500D01*
X1812700Y583580D01*
X1818100Y582360D01*
X1823620Y581820D01*
X1829139Y582000D01*
X1834620Y582880D01*
X1839920Y584460D01*
X1844980Y586700D01*
X1849720Y589560D01*
X1854040Y593020D01*
X1857900Y597000D01*
X1861200Y601440D01*
X1863920Y606260D01*
X1865560Y610300D01*
X1866420Y611600D01*
X1867720Y612480D01*
X1869259Y612800D01*
X1880740Y612800D01*
X1882360Y612440D01*
X1883700Y611480D01*
X1884540Y610060D01*
X1884960Y608780D01*
X1887360Y603800D01*
X1890380Y599160D01*
X1893959Y594940D01*
X1898060Y591220D01*
X1902600Y588060D01*
X1907520Y585500D01*
X1912700Y583580D01*
X1918100Y582360D01*
X1923620Y581820D01*
X1929139Y582000D01*
X1934620Y582880D01*
X1939920Y584460D01*
X1944980Y586700D01*
X1949720Y589560D01*
X1954040Y593020D01*
X1957900Y597000D01*
X1961200Y601440D01*
X1963920Y606260D01*
X1965560Y610300D01*
X1966420Y611600D01*
X1967720Y612480D01*
X1969259Y612800D01*
X1980740Y612800D01*
X1982360Y612440D01*
X1983700Y611480D01*
X1984540Y610060D01*
X1984960Y608780D01*
X1987360Y603800D01*
X1990380Y599160D01*
X1993959Y594940D01*
X1998060Y591220D01*
X2002600Y588060D01*
X2007520Y585500D01*
X2012700Y583580D01*
X2018100Y582360D01*
X2023620Y581820D01*
X2029139Y582000D01*
X2034620Y582880D01*
X2039920Y584460D01*
X2044980Y586700D01*
X2049720Y589560D01*
X2054040Y593020D01*
X2057900Y597000D01*
X2061200Y601440D01*
X2063920Y606260D01*
X2065560Y610300D01*
X2066420Y611600D01*
X2067720Y612480D01*
X2069259Y612800D01*
X2080740Y612800D01*
X2082360Y612440D01*
X2083700Y611480D01*
X2084540Y610060D01*
X2084960Y608780D01*
X2087360Y603800D01*
X2090380Y599160D01*
X2093959Y594940D01*
X2098060Y591220D01*
X2102600Y588060D01*
X2107520Y585500D01*
X2112700Y583580D01*
X2118100Y582360D01*
X2123620Y581820D01*
X2129140Y582000D01*
X2134620Y582880D01*
X2139920Y584460D01*
X2144980Y586700D01*
X2149720Y589560D01*
X2154040Y593020D01*
X2157900Y597000D01*
X2161200Y601440D01*
X2163920Y606260D01*
X2165560Y610300D01*
X2166420Y611600D01*
X2167720Y612480D01*
X2169260Y612800D01*
X2180740Y612800D01*
X2182360Y612440D01*
X2183700Y611480D01*
X2184540Y610060D01*
X2184960Y608780D01*
X2187360Y603800D01*
X2190380Y599160D01*
X2193960Y594940D01*
X2198060Y591220D01*
X2202600Y588060D01*
X2207520Y585500D01*
X2212700Y583580D01*
X2218100Y582360D01*
X2223620Y581820D01*
X2229140Y582000D01*
X2234620Y582880D01*
X2239920Y584460D01*
X2244980Y586700D01*
X2249720Y589560D01*
X2254040Y593020D01*
X2257900Y597000D01*
X2261200Y601440D01*
X2263920Y606260D01*
X2266000Y611380D01*
X2267400Y616740D01*
X2268120Y622240D01*
X2268120Y627760D01*
X2267400Y633260D01*
X2266000Y638620D01*
X2263920Y643740D01*
X2261200Y648560D01*
X2257900Y653000D01*
X2254040Y656979D01*
X2249720Y660440D01*
X2244980Y663300D01*
X2239920Y665540D01*
X2234620Y667120D01*
X2207580Y671380D01*
X2206380Y671760D01*
X2205380Y672500D01*
X2145880Y732000D01*
X2145020Y733280D01*
X2144700Y734820D01*
X2144700Y777540D01*
X2144900Y778760D01*
X2145480Y779880D01*
X2158220Y797440D01*
X2160420Y800260D01*
X2163300Y805020D01*
X2165540Y810080D01*
X2167120Y815380D01*
X2168000Y820860D01*
X2168180Y826380D01*
X2167640Y831900D01*
X2166420Y837300D01*
X2164500Y842480D01*
X2161940Y847400D01*
X2158780Y851940D01*
X2155060Y856040D01*
X2150840Y859620D01*
X2146200Y862640D01*
X2141220Y865040D01*
X2135960Y866780D01*
X2130520Y867840D01*
X2125000Y868199D01*
X2119480Y867840D01*
X2114040Y866780D01*
X2108780Y865040D01*
X2103800Y862640D01*
X2099160Y859620D01*
X2094940Y856040D01*
X2091220Y851940D01*
X2088060Y847400D01*
X2085500Y842480D01*
X2083580Y837300D01*
X2082360Y831900D01*
X2081819Y826380D01*
X2082000Y820860D01*
X2082740Y816320D01*
X2082640Y814599D01*
X2081840Y813100D01*
X2080500Y812060D01*
X2078839Y811680D01*
X2071240Y811580D01*
X2069560Y811940D01*
X2068180Y812980D01*
X2067360Y814500D01*
X2067260Y816220D01*
X2068000Y820860D01*
X2068180Y826380D01*
X2067640Y831900D01*
X2066420Y837300D01*
X2064500Y842480D01*
X2061940Y847400D01*
X2058779Y851940D01*
X2055060Y856040D01*
X2050840Y859620D01*
X2046200Y862640D01*
X2041220Y865040D01*
X2035960Y866780D01*
X2030520Y867840D01*
X2025000Y868199D01*
X2019480Y867840D01*
X2014040Y866780D01*
X2008779Y865040D01*
X2003800Y862640D01*
X1999160Y859620D01*
X1994940Y856040D01*
X1991220Y851940D01*
X1988060Y847400D01*
X1985500Y842480D01*
X1983580Y837300D01*
X1982360Y831900D01*
X1981819Y826380D01*
X1982000Y820860D01*
X1982920Y815160D01*
X1982820Y813460D01*
X1982040Y811940D01*
X1980680Y810900D01*
X1979019Y810520D01*
X1971060Y810420D01*
X1969360Y810780D01*
X1967980Y811820D01*
X1967160Y813340D01*
X1967060Y815080D01*
X1967700Y819000D01*
X1931000Y819000D01*
X1931000Y813920D01*
X1930700Y812400D01*
X1929840Y811100D01*
X1928560Y810240D01*
X1927040Y809920D01*
X1923040Y809880D01*
X1921500Y810160D01*
X1920180Y811020D01*
X1919300Y812340D01*
X1919000Y813880D01*
X1919000Y819000D01*
X1882300Y819000D01*
X1882880Y815380D01*
X1883140Y814500D01*
X1883300Y813040D01*
X1882920Y811620D01*
X1882040Y810440D01*
X1880800Y809659D01*
X1879360Y809360D01*
X1874560Y809320D01*
X1873160Y809539D01*
X1871940Y810260D01*
X1871040Y811340D01*
X1870560Y812680D01*
X1867980Y829040D01*
X1867660Y831860D01*
X1866420Y837300D01*
X1864500Y842480D01*
X1861940Y847400D01*
X1858779Y851940D01*
X1855060Y856040D01*
X1850840Y859620D01*
X1846200Y862640D01*
X1841220Y865040D01*
X1835960Y866780D01*
X1830520Y867840D01*
X1825000Y868199D01*
X1819480Y867840D01*
X1814040Y866780D01*
X1808779Y865040D01*
X1803800Y862640D01*
X1799160Y859620D01*
X1794940Y856040D01*
X1791220Y851940D01*
X1788060Y847400D01*
X1785500Y842480D01*
X1783580Y837300D01*
X1782360Y831900D01*
X1781819Y826380D01*
X1782000Y820860D01*
X1782880Y815380D01*
X1783480Y813360D01*
X1783640Y811900D01*
X1783260Y810480D01*
X1782380Y809300D01*
X1781140Y808500D01*
X1779700Y808220D01*
X1774740Y808160D01*
X1773340Y808400D01*
X1772120Y809100D01*
X1771220Y810200D01*
X1770740Y811540D01*
X1767980Y829040D01*
X1767660Y831860D01*
X1766420Y837300D01*
X1764500Y842480D01*
X1761940Y847400D01*
X1758779Y851940D01*
X1755060Y856040D01*
X1750840Y859620D01*
X1746200Y862640D01*
X1741220Y865040D01*
X1735960Y866780D01*
X1730520Y867840D01*
X1725000Y868199D01*
X1719480Y867840D01*
X1714040Y866780D01*
X1708779Y865040D01*
X1703800Y862640D01*
X1699160Y859620D01*
X1694940Y856040D01*
X1691220Y851940D01*
X1688060Y847400D01*
X1685500Y842480D01*
X1683580Y837300D01*
X1682360Y831900D01*
X1681819Y826380D01*
X1682000Y820860D01*
X1682880Y815380D01*
X1683820Y812200D01*
X1683980Y810740D01*
X1683600Y809320D01*
X1682720Y808139D01*
X1681480Y807360D01*
X1680040Y807060D01*
X1674920Y807000D01*
X1673540Y807240D01*
X1672300Y807940D01*
X1671399Y809040D01*
X1670940Y810380D01*
X1667980Y829040D01*
X1667660Y831860D01*
X1666420Y837300D01*
X1664500Y842480D01*
X1661940Y847400D01*
X1658779Y851940D01*
X1655060Y856040D01*
X1650840Y859620D01*
X1646200Y862640D01*
X1641220Y865040D01*
X1635960Y866780D01*
X1630520Y867840D01*
X1625000Y868199D01*
X1619480Y867840D01*
X1614040Y866780D01*
X1608779Y865040D01*
X1603800Y862640D01*
X1599160Y859620D01*
X1594940Y856040D01*
X1591220Y851940D01*
X1588060Y847400D01*
X1585500Y842480D01*
X1583580Y837300D01*
X1582360Y831900D01*
X1581819Y826380D01*
X1582000Y820860D01*
X1582880Y815380D01*
X1584180Y811060D01*
X1584319Y809580D01*
X1583940Y808180D01*
X1583060Y806979D01*
X1581819Y806200D01*
X1580380Y805920D01*
X1575120Y805860D01*
X1573720Y806080D01*
X1572480Y806800D01*
X1571579Y807880D01*
X1571120Y809220D01*
X1567980Y829040D01*
X1567660Y831860D01*
X1566420Y837300D01*
X1564500Y842480D01*
X1561940Y847400D01*
X1558779Y851940D01*
X1555060Y856040D01*
X1550840Y859620D01*
X1546200Y862640D01*
X1541220Y865040D01*
X1535960Y866780D01*
X1530520Y867840D01*
X1525000Y868199D01*
X1519480Y867840D01*
X1514040Y866780D01*
X1508779Y865040D01*
X1503800Y862640D01*
X1499160Y859620D01*
X1494940Y856040D01*
X1491220Y851940D01*
X1488060Y847400D01*
X1485500Y842480D01*
X1483580Y837300D01*
X1482360Y831900D01*
X1481819Y826380D01*
X1482000Y820860D01*
X1482880Y815380D01*
X1484520Y809900D01*
X1484660Y808439D01*
X1484280Y807020D01*
X1483400Y805840D01*
X1482160Y805040D01*
X1480720Y804760D01*
X1469319Y804620D01*
X1467860Y804880D01*
X1466579Y805660D01*
X1465680Y806860D01*
X1465280Y808300D01*
X1465440Y809780D01*
X1467120Y815400D01*
X1467700Y819000D01*
X1431000Y819000D01*
X1431000Y808139D01*
X1430700Y806620D01*
X1429840Y805320D01*
X1428560Y804460D01*
X1427040Y804140D01*
X1423040Y804100D01*
X1421500Y804380D01*
X1420180Y805240D01*
X1419300Y806560D01*
X1419000Y808100D01*
X1419000Y819000D01*
X1382300Y819000D01*
X1382880Y815380D01*
X1384460Y810080D01*
X1384840Y809220D01*
X1385180Y807700D01*
X1384900Y806140D01*
X1384060Y804820D01*
X1382760Y803940D01*
X1381220Y803620D01*
X1376020Y803560D01*
X1374460Y803840D01*
X1373140Y804720D01*
X1371759Y806380D01*
X1371380Y807580D01*
X1367980Y829040D01*
X1367660Y831860D01*
X1366420Y837300D01*
X1364500Y842480D01*
X1361940Y847400D01*
X1358779Y851940D01*
X1355060Y856040D01*
X1350840Y859620D01*
X1346200Y862640D01*
X1341220Y865040D01*
X1335960Y866780D01*
X1330520Y867840D01*
X1325000Y868199D01*
X1319480Y867840D01*
X1314040Y866780D01*
X1308779Y865040D01*
X1303800Y862640D01*
X1299160Y859620D01*
X1294940Y856040D01*
X1291220Y851940D01*
X1288060Y847400D01*
X1285500Y842480D01*
X1283580Y837300D01*
X1282360Y831900D01*
X1281819Y826380D01*
X1282000Y820860D01*
X1282880Y815380D01*
X1284460Y810080D01*
X1285340Y808080D01*
X1285680Y806540D01*
X1285420Y805000D01*
X1284560Y803680D01*
X1283260Y802780D01*
X1281740Y802460D01*
X1277160Y802400D01*
X1275620Y802700D01*
X1274300Y803580D01*
X1272500Y805380D01*
X1271760Y806380D01*
X1271380Y807580D01*
X1267980Y829040D01*
X1267660Y831860D01*
X1266420Y837300D01*
X1264500Y842480D01*
X1261940Y847400D01*
X1258780Y851940D01*
X1255060Y856040D01*
X1250840Y859620D01*
X1246200Y862640D01*
X1241220Y865040D01*
X1235960Y866780D01*
X1230520Y867840D01*
X1225000Y868199D01*
X1219480Y867840D01*
X1214040Y866780D01*
X1208780Y865040D01*
X1203800Y862640D01*
X1199160Y859620D01*
X1194940Y856040D01*
X1191220Y851940D01*
X1188060Y847400D01*
X1185500Y842480D01*
X1183580Y837300D01*
X1182360Y831900D01*
X1181820Y826380D01*
X1182000Y820860D01*
X1182880Y815380D01*
X1184460Y810080D01*
X1186700Y805020D01*
X1189560Y800280D01*
X1193020Y795960D01*
X1197000Y792099D01*
X1201440Y788800D01*
X1206260Y786080D01*
X1211380Y784000D01*
X1216760Y782600D01*
X1221140Y782000D01*
X1242420Y778620D01*
X1243620Y778240D01*
X1244620Y777500D01*
X1336000Y686120D01*
X1337340Y684900D01*
X1338700Y683860D01*
X1340140Y682940D01*
X1341680Y682140D01*
X1343260Y681480D01*
X1344900Y680960D01*
X1346579Y680600D01*
X1348260Y680380D01*
X1350920Y680280D01*
X1352380Y679960D01*
X1353620Y679120D01*
X1385080Y647660D01*
X1385980Y646280D01*
X1386260Y644680D01*
X1385860Y643080D01*
X1384960Y641220D01*
X1383220Y635960D01*
X1382240Y631000D01*
X1400080Y631000D01*
X1401600Y630700D01*
X1402900Y629820D01*
X1406900Y625820D01*
X1407780Y624540D01*
X1408080Y623000D01*
X1407780Y621460D01*
X1406900Y620180D01*
X1405600Y619300D01*
X1404079Y619000D01*
X1382240Y619000D01*
X1383220Y614040D01*
X1384960Y608780D01*
X1387360Y603800D01*
X1390380Y599160D01*
X1393959Y594940D01*
X1398060Y591220D01*
X1402600Y588060D01*
X1407520Y585500D01*
X1412500Y583660D01*
X1412500Y603500D01*
X1412800Y605040D01*
X1413680Y606320D01*
X1414960Y607200D01*
X1416500Y607500D01*
X1419000Y607500D01*
X1419000Y609000D01*
X1419340Y610620D01*
X1420320Y611980D01*
X1421759Y612800D01*
X1423420Y612980D01*
X1425200Y612800D01*
X1427000Y612800D01*
X1428540Y612480D01*
X1429820Y611620D01*
X1430700Y610320D01*
X1431000Y608800D01*
X1431000Y607500D01*
X1433500Y607500D01*
X1435040Y607200D01*
X1436320Y606320D01*
X1437200Y605040D01*
X1437500Y603500D01*
X1437500Y583740D01*
X1439920Y584460D01*
X1444980Y586700D01*
X1449720Y589560D01*
X1454040Y593020D01*
X1457900Y597000D01*
X1461200Y601440D01*
X1463920Y606260D01*
X1465560Y610300D01*
X1466420Y611600D01*
X1467720Y612480D01*
X1469259Y612800D01*
X1480740Y612800D01*
X1482360Y612440D01*
X1483700Y611480D01*
X1484540Y610060D01*
X1484960Y608780D01*
X1487360Y603800D01*
X1490380Y599160D01*
X1493959Y594940D01*
X1498060Y591220D01*
X1502600Y588060D01*
X1507520Y585500D01*
X1512700Y583580D01*
X1518100Y582360D01*
G37*
G36*
X1218400Y624300D02*
G01*
X1237100Y624300D01*
X1237100Y643120D01*
X1236860Y645680D01*
X1236160Y647980D01*
X1235040Y650080D01*
X1233520Y651919D01*
X1231680Y653439D01*
X1231200Y653680D01*
X1229880Y654840D01*
X1229180Y656440D01*
X1229220Y658180D01*
X1230000Y659760D01*
X1231380Y660840D01*
X1233100Y661220D01*
X1241940Y661220D01*
X1244500Y661480D01*
X1246800Y662159D01*
X1248900Y663300D01*
X1250740Y664800D01*
X1252260Y666660D01*
X1253380Y668760D01*
X1254080Y671040D01*
X1254340Y673620D01*
X1254340Y694000D01*
X1220380Y694000D01*
X1220380Y657220D01*
X1220140Y655860D01*
X1219440Y654659D01*
X1218400Y653780D01*
G37*
G36*
X1220380Y706000D02*
G01*
X1254340Y706000D01*
X1254340Y726380D01*
X1254080Y728960D01*
X1253380Y731240D01*
X1252260Y733340D01*
X1250740Y735200D01*
X1248900Y736700D01*
X1246800Y737840D01*
X1244500Y738520D01*
X1241940Y738780D01*
X1220380Y738780D01*
G37*
G36*
X931000Y782300D02*
G01*
X933259Y782600D01*
X938620Y784000D01*
X943740Y786080D01*
X948560Y788800D01*
X953000Y792099D01*
X956979Y795960D01*
X960440Y800280D01*
X963300Y805020D01*
X965540Y810080D01*
X967120Y815380D01*
X967700Y819000D01*
X931000Y819000D01*
G37*
G36*
X419000Y782300D02*
G01*
X419000Y819000D01*
X382299Y819000D01*
X382879Y815380D01*
X384460Y810080D01*
X386700Y805020D01*
X389560Y800280D01*
X393020Y795960D01*
X397000Y792099D01*
X401440Y788800D01*
X406260Y786080D01*
X411380Y784000D01*
X416740Y782600D01*
G37*
G36*
X431000Y782300D02*
G01*
X433260Y782600D01*
X438620Y784000D01*
X443740Y786080D01*
X448560Y788800D01*
X453000Y792099D01*
X456980Y795960D01*
X460439Y800280D01*
X463300Y805020D01*
X465540Y810080D01*
X467120Y815380D01*
X467700Y819000D01*
X431000Y819000D01*
G37*
G36*
X919000Y782300D02*
G01*
X919000Y819000D01*
X882300Y819000D01*
X882880Y815380D01*
X884460Y810080D01*
X886700Y805020D01*
X889560Y800280D01*
X893020Y795960D01*
X897000Y792099D01*
X901440Y788800D01*
X906260Y786080D01*
X911380Y784000D01*
X916740Y782600D01*
G37*
G36*
X431000Y831000D02*
G01*
X467740Y831000D01*
X467640Y831900D01*
X466420Y837300D01*
X464500Y842480D01*
X461940Y847400D01*
X458780Y851940D01*
X455060Y856040D01*
X450840Y859620D01*
X446200Y862640D01*
X441220Y865040D01*
X435959Y866780D01*
X431000Y867760D01*
G37*
G36*
X382260Y831000D02*
G01*
X419000Y831000D01*
X419000Y867760D01*
X414040Y866780D01*
X408780Y865040D01*
X403800Y862640D01*
X399159Y859620D01*
X394940Y856040D01*
X391220Y851940D01*
X388060Y847400D01*
X385500Y842480D01*
X383579Y837300D01*
X382360Y831900D01*
G37*
G36*
X882260Y831000D02*
G01*
X919000Y831000D01*
X919000Y867760D01*
X914040Y866780D01*
X908780Y865040D01*
X903800Y862640D01*
X899160Y859620D01*
X894940Y856040D01*
X891220Y851940D01*
X888060Y847400D01*
X885500Y842480D01*
X883580Y837300D01*
X882360Y831900D01*
G37*
G36*
X1882260Y831000D02*
G01*
X1919000Y831000D01*
X1919000Y867760D01*
X1914040Y866780D01*
X1908779Y865040D01*
X1903800Y862640D01*
X1899160Y859620D01*
X1894940Y856040D01*
X1891220Y851940D01*
X1888060Y847400D01*
X1885500Y842480D01*
X1883580Y837300D01*
X1882360Y831900D01*
G37*
G36*
X1382260Y831000D02*
G01*
X1419000Y831000D01*
X1419000Y867760D01*
X1414040Y866780D01*
X1408779Y865040D01*
X1403800Y862640D01*
X1399160Y859620D01*
X1394940Y856040D01*
X1391220Y851940D01*
X1388060Y847400D01*
X1385500Y842480D01*
X1383580Y837300D01*
X1382360Y831900D01*
G37*
G36*
X931000Y831000D02*
G01*
X967740Y831000D01*
X967640Y831900D01*
X966420Y837300D01*
X964500Y842480D01*
X961940Y847400D01*
X958780Y851940D01*
X955060Y856040D01*
X950840Y859620D01*
X946200Y862640D01*
X941220Y865040D01*
X935960Y866780D01*
X931000Y867760D01*
G37*
G36*
X1431000Y831000D02*
G01*
X1467740Y831000D01*
X1467640Y831900D01*
X1466420Y837300D01*
X1464500Y842480D01*
X1461940Y847400D01*
X1458779Y851940D01*
X1455060Y856040D01*
X1450840Y859620D01*
X1446200Y862640D01*
X1441220Y865040D01*
X1435960Y866780D01*
X1431000Y867760D01*
G37*
G36*
X1931000Y831000D02*
G01*
X1967740Y831000D01*
X1967640Y831900D01*
X1966420Y837300D01*
X1964500Y842480D01*
X1961940Y847400D01*
X1958779Y851940D01*
X1955060Y856040D01*
X1950840Y859620D01*
X1946200Y862640D01*
X1941220Y865040D01*
X1935960Y866780D01*
X1931000Y867760D01*
G37*
G36*
X2375000Y831800D02*
G01*
X2380520Y832159D01*
X2385960Y833220D01*
X2391220Y834960D01*
X2396200Y837360D01*
X2400840Y840380D01*
X2405060Y843960D01*
X2408780Y848060D01*
X2411940Y852600D01*
X2414500Y857520D01*
X2416420Y862700D01*
X2417640Y868100D01*
X2418180Y873620D01*
X2418000Y879140D01*
X2417120Y884620D01*
X2415540Y889920D01*
X2413300Y894980D01*
X2410440Y899720D01*
X2406980Y904040D01*
X2403000Y907900D01*
X2398560Y911200D01*
X2393740Y913920D01*
X2388620Y916000D01*
X2383260Y917400D01*
X2377760Y918120D01*
X2372240Y918120D01*
X2366740Y917400D01*
X2361380Y916000D01*
X2356260Y913920D01*
X2354120Y912720D01*
X2353180Y912340D01*
X2352160Y912200D01*
X2322780Y912200D01*
X2321260Y912520D01*
X2319960Y913379D01*
X2319080Y914680D01*
X2318780Y916200D01*
X2318780Y923180D01*
X2318520Y925759D01*
X2317840Y928040D01*
X2316720Y930140D01*
X2314800Y932420D01*
X2314100Y933620D01*
X2313840Y935000D01*
X2314100Y936380D01*
X2314800Y937580D01*
X2316720Y939860D01*
X2317840Y941960D01*
X2318520Y944240D01*
X2318780Y946820D01*
X2318780Y968379D01*
X2286000Y968379D01*
X2286000Y939599D01*
X2285700Y938060D01*
X2284820Y936760D01*
X2283540Y935900D01*
X2282000Y935600D01*
X2278000Y935600D01*
X2276460Y935900D01*
X2275180Y936760D01*
X2274300Y938060D01*
X2274000Y939599D01*
X2274000Y968379D01*
X2241220Y968379D01*
X2241220Y946820D01*
X2241480Y944240D01*
X2242160Y941960D01*
X2243280Y939860D01*
X2245200Y937580D01*
X2245900Y936380D01*
X2246160Y935000D01*
X2245900Y933620D01*
X2245200Y932420D01*
X2243280Y930140D01*
X2242160Y928040D01*
X2241480Y925759D01*
X2241220Y923180D01*
X2241220Y921060D01*
X2240920Y919520D01*
X2240040Y918240D01*
X2238740Y917360D01*
X2237220Y917060D01*
X2235680Y917360D01*
X2234380Y918240D01*
X2166380Y986240D01*
X2163420Y988900D01*
X2162540Y989599D01*
X2159280Y991820D01*
X2158300Y992400D01*
X2154760Y994160D01*
X2153720Y994580D01*
X2149980Y995840D01*
X2148880Y996140D01*
X2145000Y996860D01*
X2143880Y997000D01*
X2139900Y997200D01*
X632060Y997200D01*
X630540Y997520D01*
X629240Y998379D01*
X263380Y1364240D01*
X262520Y1365540D01*
X262200Y1367060D01*
X262200Y1502100D01*
X262360Y1503180D01*
X263300Y1505020D01*
X265540Y1510080D01*
X267120Y1515380D01*
X268000Y1520860D01*
X268180Y1526380D01*
X267640Y1531900D01*
X266420Y1537300D01*
X264500Y1542480D01*
X261940Y1547400D01*
X258780Y1551940D01*
X255060Y1556040D01*
X250840Y1559620D01*
X246200Y1562640D01*
X241220Y1565040D01*
X235960Y1566780D01*
X230520Y1567840D01*
X225000Y1568200D01*
X219480Y1567840D01*
X214040Y1566780D01*
X208780Y1565040D01*
X203800Y1562640D01*
X199160Y1559620D01*
X194940Y1556040D01*
X191220Y1551940D01*
X188060Y1547400D01*
X185500Y1542480D01*
X183580Y1537300D01*
X182360Y1531900D01*
X181820Y1526380D01*
X182000Y1520860D01*
X182880Y1515380D01*
X184460Y1510080D01*
X186700Y1505020D01*
X187640Y1503180D01*
X187800Y1502100D01*
X187800Y1350100D01*
X188000Y1346120D01*
X188140Y1345000D01*
X188860Y1341120D01*
X189160Y1340020D01*
X190420Y1336279D01*
X190840Y1335240D01*
X192600Y1331699D01*
X193180Y1330720D01*
X195400Y1327460D01*
X196100Y1326579D01*
X198760Y1323620D01*
X588620Y933760D01*
X591580Y931100D01*
X592460Y930400D01*
X595720Y928180D01*
X596700Y927600D01*
X600240Y925840D01*
X601280Y925420D01*
X605020Y924160D01*
X606120Y923860D01*
X610000Y923139D01*
X611120Y923000D01*
X615100Y922800D01*
X2122940Y922800D01*
X2124460Y922480D01*
X2125760Y921620D01*
X2198620Y848760D01*
X2201580Y846100D01*
X2202460Y845400D01*
X2205720Y843180D01*
X2206700Y842600D01*
X2210240Y840840D01*
X2211280Y840420D01*
X2215020Y839160D01*
X2216120Y838860D01*
X2220000Y838139D01*
X2221120Y838000D01*
X2225100Y837800D01*
X2351980Y837800D01*
X2353720Y837400D01*
X2358780Y834960D01*
X2364040Y833220D01*
X2369480Y832159D01*
G37*
G36*
X2344200Y931800D02*
G01*
X2369000Y931800D01*
X2369000Y969000D01*
X2331800Y969000D01*
X2331800Y944200D01*
X2332040Y941620D01*
X2332740Y939340D01*
X2333860Y937220D01*
X2335380Y935380D01*
X2337220Y933860D01*
X2339340Y932740D01*
X2341620Y932039D01*
G37*
G36*
X2381000Y931800D02*
G01*
X2405800Y931800D01*
X2408380Y932039D01*
X2410660Y932740D01*
X2412780Y933860D01*
X2414620Y935380D01*
X2416140Y937220D01*
X2417260Y939340D01*
X2417960Y941620D01*
X2418200Y944200D01*
X2418200Y969000D01*
X2381000Y969000D01*
G37*
G36*
X2286000Y980380D02*
G01*
X2318780Y980380D01*
X2318780Y1001940D01*
X2318520Y1004500D01*
X2317840Y1006800D01*
X2316700Y1008900D01*
X2315200Y1010740D01*
X2313340Y1012260D01*
X2311240Y1013379D01*
X2308960Y1014080D01*
X2306380Y1014340D01*
X2286000Y1014340D01*
G37*
G36*
X2241220Y980380D02*
G01*
X2274000Y980380D01*
X2274000Y1014340D01*
X2253620Y1014340D01*
X2251040Y1014080D01*
X2248760Y1013379D01*
X2246660Y1012260D01*
X2244800Y1010740D01*
X2243300Y1008900D01*
X2242160Y1006800D01*
X2241480Y1004500D01*
X2241220Y1001940D01*
G37*
G36*
X2381000Y981000D02*
G01*
X2418200Y981000D01*
X2418200Y1005800D01*
X2417960Y1008379D01*
X2417260Y1010660D01*
X2416140Y1012780D01*
X2414620Y1014620D01*
X2412780Y1016140D01*
X2410660Y1017260D01*
X2408380Y1017960D01*
X2405800Y1018199D01*
X2381000Y1018199D01*
G37*
G36*
X2331800Y981000D02*
G01*
X2369000Y981000D01*
X2369000Y1018199D01*
X2344200Y1018199D01*
X2341620Y1017960D01*
X2339340Y1017260D01*
X2337220Y1016140D01*
X2335380Y1014620D01*
X2333860Y1012780D01*
X2332740Y1010660D01*
X2332040Y1008379D01*
X2331800Y1005800D01*
G37*
G36*
X2114160Y1031820D02*
G01*
X2119700Y1032000D01*
X2125160Y1032880D01*
X2130460Y1034460D01*
X2135540Y1036700D01*
X2140280Y1039580D01*
X2143220Y1041880D01*
X2160660Y1054520D01*
X2161780Y1055100D01*
X2163020Y1055300D01*
X2327540Y1055300D01*
X2328760Y1055100D01*
X2329880Y1054520D01*
X2346900Y1042180D01*
X2351440Y1038800D01*
X2356260Y1036080D01*
X2361380Y1034000D01*
X2366740Y1032600D01*
X2372240Y1031880D01*
X2377760Y1031880D01*
X2383260Y1032600D01*
X2388620Y1034000D01*
X2393740Y1036080D01*
X2398560Y1038800D01*
X2403000Y1042099D01*
X2406980Y1045960D01*
X2410440Y1050280D01*
X2413300Y1055020D01*
X2415540Y1060080D01*
X2417120Y1065380D01*
X2418000Y1070860D01*
X2418180Y1076380D01*
X2417640Y1081900D01*
X2416420Y1087300D01*
X2414500Y1092480D01*
X2411940Y1097400D01*
X2408780Y1101940D01*
X2405060Y1106040D01*
X2400840Y1109620D01*
X2396200Y1112640D01*
X2391220Y1115040D01*
X2385960Y1116780D01*
X2380520Y1117840D01*
X2375000Y1118200D01*
X2369480Y1117840D01*
X2364040Y1116780D01*
X2358780Y1115040D01*
X2353800Y1112640D01*
X2349140Y1109600D01*
X2347320Y1108120D01*
X2329880Y1095480D01*
X2328760Y1094900D01*
X2327540Y1094700D01*
X2163020Y1094700D01*
X2161780Y1094900D01*
X2160660Y1095480D01*
X2143120Y1108220D01*
X2140280Y1110420D01*
X2135540Y1113300D01*
X2130460Y1115540D01*
X2125160Y1117120D01*
X2119700Y1118000D01*
X2114160Y1118180D01*
X2108660Y1117640D01*
X2103260Y1116420D01*
X2098060Y1114500D01*
X2093160Y1111940D01*
X2088620Y1108780D01*
X2084520Y1105060D01*
X2080920Y1100840D01*
X2077900Y1096200D01*
X2075500Y1091220D01*
X2073760Y1085960D01*
X2072700Y1080520D01*
X2072360Y1075000D01*
X2072700Y1069480D01*
X2073760Y1064040D01*
X2075500Y1058780D01*
X2077900Y1053800D01*
X2080920Y1049160D01*
X2084520Y1044940D01*
X2088620Y1041220D01*
X2093160Y1038060D01*
X2098060Y1035500D01*
X2103260Y1033580D01*
X2108660Y1032360D01*
G37*
G36*
X716100Y1119340D02*
G01*
X1684900Y1119340D01*
X1687540Y1119600D01*
X1689960Y1120400D01*
X1692180Y1121680D01*
X1694060Y1123380D01*
X1695560Y1125440D01*
X1696600Y1127780D01*
X1697140Y1130260D01*
X1697200Y1131640D01*
X1697200Y1243260D01*
X1696940Y1245900D01*
X1696140Y1248320D01*
X1694880Y1250540D01*
X1693160Y1252440D01*
X1691100Y1253940D01*
X1688779Y1254960D01*
X1686279Y1255500D01*
X1684900Y1255580D01*
X716100Y1255580D01*
X713460Y1255300D01*
X711040Y1254520D01*
X708820Y1253240D01*
X706940Y1251520D01*
X705440Y1249460D01*
X704400Y1247140D01*
X703860Y1244640D01*
X703800Y1243260D01*
X703800Y1131640D01*
X704060Y1129000D01*
X704860Y1126580D01*
X706120Y1124380D01*
X707840Y1122480D01*
X709900Y1120980D01*
X712220Y1119940D01*
X714720Y1119400D01*
G37*
G36*
X2344200Y1131800D02*
G01*
X2369000Y1131800D01*
X2369000Y1169000D01*
X2331800Y1169000D01*
X2331800Y1144200D01*
X2332040Y1141620D01*
X2332740Y1139340D01*
X2333860Y1137220D01*
X2335380Y1135380D01*
X2337220Y1133860D01*
X2339340Y1132740D01*
X2341620Y1132040D01*
G37*
G36*
X2381000Y1131800D02*
G01*
X2405800Y1131800D01*
X2408380Y1132040D01*
X2410660Y1132740D01*
X2412780Y1133860D01*
X2414620Y1135380D01*
X2416140Y1137220D01*
X2417260Y1139340D01*
X2417960Y1141620D01*
X2418200Y1144200D01*
X2418200Y1169000D01*
X2381000Y1169000D01*
G37*
G36*
X2109560Y1132260D02*
G01*
X2109560Y1169000D01*
X2072800Y1169000D01*
X2073760Y1164040D01*
X2075500Y1158780D01*
X2077900Y1153800D01*
X2080920Y1149160D01*
X2084520Y1144940D01*
X2088620Y1141220D01*
X2093160Y1138060D01*
X2098060Y1135500D01*
X2103260Y1133580D01*
X2108660Y1132360D01*
G37*
G36*
X2121560Y1132300D02*
G01*
X2125160Y1132880D01*
X2130460Y1134460D01*
X2135540Y1136700D01*
X2140260Y1139560D01*
X2144600Y1143020D01*
X2148440Y1147000D01*
X2151760Y1151440D01*
X2154480Y1156260D01*
X2156540Y1161380D01*
X2157960Y1166740D01*
X2158240Y1169000D01*
X2121560Y1169000D01*
G37*
G36*
X2121560Y1181000D02*
G01*
X2158240Y1181000D01*
X2157960Y1183260D01*
X2156540Y1188620D01*
X2154480Y1193740D01*
X2151760Y1198560D01*
X2148440Y1203000D01*
X2144600Y1206980D01*
X2140260Y1210440D01*
X2135540Y1213300D01*
X2130460Y1215540D01*
X2125160Y1217120D01*
X2121560Y1217700D01*
G37*
G36*
X2072800Y1181000D02*
G01*
X2109560Y1181000D01*
X2109560Y1217740D01*
X2108660Y1217640D01*
X2103260Y1216420D01*
X2098060Y1214500D01*
X2093160Y1211940D01*
X2088620Y1208780D01*
X2084520Y1205060D01*
X2080920Y1200840D01*
X2077900Y1196200D01*
X2075500Y1191220D01*
X2073760Y1185960D01*
G37*
G36*
X2381000Y1181000D02*
G01*
X2418200Y1181000D01*
X2418200Y1205800D01*
X2417960Y1208380D01*
X2417260Y1210660D01*
X2416140Y1212780D01*
X2414620Y1214620D01*
X2412780Y1216140D01*
X2410660Y1217260D01*
X2408380Y1217960D01*
X2405800Y1218200D01*
X2381000Y1218200D01*
G37*
G36*
X2331800Y1181000D02*
G01*
X2369000Y1181000D01*
X2369000Y1218200D01*
X2344200Y1218200D01*
X2341620Y1217960D01*
X2339340Y1217260D01*
X2337220Y1216140D01*
X2335380Y1214620D01*
X2333860Y1212780D01*
X2332740Y1210660D01*
X2332040Y1208380D01*
X2331800Y1205800D01*
G37*
G36*
X2116940Y1231820D02*
G01*
X2122440Y1232360D01*
X2127840Y1233580D01*
X2133040Y1235500D01*
X2137940Y1238060D01*
X2142480Y1241220D01*
X2143240Y1241880D01*
X2160660Y1254520D01*
X2161780Y1255100D01*
X2163020Y1255300D01*
X2327540Y1255300D01*
X2328760Y1255100D01*
X2329880Y1254520D01*
X2346900Y1242180D01*
X2351440Y1238800D01*
X2356260Y1236080D01*
X2361380Y1234000D01*
X2366740Y1232600D01*
X2372240Y1231880D01*
X2377760Y1231880D01*
X2383260Y1232600D01*
X2388620Y1234000D01*
X2393740Y1236080D01*
X2398560Y1238800D01*
X2403000Y1242100D01*
X2406980Y1245960D01*
X2410440Y1250280D01*
X2413300Y1255020D01*
X2415540Y1260080D01*
X2417120Y1265380D01*
X2418000Y1270860D01*
X2418180Y1276380D01*
X2417640Y1281900D01*
X2416420Y1287300D01*
X2414500Y1292480D01*
X2411940Y1297400D01*
X2408780Y1301940D01*
X2405060Y1306040D01*
X2400840Y1309620D01*
X2396200Y1312640D01*
X2391220Y1315040D01*
X2385960Y1316780D01*
X2380520Y1317840D01*
X2375000Y1318200D01*
X2369480Y1317840D01*
X2364040Y1316780D01*
X2358780Y1315040D01*
X2353800Y1312640D01*
X2349140Y1309600D01*
X2347320Y1308120D01*
X2329880Y1295480D01*
X2328760Y1294900D01*
X2327540Y1294700D01*
X2163020Y1294700D01*
X2161780Y1294900D01*
X2160660Y1295480D01*
X2143240Y1308120D01*
X2142480Y1308779D01*
X2137940Y1311940D01*
X2133040Y1314500D01*
X2127840Y1316420D01*
X2122440Y1317640D01*
X2116940Y1318180D01*
X2111400Y1318000D01*
X2105940Y1317120D01*
X2100640Y1315540D01*
X2095560Y1313300D01*
X2090840Y1310440D01*
X2086500Y1306980D01*
X2082660Y1303000D01*
X2079340Y1298560D01*
X2076620Y1293740D01*
X2074560Y1288620D01*
X2073140Y1283260D01*
X2072440Y1277760D01*
X2072440Y1272240D01*
X2073140Y1266740D01*
X2074560Y1261380D01*
X2076620Y1256260D01*
X2079340Y1251440D01*
X2082660Y1247000D01*
X2086500Y1243020D01*
X2090840Y1239560D01*
X2095560Y1236700D01*
X2100640Y1234460D01*
X2105940Y1232880D01*
X2111400Y1232000D01*
G37*
G36*
X2344200Y1331800D02*
G01*
X2369000Y1331800D01*
X2369000Y1369000D01*
X2331800Y1369000D01*
X2331800Y1344199D01*
X2332040Y1341620D01*
X2332740Y1339340D01*
X2333860Y1337220D01*
X2335380Y1335380D01*
X2337220Y1333860D01*
X2339340Y1332740D01*
X2341620Y1332040D01*
G37*
G36*
X2381000Y1331800D02*
G01*
X2405800Y1331800D01*
X2408380Y1332040D01*
X2410660Y1332740D01*
X2412780Y1333860D01*
X2414620Y1335380D01*
X2416140Y1337220D01*
X2417260Y1339340D01*
X2417960Y1341620D01*
X2418200Y1344199D01*
X2418200Y1369000D01*
X2381000Y1369000D01*
G37*
G36*
X2275000Y1331800D02*
G01*
X2280520Y1332160D01*
X2285960Y1333220D01*
X2291220Y1334960D01*
X2296200Y1337360D01*
X2300840Y1340380D01*
X2305060Y1343959D01*
X2308780Y1348060D01*
X2311940Y1352600D01*
X2314500Y1357520D01*
X2316420Y1362700D01*
X2317640Y1368100D01*
X2318180Y1373620D01*
X2318000Y1379139D01*
X2317120Y1384620D01*
X2315540Y1389920D01*
X2313300Y1394980D01*
X2310440Y1399720D01*
X2306980Y1404040D01*
X2303000Y1407900D01*
X2298560Y1411200D01*
X2293740Y1413920D01*
X2288620Y1416000D01*
X2283260Y1417400D01*
X2277760Y1418120D01*
X2272240Y1418120D01*
X2266740Y1417400D01*
X2261380Y1416000D01*
X2256260Y1413920D01*
X2251440Y1411200D01*
X2229880Y1395480D01*
X2228760Y1394900D01*
X2227540Y1394700D01*
X1309820Y1394700D01*
X1308280Y1395020D01*
X1307000Y1395880D01*
X1245880Y1457000D01*
X1245020Y1458280D01*
X1244700Y1459820D01*
X1244700Y1477540D01*
X1244900Y1478760D01*
X1245480Y1479880D01*
X1258220Y1497440D01*
X1260420Y1500260D01*
X1263300Y1505020D01*
X1265540Y1510080D01*
X1267120Y1515380D01*
X1268000Y1520860D01*
X1268180Y1526380D01*
X1267640Y1531900D01*
X1266420Y1537300D01*
X1264500Y1542480D01*
X1261940Y1547400D01*
X1258780Y1551940D01*
X1255060Y1556040D01*
X1250840Y1559620D01*
X1246200Y1562640D01*
X1241220Y1565040D01*
X1235960Y1566780D01*
X1230520Y1567840D01*
X1225000Y1568200D01*
X1219480Y1567840D01*
X1214040Y1566780D01*
X1208780Y1565040D01*
X1203800Y1562640D01*
X1199160Y1559620D01*
X1194940Y1556040D01*
X1191220Y1551940D01*
X1188060Y1547400D01*
X1185500Y1542480D01*
X1183580Y1537300D01*
X1182360Y1531900D01*
X1181820Y1526380D01*
X1182000Y1520860D01*
X1182880Y1515380D01*
X1184460Y1510080D01*
X1186700Y1505020D01*
X1189580Y1500260D01*
X1191880Y1497320D01*
X1204520Y1479880D01*
X1205100Y1478760D01*
X1205300Y1477540D01*
X1205300Y1450080D01*
X1205380Y1448280D01*
X1205600Y1446579D01*
X1205960Y1444900D01*
X1206480Y1443260D01*
X1207140Y1441680D01*
X1207940Y1440140D01*
X1208860Y1438700D01*
X1209900Y1437340D01*
X1211120Y1436000D01*
X1286000Y1361120D01*
X1287340Y1359900D01*
X1288700Y1358860D01*
X1290140Y1357940D01*
X1291680Y1357140D01*
X1293260Y1356480D01*
X1294900Y1355960D01*
X1296579Y1355600D01*
X1298280Y1355380D01*
X1300080Y1355300D01*
X2227540Y1355300D01*
X2228760Y1355100D01*
X2229880Y1354520D01*
X2247500Y1341720D01*
X2249140Y1340400D01*
X2253800Y1337360D01*
X2258780Y1334960D01*
X2264040Y1333220D01*
X2269480Y1332160D01*
G37*
G36*
X2381000Y1381000D02*
G01*
X2418200Y1381000D01*
X2418200Y1405800D01*
X2417960Y1408380D01*
X2417260Y1410660D01*
X2416140Y1412780D01*
X2414620Y1414620D01*
X2412780Y1416140D01*
X2410660Y1417260D01*
X2408380Y1417960D01*
X2405800Y1418200D01*
X2381000Y1418200D01*
G37*
G36*
X2331800Y1381000D02*
G01*
X2369000Y1381000D01*
X2369000Y1418200D01*
X2344200Y1418200D01*
X2341620Y1417960D01*
X2339340Y1417260D01*
X2337220Y1416140D01*
X2335380Y1414620D01*
X2333860Y1412780D01*
X2332740Y1410660D01*
X2332040Y1408380D01*
X2331800Y1405800D01*
G37*
G36*
X2372240Y1431879D02*
G01*
X2377760Y1431879D01*
X2383260Y1432600D01*
X2388620Y1434000D01*
X2393740Y1436080D01*
X2398560Y1438800D01*
X2403000Y1442100D01*
X2406980Y1445960D01*
X2410440Y1450280D01*
X2413300Y1455020D01*
X2415540Y1460080D01*
X2417120Y1465380D01*
X2418000Y1470860D01*
X2418180Y1476380D01*
X2417640Y1481900D01*
X2416420Y1487300D01*
X2414500Y1492480D01*
X2411940Y1497400D01*
X2408780Y1501940D01*
X2405060Y1506040D01*
X2400840Y1509620D01*
X2396200Y1512640D01*
X2391220Y1515040D01*
X2385960Y1516780D01*
X2380520Y1517840D01*
X2375000Y1518200D01*
X2369480Y1517840D01*
X2364040Y1516780D01*
X2358780Y1515040D01*
X2353800Y1512640D01*
X2349140Y1509600D01*
X2347320Y1508120D01*
X2329880Y1495480D01*
X2328760Y1494900D01*
X2327540Y1494700D01*
X2184820Y1494700D01*
X2183280Y1495020D01*
X2182000Y1495880D01*
X2172500Y1505380D01*
X2171760Y1506380D01*
X2171380Y1507580D01*
X2167980Y1529040D01*
X2167660Y1531860D01*
X2166420Y1537300D01*
X2164500Y1542480D01*
X2161940Y1547400D01*
X2158780Y1551940D01*
X2155060Y1556040D01*
X2150840Y1559620D01*
X2146200Y1562640D01*
X2141220Y1565040D01*
X2135960Y1566780D01*
X2130520Y1567840D01*
X2125000Y1568200D01*
X2119480Y1567840D01*
X2114040Y1566780D01*
X2108780Y1565040D01*
X2103800Y1562640D01*
X2099160Y1559620D01*
X2094940Y1556040D01*
X2091220Y1551940D01*
X2088060Y1547400D01*
X2085500Y1542480D01*
X2083580Y1537300D01*
X2082360Y1531900D01*
X2081819Y1526380D01*
X2082000Y1520860D01*
X2082880Y1515380D01*
X2084460Y1510080D01*
X2086699Y1505020D01*
X2089560Y1500280D01*
X2093020Y1495960D01*
X2097000Y1492100D01*
X2101440Y1488800D01*
X2106260Y1486080D01*
X2111380Y1484000D01*
X2116760Y1482600D01*
X2121140Y1482000D01*
X2142420Y1478620D01*
X2143620Y1478240D01*
X2144620Y1477500D01*
X2161000Y1461120D01*
X2162340Y1459900D01*
X2163700Y1458860D01*
X2165140Y1457940D01*
X2166680Y1457140D01*
X2168260Y1456480D01*
X2169900Y1455960D01*
X2171580Y1455600D01*
X2173280Y1455380D01*
X2175080Y1455300D01*
X2327540Y1455300D01*
X2328760Y1455100D01*
X2329880Y1454520D01*
X2346900Y1442180D01*
X2351440Y1438800D01*
X2356260Y1436080D01*
X2361380Y1434000D01*
X2366740Y1432600D01*
G37*
G36*
X522239Y1481879D02*
G01*
X527760Y1481879D01*
X533260Y1482600D01*
X538620Y1484000D01*
X543740Y1486080D01*
X548560Y1488800D01*
X553000Y1492100D01*
X556980Y1495960D01*
X560440Y1500280D01*
X563300Y1505020D01*
X565540Y1510080D01*
X567120Y1515380D01*
X568000Y1520860D01*
X568180Y1526380D01*
X567640Y1531900D01*
X566420Y1537300D01*
X564500Y1542480D01*
X561940Y1547400D01*
X558780Y1551940D01*
X555060Y1556040D01*
X550840Y1559620D01*
X546200Y1562640D01*
X541220Y1565040D01*
X535960Y1566780D01*
X530520Y1567840D01*
X525000Y1568200D01*
X519480Y1567840D01*
X514040Y1566780D01*
X508780Y1565040D01*
X503800Y1562640D01*
X499159Y1559620D01*
X494940Y1556040D01*
X491220Y1551940D01*
X488060Y1547400D01*
X485500Y1542480D01*
X483579Y1537300D01*
X482360Y1531900D01*
X481820Y1526380D01*
X482000Y1520860D01*
X482879Y1515380D01*
X484460Y1510080D01*
X486700Y1505020D01*
X489560Y1500280D01*
X493020Y1495960D01*
X497000Y1492100D01*
X501440Y1488800D01*
X506260Y1486080D01*
X511380Y1484000D01*
X516740Y1482600D01*
G37*
G36*
X322239Y1481879D02*
G01*
X327760Y1481879D01*
X333260Y1482600D01*
X338620Y1484000D01*
X343740Y1486080D01*
X348560Y1488800D01*
X353000Y1492100D01*
X356980Y1495960D01*
X360439Y1500280D01*
X363300Y1505020D01*
X365540Y1510080D01*
X367120Y1515380D01*
X368000Y1520860D01*
X368180Y1526380D01*
X367640Y1531900D01*
X366420Y1537300D01*
X364500Y1542480D01*
X361940Y1547400D01*
X358780Y1551940D01*
X355060Y1556040D01*
X350840Y1559620D01*
X346200Y1562640D01*
X341220Y1565040D01*
X335959Y1566780D01*
X330520Y1567840D01*
X325000Y1568200D01*
X319480Y1567840D01*
X314040Y1566780D01*
X308780Y1565040D01*
X303800Y1562640D01*
X299160Y1559620D01*
X294940Y1556040D01*
X291220Y1551940D01*
X288060Y1547400D01*
X285500Y1542480D01*
X283580Y1537300D01*
X282360Y1531900D01*
X281820Y1526380D01*
X282000Y1520860D01*
X282880Y1515380D01*
X284460Y1510080D01*
X286700Y1505020D01*
X289560Y1500280D01*
X293020Y1495960D01*
X297000Y1492100D01*
X301440Y1488800D01*
X306260Y1486080D01*
X311380Y1484000D01*
X316740Y1482600D01*
G37*
G36*
X722240Y1481879D02*
G01*
X727760Y1481879D01*
X733259Y1482600D01*
X738620Y1484000D01*
X743740Y1486080D01*
X748560Y1488800D01*
X753000Y1492100D01*
X756979Y1495960D01*
X760440Y1500280D01*
X763300Y1505020D01*
X765540Y1510080D01*
X767120Y1515380D01*
X768000Y1520860D01*
X768180Y1526380D01*
X767640Y1531900D01*
X766420Y1537300D01*
X764500Y1542480D01*
X761940Y1547400D01*
X758780Y1551940D01*
X755060Y1556040D01*
X750840Y1559620D01*
X746200Y1562640D01*
X741220Y1565040D01*
X735960Y1566780D01*
X730520Y1567840D01*
X725000Y1568200D01*
X719479Y1567840D01*
X714040Y1566780D01*
X708780Y1565040D01*
X703800Y1562640D01*
X699160Y1559620D01*
X694940Y1556040D01*
X691220Y1551940D01*
X688060Y1547400D01*
X685500Y1542480D01*
X683580Y1537300D01*
X682360Y1531900D01*
X681820Y1526380D01*
X682000Y1520860D01*
X682880Y1515380D01*
X684460Y1510080D01*
X686700Y1505020D01*
X689560Y1500280D01*
X693020Y1495960D01*
X697000Y1492100D01*
X701440Y1488800D01*
X706260Y1486080D01*
X711380Y1484000D01*
X716740Y1482600D01*
G37*
G36*
X822240Y1481879D02*
G01*
X827760Y1481879D01*
X833259Y1482600D01*
X838620Y1484000D01*
X843740Y1486080D01*
X848560Y1488800D01*
X853000Y1492100D01*
X856979Y1495960D01*
X860440Y1500280D01*
X863300Y1505020D01*
X865540Y1510080D01*
X867120Y1515380D01*
X868000Y1520860D01*
X868180Y1526380D01*
X867640Y1531900D01*
X866420Y1537300D01*
X864500Y1542480D01*
X861940Y1547400D01*
X858780Y1551940D01*
X855060Y1556040D01*
X850840Y1559620D01*
X846200Y1562640D01*
X841220Y1565040D01*
X835960Y1566780D01*
X830520Y1567840D01*
X825000Y1568200D01*
X819479Y1567840D01*
X814040Y1566780D01*
X808780Y1565040D01*
X803800Y1562640D01*
X799160Y1559620D01*
X794940Y1556040D01*
X791220Y1551940D01*
X788060Y1547400D01*
X785500Y1542480D01*
X783580Y1537300D01*
X782360Y1531900D01*
X781820Y1526380D01*
X782000Y1520860D01*
X782880Y1515380D01*
X784460Y1510080D01*
X786700Y1505020D01*
X789560Y1500280D01*
X793020Y1495960D01*
X797000Y1492100D01*
X801440Y1488800D01*
X806260Y1486080D01*
X811380Y1484000D01*
X816740Y1482600D01*
G37*
G36*
X1822240Y1481879D02*
G01*
X1827760Y1481879D01*
X1833260Y1482600D01*
X1838620Y1484000D01*
X1843740Y1486080D01*
X1848560Y1488800D01*
X1853000Y1492100D01*
X1856980Y1495960D01*
X1860440Y1500280D01*
X1863300Y1505020D01*
X1865540Y1510080D01*
X1867120Y1515380D01*
X1868000Y1520860D01*
X1868180Y1526380D01*
X1867640Y1531900D01*
X1866420Y1537300D01*
X1864500Y1542480D01*
X1861940Y1547400D01*
X1858779Y1551940D01*
X1855060Y1556040D01*
X1850840Y1559620D01*
X1846200Y1562640D01*
X1841220Y1565040D01*
X1835960Y1566780D01*
X1830520Y1567840D01*
X1825000Y1568200D01*
X1819480Y1567840D01*
X1814040Y1566780D01*
X1808779Y1565040D01*
X1803800Y1562640D01*
X1799160Y1559620D01*
X1794940Y1556040D01*
X1791220Y1551940D01*
X1788060Y1547400D01*
X1785500Y1542480D01*
X1783580Y1537300D01*
X1782360Y1531900D01*
X1781819Y1526380D01*
X1782000Y1520860D01*
X1782880Y1515380D01*
X1784460Y1510080D01*
X1786699Y1505020D01*
X1789560Y1500280D01*
X1793020Y1495960D01*
X1797000Y1492100D01*
X1801440Y1488800D01*
X1806260Y1486080D01*
X1811380Y1484000D01*
X1816740Y1482600D01*
G37*
G36*
X1122240Y1481879D02*
G01*
X1127760Y1481879D01*
X1133260Y1482600D01*
X1138620Y1484000D01*
X1143740Y1486080D01*
X1148560Y1488800D01*
X1153000Y1492100D01*
X1156980Y1495960D01*
X1160440Y1500280D01*
X1163300Y1505020D01*
X1165540Y1510080D01*
X1167120Y1515380D01*
X1168000Y1520860D01*
X1168180Y1526380D01*
X1167640Y1531900D01*
X1166420Y1537300D01*
X1164500Y1542480D01*
X1161940Y1547400D01*
X1158780Y1551940D01*
X1155060Y1556040D01*
X1150840Y1559620D01*
X1146200Y1562640D01*
X1141220Y1565040D01*
X1135960Y1566780D01*
X1130520Y1567840D01*
X1125000Y1568200D01*
X1119480Y1567840D01*
X1114040Y1566780D01*
X1108780Y1565040D01*
X1103800Y1562640D01*
X1099160Y1559620D01*
X1094940Y1556040D01*
X1091220Y1551940D01*
X1088060Y1547400D01*
X1085500Y1542480D01*
X1083580Y1537300D01*
X1082360Y1531900D01*
X1081820Y1526380D01*
X1082000Y1520860D01*
X1082880Y1515380D01*
X1084460Y1510080D01*
X1086700Y1505020D01*
X1089560Y1500280D01*
X1093020Y1495960D01*
X1097000Y1492100D01*
X1101440Y1488800D01*
X1106260Y1486080D01*
X1111380Y1484000D01*
X1116740Y1482600D01*
G37*
G36*
X1322240Y1481879D02*
G01*
X1327760Y1481879D01*
X1333260Y1482600D01*
X1338620Y1484000D01*
X1343740Y1486080D01*
X1348560Y1488800D01*
X1353000Y1492100D01*
X1356980Y1495960D01*
X1360440Y1500280D01*
X1363300Y1505020D01*
X1365540Y1510080D01*
X1367120Y1515380D01*
X1368000Y1520860D01*
X1368180Y1526380D01*
X1367640Y1531900D01*
X1366420Y1537300D01*
X1364500Y1542480D01*
X1361940Y1547400D01*
X1358779Y1551940D01*
X1355060Y1556040D01*
X1350840Y1559620D01*
X1346200Y1562640D01*
X1341220Y1565040D01*
X1335960Y1566780D01*
X1330520Y1567840D01*
X1325000Y1568200D01*
X1319480Y1567840D01*
X1314040Y1566780D01*
X1308779Y1565040D01*
X1303800Y1562640D01*
X1299160Y1559620D01*
X1294940Y1556040D01*
X1291220Y1551940D01*
X1288060Y1547400D01*
X1285500Y1542480D01*
X1283580Y1537300D01*
X1282360Y1531900D01*
X1281819Y1526380D01*
X1282000Y1520860D01*
X1282880Y1515380D01*
X1284460Y1510080D01*
X1286699Y1505020D01*
X1289560Y1500280D01*
X1293020Y1495960D01*
X1297000Y1492100D01*
X1301440Y1488800D01*
X1306260Y1486080D01*
X1311380Y1484000D01*
X1316740Y1482600D01*
G37*
G36*
X1522240Y1481879D02*
G01*
X1527760Y1481879D01*
X1533260Y1482600D01*
X1538620Y1484000D01*
X1543740Y1486080D01*
X1548560Y1488800D01*
X1553000Y1492100D01*
X1556980Y1495960D01*
X1560440Y1500280D01*
X1563300Y1505020D01*
X1565540Y1510080D01*
X1567120Y1515380D01*
X1568000Y1520860D01*
X1568180Y1526380D01*
X1567640Y1531900D01*
X1566420Y1537300D01*
X1564500Y1542480D01*
X1561940Y1547400D01*
X1558779Y1551940D01*
X1555060Y1556040D01*
X1550840Y1559620D01*
X1546200Y1562640D01*
X1541220Y1565040D01*
X1535960Y1566780D01*
X1530520Y1567840D01*
X1525000Y1568200D01*
X1519480Y1567840D01*
X1514040Y1566780D01*
X1508779Y1565040D01*
X1503800Y1562640D01*
X1499160Y1559620D01*
X1494940Y1556040D01*
X1491220Y1551940D01*
X1488060Y1547400D01*
X1485500Y1542480D01*
X1483580Y1537300D01*
X1482360Y1531900D01*
X1481819Y1526380D01*
X1482000Y1520860D01*
X1482880Y1515380D01*
X1484460Y1510080D01*
X1486699Y1505020D01*
X1489560Y1500280D01*
X1493020Y1495960D01*
X1497000Y1492100D01*
X1501440Y1488800D01*
X1506260Y1486080D01*
X1511380Y1484000D01*
X1516740Y1482600D01*
G37*
G36*
X1022240Y1481879D02*
G01*
X1027760Y1481879D01*
X1033259Y1482600D01*
X1038620Y1484000D01*
X1043740Y1486080D01*
X1048560Y1488800D01*
X1053000Y1492100D01*
X1056980Y1495960D01*
X1060440Y1500280D01*
X1063300Y1505020D01*
X1065540Y1510080D01*
X1067120Y1515380D01*
X1068000Y1520860D01*
X1068180Y1526380D01*
X1067640Y1531900D01*
X1066420Y1537300D01*
X1064500Y1542480D01*
X1061940Y1547400D01*
X1058780Y1551940D01*
X1055060Y1556040D01*
X1050840Y1559620D01*
X1046200Y1562640D01*
X1041220Y1565040D01*
X1035960Y1566780D01*
X1030520Y1567840D01*
X1025000Y1568200D01*
X1019479Y1567840D01*
X1014040Y1566780D01*
X1008780Y1565040D01*
X1003800Y1562640D01*
X999160Y1559620D01*
X994940Y1556040D01*
X991220Y1551940D01*
X988060Y1547400D01*
X985500Y1542480D01*
X983580Y1537300D01*
X982360Y1531900D01*
X981820Y1526380D01*
X982000Y1520860D01*
X982880Y1515380D01*
X984460Y1510080D01*
X986700Y1505020D01*
X989560Y1500280D01*
X993020Y1495960D01*
X997000Y1492100D01*
X1001440Y1488800D01*
X1006260Y1486080D01*
X1011380Y1484000D01*
X1016740Y1482600D01*
G37*
G36*
X1722240Y1481879D02*
G01*
X1727760Y1481879D01*
X1733260Y1482600D01*
X1738620Y1484000D01*
X1743740Y1486080D01*
X1748560Y1488800D01*
X1753000Y1492100D01*
X1756980Y1495960D01*
X1760440Y1500280D01*
X1763300Y1505020D01*
X1765540Y1510080D01*
X1767120Y1515380D01*
X1768000Y1520860D01*
X1768180Y1526380D01*
X1767640Y1531900D01*
X1766420Y1537300D01*
X1764500Y1542480D01*
X1761940Y1547400D01*
X1758779Y1551940D01*
X1755060Y1556040D01*
X1750840Y1559620D01*
X1746200Y1562640D01*
X1741220Y1565040D01*
X1735960Y1566780D01*
X1730520Y1567840D01*
X1725000Y1568200D01*
X1719480Y1567840D01*
X1714040Y1566780D01*
X1708779Y1565040D01*
X1703800Y1562640D01*
X1699160Y1559620D01*
X1694940Y1556040D01*
X1691220Y1551940D01*
X1688060Y1547400D01*
X1685500Y1542480D01*
X1683580Y1537300D01*
X1682360Y1531900D01*
X1681819Y1526380D01*
X1682000Y1520860D01*
X1682880Y1515380D01*
X1684460Y1510080D01*
X1686699Y1505020D01*
X1689560Y1500280D01*
X1693020Y1495960D01*
X1697000Y1492100D01*
X1701440Y1488800D01*
X1706260Y1486080D01*
X1711380Y1484000D01*
X1716740Y1482600D01*
G37*
G36*
X1622240Y1481879D02*
G01*
X1627760Y1481879D01*
X1633260Y1482600D01*
X1638620Y1484000D01*
X1643740Y1486080D01*
X1648560Y1488800D01*
X1653000Y1492100D01*
X1656980Y1495960D01*
X1660440Y1500280D01*
X1663300Y1505020D01*
X1665540Y1510080D01*
X1667120Y1515380D01*
X1668000Y1520860D01*
X1668180Y1526380D01*
X1667640Y1531900D01*
X1666420Y1537300D01*
X1664500Y1542480D01*
X1661940Y1547400D01*
X1658779Y1551940D01*
X1655060Y1556040D01*
X1650840Y1559620D01*
X1646200Y1562640D01*
X1641220Y1565040D01*
X1635960Y1566780D01*
X1630520Y1567840D01*
X1625000Y1568200D01*
X1619480Y1567840D01*
X1614040Y1566780D01*
X1608779Y1565040D01*
X1603800Y1562640D01*
X1599160Y1559620D01*
X1594940Y1556040D01*
X1591220Y1551940D01*
X1588060Y1547400D01*
X1585500Y1542480D01*
X1583580Y1537300D01*
X1582360Y1531900D01*
X1581819Y1526380D01*
X1582000Y1520860D01*
X1582880Y1515380D01*
X1584460Y1510080D01*
X1586699Y1505020D01*
X1589560Y1500280D01*
X1593020Y1495960D01*
X1597000Y1492100D01*
X1601440Y1488800D01*
X1606260Y1486080D01*
X1611380Y1484000D01*
X1616740Y1482600D01*
G37*
G36*
X2022240Y1481879D02*
G01*
X2027760Y1481879D01*
X2033260Y1482600D01*
X2038620Y1484000D01*
X2043740Y1486080D01*
X2048560Y1488800D01*
X2053000Y1492100D01*
X2056980Y1495960D01*
X2060440Y1500280D01*
X2063300Y1505020D01*
X2065540Y1510080D01*
X2067120Y1515380D01*
X2068000Y1520860D01*
X2068180Y1526380D01*
X2067640Y1531900D01*
X2066420Y1537300D01*
X2064500Y1542480D01*
X2061940Y1547400D01*
X2058779Y1551940D01*
X2058120Y1552700D01*
X2045480Y1570120D01*
X2044900Y1571240D01*
X2044700Y1572460D01*
X2044700Y1580180D01*
X2045020Y1581720D01*
X2045880Y1583000D01*
X2047000Y1584120D01*
X2048280Y1584980D01*
X2049820Y1585300D01*
X2225180Y1585300D01*
X2226720Y1584980D01*
X2228000Y1584120D01*
X2251000Y1561120D01*
X2252340Y1559900D01*
X2253700Y1558860D01*
X2255140Y1557940D01*
X2256680Y1557140D01*
X2258260Y1556480D01*
X2259900Y1555960D01*
X2261580Y1555600D01*
X2263280Y1555380D01*
X2265080Y1555300D01*
X2327540Y1555300D01*
X2328760Y1555100D01*
X2329880Y1554520D01*
X2346900Y1542180D01*
X2351440Y1538800D01*
X2356260Y1536080D01*
X2361380Y1534000D01*
X2366740Y1532600D01*
X2372240Y1531879D01*
X2377760Y1531879D01*
X2383260Y1532600D01*
X2388620Y1534000D01*
X2393740Y1536080D01*
X2398560Y1538800D01*
X2403000Y1542100D01*
X2406980Y1545960D01*
X2410440Y1550280D01*
X2413300Y1555020D01*
X2415540Y1560080D01*
X2417120Y1565380D01*
X2418000Y1570860D01*
X2418180Y1576380D01*
X2417640Y1581900D01*
X2416420Y1587300D01*
X2414500Y1592480D01*
X2411940Y1597400D01*
X2408780Y1601940D01*
X2405060Y1606040D01*
X2400840Y1609620D01*
X2396200Y1612640D01*
X2391220Y1615040D01*
X2385960Y1616780D01*
X2380520Y1617840D01*
X2375000Y1618200D01*
X2369480Y1617840D01*
X2364040Y1616780D01*
X2358780Y1615040D01*
X2353800Y1612640D01*
X2349140Y1609600D01*
X2347320Y1608120D01*
X2329880Y1595480D01*
X2328760Y1594900D01*
X2327540Y1594700D01*
X2274820Y1594700D01*
X2273280Y1595020D01*
X2272000Y1595880D01*
X2249000Y1618880D01*
X2247660Y1620100D01*
X2246300Y1621140D01*
X2244860Y1622060D01*
X2243320Y1622860D01*
X2241740Y1623520D01*
X2240100Y1624040D01*
X2238420Y1624400D01*
X2236720Y1624620D01*
X2234920Y1624700D01*
X2040080Y1624700D01*
X2038280Y1624620D01*
X2036579Y1624400D01*
X2034900Y1624040D01*
X2033260Y1623520D01*
X2031680Y1622860D01*
X2030140Y1622060D01*
X2028700Y1621140D01*
X2027340Y1620100D01*
X2026000Y1618880D01*
X2011120Y1604000D01*
X2009900Y1602660D01*
X2008860Y1601300D01*
X2007940Y1599860D01*
X2007140Y1598320D01*
X2006480Y1596740D01*
X2005960Y1595100D01*
X2005600Y1593420D01*
X2005380Y1591720D01*
X2005300Y1589920D01*
X2005300Y1572460D01*
X2005100Y1571240D01*
X2004520Y1570120D01*
X1991879Y1552700D01*
X1991220Y1551940D01*
X1988060Y1547400D01*
X1985500Y1542480D01*
X1983580Y1537300D01*
X1982360Y1531900D01*
X1981819Y1526380D01*
X1982000Y1520860D01*
X1982880Y1515380D01*
X1984460Y1510080D01*
X1986699Y1505020D01*
X1989560Y1500280D01*
X1993020Y1495960D01*
X1997000Y1492100D01*
X2001440Y1488800D01*
X2006260Y1486080D01*
X2011380Y1484000D01*
X2016740Y1482600D01*
G37*
G36*
X931000Y1482300D02*
G01*
X933259Y1482600D01*
X938620Y1484000D01*
X943740Y1486080D01*
X948560Y1488800D01*
X953000Y1492100D01*
X956979Y1495960D01*
X960440Y1500280D01*
X963300Y1505020D01*
X965540Y1510080D01*
X967120Y1515380D01*
X967700Y1519000D01*
X931000Y1519000D01*
G37*
G36*
X1431000Y1482300D02*
G01*
X1433260Y1482600D01*
X1438620Y1484000D01*
X1443740Y1486080D01*
X1448560Y1488800D01*
X1453000Y1492100D01*
X1456980Y1495960D01*
X1460440Y1500280D01*
X1463300Y1505020D01*
X1465540Y1510080D01*
X1467120Y1515380D01*
X1467700Y1519000D01*
X1431000Y1519000D01*
G37*
G36*
X419000Y1482300D02*
G01*
X419000Y1519000D01*
X382299Y1519000D01*
X382879Y1515380D01*
X384460Y1510080D01*
X386700Y1505020D01*
X389560Y1500280D01*
X393020Y1495960D01*
X397000Y1492100D01*
X401440Y1488800D01*
X406260Y1486080D01*
X411380Y1484000D01*
X416740Y1482600D01*
G37*
G36*
X431000Y1482300D02*
G01*
X433260Y1482600D01*
X438620Y1484000D01*
X443740Y1486080D01*
X448560Y1488800D01*
X453000Y1492100D01*
X456980Y1495960D01*
X460439Y1500280D01*
X463300Y1505020D01*
X465540Y1510080D01*
X467120Y1515380D01*
X467700Y1519000D01*
X431000Y1519000D01*
G37*
G36*
X1931000Y1482300D02*
G01*
X1933260Y1482600D01*
X1938620Y1484000D01*
X1943740Y1486080D01*
X1948560Y1488800D01*
X1953000Y1492100D01*
X1956980Y1495960D01*
X1960440Y1500280D01*
X1963300Y1505020D01*
X1965540Y1510080D01*
X1967120Y1515380D01*
X1967700Y1519000D01*
X1931000Y1519000D01*
G37*
G36*
X1919000Y1482300D02*
G01*
X1919000Y1519000D01*
X1882300Y1519000D01*
X1882880Y1515380D01*
X1884460Y1510080D01*
X1886699Y1505020D01*
X1889560Y1500280D01*
X1893020Y1495960D01*
X1897000Y1492100D01*
X1901440Y1488800D01*
X1906260Y1486080D01*
X1911380Y1484000D01*
X1916740Y1482600D01*
G37*
G36*
X919000Y1482300D02*
G01*
X919000Y1519000D01*
X882300Y1519000D01*
X882880Y1515380D01*
X884460Y1510080D01*
X886700Y1505020D01*
X889560Y1500280D01*
X893020Y1495960D01*
X897000Y1492100D01*
X901440Y1488800D01*
X906260Y1486080D01*
X911380Y1484000D01*
X916740Y1482600D01*
G37*
G36*
X1419000Y1482300D02*
G01*
X1419000Y1519000D01*
X1382300Y1519000D01*
X1382880Y1515380D01*
X1384460Y1510080D01*
X1386699Y1505020D01*
X1389560Y1500280D01*
X1393020Y1495960D01*
X1397000Y1492100D01*
X1401440Y1488800D01*
X1406260Y1486080D01*
X1411380Y1484000D01*
X1416740Y1482600D01*
G37*
G36*
X431000Y1531000D02*
G01*
X467740Y1531000D01*
X467640Y1531900D01*
X466420Y1537300D01*
X464500Y1542480D01*
X461940Y1547400D01*
X458780Y1551940D01*
X455060Y1556040D01*
X450840Y1559620D01*
X446200Y1562640D01*
X441220Y1565040D01*
X435959Y1566780D01*
X431000Y1567760D01*
G37*
G36*
X382260Y1531000D02*
G01*
X419000Y1531000D01*
X419000Y1567760D01*
X414040Y1566780D01*
X408780Y1565040D01*
X403800Y1562640D01*
X399159Y1559620D01*
X394940Y1556040D01*
X391220Y1551940D01*
X388060Y1547400D01*
X385500Y1542480D01*
X383579Y1537300D01*
X382360Y1531900D01*
G37*
G36*
X1382260Y1531000D02*
G01*
X1419000Y1531000D01*
X1419000Y1567760D01*
X1414040Y1566780D01*
X1408779Y1565040D01*
X1403800Y1562640D01*
X1399160Y1559620D01*
X1394940Y1556040D01*
X1391220Y1551940D01*
X1388060Y1547400D01*
X1385500Y1542480D01*
X1383580Y1537300D01*
X1382360Y1531900D01*
G37*
G36*
X1882260Y1531000D02*
G01*
X1919000Y1531000D01*
X1919000Y1567760D01*
X1914040Y1566780D01*
X1908779Y1565040D01*
X1903800Y1562640D01*
X1899160Y1559620D01*
X1894940Y1556040D01*
X1891220Y1551940D01*
X1888060Y1547400D01*
X1885500Y1542480D01*
X1883580Y1537300D01*
X1882360Y1531900D01*
G37*
G36*
X1931000Y1531000D02*
G01*
X1967740Y1531000D01*
X1967640Y1531900D01*
X1966420Y1537300D01*
X1964500Y1542480D01*
X1961940Y1547400D01*
X1958779Y1551940D01*
X1955060Y1556040D01*
X1950840Y1559620D01*
X1946200Y1562640D01*
X1941220Y1565040D01*
X1935960Y1566780D01*
X1931000Y1567760D01*
G37*
G36*
X882260Y1531000D02*
G01*
X919000Y1531000D01*
X919000Y1567760D01*
X914040Y1566780D01*
X908780Y1565040D01*
X903800Y1562640D01*
X899160Y1559620D01*
X894940Y1556040D01*
X891220Y1551940D01*
X888060Y1547400D01*
X885500Y1542480D01*
X883580Y1537300D01*
X882360Y1531900D01*
G37*
G36*
X931000Y1531000D02*
G01*
X967740Y1531000D01*
X967640Y1531900D01*
X966420Y1537300D01*
X964500Y1542480D01*
X961940Y1547400D01*
X958780Y1551940D01*
X955060Y1556040D01*
X950840Y1559620D01*
X946200Y1562640D01*
X941220Y1565040D01*
X935960Y1566780D01*
X931000Y1567760D01*
G37*
G36*
X1431000Y1531000D02*
G01*
X1467740Y1531000D01*
X1467640Y1531900D01*
X1466420Y1537300D01*
X1464500Y1542480D01*
X1461940Y1547400D01*
X1458779Y1551940D01*
X1455060Y1556040D01*
X1450840Y1559620D01*
X1446200Y1562640D01*
X1441220Y1565040D01*
X1435960Y1566780D01*
X1431000Y1567760D01*
G37*

%LPD*%
D10*
X1680000Y1238364D02*
G01*
X1680000Y1136545D01*
X1676818Y1238364D02*
G01*
X1676818Y1136545D01*
X1680000Y1238364D02*
G01*
X1657727Y1238364D01*
X1680000Y1136545D02*
G01*
X1657727Y1136545D01*
X1588999Y1209726D02*
G01*
X1592182Y1216091D01*
X1598545Y1222455D01*
X1604908Y1225635D01*
X1617636Y1225635D01*
X1623999Y1222455D01*
X1630363Y1216091D01*
X1633545Y1209726D01*
X1636727Y1200181D01*
X1636727Y1184272D01*
X1633545Y1174726D01*
X1630363Y1168364D01*
X1623999Y1161999D01*
X1617636Y1158818D01*
X1604908Y1158818D01*
X1598545Y1161999D01*
X1592182Y1168364D01*
X1588999Y1174726D01*
X1588999Y1184272D01*
X1604908Y1184272D02*
G01*
X1588999Y1184272D01*
X1529817Y1203364D02*
G01*
X1529817Y1158818D01*
X1529817Y1193818D02*
G01*
X1536181Y1200181D01*
X1542545Y1203364D01*
X1552091Y1203364D01*
X1558455Y1200181D01*
X1564817Y1193818D01*
X1568000Y1184272D01*
X1568000Y1177908D01*
X1564817Y1168364D01*
X1558455Y1161999D01*
X1552091Y1158818D01*
X1542545Y1158818D01*
X1536181Y1161999D01*
X1529817Y1168364D01*
X1508818Y1225635D02*
G01*
X1508818Y1158818D01*
X1449636Y1203364D02*
G01*
X1449636Y1158818D01*
X1449636Y1193818D02*
G01*
X1456000Y1200181D01*
X1462363Y1203364D01*
X1471908Y1203364D01*
X1478272Y1200181D01*
X1484636Y1193818D01*
X1487817Y1184272D01*
X1487817Y1177908D01*
X1484636Y1168364D01*
X1478272Y1161999D01*
X1471908Y1158818D01*
X1462363Y1158818D01*
X1456000Y1161999D01*
X1449636Y1168364D01*
X1428635Y1225635D02*
G01*
X1428635Y1158818D01*
X1396818Y1203364D02*
G01*
X1428635Y1171545D01*
X1415909Y1184272D02*
G01*
X1393635Y1158818D01*
X1337636Y1193818D02*
G01*
X1340817Y1200181D01*
X1350363Y1203364D01*
X1359908Y1203364D01*
X1369454Y1200181D01*
X1372636Y1193818D01*
X1369454Y1187455D01*
X1363091Y1184272D01*
X1347182Y1181091D01*
X1340817Y1177908D01*
X1337636Y1171545D01*
X1337636Y1168364D01*
X1340817Y1161999D01*
X1350363Y1158818D01*
X1359908Y1158818D01*
X1369454Y1161999D01*
X1372636Y1168364D01*
X1316635Y1225635D02*
G01*
X1313455Y1222455D01*
X1310272Y1225635D01*
X1313455Y1228818D01*
X1316635Y1225635D01*
X1313455Y1203364D02*
G01*
X1313455Y1158818D01*
X1276544Y1225635D02*
G01*
X1273364Y1222455D01*
X1270182Y1225635D01*
X1273364Y1228818D01*
X1276544Y1225635D01*
X1273364Y1203364D02*
G01*
X1273364Y1149272D01*
X1276544Y1139726D01*
X1282908Y1136545D01*
X1289273Y1136545D01*
X1211000Y1203364D02*
G01*
X1211000Y1158818D01*
X1211000Y1193818D02*
G01*
X1217363Y1200181D01*
X1223726Y1203364D01*
X1233272Y1203364D01*
X1239636Y1200181D01*
X1246000Y1193818D01*
X1249182Y1184272D01*
X1249182Y1177908D01*
X1246000Y1168364D01*
X1239636Y1161999D01*
X1233272Y1158818D01*
X1223726Y1158818D01*
X1217363Y1161999D01*
X1211000Y1168364D01*
X1141000Y1225635D02*
G01*
X1141000Y1177908D01*
X1137817Y1168364D01*
X1131454Y1161999D01*
X1121908Y1158818D01*
X1115545Y1158818D01*
X1106000Y1161999D01*
X1099636Y1168364D01*
X1096454Y1177908D01*
X1096454Y1225635D01*
X1030909Y1216091D02*
G01*
X1037272Y1222455D01*
X1046818Y1225635D01*
X1059544Y1225635D01*
X1069090Y1222455D01*
X1075455Y1216091D01*
X1075455Y1209726D01*
X1072272Y1203364D01*
X1069090Y1200181D01*
X1062727Y1196999D01*
X1043635Y1190635D01*
X1037272Y1187455D01*
X1034090Y1184272D01*
X1030909Y1177908D01*
X1030909Y1168364D01*
X1037272Y1161999D01*
X1046818Y1158818D01*
X1059544Y1158818D01*
X1069090Y1161999D01*
X1075455Y1168364D01*
X1009908Y1225635D02*
G01*
X1009908Y1158818D01*
X1009908Y1225635D02*
G01*
X981273Y1225635D01*
X971727Y1222455D01*
X968545Y1219272D01*
X965363Y1212908D01*
X965363Y1206545D01*
X968545Y1200181D01*
X971727Y1196999D01*
X981273Y1193818D01*
X1009908Y1193818D02*
G01*
X981273Y1193818D01*
X971727Y1190635D01*
X968545Y1187455D01*
X965363Y1181091D01*
X965363Y1171545D01*
X968545Y1165181D01*
X971727Y1161999D01*
X981273Y1158818D01*
X1009908Y1158818D01*
X895363Y1225635D02*
G01*
X895363Y1158818D01*
X850817Y1225635D02*
G01*
X850817Y1158818D01*
X895363Y1193818D02*
G01*
X850817Y1193818D01*
X829818Y1225635D02*
G01*
X829818Y1158818D01*
X808818Y1225635D02*
G01*
X808818Y1158818D01*
X808818Y1225635D02*
G01*
X786545Y1225635D01*
X776999Y1222455D01*
X770635Y1216091D01*
X767454Y1209726D01*
X764272Y1200181D01*
X764272Y1184272D01*
X767454Y1174726D01*
X770635Y1168364D01*
X776999Y1161999D01*
X786545Y1158818D01*
X808818Y1158818D01*
X724182Y1238364D02*
G01*
X724182Y1136545D01*
X720999Y1238364D02*
G01*
X720999Y1136545D01*
X743272Y1238364D02*
G01*
X720999Y1238364D01*
X743272Y1136545D02*
G01*
X720999Y1136545D01*
G36*
X217500Y529000D02*
G01*
X206260Y506500D01*
X243760Y506500D01*
X232500Y529000D01*
G37*
G36*
X206260Y443500D02*
G01*
X217500Y421000D01*
X232500Y421000D01*
X243760Y443500D01*
G37*
G36*
X1396620Y488420D02*
G01*
X1400000Y413420D01*
X1450000Y413420D01*
X1452120Y488420D01*
G37*
G36*
X1452120Y541580D02*
G01*
X1452120Y488420D01*
X1527120Y490000D01*
X1527120Y540000D01*
G37*
G36*
X1317880Y541580D02*
G01*
X1295380Y539200D01*
X1295380Y524200D01*
X1317880Y512939D01*
G37*
G36*
X1506260Y382879D02*
G01*
X1517500Y360379D01*
X1532500Y360379D01*
X1543760Y382879D01*
G37*
G36*
X1606260Y382879D02*
G01*
X1617500Y360379D01*
X1632500Y360379D01*
X1643760Y382879D01*
G37*
G36*
X1706260Y382879D02*
G01*
X1717500Y360379D01*
X1732500Y360379D01*
X1743760Y382879D01*
G37*
G36*
X1806260Y382879D02*
G01*
X1817500Y360379D01*
X1832500Y360379D01*
X1843760Y382879D01*
G37*
G36*
X1906260Y382879D02*
G01*
X1917500Y360379D01*
X1932500Y360379D01*
X1943760Y382879D01*
G37*
G36*
X2006260Y382879D02*
G01*
X2017500Y360379D01*
X2032500Y360379D01*
X2043760Y382879D01*
G37*
G36*
X2106260Y382879D02*
G01*
X2117500Y360379D01*
X2132500Y360379D01*
X2143760Y382879D01*
G37*
G36*
X2206260Y382879D02*
G01*
X2217500Y360379D01*
X2232500Y360379D01*
X2243760Y382879D01*
G37*
G36*
X1118840Y673420D02*
G01*
X1130100Y650920D01*
X1145100Y650920D01*
X1156340Y673420D01*
G37*
G36*
X1117500Y749080D02*
G01*
X1107880Y726580D01*
X1143760Y726580D01*
X1132500Y749080D01*
G37*
G36*
X1130100Y665800D02*
G01*
X1125100Y643300D01*
X1150100Y643300D01*
X1145100Y665800D01*
G37*
G36*
X1187500Y550440D02*
G01*
X1187500Y512939D01*
X1210000Y524200D01*
X1210000Y539200D01*
G37*
G36*
X1162500Y506700D02*
G01*
X1167500Y484200D01*
X1182500Y484200D01*
X1187500Y506700D01*
G37*
G36*
X1142120Y351580D02*
G01*
X1142120Y298420D01*
X1217120Y300000D01*
X1217120Y350000D01*
G37*
G36*
X217500Y419620D02*
G01*
X206260Y397120D01*
X243760Y397120D01*
X232500Y419620D01*
G37*
G36*
X1167500Y472660D02*
G01*
X1148760Y448160D01*
X1201260Y448160D01*
X1182500Y472660D01*
G37*
G36*
X2354500Y1098240D02*
G01*
X2332800Y1082500D01*
X2332800Y1067500D01*
X2354500Y1051760D01*
G37*
G36*
X2354500Y1298240D02*
G01*
X2332800Y1282500D01*
X2332800Y1267500D01*
X2354500Y1251760D01*
G37*
G36*
X2332800Y900000D02*
G01*
X2332800Y850000D01*
X2354500Y851760D01*
X2354500Y898240D01*
G37*
G36*
X2351760Y754500D02*
G01*
X2350000Y732800D01*
X2400000Y732800D01*
X2398240Y754500D01*
G37*
G36*
X2217500Y242200D02*
G01*
X2201760Y220500D01*
X2248240Y220500D01*
X2232500Y242200D01*
G37*
G36*
X2117500Y242200D02*
G01*
X2101760Y220500D01*
X2148240Y220500D01*
X2132500Y242200D01*
G37*
G36*
X2017500Y242200D02*
G01*
X2001759Y220500D01*
X2048240Y220500D01*
X2032500Y242200D01*
G37*
G36*
X1917500Y242200D02*
G01*
X1901759Y220500D01*
X1948240Y220500D01*
X1932500Y242200D01*
G37*
G36*
X1817500Y242200D02*
G01*
X1801759Y220500D01*
X1848240Y220500D01*
X1832500Y242200D01*
G37*
G36*
X1717500Y242200D02*
G01*
X1701759Y220500D01*
X1748240Y220500D01*
X1732500Y242200D01*
G37*
G36*
X1617500Y242200D02*
G01*
X1601759Y220500D01*
X1648240Y220500D01*
X1632500Y242200D01*
G37*
G36*
X1517500Y242200D02*
G01*
X1501759Y220500D01*
X1548240Y220500D01*
X1532500Y242200D01*
G37*
G36*
X1100000Y242200D02*
G01*
X1101760Y220500D01*
X1148240Y220500D01*
X1150000Y242200D01*
G37*
G36*
X917500Y242200D02*
G01*
X901760Y220500D01*
X948240Y220500D01*
X932500Y242200D01*
G37*
G36*
X817500Y242200D02*
G01*
X801760Y220500D01*
X848240Y220500D01*
X832500Y242200D01*
G37*
G36*
X617500Y242200D02*
G01*
X601760Y220500D01*
X648240Y220500D01*
X632500Y242200D01*
G37*
G36*
X517500Y242200D02*
G01*
X501760Y220500D01*
X548240Y220500D01*
X532500Y242200D01*
G37*
G36*
X417500Y242200D02*
G01*
X401760Y220500D01*
X448240Y220500D01*
X432500Y242200D01*
G37*
G36*
X317500Y242200D02*
G01*
X301760Y220500D01*
X348240Y220500D01*
X332500Y242200D01*
G37*
G36*
X717500Y242200D02*
G01*
X701760Y220500D01*
X748240Y220500D01*
X732500Y242200D01*
G37*
G36*
X2354500Y1498240D02*
G01*
X2332800Y1482500D01*
X2332800Y1467500D01*
X2354500Y1451759D01*
G37*
G36*
X2354500Y1598240D02*
G01*
X2332800Y1582500D01*
X2332800Y1567500D01*
X2354500Y1551759D01*
G37*
G36*
X2200460Y660140D02*
G01*
X2189860Y649539D01*
X2194060Y623060D01*
X2226940Y655939D01*
G37*
G36*
X2100460Y660140D02*
G01*
X2089860Y649539D01*
X2094060Y623060D01*
X2126940Y655939D01*
G37*
G36*
X2000460Y660140D02*
G01*
X1989860Y649539D01*
X1994060Y623060D01*
X2026940Y655939D01*
G37*
G36*
X1900460Y660140D02*
G01*
X1889860Y649539D01*
X1894060Y623060D01*
X1926940Y655939D01*
G37*
G36*
X1800460Y660140D02*
G01*
X1789860Y649539D01*
X1794060Y623060D01*
X1826940Y655939D01*
G37*
G36*
X1700460Y660140D02*
G01*
X1689860Y649539D01*
X1694060Y623060D01*
X1726940Y655939D01*
G37*
G36*
X1600460Y660140D02*
G01*
X1589860Y649539D01*
X1594060Y623060D01*
X1626940Y655939D01*
G37*
G36*
X1500460Y660140D02*
G01*
X1489860Y649539D01*
X1494060Y623060D01*
X1526940Y655939D01*
G37*
G36*
X1400000Y367200D02*
G01*
X1401759Y345500D01*
X1448240Y345500D01*
X1450000Y367200D01*
G37*
G36*
X1382800Y350000D02*
G01*
X1382800Y300000D01*
X1404500Y301760D01*
X1404500Y348240D01*
G37*
G36*
X1517500Y367200D02*
G01*
X1501759Y345500D01*
X1548240Y345500D01*
X1532500Y367200D01*
G37*
G36*
X1501759Y304500D02*
G01*
X1517500Y282800D01*
X1532500Y282800D01*
X1548240Y304500D01*
G37*
G36*
X1617500Y367200D02*
G01*
X1601759Y345500D01*
X1648240Y345500D01*
X1632500Y367200D01*
G37*
G36*
X1601759Y304500D02*
G01*
X1617500Y282800D01*
X1632500Y282800D01*
X1648240Y304500D01*
G37*
G36*
X1717500Y367200D02*
G01*
X1701759Y345500D01*
X1748240Y345500D01*
X1732500Y367200D01*
G37*
G36*
X1701759Y304500D02*
G01*
X1717500Y282800D01*
X1732500Y282800D01*
X1748240Y304500D01*
G37*
G36*
X1817500Y367200D02*
G01*
X1801759Y345500D01*
X1848240Y345500D01*
X1832500Y367200D01*
G37*
G36*
X1801759Y304500D02*
G01*
X1817500Y282800D01*
X1832500Y282800D01*
X1848240Y304500D01*
G37*
G36*
X1917500Y367200D02*
G01*
X1901759Y345500D01*
X1948240Y345500D01*
X1932500Y367200D01*
G37*
G36*
X1901759Y304500D02*
G01*
X1917500Y282800D01*
X1932500Y282800D01*
X1948240Y304500D01*
G37*
G36*
X2017500Y367200D02*
G01*
X2001759Y345500D01*
X2048240Y345500D01*
X2032500Y367200D01*
G37*
G36*
X2001759Y304500D02*
G01*
X2017500Y282800D01*
X2032500Y282800D01*
X2048240Y304500D01*
G37*
G36*
X2117500Y367200D02*
G01*
X2101760Y345500D01*
X2148240Y345500D01*
X2132500Y367200D01*
G37*
G36*
X2101760Y304500D02*
G01*
X2117500Y282800D01*
X2132500Y282800D01*
X2148240Y304500D01*
G37*
G36*
X2217500Y367200D02*
G01*
X2201760Y345500D01*
X2248240Y345500D01*
X2232500Y367200D01*
G37*
G36*
X2201760Y304500D02*
G01*
X2217500Y282800D01*
X2232500Y282800D01*
X2248240Y304500D01*
G37*
G36*
X2254500Y1398240D02*
G01*
X2232800Y1382500D01*
X2232800Y1367500D01*
X2254500Y1351759D01*
G37*
G36*
X901760Y454500D02*
G01*
X917500Y432800D01*
X932500Y432800D01*
X948240Y454500D01*
G37*
G36*
X917500Y517200D02*
G01*
X901760Y495500D01*
X948240Y495500D01*
X932500Y517200D01*
G37*
G36*
X817500Y517200D02*
G01*
X801760Y495500D01*
X848240Y495500D01*
X832500Y517200D01*
G37*
G36*
X801760Y454500D02*
G01*
X817500Y432800D01*
X832500Y432800D01*
X848240Y454500D01*
G37*
G36*
X717500Y517200D02*
G01*
X701760Y495500D01*
X748240Y495500D01*
X732500Y517200D01*
G37*
G36*
X701760Y454500D02*
G01*
X717500Y432800D01*
X732500Y432800D01*
X748240Y454500D01*
G37*
G36*
X601760Y454500D02*
G01*
X617500Y432800D01*
X632500Y432800D01*
X648240Y454500D01*
G37*
G36*
X617500Y517200D02*
G01*
X601760Y495500D01*
X648240Y495500D01*
X632500Y517200D01*
G37*
G36*
X517500Y517200D02*
G01*
X501760Y495500D01*
X548240Y495500D01*
X532500Y517200D01*
G37*
G36*
X501760Y454500D02*
G01*
X517500Y432800D01*
X532500Y432800D01*
X548240Y454500D01*
G37*
G36*
X417500Y517200D02*
G01*
X401760Y495500D01*
X448240Y495500D01*
X432500Y517200D01*
G37*
G36*
X401760Y454500D02*
G01*
X417500Y432800D01*
X432500Y432800D01*
X448240Y454500D01*
G37*
G36*
X301760Y454500D02*
G01*
X317500Y432800D01*
X332500Y432800D01*
X348240Y454500D01*
G37*
G36*
X317500Y517200D02*
G01*
X301760Y495500D01*
X348240Y495500D01*
X332500Y517200D01*
G37*
G36*
X2136060Y1298240D02*
G01*
X2136060Y1251760D01*
X2157760Y1267500D01*
X2157760Y1282500D01*
G37*
G36*
X2136060Y1098240D02*
G01*
X2136060Y1051760D01*
X2157760Y1067500D01*
X2157760Y1082500D01*
G37*
G36*
X2155940Y1526940D02*
G01*
X2123060Y1494060D01*
X2149540Y1489860D01*
X2160140Y1500460D01*
G37*
G36*
X617500Y1567200D02*
G01*
X601760Y1545500D01*
X648240Y1545500D01*
X632500Y1567200D01*
G37*
G36*
X1201760Y1504500D02*
G01*
X1217500Y1482800D01*
X1232500Y1482800D01*
X1248240Y1504500D01*
G37*
G36*
X2017500Y1567200D02*
G01*
X2001759Y1545500D01*
X2048240Y1545500D01*
X2032500Y1567200D01*
G37*
G36*
X201759Y1504500D02*
G01*
X200000Y1482800D01*
X250000Y1482800D01*
X248240Y1504500D01*
G37*
G36*
X2001759Y804500D02*
G01*
X2017500Y782800D01*
X2032500Y782800D01*
X2048240Y804500D01*
G37*
G36*
X1855940Y826940D02*
G01*
X1823060Y794060D01*
X1849540Y789860D01*
X1860140Y800460D01*
G37*
G36*
X1755940Y826940D02*
G01*
X1723060Y794060D01*
X1749540Y789860D01*
X1760140Y800460D01*
G37*
G36*
X1655940Y826940D02*
G01*
X1623060Y794060D01*
X1649540Y789860D01*
X1660140Y800460D01*
G37*
G36*
X1555940Y826940D02*
G01*
X1523060Y794060D01*
X1549540Y789860D01*
X1560140Y800460D01*
G37*
G36*
X1355940Y826940D02*
G01*
X1323060Y794060D01*
X1349540Y789860D01*
X1360140Y800460D01*
G37*
G36*
X1255940Y826940D02*
G01*
X1223060Y794060D01*
X1249540Y789860D01*
X1260140Y800460D01*
G37*
G36*
X1101760Y804500D02*
G01*
X1117500Y782800D01*
X1132500Y782800D01*
X1148240Y804500D01*
G37*
G36*
X1001760Y804500D02*
G01*
X1017500Y782800D01*
X1032500Y782800D01*
X1048240Y804500D01*
G37*
G36*
X801760Y804500D02*
G01*
X817500Y782800D01*
X832500Y782800D01*
X848240Y804500D01*
G37*
G36*
X701760Y804500D02*
G01*
X717500Y782800D01*
X732500Y782800D01*
X748240Y804500D01*
G37*
G36*
X601760Y804500D02*
G01*
X617500Y782800D01*
X632500Y782800D01*
X648240Y804500D01*
G37*
G36*
X501760Y804500D02*
G01*
X517500Y782800D01*
X532500Y782800D01*
X548240Y804500D01*
G37*
G36*
X2101760Y804500D02*
G01*
X2117500Y782800D01*
X2132500Y782800D01*
X2148240Y804500D01*
G37*
G36*
X201759Y804500D02*
G01*
X217500Y782800D01*
X232500Y782800D01*
X248240Y804500D01*
G37*
G36*
X301760Y804500D02*
G01*
X317500Y782800D01*
X332500Y782800D01*
X348240Y804500D01*
G37*
D11*
X2375000Y1575000D02*
G01*
X2265000Y1575000D01*
X2235000Y1605000D01*
X2040000Y1605000D01*
X2025000Y1590000D01*
X2025000Y1525000D01*
X225000Y475000D02*
G01*
X225000Y600000D01*
X150000Y675000D01*
X150000Y1575000D01*
X200000Y1625000D01*
X600000Y1625000D01*
X625000Y1600000D01*
X625000Y1525000D01*
X2275000Y1375000D02*
G01*
X1300000Y1375000D01*
X1225000Y1450000D01*
X1225000Y1525000D01*
X925000Y475000D02*
G01*
X925000Y200000D01*
X1345600Y515000D02*
G01*
X1328900Y531700D01*
X1175000Y531700D01*
D12*
X2375000Y775000D02*
G01*
X2375000Y600000D01*
X2290000Y515000D01*
X1424399Y515000D01*
X1425000Y514400D01*
X1425000Y325000D01*
D11*
X2225000Y410599D02*
G01*
X2225000Y325000D01*
X2125000Y410599D02*
G01*
X2125000Y325000D01*
X2025000Y410599D02*
G01*
X2025000Y325000D01*
X1925000Y410599D02*
G01*
X1925000Y325000D01*
X1825000Y410599D02*
G01*
X1825000Y325000D01*
X1725000Y410599D02*
G01*
X1725000Y325000D01*
X1625000Y410599D02*
G01*
X1625000Y325000D01*
X1525000Y410599D02*
G01*
X1525000Y325000D01*
X1925000Y325000D02*
G01*
X1925000Y200000D01*
X1525000Y325000D02*
G01*
X1525000Y200000D01*
X1625000Y325000D02*
G01*
X1625000Y200000D01*
X1725000Y325000D02*
G01*
X1725000Y200000D01*
X1825000Y325000D02*
G01*
X1825000Y200000D01*
X2025000Y325000D02*
G01*
X2025000Y200000D01*
X2125000Y325000D02*
G01*
X2125000Y200000D01*
X2225000Y325000D02*
G01*
X2225000Y200000D01*
X2125000Y625000D02*
G01*
X2025000Y725000D01*
X2025000Y825000D01*
X1525000Y825000D02*
G01*
X1725000Y625000D01*
X1625000Y825000D02*
G01*
X1825000Y625000D01*
X1725000Y825000D02*
G01*
X1925000Y625000D01*
X1825000Y825000D02*
G01*
X2025000Y625000D01*
X625000Y475000D02*
G01*
X625000Y200000D01*
X925000Y475000D02*
G01*
X925000Y600000D01*
X1025000Y700000D01*
X1025000Y825000D01*
X825000Y475000D02*
G01*
X825000Y825000D01*
D12*
X1425000Y325000D02*
G01*
X1114399Y325000D01*
X1125000Y200000D02*
G01*
X1125000Y314400D01*
X1114399Y325000D01*
D11*
X325000Y200000D02*
G01*
X325000Y600000D01*
X225000Y700000D01*
X225000Y825000D01*
X725000Y475000D02*
G01*
X725000Y825000D01*
X525000Y475000D02*
G01*
X525000Y825000D01*
X325000Y825000D02*
G01*
X325000Y700000D01*
X425000Y600000D01*
X425000Y200000D01*
X525000Y475000D02*
G01*
X525000Y200000D01*
X625000Y475000D02*
G01*
X625000Y825000D01*
X725000Y475000D02*
G01*
X725000Y200000D01*
X825000Y475000D02*
G01*
X825000Y200000D01*
X1325000Y825000D02*
G01*
X1405000Y745000D01*
X1505000Y745000D01*
X1625000Y625000D01*
X1225000Y825000D02*
G01*
X1350000Y700000D01*
X1450000Y700000D01*
X1525000Y625000D01*
X225000Y369400D02*
G01*
X225000Y475000D01*
X2375000Y1475000D02*
G01*
X2175000Y1475000D01*
X2125000Y1525000D01*
X2115000Y1275000D02*
G01*
X2375000Y1275000D01*
X2115000Y1075000D02*
G01*
X2375000Y1075000D01*
X2225000Y625000D02*
G01*
X2125000Y725000D01*
X2125000Y825000D01*
D12*
X225000Y1525000D02*
G01*
X225000Y1350000D01*
X615000Y960000D01*
X2140000Y960000D01*
X2225000Y875000D01*
X2375000Y875000D01*
D11*
X1137600Y618299D02*
G01*
X1137600Y698000D01*
X1135600Y700000D01*
X1135600Y700000D02*
G01*
X1125000Y710599D01*
X1125000Y825000D01*
X1175000Y531700D02*
G01*
X1175000Y425000D01*
D13*
G01*
X225000Y369369D03*
D14*
G01*
X225000Y290628D03*
D15*
G01*
X1114371Y325000D03*
G01*
X1035628Y325000D03*
D13*
G01*
X2280000Y895630D03*
D16*
G01*
X2280000Y974371D03*
D17*
G01*
X1175000Y531693D03*
G01*
X1137599Y618306D03*
G01*
X1212402Y618306D03*
D18*
G01*
X1214371Y700000D03*
G01*
X1135628Y700000D03*
D16*
G01*
X2225000Y410628D03*
D13*
G01*
X2225000Y489369D03*
D16*
G01*
X2125000Y410628D03*
D13*
G01*
X2125000Y489369D03*
D16*
G01*
X2025000Y410628D03*
D13*
G01*
X2025000Y489369D03*
D16*
G01*
X1925000Y410628D03*
D13*
G01*
X1925000Y489369D03*
D16*
G01*
X1825000Y410628D03*
D13*
G01*
X1825000Y489369D03*
D16*
G01*
X1725000Y410628D03*
D13*
G01*
X1725000Y489369D03*
D16*
G01*
X1625000Y410628D03*
D13*
G01*
X1625000Y489369D03*
D16*
G01*
X1525000Y410628D03*
D13*
G01*
X1525000Y489369D03*
D15*
G01*
X1345628Y515000D03*
G01*
X1424371Y515000D03*
D19*
G01*
X325000Y825000D03*
G01*
X225000Y825000D03*
G01*
X2125000Y825000D03*
G01*
X425000Y825000D03*
G01*
X525000Y825000D03*
G01*
X625000Y825000D03*
G01*
X725000Y825000D03*
G01*
X825000Y825000D03*
G01*
X925000Y825000D03*
G01*
X1025000Y825000D03*
G01*
X1125000Y825000D03*
G01*
X1225000Y825000D03*
G01*
X1325000Y825000D03*
G01*
X1425000Y825000D03*
G01*
X1525000Y825000D03*
G01*
X1625000Y825000D03*
G01*
X1725000Y825000D03*
G01*
X1825000Y825000D03*
G01*
X1925000Y825000D03*
G01*
X2025000Y825000D03*
G01*
X225000Y1525000D03*
G01*
X2025000Y1525000D03*
G01*
X1925000Y1525000D03*
G01*
X1825000Y1525000D03*
G01*
X1725000Y1525000D03*
G01*
X1625000Y1525000D03*
G01*
X1525000Y1525000D03*
G01*
X1425000Y1525000D03*
G01*
X1325000Y1525000D03*
G01*
X1225000Y1525000D03*
G01*
X1125000Y1525000D03*
G01*
X1025000Y1525000D03*
G01*
X925000Y1525000D03*
G01*
X825000Y1525000D03*
G01*
X725000Y1525000D03*
G01*
X625000Y1525000D03*
G01*
X525000Y1525000D03*
G01*
X425000Y1525000D03*
G01*
X2125000Y1525000D03*
G01*
X325000Y1525000D03*
G01*
X2115550Y1175000D03*
G01*
X2115550Y1075000D03*
G01*
X2115550Y1275000D03*
D20*
G01*
X225000Y475000D03*
D19*
G01*
X325000Y475000D03*
G01*
X425000Y475000D03*
G01*
X525000Y475000D03*
G01*
X625000Y475000D03*
G01*
X725000Y475000D03*
G01*
X825000Y475000D03*
G01*
X925000Y475000D03*
G01*
X1025000Y475000D03*
G01*
X2275000Y1375000D03*
G01*
X2225000Y325000D03*
G01*
X2125000Y325000D03*
G01*
X2025000Y325000D03*
G01*
X1925000Y325000D03*
G01*
X1825000Y325000D03*
G01*
X1725000Y325000D03*
G01*
X1625000Y325000D03*
G01*
X1525000Y325000D03*
G01*
X1425000Y325000D03*
G01*
X1425000Y625000D03*
G01*
X1525000Y625000D03*
G01*
X1625000Y625000D03*
G01*
X1725000Y625000D03*
G01*
X1825000Y625000D03*
G01*
X1925000Y625000D03*
G01*
X2025000Y625000D03*
G01*
X2125000Y625000D03*
G01*
X2225000Y625000D03*
G01*
X2375000Y1575000D03*
G01*
X2375000Y1475000D03*
D21*
G01*
X2375000Y1375000D03*
D19*
G01*
X725000Y200000D03*
D21*
G01*
X225000Y200000D03*
D19*
G01*
X325000Y200000D03*
G01*
X425000Y200000D03*
G01*
X525000Y200000D03*
G01*
X625000Y200000D03*
G01*
X825000Y200000D03*
G01*
X925000Y200000D03*
G01*
X1025000Y200000D03*
G01*
X1125000Y200000D03*
G01*
X1525000Y200000D03*
G01*
X1625000Y200000D03*
G01*
X1725000Y200000D03*
G01*
X1825000Y200000D03*
G01*
X1925000Y200000D03*
G01*
X2025000Y200000D03*
G01*
X2125000Y200000D03*
G01*
X2225000Y200000D03*
G01*
X1225000Y200000D03*
G01*
X1325000Y200000D03*
G01*
X1425000Y200000D03*
G01*
X2375000Y775000D03*
G01*
X2375000Y875000D03*
D21*
G01*
X2375000Y975000D03*
D19*
G01*
X2375000Y1275000D03*
D21*
G01*
X2375000Y1175000D03*
D19*
G01*
X2375000Y1075000D03*
D22*
G01*
X1175000Y425000D03*
M02*
