G04 Layer: TopSilkscreenLayer*
G04 EasyEDA v6.5.39, 2024-02-04 18:14:06*
G04 e2768ddda3314ff98ce937aebec43eb4,5509f98a9368439c9cde498926e245b9,10*
G04 Gerber Generator version 0.2*
G04 Scale: 100 percent, Rotated: No, Reflected: No *
G04 Dimensions in inches *
G04 leading zeros omitted , absolute positions ,3 integer and 6 decimal *
%FSLAX36Y36*%
%MOIN*%

%ADD10C,0.0070*%
%ADD11C,0.0100*%
%ADD12C,0.0080*%
%ADD13C,0.0060*%
%ADD14C,0.0150*%
%ADD15C,0.0080*%
%ADD16C,0.0120*%
%ADD17C,0.0118*%
%ADD18C,0.0130*%

%LPD*%
D10*
X2259499Y1065050D02*
G01*
X2307299Y1065050D01*
X2259499Y1065050D02*
G01*
X2259499Y1080949D01*
X2261800Y1087750D01*
X2266400Y1092249D01*
X2270900Y1094549D01*
X2277700Y1096849D01*
X2289099Y1096849D01*
X2295900Y1094549D01*
X2300500Y1092249D01*
X2305000Y1087750D01*
X2307299Y1080949D01*
X2307299Y1065050D01*
X2259499Y1111849D02*
G01*
X2307299Y1111849D01*
X2259499Y1111849D02*
G01*
X2259499Y1141350D01*
X2282299Y1111849D02*
G01*
X2282299Y1130050D01*
X2307299Y1111849D02*
G01*
X2307299Y1141350D01*
X2259499Y1156350D02*
G01*
X2307299Y1156350D01*
X2259499Y1156350D02*
G01*
X2259499Y1176849D01*
X2261800Y1183649D01*
X2264099Y1185949D01*
X2268599Y1188150D01*
X2273199Y1188150D01*
X2277700Y1185949D01*
X2280000Y1183649D01*
X2282299Y1176849D01*
X2282299Y1156350D02*
G01*
X2282299Y1176849D01*
X2284499Y1183649D01*
X2286800Y1185949D01*
X2291400Y1188150D01*
X2298199Y1188150D01*
X2302700Y1185949D01*
X2305000Y1183649D01*
X2307299Y1176849D01*
X2307299Y1156350D01*
X2259499Y1203150D02*
G01*
X2293599Y1203150D01*
X2300500Y1205450D01*
X2305000Y1210050D01*
X2307299Y1216849D01*
X2307299Y1221350D01*
X2305000Y1228150D01*
X2300500Y1232750D01*
X2293599Y1235050D01*
X2259499Y1235050D01*
X2270900Y1284050D02*
G01*
X2266400Y1281849D01*
X2261800Y1277249D01*
X2259499Y1272750D01*
X2259499Y1263649D01*
X2261800Y1259050D01*
X2266400Y1254549D01*
X2270900Y1252249D01*
X2277700Y1250050D01*
X2289099Y1250050D01*
X2295900Y1252249D01*
X2300500Y1254549D01*
X2305000Y1259050D01*
X2307299Y1263649D01*
X2307299Y1272750D01*
X2305000Y1277249D01*
X2300500Y1281849D01*
X2295900Y1284050D01*
X2289099Y1284050D01*
X2289099Y1272750D02*
G01*
X2289099Y1284050D01*
D11*
X417699Y644699D02*
G01*
X414499Y651100D01*
X408200Y657500D01*
X401799Y660599D01*
X389099Y660599D01*
X382699Y657500D01*
X376399Y651100D01*
X373200Y644699D01*
X370000Y635199D01*
X370000Y619299D01*
X373200Y609699D01*
X376399Y603400D01*
X382699Y596999D01*
X389099Y593800D01*
X401799Y593800D01*
X408200Y596999D01*
X414499Y603400D01*
X417699Y609699D01*
X417699Y619299D01*
X401799Y619299D02*
G01*
X417699Y619299D01*
X476900Y638400D02*
G01*
X476900Y593800D01*
X476900Y628800D02*
G01*
X470500Y635199D01*
X464200Y638400D01*
X454600Y638400D01*
X448299Y635199D01*
X441900Y628800D01*
X438699Y619299D01*
X438699Y612899D01*
X441900Y603400D01*
X448299Y596999D01*
X454600Y593800D01*
X464200Y593800D01*
X470500Y596999D01*
X476900Y603400D01*
X497899Y660599D02*
G01*
X497899Y593800D01*
X557100Y638400D02*
G01*
X557100Y593800D01*
X557100Y628800D02*
G01*
X550700Y635199D01*
X544400Y638400D01*
X534800Y638400D01*
X528499Y635199D01*
X522100Y628800D01*
X518899Y619299D01*
X518899Y612899D01*
X522100Y603400D01*
X528499Y596999D01*
X534800Y593800D01*
X544400Y593800D01*
X550700Y596999D01*
X557100Y603400D01*
X578099Y660599D02*
G01*
X578099Y593800D01*
X609899Y638400D02*
G01*
X578099Y606500D01*
X590799Y619299D02*
G01*
X613099Y593800D01*
X669099Y628800D02*
G01*
X665900Y635199D01*
X656399Y638400D01*
X646799Y638400D01*
X637300Y635199D01*
X634099Y628800D01*
X637300Y622500D01*
X643600Y619299D01*
X659499Y616100D01*
X665900Y612899D01*
X669099Y606500D01*
X669099Y603400D01*
X665900Y596999D01*
X656399Y593800D01*
X646799Y593800D01*
X637300Y596999D01*
X634099Y603400D01*
X690100Y660599D02*
G01*
X693299Y657500D01*
X696500Y660599D01*
X693299Y663800D01*
X690100Y660599D01*
X693299Y638400D02*
G01*
X693299Y593800D01*
X730199Y660599D02*
G01*
X733400Y657500D01*
X736500Y660599D01*
X733400Y663800D01*
X730199Y660599D01*
X733400Y638400D02*
G01*
X733400Y584299D01*
X730199Y574699D01*
X723800Y571500D01*
X717500Y571500D01*
X795700Y638400D02*
G01*
X795700Y593800D01*
X795700Y628800D02*
G01*
X789400Y635199D01*
X783000Y638400D01*
X773499Y638400D01*
X767100Y635199D01*
X760700Y628800D01*
X757500Y619299D01*
X757500Y612899D01*
X760700Y603400D01*
X767100Y596999D01*
X773499Y593800D01*
X783000Y593800D01*
X789400Y596999D01*
X795700Y603400D01*
X865699Y660599D02*
G01*
X865699Y612899D01*
X868900Y603400D01*
X875299Y596999D01*
X884799Y593800D01*
X891199Y593800D01*
X900699Y596999D01*
X907100Y603400D01*
X910299Y612899D01*
X910299Y660599D01*
X975799Y651100D02*
G01*
X969499Y657500D01*
X959899Y660599D01*
X947200Y660599D01*
X937600Y657500D01*
X931300Y651100D01*
X931300Y644699D01*
X934499Y638400D01*
X937600Y635199D01*
X943999Y631999D01*
X963100Y625599D01*
X969499Y622500D01*
X972600Y619299D01*
X975799Y612899D01*
X975799Y603400D01*
X969499Y596999D01*
X959899Y593800D01*
X947200Y593800D01*
X937600Y596999D01*
X931300Y603400D01*
X996800Y660599D02*
G01*
X996800Y593800D01*
X996800Y660599D02*
G01*
X1025500Y660599D01*
X1035000Y657500D01*
X1038199Y654299D01*
X1041400Y647899D01*
X1041400Y641500D01*
X1038199Y635199D01*
X1035000Y631999D01*
X1025500Y628800D01*
X996800Y628800D02*
G01*
X1025500Y628800D01*
X1035000Y625599D01*
X1038199Y622500D01*
X1041400Y616100D01*
X1041400Y606500D01*
X1038199Y600199D01*
X1035000Y596999D01*
X1025500Y593800D01*
X996800Y593800D01*
X1111400Y660599D02*
G01*
X1111400Y593800D01*
X1155900Y660599D02*
G01*
X1155900Y593800D01*
X1111400Y628800D02*
G01*
X1155900Y628800D01*
X1176899Y660599D02*
G01*
X1176899Y593800D01*
X1197899Y660599D02*
G01*
X1197899Y593800D01*
X1197899Y660599D02*
G01*
X1220200Y660599D01*
X1229700Y657500D01*
X1236099Y651100D01*
X1239300Y644699D01*
X1242500Y635199D01*
X1242500Y619299D01*
X1239300Y609699D01*
X1236099Y603400D01*
X1229700Y596999D01*
X1220200Y593800D01*
X1197899Y593800D01*
D10*
X2259499Y1460900D02*
G01*
X2307299Y1460900D01*
X2259499Y1445000D02*
G01*
X2259499Y1476799D01*
X2259499Y1491799D02*
G01*
X2307299Y1523600D01*
X2259499Y1523600D02*
G01*
X2307299Y1491799D01*
X2259499Y1538600D02*
G01*
X2307299Y1538600D01*
X2259499Y1538600D02*
G01*
X2259499Y1559099D01*
X2261800Y1565900D01*
X2264099Y1568200D01*
X2268599Y1570500D01*
X2273199Y1570500D01*
X2277700Y1568200D01*
X2280000Y1565900D01*
X2282299Y1559099D01*
X2282299Y1538600D01*
X2282299Y1554499D02*
G01*
X2307299Y1570500D01*
X2259499Y1585500D02*
G01*
X2307299Y1617300D01*
X2259499Y1617300D02*
G01*
X2307299Y1585500D01*
D12*
X775000Y1210500D02*
G01*
X775000Y1153299D01*
X775000Y1210500D02*
G01*
X799499Y1210500D01*
X807699Y1207800D01*
X810500Y1205100D01*
X813200Y1199600D01*
X813200Y1194200D01*
X810500Y1188699D01*
X807699Y1185999D01*
X799499Y1183299D01*
X775000Y1183299D01*
X794099Y1183299D02*
G01*
X813200Y1153299D01*
X853000Y1210500D02*
G01*
X831199Y1153299D01*
X853000Y1210500D02*
G01*
X874799Y1153299D01*
X839400Y1172399D02*
G01*
X866599Y1172399D01*
X931000Y1202399D02*
G01*
X925500Y1207800D01*
X917399Y1210500D01*
X906499Y1210500D01*
X898299Y1207800D01*
X892799Y1202399D01*
X892799Y1196900D01*
X895500Y1191500D01*
X898299Y1188699D01*
X903699Y1185999D01*
X920100Y1180500D01*
X925500Y1177800D01*
X928299Y1175100D01*
X931000Y1169600D01*
X931000Y1161500D01*
X925500Y1155999D01*
X917399Y1153299D01*
X906499Y1153299D01*
X898299Y1155999D01*
X892799Y1161500D01*
X948999Y1210500D02*
G01*
X948999Y1153299D01*
X948999Y1210500D02*
G01*
X973500Y1210500D01*
X981700Y1207800D01*
X984499Y1205100D01*
X987200Y1199600D01*
X987200Y1191500D01*
X984499Y1185999D01*
X981700Y1183299D01*
X973500Y1180500D01*
X948999Y1180500D01*
X1005200Y1210500D02*
G01*
X1005200Y1153299D01*
X1005200Y1210500D02*
G01*
X1029700Y1210500D01*
X1037899Y1207800D01*
X1040600Y1205100D01*
X1043400Y1199600D01*
X1043400Y1194200D01*
X1040600Y1188699D01*
X1037899Y1185999D01*
X1029700Y1183299D01*
X1005200Y1183299D02*
G01*
X1029700Y1183299D01*
X1037899Y1180500D01*
X1040600Y1177800D01*
X1043400Y1172399D01*
X1043400Y1164200D01*
X1040600Y1158699D01*
X1037899Y1155999D01*
X1029700Y1153299D01*
X1005200Y1153299D01*
X1061400Y1210500D02*
G01*
X1061400Y1153299D01*
X1061400Y1210500D02*
G01*
X1096800Y1210500D01*
X1061400Y1183299D02*
G01*
X1083199Y1183299D01*
X1061400Y1153299D02*
G01*
X1096800Y1153299D01*
X1114799Y1210500D02*
G01*
X1114799Y1153299D01*
X1114799Y1210500D02*
G01*
X1139399Y1210500D01*
X1147500Y1207800D01*
X1150299Y1205100D01*
X1153000Y1199600D01*
X1153000Y1194200D01*
X1150299Y1188699D01*
X1147500Y1185999D01*
X1139399Y1183299D01*
X1114799Y1183299D01*
X1133900Y1183299D02*
G01*
X1153000Y1153299D01*
X1171000Y1210500D02*
G01*
X1171000Y1153299D01*
X1171000Y1210500D02*
G01*
X1195500Y1210500D01*
X1203699Y1207800D01*
X1206499Y1205100D01*
X1209200Y1199600D01*
X1209200Y1194200D01*
X1206499Y1188699D01*
X1203699Y1185999D01*
X1195500Y1183299D01*
X1171000Y1183299D01*
X1190100Y1183299D02*
G01*
X1209200Y1153299D01*
X1227200Y1210500D02*
G01*
X1248999Y1183299D01*
X1248999Y1153299D01*
X1270799Y1210500D02*
G01*
X1248999Y1183299D01*
X1330799Y1210500D02*
G01*
X1330799Y1153299D01*
X1330799Y1210500D02*
G01*
X1355399Y1210500D01*
X1363500Y1207800D01*
X1366300Y1205100D01*
X1368999Y1199600D01*
X1368999Y1191500D01*
X1366300Y1185999D01*
X1363500Y1183299D01*
X1355399Y1180500D01*
X1330799Y1180500D01*
X1386999Y1210500D02*
G01*
X1386999Y1153299D01*
X1446999Y1210500D02*
G01*
X1446999Y1153299D01*
X1446999Y1210500D02*
G01*
X1471499Y1210500D01*
X1479700Y1207800D01*
X1482500Y1205100D01*
X1485200Y1199600D01*
X1485200Y1191500D01*
X1482500Y1185999D01*
X1479700Y1183299D01*
X1471499Y1180500D01*
X1446999Y1180500D01*
X1503199Y1210500D02*
G01*
X1503199Y1153299D01*
X1562100Y1196900D02*
G01*
X1559399Y1202399D01*
X1553900Y1207800D01*
X1548500Y1210500D01*
X1537500Y1210500D01*
X1532100Y1207800D01*
X1526599Y1202399D01*
X1523900Y1196900D01*
X1521199Y1188699D01*
X1521199Y1175100D01*
X1523900Y1166900D01*
X1526599Y1161500D01*
X1532100Y1155999D01*
X1537500Y1153299D01*
X1548500Y1153299D01*
X1553900Y1155999D01*
X1559399Y1161500D01*
X1562100Y1166900D01*
X1596499Y1210500D02*
G01*
X1591000Y1207800D01*
X1585500Y1202399D01*
X1582799Y1196900D01*
X1580100Y1188699D01*
X1580100Y1175100D01*
X1582799Y1166900D01*
X1585500Y1161500D01*
X1591000Y1155999D01*
X1596499Y1153299D01*
X1607399Y1153299D01*
X1612799Y1155999D01*
X1618299Y1161500D01*
X1621000Y1166900D01*
X1623699Y1175100D01*
X1623699Y1188699D01*
X1621000Y1196900D01*
X1618299Y1202399D01*
X1612799Y1207800D01*
X1607399Y1210500D01*
X1596499Y1210500D01*
D13*
X204600Y1150000D02*
G01*
X235300Y1150000D01*
X241399Y1151999D01*
X245500Y1156100D01*
X247500Y1162300D01*
X247500Y1166399D01*
X245500Y1172500D01*
X241399Y1176599D01*
X235300Y1178600D01*
X204600Y1178600D01*
X212800Y1192100D02*
G01*
X210700Y1196199D01*
X204600Y1202399D01*
X247500Y1202399D01*
X183899Y605399D02*
G01*
X183899Y562500D01*
X183899Y605399D02*
G01*
X202300Y605399D01*
X208400Y603400D01*
X210500Y601300D01*
X212500Y597199D01*
X212500Y593099D01*
X210500Y589000D01*
X208400Y586999D01*
X202300Y585000D01*
X183899Y585000D01*
X198200Y585000D02*
G01*
X212500Y562500D01*
X225999Y605399D02*
G01*
X225999Y562500D01*
X225999Y605399D02*
G01*
X254699Y562500D01*
X254699Y605399D02*
G01*
X254699Y562500D01*
X268200Y597199D02*
G01*
X272300Y599299D01*
X278400Y605399D01*
X278400Y562500D01*
X2434600Y1365450D02*
G01*
X2467299Y1365450D01*
X2473500Y1363449D01*
X2475500Y1361350D01*
X2477500Y1357249D01*
X2477500Y1353150D01*
X2475500Y1349050D01*
X2473500Y1347049D01*
X2467299Y1345050D01*
X2463199Y1345050D01*
X2434600Y1399450D02*
G01*
X2463199Y1378949D01*
X2463199Y1409650D01*
X2434600Y1399450D02*
G01*
X2477500Y1399450D01*
X1900000Y490399D02*
G01*
X1900000Y463099D01*
X1901800Y457600D01*
X1905500Y454000D01*
X1910900Y452199D01*
X1914499Y452199D01*
X1920000Y454000D01*
X1923599Y457600D01*
X1925500Y463099D01*
X1925500Y490399D01*
X1937500Y490399D02*
G01*
X1937500Y452199D01*
X1937500Y452199D02*
G01*
X1959300Y452199D01*
X1971300Y490399D02*
G01*
X1971300Y452199D01*
X1971300Y490399D02*
G01*
X1996700Y452199D01*
X1996700Y490399D02*
G01*
X1996700Y452199D01*
X2010500Y481300D02*
G01*
X2010500Y483099D01*
X2012399Y486700D01*
X2014200Y488499D01*
X2017799Y490399D01*
X2025100Y490399D01*
X2028699Y488499D01*
X2030500Y486700D01*
X2032399Y483099D01*
X2032399Y479499D01*
X2030500Y475799D01*
X2026899Y470399D01*
X2008699Y452199D01*
X2034200Y452199D01*
X2055299Y490399D02*
G01*
X2049799Y488499D01*
X2048000Y484899D01*
X2048000Y481300D01*
X2049799Y477600D01*
X2053500Y475799D01*
X2060699Y474000D01*
X2066199Y472199D01*
X2069799Y468499D01*
X2071599Y464899D01*
X2071599Y459499D01*
X2069799Y455799D01*
X2068000Y454000D01*
X2062500Y452199D01*
X2055299Y452199D01*
X2049799Y454000D01*
X2048000Y455799D01*
X2046199Y459499D01*
X2046199Y464899D01*
X2048000Y468499D01*
X2051599Y472199D01*
X2057100Y474000D01*
X2064399Y475799D01*
X2068000Y477600D01*
X2069799Y481300D01*
X2069799Y484899D01*
X2068000Y488499D01*
X2062500Y490399D01*
X2055299Y490399D01*
X2094499Y490399D02*
G01*
X2089099Y488499D01*
X2085500Y483099D01*
X2083599Y474000D01*
X2083599Y468499D01*
X2085500Y459499D01*
X2089099Y454000D01*
X2094499Y452199D01*
X2098199Y452199D01*
X2103599Y454000D01*
X2107299Y459499D01*
X2109099Y468499D01*
X2109099Y474000D01*
X2107299Y483099D01*
X2103599Y488499D01*
X2098199Y490399D01*
X2094499Y490399D01*
X2124700Y490399D02*
G01*
X2144700Y490399D01*
X2133800Y475799D01*
X2139300Y475799D01*
X2142899Y474000D01*
X2144700Y472199D01*
X2146499Y466700D01*
X2146499Y463099D01*
X2144700Y457600D01*
X2141099Y454000D01*
X2135600Y452199D01*
X2130200Y452199D01*
X2124700Y454000D01*
X2122899Y455799D01*
X2121099Y459499D01*
X2173100Y490399D02*
G01*
X2158500Y452199D01*
X2173100Y490399D02*
G01*
X2187600Y452199D01*
X2163999Y464899D02*
G01*
X2182200Y464899D01*
X2294449Y650399D02*
G01*
X2294449Y619699D01*
X2296450Y613600D01*
X2300550Y609499D01*
X2306750Y607500D01*
X2310850Y607500D01*
X2316949Y609499D01*
X2321049Y613600D01*
X2323050Y619699D01*
X2323050Y650399D01*
X2338649Y640199D02*
G01*
X2338649Y642199D01*
X2340649Y646300D01*
X2342749Y648400D01*
X2346850Y650399D01*
X2354949Y650399D01*
X2359049Y648400D01*
X2361149Y646300D01*
X2363149Y642199D01*
X2363149Y638099D01*
X2361149Y634000D01*
X2357049Y627899D01*
X2336549Y607500D01*
X2365249Y607500D01*
X2434600Y1515500D02*
G01*
X2467299Y1515500D01*
X2473500Y1513400D01*
X2475500Y1511399D01*
X2477500Y1507300D01*
X2477500Y1503200D01*
X2475500Y1499099D01*
X2473500Y1496999D01*
X2467299Y1495000D01*
X2463199Y1495000D01*
X2434600Y1533000D02*
G01*
X2434600Y1555500D01*
X2451000Y1543299D01*
X2451000Y1549400D01*
X2453000Y1553499D01*
X2455000Y1555500D01*
X2461199Y1557600D01*
X2465299Y1557600D01*
X2471400Y1555500D01*
X2475500Y1551500D01*
X2477500Y1545300D01*
X2477500Y1539200D01*
X2475500Y1533000D01*
X2473500Y1530999D01*
X2469399Y1529000D01*
X193899Y320399D02*
G01*
X193899Y277500D01*
X193899Y320399D02*
G01*
X212300Y320399D01*
X218400Y318400D01*
X220500Y316300D01*
X222500Y312199D01*
X222500Y306100D01*
X220500Y301999D01*
X218400Y300000D01*
X212300Y297899D01*
X193899Y297899D01*
X260599Y314299D02*
G01*
X258499Y318400D01*
X252399Y320399D01*
X248299Y320399D01*
X242199Y318400D01*
X238099Y312199D01*
X235999Y301999D01*
X235999Y291799D01*
X238099Y283600D01*
X242199Y279499D01*
X248299Y277500D01*
X250399Y277500D01*
X256500Y279499D01*
X260599Y283600D01*
X262600Y289699D01*
X262600Y291799D01*
X260599Y297899D01*
X256500Y301999D01*
X250399Y304000D01*
X248299Y304000D01*
X242199Y301999D01*
X238099Y297899D01*
X235999Y291799D01*
X2434600Y870500D02*
G01*
X2467299Y870500D01*
X2473500Y868400D01*
X2475500Y866399D01*
X2477500Y862300D01*
X2477500Y858200D01*
X2475500Y854099D01*
X2473500Y851999D01*
X2467299Y850000D01*
X2463199Y850000D01*
X2442799Y884000D02*
G01*
X2440699Y888000D01*
X2434600Y894200D01*
X2477500Y894200D01*
X2434600Y1160500D02*
G01*
X2467299Y1160500D01*
X2473500Y1158400D01*
X2475500Y1156399D01*
X2477500Y1152300D01*
X2477500Y1148200D01*
X2475500Y1144099D01*
X2473500Y1141999D01*
X2467299Y1140000D01*
X2463199Y1140000D01*
X2444799Y1175999D02*
G01*
X2442799Y1175999D01*
X2438699Y1178000D01*
X2436599Y1180100D01*
X2434600Y1184200D01*
X2434600Y1192399D01*
X2436599Y1196500D01*
X2438699Y1198499D01*
X2442799Y1200500D01*
X2446899Y1200500D01*
X2451000Y1198499D01*
X2457100Y1194400D01*
X2477500Y1174000D01*
X2477500Y1202600D01*
G36*
X2243160Y495000D02*
G01*
X2241240Y494840D01*
X2239380Y494340D01*
X2237640Y493519D01*
X2236060Y492420D01*
X2234700Y491060D01*
X2233600Y489480D01*
X2233140Y488620D01*
X2232480Y486800D01*
X2232160Y484900D01*
X2232120Y468640D01*
X2232280Y466599D01*
X2232740Y464600D01*
X2233540Y462720D01*
X2234600Y460980D01*
X2235920Y459420D01*
X2237480Y458080D01*
X2239220Y457020D01*
X2240160Y456580D01*
X2242100Y455959D01*
X2244120Y455640D01*
X2274640Y455560D01*
X2274960Y455220D01*
X2275000Y495000D01*
G37*
D14*
X275000Y925000D02*
G01*
X2075000Y925000D01*
X275000Y1425000D02*
G01*
X2075000Y1425000D01*
D12*
X2300000Y775000D02*
G01*
X2275000Y775000D01*
X2275000Y875000D01*
X2300000Y875000D01*
X2425000Y725000D02*
G01*
X2559448Y725000D01*
X2425000Y1625000D02*
G01*
X2559448Y1625000D01*
X2425000Y1025000D02*
G01*
X2559448Y1025000D01*
X2425000Y1425000D02*
G01*
X2559448Y1425000D01*
X2425000Y1325000D02*
G01*
X2559448Y1325000D01*
D11*
X2180000Y1325000D02*
G01*
X2178936Y1588386D01*
X2178936Y761613D02*
G01*
X2180000Y1025000D01*
X171062Y1332480D02*
G01*
X171062Y1017519D01*
X171062Y1332480D02*
G01*
X171062Y1588386D01*
X171062Y1017519D02*
G01*
X171062Y761613D01*
X119882Y1332480D02*
G01*
X119882Y1017519D01*
X171062Y1332480D02*
G01*
X119882Y1332480D01*
X119881Y1017519D02*
G01*
X171062Y1017519D01*
X275000Y534054D02*
G01*
X275000Y415945D01*
X172244Y534054D02*
G01*
X1077755Y534054D01*
X1077755Y415945D01*
X1077755Y415945D02*
G01*
X172244Y415945D01*
X172244Y415945D02*
G01*
X172244Y534054D01*
D12*
X2325000Y1325000D02*
G01*
X2225000Y1325000D01*
X2225000Y1425000D01*
X2325000Y1425000D01*
X2325000Y1350000D01*
D15*
X2325000Y1325000D02*
G01*
X2325000Y1350000D01*
D11*
X2275000Y495000D02*
G01*
X2275000Y505000D01*
X2275000Y445000D02*
G01*
X2275000Y455000D01*
X2275000Y445001D02*
G01*
X2275000Y275001D01*
X1375000Y275001D01*
X2275000Y505001D02*
G01*
X2275000Y675001D01*
X2265000Y675001D01*
X1375000Y275000D02*
G01*
X1375000Y675000D01*
X2265000Y675000D01*
X1775000Y375000D02*
G01*
X1425000Y375000D01*
X1425000Y575000D01*
X1775000Y575000D01*
X1775000Y375000D01*
X2225000Y375000D02*
G01*
X1875000Y375000D01*
X1875000Y575000D01*
X2225000Y575000D01*
X2225000Y375000D01*
X2275000Y455000D02*
G01*
X2250000Y455000D01*
X2250000Y495000D02*
G01*
X2275000Y495000D01*
X2275000Y455000D02*
G01*
X2275000Y495000D01*
D12*
X2325000Y1400000D02*
G01*
X2325000Y1325000D01*
X2425000Y1325000D01*
X2425000Y1625000D01*
X2325000Y1625000D01*
D15*
X2325000Y1625000D02*
G01*
X2325000Y1400000D01*
D12*
X1475000Y250000D02*
G01*
X1475000Y150000D01*
X175000Y250000D02*
G01*
X2275000Y250000D01*
X2275000Y150000D01*
X175000Y150000D01*
X175000Y250000D01*
X1175000Y250000D02*
G01*
X1175000Y150000D01*
X975000Y250000D02*
G01*
X975000Y150000D01*
X2425000Y950000D02*
G01*
X2425000Y1025000D01*
X2325000Y1025000D01*
X2325000Y725000D01*
X2425000Y725000D01*
D15*
X2425000Y725000D02*
G01*
X2425000Y950000D01*
D12*
X2325000Y1100000D02*
G01*
X2325000Y1025000D01*
X2425000Y1025000D01*
X2425000Y1325000D01*
X2325000Y1325000D01*
D15*
X2325000Y1325000D02*
G01*
X2325000Y1100000D01*
D11*
G75*
G01*
X2250000Y455000D02*
G02*
X2230000Y475000I0J20000D01*
G75*
G01*
X2230000Y475000D02*
G02*
X2250000Y495000I20000J0D01*
D16*
G75*
G01
X2231000Y695000D02*
G03X2231000Y695000I-6000J0D01*
D17*
G75*
G01
X230910Y390000D02*
G03X230910Y390000I-5910J0D01*
M02*
