G04 Layer: BottomPasteMaskLayer*
G04 EasyEDA v6.5.39, 2024-02-04 17:50:00*
G04 ca02cd42b7a24e50ad9d11446f9c8c94,5509f98a9368439c9cde498926e245b9,10*
G04 Gerber Generator version 0.2*
G04 Scale: 100 percent, Rotated: No, Reflected: No *
G04 Dimensions in inches *
G04 leading zeros omitted , absolute positions ,3 integer and 6 decimal *
%FSLAX36Y36*%
%MOIN*%

%AMMACRO1*21,1,$1,$2,0,0,$3*%
%ADD10MACRO1,0.025X0.05X-90.0000*%
%ADD11MACRO1,0.025X0.05X0.0000*%
%ADD12MACRO1,0.025X0.05X90.0000*%
%ADD13R,0.0532X0.0555*%
%ADD14MACRO1,0.0532X0.0555X0.0000*%
%ADD15MACRO1,0.0532X0.0555X-90.0000*%
%ADD16MACRO1,0.0532X0.0555X90.0000*%
%ADD17MACRO1,0.0374X0.0453X0.0000*%
%ADD18MACRO1,0.0374X0.0453X90.0000*%
%ADD19MACRO1,0.0935X0.0593X-90.0000*%
%ADD20MACRO1,0.0374X0.0453X-90.0000*%
%ADD21MACRO1,0.036X0.038X0.0000*%
%ADD22C,0.0141*%

%LPD*%
G36*
X5880460Y930560D02*
G01*
X5876520Y926620D01*
X5876520Y886940D01*
X5880460Y883020D01*
X5939539Y883020D01*
X5943480Y886940D01*
X5943480Y926620D01*
X5939539Y930560D01*
X5925320Y930560D01*
X5921380Y926620D01*
X5921380Y918319D01*
X5917440Y914380D01*
X5902560Y914380D01*
X5898620Y918319D01*
X5898620Y926620D01*
X5894680Y930560D01*
G37*
G36*
X5880460Y1046979D02*
G01*
X5876520Y1043060D01*
X5876520Y1003379D01*
X5880460Y999440D01*
X5894680Y999440D01*
X5898620Y1003379D01*
X5898620Y1011680D01*
X5902560Y1015620D01*
X5917440Y1015620D01*
X5921380Y1011680D01*
X5921380Y1003379D01*
X5925320Y999440D01*
X5939539Y999440D01*
X5943480Y1003379D01*
X5943480Y1043060D01*
X5939539Y1046979D01*
G37*
G36*
X447000Y578160D02*
G01*
X443080Y574220D01*
X443080Y475780D01*
X447000Y471840D01*
X503500Y471840D01*
X507440Y475780D01*
X507440Y503000D01*
X503500Y506920D01*
X489500Y506920D01*
X485560Y510860D01*
X485560Y539140D01*
X489500Y543080D01*
X503500Y543080D01*
X507440Y547000D01*
X507440Y574220D01*
X503500Y578160D01*
G37*
G36*
X566500Y578160D02*
G01*
X562560Y574220D01*
X562560Y547000D01*
X566500Y543080D01*
X580500Y543080D01*
X584440Y539140D01*
X584440Y510860D01*
X580500Y506920D01*
X566500Y506920D01*
X562560Y503000D01*
X562560Y475780D01*
X566500Y471840D01*
X623000Y471840D01*
X626920Y475780D01*
X626920Y574220D01*
X623000Y578160D01*
G37*
G36*
X727000Y588160D02*
G01*
X723080Y584220D01*
X723080Y485780D01*
X727000Y481840D01*
X783500Y481840D01*
X787440Y485780D01*
X787440Y513000D01*
X783500Y516920D01*
X769500Y516920D01*
X765560Y520860D01*
X765560Y549140D01*
X769500Y553080D01*
X783500Y553080D01*
X787440Y557000D01*
X787440Y584220D01*
X783500Y588160D01*
G37*
G36*
X846500Y588160D02*
G01*
X842560Y584220D01*
X842560Y557000D01*
X846500Y553080D01*
X860500Y553080D01*
X864440Y549140D01*
X864440Y520860D01*
X860500Y516920D01*
X846500Y516920D01*
X842560Y513000D01*
X842560Y485780D01*
X846500Y481840D01*
X903000Y481840D01*
X906919Y485780D01*
X906919Y584220D01*
X903000Y588160D01*
G37*
G36*
X631500Y1653160D02*
G01*
X627560Y1649220D01*
X627560Y1622000D01*
X631500Y1618080D01*
X645500Y1618080D01*
X649440Y1614139D01*
X649440Y1585860D01*
X645500Y1581920D01*
X631500Y1581920D01*
X627560Y1578000D01*
X627560Y1550780D01*
X631500Y1546840D01*
X688000Y1546840D01*
X691919Y1550780D01*
X691919Y1649220D01*
X688000Y1653160D01*
G37*
G36*
X512000Y1653160D02*
G01*
X508080Y1649220D01*
X508080Y1550780D01*
X512000Y1546840D01*
X568500Y1546840D01*
X572440Y1550780D01*
X572440Y1578000D01*
X568500Y1581920D01*
X554500Y1581920D01*
X550560Y1585860D01*
X550560Y1614139D01*
X554500Y1618080D01*
X568500Y1618080D01*
X572440Y1622000D01*
X572440Y1649220D01*
X568500Y1653160D01*
G37*
G36*
X1587000Y2103160D02*
G01*
X1583080Y2099220D01*
X1583080Y2000780D01*
X1587000Y1996840D01*
X1643500Y1996840D01*
X1647440Y2000780D01*
X1647440Y2028000D01*
X1643500Y2031920D01*
X1629500Y2031920D01*
X1625560Y2035860D01*
X1625560Y2064139D01*
X1629500Y2068080D01*
X1643500Y2068080D01*
X1647440Y2072000D01*
X1647440Y2099220D01*
X1643500Y2103160D01*
G37*
G36*
X1706500Y2103160D02*
G01*
X1702560Y2099220D01*
X1702560Y2072000D01*
X1706500Y2068080D01*
X1720500Y2068080D01*
X1724440Y2064139D01*
X1724440Y2035860D01*
X1720500Y2031920D01*
X1706500Y2031920D01*
X1702560Y2028000D01*
X1702560Y2000780D01*
X1706500Y1996840D01*
X1763000Y1996840D01*
X1766920Y2000780D01*
X1766920Y2099220D01*
X1763000Y2103160D01*
G37*
G36*
X2775779Y1511920D02*
G01*
X2771860Y1508000D01*
X2771860Y1451500D01*
X2775779Y1447560D01*
X2803000Y1447560D01*
X2806920Y1451500D01*
X2806920Y1465500D01*
X2810860Y1469440D01*
X2839140Y1469440D01*
X2843080Y1465500D01*
X2843080Y1451500D01*
X2847000Y1447560D01*
X2874220Y1447560D01*
X2878140Y1451500D01*
X2878140Y1508000D01*
X2874220Y1511920D01*
G37*
G36*
X2775779Y1392440D02*
G01*
X2771860Y1388500D01*
X2771860Y1332000D01*
X2775779Y1328080D01*
X2874220Y1328080D01*
X2878140Y1332000D01*
X2878140Y1388500D01*
X2874220Y1392440D01*
X2847000Y1392440D01*
X2843080Y1388500D01*
X2843080Y1374500D01*
X2839140Y1370560D01*
X2810860Y1370560D01*
X2806920Y1374500D01*
X2806920Y1388500D01*
X2803000Y1392440D01*
G37*
G36*
X5660780Y2711920D02*
G01*
X5656860Y2708000D01*
X5656860Y2651500D01*
X5660780Y2647559D01*
X5688000Y2647559D01*
X5691920Y2651500D01*
X5691920Y2665500D01*
X5695860Y2669440D01*
X5724140Y2669440D01*
X5728080Y2665500D01*
X5728080Y2651500D01*
X5732000Y2647559D01*
X5759220Y2647559D01*
X5763140Y2651500D01*
X5763140Y2708000D01*
X5759220Y2711920D01*
G37*
G36*
X5660780Y2592440D02*
G01*
X5656860Y2588500D01*
X5656860Y2532000D01*
X5660780Y2528080D01*
X5759220Y2528080D01*
X5763140Y2532000D01*
X5763140Y2588500D01*
X5759220Y2592440D01*
X5732000Y2592440D01*
X5728080Y2588500D01*
X5728080Y2574500D01*
X5724140Y2570560D01*
X5695860Y2570560D01*
X5691920Y2574500D01*
X5691920Y2588500D01*
X5688000Y2592440D01*
G37*
G36*
X5120780Y1412440D02*
G01*
X5116860Y1408500D01*
X5116860Y1352000D01*
X5120780Y1348080D01*
X5219220Y1348080D01*
X5223140Y1352000D01*
X5223140Y1408500D01*
X5219220Y1412440D01*
X5192000Y1412440D01*
X5188080Y1408500D01*
X5188080Y1394500D01*
X5184140Y1390560D01*
X5155860Y1390560D01*
X5151920Y1394500D01*
X5151920Y1408500D01*
X5148000Y1412440D01*
G37*
G36*
X5120780Y1531920D02*
G01*
X5116860Y1528000D01*
X5116860Y1471500D01*
X5120780Y1467560D01*
X5148000Y1467560D01*
X5151920Y1471500D01*
X5151920Y1485500D01*
X5155860Y1489440D01*
X5184140Y1489440D01*
X5188080Y1485500D01*
X5188080Y1471500D01*
X5192000Y1467560D01*
X5219220Y1467560D01*
X5223140Y1471500D01*
X5223140Y1528000D01*
X5219220Y1531920D01*
G37*
G36*
X5544920Y566540D02*
G01*
X5540980Y562600D01*
X5540980Y512000D01*
X5544920Y508080D01*
X5605080Y508080D01*
X5609020Y512000D01*
X5609020Y562600D01*
X5605080Y566540D01*
X5590500Y566540D01*
X5586559Y562600D01*
X5586559Y550600D01*
X5582619Y546660D01*
X5567380Y546660D01*
X5563440Y550600D01*
X5563440Y562600D01*
X5559500Y566540D01*
G37*
G36*
X5544920Y691919D02*
G01*
X5540980Y688000D01*
X5540980Y637400D01*
X5544920Y633460D01*
X5559500Y633460D01*
X5563440Y637400D01*
X5563440Y649400D01*
X5567380Y653340D01*
X5582619Y653340D01*
X5586559Y649400D01*
X5586559Y637400D01*
X5590500Y633460D01*
X5605080Y633460D01*
X5609020Y637400D01*
X5609020Y688000D01*
X5605080Y691919D01*
G37*
G36*
X5645780Y572440D02*
G01*
X5641860Y568500D01*
X5641860Y512000D01*
X5645780Y508080D01*
X5744220Y508080D01*
X5748140Y512000D01*
X5748140Y568500D01*
X5744220Y572440D01*
X5717000Y572440D01*
X5713080Y568500D01*
X5713080Y554500D01*
X5709140Y550560D01*
X5680860Y550560D01*
X5676920Y554500D01*
X5676920Y568500D01*
X5673000Y572440D01*
G37*
G36*
X5645780Y691919D02*
G01*
X5641860Y688000D01*
X5641860Y631500D01*
X5645780Y627560D01*
X5673000Y627560D01*
X5676920Y631500D01*
X5676920Y645500D01*
X5680860Y649440D01*
X5709140Y649440D01*
X5713080Y645500D01*
X5713080Y631500D01*
X5717000Y627560D01*
X5744220Y627560D01*
X5748140Y631500D01*
X5748140Y688000D01*
X5744220Y691919D01*
G37*
D10*
G01*
X2056689Y3450000D03*
G01*
X2143310Y3487399D03*
G01*
X2143310Y3412600D03*
D11*
G01*
X5700000Y1473310D03*
G01*
X5737399Y1386689D03*
G01*
X5662600Y1386689D03*
D12*
G01*
X5618310Y835000D03*
G01*
X5531689Y797600D03*
G01*
X5531689Y872399D03*
D13*
G01*
X2275000Y635630D03*
D14*
G01*
X2275005Y714370D03*
D13*
G01*
X5825000Y1314369D03*
D14*
G01*
X5825005Y1235625D03*
D13*
G01*
X2675000Y714369D03*
D14*
G01*
X2675005Y635625D03*
D13*
G01*
X2800000Y464369D03*
D14*
G01*
X2800005Y385625D03*
D13*
G01*
X6700000Y1539369D03*
D14*
G01*
X6700005Y1460625D03*
D13*
G01*
X1600000Y935630D03*
D14*
G01*
X1600000Y1014370D03*
D15*
G01*
X2264375Y924995D03*
G01*
X2185630Y924995D03*
D13*
G01*
X3700000Y464369D03*
D14*
G01*
X3700005Y385625D03*
D13*
G01*
X3650000Y1014369D03*
D14*
G01*
X3650005Y935625D03*
D16*
G01*
X4610630Y1024995D03*
G01*
X4689375Y1024995D03*
D13*
G01*
X3200000Y925630D03*
D14*
G01*
X3200005Y1004370D03*
D13*
G01*
X4600000Y464369D03*
D14*
G01*
X4600005Y385625D03*
D16*
G01*
X5860630Y1649995D03*
G01*
X5939375Y1649995D03*
D13*
G01*
X4550000Y2739369D03*
D14*
G01*
X4550005Y2660625D03*
D13*
G01*
X3100000Y3060630D03*
D14*
G01*
X3100005Y3139370D03*
D15*
G01*
X3814375Y3049995D03*
G01*
X3735630Y3049995D03*
D13*
G01*
X2600000Y3614369D03*
D14*
G01*
X2600005Y3535625D03*
D13*
G01*
X5500000Y3310630D03*
D14*
G01*
X5500005Y3389370D03*
D13*
G01*
X4700000Y3310630D03*
D14*
G01*
X4700005Y3389370D03*
D13*
G01*
X5050000Y1410630D03*
D14*
G01*
X5050005Y1489370D03*
D13*
G01*
X2500000Y3239369D03*
D14*
G01*
X2500005Y3160625D03*
D13*
G01*
X7500000Y3460630D03*
D14*
G01*
X7500005Y3539370D03*
D15*
G01*
X6364375Y1299995D03*
G01*
X6285630Y1299995D03*
D13*
G01*
X6350000Y3364369D03*
D14*
G01*
X6350005Y3285625D03*
D13*
G01*
X7575000Y2260630D03*
D14*
G01*
X7575005Y2339370D03*
D13*
G01*
X7575000Y2860630D03*
D14*
G01*
X7575005Y2939370D03*
D13*
G01*
X7500000Y1760630D03*
D14*
G01*
X7500005Y1839370D03*
D15*
G01*
X6464375Y2524995D03*
G01*
X6385630Y2524995D03*
D13*
G01*
X825000Y1499369D03*
D14*
G01*
X825004Y1420625D03*
D15*
G01*
X949375Y3299995D03*
G01*
X870629Y3299995D03*
D13*
G01*
X350000Y989369D03*
D14*
G01*
X350004Y910625D03*
G01*
X825004Y1620625D03*
D13*
G01*
X825000Y1699369D03*
D14*
G01*
X1200000Y1629370D03*
D13*
G01*
X1200000Y1550630D03*
D14*
G01*
X5700005Y745625D03*
D13*
G01*
X5700000Y824369D03*
D14*
G01*
X5790005Y824370D03*
D13*
G01*
X5790000Y745630D03*
D17*
G01*
X641630Y875000D03*
G01*
X508369Y875000D03*
G01*
X708369Y875000D03*
G01*
X841630Y875000D03*
D15*
G01*
X540629Y959995D03*
G01*
X619375Y959995D03*
D14*
G01*
X450004Y2914370D03*
D13*
G01*
X450000Y2835630D03*
D14*
G01*
X530004Y3014370D03*
D13*
G01*
X530000Y2935630D03*
D14*
G01*
X610004Y3014370D03*
D13*
G01*
X610000Y2935630D03*
D14*
G01*
X690004Y3014370D03*
D13*
G01*
X690000Y2935630D03*
D14*
G01*
X530004Y2839370D03*
D13*
G01*
X530000Y2760630D03*
D14*
G01*
X610004Y2760625D03*
D13*
G01*
X610000Y2839369D03*
D18*
G01*
X1665000Y1576630D03*
G01*
X1665000Y1443370D03*
D14*
G01*
X1575000Y1470625D03*
D13*
G01*
X1575000Y1549369D03*
D14*
G01*
X6050005Y539370D03*
D13*
G01*
X6050000Y460630D03*
D14*
G01*
X2475005Y814370D03*
D13*
G01*
X2475000Y735630D03*
D14*
G01*
X2475005Y614370D03*
D13*
G01*
X2475000Y535630D03*
D16*
G01*
X1309375Y909995D03*
G01*
X1230630Y909995D03*
D14*
G01*
X1950005Y3489370D03*
D13*
G01*
X1950000Y3410630D03*
D16*
G01*
X1989375Y3574995D03*
G01*
X1910630Y3574995D03*
D14*
G01*
X5575005Y1489370D03*
D13*
G01*
X5575000Y1410630D03*
D14*
G01*
X5475005Y1489370D03*
D13*
G01*
X5475000Y1410630D03*
D16*
G01*
X5489375Y1224995D03*
G01*
X5410630Y1224995D03*
D14*
G01*
X5475005Y605625D03*
D13*
G01*
X5475000Y684369D03*
D16*
G01*
X5439375Y849995D03*
G01*
X5360630Y849995D03*
G01*
X5739375Y1234995D03*
G01*
X5660630Y1234995D03*
G01*
X5739375Y1314995D03*
G01*
X5660630Y1314995D03*
D15*
G01*
X5360630Y769995D03*
G01*
X5439375Y769995D03*
D14*
G01*
X3400005Y1014370D03*
D13*
G01*
X3400000Y935630D03*
D14*
G01*
X3025005Y1014370D03*
D13*
G01*
X3025000Y935630D03*
D14*
G01*
X2231694Y3448525D03*
D13*
G01*
X2231689Y3527269D03*
D14*
G01*
X5375005Y605625D03*
D13*
G01*
X5375000Y684369D03*
D15*
G01*
X3835630Y3474995D03*
G01*
X3914375Y3474995D03*
D13*
G01*
X1285000Y1629369D03*
D14*
G01*
X1285000Y1550625D03*
D19*
G01*
X2048249Y3700000D03*
G01*
X1901750Y3700000D03*
D20*
G01*
X1725000Y3433370D03*
G01*
X1725000Y3566630D03*
D21*
G01*
X3493499Y1650000D03*
G01*
X3556500Y1650000D03*
M02*
