M48
INCH,LZ
;FILE_FORMAT=2:4
;TYPE=PLATED
;Layer: PTH_Through
;EasyEDA v6.5.39, 2024-02-04 18:04:26
;6365909e63f64f6689fdd3236b4dce0a,5509f98a9368439c9cde498926e245b9,10
;Gerber Generator version 0.2
;Holesize 1 = 0.0200 inch
T01C0.0200
;Holesize 2 = 0.0280 inch
T02C0.0280
;Holesize 3 = 0.0300 inch
T03C0.0300
;Holesize 4 = 0.0320 inch
T04C0.0320
;Holesize 5 = 0.0320 inch
T05C0.0320
;Holesize 6 = 0.0350 inch
T06C0.0350
;Holesize 7 = 0.0390 inch
T07C0.0390
;Holesize 8 = 0.0430 inch
T08C0.0430
;Holesize 9 = 0.0550 inch
T09C0.0550
;Holesize 10 = 0.1060 inch
T10C0.1060
%
G05
G90
T01
X006121Y003636G85X006121Y004036
X009979Y002180G85X009979Y002580
X017500Y031500
X023250Y021000
X018750Y019500
X018750Y023750
X017750Y018000
X017750Y024750
X018250Y016000
X018250Y024250
X031400Y015500
X036000Y023000
X030800Y016950
X019000Y026000
X027750Y023000
X027500Y028500
X017250Y021500
X039700Y032050
X047000Y022250
X041000Y016850
X049500Y035750
X046000Y018250
X056500Y028000
X057500Y028750
X042600Y013500
X048000Y036750
X059400Y017200
X028600Y032100
X025200Y035350
X024000Y036250
X022250Y011150
X037750Y031500
X059400Y015800
X052500Y015000
X037750Y035500
X029600Y013350
X037750Y014750
X028950Y029000
X017950Y007100
X017800Y004750
X019700Y009400
X016050Y012200
X021000Y013000
X015100Y008550
X039500Y002250
X036650Y030800
X059250Y026400
X035000Y029500
X049500Y021250
X050500Y020250
X051500Y019250
X052500Y018750
X053000Y019750
X054500Y020750
X053500Y021750
X051000Y019750
X049000Y020750
X048000Y021750
X059750Y034000
X020000Y002550
X042000Y009000
X043000Y025500
X042800Y026250
X043250Y024750
X043650Y024050
X044500Y031000
X044750Y032000
X044200Y023600
X056000Y032250
X056500Y031750
X057000Y031250
X056500Y029250
X021500Y033750
X021500Y017500
X028750Y003850
X039400Y013950
X024900Y012000
X045250Y010250
X045250Y010250
X035000Y003850
X036000Y004650
X035500Y010150
X035500Y012100
X053000Y013250
X014000Y035000
X014250Y036417
X044000Y001000
X016250Y019600
X015000Y019500
X015750Y022000
X014950Y020450
X015000Y022750
X052350Y009900
X059000Y011000
X052000Y007150
X021000Y030500
X021000Y029000
X022500Y029000
X022500Y025000
X021000Y025000
X028800Y017100
X027300Y016700
X036000Y017300
X038500Y017300
X044400Y017350
X044800Y024800
X060000Y037900
X052050Y034000
X050450Y034000
X056500Y035250
X057500Y036150
X055500Y027750
X055500Y025500
X049900Y029500
X052000Y029300
X047050Y030950
X051000Y031000
X044950Y032850
X044700Y028900
X047000Y029750
X046304Y026500
X036600Y032400
X035500Y032500
X032500Y033150
X030500Y033150
X032500Y036200
X029950Y035650
X028950Y035650
X027950Y035650
X026650Y035350
X022400Y032150
X024950Y030750
X028000Y030000
X031050Y032100
X024000Y038000
X018000Y038000
X037050Y038050
X011250Y031000
X011250Y025500
X011150Y005850
X011200Y003900
X015000Y005900
X015100Y007250
X015000Y004450
X021600Y008300
X021600Y006200
X023000Y003950
X026550Y010100
X023000Y007850
X023000Y005605
X025350Y006700
X024650Y002750
X035000Y001000
X022000Y002750
X013500Y001000
X051000Y001000
X037700Y003850
X039050Y004000
X040800Y004000
X040500Y002250
X044850Y005350
X046250Y001950
X049850Y002050
X046700Y003850
X050150Y006950
X051650Y004550
X038000Y010250
X041350Y010450
X039250Y010250
X040950Y009000
X046900Y009600
X050550Y009350
X052600Y005350
X031250Y009250
X050000Y024050
X028300Y010250
X030500Y011900
X033500Y011950
X032500Y012950
X047684Y010250
X016750Y025500
X016750Y027250
X014950Y028800
X017300Y029200
X016600Y030000
X014950Y030000
X014950Y031000
X016600Y031000
X018450Y027350
X014900Y018100
X026200Y008500
X029500Y006750
X027250Y005450
X058490Y036159
X054350Y034200
X048650Y004850
X048300Y029500
X051500Y027550
X049700Y031000
X048450Y027550
X037000Y029000
X038450Y029000
X035500Y029000
X035300Y030200
X011250Y027300
X011700Y029000
X027250Y003850
X055750Y015750
X054750Y015750
X059000Y034750
X056750Y015500
X061750Y036950
X060750Y033700
X058500Y015700
X059250Y032000
X052000Y016000
X053750Y015750
X062850Y036218
X060650Y036218
X062750Y033700
X017200Y019550
X040550Y030050
X031700Y031400
X060650Y020650
X061250Y016000
X059500Y020750
X058700Y020250
X063500Y022250
X059850Y008300
X059900Y005500
X059000Y014150
X059250Y031250
X069500Y026750
X072000Y027000
X066250Y014450
X063050Y019900
X060100Y024550
X060050Y026900
X060000Y031250
X012400Y032100
X011850Y013500
X012250Y034000
X015000Y025500
X011500Y022500
X007500Y022500
X007500Y025250
X005750Y033750
X003000Y029500
X001000Y012500
X001000Y020500
X001000Y026500
X003500Y038000
X001000Y033750
X001000Y006250
X007000Y002200
X009050Y003450
X007600Y017650
X005000Y020750
X012400Y006750
X010550Y012250
X013000Y038000
X002750Y005250
X011250Y014400
X011350Y016300
X059250Y027300
X011150Y009300
X008300Y028050
X006150Y026950
X006650Y015600
X009900Y011900
X005400Y013500
X007600Y018400
X006650Y017650
X005000Y023500
X008500Y033050
X011250Y033250
X005000Y025750
X004750Y004000
X006750Y005150
X011250Y023500
X017000Y014500
X007600Y015700
X007600Y014950
X007700Y012500
X006250Y021250
X003000Y015500
X003000Y023500
X016100Y016500
X011350Y019500
X005400Y019000
X006950Y026950
X004750Y027500
X015894Y027238
X013150Y014150
X013000Y027200
X013000Y017650
X015200Y012850
X014700Y009850
X021100Y014650
X015950Y010550
X042050Y014150
X019150Y009900
X019200Y008750
X019200Y003650
X018900Y015050
X017450Y011200
X009650Y009100
X015450Y016150
X001000Y020500
X001000Y018500
X049250Y014000
X049800Y015000
X014850Y014100
X023150Y010150
X023000Y011150
X032750Y010000
X017650Y005750
X027700Y012200
X034500Y013500
X026400Y002750
X036500Y027500
X047750Y034000
X039200Y029800
X042200Y035050
X043750Y035000
X038500Y034750
X036700Y035650
X040250Y035250
X046000Y035250
X045250Y030650
X010850Y021800
X011800Y020850
X011950Y022000
X013450Y021000
X005950Y011950
X009200Y021500
X005400Y008600
X004250Y007950
X016600Y009900
X024000Y035460
X044750Y022750
X060250Y019000
X060650Y031850
X064450Y022000
X061250Y026250
X067150Y025150
X069150Y008500
X065400Y007100
X072250Y007500
X066700Y020500
X066750Y038000
X068750Y036750
X063000Y038000
X071000Y036000
X072000Y034000
X072000Y030000
X073000Y032000
X072750Y025500
X073000Y017000
X073000Y013000
X073000Y009000
X073000Y005000
X073000Y021000
X062550Y027400
X064200Y030250
X062050Y028450
X069700Y027950
X062050Y030400
X063500Y029900
X067050Y030900
X069500Y030600
X069700Y031500
X067100Y032200
X064350Y032700
X070000Y032500
X067050Y029600
X063500Y030850
X064500Y034250
X068000Y034300
X012500Y011750
X018800Y011650
X018800Y007550
X021000Y011300
X017850Y012150
X029600Y014800
X026250Y014750
X027500Y014800
X043500Y002000
X012950Y003250
X060750Y017950
X063250Y018000
X060250Y016550
X063250Y016500
X063250Y015500
X060700Y019950
X059550Y020050
X070250Y024250
X070250Y013350
X059800Y012850
X064075Y007698
X063100Y006500
X062850Y005400
X062300Y007300
X061500Y003750
X066450Y005200
X066450Y007800
X059800Y013850
X070250Y014100
X063700Y023550
X063000Y024250
X064494Y025000
X065100Y028676
X065100Y031550
X064200Y028150
X065400Y005900
X069600Y016300
X069600Y014700
X032500Y003850
X030500Y006750
X049100Y010200
X069600Y022800
X069550Y024350
X067250Y023250
X066600Y019000
X066600Y018000
X066600Y016850
X068250Y012700
X064100Y012700
X066300Y012700
X071400Y012700
X069800Y012700
X060600Y011000
X060600Y012500
X065800Y032200
X066350Y029900
X065100Y030750
X045300Y003850
X036300Y003850
X024600Y004550
X020000Y001000
X027000Y001000
X068500Y009250
X069750Y009250
X067500Y007000
X015650Y011700
X012300Y011100
X019500Y011200
X014700Y012250
X025950Y013100
X023750Y012450
X025450Y014200
X065300Y025000
X030900Y014600
X024350Y009900
X034600Y010150
X018800Y007550
X037200Y009350
X060000Y037000
X057500Y030750
X057000Y029750
X058250Y028750
X058150Y025600
X058250Y027600
X058500Y031250
X060000Y029500
X061400Y032600
X061800Y025700
X028500Y024000
X030550Y036350
X029850Y031350
X061500Y009250
X063450Y010100
X063473Y008300
X059850Y007050
T02
X025750Y005785
X025750Y007715
X055907Y004128G85X055593Y004128
T03
X071250Y023500
X071250Y022500
X071250Y021500
X071250Y020500
X071250Y019500
X071250Y018500
X071250Y017500
X071250Y016500
X071250Y015500
X071250Y014500
X068250Y014500
X068250Y015500
X068250Y016500
X068250Y017500
X068250Y018500
X068250Y019500
X068250Y020500
X068250Y021500
X068250Y022500
X068250Y023500
X065250Y023500
X065250Y022500
X065250Y021500
X065250Y020500
X065250Y019500
X065250Y018500
X065250Y017500
X065250Y016500
X065250Y015500
X065250Y014500
X062250Y014500
X062250Y015500
X062250Y016500
X062250Y017500
X062250Y018500
X062250Y019500
X062250Y020500
X062250Y021500
X062250Y022500
X062250Y023500
X021000Y019500
X021000Y020500
X023750Y009250
X023750Y008250
X023750Y007250
X023750Y006250
X023750Y005250
X023750Y004250
X023750Y003250
X020750Y003250
X020750Y004250
X020750Y005250
X020750Y006250
X020750Y007250
X020750Y008250
X020750Y009250
X046000Y011250
X047000Y011250
X048000Y011250
X049000Y011250
X050000Y011250
X051000Y011250
X052000Y011250
X052000Y008250
X051000Y008250
X050000Y008250
X049000Y008250
X048000Y008250
X047000Y008250
X046000Y008250
X058500Y017500
X057500Y017500
X056500Y017500
X055500Y017500
X054500Y017500
X053500Y017500
X052499Y017500
X051500Y017500
X050500Y017500
X049500Y017500
X048500Y017500
X047500Y017500
X046500Y017500
X045500Y017500
X045500Y023500
X046500Y023500
X047500Y023500
X048500Y023500
X049500Y023500
X050500Y023500
X051500Y023500
X052500Y023500
X053500Y023500
X054500Y023500
X055500Y023500
X056500Y023500
X057500Y023500
X058500Y023500
X017000Y009250
X017000Y008250
X017000Y007250
X017000Y006250
X017000Y005250
X017000Y004250
X017000Y003250
X014000Y003250
X014000Y004250
X014000Y005250
X014000Y006250
X014000Y007250
X014000Y008250
X014000Y009250
X046000Y006000
X047000Y006000
X048000Y006000
X049000Y006000
X050000Y006000
X051000Y006000
X052000Y006000
X052000Y003000
X051000Y003000
X050000Y003000
X049000Y003000
X048000Y003000
X047000Y003000
X046000Y003000
X045500Y028500
X046500Y028500
X047500Y028500
X048500Y028500
X049500Y028500
X050500Y028500
X051500Y028500
X052500Y028500
X053500Y028500
X054500Y028500
X054500Y025500
X053500Y025500
X052500Y025500
X051500Y025500
X050500Y025500
X049500Y025500
X048500Y025500
X047500Y025500
X046500Y025500
X045500Y025500
X040000Y030500
X040000Y029500
X040000Y028500
X040000Y027500
X040000Y026500
X040000Y025500
X040000Y024499
X040000Y023500
X040000Y022500
X040000Y021500
X040000Y020500
X040000Y019500
X040000Y018500
X040000Y017500
X034000Y017500
X034000Y018500
X034000Y019500
X034000Y020500
X034000Y021500
X034000Y022500
X034000Y023500
X034000Y024500
X034000Y025500
X034000Y026500
X034000Y027500
X034000Y028500
X034000Y029500
X034000Y030500
X050500Y016000
X049500Y016000
X046500Y016000
X045500Y016000
X048500Y016000
X047500Y016000
X044500Y016000
X043500Y016000
X043500Y013000
X044500Y013000
X045500Y013000
X046500Y013000
X047500Y013000
X048500Y013000
X049500Y013000
X050500Y013000
X028000Y011250
X029000Y011250
X030000Y011250
X031000Y011250
X032000Y011250
X033000Y011250
X034000Y011250
X034000Y008250
X033000Y008250
X032000Y008250
X031000Y008250
X030000Y008250
X029000Y008250
X028000Y008250
X046000Y037000
X045000Y037000
X042000Y037000
X041000Y037000
X044000Y037000
X043000Y037000
X040000Y037000
X039000Y037000
X039000Y034000
X040000Y034000
X041000Y034000
X042000Y034000
X043000Y034000
X044000Y034000
X045000Y034000
X046000Y034000
X028000Y003000
X029000Y003000
X032000Y003000
X033000Y003000
X030000Y003000
X031000Y003000
X034000Y003000
X035000Y003000
X035000Y006000
X034000Y006000
X033000Y006000
X032000Y006000
X031000Y006000
X030000Y006000
X029000Y006000
X028000Y006000
X037000Y003000
X038000Y003000
X041000Y003000
X042000Y003000
X039000Y003000
X040000Y003000
X043000Y003000
X044000Y003000
X044000Y006000
X043000Y006000
X042000Y006000
X041000Y006000
X040000Y006000
X039000Y006000
X038000Y006000
X037000Y006000
X036500Y008250
X037500Y008250
X040500Y008250
X041500Y008250
X038500Y008250
X039500Y008250
X042500Y008250
X043500Y008250
X043500Y011250
X042500Y011250
X041500Y011250
X040500Y011250
X039500Y011250
X038500Y011250
X037500Y011250
X036500Y011250
X055000Y035000
X054000Y035000
X051000Y035000
X050000Y035000
X053000Y035000
X052000Y035000
X049000Y035000
X048000Y035000
X048000Y032000
X049000Y032000
X050000Y032000
X051000Y032000
X052000Y032000
X053000Y032000
X054000Y032000
X055000Y032000
X004750Y010250
X005750Y010250
X006750Y010250
X007750Y010250
X008750Y010250
X009750Y010250
X010750Y010250
X010750Y007250
X009750Y007250
X008750Y007250
X007750Y007250
X006750Y007250
X005750Y007250
X004750Y007250
X020000Y031500
X020000Y030500
X020000Y029500
X020000Y028500
X020000Y027500
X020000Y026500
X020000Y025500
X020000Y024500
X020000Y023500
X020000Y022500
X020000Y021500
X020000Y020500
X020000Y019500
X020000Y018500
X020000Y017500
X020000Y016500
X020000Y015500
X020000Y014500
X020000Y013500
X020000Y012500
X014000Y012500
X014000Y013500
X014000Y014500
X014000Y015500
X014000Y016500
X014000Y017500
X014000Y018500
X014000Y019500
X014000Y020500
X014000Y021500
X014000Y022500
X014000Y023500
X014000Y024500
X014000Y025500
X014000Y026500
X014000Y027500
X014000Y028500
X014000Y029500
X014000Y030500
X014000Y031500
X010000Y032000
X010000Y031000
X010000Y030000
X010000Y029000
X010000Y028000
X010000Y027000
X010000Y026000
X010000Y025000
X010000Y024000
X010000Y023000
X010000Y022000
X010000Y021000
X010000Y020000
X010000Y019000
X010000Y018000
X010000Y017000
X010000Y016000
X010000Y015000
X010000Y014000
X010000Y013000
X004000Y013000
X004000Y014000
X004000Y015000
X004000Y016000
X004000Y017000
X004000Y018000
X004000Y019000
X004000Y020000
X004000Y021000
X004000Y022000
X004000Y023000
X004000Y024000
X004000Y025000
X004000Y026000
X004000Y027000
X004000Y028000
X004000Y029000
X004000Y030000
X004000Y031000
X004000Y032000
X026000Y037000
X027000Y037000
X028000Y037000
X029000Y037000
X030000Y037000
X031000Y037000
X032000Y037000
X033000Y037000
X034000Y037000
X035000Y037000
X035000Y034000
X034000Y034000
X033000Y034000
X032000Y034000
X031000Y034000
X030000Y034000
X029000Y034000
X028000Y034000
X027000Y034000
X026000Y034000
X032000Y030500
X032000Y029500
X032000Y028500
X032000Y027500
X032000Y026500
X032000Y025500
X032000Y024499
X032000Y023500
X032000Y022500
X032000Y021500
X032000Y020500
X032000Y019500
X032000Y018500
X032000Y017500
X026000Y017500
X026000Y018500
X026000Y019500
X026000Y020500
X026000Y021500
X026000Y022500
X026000Y023500
X026000Y024500
X026000Y025500
X026000Y026500
X026000Y027500
X026000Y028500
X026000Y029500
X026000Y030500
X021000Y018500
X021000Y019500
X057750Y005450
X055750Y005450
T04
X055986Y000663G85X055514Y000663
X057915Y003892G85X057915Y004364
X053585Y003892G85X053585Y004364
T05
X009642Y005174G85X009922Y005174
X007148Y003302G85X007148Y003582
X008028Y000726G85X008308Y000726
T06
X044000Y038500
X039000Y038500
X040000Y038500
X041000Y038500
X042000Y038500
X043000Y038500
X045000Y038500
X046000Y038500
X047000Y038500
X048000Y038500
X052000Y038500
X053000Y038500
X054000Y038500
X055000Y038500
X056000Y038500
X057000Y038500
X058000Y038500
X059000Y038500
X049000Y038500
X050000Y038500
X051000Y038500
X060500Y002250
X059500Y002250
X002000Y010000
X002000Y011000
X002000Y012000
X002000Y013000
X002000Y014000
X002000Y015000
X002000Y016000
X002000Y017000
X002000Y018000
X002000Y019000
X002000Y020000
X002000Y021000
X002000Y022000
X002000Y023000
X002000Y024000
X002000Y025000
X002000Y026000
X002000Y027000
X002000Y028000
X002000Y029000
X054600Y005550
X053600Y005550
X068500Y026250
X067500Y026250
X066500Y026250
X065500Y026250
X064500Y026250
X063500Y026250
X024000Y032500
X024000Y031500
X024000Y030500
X024000Y029500
X024000Y028500
X024000Y027500
X024000Y026500
X024000Y025500
X024000Y024500
X024000Y023500
X024000Y022500
X024000Y021500
X024000Y020500
X024000Y019500
X024000Y018500
X024000Y017500
X024000Y016500
X024000Y015500
X042000Y032500
X042000Y031500
X042000Y030500
X042000Y029500
X042000Y028500
X042000Y027500
X042000Y026500
X042000Y025500
X042000Y024500
X042000Y023500
X042000Y022500
X042000Y021500
X042000Y020500
X042000Y019500
X042000Y018500
X042000Y017500
X042000Y016500
X042000Y015500
X022250Y015000
X022250Y016000
X022250Y017000
X022250Y018000
X022250Y019000
X022250Y020000
X022250Y021000
X022250Y022000
X022250Y023000
X051000Y036750
X052000Y036750
X053000Y036750
X054000Y036750
X055000Y036750
X056000Y036750
X057000Y036750
X058000Y036750
X059000Y036750
X056500Y011100
X057500Y011100
X054000Y011100
X055000Y011100
X042000Y031500
T07
X064193Y004431G85X063957Y004431
X064193Y002069G85X063957Y002069
X065925Y003132G85X065925Y003368
T08
X067864Y001108
X069636Y001108
X016114Y001108
X017886Y001108
T09
X067372Y002092
X070128Y002092
X015622Y002092
X018378Y002092
T10
X001575Y001575
X073228Y001575
X073228Y037795
X001575Y037795
M30
