G04 Layer: BottomPasteMaskLayer*
G04 EasyEDA v6.5.39, 2024-02-04 18:04:26*
G04 6365909e63f64f6689fdd3236b4dce0a,5509f98a9368439c9cde498926e245b9,10*
G04 Gerber Generator version 0.2*
G04 Scale: 100 percent, Rotated: No, Reflected: No *
G04 Dimensions in inches *
G04 leading zeros omitted , absolute positions ,3 integer and 6 decimal *
%FSLAX36Y36*%
%MOIN*%

%AMMACRO1*21,1,$1,$2,0,0,$3*%
%ADD10R,0.0500X0.0500*%
%ADD11MACRO1,0.0532X0.0555X90.0000*%
%ADD12MACRO1,0.0374X0.0453X0.0000*%
%ADD13MACRO1,0.0236X0.0394X0.0000*%
%ADD14MACRO1,0.0532X0.0555X-90.0000*%
%ADD15MACRO1,0.0532X0.0555X0.0000*%
%ADD16R,0.0532X0.0555*%
%ADD17MACRO1,0.025X0.05X90.0000*%
%ADD18MACRO1,0.025X0.05X0.0000*%
%ADD19MACRO1,0.0374X0.0453X90.0000*%
%ADD20MACRO1,0.0935X0.0593X90.0000*%
%ADD21C,0.0164*%

%LPD*%
G36*
X6035780Y861919D02*
G01*
X6031860Y858000D01*
X6031860Y801500D01*
X6035780Y797560D01*
X6063000Y797560D01*
X6066920Y801500D01*
X6066920Y815500D01*
X6070860Y819440D01*
X6099140Y819440D01*
X6103080Y815500D01*
X6103080Y801500D01*
X6107000Y797560D01*
X6134220Y797560D01*
X6138140Y801500D01*
X6138140Y858000D01*
X6134220Y861919D01*
G37*
G36*
X6035780Y742440D02*
G01*
X6031860Y738500D01*
X6031860Y682000D01*
X6035780Y678080D01*
X6134220Y678080D01*
X6138140Y682000D01*
X6138140Y738500D01*
X6134220Y742440D01*
X6107000Y742440D01*
X6103080Y738500D01*
X6103080Y724500D01*
X6099140Y720560D01*
X6070860Y720560D01*
X6066920Y724500D01*
X6066920Y738500D01*
X6063000Y742440D01*
G37*
G36*
X447000Y578160D02*
G01*
X443080Y574220D01*
X443080Y475780D01*
X447000Y471840D01*
X503500Y471840D01*
X507440Y475780D01*
X507440Y503000D01*
X503500Y506920D01*
X489500Y506920D01*
X485560Y510860D01*
X485560Y539140D01*
X489500Y543080D01*
X503500Y543080D01*
X507440Y547000D01*
X507440Y574220D01*
X503500Y578160D01*
G37*
G36*
X566500Y578160D02*
G01*
X562560Y574220D01*
X562560Y547000D01*
X566500Y543080D01*
X580500Y543080D01*
X584440Y539140D01*
X584440Y510860D01*
X580500Y506920D01*
X566500Y506920D01*
X562560Y503000D01*
X562560Y475780D01*
X566500Y471840D01*
X623000Y471840D01*
X626920Y475780D01*
X626920Y574220D01*
X623000Y578160D01*
G37*
G36*
X727000Y568160D02*
G01*
X723080Y564220D01*
X723080Y465780D01*
X727000Y461840D01*
X783500Y461840D01*
X787440Y465780D01*
X787440Y493000D01*
X783500Y496920D01*
X769500Y496920D01*
X765560Y500860D01*
X765560Y529140D01*
X769500Y533080D01*
X783500Y533080D01*
X787440Y537000D01*
X787440Y564220D01*
X783500Y568160D01*
G37*
G36*
X846500Y568160D02*
G01*
X842560Y564220D01*
X842560Y537000D01*
X846500Y533080D01*
X860500Y533080D01*
X864440Y529140D01*
X864440Y500860D01*
X860500Y496920D01*
X846500Y496920D01*
X842560Y493000D01*
X842560Y465780D01*
X846500Y461840D01*
X903000Y461840D01*
X906919Y465780D01*
X906919Y564220D01*
X903000Y568160D01*
G37*
G36*
X637000Y1718160D02*
G01*
X633080Y1714220D01*
X633080Y1615780D01*
X637000Y1611840D01*
X693500Y1611840D01*
X697440Y1615780D01*
X697440Y1643000D01*
X693500Y1646920D01*
X679500Y1646920D01*
X675560Y1650860D01*
X675560Y1679139D01*
X679500Y1683080D01*
X693500Y1683080D01*
X697440Y1687000D01*
X697440Y1714220D01*
X693500Y1718160D01*
G37*
G36*
X756500Y1718160D02*
G01*
X752560Y1714220D01*
X752560Y1687000D01*
X756500Y1683080D01*
X770500Y1683080D01*
X774440Y1679139D01*
X774440Y1650860D01*
X770500Y1646920D01*
X756500Y1646920D01*
X752560Y1643000D01*
X752560Y1615780D01*
X756500Y1611840D01*
X813000Y1611840D01*
X816919Y1615780D01*
X816919Y1714220D01*
X813000Y1718160D01*
G37*
G36*
X1592000Y2098160D02*
G01*
X1588080Y2094220D01*
X1588080Y1995780D01*
X1592000Y1991840D01*
X1648500Y1991840D01*
X1652440Y1995780D01*
X1652440Y2023000D01*
X1648500Y2026920D01*
X1634500Y2026920D01*
X1630560Y2030860D01*
X1630560Y2059139D01*
X1634500Y2063080D01*
X1648500Y2063080D01*
X1652440Y2067000D01*
X1652440Y2094220D01*
X1648500Y2098160D01*
G37*
G36*
X1711500Y2098160D02*
G01*
X1707560Y2094220D01*
X1707560Y2067000D01*
X1711500Y2063080D01*
X1725500Y2063080D01*
X1729440Y2059139D01*
X1729440Y2030860D01*
X1725500Y2026920D01*
X1711500Y2026920D01*
X1707560Y2023000D01*
X1707560Y1995780D01*
X1711500Y1991840D01*
X1768000Y1991840D01*
X1771920Y1995780D01*
X1771920Y2094220D01*
X1768000Y2098160D01*
G37*
G36*
X3305779Y1496920D02*
G01*
X3301860Y1493000D01*
X3301860Y1436500D01*
X3305779Y1432560D01*
X3333000Y1432560D01*
X3336920Y1436500D01*
X3336920Y1450500D01*
X3340860Y1454440D01*
X3369140Y1454440D01*
X3373080Y1450500D01*
X3373080Y1436500D01*
X3377000Y1432560D01*
X3404220Y1432560D01*
X3408140Y1436500D01*
X3408140Y1493000D01*
X3404220Y1496920D01*
G37*
G36*
X3305779Y1377440D02*
G01*
X3301860Y1373500D01*
X3301860Y1317000D01*
X3305779Y1313080D01*
X3404220Y1313080D01*
X3408140Y1317000D01*
X3408140Y1373500D01*
X3404220Y1377440D01*
X3377000Y1377440D01*
X3373080Y1373500D01*
X3373080Y1359500D01*
X3369140Y1355560D01*
X3340860Y1355560D01*
X3336920Y1359500D01*
X3336920Y1373500D01*
X3333000Y1377440D01*
G37*
G36*
X5660780Y2711920D02*
G01*
X5656860Y2708000D01*
X5656860Y2651500D01*
X5660780Y2647559D01*
X5688000Y2647559D01*
X5691920Y2651500D01*
X5691920Y2665500D01*
X5695860Y2669440D01*
X5724140Y2669440D01*
X5728080Y2665500D01*
X5728080Y2651500D01*
X5732000Y2647559D01*
X5759220Y2647559D01*
X5763140Y2651500D01*
X5763140Y2708000D01*
X5759220Y2711920D01*
G37*
G36*
X5660780Y2592440D02*
G01*
X5656860Y2588500D01*
X5656860Y2532000D01*
X5660780Y2528080D01*
X5759220Y2528080D01*
X5763140Y2532000D01*
X5763140Y2588500D01*
X5759220Y2592440D01*
X5732000Y2592440D01*
X5728080Y2588500D01*
X5728080Y2574500D01*
X5724140Y2570560D01*
X5695860Y2570560D01*
X5691920Y2574500D01*
X5691920Y2588500D01*
X5688000Y2592440D01*
G37*
G36*
X5120780Y1412440D02*
G01*
X5116860Y1408500D01*
X5116860Y1352000D01*
X5120780Y1348080D01*
X5219220Y1348080D01*
X5223140Y1352000D01*
X5223140Y1408500D01*
X5219220Y1412440D01*
X5192000Y1412440D01*
X5188080Y1408500D01*
X5188080Y1394500D01*
X5184140Y1390560D01*
X5155860Y1390560D01*
X5151920Y1394500D01*
X5151920Y1408500D01*
X5148000Y1412440D01*
G37*
G36*
X5120780Y1531920D02*
G01*
X5116860Y1528000D01*
X5116860Y1471500D01*
X5120780Y1467560D01*
X5148000Y1467560D01*
X5151920Y1471500D01*
X5151920Y1485500D01*
X5155860Y1489440D01*
X5184140Y1489440D01*
X5188080Y1485500D01*
X5188080Y1471500D01*
X5192000Y1467560D01*
X5219220Y1467560D01*
X5223140Y1471500D01*
X5223140Y1528000D01*
X5219220Y1531920D01*
G37*
G36*
X5632000Y709020D02*
G01*
X5628080Y705080D01*
X5628080Y644920D01*
X5632000Y640980D01*
X5682600Y640980D01*
X5686540Y644920D01*
X5686540Y659500D01*
X5682600Y663439D01*
X5670599Y663439D01*
X5666660Y667380D01*
X5666660Y682620D01*
X5670599Y686560D01*
X5682600Y686560D01*
X5686540Y690500D01*
X5686540Y705080D01*
X5682600Y709020D01*
G37*
G36*
X5757400Y709020D02*
G01*
X5753460Y705080D01*
X5753460Y690500D01*
X5757400Y686560D01*
X5769400Y686560D01*
X5773339Y682620D01*
X5773339Y667380D01*
X5769400Y663439D01*
X5757400Y663439D01*
X5753460Y659500D01*
X5753460Y644920D01*
X5757400Y640980D01*
X5808000Y640980D01*
X5811920Y644920D01*
X5811920Y705080D01*
X5808000Y709020D01*
G37*
D10*
G01*
X2980000Y1645000D03*
G01*
X2980000Y1555000D03*
D11*
G01*
X6279375Y829995D03*
G01*
X6200630Y829995D03*
D12*
G01*
X1123370Y1700000D03*
G01*
X1256630Y1700000D03*
D13*
G01*
X2842599Y1647245D03*
G01*
X2880000Y1647245D03*
G01*
X2917400Y1647245D03*
G01*
X2917400Y1552754D03*
G01*
X2880000Y1552754D03*
G01*
X2842599Y1552754D03*
D11*
G01*
X7019375Y1549995D03*
G01*
X6940630Y1549995D03*
D12*
G01*
X1083370Y1500000D03*
G01*
X1216630Y1500000D03*
D14*
G01*
X1920630Y624995D03*
G01*
X1999375Y624995D03*
D15*
G01*
X6050005Y444370D03*
D16*
G01*
X6050000Y365630D03*
D17*
G01*
X5658310Y835000D03*
G01*
X5571689Y797600D03*
G01*
X5571689Y872399D03*
D15*
G01*
X5460005Y625625D03*
D16*
G01*
X5460000Y704369D03*
D14*
G01*
X5360630Y804995D03*
G01*
X5439375Y804995D03*
D15*
G01*
X5800005Y785625D03*
D16*
G01*
X5800000Y864369D03*
D15*
G01*
X5900005Y864370D03*
D16*
G01*
X5900000Y785630D03*
D18*
G01*
X7040000Y843310D03*
G01*
X7077399Y756689D03*
G01*
X7002600Y756689D03*
G01*
X5700000Y1473310D03*
G01*
X5737399Y1386689D03*
G01*
X5662600Y1386689D03*
D14*
G01*
X289375Y3024995D03*
G01*
X210629Y3024995D03*
D16*
G01*
X2275000Y635630D03*
D15*
G01*
X2275005Y714370D03*
D16*
G01*
X5825000Y1314369D03*
D15*
G01*
X5825005Y1235625D03*
D16*
G01*
X2675000Y714369D03*
D15*
G01*
X2675005Y635625D03*
D16*
G01*
X2800000Y464369D03*
D15*
G01*
X2800005Y385625D03*
D16*
G01*
X1625000Y1899369D03*
D15*
G01*
X1625000Y1820625D03*
D14*
G01*
X1589375Y924995D03*
G01*
X1510630Y924995D03*
G01*
X2264375Y924995D03*
G01*
X2185630Y924995D03*
D16*
G01*
X3700000Y464369D03*
D15*
G01*
X3700005Y385625D03*
D16*
G01*
X3650000Y1014369D03*
D15*
G01*
X3650005Y935625D03*
D11*
G01*
X4610630Y1024995D03*
G01*
X4689375Y1024995D03*
D16*
G01*
X3200000Y925630D03*
D15*
G01*
X3200005Y1004370D03*
D16*
G01*
X4600000Y464369D03*
D15*
G01*
X4600005Y385625D03*
D11*
G01*
X5860630Y1649995D03*
G01*
X5939375Y1649995D03*
D16*
G01*
X4550000Y2739369D03*
D15*
G01*
X4550005Y2660625D03*
D16*
G01*
X3100000Y3060630D03*
D15*
G01*
X3100005Y3139370D03*
D14*
G01*
X3814375Y3049995D03*
G01*
X3735630Y3049995D03*
D16*
G01*
X2600000Y3614369D03*
D15*
G01*
X2600005Y3535625D03*
D16*
G01*
X5500000Y3310630D03*
D15*
G01*
X5500005Y3389370D03*
D16*
G01*
X4700000Y3310630D03*
D15*
G01*
X4700005Y3389370D03*
D16*
G01*
X5050000Y1410630D03*
D15*
G01*
X5050005Y1489370D03*
D16*
G01*
X2500000Y3239369D03*
D15*
G01*
X2500005Y3160625D03*
D14*
G01*
X7024375Y2349995D03*
G01*
X6945630Y2349995D03*
G01*
X6449375Y2424995D03*
G01*
X6370630Y2424995D03*
G01*
X999375Y3304995D03*
G01*
X920629Y3304995D03*
D16*
G01*
X475000Y939369D03*
D15*
G01*
X475004Y860625D03*
D12*
G01*
X766630Y825000D03*
G01*
X633369Y825000D03*
G01*
X833369Y825000D03*
G01*
X966630Y825000D03*
D14*
G01*
X665629Y909995D03*
G01*
X744375Y909995D03*
D15*
G01*
X535004Y2914370D03*
D16*
G01*
X535000Y2835630D03*
D15*
G01*
X615004Y3014370D03*
D16*
G01*
X615000Y2935630D03*
D15*
G01*
X695004Y3014370D03*
D16*
G01*
X695000Y2935630D03*
D15*
G01*
X775004Y3014370D03*
D16*
G01*
X775000Y2935630D03*
D15*
G01*
X615004Y2839370D03*
D16*
G01*
X615000Y2760630D03*
D15*
G01*
X695004Y2760625D03*
D16*
G01*
X695000Y2839369D03*
D19*
G01*
X1625000Y1576630D03*
G01*
X1625000Y1443370D03*
D15*
G01*
X1540000Y1470625D03*
D16*
G01*
X1540000Y1549369D03*
D15*
G01*
X2475005Y814370D03*
D16*
G01*
X2475000Y735630D03*
D15*
G01*
X2475005Y614370D03*
D16*
G01*
X2475000Y535630D03*
D11*
G01*
X1589375Y2649995D03*
G01*
X1510630Y2649995D03*
D15*
G01*
X7090005Y664370D03*
D16*
G01*
X7090000Y585630D03*
D15*
G01*
X6975005Y664370D03*
D16*
G01*
X6975000Y585630D03*
D15*
G01*
X5575005Y1489370D03*
D16*
G01*
X5575000Y1410630D03*
D15*
G01*
X5475005Y1489370D03*
D16*
G01*
X5475000Y1410630D03*
D11*
G01*
X5489375Y1224995D03*
G01*
X5410630Y1224995D03*
G01*
X5439375Y904995D03*
G01*
X5360630Y904995D03*
G01*
X5739375Y1234995D03*
G01*
X5660630Y1234995D03*
G01*
X5739375Y1314995D03*
G01*
X5660630Y1314995D03*
D15*
G01*
X2335005Y3465625D03*
D16*
G01*
X2335000Y3544369D03*
D15*
G01*
X5360005Y625625D03*
D16*
G01*
X5360000Y704369D03*
D14*
G01*
X3835630Y3549995D03*
G01*
X3914375Y3549995D03*
D16*
G01*
X1300000Y1485630D03*
D15*
G01*
X1300000Y1564370D03*
D20*
G01*
X6746750Y585000D03*
G01*
X6893249Y585000D03*
D12*
G01*
X7041630Y475000D03*
G01*
X6908370Y475000D03*
D14*
G01*
X2894375Y1479995D03*
G01*
X2815630Y1479995D03*
M02*
