G04 Layer: BottomSilkscreenLayer*
G04 EasyEDA v6.5.39, 2024-02-04 18:04:26*
G04 6365909e63f64f6689fdd3236b4dce0a,5509f98a9368439c9cde498926e245b9,10*
G04 Gerber Generator version 0.2*
G04 Scale: 100 percent, Rotated: No, Reflected: No *
G04 Dimensions in inches *
G04 leading zeros omitted , absolute positions ,3 integer and 6 decimal *
%FSLAX36Y36*%
%MOIN*%

%ADD10C,0.0080*%
%ADD11C,0.0060*%
%ADD12C,0.0118*%

%LPD*%
D10*
X417500Y628000D02*
G01*
X417500Y583000D01*
X440000Y605500D02*
G01*
X395000Y605500D01*
X702500Y463000D02*
G01*
X702500Y418000D01*
X725000Y440500D02*
G01*
X680000Y440500D01*
X1557500Y2148000D02*
G01*
X1557500Y2103000D01*
X1580000Y2125500D02*
G01*
X1535000Y2125500D01*
X5787500Y2758000D02*
G01*
X5787500Y2713000D01*
X5810000Y2735500D02*
G01*
X5765000Y2735500D01*
X3437500Y1543000D02*
G01*
X3437500Y1498000D01*
X3460000Y1520500D02*
G01*
X3415000Y1520500D01*
X5242500Y1348000D02*
G01*
X5242500Y1303000D01*
X5265000Y1325500D02*
G01*
X5220000Y1325500D01*
X842500Y1603000D02*
G01*
X842500Y1558000D01*
X865000Y1580500D02*
G01*
X820000Y1580500D01*
X6715455Y522363D02*
G01*
X6715455Y473272D01*
X6740000Y497818D02*
G01*
X6690909Y497818D01*
X6010455Y912363D02*
G01*
X6010455Y863272D01*
X6035000Y887818D02*
G01*
X5985909Y887818D01*
D11*
X3075408Y1517273D02*
G01*
X3073364Y1513182D01*
X3069273Y1509090D01*
X3065182Y1507044D01*
X3059044Y1505000D01*
X3048818Y1505000D01*
X3042682Y1507044D01*
X3038590Y1509090D01*
X3034499Y1513182D01*
X3032455Y1517273D01*
X3032455Y1525455D01*
X3034499Y1529544D01*
X3038590Y1533636D01*
X3042682Y1535682D01*
X3048818Y1537726D01*
X3059044Y1537726D01*
X3065182Y1535682D01*
X3069273Y1533636D01*
X3073364Y1529544D01*
X3075408Y1525455D01*
X3075408Y1517273D01*
X3075408Y1551226D02*
G01*
X3032455Y1551226D01*
X3075408Y1551226D02*
G01*
X3075408Y1577818D01*
X3054955Y1551226D02*
G01*
X3054955Y1567591D01*
X3032455Y1551226D02*
G01*
X3032455Y1577818D01*
X3075408Y1643272D02*
G01*
X3042682Y1643272D01*
X3036544Y1641226D01*
X3034499Y1639182D01*
X3032455Y1635091D01*
X3032455Y1630999D01*
X3034499Y1626909D01*
X3036544Y1624863D01*
X3042682Y1622818D01*
X3046773Y1622818D01*
X3075408Y1656772D02*
G01*
X3032455Y1656772D01*
X3075408Y1656772D02*
G01*
X3075408Y1675181D01*
X3073364Y1681318D01*
X3071318Y1683364D01*
X3067227Y1685408D01*
X3061090Y1685408D01*
X3056999Y1683364D01*
X3054955Y1681318D01*
X3052908Y1675181D01*
X3052908Y1656772D01*
X6260000Y925399D02*
G01*
X6260000Y882500D01*
X6260000Y882500D02*
G01*
X6235500Y882500D01*
X6221999Y917199D02*
G01*
X6217900Y919299D01*
X6211700Y925399D01*
X6211700Y882500D01*
X1240000Y1790399D02*
G01*
X1240000Y1747500D01*
X1240000Y1790399D02*
G01*
X1225699Y1790399D01*
X1219499Y1788400D01*
X1215500Y1784299D01*
X1213400Y1780199D01*
X1211400Y1774000D01*
X1211400Y1763800D01*
X1213400Y1757699D01*
X1215500Y1753600D01*
X1219499Y1749499D01*
X1225699Y1747500D01*
X1240000Y1747500D01*
X1173299Y1790399D02*
G01*
X1193800Y1790399D01*
X1195799Y1771999D01*
X1193800Y1774000D01*
X1187600Y1776100D01*
X1181499Y1776100D01*
X1175399Y1774000D01*
X1171300Y1770000D01*
X1169200Y1763800D01*
X1169200Y1759699D01*
X1171300Y1753600D01*
X1175399Y1749499D01*
X1181499Y1747500D01*
X1187600Y1747500D01*
X1193800Y1749499D01*
X1195799Y1751500D01*
X1197899Y1755599D01*
X1135299Y1790399D02*
G01*
X1155699Y1761799D01*
X1125000Y1761799D01*
X1135299Y1790399D02*
G01*
X1135299Y1747500D01*
X2795000Y1620408D02*
G01*
X2795000Y1589726D01*
X2792955Y1583591D01*
X2788864Y1579499D01*
X2782727Y1577455D01*
X2778635Y1577455D01*
X2772500Y1579499D01*
X2768409Y1583591D01*
X2766364Y1589726D01*
X2766364Y1620408D01*
X2748773Y1620408D02*
G01*
X2726273Y1620408D01*
X2738545Y1604045D01*
X2732408Y1604045D01*
X2728317Y1601999D01*
X2726273Y1599955D01*
X2724227Y1593818D01*
X2724227Y1589726D01*
X2726273Y1583591D01*
X2730363Y1579499D01*
X2736499Y1577455D01*
X2742636Y1577455D01*
X2748773Y1579499D01*
X2750817Y1581545D01*
X2752863Y1585635D01*
X7080000Y1640399D02*
G01*
X7080000Y1597500D01*
X7080000Y1640399D02*
G01*
X7061599Y1640399D01*
X7055500Y1638400D01*
X7053400Y1636300D01*
X7051400Y1632199D01*
X7051400Y1628099D01*
X7053400Y1624000D01*
X7055500Y1621999D01*
X7061599Y1620000D01*
X7080000Y1620000D01*
X7065699Y1620000D02*
G01*
X7051400Y1597500D01*
X7037900Y1632199D02*
G01*
X7033800Y1634299D01*
X7027600Y1640399D01*
X7027600Y1597500D01*
X6987500Y1626100D02*
G01*
X6989600Y1620000D01*
X6993699Y1615900D01*
X6999799Y1613800D01*
X7001899Y1613800D01*
X7008000Y1615900D01*
X7012100Y1620000D01*
X7014099Y1626100D01*
X7014099Y1628099D01*
X7012100Y1634299D01*
X7008000Y1638400D01*
X7001899Y1640399D01*
X6999799Y1640399D01*
X6993699Y1638400D01*
X6989600Y1634299D01*
X6987500Y1626100D01*
X6987500Y1615900D01*
X6989600Y1605599D01*
X6993699Y1599499D01*
X6999799Y1597500D01*
X7003900Y1597500D01*
X7010000Y1599499D01*
X7012100Y1603600D01*
X1200000Y1590399D02*
G01*
X1200000Y1547500D01*
X1200000Y1590399D02*
G01*
X1185699Y1590399D01*
X1179499Y1588400D01*
X1175500Y1584299D01*
X1173400Y1580199D01*
X1171400Y1574000D01*
X1171400Y1563800D01*
X1173400Y1557699D01*
X1175500Y1553600D01*
X1179499Y1549499D01*
X1185699Y1547500D01*
X1200000Y1547500D01*
X1133299Y1590399D02*
G01*
X1153800Y1590399D01*
X1155799Y1571999D01*
X1153800Y1574000D01*
X1147600Y1576100D01*
X1141499Y1576100D01*
X1135399Y1574000D01*
X1131300Y1570000D01*
X1129200Y1563800D01*
X1129200Y1559699D01*
X1131300Y1553600D01*
X1135399Y1549499D01*
X1141499Y1547500D01*
X1147600Y1547500D01*
X1153800Y1549499D01*
X1155799Y1551500D01*
X1157899Y1555599D01*
X1111599Y1590399D02*
G01*
X1089099Y1590399D01*
X1101400Y1574000D01*
X1095299Y1574000D01*
X1091199Y1571999D01*
X1089099Y1570000D01*
X1087100Y1563800D01*
X1087100Y1559699D01*
X1089099Y1553600D01*
X1093199Y1549499D01*
X1099399Y1547500D01*
X1105500Y1547500D01*
X1111599Y1549499D01*
X1113699Y1551500D01*
X1115699Y1555599D01*
X2005000Y575399D02*
G01*
X2005000Y532500D01*
X2005000Y575399D02*
G01*
X1986599Y575399D01*
X1980500Y573400D01*
X1978400Y571300D01*
X1976400Y567199D01*
X1976400Y563099D01*
X1978400Y559000D01*
X1980500Y556999D01*
X1986599Y555000D01*
X2005000Y555000D01*
X1990699Y555000D02*
G01*
X1976400Y532500D01*
X1962899Y567199D02*
G01*
X1958800Y569299D01*
X1952600Y575399D01*
X1952600Y532500D01*
X1928900Y575399D02*
G01*
X1935000Y573400D01*
X1937100Y569299D01*
X1937100Y565199D01*
X1935000Y561100D01*
X1931000Y559000D01*
X1922799Y556999D01*
X1916599Y555000D01*
X1912500Y550900D01*
X1910500Y546799D01*
X1910500Y540599D01*
X1912500Y536500D01*
X1914600Y534499D01*
X1920699Y532500D01*
X1928900Y532500D01*
X1935000Y534499D01*
X1937100Y536500D01*
X1939099Y540599D01*
X1939099Y546799D01*
X1937100Y550900D01*
X1933000Y555000D01*
X1926899Y556999D01*
X1918699Y559000D01*
X1914600Y561100D01*
X1912500Y565199D01*
X1912500Y569299D01*
X1914600Y573400D01*
X1920699Y575399D01*
X1928900Y575399D01*
X5995409Y350000D02*
G01*
X5952455Y350000D01*
X5995409Y350000D02*
G01*
X5995409Y368409D01*
X5993364Y374544D01*
X5991318Y376590D01*
X5987227Y378636D01*
X5983136Y378636D01*
X5979044Y376590D01*
X5976999Y374544D01*
X5974955Y368409D01*
X5974955Y350000D01*
X5974955Y364317D02*
G01*
X5952455Y378636D01*
X5985182Y394182D02*
G01*
X5987227Y394182D01*
X5991318Y396226D01*
X5993364Y398272D01*
X5995409Y402363D01*
X5995409Y410545D01*
X5993364Y414636D01*
X5991318Y416682D01*
X5987227Y418726D01*
X5983136Y418726D01*
X5979044Y416682D01*
X5972909Y412591D01*
X5952455Y392136D01*
X5952455Y420772D01*
X5995409Y446545D02*
G01*
X5993364Y440408D01*
X5987227Y436318D01*
X5976999Y434272D01*
X5970864Y434272D01*
X5960636Y436318D01*
X5954499Y440408D01*
X5952455Y446545D01*
X5952455Y450635D01*
X5954499Y456772D01*
X5960636Y460864D01*
X5970864Y462908D01*
X5976999Y462908D01*
X5987227Y460864D01*
X5993364Y456772D01*
X5995409Y450635D01*
X5995409Y446545D01*
X5650409Y922273D02*
G01*
X5648364Y918182D01*
X5644273Y914090D01*
X5640182Y912044D01*
X5634044Y910000D01*
X5623818Y910000D01*
X5617682Y912044D01*
X5613590Y914090D01*
X5609499Y918182D01*
X5607455Y922273D01*
X5607455Y930455D01*
X5609499Y934544D01*
X5613590Y938636D01*
X5617682Y940682D01*
X5623818Y942726D01*
X5634044Y942726D01*
X5640182Y940682D01*
X5644273Y938636D01*
X5648364Y934544D01*
X5650409Y930455D01*
X5650409Y922273D01*
X5615636Y928409D02*
G01*
X5603364Y940682D01*
X5650409Y960318D02*
G01*
X5650409Y982818D01*
X5634044Y970545D01*
X5634044Y976682D01*
X5631999Y980772D01*
X5629955Y982818D01*
X5623818Y984863D01*
X5619727Y984863D01*
X5613590Y982818D01*
X5609499Y978726D01*
X5607455Y972591D01*
X5607455Y966455D01*
X5609499Y960318D01*
X5611544Y958272D01*
X5615636Y956226D01*
X5550409Y630000D02*
G01*
X5507455Y630000D01*
X5550409Y630000D02*
G01*
X5550409Y648409D01*
X5548364Y654544D01*
X5546318Y656590D01*
X5542227Y658636D01*
X5538136Y658636D01*
X5534044Y656590D01*
X5531999Y654544D01*
X5529955Y648409D01*
X5529955Y630000D01*
X5529955Y644317D02*
G01*
X5507455Y658636D01*
X5536090Y698726D02*
G01*
X5529955Y696682D01*
X5525864Y692591D01*
X5523818Y686455D01*
X5523818Y684409D01*
X5525864Y678272D01*
X5529955Y674182D01*
X5536090Y672136D01*
X5538136Y672136D01*
X5544273Y674182D01*
X5548364Y678272D01*
X5550409Y684409D01*
X5550409Y686455D01*
X5548364Y692591D01*
X5544273Y696682D01*
X5536090Y698726D01*
X5525864Y698726D01*
X5515636Y696682D01*
X5509499Y692591D01*
X5507455Y686455D01*
X5507455Y682363D01*
X5509499Y676226D01*
X5513590Y674182D01*
X5305409Y755000D02*
G01*
X5262455Y755000D01*
X5305409Y755000D02*
G01*
X5305409Y773409D01*
X5303364Y779544D01*
X5301318Y781590D01*
X5297227Y783636D01*
X5293136Y783636D01*
X5289044Y781590D01*
X5286999Y779544D01*
X5284955Y773409D01*
X5284955Y755000D01*
X5284955Y769317D02*
G01*
X5262455Y783636D01*
X5297227Y797136D02*
G01*
X5299273Y801226D01*
X5305409Y807363D01*
X5262455Y807363D01*
X5305409Y845408D02*
G01*
X5305409Y824954D01*
X5286999Y822908D01*
X5289044Y824954D01*
X5291090Y831091D01*
X5291090Y837226D01*
X5289044Y843364D01*
X5284955Y847454D01*
X5278818Y849499D01*
X5274727Y849499D01*
X5268590Y847454D01*
X5264499Y843364D01*
X5262455Y837226D01*
X5262455Y831091D01*
X5264499Y824954D01*
X5266544Y822908D01*
X5270636Y820864D01*
X5820409Y920000D02*
G01*
X5777455Y920000D01*
X5820409Y920000D02*
G01*
X5820409Y938409D01*
X5818364Y944544D01*
X5816318Y946590D01*
X5812227Y948636D01*
X5808136Y948636D01*
X5804044Y946590D01*
X5801999Y944544D01*
X5799955Y938409D01*
X5799955Y920000D01*
X5799955Y934317D02*
G01*
X5777455Y948636D01*
X5812227Y962136D02*
G01*
X5814273Y966226D01*
X5820409Y972363D01*
X5777455Y972363D01*
X5814273Y1010408D02*
G01*
X5818364Y1008364D01*
X5820409Y1002226D01*
X5820409Y998135D01*
X5818364Y991999D01*
X5812227Y987908D01*
X5801999Y985864D01*
X5791773Y985864D01*
X5783590Y987908D01*
X5779499Y991999D01*
X5777455Y998135D01*
X5777455Y1000181D01*
X5779499Y1006318D01*
X5783590Y1010408D01*
X5789727Y1012454D01*
X5791773Y1012454D01*
X5797909Y1010408D01*
X5801999Y1006318D01*
X5804044Y1000181D01*
X5804044Y998135D01*
X5801999Y991999D01*
X5797909Y987908D01*
X5791773Y985864D01*
X5920409Y920000D02*
G01*
X5877455Y920000D01*
X5920409Y920000D02*
G01*
X5920409Y938409D01*
X5918364Y944544D01*
X5916318Y946590D01*
X5912227Y948636D01*
X5908136Y948636D01*
X5904044Y946590D01*
X5901999Y944544D01*
X5899955Y938409D01*
X5899955Y920000D01*
X5899955Y934317D02*
G01*
X5877455Y948636D01*
X5912227Y962136D02*
G01*
X5914273Y966226D01*
X5920409Y972363D01*
X5877455Y972363D01*
X5920409Y1014499D02*
G01*
X5877455Y994045D01*
X5920409Y985864D02*
G01*
X5920409Y1014499D01*
X6121747Y644751D02*
G01*
X6123793Y648843D01*
X6127884Y652934D01*
X6131975Y654978D01*
X6140156Y654978D01*
X6144247Y652934D01*
X6148338Y648843D01*
X6150384Y644751D01*
X6152430Y638614D01*
X6152430Y628387D01*
X6150384Y622251D01*
X6148338Y618161D01*
X6144247Y614070D01*
X6140156Y612024D01*
X6131975Y612024D01*
X6127884Y614070D01*
X6123793Y618161D01*
X6121747Y622251D01*
X6087794Y654978D02*
G01*
X6108248Y626343D01*
X6077565Y626343D01*
X6087794Y654978D02*
G01*
X6087794Y612024D01*
X6053838Y654978D02*
G01*
X6059975Y652934D01*
X6062021Y648843D01*
X6062021Y644751D01*
X6059975Y640661D01*
X6055884Y638614D01*
X6047703Y636570D01*
X6041566Y634524D01*
X6037475Y630434D01*
X6035429Y626343D01*
X6035429Y620205D01*
X6037475Y616114D01*
X6039521Y614070D01*
X6045657Y612024D01*
X6053838Y612024D01*
X6059975Y614070D01*
X6062021Y616114D01*
X6064066Y620205D01*
X6064066Y626343D01*
X6062021Y630434D01*
X6057929Y634524D01*
X6051794Y636570D01*
X6043612Y638614D01*
X6039521Y640661D01*
X6037475Y644751D01*
X6037475Y648843D01*
X6039521Y652934D01*
X6045657Y654978D01*
X6053838Y654978D01*
X7167727Y865408D02*
G01*
X7171818Y863364D01*
X7175909Y859272D01*
X7177955Y855181D01*
X7180000Y849045D01*
X7180000Y838818D01*
X7177955Y832681D01*
X7175909Y828591D01*
X7171818Y824499D01*
X7167727Y822454D01*
X7159544Y822454D01*
X7155455Y824499D01*
X7151364Y828591D01*
X7149318Y832681D01*
X7147272Y838818D01*
X7147272Y849045D01*
X7149318Y855181D01*
X7151364Y859272D01*
X7155455Y863364D01*
X7159544Y865408D01*
X7167727Y865408D01*
X7161590Y830635D02*
G01*
X7149318Y818364D01*
X7133773Y857226D02*
G01*
X7129682Y859272D01*
X7123545Y865408D01*
X7123545Y822454D01*
X5820409Y1397273D02*
G01*
X5818364Y1393182D01*
X5814273Y1389090D01*
X5810182Y1387044D01*
X5804044Y1385000D01*
X5793818Y1385000D01*
X5787682Y1387044D01*
X5783590Y1389090D01*
X5779499Y1393182D01*
X5777455Y1397273D01*
X5777455Y1405455D01*
X5779499Y1409544D01*
X5783590Y1413636D01*
X5787682Y1415682D01*
X5793818Y1417726D01*
X5804044Y1417726D01*
X5810182Y1415682D01*
X5814273Y1413636D01*
X5818364Y1409544D01*
X5820409Y1405455D01*
X5820409Y1397273D01*
X5785636Y1403409D02*
G01*
X5773364Y1415682D01*
X5810182Y1433272D02*
G01*
X5812227Y1433272D01*
X5816318Y1435318D01*
X5818364Y1437363D01*
X5820409Y1441455D01*
X5820409Y1449636D01*
X5818364Y1453726D01*
X5816318Y1455772D01*
X5812227Y1457818D01*
X5808136Y1457818D01*
X5804044Y1455772D01*
X5797909Y1451682D01*
X5777455Y1431226D01*
X5777455Y1459863D01*
X279697Y3112701D02*
G01*
X281743Y3116792D01*
X285835Y3120884D01*
X289924Y3122928D01*
X298107Y3122928D01*
X302197Y3120884D01*
X306289Y3116792D01*
X308335Y3112701D01*
X310380Y3106565D01*
X310380Y3096338D01*
X308335Y3090201D01*
X306289Y3086111D01*
X302197Y3082020D01*
X298107Y3079974D01*
X289924Y3079974D01*
X285835Y3082020D01*
X281743Y3086111D01*
X279697Y3090201D01*
X241653Y3122928D02*
G01*
X262107Y3122928D01*
X264153Y3104520D01*
X262107Y3106565D01*
X255970Y3108611D01*
X249834Y3108611D01*
X243697Y3106565D01*
X239607Y3102474D01*
X237561Y3096338D01*
X237561Y3092247D01*
X239607Y3086111D01*
X243697Y3082020D01*
X249834Y3079974D01*
X255970Y3079974D01*
X262107Y3082020D01*
X264153Y3084065D01*
X266197Y3088155D01*
X199515Y3116792D02*
G01*
X201561Y3120884D01*
X207698Y3122928D01*
X211788Y3122928D01*
X217925Y3120884D01*
X222015Y3114747D01*
X224061Y3104520D01*
X224061Y3094292D01*
X222015Y3086111D01*
X217925Y3082020D01*
X211788Y3079974D01*
X209744Y3079974D01*
X203607Y3082020D01*
X199515Y3086111D01*
X197471Y3092247D01*
X197471Y3094292D01*
X199515Y3100428D01*
X203607Y3104520D01*
X209744Y3106565D01*
X211788Y3106565D01*
X217925Y3104520D01*
X222015Y3100428D01*
X224061Y3094292D01*
X2210182Y680682D02*
G01*
X2214273Y678636D01*
X2218364Y674544D01*
X2220408Y670455D01*
X2220408Y662273D01*
X2218364Y658182D01*
X2214273Y654090D01*
X2210182Y652044D01*
X2204044Y650000D01*
X2193818Y650000D01*
X2187682Y652044D01*
X2183590Y654090D01*
X2179499Y658182D01*
X2177455Y662273D01*
X2177455Y670455D01*
X2179499Y674544D01*
X2183590Y678636D01*
X2187682Y680682D01*
X2212227Y694182D02*
G01*
X2214273Y698272D01*
X2220408Y704409D01*
X2177455Y704409D01*
X5915182Y1275682D02*
G01*
X5919273Y1273636D01*
X5923364Y1269544D01*
X5925409Y1265455D01*
X5925409Y1257273D01*
X5923364Y1253182D01*
X5919273Y1249090D01*
X5915182Y1247044D01*
X5909044Y1245000D01*
X5898818Y1245000D01*
X5892682Y1247044D01*
X5888590Y1249090D01*
X5884499Y1253182D01*
X5882455Y1257273D01*
X5882455Y1265455D01*
X5884499Y1269544D01*
X5888590Y1273636D01*
X5892682Y1275682D01*
X5915182Y1291226D02*
G01*
X5917227Y1291226D01*
X5921318Y1293272D01*
X5923364Y1295318D01*
X5925409Y1299409D01*
X5925409Y1307591D01*
X5923364Y1311682D01*
X5921318Y1313726D01*
X5917227Y1315772D01*
X5913136Y1315772D01*
X5909044Y1313726D01*
X5902909Y1309636D01*
X5882455Y1289182D01*
X5882455Y1317818D01*
X2760182Y685682D02*
G01*
X2764273Y683636D01*
X2768364Y679544D01*
X2770408Y675455D01*
X2770408Y667273D01*
X2768364Y663182D01*
X2764273Y659090D01*
X2760182Y657044D01*
X2754044Y655000D01*
X2743818Y655000D01*
X2737682Y657044D01*
X2733590Y659090D01*
X2729499Y663182D01*
X2727455Y667273D01*
X2727455Y675455D01*
X2729499Y679544D01*
X2733590Y683636D01*
X2737682Y685682D01*
X2770408Y723726D02*
G01*
X2770408Y703272D01*
X2751999Y701226D01*
X2754044Y703272D01*
X2756090Y709409D01*
X2756090Y715545D01*
X2754044Y721682D01*
X2749955Y725772D01*
X2743818Y727818D01*
X2739727Y727818D01*
X2733590Y725772D01*
X2729499Y721682D01*
X2727455Y715545D01*
X2727455Y709409D01*
X2729499Y703272D01*
X2731544Y701226D01*
X2735636Y699182D01*
X2885182Y455682D02*
G01*
X2889273Y453636D01*
X2893364Y449544D01*
X2895408Y445455D01*
X2895408Y437273D01*
X2893364Y433182D01*
X2889273Y429090D01*
X2885182Y427044D01*
X2879044Y425000D01*
X2868818Y425000D01*
X2862682Y427044D01*
X2858590Y429090D01*
X2854499Y433182D01*
X2852455Y437273D01*
X2852455Y445455D01*
X2854499Y449544D01*
X2858590Y453636D01*
X2862682Y455682D01*
X2887227Y469182D02*
G01*
X2889273Y473272D01*
X2895408Y479409D01*
X2852455Y479409D01*
X2895408Y496999D02*
G01*
X2895408Y519499D01*
X2879044Y507226D01*
X2879044Y513364D01*
X2876999Y517454D01*
X2874955Y519499D01*
X2868818Y521545D01*
X2864727Y521545D01*
X2858590Y519499D01*
X2854499Y515408D01*
X2852455Y509272D01*
X2852455Y503135D01*
X2854499Y496999D01*
X2856544Y494954D01*
X2860636Y492908D01*
X1560182Y1855682D02*
G01*
X1564273Y1853636D01*
X1568364Y1849544D01*
X1570408Y1845455D01*
X1570408Y1837273D01*
X1568364Y1833182D01*
X1564273Y1829090D01*
X1560182Y1827044D01*
X1554044Y1825000D01*
X1543818Y1825000D01*
X1537682Y1827044D01*
X1533590Y1829090D01*
X1529499Y1833182D01*
X1527455Y1837273D01*
X1527455Y1845455D01*
X1529499Y1849544D01*
X1533590Y1853636D01*
X1537682Y1855682D01*
X1562227Y1869182D02*
G01*
X1564273Y1873272D01*
X1570408Y1879409D01*
X1527455Y1879409D01*
X1570408Y1913364D02*
G01*
X1541773Y1892908D01*
X1541773Y1923591D01*
X1570408Y1913364D02*
G01*
X1527455Y1913364D01*
X1619318Y860181D02*
G01*
X1621364Y864272D01*
X1625455Y868364D01*
X1629544Y870408D01*
X1637727Y870408D01*
X1641818Y868364D01*
X1645909Y864272D01*
X1647955Y860181D01*
X1650000Y854045D01*
X1650000Y843818D01*
X1647955Y837681D01*
X1645909Y833591D01*
X1641818Y829499D01*
X1637727Y827454D01*
X1629544Y827454D01*
X1625455Y829499D01*
X1621364Y833591D01*
X1619318Y837681D01*
X1605817Y862226D02*
G01*
X1601727Y864272D01*
X1595591Y870408D01*
X1595591Y827454D01*
X1557545Y870408D02*
G01*
X1578000Y870408D01*
X1580045Y851999D01*
X1578000Y854045D01*
X1571863Y856091D01*
X1565726Y856091D01*
X1559591Y854045D01*
X1555500Y849954D01*
X1553455Y843818D01*
X1553455Y839726D01*
X1555500Y833591D01*
X1559591Y829499D01*
X1565726Y827454D01*
X1571863Y827454D01*
X1578000Y829499D01*
X1580045Y831545D01*
X1582091Y835635D01*
X2269318Y860181D02*
G01*
X2271364Y864272D01*
X2275455Y868364D01*
X2279544Y870408D01*
X2287727Y870408D01*
X2291818Y868364D01*
X2295909Y864272D01*
X2297955Y860181D01*
X2300000Y854045D01*
X2300000Y843818D01*
X2297955Y837681D01*
X2295909Y833591D01*
X2291818Y829499D01*
X2287727Y827454D01*
X2279544Y827454D01*
X2275455Y829499D01*
X2271364Y833591D01*
X2269318Y837681D01*
X2255817Y862226D02*
G01*
X2251727Y864272D01*
X2245591Y870408D01*
X2245591Y827454D01*
X2207545Y864272D02*
G01*
X2209591Y868364D01*
X2215726Y870408D01*
X2219817Y870408D01*
X2225955Y868364D01*
X2230045Y862226D01*
X2232091Y851999D01*
X2232091Y841772D01*
X2230045Y833591D01*
X2225955Y829499D01*
X2219817Y827454D01*
X2217772Y827454D01*
X2211635Y829499D01*
X2207545Y833591D01*
X2205500Y839726D01*
X2205500Y841772D01*
X2207545Y847908D01*
X2211635Y851999D01*
X2217772Y854045D01*
X2219817Y854045D01*
X2225955Y851999D01*
X2230045Y847908D01*
X2232091Y841772D01*
X3785182Y460682D02*
G01*
X3789273Y458636D01*
X3793364Y454544D01*
X3795408Y450455D01*
X3795408Y442273D01*
X3793364Y438182D01*
X3789273Y434090D01*
X3785182Y432044D01*
X3779044Y430000D01*
X3768818Y430000D01*
X3762682Y432044D01*
X3758590Y434090D01*
X3754499Y438182D01*
X3752455Y442273D01*
X3752455Y450455D01*
X3754499Y454544D01*
X3758590Y458636D01*
X3762682Y460682D01*
X3787227Y474182D02*
G01*
X3789273Y478272D01*
X3795408Y484409D01*
X3752455Y484409D01*
X3795408Y526545D02*
G01*
X3752455Y506091D01*
X3795408Y497908D02*
G01*
X3795408Y526545D01*
X3590182Y920682D02*
G01*
X3594273Y918636D01*
X3598364Y914544D01*
X3600408Y910455D01*
X3600408Y902273D01*
X3598364Y898182D01*
X3594273Y894090D01*
X3590182Y892044D01*
X3584044Y890000D01*
X3573818Y890000D01*
X3567682Y892044D01*
X3563590Y894090D01*
X3559499Y898182D01*
X3557455Y902273D01*
X3557455Y910455D01*
X3559499Y914544D01*
X3563590Y918636D01*
X3567682Y920682D01*
X3592227Y934182D02*
G01*
X3594273Y938272D01*
X3600408Y944409D01*
X3557455Y944409D01*
X3600408Y968135D02*
G01*
X3598364Y961999D01*
X3594273Y959954D01*
X3590182Y959954D01*
X3586090Y961999D01*
X3584044Y966091D01*
X3581999Y974272D01*
X3579955Y980408D01*
X3575864Y984499D01*
X3571773Y986545D01*
X3565636Y986545D01*
X3561544Y984499D01*
X3559499Y982454D01*
X3557455Y976318D01*
X3557455Y968135D01*
X3559499Y961999D01*
X3561544Y959954D01*
X3565636Y957908D01*
X3571773Y957908D01*
X3575864Y959954D01*
X3579955Y964045D01*
X3581999Y970181D01*
X3584044Y978364D01*
X3586090Y982454D01*
X3590182Y984499D01*
X3594273Y984499D01*
X3598364Y982454D01*
X3600408Y976318D01*
X3600408Y968135D01*
X4619318Y965181D02*
G01*
X4621364Y969272D01*
X4625455Y973364D01*
X4629544Y975408D01*
X4637727Y975408D01*
X4641818Y973364D01*
X4645909Y969272D01*
X4647955Y965181D01*
X4650000Y959045D01*
X4650000Y948818D01*
X4647955Y942681D01*
X4645909Y938591D01*
X4641818Y934499D01*
X4637727Y932454D01*
X4629544Y932454D01*
X4625455Y934499D01*
X4621364Y938591D01*
X4619318Y942681D01*
X4603773Y965181D02*
G01*
X4603773Y967226D01*
X4601727Y971318D01*
X4599682Y973364D01*
X4595591Y975408D01*
X4587408Y975408D01*
X4583317Y973364D01*
X4581273Y971318D01*
X4579227Y967226D01*
X4579227Y963135D01*
X4581273Y959045D01*
X4585364Y952908D01*
X4605817Y932454D01*
X4577182Y932454D01*
X4563681Y967226D02*
G01*
X4559591Y969272D01*
X4553455Y975408D01*
X4553455Y932454D01*
X3140182Y985682D02*
G01*
X3144273Y983636D01*
X3148364Y979544D01*
X3150408Y975455D01*
X3150408Y967273D01*
X3148364Y963182D01*
X3144273Y959090D01*
X3140182Y957044D01*
X3134044Y955000D01*
X3123818Y955000D01*
X3117682Y957044D01*
X3113590Y959090D01*
X3109499Y963182D01*
X3107455Y967273D01*
X3107455Y975455D01*
X3109499Y979544D01*
X3113590Y983636D01*
X3117682Y985682D01*
X3140182Y1001226D02*
G01*
X3142227Y1001226D01*
X3146318Y1003272D01*
X3148364Y1005318D01*
X3150408Y1009409D01*
X3150408Y1017591D01*
X3148364Y1021682D01*
X3146318Y1023726D01*
X3142227Y1025772D01*
X3138136Y1025772D01*
X3134044Y1023726D01*
X3127908Y1019636D01*
X3107455Y999182D01*
X3107455Y1027818D01*
X3140182Y1043364D02*
G01*
X3142227Y1043364D01*
X3146318Y1045408D01*
X3148364Y1047454D01*
X3150408Y1051545D01*
X3150408Y1059726D01*
X3148364Y1063818D01*
X3146318Y1065864D01*
X3142227Y1067908D01*
X3138136Y1067908D01*
X3134044Y1065864D01*
X3127908Y1061772D01*
X3107455Y1041318D01*
X3107455Y1069955D01*
X4680182Y460682D02*
G01*
X4684273Y458636D01*
X4688364Y454544D01*
X4690409Y450455D01*
X4690409Y442273D01*
X4688364Y438182D01*
X4684273Y434090D01*
X4680182Y432044D01*
X4674044Y430000D01*
X4663818Y430000D01*
X4657682Y432044D01*
X4653590Y434090D01*
X4649499Y438182D01*
X4647455Y442273D01*
X4647455Y450455D01*
X4649499Y454544D01*
X4653590Y458636D01*
X4657682Y460682D01*
X4680182Y476226D02*
G01*
X4682227Y476226D01*
X4686318Y478272D01*
X4688364Y480318D01*
X4690409Y484409D01*
X4690409Y492591D01*
X4688364Y496682D01*
X4686318Y498726D01*
X4682227Y500772D01*
X4678136Y500772D01*
X4674044Y498726D01*
X4667909Y494636D01*
X4647455Y474182D01*
X4647455Y502818D01*
X4690409Y520408D02*
G01*
X4690409Y542908D01*
X4674044Y530635D01*
X4674044Y536772D01*
X4671999Y540864D01*
X4669955Y542908D01*
X4663818Y544954D01*
X4659727Y544954D01*
X4653590Y542908D01*
X4649499Y538818D01*
X4647455Y532681D01*
X4647455Y526545D01*
X4649499Y520408D01*
X4651544Y518364D01*
X4655636Y516318D01*
X5869318Y1585181D02*
G01*
X5871364Y1589272D01*
X5875455Y1593364D01*
X5879544Y1595408D01*
X5887727Y1595408D01*
X5891818Y1593364D01*
X5895909Y1589272D01*
X5897955Y1585181D01*
X5900000Y1579045D01*
X5900000Y1568818D01*
X5897955Y1562681D01*
X5895909Y1558591D01*
X5891818Y1554499D01*
X5887727Y1552455D01*
X5879544Y1552455D01*
X5875455Y1554499D01*
X5871364Y1558591D01*
X5869318Y1562681D01*
X5853773Y1585181D02*
G01*
X5853773Y1587226D01*
X5851727Y1591318D01*
X5849682Y1593364D01*
X5845591Y1595408D01*
X5837408Y1595408D01*
X5833317Y1593364D01*
X5831273Y1591318D01*
X5829227Y1587226D01*
X5829227Y1583135D01*
X5831273Y1579045D01*
X5835364Y1572908D01*
X5855817Y1552455D01*
X5827182Y1552455D01*
X5793226Y1595408D02*
G01*
X5813681Y1566772D01*
X5783000Y1566772D01*
X5793226Y1595408D02*
G01*
X5793226Y1552455D01*
X4485182Y2655682D02*
G01*
X4489273Y2653636D01*
X4493364Y2649544D01*
X4495409Y2645455D01*
X4495409Y2637273D01*
X4493364Y2633182D01*
X4489273Y2629090D01*
X4485182Y2627044D01*
X4479044Y2625000D01*
X4468818Y2625000D01*
X4462682Y2627044D01*
X4458590Y2629090D01*
X4454499Y2633182D01*
X4452455Y2637273D01*
X4452455Y2645455D01*
X4454499Y2649544D01*
X4458590Y2653636D01*
X4462682Y2655682D01*
X4485182Y2671226D02*
G01*
X4487227Y2671226D01*
X4491318Y2673272D01*
X4493364Y2675318D01*
X4495409Y2679409D01*
X4495409Y2687591D01*
X4493364Y2691682D01*
X4491318Y2693726D01*
X4487227Y2695772D01*
X4483136Y2695772D01*
X4479044Y2693726D01*
X4472909Y2689636D01*
X4452455Y2669182D01*
X4452455Y2697818D01*
X4495409Y2735864D02*
G01*
X4495409Y2715408D01*
X4476999Y2713364D01*
X4479044Y2715408D01*
X4481090Y2721545D01*
X4481090Y2727682D01*
X4479044Y2733818D01*
X4474955Y2737908D01*
X4468818Y2739955D01*
X4464727Y2739955D01*
X4458590Y2737908D01*
X4454499Y2733818D01*
X4452455Y2727682D01*
X4452455Y2721545D01*
X4454499Y2715408D01*
X4456544Y2713364D01*
X4460636Y2711318D01*
X3035182Y3055682D02*
G01*
X3039273Y3053636D01*
X3043364Y3049544D01*
X3045408Y3045455D01*
X3045408Y3037273D01*
X3043364Y3033182D01*
X3039273Y3029090D01*
X3035182Y3027044D01*
X3029044Y3025000D01*
X3018818Y3025000D01*
X3012682Y3027044D01*
X3008590Y3029090D01*
X3004499Y3033182D01*
X3002455Y3037273D01*
X3002455Y3045455D01*
X3004499Y3049544D01*
X3008590Y3053636D01*
X3012682Y3055682D01*
X3035182Y3071226D02*
G01*
X3037227Y3071226D01*
X3041318Y3073272D01*
X3043364Y3075318D01*
X3045408Y3079409D01*
X3045408Y3087591D01*
X3043364Y3091682D01*
X3041318Y3093726D01*
X3037227Y3095772D01*
X3033136Y3095772D01*
X3029044Y3093726D01*
X3022908Y3089636D01*
X3002455Y3069182D01*
X3002455Y3097818D01*
X3039273Y3135864D02*
G01*
X3043364Y3133818D01*
X3045408Y3127682D01*
X3045408Y3123591D01*
X3043364Y3117455D01*
X3037227Y3113364D01*
X3026999Y3111318D01*
X3016773Y3111318D01*
X3008590Y3113364D01*
X3004499Y3117455D01*
X3002455Y3123591D01*
X3002455Y3125635D01*
X3004499Y3131772D01*
X3008590Y3135864D01*
X3014727Y3137908D01*
X3016773Y3137908D01*
X3022908Y3135864D01*
X3026999Y3131772D01*
X3029044Y3125635D01*
X3029044Y3123591D01*
X3026999Y3117455D01*
X3022908Y3113364D01*
X3016773Y3111318D01*
X3819318Y2985182D02*
G01*
X3821364Y2989272D01*
X3825455Y2993364D01*
X3829544Y2995408D01*
X3837727Y2995408D01*
X3841818Y2993364D01*
X3845909Y2989272D01*
X3847955Y2985182D01*
X3850000Y2979045D01*
X3850000Y2968818D01*
X3847955Y2962682D01*
X3845909Y2958591D01*
X3841818Y2954499D01*
X3837727Y2952455D01*
X3829544Y2952455D01*
X3825455Y2954499D01*
X3821364Y2958591D01*
X3819318Y2962682D01*
X3803773Y2985182D02*
G01*
X3803773Y2987226D01*
X3801727Y2991318D01*
X3799682Y2993364D01*
X3795591Y2995408D01*
X3787408Y2995408D01*
X3783317Y2993364D01*
X3781273Y2991318D01*
X3779227Y2987226D01*
X3779227Y2983135D01*
X3781273Y2979045D01*
X3785363Y2972908D01*
X3805817Y2952455D01*
X3777182Y2952455D01*
X3735045Y2995408D02*
G01*
X3755500Y2952455D01*
X3763681Y2995408D02*
G01*
X3735045Y2995408D01*
X2530182Y3595682D02*
G01*
X2534273Y3593636D01*
X2538364Y3589544D01*
X2540408Y3585455D01*
X2540408Y3577273D01*
X2538364Y3573182D01*
X2534273Y3569090D01*
X2530182Y3567044D01*
X2524044Y3565000D01*
X2513818Y3565000D01*
X2507682Y3567044D01*
X2503590Y3569090D01*
X2499499Y3573182D01*
X2497455Y3577273D01*
X2497455Y3585455D01*
X2499499Y3589544D01*
X2503590Y3593636D01*
X2507682Y3595682D01*
X2530182Y3611226D02*
G01*
X2532227Y3611226D01*
X2536318Y3613272D01*
X2538364Y3615318D01*
X2540408Y3619409D01*
X2540408Y3627591D01*
X2538364Y3631682D01*
X2536318Y3633726D01*
X2532227Y3635772D01*
X2528136Y3635772D01*
X2524044Y3633726D01*
X2517908Y3629636D01*
X2497455Y3609182D01*
X2497455Y3637818D01*
X2540408Y3661545D02*
G01*
X2538364Y3655408D01*
X2534273Y3653364D01*
X2530182Y3653364D01*
X2526090Y3655408D01*
X2524044Y3659499D01*
X2521999Y3667682D01*
X2519955Y3673818D01*
X2515864Y3677908D01*
X2511773Y3679955D01*
X2505636Y3679955D01*
X2501544Y3677908D01*
X2499499Y3675864D01*
X2497455Y3669726D01*
X2497455Y3661545D01*
X2499499Y3655408D01*
X2501544Y3653364D01*
X2505636Y3651318D01*
X2511773Y3651318D01*
X2515864Y3653364D01*
X2519955Y3657455D01*
X2521999Y3663591D01*
X2524044Y3671772D01*
X2526090Y3675864D01*
X2530182Y3677908D01*
X2534273Y3677908D01*
X2538364Y3675864D01*
X2540408Y3669726D01*
X2540408Y3661545D01*
X5435182Y3305682D02*
G01*
X5439273Y3303636D01*
X5443364Y3299544D01*
X5445409Y3295455D01*
X5445409Y3287273D01*
X5443364Y3283182D01*
X5439273Y3279090D01*
X5435182Y3277044D01*
X5429044Y3275000D01*
X5418818Y3275000D01*
X5412682Y3277044D01*
X5408590Y3279090D01*
X5404499Y3283182D01*
X5402455Y3287273D01*
X5402455Y3295455D01*
X5404499Y3299544D01*
X5408590Y3303636D01*
X5412682Y3305682D01*
X5435182Y3321226D02*
G01*
X5437227Y3321226D01*
X5441318Y3323272D01*
X5443364Y3325318D01*
X5445409Y3329409D01*
X5445409Y3337591D01*
X5443364Y3341682D01*
X5441318Y3343726D01*
X5437227Y3345772D01*
X5433136Y3345772D01*
X5429044Y3343726D01*
X5422909Y3339636D01*
X5402455Y3319182D01*
X5402455Y3347818D01*
X5431090Y3387908D02*
G01*
X5424955Y3385864D01*
X5420864Y3381772D01*
X5418818Y3375635D01*
X5418818Y3373591D01*
X5420864Y3367455D01*
X5424955Y3363364D01*
X5431090Y3361318D01*
X5433136Y3361318D01*
X5439273Y3363364D01*
X5443364Y3367455D01*
X5445409Y3373591D01*
X5445409Y3375635D01*
X5443364Y3381772D01*
X5439273Y3385864D01*
X5431090Y3387908D01*
X5420864Y3387908D01*
X5410636Y3385864D01*
X5404499Y3381772D01*
X5402455Y3375635D01*
X5402455Y3371545D01*
X5404499Y3365408D01*
X5408590Y3363364D01*
X4635182Y3255682D02*
G01*
X4639273Y3253636D01*
X4643364Y3249544D01*
X4645409Y3245455D01*
X4645409Y3237273D01*
X4643364Y3233182D01*
X4639273Y3229090D01*
X4635182Y3227044D01*
X4629044Y3225000D01*
X4618818Y3225000D01*
X4612682Y3227044D01*
X4608590Y3229090D01*
X4604499Y3233182D01*
X4602455Y3237273D01*
X4602455Y3245455D01*
X4604499Y3249544D01*
X4608590Y3253636D01*
X4612682Y3255682D01*
X4645409Y3273272D02*
G01*
X4645409Y3295772D01*
X4629044Y3283499D01*
X4629044Y3289636D01*
X4626999Y3293726D01*
X4624955Y3295772D01*
X4618818Y3297818D01*
X4614727Y3297818D01*
X4608590Y3295772D01*
X4604499Y3291682D01*
X4602455Y3285545D01*
X4602455Y3279409D01*
X4604499Y3273272D01*
X4606544Y3271226D01*
X4610636Y3269182D01*
X4645409Y3323591D02*
G01*
X4643364Y3317455D01*
X4637227Y3313364D01*
X4626999Y3311318D01*
X4620864Y3311318D01*
X4610636Y3313364D01*
X4604499Y3317455D01*
X4602455Y3323591D01*
X4602455Y3327682D01*
X4604499Y3333818D01*
X4610636Y3337908D01*
X4620864Y3339955D01*
X4626999Y3339955D01*
X4637227Y3337908D01*
X4643364Y3333818D01*
X4645409Y3327682D01*
X4645409Y3323591D01*
X4990182Y1400682D02*
G01*
X4994273Y1398636D01*
X4998364Y1394544D01*
X5000409Y1390455D01*
X5000409Y1382273D01*
X4998364Y1378182D01*
X4994273Y1374090D01*
X4990182Y1372044D01*
X4984044Y1370000D01*
X4973818Y1370000D01*
X4967682Y1372044D01*
X4963590Y1374090D01*
X4959499Y1378182D01*
X4957455Y1382273D01*
X4957455Y1390455D01*
X4959499Y1394544D01*
X4963590Y1398636D01*
X4967682Y1400682D01*
X5000409Y1418272D02*
G01*
X5000409Y1440772D01*
X4984044Y1428499D01*
X4984044Y1434636D01*
X4981999Y1438726D01*
X4979955Y1440772D01*
X4973818Y1442818D01*
X4969727Y1442818D01*
X4963590Y1440772D01*
X4959499Y1436682D01*
X4957455Y1430545D01*
X4957455Y1424409D01*
X4959499Y1418272D01*
X4961544Y1416226D01*
X4965636Y1414182D01*
X4992227Y1456318D02*
G01*
X4994273Y1460408D01*
X5000409Y1466545D01*
X4957455Y1466545D01*
X2585182Y3170682D02*
G01*
X2589273Y3168636D01*
X2593364Y3164544D01*
X2595408Y3160455D01*
X2595408Y3152273D01*
X2593364Y3148182D01*
X2589273Y3144090D01*
X2585182Y3142044D01*
X2579044Y3140000D01*
X2568818Y3140000D01*
X2562682Y3142044D01*
X2558590Y3144090D01*
X2554499Y3148182D01*
X2552455Y3152273D01*
X2552455Y3160455D01*
X2554499Y3164544D01*
X2558590Y3168636D01*
X2562682Y3170682D01*
X2595408Y3188272D02*
G01*
X2595408Y3210772D01*
X2579044Y3198499D01*
X2579044Y3204636D01*
X2576999Y3208726D01*
X2574955Y3210772D01*
X2568818Y3212818D01*
X2564727Y3212818D01*
X2558590Y3210772D01*
X2554499Y3206682D01*
X2552455Y3200545D01*
X2552455Y3194409D01*
X2554499Y3188272D01*
X2556544Y3186226D01*
X2560636Y3184182D01*
X2595408Y3230408D02*
G01*
X2595408Y3252908D01*
X2579044Y3240635D01*
X2579044Y3246772D01*
X2576999Y3250864D01*
X2574955Y3252908D01*
X2568818Y3254955D01*
X2564727Y3254955D01*
X2558590Y3252908D01*
X2554499Y3248818D01*
X2552455Y3242682D01*
X2552455Y3236545D01*
X2554499Y3230408D01*
X2556544Y3228364D01*
X2560636Y3226318D01*
X6889318Y2435182D02*
G01*
X6891364Y2439272D01*
X6895455Y2443364D01*
X6899544Y2445408D01*
X6907727Y2445408D01*
X6911818Y2443364D01*
X6915909Y2439272D01*
X6917955Y2435182D01*
X6920000Y2429045D01*
X6920000Y2418818D01*
X6917955Y2412682D01*
X6915909Y2408591D01*
X6911818Y2404499D01*
X6907727Y2402455D01*
X6899544Y2402455D01*
X6895455Y2404499D01*
X6891364Y2408591D01*
X6889318Y2412682D01*
X6855364Y2445408D02*
G01*
X6875817Y2416772D01*
X6845136Y2416772D01*
X6855364Y2445408D02*
G01*
X6855364Y2402455D01*
X6831635Y2437226D02*
G01*
X6827545Y2439272D01*
X6821409Y2445408D01*
X6821409Y2402455D01*
X6594318Y2440182D02*
G01*
X6596364Y2444272D01*
X6600455Y2448364D01*
X6604544Y2450408D01*
X6612727Y2450408D01*
X6616818Y2448364D01*
X6620909Y2444272D01*
X6622955Y2440182D01*
X6625000Y2434045D01*
X6625000Y2423818D01*
X6622955Y2417682D01*
X6620909Y2413591D01*
X6616818Y2409499D01*
X6612727Y2407455D01*
X6604544Y2407455D01*
X6600455Y2409499D01*
X6596364Y2413591D01*
X6594318Y2417682D01*
X6560364Y2450408D02*
G01*
X6580817Y2421772D01*
X6550136Y2421772D01*
X6560364Y2450408D02*
G01*
X6560364Y2407455D01*
X6534591Y2440182D02*
G01*
X6534591Y2442226D01*
X6532545Y2446318D01*
X6530500Y2448364D01*
X6526409Y2450408D01*
X6518226Y2450408D01*
X6514135Y2448364D01*
X6512091Y2446318D01*
X6510045Y2442226D01*
X6510045Y2438135D01*
X6512091Y2434045D01*
X6516181Y2427908D01*
X6536635Y2407455D01*
X6508000Y2407455D01*
X999318Y3385182D02*
G01*
X1001364Y3389272D01*
X1005455Y3393364D01*
X1009544Y3395408D01*
X1017727Y3395408D01*
X1021818Y3393364D01*
X1025909Y3389272D01*
X1027955Y3385182D01*
X1030000Y3379045D01*
X1030000Y3368818D01*
X1027955Y3362682D01*
X1025909Y3358591D01*
X1021818Y3354499D01*
X1017727Y3352455D01*
X1009544Y3352455D01*
X1005455Y3354499D01*
X1001364Y3358591D01*
X999318Y3362682D01*
X961273Y3395408D02*
G01*
X981727Y3395408D01*
X983773Y3376999D01*
X981727Y3379045D01*
X975591Y3381091D01*
X969454Y3381091D01*
X963317Y3379045D01*
X959227Y3374955D01*
X957182Y3368818D01*
X957182Y3364726D01*
X959227Y3358591D01*
X963317Y3354499D01*
X969454Y3352455D01*
X975591Y3352455D01*
X981727Y3354499D01*
X983773Y3356545D01*
X985817Y3360635D01*
X939591Y3395408D02*
G01*
X917091Y3395408D01*
X929363Y3379045D01*
X923226Y3379045D01*
X919135Y3376999D01*
X917091Y3374955D01*
X915045Y3368818D01*
X915045Y3364726D01*
X917091Y3358591D01*
X921181Y3354499D01*
X927317Y3352455D01*
X933455Y3352455D01*
X939591Y3354499D01*
X941635Y3356545D01*
X943681Y3360635D01*
X415181Y880682D02*
G01*
X419272Y878636D01*
X423364Y874544D01*
X425408Y870455D01*
X425408Y862273D01*
X423364Y858182D01*
X419272Y854090D01*
X415181Y852044D01*
X409045Y850000D01*
X398818Y850000D01*
X392681Y852044D01*
X388591Y854090D01*
X384499Y858182D01*
X382454Y862273D01*
X382454Y870455D01*
X384499Y874544D01*
X388591Y878636D01*
X392681Y880682D01*
X425408Y918726D02*
G01*
X425408Y898272D01*
X406999Y896226D01*
X409045Y898272D01*
X411091Y904409D01*
X411091Y910545D01*
X409045Y916682D01*
X404954Y920772D01*
X398818Y922818D01*
X394726Y922818D01*
X388591Y920772D01*
X384499Y916682D01*
X382454Y910545D01*
X382454Y904409D01*
X384499Y898272D01*
X386545Y896226D01*
X390635Y894182D01*
X425408Y956772D02*
G01*
X396772Y936318D01*
X396772Y966999D01*
X425408Y956772D02*
G01*
X382454Y956772D01*
X524297Y635201D02*
G01*
X526397Y639301D01*
X530497Y643402D01*
X534497Y645401D01*
X542698Y645401D01*
X546797Y643402D01*
X550898Y639301D01*
X552997Y635201D01*
X554998Y629002D01*
X554998Y618802D01*
X552997Y612701D01*
X550898Y608602D01*
X546797Y604502D01*
X542698Y602501D01*
X534497Y602501D01*
X530497Y604502D01*
X526397Y608602D01*
X524297Y612701D01*
X486298Y645401D02*
G01*
X506698Y645401D01*
X508798Y627002D01*
X506698Y629002D01*
X500597Y631102D01*
X494497Y631102D01*
X488297Y629002D01*
X484198Y625001D01*
X482197Y618802D01*
X482197Y614702D01*
X484198Y608602D01*
X488297Y604502D01*
X494497Y602501D01*
X500597Y602501D01*
X506698Y604502D01*
X508798Y606502D01*
X510797Y610601D01*
X468697Y637202D02*
G01*
X464598Y639301D01*
X458497Y645401D01*
X458497Y602501D01*
X829297Y425201D02*
G01*
X831397Y429301D01*
X835497Y433402D01*
X839497Y435401D01*
X847698Y435401D01*
X851797Y433402D01*
X855898Y429301D01*
X857997Y425201D01*
X859998Y419002D01*
X859998Y408802D01*
X857997Y402701D01*
X855898Y398602D01*
X851797Y394502D01*
X847698Y392501D01*
X839497Y392501D01*
X835497Y394502D01*
X831397Y398602D01*
X829297Y402701D01*
X791298Y435401D02*
G01*
X811698Y435401D01*
X813798Y417002D01*
X811698Y419002D01*
X805598Y421102D01*
X799497Y421102D01*
X793297Y419002D01*
X789198Y415001D01*
X787197Y408802D01*
X787197Y404702D01*
X789198Y398602D01*
X793297Y394502D01*
X799497Y392501D01*
X805598Y392501D01*
X811698Y394502D01*
X813798Y396502D01*
X815797Y400601D01*
X771597Y425201D02*
G01*
X771597Y427202D01*
X769598Y431302D01*
X767498Y433402D01*
X763497Y435401D01*
X755297Y435401D01*
X751197Y433402D01*
X749097Y431302D01*
X747098Y427202D01*
X747098Y423101D01*
X749097Y419002D01*
X753198Y412901D01*
X773697Y392501D01*
X744998Y392501D01*
X875201Y1640702D02*
G01*
X879301Y1638602D01*
X883402Y1634502D01*
X885401Y1630502D01*
X885401Y1622301D01*
X883402Y1618202D01*
X879301Y1614101D01*
X875201Y1612002D01*
X869002Y1610001D01*
X858802Y1610001D01*
X852701Y1612002D01*
X848602Y1614101D01*
X844502Y1618202D01*
X842501Y1622301D01*
X842501Y1630502D01*
X844502Y1634502D01*
X848602Y1638602D01*
X852701Y1640702D01*
X885401Y1678701D02*
G01*
X885401Y1658301D01*
X867002Y1656201D01*
X869002Y1658301D01*
X871102Y1664402D01*
X871102Y1670502D01*
X869002Y1676702D01*
X865001Y1680801D01*
X858802Y1682802D01*
X854702Y1682802D01*
X848602Y1680801D01*
X844502Y1676702D01*
X842501Y1670502D01*
X842501Y1664402D01*
X844502Y1658301D01*
X846502Y1656201D01*
X850601Y1654202D01*
X885401Y1720902D02*
G01*
X885401Y1700401D01*
X867002Y1698402D01*
X869002Y1700401D01*
X871102Y1706502D01*
X871102Y1712701D01*
X869002Y1718802D01*
X865001Y1722901D01*
X858802Y1725001D01*
X854702Y1725001D01*
X848602Y1722901D01*
X844502Y1718802D01*
X842501Y1712701D01*
X842501Y1706502D01*
X844502Y1700401D01*
X846502Y1698402D01*
X850601Y1696302D01*
X620000Y815399D02*
G01*
X620000Y772500D01*
X620000Y815399D02*
G01*
X605700Y815399D01*
X599499Y813400D01*
X595500Y809299D01*
X593400Y805199D01*
X591399Y799000D01*
X591399Y788800D01*
X593400Y782699D01*
X595500Y778600D01*
X599499Y774499D01*
X605700Y772500D01*
X620000Y772500D01*
X553299Y815399D02*
G01*
X573800Y815399D01*
X575799Y796999D01*
X573800Y799000D01*
X567600Y801100D01*
X561500Y801100D01*
X555399Y799000D01*
X551300Y795000D01*
X549200Y788800D01*
X549200Y784699D01*
X551300Y778600D01*
X555399Y774499D01*
X561500Y772500D01*
X567600Y772500D01*
X573800Y774499D01*
X575799Y776500D01*
X577899Y780599D01*
X535700Y807199D02*
G01*
X531599Y809299D01*
X525500Y815399D01*
X525500Y772500D01*
X1110000Y835399D02*
G01*
X1110000Y792500D01*
X1110000Y835399D02*
G01*
X1095699Y835399D01*
X1089499Y833400D01*
X1085500Y829299D01*
X1083400Y825199D01*
X1081400Y819000D01*
X1081400Y808800D01*
X1083400Y802699D01*
X1085500Y798600D01*
X1089499Y794499D01*
X1095699Y792500D01*
X1110000Y792500D01*
X1043299Y835399D02*
G01*
X1063800Y835399D01*
X1065799Y816999D01*
X1063800Y819000D01*
X1057600Y821100D01*
X1051499Y821100D01*
X1045399Y819000D01*
X1041300Y815000D01*
X1039200Y808800D01*
X1039200Y804699D01*
X1041300Y798600D01*
X1045399Y794499D01*
X1051499Y792500D01*
X1057600Y792500D01*
X1063800Y794499D01*
X1065799Y796500D01*
X1067899Y800599D01*
X1023699Y825199D02*
G01*
X1023699Y827199D01*
X1021599Y831300D01*
X1019600Y833400D01*
X1015500Y835399D01*
X1007299Y835399D01*
X1003199Y833400D01*
X1001199Y831300D01*
X999099Y827199D01*
X999099Y823099D01*
X1001199Y819000D01*
X1005299Y812899D01*
X1025699Y792500D01*
X997100Y792500D01*
X896199Y928699D02*
G01*
X896199Y885799D01*
X896199Y928699D02*
G01*
X877800Y928699D01*
X871700Y926700D01*
X869600Y924600D01*
X867600Y920500D01*
X867600Y916399D01*
X869600Y912300D01*
X871700Y910300D01*
X877800Y908299D01*
X896199Y908299D01*
X881900Y908299D02*
G01*
X867600Y885799D01*
X829499Y928699D02*
G01*
X850000Y928699D01*
X851999Y910300D01*
X850000Y912300D01*
X843800Y914400D01*
X837699Y914400D01*
X831599Y912300D01*
X827500Y908299D01*
X825399Y902100D01*
X825399Y898000D01*
X827500Y891900D01*
X831599Y887800D01*
X837699Y885799D01*
X843800Y885799D01*
X850000Y887800D01*
X851999Y889800D01*
X854099Y893899D01*
X811900Y920500D02*
G01*
X807800Y922600D01*
X801700Y928699D01*
X801700Y885799D01*
X560401Y2970001D02*
G01*
X517501Y2970001D01*
X560401Y2970001D02*
G01*
X560401Y2988402D01*
X558402Y2994502D01*
X556302Y2996601D01*
X552202Y2998602D01*
X548101Y2998602D01*
X544002Y2996601D01*
X542002Y2994502D01*
X540001Y2988402D01*
X540001Y2970001D01*
X540001Y2984301D02*
G01*
X517501Y2998602D01*
X560401Y3036702D02*
G01*
X560401Y3016201D01*
X542002Y3014202D01*
X544002Y3016201D01*
X546102Y3022402D01*
X546102Y3028501D01*
X544002Y3034602D01*
X540001Y3038701D01*
X533802Y3040801D01*
X529702Y3040801D01*
X523602Y3038701D01*
X519502Y3034602D01*
X517501Y3028501D01*
X517501Y3022402D01*
X519502Y3016201D01*
X521502Y3014202D01*
X525601Y3012102D01*
X550201Y3056302D02*
G01*
X552202Y3056302D01*
X556302Y3058402D01*
X558402Y3060401D01*
X560401Y3064502D01*
X560401Y3072701D01*
X558402Y3076801D01*
X556302Y3078802D01*
X552202Y3080902D01*
X548101Y3080902D01*
X544002Y3078802D01*
X537901Y3074702D01*
X517501Y3054301D01*
X517501Y3082901D01*
X635401Y3070001D02*
G01*
X592501Y3070001D01*
X635401Y3070001D02*
G01*
X635401Y3088402D01*
X633402Y3094502D01*
X631302Y3096601D01*
X627202Y3098602D01*
X623101Y3098602D01*
X619002Y3096601D01*
X617002Y3094502D01*
X615001Y3088402D01*
X615001Y3070001D01*
X615001Y3084301D02*
G01*
X592501Y3098602D01*
X635401Y3136702D02*
G01*
X635401Y3116201D01*
X617002Y3114202D01*
X619002Y3116201D01*
X621102Y3122402D01*
X621102Y3128501D01*
X619002Y3134602D01*
X615001Y3138701D01*
X608802Y3140801D01*
X604702Y3140801D01*
X598602Y3138701D01*
X594502Y3134602D01*
X592501Y3128501D01*
X592501Y3122402D01*
X594502Y3116201D01*
X596502Y3114202D01*
X600601Y3112102D01*
X635401Y3158402D02*
G01*
X635401Y3180902D01*
X619002Y3168602D01*
X619002Y3174702D01*
X617002Y3178802D01*
X615001Y3180902D01*
X608802Y3182901D01*
X604702Y3182901D01*
X598602Y3180902D01*
X594502Y3176801D01*
X592501Y3170601D01*
X592501Y3164502D01*
X594502Y3158402D01*
X596502Y3156302D01*
X600601Y3154301D01*
X720401Y3070001D02*
G01*
X677501Y3070001D01*
X720401Y3070001D02*
G01*
X720401Y3088402D01*
X718402Y3094502D01*
X716302Y3096601D01*
X712202Y3098602D01*
X708101Y3098602D01*
X704002Y3096601D01*
X702002Y3094502D01*
X700001Y3088402D01*
X700001Y3070001D01*
X700001Y3084301D02*
G01*
X677501Y3098602D01*
X720401Y3136702D02*
G01*
X720401Y3116201D01*
X702002Y3114202D01*
X704002Y3116201D01*
X706102Y3122402D01*
X706102Y3128501D01*
X704002Y3134602D01*
X700001Y3138701D01*
X693802Y3140801D01*
X689702Y3140801D01*
X683602Y3138701D01*
X679502Y3134602D01*
X677501Y3128501D01*
X677501Y3122402D01*
X679502Y3116201D01*
X681502Y3114202D01*
X685601Y3112102D01*
X720401Y3174702D02*
G01*
X691801Y3154301D01*
X691801Y3185001D01*
X720401Y3174702D02*
G01*
X677501Y3174702D01*
X795401Y3070001D02*
G01*
X752501Y3070001D01*
X795401Y3070001D02*
G01*
X795401Y3088402D01*
X793402Y3094502D01*
X791302Y3096601D01*
X787202Y3098602D01*
X783101Y3098602D01*
X779002Y3096601D01*
X777002Y3094502D01*
X775001Y3088402D01*
X775001Y3070001D01*
X775001Y3084301D02*
G01*
X752501Y3098602D01*
X795401Y3136702D02*
G01*
X795401Y3116201D01*
X777002Y3114202D01*
X779002Y3116201D01*
X781102Y3122402D01*
X781102Y3128501D01*
X779002Y3134602D01*
X775001Y3138701D01*
X768802Y3140801D01*
X764702Y3140801D01*
X758602Y3138701D01*
X754502Y3134602D01*
X752501Y3128501D01*
X752501Y3122402D01*
X754502Y3116201D01*
X756502Y3114202D01*
X760601Y3112102D01*
X795401Y3178802D02*
G01*
X795401Y3158402D01*
X777002Y3156302D01*
X779002Y3158402D01*
X781102Y3164502D01*
X781102Y3170601D01*
X779002Y3176801D01*
X775001Y3180902D01*
X768802Y3182901D01*
X764702Y3182901D01*
X758602Y3180902D01*
X754502Y3176801D01*
X752501Y3170601D01*
X752501Y3164502D01*
X754502Y3158402D01*
X756502Y3156302D01*
X760601Y3154301D01*
X565401Y2655001D02*
G01*
X522501Y2655001D01*
X565401Y2655001D02*
G01*
X565401Y2673402D01*
X563402Y2679502D01*
X561302Y2681601D01*
X557202Y2683602D01*
X553101Y2683602D01*
X549002Y2681601D01*
X547002Y2679502D01*
X545001Y2673402D01*
X545001Y2655001D01*
X545001Y2669301D02*
G01*
X522501Y2683602D01*
X565401Y2721702D02*
G01*
X565401Y2701201D01*
X547002Y2699202D01*
X549002Y2701201D01*
X551102Y2707402D01*
X551102Y2713501D01*
X549002Y2719602D01*
X545001Y2723701D01*
X538802Y2725801D01*
X534702Y2725801D01*
X528602Y2723701D01*
X524502Y2719602D01*
X522501Y2713501D01*
X522501Y2707402D01*
X524502Y2701201D01*
X526502Y2699202D01*
X530601Y2697102D01*
X559301Y2763802D02*
G01*
X563402Y2761801D01*
X565401Y2755601D01*
X565401Y2751502D01*
X563402Y2745401D01*
X557202Y2741302D01*
X547002Y2739301D01*
X536801Y2739301D01*
X528602Y2741302D01*
X524502Y2745401D01*
X522501Y2751502D01*
X522501Y2753602D01*
X524502Y2759702D01*
X528602Y2763802D01*
X534702Y2765902D01*
X536801Y2765902D01*
X542901Y2763802D01*
X547002Y2759702D01*
X549002Y2753602D01*
X549002Y2751502D01*
X547002Y2745401D01*
X542901Y2741302D01*
X536801Y2739301D01*
X790401Y2725001D02*
G01*
X747501Y2725001D01*
X790401Y2725001D02*
G01*
X790401Y2743402D01*
X788402Y2749502D01*
X786302Y2751601D01*
X782202Y2753602D01*
X778101Y2753602D01*
X774002Y2751601D01*
X772002Y2749502D01*
X770001Y2743402D01*
X770001Y2725001D01*
X770001Y2739301D02*
G01*
X747501Y2753602D01*
X790401Y2791702D02*
G01*
X790401Y2771201D01*
X772002Y2769202D01*
X774002Y2771201D01*
X776102Y2777402D01*
X776102Y2783501D01*
X774002Y2789602D01*
X770001Y2793701D01*
X763802Y2795801D01*
X759702Y2795801D01*
X753602Y2793701D01*
X749502Y2789602D01*
X747501Y2783501D01*
X747501Y2777402D01*
X749502Y2771201D01*
X751502Y2769202D01*
X755601Y2767102D01*
X790401Y2837901D02*
G01*
X747501Y2817501D01*
X790401Y2809301D02*
G01*
X790401Y2837901D01*
X1649300Y2160200D02*
G01*
X1651400Y2164299D01*
X1655500Y2168400D01*
X1659499Y2170399D01*
X1667700Y2170399D01*
X1671800Y2168400D01*
X1675900Y2164299D01*
X1678000Y2160200D01*
X1680000Y2154000D01*
X1680000Y2143800D01*
X1678000Y2137700D01*
X1675900Y2133600D01*
X1671800Y2129499D01*
X1667700Y2127500D01*
X1659499Y2127500D01*
X1655500Y2129499D01*
X1651400Y2133600D01*
X1649300Y2137700D01*
X1609200Y2156100D02*
G01*
X1611300Y2150000D01*
X1615399Y2145900D01*
X1621499Y2143800D01*
X1623500Y2143800D01*
X1629700Y2145900D01*
X1633800Y2150000D01*
X1635799Y2156100D01*
X1635799Y2158099D01*
X1633800Y2164299D01*
X1629700Y2168400D01*
X1623500Y2170399D01*
X1621499Y2170399D01*
X1615399Y2168400D01*
X1611300Y2164299D01*
X1609200Y2156100D01*
X1609200Y2145900D01*
X1611300Y2135599D01*
X1615399Y2129499D01*
X1621499Y2127500D01*
X1625600Y2127500D01*
X1631700Y2129499D01*
X1633800Y2133600D01*
X1720399Y1490000D02*
G01*
X1677500Y1490000D01*
X1720399Y1490000D02*
G01*
X1720399Y1504299D01*
X1718400Y1510500D01*
X1714300Y1514499D01*
X1710200Y1516599D01*
X1703999Y1518600D01*
X1693800Y1518600D01*
X1687700Y1516599D01*
X1683599Y1514499D01*
X1679499Y1510500D01*
X1677500Y1504299D01*
X1677500Y1490000D01*
X1710200Y1534200D02*
G01*
X1712200Y1534200D01*
X1716300Y1536199D01*
X1718400Y1538299D01*
X1720399Y1542399D01*
X1720399Y1550500D01*
X1718400Y1554600D01*
X1716300Y1556700D01*
X1712200Y1558699D01*
X1708100Y1558699D01*
X1703999Y1556700D01*
X1697899Y1552600D01*
X1677500Y1532100D01*
X1677500Y1560799D01*
X1490399Y1460000D02*
G01*
X1447500Y1460000D01*
X1490399Y1460000D02*
G01*
X1490399Y1478400D01*
X1488400Y1484499D01*
X1486300Y1486599D01*
X1482200Y1488600D01*
X1478100Y1488600D01*
X1473999Y1486599D01*
X1471999Y1484499D01*
X1470000Y1478400D01*
X1470000Y1460000D01*
X1470000Y1474299D02*
G01*
X1447500Y1488600D01*
X1490399Y1506199D02*
G01*
X1490399Y1528699D01*
X1473999Y1516500D01*
X1473999Y1522600D01*
X1471999Y1526700D01*
X1470000Y1528699D01*
X1463800Y1530799D01*
X1459700Y1530799D01*
X1453599Y1528699D01*
X1449499Y1524600D01*
X1447500Y1518499D01*
X1447500Y1512399D01*
X1449499Y1506199D01*
X1451499Y1504200D01*
X1455600Y1502100D01*
X1490399Y1554499D02*
G01*
X1488400Y1548400D01*
X1484300Y1546300D01*
X1480200Y1546300D01*
X1476099Y1548400D01*
X1473999Y1552500D01*
X1471999Y1560599D01*
X1470000Y1566799D01*
X1465900Y1570900D01*
X1461800Y1572899D01*
X1455600Y1572899D01*
X1451499Y1570900D01*
X1449499Y1568800D01*
X1447500Y1562699D01*
X1447500Y1554499D01*
X1449499Y1548400D01*
X1451499Y1546300D01*
X1455600Y1544299D01*
X1461800Y1544299D01*
X1465900Y1546300D01*
X1470000Y1550399D01*
X1471999Y1556500D01*
X1473999Y1564699D01*
X1476099Y1568800D01*
X1480200Y1570900D01*
X1484300Y1570900D01*
X1488400Y1568800D01*
X1490399Y1562699D01*
X1490399Y1554499D01*
X2500000Y920408D02*
G01*
X2500000Y877454D01*
X2500000Y920408D02*
G01*
X2481590Y920408D01*
X2475455Y918364D01*
X2473409Y916318D01*
X2471364Y912226D01*
X2471364Y908135D01*
X2473409Y904045D01*
X2475455Y901999D01*
X2481590Y899954D01*
X2500000Y899954D01*
X2485681Y899954D02*
G01*
X2471364Y877454D01*
X2457863Y912226D02*
G01*
X2453773Y914272D01*
X2447636Y920408D01*
X2447636Y877454D01*
X2595000Y515408D02*
G01*
X2595000Y472454D01*
X2595000Y515408D02*
G01*
X2576590Y515408D01*
X2570455Y513364D01*
X2568409Y511318D01*
X2566364Y507226D01*
X2566364Y503135D01*
X2568409Y499045D01*
X2570455Y496999D01*
X2576590Y494954D01*
X2595000Y494954D01*
X2580681Y494954D02*
G01*
X2566364Y472454D01*
X2550817Y505181D02*
G01*
X2550817Y507226D01*
X2548773Y511318D01*
X2546727Y513364D01*
X2542636Y515408D01*
X2534454Y515408D01*
X2530363Y513364D01*
X2528317Y511318D01*
X2526273Y507226D01*
X2526273Y503135D01*
X2528317Y499045D01*
X2532408Y492908D01*
X2552863Y472454D01*
X2524227Y472454D01*
X1620000Y2600408D02*
G01*
X1620000Y2557455D01*
X1620000Y2600408D02*
G01*
X1601590Y2600408D01*
X1595455Y2598364D01*
X1593409Y2596318D01*
X1591364Y2592226D01*
X1591364Y2588135D01*
X1593409Y2584045D01*
X1595455Y2581999D01*
X1601590Y2579955D01*
X1620000Y2579955D01*
X1605681Y2579955D02*
G01*
X1591364Y2557455D01*
X1573773Y2600408D02*
G01*
X1551273Y2600408D01*
X1563545Y2584045D01*
X1557408Y2584045D01*
X1553317Y2581999D01*
X1551273Y2579955D01*
X1549227Y2573818D01*
X1549227Y2569726D01*
X1551273Y2563591D01*
X1555363Y2559499D01*
X1561499Y2557455D01*
X1567636Y2557455D01*
X1573773Y2559499D01*
X1575817Y2561545D01*
X1577863Y2565635D01*
X7210000Y710408D02*
G01*
X7210000Y667454D01*
X7210000Y710408D02*
G01*
X7191590Y710408D01*
X7185455Y708364D01*
X7183409Y706318D01*
X7181364Y702226D01*
X7181364Y698135D01*
X7183409Y694045D01*
X7185455Y691999D01*
X7191590Y689954D01*
X7210000Y689954D01*
X7195681Y689954D02*
G01*
X7181364Y667454D01*
X7147408Y710408D02*
G01*
X7167864Y681772D01*
X7137182Y681772D01*
X7147408Y710408D02*
G01*
X7147408Y667454D01*
X6920000Y710408D02*
G01*
X6920000Y667454D01*
X6920000Y710408D02*
G01*
X6901590Y710408D01*
X6895455Y708364D01*
X6893409Y706318D01*
X6891364Y702226D01*
X6891364Y698135D01*
X6893409Y694045D01*
X6895455Y691999D01*
X6901590Y689954D01*
X6920000Y689954D01*
X6905681Y689954D02*
G01*
X6891364Y667454D01*
X6853317Y710408D02*
G01*
X6873773Y710408D01*
X6875817Y691999D01*
X6873773Y694045D01*
X6867636Y696091D01*
X6861499Y696091D01*
X6855364Y694045D01*
X6851273Y689954D01*
X6849227Y683818D01*
X6849227Y679726D01*
X6851273Y673591D01*
X6855364Y669499D01*
X6861499Y667454D01*
X6867636Y667454D01*
X6873773Y669499D01*
X6875817Y671545D01*
X6877864Y675635D01*
X5550409Y1292962D02*
G01*
X5507455Y1292962D01*
X5550409Y1292962D02*
G01*
X5550409Y1311370D01*
X5548364Y1317507D01*
X5546318Y1319553D01*
X5542227Y1321597D01*
X5538136Y1321597D01*
X5534044Y1319553D01*
X5531999Y1317507D01*
X5529955Y1311370D01*
X5529955Y1292962D01*
X5529955Y1307280D02*
G01*
X5507455Y1321597D01*
X5544273Y1359643D02*
G01*
X5548364Y1357597D01*
X5550409Y1351462D01*
X5550409Y1347370D01*
X5548364Y1341235D01*
X5542227Y1337143D01*
X5531999Y1335097D01*
X5521773Y1335097D01*
X5513590Y1337143D01*
X5509499Y1341235D01*
X5507455Y1347370D01*
X5507455Y1349416D01*
X5509499Y1355553D01*
X5513590Y1359643D01*
X5519727Y1361689D01*
X5521773Y1361689D01*
X5527909Y1359643D01*
X5531999Y1355553D01*
X5534044Y1349416D01*
X5534044Y1347370D01*
X5531999Y1341235D01*
X5527909Y1337143D01*
X5521773Y1335097D01*
X5465409Y1291480D02*
G01*
X5422455Y1291480D01*
X5465409Y1291480D02*
G01*
X5465409Y1309890D01*
X5463364Y1316026D01*
X5461318Y1318072D01*
X5457227Y1320117D01*
X5453136Y1320117D01*
X5449044Y1318072D01*
X5446999Y1316026D01*
X5444955Y1309890D01*
X5444955Y1291480D01*
X5444955Y1305799D02*
G01*
X5422455Y1320117D01*
X5465409Y1362253D02*
G01*
X5422455Y1341799D01*
X5465409Y1333616D02*
G01*
X5465409Y1362253D01*
X5355409Y1190000D02*
G01*
X5312455Y1190000D01*
X5355409Y1190000D02*
G01*
X5355409Y1208409D01*
X5353364Y1214544D01*
X5351318Y1216590D01*
X5347227Y1218636D01*
X5343136Y1218636D01*
X5339044Y1216590D01*
X5336999Y1214544D01*
X5334955Y1208409D01*
X5334955Y1190000D01*
X5334955Y1204317D02*
G01*
X5312455Y1218636D01*
X5355409Y1242363D02*
G01*
X5353364Y1236226D01*
X5349273Y1234182D01*
X5345182Y1234182D01*
X5341090Y1236226D01*
X5339044Y1240318D01*
X5336999Y1248499D01*
X5334955Y1254636D01*
X5330864Y1258726D01*
X5326773Y1260772D01*
X5320636Y1260772D01*
X5316544Y1258726D01*
X5314499Y1256682D01*
X5312455Y1250545D01*
X5312455Y1242363D01*
X5314499Y1236226D01*
X5316544Y1234182D01*
X5320636Y1232136D01*
X5326773Y1232136D01*
X5330864Y1234182D01*
X5334955Y1238272D01*
X5336999Y1244409D01*
X5339044Y1252591D01*
X5341090Y1256682D01*
X5345182Y1258726D01*
X5349273Y1258726D01*
X5353364Y1256682D01*
X5355409Y1250545D01*
X5355409Y1242363D01*
X5305409Y880000D02*
G01*
X5262455Y880000D01*
X5305409Y880000D02*
G01*
X5305409Y898409D01*
X5303364Y904544D01*
X5301318Y906590D01*
X5297227Y908636D01*
X5293136Y908636D01*
X5289044Y906590D01*
X5286999Y904544D01*
X5284955Y898409D01*
X5284955Y880000D01*
X5284955Y894317D02*
G01*
X5262455Y908636D01*
X5297227Y922136D02*
G01*
X5299273Y926226D01*
X5305409Y932363D01*
X5262455Y932363D01*
X5305409Y958135D02*
G01*
X5303364Y951999D01*
X5297227Y947908D01*
X5286999Y945864D01*
X5280864Y945864D01*
X5270636Y947908D01*
X5264499Y951999D01*
X5262455Y958135D01*
X5262455Y962226D01*
X5264499Y968364D01*
X5270636Y972454D01*
X5280864Y974499D01*
X5286999Y974499D01*
X5297227Y972454D01*
X5303364Y968364D01*
X5305409Y962226D01*
X5305409Y958135D01*
X5610409Y1160000D02*
G01*
X5567455Y1160000D01*
X5610409Y1160000D02*
G01*
X5610409Y1178409D01*
X5608364Y1184544D01*
X5606318Y1186590D01*
X5602227Y1188636D01*
X5598136Y1188636D01*
X5594044Y1186590D01*
X5591999Y1184544D01*
X5589955Y1178409D01*
X5589955Y1160000D01*
X5589955Y1174317D02*
G01*
X5567455Y1188636D01*
X5602227Y1202136D02*
G01*
X5604273Y1206226D01*
X5610409Y1212363D01*
X5567455Y1212363D01*
X5602227Y1225864D02*
G01*
X5604273Y1229955D01*
X5610409Y1236091D01*
X5567455Y1236091D01*
X5610409Y1266480D02*
G01*
X5567455Y1266480D01*
X5610409Y1266480D02*
G01*
X5610409Y1284890D01*
X5608364Y1291026D01*
X5606318Y1293072D01*
X5602227Y1295117D01*
X5598136Y1295117D01*
X5594044Y1293072D01*
X5591999Y1291026D01*
X5589955Y1284890D01*
X5589955Y1266480D01*
X5589955Y1280799D02*
G01*
X5567455Y1295117D01*
X5602227Y1308616D02*
G01*
X5604273Y1312707D01*
X5610409Y1318845D01*
X5567455Y1318845D01*
X5610409Y1352799D02*
G01*
X5581773Y1332345D01*
X5581773Y1363025D01*
X5610409Y1352799D02*
G01*
X5567455Y1352799D01*
X2380000Y3410408D02*
G01*
X2380000Y3367455D01*
X2380000Y3410408D02*
G01*
X2361590Y3410408D01*
X2355455Y3408364D01*
X2353409Y3406318D01*
X2351364Y3402226D01*
X2351364Y3398135D01*
X2353409Y3394045D01*
X2355455Y3391999D01*
X2361590Y3389955D01*
X2380000Y3389955D01*
X2365681Y3389955D02*
G01*
X2351364Y3367455D01*
X2317408Y3410408D02*
G01*
X2337863Y3381772D01*
X2307182Y3381772D01*
X2317408Y3410408D02*
G01*
X2317408Y3367455D01*
X2281409Y3410408D02*
G01*
X2287545Y3408364D01*
X2291635Y3402226D01*
X2293681Y3391999D01*
X2293681Y3385864D01*
X2291635Y3375635D01*
X2287545Y3369499D01*
X2281409Y3367455D01*
X2277317Y3367455D01*
X2271181Y3369499D01*
X2267091Y3375635D01*
X2265045Y3385864D01*
X2265045Y3391999D01*
X2267091Y3402226D01*
X2271181Y3408364D01*
X2277317Y3410408D01*
X2281409Y3410408D01*
X5305409Y615000D02*
G01*
X5262455Y615000D01*
X5305409Y615000D02*
G01*
X5305409Y633409D01*
X5303364Y639544D01*
X5301318Y641590D01*
X5297227Y643636D01*
X5293136Y643636D01*
X5289044Y641590D01*
X5286999Y639544D01*
X5284955Y633409D01*
X5284955Y615000D01*
X5284955Y629317D02*
G01*
X5262455Y643636D01*
X5305409Y677591D02*
G01*
X5276773Y657136D01*
X5276773Y687818D01*
X5305409Y677591D02*
G01*
X5262455Y677591D01*
X5297227Y701318D02*
G01*
X5299273Y705408D01*
X5305409Y711545D01*
X5262455Y711545D01*
X3925000Y3645408D02*
G01*
X3925000Y3602455D01*
X3925000Y3645408D02*
G01*
X3906590Y3645408D01*
X3900455Y3643364D01*
X3898409Y3641318D01*
X3896364Y3637226D01*
X3896364Y3633135D01*
X3898409Y3629045D01*
X3900455Y3626999D01*
X3906590Y3624955D01*
X3925000Y3624955D01*
X3910681Y3624955D02*
G01*
X3896364Y3602455D01*
X3862408Y3645408D02*
G01*
X3882863Y3616772D01*
X3852182Y3616772D01*
X3862408Y3645408D02*
G01*
X3862408Y3602455D01*
X3812091Y3631091D02*
G01*
X3814135Y3624955D01*
X3818226Y3620864D01*
X3824363Y3618818D01*
X3826409Y3618818D01*
X3832545Y3620864D01*
X3836635Y3624955D01*
X3838681Y3631091D01*
X3838681Y3633135D01*
X3836635Y3639272D01*
X3832545Y3643364D01*
X3826409Y3645408D01*
X3824363Y3645408D01*
X3818226Y3643364D01*
X3814135Y3639272D01*
X3812091Y3631091D01*
X3812091Y3620864D01*
X3814135Y3610635D01*
X3818226Y3604499D01*
X3824363Y3602455D01*
X3828455Y3602455D01*
X3834591Y3604499D01*
X3836635Y3608591D01*
X1304318Y1650181D02*
G01*
X1306364Y1654272D01*
X1310455Y1658364D01*
X1314544Y1660408D01*
X1322727Y1660408D01*
X1326818Y1658364D01*
X1330909Y1654272D01*
X1332955Y1650181D01*
X1335000Y1644045D01*
X1335000Y1633818D01*
X1332955Y1627681D01*
X1330909Y1623591D01*
X1326818Y1619499D01*
X1322727Y1617455D01*
X1314544Y1617455D01*
X1310455Y1619499D01*
X1306364Y1623591D01*
X1304318Y1627681D01*
X1262182Y1660408D02*
G01*
X1282636Y1617455D01*
X1290817Y1660408D02*
G01*
X1262182Y1660408D01*
X3465182Y1405682D02*
G01*
X3469273Y1403636D01*
X3473364Y1399544D01*
X3475408Y1395455D01*
X3475408Y1387273D01*
X3473364Y1383182D01*
X3469273Y1379090D01*
X3465182Y1377044D01*
X3459044Y1375000D01*
X3448818Y1375000D01*
X3442682Y1377044D01*
X3438590Y1379090D01*
X3434499Y1383182D01*
X3432455Y1387273D01*
X3432455Y1395455D01*
X3434499Y1399544D01*
X3438590Y1403636D01*
X3442682Y1405682D01*
X3467227Y1419182D02*
G01*
X3469273Y1423272D01*
X3475408Y1429409D01*
X3432455Y1429409D01*
X3475408Y1455181D02*
G01*
X3473364Y1449045D01*
X3467227Y1444955D01*
X3456999Y1442908D01*
X3450864Y1442908D01*
X3440636Y1444955D01*
X3434499Y1449045D01*
X3432455Y1455181D01*
X3432455Y1459272D01*
X3434499Y1465408D01*
X3440636Y1469499D01*
X3450864Y1471545D01*
X3456999Y1471545D01*
X3467227Y1469499D01*
X3473364Y1465408D01*
X3475408Y1459272D01*
X3475408Y1455181D01*
X5714318Y2770182D02*
G01*
X5716364Y2774272D01*
X5720455Y2778364D01*
X5724544Y2780408D01*
X5732727Y2780408D01*
X5736818Y2778364D01*
X5740909Y2774272D01*
X5742955Y2770182D01*
X5745000Y2764045D01*
X5745000Y2753818D01*
X5742955Y2747682D01*
X5740909Y2743591D01*
X5736818Y2739499D01*
X5732727Y2737455D01*
X5724544Y2737455D01*
X5720455Y2739499D01*
X5716364Y2743591D01*
X5714318Y2747682D01*
X5700817Y2772226D02*
G01*
X5696727Y2774272D01*
X5690591Y2780408D01*
X5690591Y2737455D01*
X5677091Y2772226D02*
G01*
X5673000Y2774272D01*
X5666863Y2780408D01*
X5666863Y2737455D01*
X5189318Y1300181D02*
G01*
X5191364Y1304272D01*
X5195455Y1308364D01*
X5199544Y1310408D01*
X5207727Y1310408D01*
X5211818Y1308364D01*
X5215909Y1304272D01*
X5217955Y1300181D01*
X5220000Y1294045D01*
X5220000Y1283818D01*
X5217955Y1277681D01*
X5215909Y1273591D01*
X5211818Y1269499D01*
X5207727Y1267455D01*
X5199544Y1267455D01*
X5195455Y1269499D01*
X5191364Y1273591D01*
X5189318Y1277681D01*
X5175817Y1302226D02*
G01*
X5171727Y1304272D01*
X5165591Y1310408D01*
X5165591Y1267455D01*
X5150045Y1300181D02*
G01*
X5150045Y1302226D01*
X5148000Y1306318D01*
X5145955Y1308364D01*
X5141863Y1310408D01*
X5133681Y1310408D01*
X5129591Y1308364D01*
X5127545Y1306318D01*
X5125500Y1302226D01*
X5125500Y1298135D01*
X5127545Y1294045D01*
X5131635Y1287908D01*
X5152091Y1267455D01*
X5123455Y1267455D01*
X5699300Y607300D02*
G01*
X5701400Y611399D01*
X5705500Y615500D01*
X5709499Y617500D01*
X5717700Y617500D01*
X5721800Y615500D01*
X5725900Y611399D01*
X5728000Y607300D01*
X5730000Y601100D01*
X5730000Y590900D01*
X5728000Y584800D01*
X5725900Y580700D01*
X5721800Y576599D01*
X5717700Y574600D01*
X5709499Y574600D01*
X5705500Y576599D01*
X5701400Y580700D01*
X5699300Y584800D01*
X5683800Y607300D02*
G01*
X5683800Y609299D01*
X5681700Y613400D01*
X5679700Y615500D01*
X5675600Y617500D01*
X5667399Y617500D01*
X5663299Y615500D01*
X5661300Y613400D01*
X5659200Y609299D01*
X5659200Y605199D01*
X5661300Y601100D01*
X5665400Y595000D01*
X5685799Y574600D01*
X5657200Y574600D01*
X5631400Y617500D02*
G01*
X5637500Y615500D01*
X5641599Y609299D01*
X5643699Y599099D01*
X5643699Y593000D01*
X5641599Y582699D01*
X5637500Y576599D01*
X5631400Y574600D01*
X5627299Y574600D01*
X5621199Y576599D01*
X5617100Y582699D01*
X5615000Y593000D01*
X5615000Y599099D01*
X5617100Y609299D01*
X5621199Y615500D01*
X5627299Y617500D01*
X5631400Y617500D01*
X6795150Y502300D02*
G01*
X6797150Y506399D01*
X6801250Y510500D01*
X6805349Y512500D01*
X6813549Y512500D01*
X6817650Y510500D01*
X6821750Y506399D01*
X6823750Y502300D01*
X6825749Y496100D01*
X6825749Y485900D01*
X6823750Y479800D01*
X6821750Y475700D01*
X6817650Y471599D01*
X6813549Y469600D01*
X6805349Y469600D01*
X6801250Y471599D01*
X6797150Y475700D01*
X6795150Y479800D01*
X6757049Y506399D02*
G01*
X6759150Y510500D01*
X6765249Y512500D01*
X6769350Y512500D01*
X6775450Y510500D01*
X6779549Y504299D01*
X6781650Y494099D01*
X6781650Y483899D01*
X6779549Y475700D01*
X6775450Y471599D01*
X6769350Y469600D01*
X6767250Y469600D01*
X6761149Y471599D01*
X6757049Y475700D01*
X6755050Y481799D01*
X6755050Y483899D01*
X6757049Y490000D01*
X6761149Y494099D01*
X6767250Y496100D01*
X6769350Y496100D01*
X6775450Y494099D01*
X6779549Y490000D01*
X6781650Y483899D01*
X7010000Y420399D02*
G01*
X7010000Y377500D01*
X7010000Y420399D02*
G01*
X6995699Y420399D01*
X6989499Y418400D01*
X6985500Y414299D01*
X6983400Y410199D01*
X6981400Y404000D01*
X6981400Y393800D01*
X6983400Y387699D01*
X6985500Y383600D01*
X6989499Y379499D01*
X6995699Y377500D01*
X7010000Y377500D01*
X6967900Y412199D02*
G01*
X6963800Y414299D01*
X6957600Y420399D01*
X6957600Y377500D01*
X2889300Y1420199D02*
G01*
X2891400Y1424299D01*
X2895500Y1428400D01*
X2899499Y1430399D01*
X2907700Y1430399D01*
X2911800Y1428400D01*
X2915900Y1424299D01*
X2918000Y1420199D01*
X2920000Y1414000D01*
X2920000Y1403800D01*
X2918000Y1397699D01*
X2915900Y1393600D01*
X2911800Y1389499D01*
X2907700Y1387500D01*
X2899499Y1387500D01*
X2895500Y1389499D01*
X2891400Y1393600D01*
X2889300Y1397699D01*
X2871700Y1430399D02*
G01*
X2849200Y1430399D01*
X2861499Y1414000D01*
X2855399Y1414000D01*
X2851300Y1411999D01*
X2849200Y1410000D01*
X2847200Y1403800D01*
X2847200Y1399699D01*
X2849200Y1393600D01*
X2853299Y1389499D01*
X2859499Y1387500D01*
X2865600Y1387500D01*
X2871700Y1389499D01*
X2873800Y1391500D01*
X2875799Y1395599D01*
X2813199Y1430399D02*
G01*
X2833699Y1401799D01*
X2803000Y1401799D01*
X2813199Y1430399D02*
G01*
X2813199Y1387500D01*
G36*
X1242360Y1737100D02*
G01*
X1242360Y1725480D01*
X1254360Y1725480D01*
X1254360Y1737100D01*
G37*
G36*
X1242360Y1674520D02*
G01*
X1242360Y1662900D01*
X1254360Y1662900D01*
X1254360Y1674520D01*
G37*
G36*
X1202360Y1537100D02*
G01*
X1202360Y1525480D01*
X1214360Y1525480D01*
X1214360Y1537100D01*
G37*
G36*
X1202360Y1474520D02*
G01*
X1202360Y1462900D01*
X1214360Y1462900D01*
X1214360Y1474520D01*
G37*
G36*
X635640Y799520D02*
G01*
X635640Y787900D01*
X647640Y787900D01*
X647640Y799520D01*
G37*
G36*
X635640Y862099D02*
G01*
X635640Y850480D01*
X647640Y850480D01*
X647640Y862099D01*
G37*
G36*
X952360Y862099D02*
G01*
X952360Y850480D01*
X964360Y850480D01*
X964360Y862099D01*
G37*
G36*
X952360Y799520D02*
G01*
X952360Y787900D01*
X964360Y787900D01*
X964360Y799520D01*
G37*
G36*
X1650480Y1457640D02*
G01*
X1650480Y1445640D01*
X1662100Y1445640D01*
X1662100Y1457640D01*
G37*
G36*
X1587900Y1457640D02*
G01*
X1587900Y1445640D01*
X1599520Y1445640D01*
X1599520Y1457640D01*
G37*
G36*
X6733099Y646120D02*
G01*
X6733099Y637780D01*
X6751100Y637780D01*
X6751100Y646120D01*
G37*
G36*
X6733099Y532220D02*
G01*
X6733099Y523880D01*
X6751100Y523880D01*
X6751100Y532220D01*
G37*
G36*
X6910640Y449520D02*
G01*
X6910640Y437900D01*
X6922640Y437900D01*
X6922640Y449520D01*
G37*
G36*
X6910640Y512100D02*
G01*
X6910640Y500480D01*
X6922640Y500480D01*
X6922640Y512100D01*
G37*
D10*
X2950000Y1685000D02*
G01*
X3020000Y1685000D01*
X3020000Y1515000D01*
X2950000Y1515000D01*
D11*
X6168693Y865576D02*
G01*
X6224204Y865576D01*
X6224204Y794423D02*
G01*
X6168693Y794423D01*
X6162692Y800425D02*
G01*
X6162692Y859574D01*
X6311306Y865576D02*
G01*
X6255796Y865576D01*
X6255796Y794423D02*
G01*
X6311306Y794423D01*
X6317307Y800425D02*
G01*
X6317307Y859574D01*
X1245361Y1734101D02*
G01*
X1134638Y1734101D01*
X1134638Y1734101D02*
G01*
X1134638Y1727487D01*
X1245361Y1665898D02*
G01*
X1134638Y1665898D01*
X1134638Y1665898D02*
G01*
X1134638Y1672512D01*
X1231310Y1734101D02*
G01*
X1231310Y1665898D01*
X2940598Y1635007D02*
G01*
X2940598Y1564992D01*
X2819402Y1635007D02*
G01*
X2819402Y1564992D01*
X6908693Y1585576D02*
G01*
X6964204Y1585576D01*
X6964204Y1514423D02*
G01*
X6908693Y1514423D01*
X6902692Y1520425D02*
G01*
X6902692Y1579574D01*
X7051306Y1585576D02*
G01*
X6995796Y1585576D01*
X6995796Y1514423D02*
G01*
X7051306Y1514423D01*
X7057307Y1520425D02*
G01*
X7057307Y1579574D01*
X1205361Y1534101D02*
G01*
X1094638Y1534101D01*
X1094638Y1534101D02*
G01*
X1094638Y1527487D01*
X1205361Y1465898D02*
G01*
X1094638Y1465898D01*
X1094638Y1465898D02*
G01*
X1094638Y1472512D01*
X1191310Y1534101D02*
G01*
X1191310Y1465898D01*
X2031306Y589423D02*
G01*
X1975796Y589423D01*
X1975796Y660576D02*
G01*
X2031306Y660576D01*
X2037307Y654574D02*
G01*
X2037307Y595425D01*
X1888693Y589423D02*
G01*
X1944203Y589423D01*
X1944203Y660576D02*
G01*
X1888693Y660576D01*
X1882692Y654574D02*
G01*
X1882692Y595425D01*
X6014423Y333694D02*
G01*
X6014423Y389203D01*
X6085576Y389203D02*
G01*
X6085576Y333694D01*
X6079575Y327692D02*
G01*
X6020424Y327692D01*
X6014423Y476305D02*
G01*
X6014423Y420796D01*
X6085576Y420796D02*
G01*
X6085576Y476305D01*
X6079575Y482307D02*
G01*
X6020424Y482307D01*
D10*
X5570000Y819099D02*
G01*
X5570000Y850900D01*
X5599099Y775000D02*
G01*
X5660000Y775000D01*
X5660000Y805821D01*
X5660000Y864178D02*
G01*
X5660000Y895000D01*
X5599099Y895000D01*
D11*
X5495576Y736305D02*
G01*
X5495576Y680796D01*
X5424423Y680796D02*
G01*
X5424423Y736305D01*
X5430424Y742307D02*
G01*
X5489575Y742307D01*
X5495576Y593694D02*
G01*
X5495576Y649203D01*
X5424423Y649203D02*
G01*
X5424423Y593694D01*
X5430424Y587692D02*
G01*
X5489575Y587692D01*
X5471306Y769423D02*
G01*
X5415796Y769423D01*
X5415796Y840576D02*
G01*
X5471306Y840576D01*
X5477307Y834574D02*
G01*
X5477307Y775425D01*
X5328693Y769423D02*
G01*
X5384204Y769423D01*
X5384204Y840576D02*
G01*
X5328693Y840576D01*
X5322692Y834574D02*
G01*
X5322692Y775425D01*
X5835576Y896305D02*
G01*
X5835576Y840796D01*
X5764423Y840796D02*
G01*
X5764423Y896305D01*
X5770424Y902307D02*
G01*
X5829575Y902307D01*
X5835576Y753694D02*
G01*
X5835576Y809203D01*
X5764423Y809203D02*
G01*
X5764423Y753694D01*
X5770424Y747692D02*
G01*
X5829575Y747692D01*
X5864423Y753694D02*
G01*
X5864423Y809203D01*
X5935576Y809203D02*
G01*
X5935576Y753694D01*
X5929575Y747692D02*
G01*
X5870424Y747692D01*
X5864423Y896305D02*
G01*
X5864423Y840796D01*
X5935576Y840796D02*
G01*
X5935576Y896305D01*
X5929575Y902307D02*
G01*
X5870424Y902307D01*
X6028850Y870929D02*
G01*
X6141149Y870929D01*
X6147150Y864929D02*
G01*
X6147150Y800558D01*
X6022849Y800558D02*
G01*
X6022849Y864929D01*
X6147150Y675070D02*
G01*
X6147150Y739441D01*
X6022849Y739441D02*
G01*
X6022849Y675070D01*
X6028850Y669070D02*
G01*
X6141149Y669070D01*
D10*
X7055900Y755000D02*
G01*
X7024099Y755000D01*
X7100000Y784099D02*
G01*
X7100000Y845000D01*
X7069179Y845000D01*
X7010820Y845000D02*
G01*
X6980000Y845000D01*
X6980000Y784099D01*
X5715900Y1385000D02*
G01*
X5684099Y1385000D01*
X5760000Y1414099D02*
G01*
X5760000Y1475000D01*
X5729179Y1475000D01*
X5670820Y1475000D02*
G01*
X5640000Y1475000D01*
X5640000Y1414099D01*
D11*
X321307Y2989425D02*
G01*
X265794Y2989425D01*
X265794Y3060574D02*
G01*
X321307Y3060574D01*
X327307Y3054575D02*
G01*
X327307Y2995425D01*
X178692Y2989425D02*
G01*
X234205Y2989425D01*
X234205Y3060574D02*
G01*
X178692Y3060574D01*
X172692Y3054575D02*
G01*
X172692Y2995425D01*
X2239425Y603692D02*
G01*
X2239425Y659205D01*
X2310574Y659205D02*
G01*
X2310574Y603692D01*
X2304575Y597692D02*
G01*
X2245424Y597692D01*
X2239425Y746307D02*
G01*
X2239425Y690794D01*
X2310574Y690794D02*
G01*
X2310574Y746307D01*
X2304575Y752307D02*
G01*
X2245424Y752307D01*
X5860574Y1346307D02*
G01*
X5860574Y1290794D01*
X5789425Y1290794D02*
G01*
X5789425Y1346307D01*
X5795424Y1352307D02*
G01*
X5854575Y1352307D01*
X5860574Y1203692D02*
G01*
X5860574Y1259205D01*
X5789425Y1259205D02*
G01*
X5789425Y1203692D01*
X5795424Y1197692D02*
G01*
X5854575Y1197692D01*
X2710574Y746307D02*
G01*
X2710574Y690794D01*
X2639425Y690794D02*
G01*
X2639425Y746307D01*
X2645424Y752307D02*
G01*
X2704575Y752307D01*
X2710574Y603692D02*
G01*
X2710574Y659205D01*
X2639425Y659205D02*
G01*
X2639425Y603692D01*
X2645424Y597692D02*
G01*
X2704575Y597692D01*
X2835574Y496307D02*
G01*
X2835574Y440794D01*
X2764425Y440794D02*
G01*
X2764425Y496307D01*
X2770424Y502307D02*
G01*
X2829575Y502307D01*
X2835574Y353692D02*
G01*
X2835574Y409205D01*
X2764425Y409205D02*
G01*
X2764425Y353692D01*
X2770424Y347692D02*
G01*
X2829575Y347692D01*
X1660574Y1931307D02*
G01*
X1660574Y1875794D01*
X1589425Y1875794D02*
G01*
X1589425Y1931307D01*
X1595424Y1937307D02*
G01*
X1654575Y1937307D01*
X1660574Y1788692D02*
G01*
X1660574Y1844205D01*
X1589425Y1844205D02*
G01*
X1589425Y1788692D01*
X1595424Y1782692D02*
G01*
X1654575Y1782692D01*
X1621306Y889425D02*
G01*
X1565794Y889425D01*
X1565794Y960574D02*
G01*
X1621306Y960574D01*
X1627307Y954574D02*
G01*
X1627307Y895425D01*
X1478693Y889425D02*
G01*
X1534205Y889425D01*
X1534205Y960574D02*
G01*
X1478693Y960574D01*
X1472692Y954574D02*
G01*
X1472692Y895425D01*
X2296306Y889425D02*
G01*
X2240794Y889425D01*
X2240794Y960574D02*
G01*
X2296306Y960574D01*
X2302307Y954574D02*
G01*
X2302307Y895425D01*
X2153693Y889425D02*
G01*
X2209205Y889425D01*
X2209205Y960574D02*
G01*
X2153693Y960574D01*
X2147692Y954574D02*
G01*
X2147692Y895425D01*
X3735574Y496307D02*
G01*
X3735574Y440794D01*
X3664425Y440794D02*
G01*
X3664425Y496307D01*
X3670424Y502307D02*
G01*
X3729575Y502307D01*
X3735574Y353692D02*
G01*
X3735574Y409205D01*
X3664425Y409205D02*
G01*
X3664425Y353692D01*
X3670424Y347692D02*
G01*
X3729575Y347692D01*
X3685574Y1046307D02*
G01*
X3685574Y990794D01*
X3614425Y990794D02*
G01*
X3614425Y1046307D01*
X3620424Y1052307D02*
G01*
X3679575Y1052307D01*
X3685574Y903692D02*
G01*
X3685574Y959205D01*
X3614425Y959205D02*
G01*
X3614425Y903692D01*
X3620424Y897692D02*
G01*
X3679575Y897692D01*
X4578693Y1060574D02*
G01*
X4634205Y1060574D01*
X4634205Y989425D02*
G01*
X4578693Y989425D01*
X4572692Y995425D02*
G01*
X4572692Y1054574D01*
X4721306Y1060574D02*
G01*
X4665794Y1060574D01*
X4665794Y989425D02*
G01*
X4721306Y989425D01*
X4727307Y995425D02*
G01*
X4727307Y1054574D01*
X3164425Y893692D02*
G01*
X3164425Y949205D01*
X3235574Y949205D02*
G01*
X3235574Y893692D01*
X3229575Y887692D02*
G01*
X3170424Y887692D01*
X3164425Y1036307D02*
G01*
X3164425Y980794D01*
X3235574Y980794D02*
G01*
X3235574Y1036307D01*
X3229575Y1042307D02*
G01*
X3170424Y1042307D01*
X4635574Y496307D02*
G01*
X4635574Y440794D01*
X4564425Y440794D02*
G01*
X4564425Y496307D01*
X4570424Y502307D02*
G01*
X4629575Y502307D01*
X4635574Y353692D02*
G01*
X4635574Y409205D01*
X4564425Y409205D02*
G01*
X4564425Y353692D01*
X4570424Y347692D02*
G01*
X4629575Y347692D01*
X5828693Y1685574D02*
G01*
X5884205Y1685574D01*
X5884205Y1614425D02*
G01*
X5828693Y1614425D01*
X5822692Y1620425D02*
G01*
X5822692Y1679574D01*
X5971306Y1685574D02*
G01*
X5915794Y1685574D01*
X5915794Y1614425D02*
G01*
X5971306Y1614425D01*
X5977307Y1620425D02*
G01*
X5977307Y1679574D01*
X4585574Y2771307D02*
G01*
X4585574Y2715794D01*
X4514425Y2715794D02*
G01*
X4514425Y2771307D01*
X4520424Y2777307D02*
G01*
X4579575Y2777307D01*
X4585574Y2628692D02*
G01*
X4585574Y2684205D01*
X4514425Y2684205D02*
G01*
X4514425Y2628692D01*
X4520424Y2622692D02*
G01*
X4579575Y2622692D01*
X3064425Y3028692D02*
G01*
X3064425Y3084205D01*
X3135574Y3084205D02*
G01*
X3135574Y3028692D01*
X3129575Y3022692D02*
G01*
X3070424Y3022692D01*
X3064425Y3171307D02*
G01*
X3064425Y3115794D01*
X3135574Y3115794D02*
G01*
X3135574Y3171307D01*
X3129575Y3177307D02*
G01*
X3070424Y3177307D01*
X3846306Y3014425D02*
G01*
X3790794Y3014425D01*
X3790794Y3085574D02*
G01*
X3846306Y3085574D01*
X3852307Y3079575D02*
G01*
X3852307Y3020425D01*
X3703693Y3014425D02*
G01*
X3759205Y3014425D01*
X3759205Y3085574D02*
G01*
X3703693Y3085574D01*
X3697692Y3079575D02*
G01*
X3697692Y3020425D01*
X2635574Y3646307D02*
G01*
X2635574Y3590794D01*
X2564425Y3590794D02*
G01*
X2564425Y3646307D01*
X2570424Y3652307D02*
G01*
X2629575Y3652307D01*
X2635574Y3503692D02*
G01*
X2635574Y3559205D01*
X2564425Y3559205D02*
G01*
X2564425Y3503692D01*
X2570424Y3497692D02*
G01*
X2629575Y3497692D01*
X5464425Y3278692D02*
G01*
X5464425Y3334205D01*
X5535574Y3334205D02*
G01*
X5535574Y3278692D01*
X5529575Y3272692D02*
G01*
X5470424Y3272692D01*
X5464425Y3421307D02*
G01*
X5464425Y3365794D01*
X5535574Y3365794D02*
G01*
X5535574Y3421307D01*
X5529575Y3427307D02*
G01*
X5470424Y3427307D01*
X4664425Y3278692D02*
G01*
X4664425Y3334205D01*
X4735574Y3334205D02*
G01*
X4735574Y3278692D01*
X4729575Y3272692D02*
G01*
X4670424Y3272692D01*
X4664425Y3421307D02*
G01*
X4664425Y3365794D01*
X4735574Y3365794D02*
G01*
X4735574Y3421307D01*
X4729575Y3427307D02*
G01*
X4670424Y3427307D01*
X5014425Y1378692D02*
G01*
X5014425Y1434205D01*
X5085574Y1434205D02*
G01*
X5085574Y1378692D01*
X5079575Y1372692D02*
G01*
X5020424Y1372692D01*
X5014425Y1521307D02*
G01*
X5014425Y1465794D01*
X5085574Y1465794D02*
G01*
X5085574Y1521307D01*
X5079575Y1527307D02*
G01*
X5020424Y1527307D01*
X2535574Y3271307D02*
G01*
X2535574Y3215794D01*
X2464425Y3215794D02*
G01*
X2464425Y3271307D01*
X2470424Y3277307D02*
G01*
X2529575Y3277307D01*
X2535574Y3128692D02*
G01*
X2535574Y3184205D01*
X2464425Y3184205D02*
G01*
X2464425Y3128692D01*
X2470424Y3122692D02*
G01*
X2529575Y3122692D01*
X7056306Y2314425D02*
G01*
X7000794Y2314425D01*
X7000794Y2385574D02*
G01*
X7056306Y2385574D01*
X7062307Y2379575D02*
G01*
X7062307Y2320425D01*
X6913693Y2314425D02*
G01*
X6969205Y2314425D01*
X6969205Y2385574D02*
G01*
X6913693Y2385574D01*
X6907692Y2379575D02*
G01*
X6907692Y2320425D01*
X6481306Y2389425D02*
G01*
X6425794Y2389425D01*
X6425794Y2460574D02*
G01*
X6481306Y2460574D01*
X6487307Y2454575D02*
G01*
X6487307Y2395425D01*
X6338693Y2389425D02*
G01*
X6394205Y2389425D01*
X6394205Y2460574D02*
G01*
X6338693Y2460574D01*
X6332692Y2454575D02*
G01*
X6332692Y2395425D01*
X1031306Y3269425D02*
G01*
X975794Y3269425D01*
X975794Y3340574D02*
G01*
X1031306Y3340574D01*
X1037307Y3334575D02*
G01*
X1037307Y3275425D01*
X888692Y3269425D02*
G01*
X944205Y3269425D01*
X944205Y3340574D02*
G01*
X888692Y3340574D01*
X882692Y3334575D02*
G01*
X882692Y3275425D01*
X510574Y971307D02*
G01*
X510574Y915794D01*
X439425Y915794D02*
G01*
X439425Y971307D01*
X445425Y977307D02*
G01*
X504574Y977307D01*
X510574Y828692D02*
G01*
X510574Y884205D01*
X439425Y884205D02*
G01*
X439425Y828692D01*
X445425Y822692D02*
G01*
X504574Y822692D01*
X434070Y468850D02*
G01*
X434070Y581149D01*
X440070Y587150D02*
G01*
X504441Y587150D01*
X504441Y462849D02*
G01*
X440070Y462849D01*
X629929Y587150D02*
G01*
X565558Y587150D01*
X565558Y462849D02*
G01*
X629929Y462849D01*
X635929Y468850D02*
G01*
X635929Y581149D01*
X714070Y458850D02*
G01*
X714070Y571149D01*
X720070Y577150D02*
G01*
X784441Y577150D01*
X784441Y452849D02*
G01*
X720070Y452849D01*
X909929Y577150D02*
G01*
X845558Y577150D01*
X845558Y452849D02*
G01*
X909929Y452849D01*
X915928Y458850D02*
G01*
X915928Y571149D01*
X624070Y1608850D02*
G01*
X624070Y1721149D01*
X630070Y1727150D02*
G01*
X694441Y1727150D01*
X694441Y1602849D02*
G01*
X630070Y1602849D01*
X819929Y1727150D02*
G01*
X755558Y1727150D01*
X755558Y1602849D02*
G01*
X819929Y1602849D01*
X825929Y1608850D02*
G01*
X825929Y1721149D01*
X644639Y790898D02*
G01*
X755360Y790898D01*
X755360Y790898D02*
G01*
X755360Y797512D01*
X644639Y859101D02*
G01*
X755360Y859101D01*
X755360Y859101D02*
G01*
X755360Y852487D01*
X658688Y790898D02*
G01*
X658688Y859101D01*
X955361Y859101D02*
G01*
X844639Y859101D01*
X844639Y859101D02*
G01*
X844639Y852487D01*
X955361Y790898D02*
G01*
X844639Y790898D01*
X844639Y790898D02*
G01*
X844639Y797512D01*
X941310Y859101D02*
G01*
X941310Y790898D01*
X776305Y874423D02*
G01*
X720796Y874423D01*
X720796Y945576D02*
G01*
X776305Y945576D01*
X782307Y939574D02*
G01*
X782307Y880425D01*
X633694Y874423D02*
G01*
X689203Y874423D01*
X689203Y945576D02*
G01*
X633694Y945576D01*
X627692Y939574D02*
G01*
X627692Y880425D01*
X499423Y2803694D02*
G01*
X499423Y2859203D01*
X570576Y2859203D02*
G01*
X570576Y2803694D01*
X564574Y2797692D02*
G01*
X505425Y2797692D01*
X499423Y2946305D02*
G01*
X499423Y2890796D01*
X570576Y2890796D02*
G01*
X570576Y2946305D01*
X564574Y2952307D02*
G01*
X505425Y2952307D01*
X579423Y2903694D02*
G01*
X579423Y2959203D01*
X650576Y2959203D02*
G01*
X650576Y2903694D01*
X644574Y2897692D02*
G01*
X585425Y2897692D01*
X579423Y3046305D02*
G01*
X579423Y2990796D01*
X650576Y2990796D02*
G01*
X650576Y3046305D01*
X644574Y3052307D02*
G01*
X585425Y3052307D01*
X659423Y2903694D02*
G01*
X659423Y2959203D01*
X730576Y2959203D02*
G01*
X730576Y2903694D01*
X724574Y2897692D02*
G01*
X665425Y2897692D01*
X659423Y3046305D02*
G01*
X659423Y2990796D01*
X730576Y2990796D02*
G01*
X730576Y3046305D01*
X724574Y3052307D02*
G01*
X665425Y3052307D01*
X739423Y2903694D02*
G01*
X739423Y2959203D01*
X810576Y2959203D02*
G01*
X810576Y2903694D01*
X804574Y2897692D02*
G01*
X745425Y2897692D01*
X739423Y3046305D02*
G01*
X739423Y2990796D01*
X810576Y2990796D02*
G01*
X810576Y3046305D01*
X804574Y3052307D02*
G01*
X745425Y3052307D01*
X579423Y2728694D02*
G01*
X579423Y2784203D01*
X650576Y2784203D02*
G01*
X650576Y2728694D01*
X644574Y2722692D02*
G01*
X585425Y2722692D01*
X579423Y2871305D02*
G01*
X579423Y2815796D01*
X650576Y2815796D02*
G01*
X650576Y2871305D01*
X644574Y2877307D02*
G01*
X585425Y2877307D01*
X730576Y2871305D02*
G01*
X730576Y2815796D01*
X659423Y2815796D02*
G01*
X659423Y2871305D01*
X665425Y2877307D02*
G01*
X724574Y2877307D01*
X730576Y2728694D02*
G01*
X730576Y2784203D01*
X659423Y2784203D02*
G01*
X659423Y2728694D01*
X665425Y2722692D02*
G01*
X724574Y2722692D01*
X1579071Y1988850D02*
G01*
X1579071Y2101149D01*
X1585070Y2107150D02*
G01*
X1649440Y2107150D01*
X1649440Y1982849D02*
G01*
X1585070Y1982849D01*
X1774929Y2107150D02*
G01*
X1710559Y2107150D01*
X1710559Y1982849D02*
G01*
X1774929Y1982849D01*
X1780928Y1988850D02*
G01*
X1780928Y2101149D01*
X1659102Y1454639D02*
G01*
X1659102Y1565360D01*
X1659102Y1565360D02*
G01*
X1652488Y1565360D01*
X1590897Y1454639D02*
G01*
X1590897Y1565360D01*
X1590897Y1565360D02*
G01*
X1597511Y1565360D01*
X1659102Y1468688D02*
G01*
X1590897Y1468688D01*
X1575576Y1581305D02*
G01*
X1575576Y1525796D01*
X1504423Y1525796D02*
G01*
X1504423Y1581305D01*
X1510424Y1587307D02*
G01*
X1569575Y1587307D01*
X1575576Y1438694D02*
G01*
X1575576Y1494203D01*
X1504423Y1494203D02*
G01*
X1504423Y1438694D01*
X1510424Y1432692D02*
G01*
X1569575Y1432692D01*
X2439423Y703694D02*
G01*
X2439423Y759203D01*
X2510576Y759203D02*
G01*
X2510576Y703694D01*
X2504575Y697692D02*
G01*
X2445424Y697692D01*
X2439423Y846305D02*
G01*
X2439423Y790796D01*
X2510576Y790796D02*
G01*
X2510576Y846305D01*
X2504575Y852307D02*
G01*
X2445424Y852307D01*
X2439423Y503694D02*
G01*
X2439423Y559203D01*
X2510576Y559203D02*
G01*
X2510576Y503694D01*
X2504575Y497692D02*
G01*
X2445424Y497692D01*
X2439423Y646305D02*
G01*
X2439423Y590796D01*
X2510576Y590796D02*
G01*
X2510576Y646305D01*
X2504575Y652307D02*
G01*
X2445424Y652307D01*
X1478693Y2685576D02*
G01*
X1534203Y2685576D01*
X1534203Y2614423D02*
G01*
X1478693Y2614423D01*
X1472692Y2620425D02*
G01*
X1472692Y2679575D01*
X1621306Y2685576D02*
G01*
X1565796Y2685576D01*
X1565796Y2614423D02*
G01*
X1621306Y2614423D01*
X1627307Y2620425D02*
G01*
X1627307Y2679575D01*
X7054423Y553694D02*
G01*
X7054423Y609203D01*
X7125576Y609203D02*
G01*
X7125576Y553694D01*
X7119575Y547692D02*
G01*
X7060424Y547692D01*
X7054423Y696305D02*
G01*
X7054423Y640796D01*
X7125576Y640796D02*
G01*
X7125576Y696305D01*
X7119575Y702307D02*
G01*
X7060424Y702307D01*
X6939423Y553694D02*
G01*
X6939423Y609203D01*
X7010576Y609203D02*
G01*
X7010576Y553694D01*
X7004575Y547692D02*
G01*
X6945424Y547692D01*
X6939423Y696305D02*
G01*
X6939423Y640796D01*
X7010576Y640796D02*
G01*
X7010576Y696305D01*
X7004575Y702307D02*
G01*
X6945424Y702307D01*
X5539423Y1378694D02*
G01*
X5539423Y1434203D01*
X5610576Y1434203D02*
G01*
X5610576Y1378694D01*
X5604575Y1372692D02*
G01*
X5545424Y1372692D01*
X5539423Y1521305D02*
G01*
X5539423Y1465796D01*
X5610576Y1465796D02*
G01*
X5610576Y1521305D01*
X5604575Y1527307D02*
G01*
X5545424Y1527307D01*
X5439423Y1378694D02*
G01*
X5439423Y1434203D01*
X5510576Y1434203D02*
G01*
X5510576Y1378694D01*
X5504575Y1372692D02*
G01*
X5445424Y1372692D01*
X5439423Y1521305D02*
G01*
X5439423Y1465796D01*
X5510576Y1465796D02*
G01*
X5510576Y1521305D01*
X5504575Y1527307D02*
G01*
X5445424Y1527307D01*
X5378693Y1260576D02*
G01*
X5434204Y1260576D01*
X5434204Y1189423D02*
G01*
X5378693Y1189423D01*
X5372692Y1195425D02*
G01*
X5372692Y1254574D01*
X5521306Y1260576D02*
G01*
X5465796Y1260576D01*
X5465796Y1189423D02*
G01*
X5521306Y1189423D01*
X5527307Y1195425D02*
G01*
X5527307Y1254574D01*
X5328693Y940576D02*
G01*
X5384204Y940576D01*
X5384204Y869423D02*
G01*
X5328693Y869423D01*
X5322692Y875425D02*
G01*
X5322692Y934574D01*
X5471306Y940576D02*
G01*
X5415796Y940576D01*
X5415796Y869423D02*
G01*
X5471306Y869423D01*
X5477307Y875425D02*
G01*
X5477307Y934574D01*
X5628693Y1270576D02*
G01*
X5684204Y1270576D01*
X5684204Y1199423D02*
G01*
X5628693Y1199423D01*
X5622692Y1205425D02*
G01*
X5622692Y1264574D01*
X5771306Y1270576D02*
G01*
X5715796Y1270576D01*
X5715796Y1199423D02*
G01*
X5771306Y1199423D01*
X5777307Y1205425D02*
G01*
X5777307Y1264574D01*
X5628693Y1350576D02*
G01*
X5684204Y1350576D01*
X5684204Y1279423D02*
G01*
X5628693Y1279423D01*
X5622692Y1285425D02*
G01*
X5622692Y1344574D01*
X5771306Y1350576D02*
G01*
X5715796Y1350576D01*
X5715796Y1279423D02*
G01*
X5771306Y1279423D01*
X5777307Y1285425D02*
G01*
X5777307Y1344574D01*
X2370576Y3576305D02*
G01*
X2370576Y3520796D01*
X2299423Y3520796D02*
G01*
X2299423Y3576305D01*
X2305424Y3582307D02*
G01*
X2364575Y3582307D01*
X2370576Y3433694D02*
G01*
X2370576Y3489203D01*
X2299423Y3489203D02*
G01*
X2299423Y3433694D01*
X2305424Y3427692D02*
G01*
X2364575Y3427692D01*
X5395576Y736305D02*
G01*
X5395576Y680796D01*
X5324423Y680796D02*
G01*
X5324423Y736305D01*
X5330424Y742307D02*
G01*
X5389575Y742307D01*
X5395576Y593694D02*
G01*
X5395576Y649203D01*
X5324423Y649203D02*
G01*
X5324423Y593694D01*
X5330424Y587692D02*
G01*
X5389575Y587692D01*
X3946306Y3514423D02*
G01*
X3890796Y3514423D01*
X3890796Y3585576D02*
G01*
X3946306Y3585576D01*
X3952307Y3579575D02*
G01*
X3952307Y3520425D01*
X3803693Y3514423D02*
G01*
X3859203Y3514423D01*
X3859203Y3585576D02*
G01*
X3803693Y3585576D01*
X3797692Y3579575D02*
G01*
X3797692Y3520425D01*
X1264425Y1453692D02*
G01*
X1264425Y1509205D01*
X1335574Y1509205D02*
G01*
X1335574Y1453692D01*
X1329575Y1447692D02*
G01*
X1270424Y1447692D01*
X1264425Y1596307D02*
G01*
X1264425Y1540794D01*
X1335574Y1540794D02*
G01*
X1335574Y1596307D01*
X1329575Y1602307D02*
G01*
X1270424Y1602307D01*
X3298850Y1505929D02*
G01*
X3411149Y1505929D01*
X3417150Y1499929D02*
G01*
X3417150Y1435558D01*
X3292849Y1435558D02*
G01*
X3292849Y1499929D01*
X3417150Y1310070D02*
G01*
X3417150Y1374441D01*
X3292849Y1374441D02*
G01*
X3292849Y1310070D01*
X3298850Y1304070D02*
G01*
X3411149Y1304070D01*
X5653850Y2720929D02*
G01*
X5766149Y2720929D01*
X5772150Y2714929D02*
G01*
X5772150Y2650558D01*
X5647849Y2650558D02*
G01*
X5647849Y2714929D01*
X5772150Y2525070D02*
G01*
X5772150Y2589441D01*
X5647849Y2589441D02*
G01*
X5647849Y2525070D01*
X5653850Y2519070D02*
G01*
X5766149Y2519070D01*
X5226149Y1339070D02*
G01*
X5113850Y1339070D01*
X5107849Y1345070D02*
G01*
X5107849Y1409441D01*
X5232150Y1409441D02*
G01*
X5232150Y1345070D01*
X5107849Y1534929D02*
G01*
X5107849Y1470558D01*
X5232150Y1470558D02*
G01*
X5232150Y1534929D01*
X5226149Y1540929D02*
G01*
X5113850Y1540929D01*
X5625070Y718015D02*
G01*
X5683535Y718015D01*
X5683535Y631984D02*
G01*
X5625070Y631984D01*
X5619071Y637984D02*
G01*
X5619071Y712015D01*
X5814929Y718015D02*
G01*
X5756464Y718015D01*
X5756464Y631984D02*
G01*
X5814929Y631984D01*
X5820928Y637984D02*
G01*
X5820928Y712015D01*
X6891896Y643117D02*
G01*
X6748103Y643117D01*
X6891896Y526882D02*
G01*
X6748103Y526882D01*
X6784396Y643117D02*
G01*
X6784396Y526882D01*
X6891896Y643117D02*
G01*
X6891896Y639773D01*
X6891896Y526882D02*
G01*
X6891896Y530226D01*
X6919638Y440898D02*
G01*
X7030361Y440898D01*
X7030361Y440898D02*
G01*
X7030361Y447512D01*
X6919638Y509101D02*
G01*
X7030361Y509101D01*
X7030361Y509101D02*
G01*
X7030361Y502487D01*
X6933689Y440898D02*
G01*
X6933689Y509101D01*
X2926306Y1444425D02*
G01*
X2870794Y1444425D01*
X2870794Y1515574D02*
G01*
X2926306Y1515574D01*
X2932307Y1509574D02*
G01*
X2932307Y1450425D01*
X2783693Y1444425D02*
G01*
X2839205Y1444425D01*
X2839205Y1515574D02*
G01*
X2783693Y1515574D01*
X2777692Y1509574D02*
G01*
X2777692Y1450425D01*
G75*
G01*
X6317307Y859575D02*
G03*
X6311307Y865575I-6000J0D01*
G75*
G01*
X6311307Y794425D02*
G03*
X6317307Y800425I0J6000D01*
G75*
G01*
X6162693Y859575D02*
G02*
X6168693Y865575I6000J0D01*
G75*
G01*
X6168693Y794425D02*
G02*
X6162693Y800425I0J6000D01*
G75*
G01*
X7057307Y1579575D02*
G03*
X7051307Y1585575I-6000J0D01*
G75*
G01*
X7051307Y1514425D02*
G03*
X7057307Y1520425I0J6000D01*
G75*
G01*
X6902693Y1579575D02*
G02*
X6908693Y1585575I6000J0D01*
G75*
G01*
X6908693Y1514425D02*
G02*
X6902693Y1520425I0J6000D01*
G75*
G01*
X1882693Y595425D02*
G03*
X1888693Y589425I6000J0D01*
G75*
G01*
X1888693Y660575D02*
G03*
X1882693Y654575I0J-6000D01*
G75*
G01*
X2037307Y595425D02*
G02*
X2031307Y589425I-6000J0D01*
G75*
G01*
X2031307Y660575D02*
G02*
X2037307Y654575I0J-6000D01*
G75*
G01*
X6020425Y482307D02*
G03*
X6014425Y476307I0J-6000D01*
G75*
G01*
X6085575Y476307D02*
G03*
X6079575Y482307I-6000J0D01*
G75*
G01*
X6020425Y327693D02*
G02*
X6014425Y333693I0J6000D01*
G75*
G01*
X6085575Y333693D02*
G02*
X6079575Y327693I-6000J0D01*
G75*
G01*
X5489575Y587693D02*
G03*
X5495575Y593693I0J6000D01*
G75*
G01*
X5424425Y593693D02*
G03*
X5430425Y587693I6000J0D01*
G75*
G01*
X5489575Y742307D02*
G02*
X5495575Y736307I0J-6000D01*
G75*
G01*
X5424425Y736307D02*
G02*
X5430425Y742307I6000J0D01*
G75*
G01*
X5322693Y775425D02*
G03*
X5328693Y769425I6000J0D01*
G75*
G01*
X5328693Y840575D02*
G03*
X5322693Y834575I0J-6000D01*
G75*
G01*
X5477307Y775425D02*
G02*
X5471307Y769425I-6000J0D01*
G75*
G01*
X5471307Y840575D02*
G02*
X5477307Y834575I0J-6000D01*
G75*
G01*
X5829575Y747693D02*
G03*
X5835575Y753693I0J6000D01*
G75*
G01*
X5764425Y753693D02*
G03*
X5770425Y747693I6000J0D01*
G75*
G01*
X5829575Y902307D02*
G02*
X5835575Y896307I0J-6000D01*
G75*
G01*
X5764425Y896307D02*
G02*
X5770425Y902307I6000J0D01*
G75*
G01*
X5870425Y902307D02*
G03*
X5864425Y896307I0J-6000D01*
G75*
G01*
X5935575Y896307D02*
G03*
X5929575Y902307I-6000J0D01*
G75*
G01*
X5870425Y747693D02*
G02*
X5864425Y753693I0J6000D01*
G75*
G01*
X5935575Y753693D02*
G02*
X5929575Y747693I-6000J0D01*
G75*
G01*
X6022850Y864929D02*
G02*
X6028850Y870929I6000J0D01*
G75*
G01*
X6141150Y870929D02*
G02*
X6147150Y864929I0J-6000D01*
G75*
G01*
X6022850Y675071D02*
G03*
X6028850Y669071I6000J0D01*
G75*
G01*
X6141150Y669071D02*
G03*
X6147150Y675071I0J6000D01*
G75*
G01*
X321307Y3060575D02*
G02*
X327307Y3054575I0J-6000D01*
G75*
G01*
X327307Y2995425D02*
G02*
X321307Y2989425I-6000J0D01*
G75*
G01*
X178693Y3060575D02*
G03*
X172693Y3054575I0J-6000D01*
G75*
G01*
X172693Y2995425D02*
G03*
X178693Y2989425I6000J0D01*
G75*
G01*
X2310575Y603693D02*
G02*
X2304575Y597693I-6000J0D01*
G75*
G01*
X2245425Y597693D02*
G02*
X2239425Y603693I0J6000D01*
G75*
G01*
X2310575Y746307D02*
G03*
X2304575Y752307I-6000J0D01*
G75*
G01*
X2245425Y752307D02*
G03*
X2239425Y746307I0J-6000D01*
G75*
G01*
X5789425Y1346307D02*
G02*
X5795425Y1352307I6000J0D01*
G75*
G01*
X5854575Y1352307D02*
G02*
X5860575Y1346307I0J-6000D01*
G75*
G01*
X5789425Y1203693D02*
G03*
X5795425Y1197693I6000J0D01*
G75*
G01*
X5854575Y1197693D02*
G03*
X5860575Y1203693I0J6000D01*
G75*
G01*
X2639425Y746307D02*
G02*
X2645425Y752307I6000J0D01*
G75*
G01*
X2704575Y752307D02*
G02*
X2710575Y746307I0J-6000D01*
G75*
G01*
X2639425Y603693D02*
G03*
X2645425Y597693I6000J0D01*
G75*
G01*
X2704575Y597693D02*
G03*
X2710575Y603693I0J6000D01*
G75*
G01*
X2764425Y496307D02*
G02*
X2770425Y502307I6000J0D01*
G75*
G01*
X2829575Y502307D02*
G02*
X2835575Y496307I0J-6000D01*
G75*
G01*
X2764425Y353693D02*
G03*
X2770425Y347693I6000J0D01*
G75*
G01*
X2829575Y347693D02*
G03*
X2835575Y353693I0J6000D01*
G75*
G01*
X1589425Y1931307D02*
G02*
X1595425Y1937307I6000J0D01*
G75*
G01*
X1654575Y1937307D02*
G02*
X1660575Y1931307I0J-6000D01*
G75*
G01*
X1589425Y1788693D02*
G03*
X1595425Y1782693I6000J0D01*
G75*
G01*
X1654575Y1782693D02*
G03*
X1660575Y1788693I0J6000D01*
G75*
G01*
X1621307Y960575D02*
G02*
X1627307Y954575I0J-6000D01*
G75*
G01*
X1627307Y895425D02*
G02*
X1621307Y889425I-6000J0D01*
G75*
G01*
X1478693Y960575D02*
G03*
X1472693Y954575I0J-6000D01*
G75*
G01*
X1472693Y895425D02*
G03*
X1478693Y889425I6000J0D01*
G75*
G01*
X2296307Y960575D02*
G02*
X2302307Y954575I0J-6000D01*
G75*
G01*
X2302307Y895425D02*
G02*
X2296307Y889425I-6000J0D01*
G75*
G01*
X2153693Y960575D02*
G03*
X2147693Y954575I0J-6000D01*
G75*
G01*
X2147693Y895425D02*
G03*
X2153693Y889425I6000J0D01*
G75*
G01*
X3664425Y496307D02*
G02*
X3670425Y502307I6000J0D01*
G75*
G01*
X3729575Y502307D02*
G02*
X3735575Y496307I0J-6000D01*
G75*
G01*
X3664425Y353693D02*
G03*
X3670425Y347693I6000J0D01*
G75*
G01*
X3729575Y347693D02*
G03*
X3735575Y353693I0J6000D01*
G75*
G01*
X3614425Y1046307D02*
G02*
X3620425Y1052307I6000J0D01*
G75*
G01*
X3679575Y1052307D02*
G02*
X3685575Y1046307I0J-6000D01*
G75*
G01*
X3614425Y903693D02*
G03*
X3620425Y897693I6000J0D01*
G75*
G01*
X3679575Y897693D02*
G03*
X3685575Y903693I0J6000D01*
G75*
G01*
X4578693Y989425D02*
G02*
X4572693Y995425I0J6000D01*
G75*
G01*
X4572693Y1054575D02*
G02*
X4578693Y1060575I6000J0D01*
G75*
G01*
X4721307Y989425D02*
G03*
X4727307Y995425I0J6000D01*
G75*
G01*
X4727307Y1054575D02*
G03*
X4721307Y1060575I-6000J0D01*
G75*
G01*
X3235575Y893693D02*
G02*
X3229575Y887693I-6000J0D01*
G75*
G01*
X3170425Y887693D02*
G02*
X3164425Y893693I0J6000D01*
G75*
G01*
X3235575Y1036307D02*
G03*
X3229575Y1042307I-6000J0D01*
G75*
G01*
X3170425Y1042307D02*
G03*
X3164425Y1036307I0J-6000D01*
G75*
G01*
X4564425Y496307D02*
G02*
X4570425Y502307I6000J0D01*
G75*
G01*
X4629575Y502307D02*
G02*
X4635575Y496307I0J-6000D01*
G75*
G01*
X4564425Y353693D02*
G03*
X4570425Y347693I6000J0D01*
G75*
G01*
X4629575Y347693D02*
G03*
X4635575Y353693I0J6000D01*
G75*
G01*
X5828693Y1614425D02*
G02*
X5822693Y1620425I0J6000D01*
G75*
G01*
X5822693Y1679575D02*
G02*
X5828693Y1685575I6000J0D01*
G75*
G01*
X5971307Y1614425D02*
G03*
X5977307Y1620425I0J6000D01*
G75*
G01*
X5977307Y1679575D02*
G03*
X5971307Y1685575I-6000J0D01*
G75*
G01*
X4514425Y2771307D02*
G02*
X4520425Y2777307I6000J0D01*
G75*
G01*
X4579575Y2777307D02*
G02*
X4585575Y2771307I0J-6000D01*
G75*
G01*
X4514425Y2628693D02*
G03*
X4520425Y2622693I6000J0D01*
G75*
G01*
X4579575Y2622693D02*
G03*
X4585575Y2628693I0J6000D01*
G75*
G01*
X3135575Y3028693D02*
G02*
X3129575Y3022693I-6000J0D01*
G75*
G01*
X3070425Y3022693D02*
G02*
X3064425Y3028693I0J6000D01*
G75*
G01*
X3135575Y3171307D02*
G03*
X3129575Y3177307I-6000J0D01*
G75*
G01*
X3070425Y3177307D02*
G03*
X3064425Y3171307I0J-6000D01*
G75*
G01*
X3846307Y3085575D02*
G02*
X3852307Y3079575I0J-6000D01*
G75*
G01*
X3852307Y3020425D02*
G02*
X3846307Y3014425I-6000J0D01*
G75*
G01*
X3703693Y3085575D02*
G03*
X3697693Y3079575I0J-6000D01*
G75*
G01*
X3697693Y3020425D02*
G03*
X3703693Y3014425I6000J0D01*
G75*
G01*
X2564425Y3646307D02*
G02*
X2570425Y3652307I6000J0D01*
G75*
G01*
X2629575Y3652307D02*
G02*
X2635575Y3646307I0J-6000D01*
G75*
G01*
X2564425Y3503693D02*
G03*
X2570425Y3497693I6000J0D01*
G75*
G01*
X2629575Y3497693D02*
G03*
X2635575Y3503693I0J6000D01*
G75*
G01*
X5535575Y3278693D02*
G02*
X5529575Y3272693I-6000J0D01*
G75*
G01*
X5470425Y3272693D02*
G02*
X5464425Y3278693I0J6000D01*
G75*
G01*
X5535575Y3421307D02*
G03*
X5529575Y3427307I-6000J0D01*
G75*
G01*
X5470425Y3427307D02*
G03*
X5464425Y3421307I0J-6000D01*
G75*
G01*
X4735575Y3278693D02*
G02*
X4729575Y3272693I-6000J0D01*
G75*
G01*
X4670425Y3272693D02*
G02*
X4664425Y3278693I0J6000D01*
G75*
G01*
X4735575Y3421307D02*
G03*
X4729575Y3427307I-6000J0D01*
G75*
G01*
X4670425Y3427307D02*
G03*
X4664425Y3421307I0J-6000D01*
G75*
G01*
X5085575Y1378693D02*
G02*
X5079575Y1372693I-6000J0D01*
G75*
G01*
X5020425Y1372693D02*
G02*
X5014425Y1378693I0J6000D01*
G75*
G01*
X5085575Y1521307D02*
G03*
X5079575Y1527307I-6000J0D01*
G75*
G01*
X5020425Y1527307D02*
G03*
X5014425Y1521307I0J-6000D01*
G75*
G01*
X2464425Y3271307D02*
G02*
X2470425Y3277307I6000J0D01*
G75*
G01*
X2529575Y3277307D02*
G02*
X2535575Y3271307I0J-6000D01*
G75*
G01*
X2464425Y3128693D02*
G03*
X2470425Y3122693I6000J0D01*
G75*
G01*
X2529575Y3122693D02*
G03*
X2535575Y3128693I0J6000D01*
G75*
G01*
X7056307Y2385575D02*
G02*
X7062307Y2379575I0J-6000D01*
G75*
G01*
X7062307Y2320425D02*
G02*
X7056307Y2314425I-6000J0D01*
G75*
G01*
X6913693Y2385575D02*
G03*
X6907693Y2379575I0J-6000D01*
G75*
G01*
X6907693Y2320425D02*
G03*
X6913693Y2314425I6000J0D01*
G75*
G01*
X6481307Y2460575D02*
G02*
X6487307Y2454575I0J-6000D01*
G75*
G01*
X6487307Y2395425D02*
G02*
X6481307Y2389425I-6000J0D01*
G75*
G01*
X6338693Y2460575D02*
G03*
X6332693Y2454575I0J-6000D01*
G75*
G01*
X6332693Y2395425D02*
G03*
X6338693Y2389425I6000J0D01*
G75*
G01*
X1031307Y3340575D02*
G02*
X1037307Y3334575I0J-6000D01*
G75*
G01*
X1037307Y3275425D02*
G02*
X1031307Y3269425I-6000J0D01*
G75*
G01*
X888693Y3340575D02*
G03*
X882693Y3334575I0J-6000D01*
G75*
G01*
X882693Y3275425D02*
G03*
X888693Y3269425I6000J0D01*
G75*
G01*
X439425Y971307D02*
G02*
X445425Y977307I6000J0D01*
G75*
G01*
X504575Y977307D02*
G02*
X510575Y971307I0J-6000D01*
G75*
G01*
X439425Y828693D02*
G03*
X445425Y822693I6000J0D01*
G75*
G01*
X504575Y822693D02*
G03*
X510575Y828693I0J6000D01*
G75*
G01*
X440071Y462850D02*
G02*
X434071Y468850I0J6000D01*
G75*
G01*
X434071Y581150D02*
G02*
X440071Y587150I6000J0D01*
G75*
G01*
X629929Y462850D02*
G03*
X635929Y468850I0J6000D01*
G75*
G01*
X635929Y581150D02*
G03*
X629929Y587150I-6000J0D01*
G75*
G01*
X720071Y452850D02*
G02*
X714071Y458850I0J6000D01*
G75*
G01*
X714071Y571150D02*
G02*
X720071Y577150I6000J0D01*
G75*
G01*
X909929Y452850D02*
G03*
X915929Y458850I0J6000D01*
G75*
G01*
X915929Y571150D02*
G03*
X909929Y577150I-6000J0D01*
G75*
G01*
X630071Y1602850D02*
G02*
X624071Y1608850I0J6000D01*
G75*
G01*
X624071Y1721150D02*
G02*
X630071Y1727150I6000J0D01*
G75*
G01*
X819929Y1602850D02*
G03*
X825929Y1608850I0J6000D01*
G75*
G01*
X825929Y1721150D02*
G03*
X819929Y1727150I-6000J0D01*
G75*
G01*
X627693Y880425D02*
G03*
X633693Y874425I6000J0D01*
G75*
G01*
X633693Y945575D02*
G03*
X627693Y939575I0J-6000D01*
G75*
G01*
X782307Y880425D02*
G02*
X776307Y874425I-6000J0D01*
G75*
G01*
X776307Y945575D02*
G02*
X782307Y939575I0J-6000D01*
G75*
G01*
X505425Y2952307D02*
G03*
X499425Y2946307I0J-6000D01*
G75*
G01*
X570575Y2946307D02*
G03*
X564575Y2952307I-6000J0D01*
G75*
G01*
X505425Y2797693D02*
G02*
X499425Y2803693I0J6000D01*
G75*
G01*
X570575Y2803693D02*
G02*
X564575Y2797693I-6000J0D01*
G75*
G01*
X585425Y3052307D02*
G03*
X579425Y3046307I0J-6000D01*
G75*
G01*
X650575Y3046307D02*
G03*
X644575Y3052307I-6000J0D01*
G75*
G01*
X585425Y2897693D02*
G02*
X579425Y2903693I0J6000D01*
G75*
G01*
X650575Y2903693D02*
G02*
X644575Y2897693I-6000J0D01*
G75*
G01*
X665425Y3052307D02*
G03*
X659425Y3046307I0J-6000D01*
G75*
G01*
X730575Y3046307D02*
G03*
X724575Y3052307I-6000J0D01*
G75*
G01*
X665425Y2897693D02*
G02*
X659425Y2903693I0J6000D01*
G75*
G01*
X730575Y2903693D02*
G02*
X724575Y2897693I-6000J0D01*
G75*
G01*
X745425Y3052307D02*
G03*
X739425Y3046307I0J-6000D01*
G75*
G01*
X810575Y3046307D02*
G03*
X804575Y3052307I-6000J0D01*
G75*
G01*
X745425Y2897693D02*
G02*
X739425Y2903693I0J6000D01*
G75*
G01*
X810575Y2903693D02*
G02*
X804575Y2897693I-6000J0D01*
G75*
G01*
X585425Y2877307D02*
G03*
X579425Y2871307I0J-6000D01*
G75*
G01*
X650575Y2871307D02*
G03*
X644575Y2877307I-6000J0D01*
G75*
G01*
X585425Y2722693D02*
G02*
X579425Y2728693I0J6000D01*
G75*
G01*
X650575Y2728693D02*
G02*
X644575Y2722693I-6000J0D01*
G75*
G01*
X724575Y2722693D02*
G03*
X730575Y2728693I0J6000D01*
G75*
G01*
X659425Y2728693D02*
G03*
X665425Y2722693I6000J0D01*
G75*
G01*
X724575Y2877307D02*
G02*
X730575Y2871307I0J-6000D01*
G75*
G01*
X659425Y2871307D02*
G02*
X665425Y2877307I6000J0D01*
G75*
G01*
X1585071Y1982850D02*
G02*
X1579071Y1988850I0J6000D01*
G75*
G01*
X1579071Y2101150D02*
G02*
X1585071Y2107150I6000J0D01*
G75*
G01*
X1774929Y1982850D02*
G03*
X1780929Y1988850I0J6000D01*
G75*
G01*
X1780929Y2101150D02*
G03*
X1774929Y2107150I-6000J0D01*
G75*
G01*
X1569575Y1432693D02*
G03*
X1575575Y1438693I0J6000D01*
G75*
G01*
X1504425Y1438693D02*
G03*
X1510425Y1432693I6000J0D01*
G75*
G01*
X1569575Y1587307D02*
G02*
X1575575Y1581307I0J-6000D01*
G75*
G01*
X1504425Y1581307D02*
G02*
X1510425Y1587307I6000J0D01*
G75*
G01*
X2445425Y852307D02*
G03*
X2439425Y846307I0J-6000D01*
G75*
G01*
X2510575Y846307D02*
G03*
X2504575Y852307I-6000J0D01*
G75*
G01*
X2445425Y697693D02*
G02*
X2439425Y703693I0J6000D01*
G75*
G01*
X2510575Y703693D02*
G02*
X2504575Y697693I-6000J0D01*
G75*
G01*
X2445425Y652307D02*
G03*
X2439425Y646307I0J-6000D01*
G75*
G01*
X2510575Y646307D02*
G03*
X2504575Y652307I-6000J0D01*
G75*
G01*
X2445425Y497693D02*
G02*
X2439425Y503693I0J6000D01*
G75*
G01*
X2510575Y503693D02*
G02*
X2504575Y497693I-6000J0D01*
G75*
G01*
X1627307Y2679575D02*
G03*
X1621307Y2685575I-6000J0D01*
G75*
G01*
X1621307Y2614425D02*
G03*
X1627307Y2620425I0J6000D01*
G75*
G01*
X1472693Y2679575D02*
G02*
X1478693Y2685575I6000J0D01*
G75*
G01*
X1478693Y2614425D02*
G02*
X1472693Y2620425I0J6000D01*
G75*
G01*
X7060425Y702307D02*
G03*
X7054425Y696307I0J-6000D01*
G75*
G01*
X7125575Y696307D02*
G03*
X7119575Y702307I-6000J0D01*
G75*
G01*
X7060425Y547693D02*
G02*
X7054425Y553693I0J6000D01*
G75*
G01*
X7125575Y553693D02*
G02*
X7119575Y547693I-6000J0D01*
G75*
G01*
X6945425Y702307D02*
G03*
X6939425Y696307I0J-6000D01*
G75*
G01*
X7010575Y696307D02*
G03*
X7004575Y702307I-6000J0D01*
G75*
G01*
X6945425Y547693D02*
G02*
X6939425Y553693I0J6000D01*
G75*
G01*
X7010575Y553693D02*
G02*
X7004575Y547693I-6000J0D01*
G75*
G01*
X5545425Y1527307D02*
G03*
X5539425Y1521307I0J-6000D01*
G75*
G01*
X5610575Y1521307D02*
G03*
X5604575Y1527307I-6000J0D01*
G75*
G01*
X5545425Y1372693D02*
G02*
X5539425Y1378693I0J6000D01*
G75*
G01*
X5610575Y1378693D02*
G02*
X5604575Y1372693I-6000J0D01*
G75*
G01*
X5445425Y1527307D02*
G03*
X5439425Y1521307I0J-6000D01*
G75*
G01*
X5510575Y1521307D02*
G03*
X5504575Y1527307I-6000J0D01*
G75*
G01*
X5445425Y1372693D02*
G02*
X5439425Y1378693I0J6000D01*
G75*
G01*
X5510575Y1378693D02*
G02*
X5504575Y1372693I-6000J0D01*
G75*
G01*
X5527307Y1254575D02*
G03*
X5521307Y1260575I-6000J0D01*
G75*
G01*
X5521307Y1189425D02*
G03*
X5527307Y1195425I0J6000D01*
G75*
G01*
X5372693Y1254575D02*
G02*
X5378693Y1260575I6000J0D01*
G75*
G01*
X5378693Y1189425D02*
G02*
X5372693Y1195425I0J6000D01*
G75*
G01*
X5477307Y934575D02*
G03*
X5471307Y940575I-6000J0D01*
G75*
G01*
X5471307Y869425D02*
G03*
X5477307Y875425I0J6000D01*
G75*
G01*
X5322693Y934575D02*
G02*
X5328693Y940575I6000J0D01*
G75*
G01*
X5328693Y869425D02*
G02*
X5322693Y875425I0J6000D01*
G75*
G01*
X5777307Y1264575D02*
G03*
X5771307Y1270575I-6000J0D01*
G75*
G01*
X5771307Y1199425D02*
G03*
X5777307Y1205425I0J6000D01*
G75*
G01*
X5622693Y1264575D02*
G02*
X5628693Y1270575I6000J0D01*
G75*
G01*
X5628693Y1199425D02*
G02*
X5622693Y1205425I0J6000D01*
G75*
G01*
X5777307Y1344575D02*
G03*
X5771307Y1350575I-6000J0D01*
G75*
G01*
X5771307Y1279425D02*
G03*
X5777307Y1285425I0J6000D01*
G75*
G01*
X5622693Y1344575D02*
G02*
X5628693Y1350575I6000J0D01*
G75*
G01*
X5628693Y1279425D02*
G02*
X5622693Y1285425I0J6000D01*
G75*
G01*
X2364575Y3427693D02*
G03*
X2370575Y3433693I0J6000D01*
G75*
G01*
X2299425Y3433693D02*
G03*
X2305425Y3427693I6000J0D01*
G75*
G01*
X2364575Y3582307D02*
G02*
X2370575Y3576307I0J-6000D01*
G75*
G01*
X2299425Y3576307D02*
G02*
X2305425Y3582307I6000J0D01*
G75*
G01*
X5389575Y587693D02*
G03*
X5395575Y593693I0J6000D01*
G75*
G01*
X5324425Y593693D02*
G03*
X5330425Y587693I6000J0D01*
G75*
G01*
X5389575Y742307D02*
G02*
X5395575Y736307I0J-6000D01*
G75*
G01*
X5324425Y736307D02*
G02*
X5330425Y742307I6000J0D01*
G75*
G01*
X3797693Y3520425D02*
G03*
X3803693Y3514425I6000J0D01*
G75*
G01*
X3803693Y3585575D02*
G03*
X3797693Y3579575I0J-6000D01*
G75*
G01*
X3952307Y3520425D02*
G02*
X3946307Y3514425I-6000J0D01*
G75*
G01*
X3946307Y3585575D02*
G02*
X3952307Y3579575I0J-6000D01*
G75*
G01*
X1335575Y1453693D02*
G02*
X1329575Y1447693I-6000J0D01*
G75*
G01*
X1270425Y1447693D02*
G02*
X1264425Y1453693I0J6000D01*
G75*
G01*
X1335575Y1596307D02*
G03*
X1329575Y1602307I-6000J0D01*
G75*
G01*
X1270425Y1602307D02*
G03*
X1264425Y1596307I0J-6000D01*
G75*
G01*
X3292850Y1499929D02*
G02*
X3298850Y1505929I6000J0D01*
G75*
G01*
X3411150Y1505929D02*
G02*
X3417150Y1499929I0J-6000D01*
G75*
G01*
X3292850Y1310071D02*
G03*
X3298850Y1304071I6000J0D01*
G75*
G01*
X3411150Y1304071D02*
G03*
X3417150Y1310071I0J6000D01*
G75*
G01*
X5647850Y2714929D02*
G02*
X5653850Y2720929I6000J0D01*
G75*
G01*
X5766150Y2720929D02*
G02*
X5772150Y2714929I0J-6000D01*
G75*
G01*
X5647850Y2525071D02*
G03*
X5653850Y2519071I6000J0D01*
G75*
G01*
X5766150Y2519071D02*
G03*
X5772150Y2525071I0J6000D01*
G75*
G01*
X5232150Y1345071D02*
G02*
X5226150Y1339071I-6000J0D01*
G75*
G01*
X5113850Y1339071D02*
G02*
X5107850Y1345071I0J6000D01*
G75*
G01*
X5232150Y1534929D02*
G03*
X5226150Y1540929I-6000J0D01*
G75*
G01*
X5113850Y1540929D02*
G03*
X5107850Y1534929I0J-6000D01*
G75*
G01*
X5625071Y631984D02*
G02*
X5619071Y637984I0J6000D01*
G75*
G01*
X5619071Y712016D02*
G02*
X5625071Y718016I6000J0D01*
G75*
G01*
X5814929Y631984D02*
G03*
X5820929Y637984I0J6000D01*
G75*
G01*
X5820929Y712016D02*
G03*
X5814929Y718016I-6000J0D01*
G75*
G01*
X2926307Y1515575D02*
G02*
X2932307Y1509575I0J-6000D01*
G75*
G01*
X2932307Y1450425D02*
G02*
X2926307Y1444425I-6000J0D01*
G75*
G01*
X2783693Y1515575D02*
G03*
X2777693Y1509575I0J-6000D01*
G75*
G01*
X2777693Y1450425D02*
G03*
X2783693Y1444425I6000J0D01*
D12*
G75*
G01
X2820230Y1651240D02*
G03X2820230Y1651240I-5910J0D01*
M02*
