G04 Layer: TopAssemblyLayer*
G04 EasyEDA v6.5.39, 2024-02-04 17:57:03*
G04 f6d63844dc264826aa4dc6ae726a4a04,5509f98a9368439c9cde498926e245b9,10*
G04 Gerber Generator version 0.2*
G04 Scale: 100 percent, Rotated: No, Reflected: No *
G04 Dimensions in inches *
G04 leading zeros omitted , absolute positions ,3 integer and 6 decimal *
%FSLAX36Y36*%
%MOIN*%

%ADD10C,0.0060*%
%ADD11C,0.0050*%

%LPD*%
D10*
X3751999Y1270199D02*
G01*
X3751999Y1272199D01*
X3754099Y1276300D01*
X3756099Y1278400D01*
X3760200Y1280399D01*
X3768400Y1280399D01*
X3772500Y1278400D01*
X3774499Y1276300D01*
X3776599Y1272199D01*
X3776599Y1268099D01*
X3774499Y1264000D01*
X3770500Y1257899D01*
X3750000Y1237500D01*
X3778599Y1237500D01*
X3794200Y1270199D02*
G01*
X3794200Y1272199D01*
X3796199Y1276300D01*
X3798299Y1278400D01*
X3802399Y1280399D01*
X3810500Y1280399D01*
X3814600Y1278400D01*
X3816700Y1276300D01*
X3818699Y1272199D01*
X3818699Y1268099D01*
X3816700Y1264000D01*
X3812600Y1257899D01*
X3792100Y1237500D01*
X3820799Y1237500D01*
X3834300Y1266100D02*
G01*
X3834300Y1237500D01*
X3834300Y1257899D02*
G01*
X3840399Y1264000D01*
X3844499Y1266100D01*
X3850600Y1266100D01*
X3854700Y1264000D01*
X3856800Y1257899D01*
X3856800Y1237500D01*
X4162299Y735399D02*
G01*
X4156099Y733400D01*
X4151999Y727199D01*
X4150000Y716999D01*
X4150000Y710900D01*
X4151999Y700599D01*
X4156099Y694499D01*
X4162299Y692500D01*
X4166400Y692500D01*
X4172500Y694499D01*
X4176599Y700599D01*
X4178599Y710900D01*
X4178599Y716999D01*
X4176599Y727199D01*
X4172500Y733400D01*
X4166400Y735399D01*
X4162299Y735399D01*
X4194200Y702699D02*
G01*
X4192100Y700599D01*
X4194200Y698600D01*
X4196199Y700599D01*
X4194200Y702699D01*
X4209700Y727199D02*
G01*
X4213800Y729299D01*
X4220000Y735399D01*
X4220000Y692500D01*
X4233500Y721100D02*
G01*
X4233500Y700599D01*
X4235500Y694499D01*
X4239600Y692500D01*
X4245699Y692500D01*
X4249799Y694499D01*
X4256000Y700599D01*
X4256000Y721100D02*
G01*
X4256000Y692500D01*
X3544099Y1280399D02*
G01*
X3566599Y1280399D01*
X3554300Y1264000D01*
X3560500Y1264000D01*
X3564499Y1261999D01*
X3566599Y1260000D01*
X3568599Y1253800D01*
X3568599Y1249699D01*
X3566599Y1243600D01*
X3562500Y1239499D01*
X3556400Y1237500D01*
X3550200Y1237500D01*
X3544099Y1239499D01*
X3541999Y1241500D01*
X3540000Y1245599D01*
X3608699Y1266100D02*
G01*
X3606700Y1260000D01*
X3602600Y1255900D01*
X3596499Y1253800D01*
X3594399Y1253800D01*
X3588299Y1255900D01*
X3584200Y1260000D01*
X3582100Y1266100D01*
X3582100Y1268099D01*
X3584200Y1274299D01*
X3588299Y1278400D01*
X3594399Y1280399D01*
X3596499Y1280399D01*
X3602600Y1278400D01*
X3606700Y1274299D01*
X3608699Y1266100D01*
X3608699Y1255900D01*
X3606700Y1245599D01*
X3602600Y1239499D01*
X3596499Y1237500D01*
X3592399Y1237500D01*
X3586199Y1239499D01*
X3584200Y1243600D01*
X3634499Y1280399D02*
G01*
X3628400Y1278400D01*
X3624300Y1272199D01*
X3622200Y1261999D01*
X3622200Y1255900D01*
X3624300Y1245599D01*
X3628400Y1239499D01*
X3634499Y1237500D01*
X3638599Y1237500D01*
X3644700Y1239499D01*
X3648800Y1245599D01*
X3650900Y1255900D01*
X3650900Y1261999D01*
X3648800Y1272199D01*
X3644700Y1278400D01*
X3638599Y1280399D01*
X3634499Y1280399D01*
X3664399Y1280399D02*
G01*
X3664399Y1237500D01*
X3664399Y1280399D02*
G01*
X3682799Y1280399D01*
X3688900Y1278400D01*
X3691000Y1276300D01*
X3693000Y1272199D01*
X3693000Y1268099D01*
X3691000Y1264000D01*
X3688900Y1261999D01*
X3682799Y1260000D01*
X3664399Y1260000D01*
X3678699Y1260000D02*
G01*
X3693000Y1237500D01*
X4356999Y725199D02*
G01*
X4356999Y727199D01*
X4359099Y731300D01*
X4361099Y733400D01*
X4365200Y735399D01*
X4373400Y735399D01*
X4377500Y733400D01*
X4379499Y731300D01*
X4381599Y727199D01*
X4381599Y723099D01*
X4379499Y719000D01*
X4375500Y712899D01*
X4355000Y692500D01*
X4383599Y692500D01*
X4425799Y735399D02*
G01*
X4405299Y692500D01*
X4397100Y735399D02*
G01*
X4425799Y735399D01*
X4439300Y735399D02*
G01*
X4439300Y692500D01*
X4459700Y721100D02*
G01*
X4439300Y700599D01*
X4447500Y708800D02*
G01*
X4461800Y692500D01*
X6720000Y3322800D02*
G01*
X6715900Y3320700D01*
X6709799Y3314600D01*
X6709799Y3357500D01*
X6683999Y3314600D02*
G01*
X6690100Y3316599D01*
X6694200Y3322800D01*
X6696300Y3333000D01*
X6696300Y3339099D01*
X6694200Y3349400D01*
X6690100Y3355500D01*
X6683999Y3357500D01*
X6679899Y3357500D01*
X6673800Y3355500D01*
X6669700Y3349400D01*
X6667600Y3339099D01*
X6667600Y3333000D01*
X6669700Y3322800D01*
X6673800Y3316599D01*
X6679899Y3314600D01*
X6683999Y3314600D01*
X6654099Y3328899D02*
G01*
X6654099Y3349400D01*
X6652100Y3355500D01*
X6648000Y3357500D01*
X6641899Y3357500D01*
X6637799Y3355500D01*
X6631599Y3349400D01*
X6631599Y3328899D02*
G01*
X6631599Y3357500D01*
D11*
X6214499Y2920300D02*
G01*
X6209799Y2918699D01*
X6206599Y2914000D01*
X6205000Y2905999D01*
X6205000Y2901199D01*
X6206599Y2893299D01*
X6209799Y2888499D01*
X6214499Y2886900D01*
X6217700Y2886900D01*
X6222500Y2888499D01*
X6225699Y2893299D01*
X6227299Y2901199D01*
X6227299Y2905999D01*
X6225699Y2914000D01*
X6222500Y2918699D01*
X6217700Y2920300D01*
X6214499Y2920300D01*
X6239399Y2894899D02*
G01*
X6237799Y2893299D01*
X6239399Y2891700D01*
X6241000Y2893299D01*
X6239399Y2894899D01*
X6251499Y2914000D02*
G01*
X6254600Y2915500D01*
X6259399Y2920300D01*
X6259399Y2886900D01*
X6269899Y2909200D02*
G01*
X6269899Y2893299D01*
X6271499Y2888499D01*
X6274700Y2886900D01*
X6279499Y2886900D01*
X6282600Y2888499D01*
X6287399Y2893299D01*
X6287399Y2909200D02*
G01*
X6287399Y2886900D01*
X6534700Y2708200D02*
G01*
X6534700Y2725700D01*
X6547399Y2716100D01*
X6547399Y2720900D01*
X6548999Y2724099D01*
X6550600Y2725700D01*
X6555400Y2727300D01*
X6558500Y2727300D01*
X6563299Y2725700D01*
X6566499Y2722500D01*
X6568100Y2717700D01*
X6568100Y2713000D01*
X6566499Y2708200D01*
X6564899Y2706599D01*
X6561700Y2705000D01*
X6534700Y2740999D02*
G01*
X6534700Y2758499D01*
X6547399Y2748899D01*
X6547399Y2753699D01*
X6548999Y2756900D01*
X6550600Y2758499D01*
X6555400Y2760000D01*
X6558500Y2760000D01*
X6563299Y2758499D01*
X6566499Y2755300D01*
X6568100Y2750500D01*
X6568100Y2745700D01*
X6566499Y2740999D01*
X6564899Y2739400D01*
X6561700Y2737800D01*
X6534700Y2770500D02*
G01*
X6568100Y2770500D01*
X6534700Y2770500D02*
G01*
X6534700Y2784899D01*
X6536300Y2789600D01*
X6537900Y2791199D01*
X6541000Y2792800D01*
X6544200Y2792800D01*
X6547399Y2791199D01*
X6548999Y2789600D01*
X6550600Y2784899D01*
X6550600Y2770500D01*
X6550600Y2781700D02*
G01*
X6568100Y2792800D01*
D10*
X6359304Y3585398D02*
G01*
X6359304Y3542498D01*
X6345003Y3585398D02*
G01*
X6373603Y3585398D01*
X6387103Y3585398D02*
G01*
X6387103Y3542498D01*
X6387103Y3542498D02*
G01*
X6411704Y3542498D01*
X6425204Y3585398D02*
G01*
X6441504Y3542498D01*
X6457903Y3585398D02*
G01*
X6441504Y3542498D01*
X6471404Y3577197D02*
G01*
X6475504Y3579297D01*
X6481603Y3585398D01*
X6481603Y3542498D01*
X6495104Y3577197D02*
G01*
X6499204Y3579297D01*
X6505403Y3585398D01*
X6505403Y3542498D01*
X6518904Y3577197D02*
G01*
X6523004Y3579297D01*
X6529103Y3585398D01*
X6529103Y3542498D01*
X6571203Y3585398D02*
G01*
X6550803Y3542498D01*
X6542604Y3585398D02*
G01*
X6571203Y3585398D01*
X6584704Y3560898D02*
G01*
X6621504Y3560898D01*
X6639103Y3585398D02*
G01*
X6661603Y3585398D01*
X6649404Y3568998D01*
X6655504Y3568998D01*
X6659603Y3566997D01*
X6661603Y3564998D01*
X6663703Y3558798D01*
X6663703Y3554697D01*
X6661603Y3548598D01*
X6657503Y3544497D01*
X6651404Y3542498D01*
X6645303Y3542498D01*
X6639103Y3544497D01*
X6637103Y3546498D01*
X6635003Y3550598D01*
X6681304Y3585398D02*
G01*
X6703804Y3585398D01*
X6691504Y3568998D01*
X6697604Y3568998D01*
X6701704Y3566997D01*
X6703804Y3564998D01*
X6705803Y3558798D01*
X6705803Y3554697D01*
X6703804Y3548598D01*
X6699704Y3544497D01*
X6693504Y3542498D01*
X6687403Y3542498D01*
X6681304Y3544497D01*
X6679204Y3546498D01*
X6677204Y3550598D01*
X5595500Y695399D02*
G01*
X5575000Y666799D01*
X5605699Y666799D01*
X5595500Y695399D02*
G01*
X5595500Y652500D01*
X5647799Y695399D02*
G01*
X5627399Y652500D01*
X5619200Y695399D02*
G01*
X5647799Y695399D01*
X5673599Y695399D02*
G01*
X5667500Y693400D01*
X5663400Y687199D01*
X5661300Y676999D01*
X5661300Y670900D01*
X5663400Y660599D01*
X5667500Y654499D01*
X5673599Y652500D01*
X5677700Y652500D01*
X5683800Y654499D01*
X5687900Y660599D01*
X5690000Y670900D01*
X5690000Y676999D01*
X5687900Y687199D01*
X5683800Y693400D01*
X5677700Y695399D01*
X5673599Y695399D01*
X5703500Y681100D02*
G01*
X5703500Y660599D01*
X5705500Y654499D01*
X5709600Y652500D01*
X5715699Y652500D01*
X5719799Y654499D01*
X5726000Y660599D01*
X5726000Y681100D02*
G01*
X5726000Y652500D01*
X7255699Y3435200D02*
G01*
X7253599Y3439299D01*
X7249499Y3443400D01*
X7245500Y3445399D01*
X7237299Y3445399D01*
X7233199Y3443400D01*
X7229099Y3439299D01*
X7226999Y3435200D01*
X7225000Y3429000D01*
X7225000Y3418800D01*
X7226999Y3412700D01*
X7229099Y3408600D01*
X7233199Y3404499D01*
X7237299Y3402500D01*
X7245500Y3402500D01*
X7249499Y3404499D01*
X7253599Y3408600D01*
X7255699Y3412700D01*
X7285500Y3445399D02*
G01*
X7269200Y3402500D01*
X7285500Y3445399D02*
G01*
X7301899Y3402500D01*
X7275299Y3416799D02*
G01*
X7295799Y3416799D01*
X7315400Y3445399D02*
G01*
X7315400Y3402500D01*
X7315400Y3445399D02*
G01*
X7333800Y3445399D01*
X7340000Y3443400D01*
X7341999Y3441300D01*
X7343999Y3437199D01*
X7343999Y3433099D01*
X7341999Y3429000D01*
X7340000Y3426999D01*
X7333800Y3425000D01*
X7315400Y3425000D01*
X7329700Y3425000D02*
G01*
X7343999Y3402500D01*
X7357500Y3445399D02*
G01*
X7357500Y3402500D01*
X7357500Y3445399D02*
G01*
X7371899Y3445399D01*
X7378000Y3443400D01*
X7382100Y3439299D01*
X7384099Y3435200D01*
X7386199Y3429000D01*
X7386199Y3418800D01*
X7384099Y3412700D01*
X7382100Y3408600D01*
X7378000Y3404499D01*
X7371899Y3402500D01*
X7357500Y3402500D01*
X7399700Y3437199D02*
G01*
X7403800Y3439299D01*
X7409899Y3445399D01*
X7409899Y3402500D01*
X2610699Y554589D02*
G01*
X2606599Y552489D01*
X2604600Y546390D01*
X2604600Y542289D01*
X2606599Y536089D01*
X2612799Y532089D01*
X2623000Y529989D01*
X2633199Y529989D01*
X2641400Y532089D01*
X2645500Y536089D01*
X2647500Y542289D01*
X2647500Y544290D01*
X2645500Y550489D01*
X2641400Y554589D01*
X2635299Y556590D01*
X2633199Y556590D01*
X2627100Y554589D01*
X2623000Y550489D01*
X2621000Y544290D01*
X2621000Y542289D01*
X2623000Y536089D01*
X2627100Y532089D01*
X2633199Y529989D01*
X2637299Y572089D02*
G01*
X2639399Y570090D01*
X2641400Y572089D01*
X2639399Y574189D01*
X2637299Y572089D01*
X2612799Y587689D02*
G01*
X2610699Y591790D01*
X2604600Y597890D01*
X2647500Y597890D01*
X2604600Y631889D02*
G01*
X2633199Y611390D01*
X2633199Y642089D01*
X2604600Y631889D02*
G01*
X2647500Y631889D01*
X2604600Y676089D02*
G01*
X2633199Y655590D01*
X2633199Y686289D01*
X2604600Y676089D02*
G01*
X2647500Y676089D01*
X2604600Y699789D02*
G01*
X2647500Y699789D01*
X2604600Y699789D02*
G01*
X2647500Y716089D01*
X2604600Y732489D02*
G01*
X2647500Y716089D01*
X2604600Y732489D02*
G01*
X2647500Y732489D01*
X2604600Y745990D02*
G01*
X2647500Y745990D01*
X2604600Y774589D02*
G01*
X2647500Y774589D01*
X2625000Y745990D02*
G01*
X2625000Y774589D01*
X2618900Y810590D02*
G01*
X2647500Y788090D01*
X2618900Y788090D02*
G01*
X2618900Y810590D01*
X2647500Y788090D02*
G01*
X2647500Y810590D01*
D11*
X6626000Y3085000D02*
G01*
X6624499Y3088200D01*
X6619700Y3093000D01*
X6653100Y3093000D01*
X6619700Y3113000D02*
G01*
X6621300Y3108200D01*
X6626000Y3105000D01*
X6633999Y3103499D01*
X6638800Y3103499D01*
X6646700Y3105000D01*
X6651499Y3108200D01*
X6653100Y3113000D01*
X6653100Y3116199D01*
X6651499Y3120999D01*
X6646700Y3124099D01*
X6638800Y3125700D01*
X6633999Y3125700D01*
X6626000Y3124099D01*
X6621300Y3120999D01*
X6619700Y3116199D01*
X6619700Y3113000D01*
X6619700Y3136199D02*
G01*
X6653100Y3136199D01*
X6630799Y3152100D02*
G01*
X6646700Y3136199D01*
X6640400Y3142600D02*
G01*
X6653100Y3153699D01*
X6759700Y3094499D02*
G01*
X6761300Y3089800D01*
X6766000Y3086599D01*
X6773999Y3085000D01*
X6778800Y3085000D01*
X6786700Y3086599D01*
X6791499Y3089800D01*
X6793100Y3094499D01*
X6793100Y3097700D01*
X6791499Y3102500D01*
X6786700Y3105700D01*
X6778800Y3107300D01*
X6773999Y3107300D01*
X6766000Y3105700D01*
X6761300Y3102500D01*
X6759700Y3097700D01*
X6759700Y3094499D01*
X6785100Y3119400D02*
G01*
X6786700Y3117800D01*
X6788299Y3119400D01*
X6786700Y3120999D01*
X6785100Y3119400D01*
X6766000Y3131500D02*
G01*
X6764499Y3134600D01*
X6759700Y3139400D01*
X6793100Y3139400D01*
X6770799Y3149899D02*
G01*
X6786700Y3149899D01*
X6791499Y3151500D01*
X6793100Y3154699D01*
X6793100Y3159499D01*
X6791499Y3162600D01*
X6786700Y3167399D01*
X6770799Y3167399D02*
G01*
X6793100Y3167399D01*
X6339499Y3690300D02*
G01*
X6334799Y3688699D01*
X6331599Y3684000D01*
X6330000Y3675999D01*
X6330000Y3671199D01*
X6331599Y3663299D01*
X6334799Y3658499D01*
X6339499Y3656900D01*
X6342700Y3656900D01*
X6347500Y3658499D01*
X6350699Y3663299D01*
X6352299Y3671199D01*
X6352299Y3675999D01*
X6350699Y3684000D01*
X6347500Y3688699D01*
X6342700Y3690300D01*
X6339499Y3690300D01*
X6364399Y3664899D02*
G01*
X6362799Y3663299D01*
X6364399Y3661700D01*
X6366000Y3663299D01*
X6364399Y3664899D01*
X6376499Y3684000D02*
G01*
X6379600Y3685500D01*
X6384399Y3690300D01*
X6384399Y3656900D01*
X6394899Y3679200D02*
G01*
X6394899Y3663299D01*
X6396499Y3658499D01*
X6399700Y3656900D01*
X6404499Y3656900D01*
X6407600Y3658499D01*
X6412399Y3663299D01*
X6412399Y3679200D02*
G01*
X6412399Y3656900D01*
X6275500Y3154699D02*
G01*
X6280200Y3156300D01*
X6283400Y3160999D01*
X6285000Y3169000D01*
X6285000Y3173800D01*
X6283400Y3181700D01*
X6280200Y3186500D01*
X6275500Y3188099D01*
X6272299Y3188099D01*
X6267500Y3186500D01*
X6264300Y3181700D01*
X6262700Y3173800D01*
X6262700Y3169000D01*
X6264300Y3160999D01*
X6267500Y3156300D01*
X6272299Y3154699D01*
X6275500Y3154699D01*
X6250600Y3180100D02*
G01*
X6252200Y3181700D01*
X6250600Y3183299D01*
X6248999Y3181700D01*
X6250600Y3180100D01*
X6238500Y3160999D02*
G01*
X6235400Y3159499D01*
X6230600Y3154699D01*
X6230600Y3188099D01*
X6220100Y3165799D02*
G01*
X6220100Y3181700D01*
X6218500Y3186500D01*
X6215299Y3188099D01*
X6210500Y3188099D01*
X6207399Y3186500D01*
X6202600Y3181700D01*
X6202600Y3165799D02*
G01*
X6202600Y3188099D01*
X6795299Y3026799D02*
G01*
X6795299Y3009299D01*
X6782600Y3018899D01*
X6782600Y3014099D01*
X6781000Y3010900D01*
X6779399Y3009299D01*
X6774600Y3007700D01*
X6771499Y3007700D01*
X6766700Y3009299D01*
X6763500Y3012500D01*
X6761899Y3017300D01*
X6761899Y3021999D01*
X6763500Y3026799D01*
X6765100Y3028400D01*
X6768299Y3030000D01*
X6795299Y2997199D02*
G01*
X6761899Y2997199D01*
X6784200Y2981300D02*
G01*
X6768299Y2997199D01*
X6774600Y2990900D02*
G01*
X6761899Y2979699D01*
X6795299Y2965999D02*
G01*
X6795299Y2948499D01*
X6782600Y2958099D01*
X6782600Y2953299D01*
X6781000Y2950100D01*
X6779399Y2948499D01*
X6774600Y2946999D01*
X6771499Y2946999D01*
X6766700Y2948499D01*
X6763500Y2951700D01*
X6761899Y2956500D01*
X6761899Y2961300D01*
X6763500Y2965999D01*
X6765100Y2967600D01*
X6768299Y2969200D01*
X6870299Y2791799D02*
G01*
X6870299Y2774299D01*
X6857600Y2783899D01*
X6857600Y2779099D01*
X6856000Y2775900D01*
X6854399Y2774299D01*
X6849600Y2772700D01*
X6846499Y2772700D01*
X6841700Y2774299D01*
X6838500Y2777500D01*
X6836899Y2782300D01*
X6836899Y2786999D01*
X6838500Y2791799D01*
X6840100Y2793400D01*
X6843299Y2795000D01*
X6870299Y2762199D02*
G01*
X6836899Y2762199D01*
X6859200Y2746300D02*
G01*
X6843299Y2762199D01*
X6849600Y2755900D02*
G01*
X6836899Y2744699D01*
X6870299Y2730999D02*
G01*
X6870299Y2713499D01*
X6857600Y2723099D01*
X6857600Y2718299D01*
X6856000Y2715100D01*
X6854399Y2713499D01*
X6849600Y2711999D01*
X6846499Y2711999D01*
X6841700Y2713499D01*
X6838500Y2716700D01*
X6836899Y2721500D01*
X6836899Y2726300D01*
X6838500Y2730999D01*
X6840100Y2732600D01*
X6843299Y2734200D01*
X6765299Y2786799D02*
G01*
X6765299Y2769299D01*
X6752600Y2778899D01*
X6752600Y2774099D01*
X6751000Y2770900D01*
X6749399Y2769299D01*
X6744600Y2767700D01*
X6741499Y2767700D01*
X6736700Y2769299D01*
X6733500Y2772500D01*
X6731899Y2777300D01*
X6731899Y2781999D01*
X6733500Y2786799D01*
X6735100Y2788400D01*
X6738299Y2790000D01*
X6765299Y2757199D02*
G01*
X6731899Y2757199D01*
X6754200Y2741300D02*
G01*
X6738299Y2757199D01*
X6744600Y2750900D02*
G01*
X6731899Y2739699D01*
X6765299Y2725999D02*
G01*
X6765299Y2708499D01*
X6752600Y2718099D01*
X6752600Y2713299D01*
X6751000Y2710100D01*
X6749399Y2708499D01*
X6744600Y2706999D01*
X6741499Y2706999D01*
X6736700Y2708499D01*
X6733500Y2711700D01*
X6731899Y2716500D01*
X6731899Y2721300D01*
X6733500Y2725999D01*
X6735100Y2727600D01*
X6738299Y2729200D01*
X6665299Y2791799D02*
G01*
X6665299Y2774299D01*
X6652600Y2783899D01*
X6652600Y2779099D01*
X6651000Y2775900D01*
X6649399Y2774299D01*
X6644600Y2772700D01*
X6641499Y2772700D01*
X6636700Y2774299D01*
X6633500Y2777500D01*
X6631899Y2782300D01*
X6631899Y2786999D01*
X6633500Y2791799D01*
X6635100Y2793400D01*
X6638299Y2795000D01*
X6665299Y2762199D02*
G01*
X6631899Y2762199D01*
X6654200Y2746300D02*
G01*
X6638299Y2762199D01*
X6644600Y2755900D02*
G01*
X6631899Y2744699D01*
X6665299Y2730999D02*
G01*
X6665299Y2713499D01*
X6652600Y2723099D01*
X6652600Y2718299D01*
X6651000Y2715100D01*
X6649399Y2713499D01*
X6644600Y2711999D01*
X6641499Y2711999D01*
X6636700Y2713499D01*
X6633500Y2716700D01*
X6631899Y2721500D01*
X6631899Y2726300D01*
X6633500Y2730999D01*
X6635100Y2732600D01*
X6638299Y2734200D01*
D10*
X6255015Y105421D02*
G01*
X6255015Y62422D01*
X6255015Y105421D02*
G01*
X6273415Y105421D01*
X6279515Y103321D01*
X6281615Y101322D01*
X6283615Y97222D01*
X6283615Y91122D01*
X6281615Y87022D01*
X6279515Y84922D01*
X6273415Y82921D01*
X6255015Y82921D01*
X6317614Y105421D02*
G01*
X6317614Y72721D01*
X6315514Y66521D01*
X6313514Y64522D01*
X6309414Y62422D01*
X6305315Y62422D01*
X6301215Y64522D01*
X6299215Y66521D01*
X6297115Y72721D01*
X6297115Y76822D01*
X6331115Y80821D02*
G01*
X6367915Y80821D01*
X6381414Y97222D02*
G01*
X6385514Y99322D01*
X6391615Y105421D01*
X6391615Y62422D01*
X6417415Y105421D02*
G01*
X6411315Y103321D01*
X6407214Y97222D01*
X6405114Y87022D01*
X6405114Y80821D01*
X6407214Y70621D01*
X6411315Y64522D01*
X6417415Y62422D01*
X6421514Y62422D01*
X6427614Y64522D01*
X6431715Y70621D01*
X6433815Y80821D01*
X6433815Y87022D01*
X6431715Y97222D01*
X6427614Y103321D01*
X6421514Y105421D01*
X6417415Y105421D01*
X6449314Y95221D02*
G01*
X6449314Y97222D01*
X6451414Y101322D01*
X6453415Y103321D01*
X6457515Y105421D01*
X6465715Y105421D01*
X6469814Y103321D01*
X6471814Y101322D01*
X6473914Y97222D01*
X6473914Y93121D01*
X6471814Y89021D01*
X6467714Y82921D01*
X6447314Y62422D01*
X6475915Y62422D01*
X6505815Y105421D02*
G01*
X6489414Y62422D01*
X6505815Y105421D02*
G01*
X6522115Y62422D01*
X6495514Y76822D02*
G01*
X6516014Y76822D01*
X6535614Y105421D02*
G01*
X6535614Y62422D01*
X6564314Y105421D02*
G01*
X6564314Y62422D01*
X6535614Y84922D02*
G01*
X6564314Y84922D01*
X529600Y35000D02*
G01*
X572500Y35000D01*
X529600Y35000D02*
G01*
X529600Y53400D01*
X531599Y59499D01*
X533699Y61599D01*
X537800Y63600D01*
X543899Y63600D01*
X548000Y61599D01*
X550000Y59499D01*
X552100Y53400D01*
X552100Y35000D01*
X529600Y97600D02*
G01*
X562300Y97600D01*
X568499Y95500D01*
X570500Y93499D01*
X572500Y89400D01*
X572500Y85300D01*
X570500Y81199D01*
X568499Y79200D01*
X562300Y77100D01*
X558200Y77100D01*
X554099Y111100D02*
G01*
X554099Y147899D01*
X529600Y165500D02*
G01*
X529600Y188000D01*
X545999Y175700D01*
X545999Y181900D01*
X548000Y185999D01*
X550000Y188000D01*
X556199Y190000D01*
X560300Y190000D01*
X566399Y188000D01*
X570500Y183899D01*
X572500Y177800D01*
X572500Y171599D01*
X570500Y165500D01*
X568499Y163499D01*
X564400Y161399D01*
X539800Y205599D02*
G01*
X537800Y205599D01*
X533699Y207600D01*
X531599Y209699D01*
X529600Y213800D01*
X529600Y221999D01*
X531599Y225999D01*
X533699Y228099D01*
X537800Y230100D01*
X541900Y230100D01*
X545999Y228099D01*
X552100Y224000D01*
X572500Y203499D01*
X572500Y232199D01*
X529600Y266100D02*
G01*
X558200Y245700D01*
X558200Y276399D01*
X529600Y266100D02*
G01*
X572500Y266100D01*
X529600Y325500D02*
G01*
X529600Y348000D01*
X545999Y335700D01*
X545999Y341799D01*
X548000Y345900D01*
X550000Y348000D01*
X556199Y350000D01*
X560300Y350000D01*
X566399Y348000D01*
X570500Y343899D01*
X572500Y337699D01*
X572500Y331599D01*
X570500Y325500D01*
X568499Y323400D01*
X564400Y321399D01*
X562300Y365500D02*
G01*
X564400Y363499D01*
X566399Y365500D01*
X564400Y367600D01*
X562300Y365500D01*
X529600Y405599D02*
G01*
X529600Y385199D01*
X548000Y383099D01*
X545999Y385199D01*
X543899Y391300D01*
X543899Y397500D01*
X545999Y403600D01*
X550000Y407699D01*
X556199Y409699D01*
X560300Y409699D01*
X566399Y407699D01*
X570500Y403600D01*
X572500Y397500D01*
X572500Y391300D01*
X570500Y385199D01*
X568499Y383099D01*
X564400Y381100D01*
X543899Y423200D02*
G01*
X572500Y423200D01*
X552100Y423200D02*
G01*
X545999Y429400D01*
X543899Y433499D01*
X543899Y439600D01*
X545999Y443699D01*
X552100Y445700D01*
X572500Y445700D01*
X552100Y445700D02*
G01*
X545999Y451900D01*
X543899Y455999D01*
X543899Y462100D01*
X545999Y466199D01*
X552100Y468200D01*
X572500Y468200D01*
X543899Y481700D02*
G01*
X572500Y481700D01*
X552100Y481700D02*
G01*
X545999Y487899D01*
X543899Y491999D01*
X543899Y498099D01*
X545999Y502199D01*
X552100Y504200D01*
X572500Y504200D01*
X552100Y504200D02*
G01*
X545999Y510399D01*
X543899Y514499D01*
X543899Y520599D01*
X545999Y524699D01*
X552100Y526700D01*
X572500Y526700D01*
X2350000Y1312199D02*
G01*
X2354099Y1314299D01*
X2360200Y1320399D01*
X2360200Y1277500D01*
X2386000Y1320399D02*
G01*
X2379899Y1318400D01*
X2375799Y1312199D01*
X2373699Y1301999D01*
X2373699Y1295900D01*
X2375799Y1285599D01*
X2379899Y1279499D01*
X2386000Y1277500D01*
X2390100Y1277500D01*
X2396199Y1279499D01*
X2400299Y1285599D01*
X2402399Y1295900D01*
X2402399Y1301999D01*
X2400299Y1312199D01*
X2396199Y1318400D01*
X2390100Y1320399D01*
X2386000Y1320399D01*
X2428100Y1320399D02*
G01*
X2421999Y1318400D01*
X2417899Y1312199D01*
X2415900Y1301999D01*
X2415900Y1295900D01*
X2417899Y1285599D01*
X2421999Y1279499D01*
X2428100Y1277500D01*
X2432200Y1277500D01*
X2438400Y1279499D01*
X2442500Y1285599D01*
X2444499Y1295900D01*
X2444499Y1301999D01*
X2442500Y1312199D01*
X2438400Y1318400D01*
X2432200Y1320399D01*
X2428100Y1320399D01*
X2458000Y1306100D02*
G01*
X2458000Y1285599D01*
X2460000Y1279499D01*
X2464099Y1277500D01*
X2470299Y1277500D01*
X2474399Y1279499D01*
X2480500Y1285599D01*
X2480500Y1306100D02*
G01*
X2480500Y1277500D01*
X2493999Y1320399D02*
G01*
X2493999Y1277500D01*
X2493999Y1320399D02*
G01*
X2520600Y1320399D01*
X2493999Y1300000D02*
G01*
X2510399Y1300000D01*
X5430000Y260399D02*
G01*
X5430000Y217500D01*
X5430000Y260399D02*
G01*
X5448400Y260399D01*
X5454499Y258400D01*
X5456599Y256300D01*
X5458599Y252199D01*
X5458599Y248099D01*
X5456599Y244000D01*
X5454499Y241999D01*
X5448400Y240000D01*
X5430000Y240000D01*
X5444300Y240000D02*
G01*
X5458599Y217500D01*
X5502799Y250199D02*
G01*
X5500799Y254299D01*
X5496700Y258400D01*
X5492600Y260399D01*
X5484399Y260399D01*
X5480299Y258400D01*
X5476199Y254299D01*
X5474200Y250199D01*
X5472100Y244000D01*
X5472100Y233800D01*
X5474200Y227699D01*
X5476199Y223600D01*
X5480299Y219499D01*
X5484399Y217500D01*
X5492600Y217500D01*
X5496700Y219499D01*
X5500799Y223600D01*
X5502799Y227699D01*
X5532700Y260399D02*
G01*
X5516300Y217500D01*
X5532700Y260399D02*
G01*
X5548999Y217500D01*
X5522500Y231799D02*
G01*
X5542900Y231799D01*
X5562500Y203099D02*
G01*
X5599399Y203099D01*
X5643500Y250199D02*
G01*
X5641499Y254299D01*
X5637399Y258400D01*
X5633299Y260399D01*
X5625100Y260399D01*
X5621000Y258400D01*
X5616999Y254299D01*
X5614899Y250199D01*
X5612900Y244000D01*
X5612900Y233800D01*
X5614899Y227699D01*
X5616999Y223600D01*
X5621000Y219499D01*
X5625100Y217500D01*
X5633299Y217500D01*
X5637399Y219499D01*
X5641499Y223600D01*
X5643500Y227699D01*
X5656999Y260399D02*
G01*
X5656999Y217500D01*
X5656999Y260399D02*
G01*
X5675500Y260399D01*
X5681599Y258400D01*
X5683599Y256300D01*
X5685699Y252199D01*
X5685699Y248099D01*
X5683599Y244000D01*
X5681599Y241999D01*
X5675500Y240000D01*
X5656999Y240000D02*
G01*
X5675500Y240000D01*
X5681599Y237899D01*
X5683599Y235900D01*
X5685699Y231799D01*
X5685699Y225599D01*
X5683599Y221500D01*
X5681599Y219499D01*
X5675500Y217500D01*
X5656999Y217500D01*
X5699200Y260399D02*
G01*
X5699200Y217500D01*
X5699200Y260399D02*
G01*
X5717600Y260399D01*
X5723699Y258400D01*
X5725799Y256300D01*
X5727799Y252199D01*
X5727799Y246100D01*
X5725799Y241999D01*
X5723699Y240000D01*
X5717600Y237899D01*
X5699200Y237899D01*
X6524998Y662199D02*
G01*
X6529098Y664299D01*
X6535199Y670399D01*
X6535199Y627500D01*
X6560999Y670399D02*
G01*
X6554898Y668400D01*
X6550798Y662199D01*
X6548698Y651999D01*
X6548698Y645900D01*
X6550798Y635599D01*
X6554898Y629499D01*
X6560999Y627500D01*
X6565099Y627500D01*
X6571198Y629499D01*
X6575299Y635599D01*
X6577398Y645900D01*
X6577398Y651999D01*
X6575299Y662199D01*
X6571198Y668400D01*
X6565099Y670399D01*
X6560999Y670399D01*
X6603099Y670399D02*
G01*
X6596998Y668400D01*
X6592898Y662199D01*
X6590898Y651999D01*
X6590898Y645900D01*
X6592898Y635599D01*
X6596998Y629499D01*
X6603099Y627500D01*
X6607199Y627500D01*
X6613398Y629499D01*
X6617498Y635599D01*
X6619498Y645900D01*
X6619498Y651999D01*
X6617498Y662199D01*
X6613398Y668400D01*
X6607199Y670399D01*
X6603099Y670399D01*
X6632999Y656100D02*
G01*
X6632999Y635599D01*
X6634998Y629499D01*
X6639098Y627500D01*
X6645299Y627500D01*
X6649399Y629499D01*
X6655499Y635599D01*
X6655499Y656100D02*
G01*
X6655499Y627500D01*
X6668999Y670399D02*
G01*
X6668999Y627500D01*
X6668999Y670399D02*
G01*
X6695599Y670399D01*
X6668999Y650000D02*
G01*
X6685398Y650000D01*
X6192200Y3641770D02*
G01*
X6194300Y3637671D01*
X6200401Y3631570D01*
X6157501Y3631570D01*
X6200401Y3605770D02*
G01*
X6198401Y3611871D01*
X6192200Y3615970D01*
X6182001Y3618071D01*
X6175901Y3618071D01*
X6165600Y3615970D01*
X6159501Y3611871D01*
X6157501Y3605770D01*
X6157501Y3601671D01*
X6159501Y3595571D01*
X6165600Y3591471D01*
X6175901Y3589371D01*
X6182001Y3589371D01*
X6192200Y3591471D01*
X6198401Y3595571D01*
X6200401Y3601671D01*
X6200401Y3605770D01*
X6200401Y3563670D02*
G01*
X6198401Y3569771D01*
X6192200Y3573870D01*
X6182001Y3575871D01*
X6175901Y3575871D01*
X6165600Y3573870D01*
X6159501Y3569771D01*
X6157501Y3563670D01*
X6157501Y3559571D01*
X6159501Y3553371D01*
X6165600Y3549270D01*
X6175901Y3547271D01*
X6182001Y3547271D01*
X6192200Y3549270D01*
X6198401Y3553371D01*
X6200401Y3559571D01*
X6200401Y3563670D01*
X6186100Y3533771D02*
G01*
X6165600Y3533771D01*
X6159501Y3531770D01*
X6157501Y3527671D01*
X6157501Y3521471D01*
X6159501Y3517370D01*
X6165600Y3511271D01*
X6186100Y3511271D02*
G01*
X6157501Y3511271D01*
X6200401Y3497770D02*
G01*
X6157501Y3497770D01*
X6200401Y3497770D02*
G01*
X6200401Y3471170D01*
X6180001Y3497770D02*
G01*
X6180001Y3481370D01*
X1582799Y3584998D02*
G01*
X1580699Y3589099D01*
X1574600Y3595198D01*
X1617500Y3595198D01*
X1574600Y3620999D02*
G01*
X1576599Y3614899D01*
X1582799Y3610799D01*
X1593000Y3608699D01*
X1599099Y3608699D01*
X1609399Y3610799D01*
X1615500Y3614899D01*
X1617500Y3620999D01*
X1617500Y3625099D01*
X1615500Y3631199D01*
X1609399Y3635299D01*
X1599099Y3637399D01*
X1593000Y3637399D01*
X1582799Y3635299D01*
X1576599Y3631199D01*
X1574600Y3625099D01*
X1574600Y3620999D01*
X1574600Y3663099D02*
G01*
X1576599Y3656999D01*
X1582799Y3652899D01*
X1593000Y3650898D01*
X1599099Y3650898D01*
X1609399Y3652899D01*
X1615500Y3656999D01*
X1617500Y3663099D01*
X1617500Y3667199D01*
X1615500Y3673398D01*
X1609399Y3677498D01*
X1599099Y3679499D01*
X1593000Y3679499D01*
X1582799Y3677498D01*
X1576599Y3673398D01*
X1574600Y3667199D01*
X1574600Y3663099D01*
X1588900Y3692999D02*
G01*
X1609399Y3692999D01*
X1615500Y3694998D01*
X1617500Y3699099D01*
X1617500Y3705299D01*
X1615500Y3709398D01*
X1609399Y3715499D01*
X1588900Y3715499D02*
G01*
X1617500Y3715499D01*
X1574600Y3728998D02*
G01*
X1617500Y3728998D01*
X1574600Y3728998D02*
G01*
X1574600Y3755599D01*
X1595000Y3728998D02*
G01*
X1595000Y3745399D01*
M02*
