M48
INCH,LZ
;FILE_FORMAT=2:4
;TYPE=PLATED
;Layer: PTH_Through
;EasyEDA v6.5.39, 2024-02-04 18:14:41
;2f83d60dcc7a4208ae63cd86e36a5a3b,5509f98a9368439c9cde498926e245b9,10
;Gerber Generator version 0.2
;Holesize 1 = 0.0200 inch
T01C0.0200
;Holesize 2 = 0.0300 inch
T02C0.0300
;Holesize 3 = 0.0350 inch
T03C0.0350
;Holesize 4 = 0.0430 inch
T04C0.0430
;Holesize 5 = 0.0910 inch
T05C0.0910
%
G05
G90
T01
X014800Y005700
X004950Y006450
X004000Y008750
X005750Y009500
X005000Y008000
X009000Y008500
X007600Y008900
X012550Y005950
X001900Y008950
X003350Y008200
X003000Y005500
X003000Y001000
X003500Y011500
X019000Y004350
X024500Y002750
X022000Y006000
X027450Y007200
X001000Y011500
X001000Y002000
X028500Y001250
X028500Y012500
X028500Y004500
X013900Y002750
X014500Y008650
X010950Y008600
X008500Y005750
X003750Y003600
X024450Y009450
X015550Y005350
T02
X026500Y005000
X025500Y005000
X024500Y005000
X023500Y005000
X022500Y005000
X021500Y005000
X020500Y005000
X019500Y005000
X018500Y005000
X018500Y008000
X019500Y008000
X020500Y008000
X021500Y008000
X022500Y008000
X023500Y008000
X024500Y008000
X025500Y008000
X026500Y008000
X003000Y010500
X004000Y010500
X005000Y010500
X006000Y010500
X007000Y010500
X008000Y010500
X009001Y010500
X010000Y010500
X011000Y010500
X012000Y010500
X013000Y010500
X014000Y010500
X015000Y010500
X016000Y010500
X016000Y004500
X015000Y004500
X014000Y004500
X013000Y004500
X012000Y004500
X011000Y004500
X010000Y004500
X009000Y004500
X008000Y004500
X007000Y004500
X006000Y004500
X005000Y004500
X004000Y004500
X003000Y004500
T03
X010000Y001000
X005000Y001000
X006000Y001000
X007000Y001000
X008000Y001000
X009000Y001000
X011000Y001000
X012000Y001000
X013000Y001000
X014000Y001000
X018000Y001000
X019000Y001000
X020000Y001000
X021000Y001000
X022000Y001000
X023000Y001000
X024000Y001000
X025000Y001000
X001750Y003500
X001750Y004500
X001750Y005500
X024500Y003750
X025500Y003750
X013000Y003000
X012000Y003000
X011000Y003000
X010000Y003000
X009000Y003000
X008000Y003000
X007000Y003000
X006000Y003000
X005000Y003000
T04
X021800Y010750G85X021800Y010750
X022824Y010750G85X022824Y010750
X020973Y010750G85X020973Y010750
X023650Y010750G85X023650Y010750
X020973Y009766G85X020973Y009766
X023650Y009766G85X023650Y009766
T05
X019654Y011931G85X019654Y011931
X022312Y012246G85X022312Y012246
X024969Y011931G85X024969Y011931
M30
