M48
INCH,LZ
;FILE_FORMAT=2:4
;TYPE=PLATED
;Layer: PTH_Through_Via
;EasyEDA v6.5.39, 2024-02-04 18:14:41
;2f83d60dcc7a4208ae63cd86e36a5a3b,5509f98a9368439c9cde498926e245b9,10
;Gerber Generator version 0.2
;Holesize 1 = 0.0200 inch
T01C0.0200
%
G05
G90
T01
X014800Y005700
X004950Y006450
X004000Y008750
X005750Y009500
X005000Y008000
X009000Y008500
X007600Y008900
X012550Y005950
X001900Y008950
X003350Y008200
X003000Y005500
X003000Y001000
X003500Y011500
X019000Y004350
X024500Y002750
X022000Y006000
X027450Y007200
X001000Y011500
X001000Y002000
X028500Y001250
X028500Y012500
X028500Y004500
X013900Y002750
X014500Y008650
X010950Y008600
X008500Y005750
X003750Y003600
X024450Y009450
X015550Y005350
M30
