G04 Layer: TopPasteMaskLayer*
G04 EasyEDA v6.5.39, 2024-02-04 18:14:41*
G04 2f83d60dcc7a4208ae63cd86e36a5a3b,5509f98a9368439c9cde498926e245b9,10*
G04 Gerber Generator version 0.2*
G04 Scale: 100 percent, Rotated: No, Reflected: No *
G04 Dimensions in inches *
G04 leading zeros omitted , absolute positions ,3 integer and 6 decimal *
%FSLAX36Y36*%
%MOIN*%

%AMMACRO1*21,1,$1,$2,0,0,$3*%
%ADD10R,0.0532X0.0555*%
%ADD11MACRO1,0.0532X0.0555X0.0000*%

%LPD*%
G36*
X1500600Y310940D02*
G01*
X1498620Y308980D01*
X1498620Y263700D01*
X1500600Y261740D01*
X1517120Y261920D01*
X1517120Y279260D01*
X1534840Y279260D01*
X1534840Y261540D01*
X1550980Y261740D01*
X1552960Y263700D01*
X1552960Y308980D01*
X1550980Y310940D01*
G37*
G36*
X1500600Y226300D02*
G01*
X1498620Y224340D01*
X1498620Y179060D01*
X1500600Y177079D01*
X1550980Y177079D01*
X1552960Y179060D01*
X1552960Y224340D01*
X1550980Y226300D01*
X1534840Y226100D01*
X1534840Y208780D01*
X1517120Y208780D01*
X1517120Y226300D01*
G37*
G36*
X350600Y310940D02*
G01*
X348620Y308980D01*
X348620Y263700D01*
X350600Y261740D01*
X367120Y261920D01*
X367120Y279260D01*
X384840Y279260D01*
X384840Y261540D01*
X400980Y261740D01*
X402960Y263700D01*
X402960Y308980D01*
X400980Y310940D01*
G37*
G36*
X350600Y226300D02*
G01*
X348620Y224340D01*
X348620Y179060D01*
X350600Y177079D01*
X400980Y177079D01*
X402960Y179060D01*
X402960Y224340D01*
X400980Y226300D01*
X384840Y226100D01*
X384840Y208780D01*
X367120Y208780D01*
X367120Y226300D01*
G37*
G36*
X180159Y993460D02*
G01*
X164020Y993259D01*
X162040Y991300D01*
X162040Y946020D01*
X164020Y944060D01*
X214400Y944060D01*
X216380Y946020D01*
X216380Y991300D01*
X214400Y993259D01*
X197880Y993080D01*
X197880Y975740D01*
X180159Y975740D01*
G37*
G36*
X164020Y1077920D02*
G01*
X162040Y1075940D01*
X162040Y1030660D01*
X164020Y1028700D01*
X180159Y1028900D01*
X180159Y1046220D01*
X197880Y1046220D01*
X197880Y1028700D01*
X214400Y1028700D01*
X216380Y1030660D01*
X216380Y1075940D01*
X214400Y1077920D01*
G37*
G36*
X2313700Y426380D02*
G01*
X2311740Y424400D01*
X2311920Y407879D01*
X2329260Y407879D01*
X2329260Y390160D01*
X2311540Y390160D01*
X2311740Y374020D01*
X2313700Y372040D01*
X2358980Y372040D01*
X2360940Y374020D01*
X2360940Y424400D01*
X2358980Y426380D01*
G37*
G36*
X2229060Y426380D02*
G01*
X2227080Y424400D01*
X2227080Y374020D01*
X2229060Y372040D01*
X2274340Y372040D01*
X2276300Y374020D01*
X2276100Y390160D01*
X2258780Y390160D01*
X2258780Y407879D01*
X2276300Y407879D01*
X2276300Y424400D01*
X2274340Y426380D01*
G37*
D10*
G01*
X2650000Y1039369D03*
D11*
G01*
X2650005Y960625D03*
D10*
G01*
X2750000Y1039369D03*
D11*
G01*
X2750005Y960625D03*
M02*
