G04 Layer: TopSolderMaskLayer*
G04 EasyEDA v6.5.39, 2024-02-04 18:14:41*
G04 2f83d60dcc7a4208ae63cd86e36a5a3b,5509f98a9368439c9cde498926e245b9,10*
G04 Gerber Generator version 0.2*
G04 Scale: 100 percent, Rotated: No, Reflected: No *
G04 Dimensions in inches *
G04 leading zeros omitted , absolute positions ,3 integer and 6 decimal *
%FSLAX36Y36*%
%MOIN*%

%AMMACRO1*1,1,$1,$2,$3*1,1,$1,$4,$5*1,1,$1,0-$2,0-$3*1,1,$1,0-$4,0-$5*20,1,$1,$2,$3,$4,$5,0*20,1,$1,$4,$5,0-$2,0-$3,0*20,1,$1,0-$2,0-$3,0-$4,0-$5,0*20,1,$1,0-$4,0-$5,$2,$3,0*4,1,4,$2,$3,$4,$5,0-$2,0-$3,0-$4,0-$5,$2,$3,0*%
%ADD10C,0.0660*%
%ADD11MACRO1,0.004X-0.031X0.031X0.031X0.031*%
%ADD12MACRO1,0.004X0.031X0.031X0.031X-0.031*%
%ADD13MACRO1,0.004X-0.0266X0.0278X0.0266X0.0278*%
%ADD14MACRO1,0.004X-0.0266X-0.0278X0.0266X-0.0278*%
%ADD15R,0.0572X0.0595*%
%ADD16MACRO1,0.004X0.0278X0.0266X0.0278X-0.0266*%
%ADD17MACRO1,0.004X-0.0278X0.0266X-0.0278X-0.0266*%
%ADD18C,0.0690*%
%ADD19C,0.1398*%
%ADD20MACRO1,0.004X0.031X-0.0315X-0.031X-0.0315*%

%LPD*%
D10*
G01*
X2650000Y500000D03*
G01*
X2550000Y500000D03*
G01*
X2450000Y500000D03*
G01*
X2350000Y500000D03*
G01*
X2250000Y500000D03*
G01*
X2150000Y500000D03*
G01*
X2050000Y500000D03*
G01*
X1950000Y500000D03*
G01*
X1850000Y500000D03*
G01*
X1850000Y800000D03*
G01*
X1950000Y800000D03*
G01*
X2050000Y800000D03*
G01*
X2150000Y800000D03*
G01*
X2250000Y800000D03*
G01*
X2350000Y800000D03*
G01*
X2450000Y800000D03*
G01*
X2550000Y800000D03*
G01*
X2650000Y800000D03*
G01*
X300000Y1050000D03*
G01*
X400000Y1050000D03*
G01*
X500000Y1050000D03*
G01*
X600000Y1050000D03*
G01*
X700000Y1050000D03*
G01*
X800000Y1050000D03*
G01*
X900060Y1050000D03*
G01*
X1000000Y1050000D03*
G01*
X1100000Y1050000D03*
G01*
X1200000Y1050000D03*
G01*
X1300000Y1050000D03*
G01*
X1400000Y1050000D03*
G01*
X1500000Y1050000D03*
G01*
X1600000Y1050000D03*
G01*
X1600000Y450000D03*
G01*
X1500000Y450000D03*
G01*
X1400000Y450000D03*
G01*
X1300000Y450000D03*
G01*
X1200000Y450000D03*
G01*
X1100000Y450000D03*
G01*
X1000000Y450000D03*
G01*
X900000Y450000D03*
G01*
X800000Y450000D03*
G01*
X700000Y450000D03*
G01*
X600000Y450000D03*
G01*
X500000Y450000D03*
G01*
X400000Y450000D03*
G01*
X300000Y450000D03*
G01*
X1000000Y100000D03*
D11*
G01*
X500000Y100000D03*
D10*
G01*
X600000Y100000D03*
G01*
X700000Y100000D03*
G01*
X800000Y100000D03*
G01*
X900000Y100000D03*
G01*
X1100000Y100000D03*
G01*
X1200000Y100000D03*
G01*
X1300000Y100000D03*
G01*
X1400000Y100000D03*
D11*
G01*
X1800000Y100000D03*
D10*
G01*
X1900000Y100000D03*
G01*
X2000000Y100000D03*
G01*
X2100000Y100000D03*
G01*
X2200000Y100000D03*
G01*
X2300000Y100000D03*
G01*
X2400000Y100000D03*
G01*
X2500000Y100000D03*
G01*
X175000Y350000D03*
G01*
X175000Y450000D03*
D12*
G01*
X175000Y550000D03*
D13*
G01*
X1525000Y205628D03*
D14*
G01*
X1525000Y284371D03*
D13*
G01*
X375000Y205628D03*
D14*
G01*
X375000Y284371D03*
D15*
G01*
X190000Y1049369D03*
G01*
X190000Y970630D03*
D16*
G01*
X2255628Y400000D03*
D17*
G01*
X2334371Y400000D03*
D18*
G01*
X2180000Y1075000D03*
G01*
X2282359Y1075000D03*
G01*
X2097319Y1075000D03*
G01*
X2365039Y1075000D03*
G01*
X2097319Y976579D03*
G01*
X2365039Y976579D03*
D19*
G01*
X1965429Y1193110D03*
G01*
X2231180Y1224609D03*
G01*
X2496930Y1193110D03*
D11*
G01*
X2450000Y375000D03*
D10*
G01*
X2550000Y375000D03*
D14*
G01*
X2650000Y1039371D03*
D13*
G01*
X2650000Y960628D03*
D14*
G01*
X2750000Y1039371D03*
D13*
G01*
X2750000Y960628D03*
D20*
G01*
X1300000Y300000D03*
D10*
G01*
X1200000Y300000D03*
G01*
X1100000Y300000D03*
G01*
X1000000Y300000D03*
G01*
X900000Y300000D03*
G01*
X800000Y300000D03*
G01*
X700000Y300000D03*
G01*
X600000Y300000D03*
G01*
X500000Y300000D03*
M02*
