G04 Layer: BottomLayer*
G04 EasyEDA v6.5.39, 2024-02-04 18:14:41*
G04 2f83d60dcc7a4208ae63cd86e36a5a3b,5509f98a9368439c9cde498926e245b9,10*
G04 Gerber Generator version 0.2*
G04 Scale: 100 percent, Rotated: No, Reflected: No *
G04 Dimensions in inches *
G04 leading zeros omitted , absolute positions ,3 integer and 6 decimal *
%FSLAX36Y36*%
%MOIN*%

%ADD10C,0.0120*%
%ADD11C,0.0500*%
%ADD12C,0.0620*%
%ADD13R,0.0620X0.0620*%
%ADD14C,0.0650*%
%ADD15C,0.1358*%
%ADD16R,0.0620X0.0630*%
%ADD17R,0.0146X0.0630*%

%LPD*%
G36*
X14200Y10200D02*
G01*
X12660Y10500D01*
X11379Y11379D01*
X10500Y12660D01*
X10200Y14200D01*
X10200Y1363740D01*
X10500Y1365280D01*
X11379Y1366579D01*
X12660Y1367440D01*
X14200Y1367740D01*
X2977919Y1367740D01*
X2979440Y1367440D01*
X2980740Y1366579D01*
X2981620Y1365280D01*
X2981920Y1363740D01*
X2981920Y14200D01*
X2981620Y12660D01*
X2980740Y11379D01*
X2979440Y10500D01*
X2977919Y10200D01*
G37*

%LPC*%
G36*
X469200Y56800D02*
G01*
X494000Y56800D01*
X494000Y94000D01*
X456800Y94000D01*
X456800Y69200D01*
X457060Y66620D01*
X457740Y64340D01*
X458880Y62240D01*
X460379Y60380D01*
X462239Y58880D01*
X464340Y57740D01*
X466620Y57060D01*
G37*
G36*
X506000Y56800D02*
G01*
X530800Y56800D01*
X533380Y57060D01*
X535660Y57740D01*
X537760Y58880D01*
X539620Y60380D01*
X541120Y62240D01*
X542260Y64340D01*
X542940Y66620D01*
X543200Y69200D01*
X543200Y94000D01*
X506000Y94000D01*
G37*
G36*
X1769199Y56800D02*
G01*
X1830800Y56800D01*
X1833380Y57060D01*
X1835660Y57740D01*
X1837760Y58880D01*
X1839620Y60380D01*
X1841120Y62240D01*
X1842260Y64340D01*
X1842940Y66620D01*
X1843200Y69200D01*
X1843200Y121400D01*
X1843500Y122940D01*
X1844379Y124240D01*
X1845660Y125100D01*
X1847200Y125399D01*
X1848740Y125100D01*
X1850020Y124240D01*
X1853280Y120980D01*
X1854060Y119880D01*
X1854440Y118600D01*
X1856940Y96720D01*
X1857600Y91760D01*
X1859000Y86380D01*
X1861080Y81260D01*
X1863800Y76440D01*
X1867120Y72000D01*
X1870960Y68020D01*
X1875280Y64580D01*
X1880020Y61700D01*
X1885080Y59460D01*
X1890380Y57900D01*
X1895860Y57000D01*
X1901380Y56840D01*
X1906900Y57360D01*
X1912280Y58600D01*
X1917480Y60500D01*
X1922400Y63060D01*
X1926920Y66240D01*
X1931020Y69960D01*
X1934620Y74160D01*
X1937640Y78800D01*
X1940040Y83800D01*
X1941780Y89040D01*
X1942840Y94480D01*
X1943200Y100000D01*
X1942840Y105520D01*
X1941780Y110960D01*
X1940040Y116199D01*
X1937640Y121199D01*
X1934620Y125840D01*
X1931020Y130040D01*
X1926920Y133760D01*
X1922400Y136940D01*
X1917480Y139500D01*
X1912280Y141400D01*
X1906900Y142640D01*
X1881399Y145560D01*
X1880120Y145940D01*
X1879019Y146720D01*
X1840760Y184980D01*
X1839900Y186260D01*
X1839600Y187800D01*
X1839900Y189340D01*
X1840760Y190620D01*
X1842060Y191500D01*
X1843600Y191800D01*
X1880800Y191800D01*
X1882340Y191500D01*
X1883640Y190620D01*
X1953280Y120980D01*
X1954060Y119880D01*
X1954440Y118600D01*
X1956940Y96720D01*
X1957600Y91760D01*
X1959000Y86380D01*
X1961080Y81260D01*
X1963800Y76440D01*
X1967120Y72000D01*
X1970960Y68020D01*
X1975280Y64580D01*
X1980020Y61700D01*
X1985080Y59460D01*
X1990380Y57900D01*
X1995860Y57000D01*
X2001380Y56840D01*
X2006900Y57360D01*
X2012280Y58600D01*
X2017480Y60500D01*
X2022400Y63060D01*
X2026920Y66240D01*
X2031020Y69960D01*
X2034620Y74160D01*
X2037640Y78800D01*
X2040040Y83800D01*
X2041780Y89040D01*
X2042840Y94480D01*
X2043200Y100000D01*
X2042840Y105520D01*
X2041780Y110960D01*
X2040040Y116199D01*
X2037640Y121199D01*
X2034620Y125840D01*
X2031020Y130040D01*
X2026920Y133760D01*
X2022400Y136940D01*
X2017480Y139500D01*
X2012280Y141400D01*
X2006900Y142640D01*
X1981399Y145560D01*
X1980120Y145940D01*
X1979019Y146720D01*
X1905760Y219980D01*
X1904900Y221260D01*
X1904600Y222800D01*
X1904900Y224340D01*
X1905760Y225620D01*
X1907060Y226500D01*
X1908600Y226800D01*
X1945800Y226800D01*
X1947340Y226500D01*
X1948640Y225620D01*
X2053280Y120980D01*
X2054060Y119880D01*
X2054440Y118600D01*
X2056940Y96720D01*
X2057600Y91760D01*
X2059000Y86380D01*
X2061080Y81260D01*
X2063800Y76440D01*
X2067120Y72000D01*
X2070960Y68020D01*
X2075280Y64580D01*
X2080020Y61700D01*
X2085080Y59460D01*
X2090380Y57900D01*
X2095860Y57000D01*
X2101380Y56840D01*
X2106900Y57360D01*
X2112280Y58600D01*
X2117480Y60500D01*
X2122400Y63060D01*
X2126920Y66240D01*
X2131020Y69960D01*
X2134620Y74160D01*
X2137640Y78800D01*
X2140040Y83800D01*
X2141780Y89040D01*
X2142840Y94480D01*
X2143200Y100000D01*
X2142840Y105520D01*
X2141780Y110960D01*
X2140040Y116199D01*
X2137640Y121199D01*
X2134620Y125840D01*
X2131020Y130040D01*
X2126920Y133760D01*
X2122400Y136940D01*
X2117480Y139500D01*
X2112280Y141400D01*
X2106900Y142640D01*
X2081399Y145560D01*
X2080120Y145940D01*
X2079019Y146720D01*
X1970760Y254980D01*
X1969900Y256260D01*
X1969600Y257800D01*
X1969900Y259340D01*
X1970760Y260620D01*
X1972060Y261500D01*
X1973600Y261800D01*
X2010800Y261800D01*
X2012340Y261500D01*
X2013640Y260620D01*
X2153280Y120980D01*
X2154060Y119880D01*
X2154440Y118600D01*
X2156940Y96720D01*
X2157600Y91760D01*
X2159000Y86380D01*
X2161080Y81260D01*
X2163800Y76440D01*
X2167120Y72000D01*
X2170960Y68020D01*
X2175280Y64580D01*
X2180020Y61700D01*
X2185080Y59460D01*
X2190380Y57900D01*
X2195860Y57000D01*
X2201380Y56840D01*
X2206900Y57360D01*
X2212280Y58600D01*
X2217480Y60500D01*
X2222400Y63060D01*
X2226920Y66240D01*
X2231020Y69960D01*
X2234620Y74160D01*
X2237640Y78800D01*
X2240040Y83800D01*
X2241780Y89040D01*
X2242840Y94480D01*
X2243200Y100000D01*
X2242840Y105520D01*
X2241780Y110960D01*
X2240040Y116199D01*
X2237640Y121199D01*
X2234620Y125840D01*
X2231020Y130040D01*
X2226920Y133760D01*
X2222400Y136940D01*
X2217480Y139500D01*
X2212280Y141400D01*
X2206900Y142640D01*
X2181400Y145560D01*
X2180120Y145940D01*
X2179020Y146720D01*
X2035760Y289980D01*
X2034900Y291260D01*
X2034600Y292800D01*
X2034900Y294340D01*
X2035760Y295620D01*
X2037060Y296500D01*
X2038600Y296800D01*
X2075800Y296800D01*
X2077340Y296500D01*
X2078640Y295620D01*
X2253280Y120980D01*
X2254060Y119880D01*
X2254440Y118600D01*
X2256940Y96720D01*
X2257600Y91760D01*
X2259000Y86380D01*
X2261080Y81260D01*
X2263800Y76440D01*
X2267120Y72000D01*
X2270960Y68020D01*
X2275280Y64580D01*
X2280020Y61700D01*
X2285080Y59460D01*
X2290380Y57900D01*
X2295860Y57000D01*
X2301380Y56840D01*
X2306900Y57360D01*
X2312280Y58600D01*
X2317480Y60500D01*
X2322400Y63060D01*
X2326920Y66240D01*
X2331020Y69960D01*
X2334620Y74160D01*
X2337640Y78800D01*
X2340040Y83800D01*
X2341780Y89040D01*
X2342840Y94480D01*
X2343200Y100000D01*
X2342840Y105520D01*
X2341780Y110960D01*
X2340040Y116199D01*
X2337640Y121199D01*
X2334620Y125840D01*
X2331020Y130040D01*
X2326920Y133760D01*
X2322400Y136940D01*
X2317480Y139500D01*
X2312280Y141400D01*
X2306900Y142640D01*
X2281400Y145560D01*
X2280120Y145940D01*
X2279020Y146720D01*
X2100760Y324980D01*
X2099900Y326260D01*
X2099600Y327800D01*
X2099900Y329340D01*
X2100760Y330620D01*
X2102060Y331500D01*
X2103600Y331800D01*
X2140800Y331800D01*
X2142340Y331500D01*
X2143640Y330620D01*
X2353280Y120980D01*
X2354060Y119880D01*
X2354440Y118600D01*
X2356940Y96720D01*
X2357600Y91760D01*
X2359000Y86380D01*
X2361080Y81260D01*
X2363800Y76440D01*
X2367120Y72000D01*
X2370960Y68020D01*
X2375280Y64580D01*
X2380020Y61700D01*
X2385080Y59460D01*
X2390380Y57900D01*
X2395860Y57000D01*
X2401380Y56840D01*
X2406900Y57360D01*
X2412280Y58600D01*
X2417480Y60500D01*
X2422400Y63060D01*
X2426920Y66240D01*
X2431020Y69960D01*
X2434620Y74160D01*
X2437640Y78800D01*
X2440040Y83800D01*
X2441780Y89040D01*
X2442840Y94480D01*
X2443200Y100000D01*
X2442840Y105520D01*
X2441780Y110960D01*
X2440040Y116199D01*
X2437640Y121199D01*
X2434620Y125840D01*
X2431020Y130040D01*
X2426920Y133760D01*
X2422400Y136940D01*
X2417480Y139500D01*
X2412280Y141400D01*
X2406900Y142640D01*
X2381400Y145560D01*
X2380120Y145940D01*
X2379020Y146720D01*
X2165760Y359980D01*
X2164900Y361260D01*
X2164600Y362800D01*
X2164900Y364340D01*
X2165760Y365620D01*
X2167060Y366500D01*
X2168600Y366800D01*
X2205800Y366800D01*
X2207340Y366500D01*
X2208640Y365620D01*
X2453280Y120980D01*
X2454060Y119880D01*
X2454440Y118600D01*
X2456940Y96720D01*
X2457600Y91760D01*
X2459000Y86380D01*
X2461080Y81260D01*
X2463800Y76440D01*
X2467120Y72000D01*
X2470960Y68020D01*
X2475280Y64580D01*
X2480020Y61700D01*
X2485080Y59460D01*
X2490380Y57900D01*
X2495860Y57000D01*
X2501380Y56840D01*
X2506900Y57360D01*
X2512280Y58600D01*
X2517480Y60500D01*
X2522400Y63060D01*
X2526920Y66240D01*
X2531020Y69960D01*
X2534620Y74160D01*
X2537640Y78800D01*
X2540040Y83800D01*
X2541780Y89040D01*
X2542840Y94480D01*
X2543200Y100000D01*
X2542840Y105520D01*
X2541780Y110960D01*
X2540040Y116199D01*
X2537640Y121199D01*
X2534620Y125840D01*
X2531020Y130040D01*
X2526920Y133760D01*
X2522400Y136940D01*
X2517480Y139500D01*
X2512280Y141400D01*
X2506900Y142640D01*
X2481400Y145560D01*
X2480120Y145940D01*
X2479020Y146720D01*
X2227360Y398360D01*
X2224580Y400460D01*
X2221560Y401960D01*
X2218340Y402879D01*
X2214820Y403200D01*
X1864199Y403200D01*
X1862660Y403500D01*
X1861360Y404380D01*
X1789379Y476360D01*
X1788500Y477660D01*
X1788200Y479200D01*
X1788180Y1121400D01*
X1787700Y1124860D01*
X1786639Y1128040D01*
X1785000Y1130980D01*
X1782740Y1133700D01*
X1703060Y1213360D01*
X1700280Y1215460D01*
X1697260Y1216960D01*
X1694040Y1217880D01*
X1690520Y1218200D01*
X1349300Y1218180D01*
X1345840Y1217700D01*
X1342660Y1216640D01*
X1339720Y1215000D01*
X1337000Y1212740D01*
X1220980Y1096720D01*
X1219880Y1095940D01*
X1218600Y1095560D01*
X1194540Y1092860D01*
X1189040Y1091780D01*
X1183800Y1090040D01*
X1178800Y1087640D01*
X1174160Y1084620D01*
X1169960Y1081020D01*
X1166240Y1076940D01*
X1163060Y1072400D01*
X1160500Y1067480D01*
X1158600Y1062300D01*
X1157360Y1056900D01*
X1156840Y1051380D01*
X1157000Y1045860D01*
X1157900Y1040380D01*
X1159460Y1035080D01*
X1161700Y1030020D01*
X1164580Y1025300D01*
X1168020Y1020960D01*
X1172000Y1017120D01*
X1176440Y1013800D01*
X1181260Y1011080D01*
X1186380Y1009000D01*
X1191740Y1007600D01*
X1197240Y1006900D01*
X1202760Y1006900D01*
X1208260Y1007600D01*
X1213620Y1009000D01*
X1218740Y1011080D01*
X1223560Y1013800D01*
X1228000Y1017120D01*
X1231980Y1020960D01*
X1235420Y1025300D01*
X1238300Y1030020D01*
X1240540Y1035080D01*
X1242100Y1040380D01*
X1243000Y1045920D01*
X1245560Y1068600D01*
X1245940Y1069880D01*
X1246720Y1070980D01*
X1356360Y1180620D01*
X1357660Y1181500D01*
X1359199Y1181800D01*
X1396399Y1181800D01*
X1397940Y1181500D01*
X1399240Y1180620D01*
X1400100Y1179340D01*
X1400400Y1177800D01*
X1400100Y1176260D01*
X1399240Y1174980D01*
X1320980Y1096720D01*
X1319880Y1095940D01*
X1318600Y1095560D01*
X1294540Y1092860D01*
X1289040Y1091780D01*
X1283800Y1090040D01*
X1278800Y1087640D01*
X1274160Y1084620D01*
X1269960Y1081020D01*
X1266240Y1076940D01*
X1263060Y1072400D01*
X1260500Y1067480D01*
X1258600Y1062300D01*
X1257360Y1056900D01*
X1256840Y1051380D01*
X1257000Y1045860D01*
X1257900Y1040380D01*
X1259460Y1035080D01*
X1261700Y1030020D01*
X1264580Y1025300D01*
X1268020Y1020960D01*
X1272000Y1017120D01*
X1276440Y1013800D01*
X1281260Y1011080D01*
X1286380Y1009000D01*
X1291740Y1007600D01*
X1297240Y1006900D01*
X1302760Y1006900D01*
X1308260Y1007600D01*
X1313620Y1009000D01*
X1318740Y1011080D01*
X1323560Y1013800D01*
X1328000Y1017120D01*
X1331980Y1020960D01*
X1335420Y1025300D01*
X1338300Y1030020D01*
X1340540Y1035080D01*
X1342100Y1040380D01*
X1343000Y1045920D01*
X1345560Y1068600D01*
X1345940Y1069880D01*
X1346720Y1070980D01*
X1431360Y1155620D01*
X1432660Y1156500D01*
X1434199Y1156800D01*
X1471399Y1156800D01*
X1472940Y1156500D01*
X1474240Y1155620D01*
X1475100Y1154340D01*
X1475400Y1152800D01*
X1475100Y1151260D01*
X1474240Y1149980D01*
X1420980Y1096720D01*
X1419880Y1095940D01*
X1418600Y1095560D01*
X1394540Y1092860D01*
X1389040Y1091780D01*
X1383800Y1090040D01*
X1378800Y1087640D01*
X1374160Y1084620D01*
X1369960Y1081020D01*
X1366240Y1076940D01*
X1363060Y1072400D01*
X1360500Y1067480D01*
X1358600Y1062300D01*
X1357360Y1056900D01*
X1356840Y1051380D01*
X1357000Y1045860D01*
X1357900Y1040380D01*
X1359460Y1035080D01*
X1361699Y1030020D01*
X1364580Y1025300D01*
X1368020Y1020960D01*
X1372000Y1017120D01*
X1376440Y1013800D01*
X1381260Y1011080D01*
X1386380Y1009000D01*
X1391740Y1007600D01*
X1397240Y1006900D01*
X1402760Y1006900D01*
X1408260Y1007600D01*
X1413620Y1009000D01*
X1418740Y1011080D01*
X1423560Y1013800D01*
X1428000Y1017120D01*
X1431980Y1020960D01*
X1435420Y1025300D01*
X1438300Y1030020D01*
X1440540Y1035080D01*
X1442100Y1040380D01*
X1443000Y1045920D01*
X1445560Y1068600D01*
X1445940Y1069880D01*
X1446720Y1070980D01*
X1506360Y1130620D01*
X1507660Y1131500D01*
X1509199Y1131800D01*
X1521399Y1131800D01*
X1522940Y1131500D01*
X1524240Y1130620D01*
X1525100Y1129340D01*
X1525400Y1127800D01*
X1525100Y1126260D01*
X1524240Y1124980D01*
X1501060Y1101780D01*
X1500360Y1101240D01*
X1474160Y1084620D01*
X1469960Y1081020D01*
X1466240Y1076940D01*
X1463060Y1072400D01*
X1460500Y1067480D01*
X1458600Y1062300D01*
X1457360Y1056900D01*
X1456840Y1051380D01*
X1457000Y1045860D01*
X1457900Y1040380D01*
X1459460Y1035080D01*
X1461699Y1030020D01*
X1464580Y1025300D01*
X1468020Y1020960D01*
X1472000Y1017120D01*
X1476440Y1013800D01*
X1481260Y1011080D01*
X1486380Y1009000D01*
X1491740Y1007600D01*
X1497240Y1006900D01*
X1502760Y1006900D01*
X1508260Y1007600D01*
X1513620Y1009000D01*
X1518740Y1011080D01*
X1523560Y1013800D01*
X1528000Y1017120D01*
X1531980Y1020960D01*
X1535420Y1025300D01*
X1538300Y1030020D01*
X1540540Y1035080D01*
X1542100Y1040380D01*
X1543000Y1045860D01*
X1543160Y1051380D01*
X1542640Y1056900D01*
X1541399Y1062340D01*
X1540560Y1064820D01*
X1535360Y1081580D01*
X1535180Y1083020D01*
X1535520Y1084420D01*
X1536339Y1085600D01*
X1556360Y1105620D01*
X1557660Y1106500D01*
X1559199Y1106800D01*
X1615800Y1106800D01*
X1617340Y1106500D01*
X1618640Y1105620D01*
X1660620Y1063640D01*
X1661500Y1062340D01*
X1661800Y1060800D01*
X1661800Y1023600D01*
X1661500Y1022060D01*
X1660620Y1020759D01*
X1659340Y1019900D01*
X1657800Y1019599D01*
X1656260Y1019900D01*
X1654980Y1020759D01*
X1646720Y1029020D01*
X1645940Y1030120D01*
X1645560Y1031400D01*
X1643080Y1053120D01*
X1642920Y1054020D01*
X1642640Y1056900D01*
X1641399Y1062300D01*
X1639500Y1067480D01*
X1636940Y1072400D01*
X1633760Y1076940D01*
X1630040Y1081020D01*
X1625840Y1084620D01*
X1621200Y1087640D01*
X1616200Y1090040D01*
X1610960Y1091780D01*
X1605520Y1092840D01*
X1600000Y1093200D01*
X1594480Y1092840D01*
X1589040Y1091780D01*
X1583800Y1090040D01*
X1578800Y1087640D01*
X1574160Y1084620D01*
X1569960Y1081020D01*
X1566240Y1076940D01*
X1563060Y1072400D01*
X1560500Y1067480D01*
X1558600Y1062300D01*
X1557360Y1056900D01*
X1556840Y1051380D01*
X1557000Y1045860D01*
X1557900Y1040380D01*
X1559460Y1035080D01*
X1561699Y1030020D01*
X1564580Y1025300D01*
X1568020Y1020960D01*
X1572000Y1017120D01*
X1576440Y1013800D01*
X1581260Y1011080D01*
X1586380Y1009000D01*
X1591759Y1007600D01*
X1596720Y1006940D01*
X1618600Y1004440D01*
X1619880Y1004060D01*
X1620980Y1003280D01*
X1630620Y993640D01*
X1631500Y992340D01*
X1631800Y990800D01*
X1631800Y488100D01*
X1631440Y486440D01*
X1630420Y485080D01*
X1628920Y484260D01*
X1627220Y484159D01*
X1625620Y484760D01*
X1621200Y487640D01*
X1616200Y490040D01*
X1610960Y491780D01*
X1606000Y492740D01*
X1606000Y456000D01*
X1627800Y456000D01*
X1629340Y455700D01*
X1630620Y454820D01*
X1631500Y453540D01*
X1631800Y452000D01*
X1631800Y448000D01*
X1631500Y446480D01*
X1630620Y445180D01*
X1629340Y444300D01*
X1627800Y444000D01*
X1606000Y444000D01*
X1606000Y407320D01*
X1608260Y407600D01*
X1613620Y409000D01*
X1618740Y411079D01*
X1623560Y413800D01*
X1625400Y415180D01*
X1627020Y415900D01*
X1628760Y415860D01*
X1630340Y415060D01*
X1631420Y413680D01*
X1631800Y411980D01*
X1631819Y389300D01*
X1632300Y385840D01*
X1633360Y382660D01*
X1635000Y379720D01*
X1637260Y377000D01*
X1779240Y235020D01*
X1780100Y233740D01*
X1780400Y232200D01*
X1780100Y230660D01*
X1779240Y229380D01*
X1777940Y228500D01*
X1776399Y228200D01*
X1749199Y228200D01*
X1747660Y228500D01*
X1746360Y229380D01*
X1546720Y429020D01*
X1545940Y430120D01*
X1545560Y431400D01*
X1543080Y453120D01*
X1542920Y454020D01*
X1542640Y456900D01*
X1541399Y462299D01*
X1539500Y467480D01*
X1536940Y472400D01*
X1533760Y476940D01*
X1530040Y481019D01*
X1525840Y484620D01*
X1521200Y487640D01*
X1516200Y490040D01*
X1510960Y491780D01*
X1505520Y492840D01*
X1500000Y493200D01*
X1494480Y492840D01*
X1489040Y491780D01*
X1483800Y490040D01*
X1478800Y487640D01*
X1474160Y484620D01*
X1469960Y481019D01*
X1466240Y476940D01*
X1463060Y472400D01*
X1460500Y467480D01*
X1458600Y462299D01*
X1457360Y456900D01*
X1456840Y451380D01*
X1457000Y445860D01*
X1457900Y440379D01*
X1459460Y435080D01*
X1461699Y430020D01*
X1464580Y425300D01*
X1468020Y420959D01*
X1472000Y417120D01*
X1476440Y413800D01*
X1481260Y411079D01*
X1486380Y409000D01*
X1491759Y407600D01*
X1496720Y406940D01*
X1518600Y404440D01*
X1519880Y404060D01*
X1520980Y403280D01*
X1724240Y200020D01*
X1725100Y198740D01*
X1725400Y197200D01*
X1725100Y195660D01*
X1724240Y194380D01*
X1722940Y193500D01*
X1721399Y193200D01*
X1684199Y193200D01*
X1682660Y193500D01*
X1681360Y194380D01*
X1446720Y429020D01*
X1445940Y430120D01*
X1445560Y431400D01*
X1443080Y453120D01*
X1442920Y454020D01*
X1442640Y456900D01*
X1441399Y462299D01*
X1439500Y467480D01*
X1436940Y472400D01*
X1433760Y476940D01*
X1430040Y481019D01*
X1425840Y484620D01*
X1421200Y487640D01*
X1416200Y490040D01*
X1410960Y491780D01*
X1405520Y492840D01*
X1400000Y493200D01*
X1394480Y492840D01*
X1389040Y491780D01*
X1383800Y490040D01*
X1378800Y487640D01*
X1374160Y484620D01*
X1369960Y481019D01*
X1366240Y476940D01*
X1363060Y472400D01*
X1360500Y467480D01*
X1358600Y462299D01*
X1357360Y456900D01*
X1356840Y451380D01*
X1357000Y445860D01*
X1357900Y440379D01*
X1359460Y435080D01*
X1361699Y430020D01*
X1364580Y425300D01*
X1368020Y420959D01*
X1372000Y417120D01*
X1376440Y413800D01*
X1381260Y411079D01*
X1386380Y409000D01*
X1391759Y407600D01*
X1396720Y406940D01*
X1418600Y404440D01*
X1419880Y404060D01*
X1420980Y403280D01*
X1659240Y165020D01*
X1660100Y163740D01*
X1660400Y162200D01*
X1660100Y160660D01*
X1659240Y159380D01*
X1657940Y158500D01*
X1656399Y158200D01*
X1619199Y158200D01*
X1617660Y158500D01*
X1616360Y159380D01*
X1346720Y429020D01*
X1345940Y430120D01*
X1345560Y431400D01*
X1343080Y453120D01*
X1342920Y454020D01*
X1342640Y456900D01*
X1341399Y462299D01*
X1339500Y467480D01*
X1336940Y472400D01*
X1333760Y476940D01*
X1330040Y481019D01*
X1325840Y484620D01*
X1321200Y487640D01*
X1316200Y490040D01*
X1310960Y491780D01*
X1305520Y492840D01*
X1300000Y493200D01*
X1294480Y492840D01*
X1289040Y491780D01*
X1283800Y490040D01*
X1278800Y487640D01*
X1274160Y484620D01*
X1269960Y481019D01*
X1266240Y476940D01*
X1263060Y472400D01*
X1260500Y467480D01*
X1258600Y462299D01*
X1257360Y456900D01*
X1256840Y451380D01*
X1257000Y445860D01*
X1257900Y440379D01*
X1259460Y435080D01*
X1261700Y430020D01*
X1264580Y425300D01*
X1268020Y420959D01*
X1272000Y417120D01*
X1276440Y413800D01*
X1281260Y411079D01*
X1286380Y409000D01*
X1291759Y407600D01*
X1296720Y406940D01*
X1318600Y404440D01*
X1319880Y404060D01*
X1320980Y403280D01*
X1597640Y126640D01*
X1600420Y124540D01*
X1603440Y123040D01*
X1606660Y122120D01*
X1610180Y121800D01*
X1749259Y121800D01*
X1750860Y121460D01*
X1752220Y120500D01*
X1753040Y119060D01*
X1756600Y108420D01*
X1756800Y107160D01*
X1756800Y69200D01*
X1757060Y66620D01*
X1757740Y64340D01*
X1758880Y62240D01*
X1760380Y60380D01*
X1762240Y58880D01*
X1764340Y57740D01*
X1766620Y57060D01*
G37*
G36*
X901380Y56840D02*
G01*
X906900Y57360D01*
X912280Y58600D01*
X917480Y60500D01*
X922400Y63060D01*
X926919Y66240D01*
X931020Y69960D01*
X934620Y74160D01*
X937640Y78800D01*
X940040Y83800D01*
X941780Y89040D01*
X942840Y94480D01*
X943199Y100000D01*
X942840Y105520D01*
X941780Y110960D01*
X940040Y116199D01*
X937640Y121199D01*
X934580Y125879D01*
X919060Y145360D01*
X918420Y146540D01*
X918199Y147860D01*
X918199Y252140D01*
X918420Y253460D01*
X919060Y254620D01*
X932680Y271740D01*
X936200Y276440D01*
X938920Y281260D01*
X941000Y286380D01*
X942400Y291740D01*
X943100Y297240D01*
X943100Y302760D01*
X942400Y308260D01*
X941000Y313620D01*
X938920Y318740D01*
X936200Y323560D01*
X932680Y328260D01*
X919060Y345360D01*
X918420Y346540D01*
X918199Y347860D01*
X918199Y402140D01*
X918420Y403459D01*
X919060Y404620D01*
X935420Y425300D01*
X938300Y430020D01*
X940540Y435080D01*
X942099Y440379D01*
X943000Y445860D01*
X943160Y451380D01*
X942640Y456900D01*
X941400Y462299D01*
X939500Y467480D01*
X936940Y472400D01*
X933760Y476940D01*
X930040Y481019D01*
X925840Y484620D01*
X921200Y487640D01*
X916200Y490040D01*
X910960Y491780D01*
X905520Y492840D01*
X900000Y493200D01*
X894479Y492840D01*
X889040Y491780D01*
X883800Y490040D01*
X878800Y487640D01*
X874160Y484620D01*
X869960Y481019D01*
X866240Y476940D01*
X863060Y472400D01*
X860500Y467480D01*
X858600Y462299D01*
X857360Y456900D01*
X856840Y451380D01*
X857000Y445860D01*
X857900Y440379D01*
X859460Y435080D01*
X861700Y430020D01*
X864580Y425300D01*
X867300Y421780D01*
X880939Y404620D01*
X881580Y403459D01*
X881800Y402140D01*
X881800Y347860D01*
X881580Y346540D01*
X880939Y345360D01*
X867340Y328260D01*
X866800Y327480D01*
X865380Y325840D01*
X862360Y321200D01*
X859960Y316200D01*
X858220Y310960D01*
X857159Y305520D01*
X856800Y300000D01*
X857159Y294480D01*
X858220Y289040D01*
X859960Y283800D01*
X862360Y278800D01*
X865420Y274120D01*
X880939Y254620D01*
X881580Y253460D01*
X881800Y252140D01*
X881800Y147860D01*
X881580Y146540D01*
X880939Y145360D01*
X867320Y128260D01*
X863800Y123560D01*
X861080Y118740D01*
X859000Y113620D01*
X857600Y108260D01*
X856900Y102760D01*
X856900Y97240D01*
X857600Y91740D01*
X859000Y86380D01*
X861080Y81260D01*
X863800Y76440D01*
X867120Y72000D01*
X870960Y68020D01*
X875280Y64580D01*
X880020Y61700D01*
X885080Y59460D01*
X890380Y57900D01*
X895860Y57000D01*
G37*
G36*
X801380Y56840D02*
G01*
X806900Y57360D01*
X812280Y58600D01*
X817480Y60500D01*
X822400Y63060D01*
X826919Y66240D01*
X831020Y69960D01*
X834620Y74160D01*
X837640Y78800D01*
X840040Y83800D01*
X841780Y89040D01*
X842840Y94480D01*
X843199Y100000D01*
X842840Y105520D01*
X841780Y110960D01*
X840040Y116199D01*
X837640Y121199D01*
X834580Y125879D01*
X819060Y145360D01*
X818420Y146540D01*
X818199Y147860D01*
X818199Y252140D01*
X818420Y253460D01*
X819060Y254620D01*
X832680Y271740D01*
X836200Y276440D01*
X838920Y281260D01*
X841000Y286380D01*
X842400Y291740D01*
X843100Y297240D01*
X843100Y302760D01*
X842400Y308260D01*
X841000Y313620D01*
X838920Y318740D01*
X836200Y323560D01*
X832680Y328260D01*
X819060Y345360D01*
X818420Y346540D01*
X818199Y347860D01*
X818199Y402140D01*
X818420Y403459D01*
X819060Y404620D01*
X835420Y425300D01*
X838300Y430020D01*
X840540Y435080D01*
X842099Y440379D01*
X843000Y445860D01*
X843160Y451380D01*
X842640Y456900D01*
X841400Y462299D01*
X839500Y467480D01*
X836940Y472400D01*
X833760Y476940D01*
X830040Y481019D01*
X825840Y484620D01*
X821200Y487640D01*
X816200Y490040D01*
X810960Y491780D01*
X805520Y492840D01*
X800000Y493200D01*
X794479Y492840D01*
X789040Y491780D01*
X783800Y490040D01*
X778800Y487640D01*
X774160Y484620D01*
X769960Y481019D01*
X766240Y476940D01*
X763060Y472400D01*
X760500Y467480D01*
X758600Y462299D01*
X757360Y456900D01*
X756840Y451380D01*
X757000Y445860D01*
X757900Y440379D01*
X759460Y435080D01*
X761700Y430020D01*
X764580Y425300D01*
X767300Y421780D01*
X780939Y404620D01*
X781580Y403459D01*
X781800Y402140D01*
X781800Y347860D01*
X781580Y346540D01*
X780939Y345360D01*
X767340Y328260D01*
X766800Y327480D01*
X765380Y325840D01*
X762360Y321200D01*
X759960Y316200D01*
X758220Y310960D01*
X757159Y305520D01*
X756800Y300000D01*
X757159Y294480D01*
X758220Y289040D01*
X759960Y283800D01*
X762360Y278800D01*
X765420Y274120D01*
X780939Y254620D01*
X781580Y253460D01*
X781800Y252140D01*
X781800Y147860D01*
X781580Y146540D01*
X780939Y145360D01*
X767320Y128260D01*
X763800Y123560D01*
X761080Y118740D01*
X759000Y113620D01*
X757600Y108260D01*
X756900Y102760D01*
X756900Y97240D01*
X757600Y91740D01*
X759000Y86380D01*
X761080Y81260D01*
X763800Y76440D01*
X767120Y72000D01*
X770960Y68020D01*
X775280Y64580D01*
X780020Y61700D01*
X785080Y59460D01*
X790380Y57900D01*
X795860Y57000D01*
G37*
G36*
X1001380Y56840D02*
G01*
X1006900Y57360D01*
X1012280Y58600D01*
X1017480Y60500D01*
X1022400Y63060D01*
X1026919Y66240D01*
X1031020Y69960D01*
X1034620Y74160D01*
X1037640Y78800D01*
X1040040Y83800D01*
X1041780Y89040D01*
X1042840Y94480D01*
X1043199Y100000D01*
X1042840Y105520D01*
X1041780Y110960D01*
X1040040Y116199D01*
X1037640Y121199D01*
X1034580Y125879D01*
X1019060Y145360D01*
X1018420Y146540D01*
X1018199Y147860D01*
X1018199Y252140D01*
X1018420Y253460D01*
X1019060Y254620D01*
X1032680Y271740D01*
X1036200Y276440D01*
X1038920Y281260D01*
X1041000Y286380D01*
X1042400Y291740D01*
X1043100Y297240D01*
X1043100Y302760D01*
X1042400Y308260D01*
X1041000Y313620D01*
X1038920Y318740D01*
X1036200Y323560D01*
X1032680Y328260D01*
X1019060Y345360D01*
X1018420Y346540D01*
X1018199Y347860D01*
X1018199Y402140D01*
X1018420Y403459D01*
X1019060Y404620D01*
X1035420Y425300D01*
X1038300Y430020D01*
X1040540Y435080D01*
X1042099Y440379D01*
X1043000Y445860D01*
X1043160Y451380D01*
X1042640Y456900D01*
X1041400Y462299D01*
X1039500Y467480D01*
X1036940Y472400D01*
X1033760Y476940D01*
X1030040Y481019D01*
X1025840Y484620D01*
X1021200Y487640D01*
X1016200Y490040D01*
X1010960Y491780D01*
X1005520Y492840D01*
X1000000Y493200D01*
X994479Y492840D01*
X989040Y491780D01*
X983800Y490040D01*
X978800Y487640D01*
X974160Y484620D01*
X969960Y481019D01*
X966240Y476940D01*
X963060Y472400D01*
X960500Y467480D01*
X958600Y462299D01*
X957360Y456900D01*
X956840Y451380D01*
X957000Y445860D01*
X957900Y440379D01*
X959460Y435080D01*
X961700Y430020D01*
X964580Y425300D01*
X967300Y421780D01*
X980939Y404620D01*
X981580Y403459D01*
X981800Y402140D01*
X981800Y347860D01*
X981580Y346540D01*
X980939Y345360D01*
X967340Y328260D01*
X966800Y327480D01*
X965380Y325840D01*
X962360Y321200D01*
X959960Y316200D01*
X958220Y310960D01*
X957159Y305520D01*
X956800Y300000D01*
X957159Y294480D01*
X958220Y289040D01*
X959960Y283800D01*
X962360Y278800D01*
X965420Y274120D01*
X980939Y254620D01*
X981580Y253460D01*
X981800Y252140D01*
X981800Y147860D01*
X981580Y146540D01*
X980939Y145360D01*
X967320Y128260D01*
X963800Y123560D01*
X961080Y118740D01*
X959000Y113620D01*
X957600Y108260D01*
X956900Y102760D01*
X956900Y97240D01*
X957600Y91740D01*
X959000Y86380D01*
X961080Y81260D01*
X963800Y76440D01*
X967120Y72000D01*
X970960Y68020D01*
X975280Y64580D01*
X980020Y61700D01*
X985080Y59460D01*
X990380Y57900D01*
X995860Y57000D01*
G37*
G36*
X1101380Y56840D02*
G01*
X1106900Y57360D01*
X1112280Y58600D01*
X1117480Y60500D01*
X1122400Y63060D01*
X1126920Y66240D01*
X1131020Y69960D01*
X1134620Y74160D01*
X1137640Y78800D01*
X1140040Y83800D01*
X1141780Y89040D01*
X1142840Y94480D01*
X1143200Y100000D01*
X1142840Y105520D01*
X1141780Y110960D01*
X1140040Y116199D01*
X1137640Y121199D01*
X1134580Y125879D01*
X1119060Y145360D01*
X1118420Y146540D01*
X1118200Y147860D01*
X1118200Y252140D01*
X1118420Y253460D01*
X1119060Y254620D01*
X1132680Y271740D01*
X1136200Y276440D01*
X1138920Y281260D01*
X1141000Y286380D01*
X1142400Y291740D01*
X1143100Y297240D01*
X1143100Y302760D01*
X1142400Y308260D01*
X1141000Y313620D01*
X1138920Y318740D01*
X1136200Y323560D01*
X1132680Y328260D01*
X1119060Y345360D01*
X1118420Y346540D01*
X1118200Y347860D01*
X1118200Y402140D01*
X1118420Y403459D01*
X1119060Y404620D01*
X1135420Y425300D01*
X1138300Y430020D01*
X1140540Y435080D01*
X1142100Y440379D01*
X1143000Y445860D01*
X1143160Y451380D01*
X1142640Y456900D01*
X1141400Y462299D01*
X1139500Y467480D01*
X1136940Y472400D01*
X1133760Y476940D01*
X1130040Y481019D01*
X1125840Y484620D01*
X1121200Y487640D01*
X1116200Y490040D01*
X1110960Y491780D01*
X1105520Y492840D01*
X1100000Y493200D01*
X1094480Y492840D01*
X1089040Y491780D01*
X1083800Y490040D01*
X1078800Y487640D01*
X1074160Y484620D01*
X1069960Y481019D01*
X1066240Y476940D01*
X1063060Y472400D01*
X1060500Y467480D01*
X1058600Y462299D01*
X1057360Y456900D01*
X1056840Y451380D01*
X1057000Y445860D01*
X1057900Y440379D01*
X1059460Y435080D01*
X1061700Y430020D01*
X1064580Y425300D01*
X1067300Y421780D01*
X1080940Y404620D01*
X1081580Y403459D01*
X1081800Y402140D01*
X1081800Y347860D01*
X1081580Y346540D01*
X1080940Y345360D01*
X1067340Y328260D01*
X1066800Y327480D01*
X1065380Y325840D01*
X1062360Y321200D01*
X1059960Y316200D01*
X1058220Y310960D01*
X1057160Y305520D01*
X1056800Y300000D01*
X1057160Y294480D01*
X1058220Y289040D01*
X1059960Y283800D01*
X1062360Y278800D01*
X1065420Y274120D01*
X1080940Y254620D01*
X1081580Y253460D01*
X1081800Y252140D01*
X1081800Y147860D01*
X1081580Y146540D01*
X1080940Y145360D01*
X1067320Y128260D01*
X1063800Y123560D01*
X1061080Y118740D01*
X1059000Y113620D01*
X1057600Y108260D01*
X1056900Y102760D01*
X1056900Y97240D01*
X1057600Y91740D01*
X1059000Y86380D01*
X1061080Y81260D01*
X1063800Y76440D01*
X1067120Y72000D01*
X1070960Y68020D01*
X1075280Y64580D01*
X1080020Y61700D01*
X1085080Y59460D01*
X1090380Y57900D01*
X1095860Y57000D01*
G37*
G36*
X601380Y56840D02*
G01*
X606900Y57360D01*
X612280Y58600D01*
X617480Y60500D01*
X622400Y63060D01*
X626920Y66240D01*
X631020Y69960D01*
X634620Y74160D01*
X637640Y78800D01*
X640040Y83800D01*
X641780Y89040D01*
X642840Y94480D01*
X643199Y100000D01*
X642840Y105520D01*
X641780Y110960D01*
X640040Y116199D01*
X637640Y121199D01*
X634580Y125879D01*
X619060Y145360D01*
X618420Y146540D01*
X618200Y147860D01*
X618200Y252140D01*
X618420Y253460D01*
X619060Y254620D01*
X632680Y271740D01*
X636200Y276440D01*
X638920Y281260D01*
X641000Y286380D01*
X642400Y291740D01*
X643100Y297240D01*
X643100Y302760D01*
X642400Y308260D01*
X641000Y313620D01*
X638920Y318740D01*
X636200Y323560D01*
X632680Y328260D01*
X619060Y345360D01*
X618420Y346540D01*
X618200Y347860D01*
X618200Y402140D01*
X618420Y403459D01*
X619060Y404620D01*
X635420Y425300D01*
X638300Y430020D01*
X640540Y435080D01*
X642099Y440379D01*
X643000Y445860D01*
X643160Y451380D01*
X642640Y456900D01*
X641400Y462299D01*
X639500Y467480D01*
X636940Y472400D01*
X633760Y476940D01*
X630040Y481019D01*
X625840Y484620D01*
X621200Y487640D01*
X616200Y490040D01*
X610960Y491780D01*
X605520Y492840D01*
X600000Y493200D01*
X594480Y492840D01*
X589040Y491780D01*
X583800Y490040D01*
X578800Y487640D01*
X574160Y484620D01*
X569960Y481019D01*
X566240Y476940D01*
X563060Y472400D01*
X560500Y467480D01*
X558600Y462299D01*
X557360Y456900D01*
X556840Y451380D01*
X557000Y445860D01*
X557900Y440379D01*
X559460Y435080D01*
X561700Y430020D01*
X564580Y425300D01*
X567300Y421780D01*
X580940Y404620D01*
X581580Y403459D01*
X581800Y402140D01*
X581800Y347860D01*
X581580Y346540D01*
X580940Y345360D01*
X567340Y328260D01*
X566800Y327480D01*
X565380Y325840D01*
X562360Y321200D01*
X559960Y316200D01*
X558220Y310960D01*
X557160Y305520D01*
X556800Y300000D01*
X557160Y294480D01*
X558220Y289040D01*
X559960Y283800D01*
X562360Y278800D01*
X565420Y274120D01*
X580940Y254620D01*
X581580Y253460D01*
X581800Y252140D01*
X581800Y147860D01*
X581580Y146540D01*
X580940Y145360D01*
X567320Y128260D01*
X563800Y123560D01*
X561080Y118740D01*
X559000Y113620D01*
X557600Y108260D01*
X556900Y102760D01*
X556900Y97240D01*
X557600Y91740D01*
X559000Y86380D01*
X561080Y81260D01*
X563800Y76440D01*
X567120Y72000D01*
X570960Y68020D01*
X575280Y64580D01*
X580020Y61700D01*
X585080Y59460D01*
X590380Y57900D01*
X595860Y57000D01*
G37*
G36*
X701380Y56840D02*
G01*
X706900Y57360D01*
X712280Y58600D01*
X717480Y60500D01*
X722400Y63060D01*
X726919Y66240D01*
X731020Y69960D01*
X734620Y74160D01*
X737640Y78800D01*
X740040Y83800D01*
X741780Y89040D01*
X742840Y94480D01*
X743199Y100000D01*
X742840Y105520D01*
X741780Y110960D01*
X740040Y116199D01*
X737640Y121199D01*
X734580Y125879D01*
X719060Y145360D01*
X718420Y146540D01*
X718199Y147860D01*
X718199Y252140D01*
X718420Y253460D01*
X719060Y254620D01*
X732680Y271740D01*
X736200Y276440D01*
X738920Y281260D01*
X741000Y286380D01*
X742400Y291740D01*
X743100Y297240D01*
X743100Y302760D01*
X742400Y308260D01*
X741000Y313620D01*
X738920Y318740D01*
X736200Y323560D01*
X732680Y328260D01*
X719060Y345360D01*
X718420Y346540D01*
X718199Y347860D01*
X718199Y402140D01*
X718420Y403459D01*
X719060Y404620D01*
X735420Y425300D01*
X738300Y430020D01*
X740540Y435080D01*
X742099Y440379D01*
X743000Y445860D01*
X743160Y451380D01*
X742640Y456900D01*
X741400Y462299D01*
X739500Y467480D01*
X736940Y472400D01*
X733760Y476940D01*
X730040Y481019D01*
X725840Y484620D01*
X721200Y487640D01*
X716200Y490040D01*
X710960Y491780D01*
X705520Y492840D01*
X700000Y493200D01*
X694479Y492840D01*
X689040Y491780D01*
X683800Y490040D01*
X678800Y487640D01*
X674160Y484620D01*
X669960Y481019D01*
X666240Y476940D01*
X663060Y472400D01*
X660500Y467480D01*
X658600Y462299D01*
X657360Y456900D01*
X656840Y451380D01*
X657000Y445860D01*
X657900Y440379D01*
X659460Y435080D01*
X661700Y430020D01*
X664580Y425300D01*
X667300Y421780D01*
X680939Y404620D01*
X681580Y403459D01*
X681800Y402140D01*
X681800Y347860D01*
X681580Y346540D01*
X680939Y345360D01*
X667340Y328260D01*
X666800Y327480D01*
X665380Y325840D01*
X662360Y321200D01*
X659960Y316200D01*
X658220Y310960D01*
X657159Y305520D01*
X656800Y300000D01*
X657159Y294480D01*
X658220Y289040D01*
X659960Y283800D01*
X662360Y278800D01*
X665420Y274120D01*
X680939Y254620D01*
X681580Y253460D01*
X681800Y252140D01*
X681800Y147860D01*
X681580Y146540D01*
X680939Y145360D01*
X667320Y128260D01*
X663800Y123560D01*
X661080Y118740D01*
X659000Y113620D01*
X657600Y108260D01*
X656900Y102760D01*
X656900Y97240D01*
X657600Y91740D01*
X659000Y86380D01*
X661080Y81260D01*
X663800Y76440D01*
X667120Y72000D01*
X670960Y68020D01*
X675280Y64580D01*
X680020Y61700D01*
X685080Y59460D01*
X690380Y57900D01*
X695860Y57000D01*
G37*
G36*
X1201380Y56840D02*
G01*
X1206900Y57360D01*
X1212280Y58600D01*
X1217480Y60500D01*
X1222400Y63060D01*
X1226920Y66240D01*
X1231020Y69960D01*
X1234620Y74160D01*
X1237640Y78800D01*
X1240040Y83800D01*
X1241780Y89040D01*
X1242840Y94480D01*
X1243200Y100000D01*
X1242840Y105520D01*
X1241780Y110960D01*
X1240040Y116199D01*
X1237640Y121199D01*
X1234580Y125879D01*
X1219060Y145360D01*
X1218420Y146540D01*
X1218200Y147860D01*
X1218200Y252140D01*
X1218420Y253460D01*
X1219060Y254620D01*
X1232680Y271740D01*
X1236200Y276440D01*
X1238920Y281260D01*
X1241000Y286380D01*
X1242400Y291740D01*
X1243100Y297240D01*
X1243100Y302760D01*
X1242400Y308260D01*
X1241000Y313620D01*
X1238920Y318740D01*
X1236200Y323560D01*
X1232680Y328260D01*
X1219060Y345360D01*
X1218420Y346540D01*
X1218200Y347860D01*
X1218200Y402140D01*
X1218420Y403459D01*
X1219060Y404620D01*
X1235420Y425300D01*
X1238300Y430020D01*
X1240540Y435080D01*
X1242100Y440379D01*
X1243000Y445860D01*
X1243160Y451380D01*
X1242640Y456900D01*
X1241400Y462299D01*
X1239500Y467480D01*
X1236940Y472400D01*
X1233760Y476940D01*
X1230040Y481019D01*
X1225840Y484620D01*
X1221200Y487640D01*
X1216200Y490040D01*
X1210960Y491780D01*
X1205520Y492840D01*
X1200000Y493200D01*
X1194480Y492840D01*
X1189040Y491780D01*
X1183800Y490040D01*
X1178800Y487640D01*
X1174160Y484620D01*
X1169960Y481019D01*
X1166240Y476940D01*
X1163060Y472400D01*
X1160500Y467480D01*
X1158600Y462299D01*
X1157360Y456900D01*
X1156840Y451380D01*
X1157000Y445860D01*
X1157900Y440379D01*
X1159460Y435080D01*
X1161700Y430020D01*
X1164580Y425300D01*
X1167300Y421780D01*
X1180940Y404620D01*
X1181580Y403459D01*
X1181800Y402140D01*
X1181800Y347860D01*
X1181580Y346540D01*
X1180940Y345360D01*
X1167340Y328260D01*
X1166800Y327480D01*
X1165380Y325840D01*
X1162360Y321200D01*
X1159960Y316200D01*
X1158220Y310960D01*
X1157160Y305520D01*
X1156800Y300000D01*
X1157160Y294480D01*
X1158220Y289040D01*
X1159960Y283800D01*
X1162360Y278800D01*
X1165420Y274120D01*
X1180940Y254620D01*
X1181580Y253460D01*
X1181800Y252140D01*
X1181800Y147860D01*
X1181580Y146540D01*
X1180940Y145360D01*
X1167320Y128260D01*
X1163800Y123560D01*
X1161080Y118740D01*
X1159000Y113620D01*
X1157600Y108260D01*
X1156900Y102760D01*
X1156900Y97240D01*
X1157600Y91740D01*
X1159000Y86380D01*
X1161080Y81260D01*
X1163800Y76440D01*
X1167120Y72000D01*
X1170960Y68020D01*
X1175280Y64580D01*
X1180020Y61700D01*
X1185080Y59460D01*
X1190380Y57900D01*
X1195860Y57000D01*
G37*
G36*
X1401380Y56840D02*
G01*
X1406900Y57360D01*
X1412280Y58600D01*
X1417480Y60500D01*
X1422400Y63060D01*
X1426920Y66240D01*
X1431020Y69960D01*
X1434620Y74160D01*
X1437640Y78800D01*
X1440040Y83800D01*
X1441780Y89040D01*
X1442840Y94480D01*
X1443200Y100000D01*
X1442840Y105520D01*
X1441780Y110960D01*
X1440040Y116199D01*
X1437600Y121280D01*
X1437200Y123000D01*
X1437200Y199940D01*
X1437120Y202540D01*
X1436860Y205060D01*
X1436420Y207560D01*
X1435820Y210040D01*
X1435040Y212460D01*
X1434120Y214820D01*
X1433020Y217120D01*
X1431780Y219320D01*
X1430380Y221460D01*
X1428860Y223480D01*
X1427180Y225380D01*
X1425380Y227180D01*
X1423480Y228860D01*
X1421459Y230380D01*
X1419319Y231780D01*
X1417120Y233020D01*
X1414820Y234120D01*
X1412460Y235040D01*
X1410040Y235820D01*
X1407560Y236420D01*
X1405060Y236860D01*
X1402540Y237120D01*
X1399940Y237200D01*
X1351020Y237200D01*
X1349620Y237460D01*
X1348380Y238180D01*
X1347500Y239300D01*
X1347060Y240660D01*
X1343200Y269600D01*
X1343200Y331300D01*
X1342940Y333880D01*
X1342260Y336160D01*
X1341120Y338260D01*
X1339620Y340100D01*
X1337760Y341620D01*
X1335660Y342740D01*
X1333380Y343440D01*
X1330800Y343700D01*
X1269200Y343700D01*
X1266620Y343440D01*
X1264340Y342740D01*
X1262240Y341620D01*
X1260380Y340100D01*
X1258880Y338260D01*
X1257740Y336160D01*
X1257060Y333880D01*
X1256800Y331300D01*
X1256800Y268700D01*
X1257060Y266020D01*
X1277700Y197600D01*
X1278580Y192420D01*
X1279320Y189500D01*
X1279940Y187560D01*
X1281080Y184740D01*
X1281960Y182900D01*
X1283480Y180260D01*
X1284600Y178560D01*
X1286459Y176160D01*
X1287800Y174620D01*
X1289960Y172480D01*
X1291500Y171160D01*
X1293940Y169340D01*
X1295660Y168240D01*
X1298320Y166759D01*
X1300160Y165900D01*
X1303000Y164800D01*
X1304940Y164180D01*
X1307900Y163480D01*
X1309920Y163160D01*
X1312940Y162860D01*
X1315060Y162800D01*
X1358800Y162800D01*
X1360340Y162500D01*
X1361620Y161620D01*
X1362500Y160340D01*
X1362800Y158800D01*
X1362800Y122840D01*
X1362660Y121820D01*
X1362280Y120879D01*
X1361080Y118740D01*
X1359000Y113620D01*
X1357600Y108260D01*
X1356900Y102760D01*
X1356900Y97240D01*
X1357600Y91740D01*
X1359000Y86380D01*
X1361080Y81260D01*
X1363800Y76440D01*
X1367120Y72000D01*
X1370960Y68020D01*
X1375280Y64580D01*
X1380020Y61700D01*
X1385080Y59460D01*
X1390380Y57900D01*
X1395860Y57000D01*
G37*
G36*
X1306000Y57280D02*
G01*
X1306900Y57360D01*
X1312280Y58600D01*
X1317480Y60500D01*
X1322400Y63060D01*
X1326920Y66240D01*
X1331020Y69960D01*
X1334620Y74160D01*
X1337640Y78800D01*
X1340040Y83800D01*
X1341780Y89040D01*
X1342740Y94000D01*
X1306000Y94000D01*
G37*
G36*
X1294000Y57300D02*
G01*
X1294000Y94000D01*
X1257320Y94000D01*
X1257600Y91740D01*
X1259000Y86380D01*
X1261080Y81260D01*
X1263800Y76440D01*
X1267120Y72000D01*
X1270960Y68020D01*
X1275280Y64580D01*
X1280020Y61700D01*
X1285080Y59460D01*
X1290380Y57900D01*
G37*
G36*
X1257320Y106000D02*
G01*
X1294000Y106000D01*
X1294000Y142700D01*
X1290380Y142100D01*
X1285080Y140540D01*
X1280020Y138300D01*
X1275280Y135420D01*
X1270960Y131980D01*
X1267120Y128000D01*
X1263800Y123560D01*
X1261080Y118740D01*
X1259000Y113620D01*
X1257600Y108260D01*
G37*
G36*
X1306000Y106000D02*
G01*
X1342740Y106000D01*
X1341780Y110960D01*
X1340040Y116199D01*
X1337640Y121199D01*
X1334620Y125840D01*
X1331020Y130040D01*
X1326920Y133760D01*
X1322400Y136940D01*
X1317480Y139500D01*
X1312280Y141400D01*
X1306900Y142640D01*
X1306000Y142720D01*
G37*
G36*
X456800Y106000D02*
G01*
X494000Y106000D01*
X494000Y143200D01*
X469200Y143200D01*
X466620Y142940D01*
X464340Y142260D01*
X462239Y141120D01*
X460379Y139620D01*
X458880Y137760D01*
X457740Y135660D01*
X457060Y133380D01*
X456800Y130800D01*
G37*
G36*
X506000Y106000D02*
G01*
X543200Y106000D01*
X543200Y130800D01*
X542940Y133380D01*
X542260Y135660D01*
X541120Y137760D01*
X539620Y139620D01*
X537760Y141120D01*
X535660Y142260D01*
X533380Y142940D01*
X530800Y143200D01*
X506000Y143200D01*
G37*
G36*
X498620Y256840D02*
G01*
X504140Y257000D01*
X509620Y257900D01*
X514920Y259460D01*
X519980Y261700D01*
X524720Y264580D01*
X529040Y268020D01*
X532880Y272000D01*
X536200Y276440D01*
X538920Y281260D01*
X541000Y286380D01*
X542400Y291740D01*
X543100Y297240D01*
X543100Y302760D01*
X542400Y308260D01*
X541000Y313620D01*
X538920Y318740D01*
X536200Y323560D01*
X532880Y328000D01*
X529040Y331980D01*
X524720Y335420D01*
X519980Y338300D01*
X514920Y340540D01*
X509620Y342100D01*
X504140Y343000D01*
X498620Y343160D01*
X493100Y342640D01*
X487720Y341400D01*
X482520Y339500D01*
X477600Y336940D01*
X473080Y333760D01*
X468980Y330040D01*
X465379Y325840D01*
X462360Y321200D01*
X459960Y316200D01*
X458220Y310960D01*
X457160Y305520D01*
X456800Y300000D01*
X457160Y294480D01*
X458220Y289040D01*
X459960Y283800D01*
X462360Y278800D01*
X465379Y274160D01*
X468980Y269960D01*
X473080Y266240D01*
X477600Y263060D01*
X482520Y260500D01*
X487720Y258600D01*
X493100Y257360D01*
G37*
G36*
X175000Y306800D02*
G01*
X180520Y307160D01*
X185960Y308220D01*
X191200Y309960D01*
X196200Y312360D01*
X200840Y315380D01*
X205040Y318980D01*
X208760Y323080D01*
X211940Y327600D01*
X214500Y332520D01*
X216400Y337720D01*
X217640Y343100D01*
X218160Y348620D01*
X218000Y354140D01*
X217100Y359620D01*
X215539Y364920D01*
X213299Y369980D01*
X210420Y374720D01*
X206980Y379040D01*
X203000Y382879D01*
X198560Y386200D01*
X193740Y388920D01*
X188619Y391000D01*
X183260Y392400D01*
X177760Y393100D01*
X172240Y393100D01*
X166740Y392400D01*
X161380Y391000D01*
X156260Y388920D01*
X151440Y386200D01*
X147000Y382879D01*
X143020Y379040D01*
X139580Y374720D01*
X136700Y369980D01*
X134460Y364920D01*
X132900Y359620D01*
X132000Y354140D01*
X131840Y348620D01*
X132360Y343100D01*
X133600Y337720D01*
X135500Y332520D01*
X138060Y327600D01*
X141240Y323080D01*
X144960Y318980D01*
X149160Y315380D01*
X153800Y312360D01*
X158800Y309960D01*
X164040Y308220D01*
X169480Y307160D01*
G37*
G36*
X2456000Y331800D02*
G01*
X2480800Y331800D01*
X2483380Y332060D01*
X2485660Y332740D01*
X2487760Y333880D01*
X2489620Y335379D01*
X2491120Y337239D01*
X2492260Y339340D01*
X2492940Y341620D01*
X2493200Y344200D01*
X2493200Y369000D01*
X2456000Y369000D01*
G37*
G36*
X2419200Y331800D02*
G01*
X2444000Y331800D01*
X2444000Y369000D01*
X2406800Y369000D01*
X2406800Y344200D01*
X2407060Y341620D01*
X2407740Y339340D01*
X2408880Y337239D01*
X2410380Y335379D01*
X2412240Y333880D01*
X2414340Y332740D01*
X2416620Y332060D01*
G37*
G36*
X2551380Y331840D02*
G01*
X2556900Y332360D01*
X2562280Y333600D01*
X2567480Y335500D01*
X2572400Y338060D01*
X2576920Y341240D01*
X2581019Y344960D01*
X2584620Y349159D01*
X2587640Y353800D01*
X2590040Y358800D01*
X2591780Y364040D01*
X2592840Y369480D01*
X2593200Y375000D01*
X2592840Y380520D01*
X2591780Y385959D01*
X2590040Y391200D01*
X2587640Y396200D01*
X2584620Y400840D01*
X2581019Y405040D01*
X2576920Y408760D01*
X2572400Y411940D01*
X2567480Y414500D01*
X2562280Y416400D01*
X2556900Y417640D01*
X2551380Y418160D01*
X2545860Y418000D01*
X2540380Y417100D01*
X2535080Y415540D01*
X2530020Y413300D01*
X2525280Y410420D01*
X2520960Y406980D01*
X2517120Y403000D01*
X2513800Y398560D01*
X2511080Y393740D01*
X2509000Y388620D01*
X2507600Y383260D01*
X2506900Y377760D01*
X2506900Y372239D01*
X2507600Y366740D01*
X2509000Y361380D01*
X2511080Y356260D01*
X2513800Y351440D01*
X2517120Y347000D01*
X2520960Y343020D01*
X2525280Y339580D01*
X2530020Y336700D01*
X2535080Y334460D01*
X2540380Y332900D01*
X2545860Y332000D01*
G37*
G36*
X2456000Y381000D02*
G01*
X2493200Y381000D01*
X2493200Y405800D01*
X2492940Y408380D01*
X2492260Y410660D01*
X2491120Y412760D01*
X2489620Y414620D01*
X2487760Y416120D01*
X2485660Y417260D01*
X2483380Y417939D01*
X2480800Y418200D01*
X2456000Y418200D01*
G37*
G36*
X2406800Y381000D02*
G01*
X2444000Y381000D01*
X2444000Y418200D01*
X2419200Y418200D01*
X2416620Y417939D01*
X2414340Y417260D01*
X2412240Y416120D01*
X2410380Y414620D01*
X2408880Y412760D01*
X2407740Y410660D01*
X2407060Y408380D01*
X2406800Y405800D01*
G37*
G36*
X175000Y406800D02*
G01*
X180520Y407160D01*
X185960Y408220D01*
X191200Y409960D01*
X196200Y412360D01*
X200840Y415379D01*
X205040Y418980D01*
X208760Y423080D01*
X211940Y427600D01*
X214500Y432520D01*
X216400Y437720D01*
X217640Y443100D01*
X218160Y448620D01*
X218000Y454140D01*
X217100Y459620D01*
X215539Y464920D01*
X213299Y469980D01*
X210420Y474720D01*
X206980Y479040D01*
X203000Y482879D01*
X198560Y486200D01*
X193740Y488920D01*
X188619Y491000D01*
X183260Y492400D01*
X177760Y493100D01*
X172240Y493100D01*
X166740Y492400D01*
X161380Y491000D01*
X156260Y488920D01*
X151440Y486200D01*
X147000Y482879D01*
X143020Y479040D01*
X139580Y474720D01*
X136700Y469980D01*
X134460Y464920D01*
X132900Y459620D01*
X132000Y454140D01*
X131840Y448620D01*
X132360Y443100D01*
X133600Y437720D01*
X135500Y432520D01*
X138060Y427600D01*
X141240Y423080D01*
X144960Y418980D01*
X149160Y415379D01*
X153800Y412360D01*
X158800Y409960D01*
X164040Y408220D01*
X169480Y407160D01*
G37*
G36*
X297240Y406900D02*
G01*
X302760Y406900D01*
X308260Y407600D01*
X313620Y409000D01*
X318740Y411079D01*
X323560Y413800D01*
X328000Y417120D01*
X331980Y420959D01*
X335420Y425280D01*
X338300Y430020D01*
X340540Y435080D01*
X342100Y440379D01*
X343000Y445860D01*
X343160Y451380D01*
X342640Y456900D01*
X341400Y462280D01*
X339500Y467480D01*
X336940Y472400D01*
X333760Y476920D01*
X330040Y481019D01*
X325840Y484620D01*
X321200Y487640D01*
X316200Y490040D01*
X310960Y491780D01*
X305520Y492840D01*
X300000Y493200D01*
X294480Y492840D01*
X289040Y491780D01*
X283800Y490040D01*
X278800Y487640D01*
X274160Y484620D01*
X269960Y481019D01*
X266240Y476920D01*
X263060Y472400D01*
X260500Y467480D01*
X258600Y462280D01*
X257360Y456900D01*
X256840Y451380D01*
X257000Y445860D01*
X257900Y440379D01*
X259460Y435080D01*
X261700Y430020D01*
X264580Y425280D01*
X268020Y420959D01*
X272000Y417120D01*
X276440Y413800D01*
X281260Y411079D01*
X286380Y409000D01*
X291740Y407600D01*
G37*
G36*
X397239Y406900D02*
G01*
X402760Y406900D01*
X408260Y407600D01*
X413620Y409000D01*
X418740Y411079D01*
X423560Y413800D01*
X428000Y417120D01*
X431980Y420959D01*
X435420Y425300D01*
X438300Y430020D01*
X440540Y435080D01*
X442100Y440379D01*
X443000Y445860D01*
X443160Y451380D01*
X442640Y456900D01*
X441400Y462299D01*
X439500Y467480D01*
X436940Y472400D01*
X433720Y477000D01*
X419060Y495360D01*
X418420Y496540D01*
X418200Y497860D01*
X418200Y540800D01*
X418500Y542340D01*
X419380Y543640D01*
X480080Y604340D01*
X481079Y605060D01*
X482280Y605460D01*
X502560Y608580D01*
X507460Y609960D01*
X512120Y611980D01*
X516440Y614620D01*
X520379Y617820D01*
X523840Y621520D01*
X526780Y625680D01*
X529120Y630180D01*
X530820Y634960D01*
X531840Y639940D01*
X532200Y645000D01*
X531840Y650060D01*
X530820Y655040D01*
X529120Y659820D01*
X526780Y664320D01*
X523840Y668480D01*
X520379Y672180D01*
X516440Y675380D01*
X512120Y678020D01*
X507460Y680040D01*
X502560Y681420D01*
X497540Y682099D01*
X492460Y682099D01*
X487440Y681420D01*
X482540Y680040D01*
X477879Y678020D01*
X473560Y675380D01*
X469620Y672180D01*
X466160Y668480D01*
X463220Y664320D01*
X460880Y659820D01*
X459180Y655040D01*
X458140Y650020D01*
X458000Y648460D01*
X455460Y632280D01*
X455060Y631080D01*
X454340Y630080D01*
X386640Y562360D01*
X384540Y559580D01*
X383040Y556560D01*
X382120Y553340D01*
X381800Y549820D01*
X381800Y497860D01*
X381580Y496540D01*
X380940Y495360D01*
X366280Y477000D01*
X363060Y472400D01*
X360500Y467480D01*
X358600Y462299D01*
X357360Y456900D01*
X356840Y451380D01*
X357000Y445860D01*
X357900Y440379D01*
X359460Y435080D01*
X361700Y430020D01*
X364580Y425300D01*
X368020Y420959D01*
X372000Y417120D01*
X376440Y413800D01*
X381260Y411079D01*
X386380Y409000D01*
X391740Y407600D01*
G37*
G36*
X497239Y406900D02*
G01*
X502760Y406900D01*
X508260Y407600D01*
X513620Y409000D01*
X518740Y411079D01*
X523560Y413800D01*
X528000Y417120D01*
X531980Y420959D01*
X535420Y425300D01*
X538300Y430020D01*
X540540Y435080D01*
X542100Y440379D01*
X543000Y445860D01*
X543160Y451380D01*
X542640Y456900D01*
X541400Y462299D01*
X539500Y467480D01*
X536940Y472400D01*
X533720Y477000D01*
X519060Y495360D01*
X518420Y496540D01*
X518200Y497860D01*
X518200Y515800D01*
X518500Y517340D01*
X519380Y518640D01*
X588360Y587640D01*
X590460Y590420D01*
X591960Y593440D01*
X592880Y596660D01*
X593200Y600180D01*
X593200Y910680D01*
X593400Y911919D01*
X593960Y913040D01*
X603440Y926060D01*
X603840Y926520D01*
X606780Y930680D01*
X609120Y935180D01*
X610820Y939960D01*
X611840Y944940D01*
X612200Y950000D01*
X611840Y955060D01*
X610820Y960040D01*
X609120Y964820D01*
X606780Y969320D01*
X603840Y973480D01*
X600380Y977180D01*
X596440Y980380D01*
X592120Y983020D01*
X587460Y985040D01*
X582560Y986420D01*
X577540Y987099D01*
X572460Y987099D01*
X567440Y986420D01*
X562540Y985040D01*
X557880Y983020D01*
X553560Y980380D01*
X549620Y977180D01*
X546160Y973480D01*
X543220Y969320D01*
X540880Y964820D01*
X539180Y960040D01*
X538160Y955060D01*
X537800Y950000D01*
X538160Y944940D01*
X539180Y939960D01*
X540880Y935180D01*
X543220Y930680D01*
X556040Y913040D01*
X556600Y911919D01*
X556800Y910680D01*
X556800Y609200D01*
X556500Y607660D01*
X555620Y606360D01*
X486640Y537360D01*
X484540Y534580D01*
X483040Y531560D01*
X482120Y528340D01*
X481800Y524820D01*
X481800Y497860D01*
X481580Y496540D01*
X480940Y495360D01*
X466280Y477000D01*
X463060Y472400D01*
X460500Y467480D01*
X458600Y462299D01*
X457360Y456900D01*
X456840Y451380D01*
X457000Y445860D01*
X457900Y440379D01*
X459460Y435080D01*
X461700Y430020D01*
X464580Y425300D01*
X468020Y420959D01*
X472000Y417120D01*
X476440Y413800D01*
X481260Y411079D01*
X486380Y409000D01*
X491740Y407600D01*
G37*
G36*
X1594000Y407320D02*
G01*
X1594000Y444000D01*
X1557300Y444000D01*
X1557900Y440379D01*
X1559460Y435080D01*
X1561699Y430020D01*
X1564580Y425300D01*
X1568020Y420959D01*
X1572000Y417120D01*
X1576440Y413800D01*
X1581260Y411079D01*
X1586380Y409000D01*
X1591740Y407600D01*
G37*
G36*
X1557280Y456000D02*
G01*
X1594000Y456000D01*
X1594000Y492740D01*
X1589040Y491780D01*
X1583800Y490040D01*
X1578800Y487640D01*
X1574160Y484620D01*
X1569960Y481019D01*
X1566240Y476940D01*
X1563060Y472400D01*
X1560500Y467480D01*
X1558600Y462299D01*
X1557360Y456900D01*
G37*
G36*
X1948620Y456840D02*
G01*
X1954139Y457000D01*
X1959620Y457900D01*
X1964920Y459460D01*
X1969980Y461700D01*
X1974720Y464580D01*
X1979040Y468020D01*
X1982880Y472000D01*
X1986200Y476440D01*
X1988920Y481260D01*
X1991000Y486380D01*
X1992400Y491740D01*
X1993100Y497239D01*
X1993100Y502760D01*
X1992400Y508260D01*
X1991000Y513620D01*
X1988920Y518740D01*
X1986200Y523560D01*
X1982880Y528000D01*
X1979040Y531980D01*
X1974720Y535420D01*
X1969980Y538300D01*
X1964920Y540540D01*
X1959620Y542100D01*
X1954139Y543000D01*
X1948620Y543160D01*
X1943100Y542640D01*
X1937720Y541400D01*
X1932520Y539500D01*
X1927600Y536940D01*
X1923080Y533760D01*
X1918980Y530040D01*
X1915380Y525840D01*
X1912360Y521200D01*
X1909960Y516200D01*
X1908220Y510959D01*
X1907160Y505520D01*
X1906800Y500000D01*
X1907160Y494480D01*
X1908220Y489040D01*
X1909960Y483800D01*
X1912360Y478800D01*
X1915380Y474159D01*
X1918980Y469960D01*
X1923080Y466240D01*
X1927600Y463060D01*
X1932520Y460500D01*
X1937720Y458600D01*
X1943100Y457360D01*
G37*
G36*
X2048620Y456840D02*
G01*
X2054139Y457000D01*
X2059620Y457900D01*
X2064920Y459460D01*
X2069980Y461700D01*
X2074720Y464580D01*
X2079040Y468020D01*
X2082880Y472000D01*
X2086200Y476440D01*
X2088920Y481260D01*
X2091000Y486380D01*
X2092400Y491740D01*
X2093100Y497239D01*
X2093100Y502760D01*
X2092400Y508260D01*
X2091000Y513620D01*
X2088920Y518740D01*
X2086200Y523560D01*
X2082880Y528000D01*
X2079040Y531980D01*
X2074720Y535420D01*
X2069980Y538300D01*
X2064920Y540540D01*
X2059620Y542100D01*
X2054139Y543000D01*
X2048620Y543160D01*
X2043100Y542640D01*
X2037720Y541400D01*
X2032520Y539500D01*
X2027600Y536940D01*
X2023080Y533760D01*
X2018980Y530040D01*
X2015380Y525840D01*
X2012360Y521200D01*
X2009960Y516200D01*
X2008220Y510959D01*
X2007160Y505520D01*
X2006800Y500000D01*
X2007160Y494480D01*
X2008220Y489040D01*
X2009960Y483800D01*
X2012360Y478800D01*
X2015380Y474159D01*
X2018980Y469960D01*
X2023080Y466240D01*
X2027600Y463060D01*
X2032520Y460500D01*
X2037720Y458600D01*
X2043100Y457360D01*
G37*
G36*
X2448620Y456840D02*
G01*
X2454140Y457000D01*
X2459620Y457900D01*
X2464920Y459460D01*
X2469980Y461700D01*
X2474720Y464580D01*
X2479040Y468020D01*
X2482880Y472000D01*
X2486200Y476440D01*
X2488920Y481260D01*
X2491000Y486380D01*
X2492400Y491740D01*
X2493100Y497239D01*
X2493100Y502760D01*
X2492400Y508260D01*
X2491000Y513620D01*
X2488920Y518740D01*
X2486200Y523560D01*
X2482880Y528000D01*
X2479040Y531980D01*
X2474720Y535420D01*
X2469980Y538300D01*
X2464920Y540540D01*
X2459620Y542100D01*
X2454140Y543000D01*
X2448620Y543160D01*
X2443100Y542640D01*
X2437720Y541400D01*
X2432520Y539500D01*
X2427600Y536940D01*
X2423080Y533760D01*
X2418980Y530040D01*
X2415380Y525840D01*
X2412360Y521200D01*
X2409960Y516200D01*
X2408220Y510959D01*
X2407160Y505520D01*
X2406800Y500000D01*
X2407160Y494480D01*
X2408220Y489040D01*
X2409960Y483800D01*
X2412360Y478800D01*
X2415380Y474159D01*
X2418980Y469960D01*
X2423080Y466240D01*
X2427600Y463060D01*
X2432520Y460500D01*
X2437720Y458600D01*
X2443100Y457360D01*
G37*
G36*
X2248620Y456840D02*
G01*
X2254140Y457000D01*
X2259620Y457900D01*
X2264920Y459460D01*
X2269980Y461700D01*
X2274720Y464580D01*
X2279040Y468020D01*
X2282880Y472000D01*
X2286200Y476440D01*
X2288920Y481260D01*
X2291000Y486380D01*
X2292400Y491740D01*
X2293100Y497239D01*
X2293100Y502760D01*
X2292400Y508260D01*
X2291000Y513620D01*
X2288920Y518740D01*
X2286200Y523560D01*
X2282880Y528000D01*
X2279040Y531980D01*
X2274720Y535420D01*
X2269980Y538300D01*
X2264920Y540540D01*
X2259620Y542100D01*
X2254140Y543000D01*
X2248620Y543160D01*
X2243100Y542640D01*
X2237720Y541400D01*
X2232520Y539500D01*
X2227600Y536940D01*
X2223080Y533760D01*
X2218980Y530040D01*
X2215380Y525840D01*
X2212360Y521200D01*
X2209960Y516200D01*
X2208220Y510959D01*
X2207160Y505520D01*
X2206800Y500000D01*
X2207160Y494480D01*
X2208220Y489040D01*
X2209960Y483800D01*
X2212360Y478800D01*
X2215380Y474159D01*
X2218980Y469960D01*
X2223080Y466240D01*
X2227600Y463060D01*
X2232520Y460500D01*
X2237720Y458600D01*
X2243100Y457360D01*
G37*
G36*
X2148620Y456840D02*
G01*
X2154140Y457000D01*
X2159620Y457900D01*
X2164920Y459460D01*
X2169980Y461700D01*
X2174720Y464580D01*
X2179040Y468020D01*
X2182880Y472000D01*
X2186200Y476440D01*
X2188920Y481260D01*
X2191000Y486380D01*
X2192400Y491740D01*
X2193100Y497239D01*
X2193100Y502760D01*
X2192400Y508260D01*
X2191000Y513620D01*
X2188920Y518740D01*
X2186200Y523560D01*
X2182880Y528000D01*
X2179040Y531980D01*
X2174720Y535420D01*
X2169980Y538300D01*
X2164920Y540540D01*
X2159620Y542100D01*
X2154140Y543000D01*
X2148620Y543160D01*
X2143100Y542640D01*
X2137720Y541400D01*
X2132520Y539500D01*
X2127600Y536940D01*
X2123080Y533760D01*
X2118980Y530040D01*
X2115380Y525840D01*
X2112360Y521200D01*
X2109960Y516200D01*
X2108220Y510959D01*
X2107160Y505520D01*
X2106800Y500000D01*
X2107160Y494480D01*
X2108220Y489040D01*
X2109960Y483800D01*
X2112360Y478800D01*
X2115380Y474159D01*
X2118980Y469960D01*
X2123080Y466240D01*
X2127600Y463060D01*
X2132520Y460500D01*
X2137720Y458600D01*
X2143100Y457360D01*
G37*
G36*
X1848620Y456840D02*
G01*
X1854139Y457000D01*
X1859620Y457900D01*
X1864920Y459460D01*
X1869980Y461700D01*
X1874720Y464580D01*
X1879040Y468020D01*
X1882880Y472000D01*
X1886200Y476440D01*
X1888920Y481260D01*
X1891000Y486380D01*
X1892400Y491740D01*
X1893100Y497239D01*
X1893100Y502760D01*
X1892400Y508260D01*
X1891000Y513620D01*
X1888920Y518740D01*
X1886200Y523560D01*
X1882880Y528000D01*
X1879040Y531980D01*
X1874720Y535420D01*
X1869980Y538300D01*
X1864920Y540540D01*
X1859620Y542100D01*
X1854139Y543000D01*
X1848620Y543160D01*
X1843100Y542640D01*
X1837720Y541400D01*
X1832520Y539500D01*
X1827600Y536940D01*
X1823080Y533760D01*
X1818980Y530040D01*
X1815380Y525840D01*
X1812360Y521200D01*
X1809960Y516200D01*
X1808220Y510959D01*
X1807160Y505520D01*
X1806800Y500000D01*
X1807160Y494480D01*
X1808220Y489040D01*
X1809960Y483800D01*
X1812360Y478800D01*
X1815380Y474159D01*
X1818980Y469960D01*
X1823080Y466240D01*
X1827600Y463060D01*
X1832520Y460500D01*
X1837720Y458600D01*
X1843100Y457360D01*
G37*
G36*
X2548620Y456840D02*
G01*
X2554140Y457000D01*
X2559620Y457900D01*
X2564920Y459460D01*
X2569980Y461700D01*
X2574720Y464580D01*
X2579040Y468020D01*
X2582880Y472000D01*
X2586200Y476440D01*
X2588920Y481260D01*
X2591000Y486380D01*
X2592400Y491740D01*
X2593100Y497239D01*
X2593100Y502760D01*
X2592400Y508260D01*
X2591000Y513620D01*
X2588920Y518740D01*
X2586200Y523560D01*
X2582880Y528000D01*
X2579040Y531980D01*
X2574720Y535420D01*
X2569980Y538300D01*
X2564920Y540540D01*
X2559620Y542100D01*
X2554140Y543000D01*
X2548620Y543160D01*
X2543100Y542640D01*
X2537720Y541400D01*
X2532520Y539500D01*
X2527600Y536940D01*
X2523080Y533760D01*
X2518980Y530040D01*
X2515380Y525840D01*
X2512360Y521200D01*
X2509960Y516200D01*
X2508220Y510959D01*
X2507160Y505520D01*
X2506800Y500000D01*
X2507160Y494480D01*
X2508220Y489040D01*
X2509960Y483800D01*
X2512360Y478800D01*
X2515380Y474159D01*
X2518980Y469960D01*
X2523080Y466240D01*
X2527600Y463060D01*
X2532520Y460500D01*
X2537720Y458600D01*
X2543100Y457360D01*
G37*
G36*
X2348620Y456840D02*
G01*
X2354140Y457000D01*
X2359620Y457900D01*
X2364920Y459460D01*
X2369980Y461700D01*
X2374720Y464580D01*
X2379040Y468020D01*
X2382880Y472000D01*
X2386200Y476440D01*
X2388920Y481260D01*
X2391000Y486380D01*
X2392400Y491740D01*
X2393100Y497239D01*
X2393100Y502760D01*
X2392400Y508260D01*
X2391000Y513620D01*
X2388920Y518740D01*
X2386200Y523560D01*
X2382880Y528000D01*
X2379040Y531980D01*
X2374720Y535420D01*
X2369980Y538300D01*
X2364920Y540540D01*
X2359620Y542100D01*
X2354140Y543000D01*
X2348620Y543160D01*
X2343100Y542640D01*
X2337720Y541400D01*
X2332520Y539500D01*
X2327600Y536940D01*
X2323080Y533760D01*
X2318980Y530040D01*
X2315380Y525840D01*
X2312360Y521200D01*
X2309960Y516200D01*
X2308220Y510959D01*
X2307160Y505520D01*
X2306800Y500000D01*
X2307160Y494480D01*
X2308220Y489040D01*
X2309960Y483800D01*
X2312360Y478800D01*
X2315380Y474159D01*
X2318980Y469960D01*
X2323080Y466240D01*
X2327600Y463060D01*
X2332520Y460500D01*
X2337720Y458600D01*
X2343100Y457360D01*
G37*
G36*
X2648620Y456840D02*
G01*
X2654140Y457000D01*
X2659620Y457900D01*
X2664920Y459460D01*
X2669980Y461700D01*
X2674720Y464580D01*
X2679040Y468020D01*
X2682880Y472000D01*
X2686200Y476440D01*
X2688920Y481260D01*
X2691000Y486380D01*
X2692400Y491740D01*
X2693100Y497239D01*
X2693100Y502760D01*
X2692400Y508260D01*
X2691000Y513620D01*
X2688920Y518740D01*
X2686200Y523560D01*
X2682880Y528000D01*
X2679040Y531980D01*
X2674720Y535420D01*
X2669980Y538300D01*
X2664920Y540540D01*
X2659620Y542100D01*
X2654140Y543000D01*
X2648620Y543160D01*
X2643100Y542640D01*
X2637720Y541400D01*
X2632520Y539500D01*
X2627600Y536940D01*
X2623080Y533760D01*
X2618980Y530040D01*
X2615380Y525840D01*
X2612360Y521200D01*
X2609960Y516200D01*
X2608220Y510959D01*
X2607160Y505520D01*
X2606800Y500000D01*
X2607160Y494480D01*
X2608220Y489040D01*
X2609960Y483800D01*
X2612360Y478800D01*
X2615380Y474159D01*
X2618980Y469960D01*
X2623080Y466240D01*
X2627600Y463060D01*
X2632520Y460500D01*
X2637720Y458600D01*
X2643100Y457360D01*
G37*
G36*
X181000Y506800D02*
G01*
X205799Y506800D01*
X208380Y507060D01*
X210660Y507740D01*
X212760Y508880D01*
X214620Y510379D01*
X216119Y512239D01*
X217260Y514340D01*
X217940Y516620D01*
X218200Y519200D01*
X218200Y544000D01*
X181000Y544000D01*
G37*
G36*
X144200Y506800D02*
G01*
X169000Y506800D01*
X169000Y544000D01*
X131800Y544000D01*
X131800Y519200D01*
X132060Y516620D01*
X132740Y514340D01*
X133880Y512239D01*
X135380Y510379D01*
X137240Y508880D01*
X139340Y507740D01*
X141620Y507060D01*
G37*
G36*
X1477460Y532900D02*
G01*
X1482540Y532900D01*
X1487560Y533580D01*
X1492460Y534960D01*
X1497120Y536980D01*
X1501440Y539620D01*
X1505380Y542820D01*
X1508839Y546520D01*
X1511780Y550680D01*
X1514120Y555180D01*
X1515820Y559960D01*
X1516840Y564940D01*
X1517200Y570000D01*
X1516840Y575060D01*
X1515820Y580040D01*
X1514120Y584820D01*
X1511780Y589320D01*
X1508839Y593480D01*
X1505380Y597180D01*
X1501440Y600380D01*
X1497120Y603020D01*
X1492460Y605040D01*
X1487560Y606420D01*
X1483460Y607000D01*
X1467280Y609540D01*
X1466080Y609920D01*
X1465080Y610660D01*
X1046720Y1029020D01*
X1045939Y1030120D01*
X1045560Y1031400D01*
X1043080Y1053120D01*
X1042920Y1054020D01*
X1042640Y1056900D01*
X1041400Y1062300D01*
X1039500Y1067480D01*
X1036940Y1072400D01*
X1033760Y1076940D01*
X1030040Y1081020D01*
X1025840Y1084620D01*
X1021200Y1087640D01*
X1016200Y1090040D01*
X1010960Y1091780D01*
X1005520Y1092840D01*
X1000000Y1093200D01*
X994479Y1092840D01*
X989040Y1091780D01*
X983800Y1090040D01*
X978800Y1087640D01*
X974160Y1084620D01*
X969960Y1081020D01*
X966240Y1076940D01*
X963060Y1072400D01*
X960500Y1067480D01*
X958600Y1062300D01*
X957360Y1056900D01*
X956840Y1051380D01*
X957000Y1045860D01*
X957900Y1040380D01*
X959460Y1035080D01*
X961700Y1030020D01*
X964580Y1025300D01*
X968020Y1020960D01*
X972000Y1017120D01*
X976440Y1013800D01*
X981260Y1011080D01*
X986380Y1009000D01*
X991760Y1007600D01*
X996720Y1006940D01*
X1018600Y1004440D01*
X1019880Y1004060D01*
X1020980Y1003280D01*
X1439340Y584920D01*
X1440080Y583920D01*
X1440460Y582720D01*
X1443020Y566280D01*
X1443140Y564980D01*
X1444180Y559960D01*
X1445880Y555180D01*
X1448220Y550680D01*
X1451160Y546520D01*
X1454620Y542820D01*
X1458560Y539620D01*
X1462880Y536980D01*
X1467540Y534960D01*
X1472440Y533580D01*
G37*
G36*
X131800Y556000D02*
G01*
X169000Y556000D01*
X169000Y593200D01*
X144200Y593200D01*
X141620Y592940D01*
X139340Y592260D01*
X137240Y591120D01*
X135380Y589620D01*
X133880Y587760D01*
X132740Y585660D01*
X132060Y583380D01*
X131800Y580800D01*
G37*
G36*
X181000Y556000D02*
G01*
X218200Y556000D01*
X218200Y580800D01*
X217940Y583380D01*
X217260Y585660D01*
X216119Y587760D01*
X214620Y589620D01*
X212760Y591120D01*
X210660Y592260D01*
X208380Y592940D01*
X205799Y593200D01*
X181000Y593200D01*
G37*
G36*
X1252460Y557900D02*
G01*
X1257540Y557900D01*
X1262560Y558580D01*
X1267460Y559960D01*
X1272120Y561980D01*
X1276440Y564620D01*
X1280380Y567820D01*
X1283839Y571520D01*
X1286780Y575680D01*
X1289120Y580180D01*
X1290820Y584960D01*
X1291840Y589940D01*
X1292200Y595000D01*
X1291840Y600060D01*
X1290820Y605040D01*
X1289120Y609820D01*
X1286780Y614320D01*
X1283839Y618480D01*
X1280380Y622180D01*
X1276440Y625380D01*
X1272120Y628020D01*
X1267460Y630040D01*
X1262560Y631420D01*
X1258460Y632000D01*
X1242280Y634540D01*
X1241080Y634920D01*
X1240080Y635660D01*
X846720Y1029020D01*
X845939Y1030120D01*
X845560Y1031400D01*
X843080Y1053120D01*
X842920Y1054020D01*
X842640Y1056900D01*
X841400Y1062300D01*
X839500Y1067480D01*
X836940Y1072400D01*
X833760Y1076940D01*
X830040Y1081020D01*
X825840Y1084620D01*
X821200Y1087640D01*
X816200Y1090040D01*
X810960Y1091780D01*
X805520Y1092840D01*
X800000Y1093200D01*
X794479Y1092840D01*
X789040Y1091780D01*
X783800Y1090040D01*
X778800Y1087640D01*
X774160Y1084620D01*
X769960Y1081020D01*
X766240Y1076940D01*
X763060Y1072400D01*
X760500Y1067480D01*
X758600Y1062300D01*
X757360Y1056900D01*
X756840Y1051380D01*
X757000Y1045860D01*
X757900Y1040380D01*
X759460Y1035080D01*
X761700Y1030020D01*
X764580Y1025300D01*
X768020Y1020960D01*
X772000Y1017120D01*
X776440Y1013800D01*
X781260Y1011080D01*
X786380Y1009000D01*
X791760Y1007600D01*
X796720Y1006940D01*
X818600Y1004440D01*
X819880Y1004060D01*
X820980Y1003280D01*
X1214340Y609920D01*
X1215060Y608920D01*
X1215460Y607720D01*
X1218020Y591280D01*
X1218140Y589980D01*
X1219180Y584960D01*
X1220880Y580180D01*
X1223220Y575680D01*
X1226160Y571520D01*
X1229620Y567820D01*
X1233560Y564620D01*
X1237880Y561980D01*
X1242540Y559960D01*
X1247440Y558580D01*
G37*
G36*
X2448620Y756840D02*
G01*
X2454140Y757000D01*
X2459620Y757900D01*
X2464920Y759460D01*
X2469980Y761700D01*
X2474720Y764580D01*
X2479040Y768020D01*
X2482880Y772000D01*
X2486200Y776440D01*
X2488920Y781260D01*
X2491000Y786380D01*
X2492400Y791740D01*
X2493100Y797240D01*
X2493100Y802760D01*
X2492400Y808259D01*
X2491000Y813620D01*
X2488920Y818740D01*
X2486200Y823560D01*
X2482880Y828000D01*
X2479040Y831979D01*
X2474720Y835420D01*
X2469980Y838300D01*
X2464920Y840540D01*
X2459620Y842099D01*
X2454140Y843000D01*
X2448620Y843160D01*
X2443100Y842640D01*
X2437720Y841400D01*
X2432520Y839500D01*
X2427600Y836940D01*
X2423080Y833760D01*
X2418980Y830040D01*
X2415380Y825840D01*
X2412360Y821200D01*
X2409960Y816200D01*
X2408220Y810960D01*
X2407160Y805520D01*
X2406800Y800000D01*
X2407160Y794479D01*
X2408220Y789040D01*
X2409960Y783800D01*
X2412360Y778800D01*
X2415380Y774160D01*
X2418980Y769960D01*
X2423080Y766240D01*
X2427600Y763060D01*
X2432520Y760500D01*
X2437720Y758600D01*
X2443100Y757360D01*
G37*
G36*
X2048620Y756840D02*
G01*
X2054139Y757000D01*
X2059620Y757900D01*
X2064920Y759460D01*
X2069980Y761700D01*
X2074720Y764580D01*
X2079040Y768020D01*
X2082880Y772000D01*
X2086200Y776440D01*
X2088920Y781260D01*
X2091000Y786380D01*
X2092400Y791740D01*
X2093100Y797240D01*
X2093100Y802760D01*
X2092400Y808259D01*
X2091000Y813620D01*
X2088920Y818740D01*
X2086200Y823560D01*
X2082880Y828000D01*
X2079040Y831979D01*
X2074720Y835420D01*
X2069980Y838300D01*
X2064920Y840540D01*
X2059620Y842099D01*
X2054139Y843000D01*
X2048620Y843160D01*
X2043100Y842640D01*
X2037720Y841400D01*
X2032520Y839500D01*
X2027600Y836940D01*
X2023080Y833760D01*
X2018980Y830040D01*
X2015380Y825840D01*
X2012360Y821200D01*
X2009960Y816200D01*
X2008220Y810960D01*
X2007160Y805520D01*
X2006800Y800000D01*
X2007160Y794479D01*
X2008220Y789040D01*
X2009960Y783800D01*
X2012360Y778800D01*
X2015380Y774160D01*
X2018980Y769960D01*
X2023080Y766240D01*
X2027600Y763060D01*
X2032520Y760500D01*
X2037720Y758600D01*
X2043100Y757360D01*
G37*
G36*
X1948620Y756840D02*
G01*
X1954139Y757000D01*
X1959620Y757900D01*
X1964920Y759460D01*
X1969980Y761700D01*
X1974720Y764580D01*
X1979040Y768020D01*
X1982880Y772000D01*
X1986200Y776440D01*
X1988920Y781260D01*
X1991000Y786380D01*
X1992400Y791740D01*
X1993100Y797240D01*
X1993100Y802760D01*
X1992400Y808259D01*
X1991000Y813620D01*
X1988920Y818740D01*
X1986200Y823560D01*
X1982880Y828000D01*
X1979040Y831979D01*
X1974720Y835420D01*
X1969980Y838300D01*
X1964920Y840540D01*
X1959620Y842099D01*
X1954139Y843000D01*
X1948620Y843160D01*
X1943100Y842640D01*
X1937720Y841400D01*
X1932520Y839500D01*
X1927600Y836940D01*
X1923080Y833760D01*
X1918980Y830040D01*
X1915380Y825840D01*
X1912360Y821200D01*
X1909960Y816200D01*
X1908220Y810960D01*
X1907160Y805520D01*
X1906800Y800000D01*
X1907160Y794479D01*
X1908220Y789040D01*
X1909960Y783800D01*
X1912360Y778800D01*
X1915380Y774160D01*
X1918980Y769960D01*
X1923080Y766240D01*
X1927600Y763060D01*
X1932520Y760500D01*
X1937720Y758600D01*
X1943100Y757360D01*
G37*
G36*
X2548620Y756840D02*
G01*
X2554140Y757000D01*
X2559620Y757900D01*
X2564920Y759460D01*
X2569980Y761700D01*
X2574720Y764580D01*
X2579040Y768020D01*
X2582880Y772000D01*
X2586200Y776440D01*
X2588920Y781260D01*
X2591000Y786380D01*
X2592400Y791740D01*
X2593100Y797240D01*
X2593100Y802760D01*
X2592400Y808259D01*
X2591000Y813620D01*
X2588920Y818740D01*
X2586200Y823560D01*
X2582880Y828000D01*
X2579040Y831979D01*
X2574720Y835420D01*
X2569980Y838300D01*
X2564920Y840540D01*
X2559620Y842099D01*
X2554140Y843000D01*
X2548620Y843160D01*
X2543100Y842640D01*
X2537720Y841400D01*
X2532520Y839500D01*
X2527600Y836940D01*
X2523080Y833760D01*
X2518980Y830040D01*
X2515380Y825840D01*
X2512360Y821200D01*
X2509960Y816200D01*
X2508220Y810960D01*
X2507160Y805520D01*
X2506800Y800000D01*
X2507160Y794479D01*
X2508220Y789040D01*
X2509960Y783800D01*
X2512360Y778800D01*
X2515380Y774160D01*
X2518980Y769960D01*
X2523080Y766240D01*
X2527600Y763060D01*
X2532520Y760500D01*
X2537720Y758600D01*
X2543100Y757360D01*
G37*
G36*
X1848620Y756840D02*
G01*
X1854139Y757000D01*
X1859620Y757900D01*
X1864920Y759460D01*
X1869980Y761700D01*
X1874720Y764580D01*
X1879040Y768020D01*
X1882880Y772000D01*
X1886200Y776440D01*
X1888920Y781260D01*
X1891000Y786380D01*
X1892400Y791740D01*
X1893100Y797240D01*
X1893100Y802760D01*
X1892400Y808259D01*
X1891000Y813620D01*
X1888920Y818740D01*
X1886200Y823560D01*
X1882880Y828000D01*
X1879040Y831979D01*
X1874720Y835420D01*
X1869980Y838300D01*
X1864920Y840540D01*
X1859620Y842099D01*
X1854139Y843000D01*
X1848620Y843160D01*
X1843100Y842640D01*
X1837720Y841400D01*
X1832520Y839500D01*
X1827600Y836940D01*
X1823080Y833760D01*
X1818980Y830040D01*
X1815380Y825840D01*
X1812360Y821200D01*
X1809960Y816200D01*
X1808220Y810960D01*
X1807160Y805520D01*
X1806800Y800000D01*
X1807160Y794479D01*
X1808220Y789040D01*
X1809960Y783800D01*
X1812360Y778800D01*
X1815380Y774160D01*
X1818980Y769960D01*
X1823080Y766240D01*
X1827600Y763060D01*
X1832520Y760500D01*
X1837720Y758600D01*
X1843100Y757360D01*
G37*
G36*
X2648620Y756840D02*
G01*
X2654140Y757000D01*
X2659620Y757900D01*
X2664920Y759460D01*
X2669980Y761700D01*
X2674720Y764580D01*
X2679040Y768020D01*
X2682880Y772000D01*
X2686200Y776440D01*
X2688920Y781260D01*
X2691000Y786380D01*
X2692400Y791740D01*
X2693100Y797240D01*
X2693100Y802760D01*
X2692400Y808259D01*
X2691000Y813620D01*
X2688920Y818740D01*
X2686200Y823560D01*
X2682880Y828000D01*
X2679040Y831979D01*
X2674720Y835420D01*
X2669980Y838300D01*
X2664920Y840540D01*
X2659620Y842099D01*
X2654140Y843000D01*
X2648620Y843160D01*
X2643100Y842640D01*
X2637720Y841400D01*
X2632520Y839500D01*
X2627600Y836940D01*
X2623080Y833760D01*
X2618980Y830040D01*
X2615380Y825840D01*
X2612360Y821200D01*
X2609960Y816200D01*
X2608220Y810960D01*
X2607160Y805520D01*
X2606800Y800000D01*
X2607160Y794479D01*
X2608220Y789040D01*
X2609960Y783800D01*
X2612360Y778800D01*
X2615380Y774160D01*
X2618980Y769960D01*
X2623080Y766240D01*
X2627600Y763060D01*
X2632520Y760500D01*
X2637720Y758600D01*
X2643100Y757360D01*
G37*
G36*
X2348620Y756840D02*
G01*
X2354140Y757000D01*
X2359620Y757900D01*
X2364920Y759460D01*
X2369980Y761700D01*
X2374720Y764580D01*
X2379040Y768020D01*
X2382880Y772000D01*
X2386200Y776440D01*
X2388920Y781260D01*
X2391000Y786380D01*
X2392400Y791740D01*
X2393100Y797240D01*
X2393100Y802760D01*
X2392400Y808259D01*
X2391000Y813620D01*
X2388920Y818740D01*
X2386200Y823560D01*
X2382880Y828000D01*
X2379040Y831979D01*
X2374720Y835420D01*
X2369980Y838300D01*
X2364920Y840540D01*
X2359620Y842099D01*
X2354140Y843000D01*
X2348620Y843160D01*
X2343100Y842640D01*
X2337720Y841400D01*
X2332520Y839500D01*
X2327600Y836940D01*
X2323080Y833760D01*
X2318980Y830040D01*
X2315380Y825840D01*
X2312360Y821200D01*
X2309960Y816200D01*
X2308220Y810960D01*
X2307160Y805520D01*
X2306800Y800000D01*
X2307160Y794479D01*
X2308220Y789040D01*
X2309960Y783800D01*
X2312360Y778800D01*
X2315380Y774160D01*
X2318980Y769960D01*
X2323080Y766240D01*
X2327600Y763060D01*
X2332520Y760500D01*
X2337720Y758600D01*
X2343100Y757360D01*
G37*
G36*
X2148620Y756840D02*
G01*
X2154140Y757000D01*
X2159620Y757900D01*
X2164920Y759460D01*
X2169980Y761700D01*
X2174720Y764580D01*
X2179040Y768020D01*
X2182880Y772000D01*
X2186200Y776440D01*
X2188920Y781260D01*
X2191000Y786380D01*
X2192400Y791740D01*
X2193100Y797240D01*
X2193100Y802760D01*
X2192400Y808259D01*
X2191000Y813620D01*
X2188920Y818740D01*
X2186200Y823560D01*
X2182880Y828000D01*
X2179040Y831979D01*
X2174720Y835420D01*
X2169980Y838300D01*
X2164920Y840540D01*
X2159620Y842099D01*
X2154140Y843000D01*
X2148620Y843160D01*
X2143100Y842640D01*
X2137720Y841400D01*
X2132520Y839500D01*
X2127600Y836940D01*
X2123080Y833760D01*
X2118980Y830040D01*
X2115380Y825840D01*
X2112360Y821200D01*
X2109960Y816200D01*
X2108220Y810960D01*
X2107160Y805520D01*
X2106800Y800000D01*
X2107160Y794479D01*
X2108220Y789040D01*
X2109960Y783800D01*
X2112360Y778800D01*
X2115380Y774160D01*
X2118980Y769960D01*
X2123080Y766240D01*
X2127600Y763060D01*
X2132520Y760500D01*
X2137720Y758600D01*
X2143100Y757360D01*
G37*
G36*
X2244000Y757280D02*
G01*
X2244000Y794000D01*
X2207260Y794000D01*
X2208220Y789040D01*
X2209960Y783800D01*
X2212360Y778800D01*
X2215380Y774160D01*
X2218980Y769960D01*
X2223080Y766240D01*
X2227600Y763060D01*
X2232520Y760500D01*
X2237720Y758600D01*
X2243100Y757360D01*
G37*
G36*
X2256000Y757300D02*
G01*
X2259620Y757900D01*
X2264920Y759460D01*
X2269980Y761700D01*
X2274720Y764580D01*
X2279040Y768020D01*
X2282880Y772000D01*
X2286200Y776440D01*
X2288920Y781260D01*
X2291000Y786380D01*
X2292400Y791740D01*
X2292680Y794000D01*
X2256000Y794000D01*
G37*
G36*
X497460Y762900D02*
G01*
X502540Y762900D01*
X507560Y763580D01*
X512460Y764960D01*
X517120Y766979D01*
X521440Y769620D01*
X525380Y772820D01*
X528840Y776520D01*
X531780Y780680D01*
X534120Y785180D01*
X535820Y789960D01*
X536840Y794940D01*
X537200Y800000D01*
X536840Y805060D01*
X535820Y810040D01*
X534120Y814820D01*
X531780Y819320D01*
X518960Y836960D01*
X518400Y838080D01*
X518200Y839320D01*
X518200Y1002140D01*
X518420Y1003460D01*
X519060Y1004620D01*
X535420Y1025300D01*
X538300Y1030020D01*
X540540Y1035080D01*
X542100Y1040380D01*
X543000Y1045860D01*
X543160Y1051380D01*
X542640Y1056900D01*
X541400Y1062300D01*
X539500Y1067480D01*
X536940Y1072400D01*
X533760Y1076940D01*
X530040Y1081020D01*
X525840Y1084620D01*
X521200Y1087640D01*
X516200Y1090040D01*
X510959Y1091780D01*
X505520Y1092840D01*
X500000Y1093200D01*
X494480Y1092840D01*
X489040Y1091780D01*
X483800Y1090040D01*
X478800Y1087640D01*
X474159Y1084620D01*
X469960Y1081020D01*
X466240Y1076940D01*
X463060Y1072400D01*
X460500Y1067480D01*
X458600Y1062300D01*
X457360Y1056900D01*
X456840Y1051380D01*
X457000Y1045860D01*
X457900Y1040380D01*
X459460Y1035080D01*
X461700Y1030020D01*
X464580Y1025300D01*
X467299Y1021780D01*
X480940Y1004620D01*
X481580Y1003460D01*
X481800Y1002140D01*
X481800Y839320D01*
X481599Y838080D01*
X481040Y836960D01*
X471560Y823940D01*
X471160Y823480D01*
X468220Y819320D01*
X465880Y814820D01*
X464180Y810040D01*
X463160Y805060D01*
X462800Y800000D01*
X463160Y794940D01*
X464180Y789960D01*
X465880Y785180D01*
X468220Y780680D01*
X471160Y776520D01*
X474620Y772820D01*
X478560Y769620D01*
X482879Y766979D01*
X487540Y764960D01*
X492440Y763580D01*
G37*
G36*
X2256000Y806000D02*
G01*
X2292680Y806000D01*
X2292400Y808259D01*
X2291000Y813620D01*
X2288920Y818740D01*
X2286200Y823560D01*
X2282880Y828000D01*
X2279040Y831979D01*
X2274720Y835420D01*
X2269980Y838300D01*
X2264920Y840540D01*
X2259620Y842099D01*
X2256000Y842700D01*
G37*
G36*
X2207260Y806000D02*
G01*
X2244000Y806000D01*
X2244000Y842720D01*
X2243100Y842640D01*
X2237720Y841400D01*
X2232520Y839500D01*
X2227600Y836940D01*
X2223080Y833760D01*
X2218980Y830040D01*
X2215380Y825840D01*
X2212360Y821200D01*
X2209960Y816200D01*
X2208220Y810960D01*
G37*
G36*
X897460Y812900D02*
G01*
X902540Y812900D01*
X907560Y813580D01*
X912460Y814960D01*
X917120Y816979D01*
X921440Y819620D01*
X925380Y822820D01*
X928840Y826520D01*
X931780Y830680D01*
X934120Y835180D01*
X935819Y839960D01*
X936840Y844940D01*
X937200Y850000D01*
X936840Y855060D01*
X935819Y860040D01*
X934120Y864820D01*
X931780Y869320D01*
X928840Y873480D01*
X925380Y877180D01*
X921440Y880380D01*
X917120Y883020D01*
X912460Y885040D01*
X907560Y886420D01*
X903460Y887000D01*
X887280Y889539D01*
X886080Y889920D01*
X885080Y890660D01*
X746720Y1029020D01*
X745939Y1030120D01*
X745560Y1031400D01*
X743080Y1053120D01*
X742920Y1054020D01*
X742640Y1056900D01*
X741400Y1062300D01*
X739500Y1067480D01*
X736940Y1072400D01*
X733760Y1076940D01*
X730040Y1081020D01*
X725840Y1084620D01*
X721200Y1087640D01*
X716200Y1090040D01*
X710960Y1091780D01*
X705520Y1092840D01*
X700000Y1093200D01*
X694479Y1092840D01*
X689040Y1091780D01*
X683800Y1090040D01*
X678800Y1087640D01*
X674160Y1084620D01*
X669960Y1081020D01*
X666240Y1076940D01*
X663060Y1072400D01*
X660500Y1067480D01*
X658600Y1062300D01*
X657360Y1056900D01*
X656840Y1051380D01*
X657000Y1045860D01*
X657900Y1040380D01*
X659460Y1035080D01*
X661700Y1030020D01*
X664580Y1025300D01*
X668020Y1020960D01*
X672000Y1017120D01*
X676440Y1013800D01*
X681260Y1011080D01*
X686380Y1009000D01*
X691760Y1007600D01*
X696720Y1006940D01*
X718600Y1004440D01*
X719880Y1004060D01*
X720980Y1003280D01*
X859340Y864920D01*
X860060Y863920D01*
X860460Y862720D01*
X863020Y846280D01*
X863139Y844980D01*
X864180Y839960D01*
X865879Y835180D01*
X868220Y830680D01*
X871160Y826520D01*
X874620Y822820D01*
X878560Y819620D01*
X882880Y816979D01*
X887540Y814960D01*
X892440Y813580D01*
G37*
G36*
X397460Y837900D02*
G01*
X402540Y837900D01*
X407560Y838580D01*
X412460Y839960D01*
X417120Y841979D01*
X421440Y844620D01*
X425379Y847820D01*
X428840Y851520D01*
X431780Y855680D01*
X434120Y860180D01*
X435820Y864960D01*
X436840Y869940D01*
X437200Y875000D01*
X436840Y880060D01*
X435820Y885040D01*
X434120Y889820D01*
X431780Y894320D01*
X418960Y911960D01*
X418400Y913080D01*
X418200Y914320D01*
X418200Y1002140D01*
X418420Y1003460D01*
X419060Y1004620D01*
X435420Y1025300D01*
X438300Y1030020D01*
X440540Y1035080D01*
X442100Y1040380D01*
X443000Y1045860D01*
X443160Y1051380D01*
X442640Y1056900D01*
X441400Y1062300D01*
X439500Y1067480D01*
X436940Y1072400D01*
X433760Y1076940D01*
X430040Y1081020D01*
X425840Y1084620D01*
X421200Y1087640D01*
X416200Y1090040D01*
X410959Y1091780D01*
X405520Y1092840D01*
X400000Y1093200D01*
X394480Y1092840D01*
X389040Y1091780D01*
X383800Y1090040D01*
X378800Y1087640D01*
X374159Y1084620D01*
X369960Y1081020D01*
X366240Y1076940D01*
X363060Y1072400D01*
X360500Y1067480D01*
X358600Y1062300D01*
X357360Y1056900D01*
X356840Y1051380D01*
X357000Y1045860D01*
X357900Y1040380D01*
X359460Y1035080D01*
X361700Y1030020D01*
X364580Y1025300D01*
X367299Y1021780D01*
X380940Y1004620D01*
X381580Y1003460D01*
X381800Y1002140D01*
X381800Y914320D01*
X381599Y913080D01*
X381040Y911960D01*
X371560Y898940D01*
X371160Y898480D01*
X368220Y894320D01*
X365880Y889820D01*
X364180Y885040D01*
X363160Y880060D01*
X362800Y875000D01*
X363160Y869940D01*
X364180Y864960D01*
X365880Y860180D01*
X368220Y855680D01*
X371160Y851520D01*
X374620Y847820D01*
X378560Y844620D01*
X382879Y841979D01*
X387540Y839960D01*
X392440Y838580D01*
G37*
G36*
X757460Y852900D02*
G01*
X762540Y852900D01*
X767560Y853580D01*
X772460Y854960D01*
X777120Y856979D01*
X781440Y859620D01*
X785380Y862820D01*
X788840Y866520D01*
X791780Y870680D01*
X794120Y875180D01*
X795819Y879960D01*
X796840Y884940D01*
X797200Y890000D01*
X796840Y895060D01*
X795819Y900040D01*
X794120Y904820D01*
X791780Y909320D01*
X788840Y913480D01*
X785380Y917180D01*
X781440Y920380D01*
X777120Y923020D01*
X772460Y925040D01*
X767560Y926420D01*
X763460Y927000D01*
X747280Y929539D01*
X746080Y929920D01*
X745080Y930660D01*
X646720Y1029020D01*
X645939Y1030120D01*
X645560Y1031400D01*
X643080Y1053120D01*
X642920Y1054020D01*
X642640Y1056900D01*
X641400Y1062300D01*
X639500Y1067480D01*
X636940Y1072400D01*
X633760Y1076940D01*
X630040Y1081020D01*
X625840Y1084620D01*
X621200Y1087640D01*
X616200Y1090040D01*
X610960Y1091780D01*
X605520Y1092840D01*
X600000Y1093200D01*
X594480Y1092840D01*
X589040Y1091780D01*
X583800Y1090040D01*
X578800Y1087640D01*
X574160Y1084620D01*
X569960Y1081020D01*
X566240Y1076940D01*
X563060Y1072400D01*
X560500Y1067480D01*
X558600Y1062300D01*
X557360Y1056900D01*
X556840Y1051380D01*
X557000Y1045860D01*
X557900Y1040380D01*
X559460Y1035080D01*
X561700Y1030020D01*
X564580Y1025300D01*
X568020Y1020960D01*
X572000Y1017120D01*
X576440Y1013800D01*
X581260Y1011080D01*
X586380Y1009000D01*
X591760Y1007600D01*
X596720Y1006940D01*
X618600Y1004440D01*
X619880Y1004060D01*
X620980Y1003280D01*
X719340Y904920D01*
X720060Y903920D01*
X720460Y902720D01*
X723020Y886280D01*
X723139Y884980D01*
X724180Y879960D01*
X725879Y875180D01*
X728220Y870680D01*
X731160Y866520D01*
X734620Y862820D01*
X738560Y859620D01*
X742880Y856979D01*
X747540Y854960D01*
X752440Y853580D01*
G37*
G36*
X2094520Y932000D02*
G01*
X2100120Y932000D01*
X2105700Y932700D01*
X2111120Y934100D01*
X2116340Y936160D01*
X2121260Y938860D01*
X2125800Y942159D01*
X2129880Y946000D01*
X2133460Y950320D01*
X2136460Y955060D01*
X2138860Y960140D01*
X2140580Y965480D01*
X2141640Y970980D01*
X2142000Y976580D01*
X2141640Y982180D01*
X2140580Y987680D01*
X2138860Y993020D01*
X2136460Y998100D01*
X2133460Y1002840D01*
X2129880Y1007159D01*
X2125800Y1011000D01*
X2121260Y1014300D01*
X2116340Y1017000D01*
X2111120Y1019060D01*
X2105700Y1020460D01*
X2100120Y1021160D01*
X2094520Y1021160D01*
X2088940Y1020460D01*
X2083520Y1019060D01*
X2078300Y1017000D01*
X2073380Y1014300D01*
X2068839Y1011000D01*
X2064760Y1007159D01*
X2061180Y1002840D01*
X2058180Y998100D01*
X2055780Y993020D01*
X2054060Y987680D01*
X2053000Y982180D01*
X2052640Y976580D01*
X2053000Y970980D01*
X2054060Y965480D01*
X2055780Y960140D01*
X2058180Y955060D01*
X2061180Y950320D01*
X2064760Y946000D01*
X2068839Y942159D01*
X2073380Y938860D01*
X2078300Y936160D01*
X2083520Y934100D01*
X2088940Y932700D01*
G37*
G36*
X2362240Y932000D02*
G01*
X2367840Y932000D01*
X2373420Y932700D01*
X2378840Y934100D01*
X2384060Y936160D01*
X2388980Y938860D01*
X2393520Y942159D01*
X2397600Y946000D01*
X2401180Y950320D01*
X2404180Y955060D01*
X2406580Y960140D01*
X2408300Y965480D01*
X2409360Y970980D01*
X2409720Y976580D01*
X2409360Y982180D01*
X2408300Y987680D01*
X2406580Y993020D01*
X2404180Y998100D01*
X2401180Y1002840D01*
X2397600Y1007159D01*
X2393520Y1011000D01*
X2388980Y1014300D01*
X2384060Y1017000D01*
X2378840Y1019060D01*
X2373420Y1020460D01*
X2367840Y1021160D01*
X2362240Y1021160D01*
X2356660Y1020460D01*
X2351240Y1019060D01*
X2346020Y1017000D01*
X2341100Y1014300D01*
X2336560Y1011000D01*
X2332480Y1007159D01*
X2328900Y1002840D01*
X2325900Y998100D01*
X2323500Y993020D01*
X2321780Y987680D01*
X2320720Y982180D01*
X2320360Y976580D01*
X2320720Y970980D01*
X2321780Y965480D01*
X2323500Y960140D01*
X2325900Y955060D01*
X2328900Y950320D01*
X2332480Y946000D01*
X2336560Y942159D01*
X2341100Y938860D01*
X2346020Y936160D01*
X2351240Y934100D01*
X2356660Y932700D01*
G37*
G36*
X297240Y1006900D02*
G01*
X302760Y1006900D01*
X308260Y1007600D01*
X313620Y1009000D01*
X318740Y1011080D01*
X323560Y1013800D01*
X328000Y1017120D01*
X331980Y1020960D01*
X335420Y1025300D01*
X338300Y1030020D01*
X340540Y1035080D01*
X342100Y1040380D01*
X343000Y1045860D01*
X343160Y1051380D01*
X342640Y1056900D01*
X341400Y1062300D01*
X339500Y1067480D01*
X336940Y1072400D01*
X333760Y1076940D01*
X330040Y1081020D01*
X325840Y1084620D01*
X321200Y1087640D01*
X316200Y1090040D01*
X310960Y1091780D01*
X305520Y1092840D01*
X300000Y1093200D01*
X294480Y1092840D01*
X289040Y1091780D01*
X283800Y1090040D01*
X278800Y1087640D01*
X274160Y1084620D01*
X269960Y1081020D01*
X266240Y1076940D01*
X263060Y1072400D01*
X260500Y1067480D01*
X258600Y1062300D01*
X257360Y1056900D01*
X256840Y1051380D01*
X257000Y1045860D01*
X257900Y1040380D01*
X259460Y1035080D01*
X261700Y1030020D01*
X264580Y1025300D01*
X268020Y1020960D01*
X272000Y1017120D01*
X276440Y1013800D01*
X281260Y1011080D01*
X286380Y1009000D01*
X291740Y1007600D01*
G37*
G36*
X894060Y1007320D02*
G01*
X894060Y1044000D01*
X857360Y1044000D01*
X857960Y1040380D01*
X859520Y1035080D01*
X861760Y1030020D01*
X864640Y1025300D01*
X868080Y1020960D01*
X872060Y1017120D01*
X876500Y1013800D01*
X881320Y1011080D01*
X886440Y1009000D01*
X891800Y1007600D01*
G37*
G36*
X906060Y1007320D02*
G01*
X908319Y1007600D01*
X913680Y1009000D01*
X918800Y1011080D01*
X923620Y1013800D01*
X928060Y1017120D01*
X932039Y1020960D01*
X935480Y1025300D01*
X938360Y1030020D01*
X940600Y1035080D01*
X942159Y1040380D01*
X942760Y1044000D01*
X906060Y1044000D01*
G37*
G36*
X1106000Y1007320D02*
G01*
X1108260Y1007600D01*
X1113620Y1009000D01*
X1118740Y1011080D01*
X1123560Y1013800D01*
X1128000Y1017120D01*
X1131980Y1020960D01*
X1135420Y1025300D01*
X1138300Y1030020D01*
X1140540Y1035080D01*
X1142100Y1040380D01*
X1142700Y1044000D01*
X1106000Y1044000D01*
G37*
G36*
X1094000Y1007320D02*
G01*
X1094000Y1044000D01*
X1057300Y1044000D01*
X1057900Y1040380D01*
X1059460Y1035080D01*
X1061700Y1030020D01*
X1064580Y1025300D01*
X1068020Y1020960D01*
X1072000Y1017120D01*
X1076440Y1013800D01*
X1081260Y1011080D01*
X1086380Y1009000D01*
X1091740Y1007600D01*
G37*
G36*
X2177200Y1030420D02*
G01*
X2182800Y1030420D01*
X2188380Y1031120D01*
X2193800Y1032520D01*
X2199020Y1034580D01*
X2203940Y1037280D01*
X2208480Y1040580D01*
X2212560Y1044419D01*
X2216140Y1048740D01*
X2219140Y1053480D01*
X2221540Y1058560D01*
X2223260Y1063900D01*
X2224320Y1069400D01*
X2224680Y1075000D01*
X2224320Y1080600D01*
X2223260Y1086100D01*
X2221540Y1091440D01*
X2219140Y1096520D01*
X2216140Y1101260D01*
X2212560Y1105580D01*
X2208480Y1109420D01*
X2203940Y1112720D01*
X2199020Y1115420D01*
X2193800Y1117480D01*
X2188380Y1118880D01*
X2182800Y1119580D01*
X2177200Y1119580D01*
X2171620Y1118880D01*
X2166200Y1117480D01*
X2160980Y1115420D01*
X2156060Y1112720D01*
X2151520Y1109420D01*
X2147440Y1105580D01*
X2143860Y1101260D01*
X2142040Y1098380D01*
X2140920Y1097240D01*
X2139460Y1096620D01*
X2137860Y1096620D01*
X2136400Y1097240D01*
X2135280Y1098380D01*
X2133460Y1101260D01*
X2129880Y1105580D01*
X2125800Y1109420D01*
X2121260Y1112720D01*
X2116340Y1115420D01*
X2111120Y1117480D01*
X2105700Y1118880D01*
X2103320Y1119180D01*
X2103320Y1081000D01*
X2131440Y1081000D01*
X2133040Y1080680D01*
X2134360Y1079740D01*
X2135200Y1078360D01*
X2135440Y1076740D01*
X2135320Y1075000D01*
X2135440Y1073260D01*
X2135200Y1071640D01*
X2134360Y1070260D01*
X2133040Y1069320D01*
X2131440Y1069000D01*
X2103320Y1069000D01*
X2103320Y1030819D01*
X2105700Y1031120D01*
X2111120Y1032520D01*
X2116340Y1034580D01*
X2121260Y1037280D01*
X2125800Y1040580D01*
X2129880Y1044419D01*
X2133460Y1048740D01*
X2135280Y1051620D01*
X2136400Y1052760D01*
X2137860Y1053380D01*
X2139460Y1053380D01*
X2140920Y1052760D01*
X2142040Y1051620D01*
X2143860Y1048740D01*
X2147440Y1044419D01*
X2151520Y1040580D01*
X2156060Y1037280D01*
X2160980Y1034580D01*
X2166200Y1032520D01*
X2171620Y1031120D01*
G37*
G36*
X2279560Y1030420D02*
G01*
X2285160Y1030420D01*
X2290740Y1031120D01*
X2296160Y1032520D01*
X2301380Y1034580D01*
X2306300Y1037280D01*
X2310840Y1040580D01*
X2314920Y1044419D01*
X2318500Y1048740D01*
X2320320Y1051620D01*
X2321440Y1052760D01*
X2322900Y1053380D01*
X2324500Y1053380D01*
X2325960Y1052760D01*
X2327080Y1051620D01*
X2328900Y1048740D01*
X2332480Y1044419D01*
X2336560Y1040580D01*
X2341100Y1037280D01*
X2346020Y1034580D01*
X2351240Y1032520D01*
X2356660Y1031120D01*
X2362240Y1030420D01*
X2367840Y1030420D01*
X2373420Y1031120D01*
X2378840Y1032520D01*
X2384060Y1034580D01*
X2388980Y1037280D01*
X2393520Y1040580D01*
X2397600Y1044419D01*
X2401180Y1048740D01*
X2404180Y1053480D01*
X2406580Y1058560D01*
X2408300Y1063900D01*
X2409360Y1069400D01*
X2409720Y1075000D01*
X2409360Y1080600D01*
X2408300Y1086100D01*
X2406580Y1091440D01*
X2404180Y1096520D01*
X2401180Y1101260D01*
X2397600Y1105580D01*
X2393520Y1109420D01*
X2388980Y1112720D01*
X2384060Y1115420D01*
X2378840Y1117480D01*
X2373420Y1118880D01*
X2367840Y1119580D01*
X2362240Y1119580D01*
X2356660Y1118880D01*
X2351240Y1117480D01*
X2346020Y1115420D01*
X2341100Y1112720D01*
X2336560Y1109420D01*
X2332480Y1105580D01*
X2328900Y1101260D01*
X2327080Y1098380D01*
X2325960Y1097240D01*
X2324500Y1096620D01*
X2322900Y1096620D01*
X2321440Y1097240D01*
X2320320Y1098380D01*
X2318500Y1101260D01*
X2314920Y1105580D01*
X2310840Y1109420D01*
X2306300Y1112720D01*
X2301380Y1115420D01*
X2296160Y1117480D01*
X2290740Y1118880D01*
X2285160Y1119580D01*
X2279560Y1119580D01*
X2273980Y1118880D01*
X2268560Y1117480D01*
X2263340Y1115420D01*
X2258420Y1112720D01*
X2253880Y1109420D01*
X2249800Y1105580D01*
X2246220Y1101260D01*
X2243220Y1096520D01*
X2240820Y1091440D01*
X2239100Y1086100D01*
X2238040Y1080600D01*
X2237680Y1075000D01*
X2238040Y1069400D01*
X2239100Y1063900D01*
X2240820Y1058560D01*
X2243220Y1053480D01*
X2246220Y1048740D01*
X2249800Y1044419D01*
X2253880Y1040580D01*
X2258420Y1037280D01*
X2263340Y1034580D01*
X2268560Y1032520D01*
X2273980Y1031120D01*
G37*
G36*
X2091320Y1030819D02*
G01*
X2091320Y1069000D01*
X2053080Y1069000D01*
X2054060Y1063900D01*
X2055780Y1058560D01*
X2058180Y1053480D01*
X2061180Y1048740D01*
X2064760Y1044419D01*
X2068839Y1040580D01*
X2073380Y1037280D01*
X2078300Y1034580D01*
X2083520Y1032520D01*
X2088940Y1031120D01*
G37*
G36*
X1057280Y1056000D02*
G01*
X1094000Y1056000D01*
X1094000Y1092740D01*
X1089040Y1091780D01*
X1083800Y1090040D01*
X1078800Y1087640D01*
X1074160Y1084620D01*
X1069960Y1081020D01*
X1066240Y1076940D01*
X1063060Y1072400D01*
X1060500Y1067480D01*
X1058600Y1062300D01*
X1057360Y1056900D01*
G37*
G36*
X857340Y1056000D02*
G01*
X894060Y1056000D01*
X894060Y1092740D01*
X889100Y1091780D01*
X883860Y1090040D01*
X878860Y1087640D01*
X874220Y1084620D01*
X870020Y1081020D01*
X866300Y1076940D01*
X863120Y1072400D01*
X860560Y1067480D01*
X858660Y1062300D01*
X857420Y1056900D01*
G37*
G36*
X1106000Y1056000D02*
G01*
X1142720Y1056000D01*
X1142640Y1056900D01*
X1141400Y1062300D01*
X1139500Y1067480D01*
X1136940Y1072400D01*
X1133760Y1076940D01*
X1130040Y1081020D01*
X1125840Y1084620D01*
X1121200Y1087640D01*
X1116200Y1090040D01*
X1110960Y1091780D01*
X1106000Y1092740D01*
G37*
G36*
X906060Y1056000D02*
G01*
X942780Y1056000D01*
X942700Y1056900D01*
X941460Y1062300D01*
X939560Y1067480D01*
X937000Y1072400D01*
X933820Y1076940D01*
X930100Y1081020D01*
X925900Y1084620D01*
X921260Y1087640D01*
X916260Y1090040D01*
X911020Y1091780D01*
X906060Y1092740D01*
G37*
G36*
X2053080Y1081000D02*
G01*
X2091320Y1081000D01*
X2091320Y1119180D01*
X2088940Y1118880D01*
X2083520Y1117480D01*
X2078300Y1115420D01*
X2073380Y1112720D01*
X2068839Y1109420D01*
X2064760Y1105580D01*
X2061180Y1101260D01*
X2058180Y1096520D01*
X2055780Y1091440D01*
X2054060Y1086100D01*
G37*
G36*
X1959440Y1113240D02*
G01*
X1959440Y1187100D01*
X1885620Y1187100D01*
X1886160Y1181540D01*
X1887640Y1173940D01*
X1889860Y1166520D01*
X1892780Y1159360D01*
X1896380Y1152500D01*
X1900620Y1146020D01*
X1905460Y1139980D01*
X1910880Y1134440D01*
X1916800Y1129460D01*
X1923160Y1125060D01*
X1929920Y1121300D01*
X1937020Y1118200D01*
X1944379Y1115820D01*
X1951940Y1114140D01*
G37*
G36*
X2490940Y1113240D02*
G01*
X2490940Y1187100D01*
X2417120Y1187100D01*
X2417660Y1181540D01*
X2419140Y1173940D01*
X2421360Y1166520D01*
X2424280Y1159360D01*
X2427880Y1152500D01*
X2432120Y1146020D01*
X2436960Y1139980D01*
X2442380Y1134440D01*
X2448300Y1129460D01*
X2454660Y1125060D01*
X2461420Y1121300D01*
X2468520Y1118200D01*
X2475880Y1115820D01*
X2483440Y1114140D01*
G37*
G36*
X2502960Y1113320D02*
G01*
X2506580Y1113580D01*
X2514220Y1114880D01*
X2521680Y1116920D01*
X2528920Y1119660D01*
X2535860Y1123100D01*
X2542440Y1127180D01*
X2548580Y1131880D01*
X2554260Y1137160D01*
X2559400Y1142940D01*
X2563940Y1149200D01*
X2567860Y1155880D01*
X2571120Y1162900D01*
X2573700Y1170200D01*
X2575539Y1177720D01*
X2576660Y1185380D01*
X2576760Y1187100D01*
X2502940Y1187100D01*
G37*
G36*
X1971459Y1113320D02*
G01*
X1975080Y1113580D01*
X1982720Y1114880D01*
X1990180Y1116920D01*
X1997420Y1119660D01*
X2004360Y1123100D01*
X2010940Y1127180D01*
X2017080Y1131880D01*
X2022760Y1137160D01*
X2027900Y1142940D01*
X2032440Y1149200D01*
X2036360Y1155880D01*
X2039620Y1162900D01*
X2042200Y1170200D01*
X2044040Y1177720D01*
X2045160Y1185380D01*
X2045260Y1187100D01*
X1971440Y1187100D01*
G37*
G36*
X2225180Y1144740D02*
G01*
X2225180Y1218600D01*
X2151360Y1218600D01*
X2151920Y1213040D01*
X2153400Y1205440D01*
X2155620Y1198020D01*
X2158540Y1190860D01*
X2162120Y1184000D01*
X2166360Y1177520D01*
X2171220Y1171480D01*
X2176620Y1165940D01*
X2182540Y1160960D01*
X2188920Y1156560D01*
X2195680Y1152800D01*
X2202780Y1149700D01*
X2210140Y1147320D01*
X2217700Y1145640D01*
G37*
G36*
X2237220Y1144820D02*
G01*
X2240840Y1145080D01*
X2248460Y1146380D01*
X2255940Y1148420D01*
X2263180Y1151160D01*
X2270120Y1154600D01*
X2276680Y1158680D01*
X2282840Y1163380D01*
X2288500Y1168660D01*
X2293640Y1174440D01*
X2298180Y1180700D01*
X2302120Y1187380D01*
X2305380Y1194400D01*
X2307940Y1201700D01*
X2309800Y1209220D01*
X2310920Y1216880D01*
X2311000Y1218600D01*
X2237180Y1218600D01*
G37*
G36*
X2502940Y1199100D02*
G01*
X2576760Y1199100D01*
X2576660Y1200840D01*
X2575539Y1208500D01*
X2573700Y1216020D01*
X2571120Y1223320D01*
X2567860Y1230340D01*
X2563940Y1237020D01*
X2559400Y1243280D01*
X2554260Y1249060D01*
X2548580Y1254340D01*
X2542440Y1259040D01*
X2535860Y1263120D01*
X2528920Y1266560D01*
X2521680Y1269300D01*
X2514220Y1271340D01*
X2506580Y1272640D01*
X2502940Y1272900D01*
G37*
G36*
X1971440Y1199100D02*
G01*
X2045260Y1199100D01*
X2045160Y1200840D01*
X2044040Y1208500D01*
X2042200Y1216020D01*
X2039620Y1223320D01*
X2036360Y1230340D01*
X2032440Y1237020D01*
X2027900Y1243280D01*
X2022760Y1249060D01*
X2017080Y1254340D01*
X2010940Y1259040D01*
X2004360Y1263120D01*
X1997420Y1266560D01*
X1990180Y1269300D01*
X1982720Y1271340D01*
X1975080Y1272640D01*
X1971440Y1272900D01*
G37*
G36*
X1885620Y1199100D02*
G01*
X1959440Y1199100D01*
X1959440Y1272980D01*
X1951940Y1272080D01*
X1944379Y1270400D01*
X1937020Y1268020D01*
X1929920Y1264920D01*
X1923160Y1261160D01*
X1916800Y1256760D01*
X1910880Y1251780D01*
X1905460Y1246240D01*
X1900620Y1240200D01*
X1896380Y1233720D01*
X1892780Y1226860D01*
X1889860Y1219700D01*
X1887640Y1212280D01*
X1886160Y1204680D01*
G37*
G36*
X2417120Y1199100D02*
G01*
X2490940Y1199100D01*
X2490940Y1272980D01*
X2483440Y1272080D01*
X2475880Y1270400D01*
X2468520Y1268020D01*
X2461420Y1264920D01*
X2454660Y1261160D01*
X2448300Y1256760D01*
X2442380Y1251780D01*
X2436960Y1246240D01*
X2432120Y1240200D01*
X2427880Y1233720D01*
X2424280Y1226860D01*
X2421360Y1219700D01*
X2419140Y1212280D01*
X2417660Y1204680D01*
G37*
G36*
X2237180Y1230600D02*
G01*
X2311000Y1230600D01*
X2310920Y1232340D01*
X2309800Y1240000D01*
X2307940Y1247520D01*
X2305380Y1254820D01*
X2302120Y1261840D01*
X2298180Y1268520D01*
X2293640Y1274780D01*
X2288500Y1280560D01*
X2282840Y1285840D01*
X2276680Y1290540D01*
X2270120Y1294620D01*
X2263180Y1298060D01*
X2255940Y1300800D01*
X2248460Y1302840D01*
X2240840Y1304139D01*
X2237180Y1304400D01*
G37*
G36*
X2151360Y1230600D02*
G01*
X2225180Y1230600D01*
X2225180Y1304480D01*
X2217700Y1303580D01*
X2210140Y1301900D01*
X2202780Y1299520D01*
X2195680Y1296420D01*
X2188920Y1292660D01*
X2182540Y1288260D01*
X2176620Y1283280D01*
X2171220Y1277740D01*
X2166360Y1271700D01*
X2162120Y1265220D01*
X2158540Y1258360D01*
X2155620Y1251200D01*
X2153400Y1243780D01*
X2151920Y1236180D01*
G37*

%LPD*%
G36*
X1269000Y268500D02*
G01*
X1289720Y200000D01*
X1339720Y203700D01*
X1331000Y268500D01*
G37*
G36*
X1771120Y137360D02*
G01*
X1762640Y128880D01*
X1769000Y109780D01*
X1790220Y131000D01*
G37*
G36*
X1235180Y623300D02*
G01*
X1226700Y614820D01*
X1230040Y593440D01*
X1256560Y619960D01*
G37*
G36*
X740180Y918300D02*
G01*
X731700Y909820D01*
X735040Y888439D01*
X761560Y914960D01*
G37*
G36*
X880180Y878300D02*
G01*
X871700Y869820D01*
X875040Y848439D01*
X901560Y874960D01*
G37*
G36*
X494000Y834040D02*
G01*
X481260Y816540D01*
X518760Y816540D01*
X506000Y834040D01*
G37*
G36*
X556260Y933460D02*
G01*
X569000Y915960D01*
X581000Y915960D01*
X593760Y933460D01*
G37*
G36*
X394000Y909040D02*
G01*
X381260Y891540D01*
X418760Y891540D01*
X406000Y909040D01*
G37*
G36*
X470040Y646560D02*
G01*
X466700Y625180D01*
X475180Y616700D01*
X496560Y620040D01*
G37*
G36*
X1460180Y598300D02*
G01*
X1451699Y589820D01*
X1455040Y568440D01*
X1481560Y594960D01*
G37*
G36*
X594000Y342200D02*
G01*
X576760Y320500D01*
X623240Y320500D01*
X606000Y342200D01*
G37*
G36*
X576760Y279500D02*
G01*
X594000Y257800D01*
X606000Y257800D01*
X623240Y279500D01*
G37*
G36*
X676760Y279500D02*
G01*
X694000Y257800D01*
X706000Y257800D01*
X723240Y279500D01*
G37*
G36*
X694000Y342200D02*
G01*
X676760Y320500D01*
X723240Y320500D01*
X706000Y342200D01*
G37*
G36*
X776760Y279500D02*
G01*
X794000Y257800D01*
X806000Y257800D01*
X823240Y279500D01*
G37*
G36*
X794000Y342200D02*
G01*
X776760Y320500D01*
X823240Y320500D01*
X806000Y342200D01*
G37*
G36*
X876760Y279500D02*
G01*
X894000Y257800D01*
X906000Y257800D01*
X923240Y279500D01*
G37*
G36*
X894000Y342200D02*
G01*
X876760Y320500D01*
X923240Y320500D01*
X906000Y342200D01*
G37*
G36*
X976760Y279500D02*
G01*
X994000Y257800D01*
X1006000Y257800D01*
X1023240Y279500D01*
G37*
G36*
X994000Y342200D02*
G01*
X976760Y320500D01*
X1023240Y320500D01*
X1006000Y342200D01*
G37*
G36*
X1076760Y279500D02*
G01*
X1094000Y257800D01*
X1106000Y257800D01*
X1123240Y279500D01*
G37*
G36*
X1094000Y342200D02*
G01*
X1076760Y320500D01*
X1123240Y320500D01*
X1106000Y342200D01*
G37*
G36*
X1176760Y279500D02*
G01*
X1194000Y257800D01*
X1206000Y257800D01*
X1223240Y279500D01*
G37*
G36*
X1194000Y342200D02*
G01*
X1176760Y320500D01*
X1223240Y320500D01*
X1206000Y342200D01*
G37*
G36*
X2474400Y134080D02*
G01*
X2465920Y125600D01*
X2469060Y98059D01*
X2501940Y130940D01*
G37*
G36*
X2374400Y134080D02*
G01*
X2365920Y125600D01*
X2369060Y98059D01*
X2401940Y130940D01*
G37*
G36*
X2274400Y134080D02*
G01*
X2265920Y125600D01*
X2269060Y98059D01*
X2301940Y130940D01*
G37*
G36*
X2174400Y134080D02*
G01*
X2165920Y125600D01*
X2169060Y98059D01*
X2201940Y130940D01*
G37*
G36*
X2074400Y134080D02*
G01*
X2065920Y125600D01*
X2069060Y98059D01*
X2101940Y130940D01*
G37*
G36*
X1974400Y134080D02*
G01*
X1965920Y125600D01*
X1969060Y98059D01*
X2001940Y130940D01*
G37*
G36*
X1874400Y134080D02*
G01*
X1865920Y125600D01*
X1869060Y98059D01*
X1901940Y130940D01*
G37*
G36*
X1375000Y142200D02*
G01*
X1376759Y120500D01*
X1423240Y120500D01*
X1425000Y142200D01*
G37*
G36*
X1194000Y142200D02*
G01*
X1176760Y120500D01*
X1223240Y120500D01*
X1206000Y142200D01*
G37*
G36*
X1094000Y142200D02*
G01*
X1076760Y120500D01*
X1123240Y120500D01*
X1106000Y142200D01*
G37*
G36*
X894000Y142200D02*
G01*
X876760Y120500D01*
X923240Y120500D01*
X906000Y142200D01*
G37*
G36*
X794000Y142200D02*
G01*
X776760Y120500D01*
X823240Y120500D01*
X806000Y142200D01*
G37*
G36*
X694000Y142200D02*
G01*
X676760Y120500D01*
X723240Y120500D01*
X706000Y142200D01*
G37*
G36*
X594000Y142200D02*
G01*
X576760Y120500D01*
X623240Y120500D01*
X606000Y142200D01*
G37*
G36*
X994000Y142200D02*
G01*
X976760Y120500D01*
X1023240Y120500D01*
X1006000Y142200D01*
G37*
G36*
X394000Y492200D02*
G01*
X376760Y470500D01*
X423240Y470500D01*
X406000Y492200D01*
G37*
G36*
X494000Y492200D02*
G01*
X476760Y470500D01*
X523240Y470500D01*
X506000Y492200D01*
G37*
G36*
X576760Y429500D02*
G01*
X594000Y407800D01*
X606000Y407800D01*
X623240Y429500D01*
G37*
G36*
X676760Y429500D02*
G01*
X694000Y407800D01*
X706000Y407800D01*
X723240Y429500D01*
G37*
G36*
X776760Y429500D02*
G01*
X794000Y407800D01*
X806000Y407800D01*
X823240Y429500D01*
G37*
G36*
X876760Y429500D02*
G01*
X894000Y407800D01*
X906000Y407800D01*
X923240Y429500D01*
G37*
G36*
X976760Y429500D02*
G01*
X994000Y407800D01*
X1006000Y407800D01*
X1023240Y429500D01*
G37*
G36*
X1076760Y429500D02*
G01*
X1094000Y407800D01*
X1106000Y407800D01*
X1123240Y429500D01*
G37*
G36*
X1176760Y429500D02*
G01*
X1194000Y407800D01*
X1206000Y407800D01*
X1223240Y429500D01*
G37*
G36*
X1330940Y451940D02*
G01*
X1298060Y419060D01*
X1325600Y415920D01*
X1334079Y424400D01*
G37*
G36*
X1430940Y451940D02*
G01*
X1398060Y419060D01*
X1425600Y415920D01*
X1434079Y424400D01*
G37*
G36*
X1530940Y451940D02*
G01*
X1498060Y419060D01*
X1525600Y415920D01*
X1534079Y424400D01*
G37*
G36*
X1630940Y1051940D02*
G01*
X1598060Y1019060D01*
X1625600Y1015920D01*
X1634079Y1024400D01*
G37*
G36*
X1508400Y1091880D02*
G01*
X1485280Y1077280D01*
X1528899Y1061200D01*
X1520800Y1087320D01*
G37*
G36*
X1425600Y1084080D02*
G01*
X1398060Y1080940D01*
X1430940Y1048060D01*
X1434079Y1075600D01*
G37*
G36*
X1325600Y1084080D02*
G01*
X1298060Y1080940D01*
X1330940Y1048060D01*
X1334079Y1075600D01*
G37*
G36*
X1225600Y1084080D02*
G01*
X1198060Y1080940D01*
X1230940Y1048060D01*
X1234080Y1075600D01*
G37*
G36*
X1030939Y1051940D02*
G01*
X998060Y1019060D01*
X1025600Y1015920D01*
X1034080Y1024400D01*
G37*
G36*
X830939Y1051940D02*
G01*
X798060Y1019060D01*
X825600Y1015920D01*
X834080Y1024400D01*
G37*
G36*
X730939Y1051940D02*
G01*
X698060Y1019060D01*
X725600Y1015920D01*
X734080Y1024400D01*
G37*
G36*
X630940Y1051940D02*
G01*
X598060Y1019060D01*
X625600Y1015920D01*
X634080Y1024400D01*
G37*
G36*
X476760Y1029500D02*
G01*
X494000Y1007800D01*
X506000Y1007800D01*
X523240Y1029500D01*
G37*
G36*
X376760Y1029500D02*
G01*
X394000Y1007800D01*
X406000Y1007800D01*
X423240Y1029500D01*
G37*
D10*
X495000Y645000D02*
G01*
X400000Y550000D01*
X400000Y450000D01*
X575000Y950000D02*
G01*
X575000Y600000D01*
X500000Y525000D01*
X500000Y450000D01*
X1000000Y1050000D02*
G01*
X1480000Y570000D01*
X800000Y1050000D02*
G01*
X1255000Y595000D01*
X700000Y1050000D02*
G01*
X900000Y850000D01*
X600000Y1050000D02*
G01*
X760000Y890000D01*
X500000Y1050000D02*
G01*
X500000Y800000D01*
X400000Y1050000D02*
G01*
X400000Y875000D01*
X1200000Y100000D02*
G01*
X1200000Y449998D01*
X1100000Y100000D02*
G01*
X1100000Y449998D01*
X1000000Y100000D02*
G01*
X1000000Y449998D01*
X900000Y100000D02*
G01*
X900000Y449998D01*
X800000Y100000D02*
G01*
X800000Y449998D01*
X700000Y100000D02*
G01*
X700000Y449998D01*
X2300000Y100000D02*
G01*
X2085000Y315000D01*
X1825000Y315000D01*
X1710000Y430000D01*
X1710000Y1090000D01*
X1650000Y1150000D01*
X1500000Y1150000D01*
X1400000Y1050000D01*
X2200000Y100000D02*
G01*
X2020000Y280000D01*
X1810000Y280000D01*
X1680000Y410000D01*
X1680000Y1070000D01*
X1625000Y1125000D01*
X1550000Y1125000D01*
X1500000Y1075000D01*
X1500000Y1050000D01*
X2100000Y100000D02*
G01*
X1955000Y245000D01*
X1795000Y245000D01*
X1650000Y390000D01*
X1650000Y1000000D01*
X1600000Y1050000D01*
X1500000Y450000D02*
G01*
X1740000Y210000D01*
X1890000Y210000D01*
X2000000Y100000D01*
X1400000Y450000D02*
G01*
X1675000Y175000D01*
X1825000Y175000D01*
X1900000Y100000D01*
X2400000Y100000D02*
G01*
X2150000Y350000D01*
X1840000Y350000D01*
X1740000Y450000D01*
X1740000Y1110000D01*
X1675000Y1175000D01*
X1425000Y1175000D01*
X1300000Y1050000D01*
X2500000Y100000D02*
G01*
X2215000Y385000D01*
X1855000Y385000D01*
X1770000Y470000D01*
X1770000Y693899D01*
X1770000Y1120700D01*
X1690699Y1200000D01*
X1350000Y1200000D01*
X1200000Y1050000D01*
X1300000Y450000D02*
G01*
X1610000Y140000D01*
X1760000Y140000D01*
X1800000Y100000D01*
X600000Y450000D02*
G01*
X600000Y100000D01*
D11*
X1300000Y300000D02*
G01*
X1315000Y200000D01*
X1400000Y200000D01*
X1400000Y100000D01*
D12*
G01*
X2650000Y500000D03*
G01*
X2550000Y500000D03*
G01*
X2450000Y500000D03*
G01*
X2350000Y500000D03*
G01*
X2250000Y500000D03*
G01*
X2150000Y500000D03*
G01*
X2050000Y500000D03*
G01*
X1950000Y500000D03*
G01*
X1850000Y500000D03*
G01*
X1850000Y800000D03*
G01*
X1950000Y800000D03*
G01*
X2050000Y800000D03*
G01*
X2150000Y800000D03*
G01*
X2250000Y800000D03*
G01*
X2350000Y800000D03*
G01*
X2450000Y800000D03*
G01*
X2550000Y800000D03*
G01*
X2650000Y800000D03*
G01*
X300000Y1050000D03*
G01*
X400000Y1050000D03*
G01*
X500000Y1050000D03*
G01*
X600000Y1050000D03*
G01*
X700000Y1050000D03*
G01*
X800000Y1050000D03*
G01*
X900060Y1050000D03*
G01*
X1000000Y1050000D03*
G01*
X1100000Y1050000D03*
G01*
X1200000Y1050000D03*
G01*
X1300000Y1050000D03*
G01*
X1400000Y1050000D03*
G01*
X1500000Y1050000D03*
G01*
X1600000Y1050000D03*
G01*
X1600000Y450000D03*
G01*
X1500000Y450000D03*
G01*
X1400000Y450000D03*
G01*
X1300000Y450000D03*
G01*
X1200000Y450000D03*
G01*
X1100000Y450000D03*
G01*
X1000000Y450000D03*
G01*
X900000Y450000D03*
G01*
X800000Y450000D03*
G01*
X700000Y450000D03*
G01*
X600000Y450000D03*
G01*
X500000Y450000D03*
G01*
X400000Y450000D03*
G01*
X300000Y450000D03*
G01*
X1000000Y100000D03*
D13*
G01*
X500000Y100000D03*
D12*
G01*
X600000Y100000D03*
G01*
X700000Y100000D03*
G01*
X800000Y100000D03*
G01*
X900000Y100000D03*
G01*
X1100000Y100000D03*
G01*
X1200000Y100000D03*
G01*
X1300000Y100000D03*
G01*
X1400000Y100000D03*
D13*
G01*
X1800000Y100000D03*
D12*
G01*
X1900000Y100000D03*
G01*
X2000000Y100000D03*
G01*
X2100000Y100000D03*
G01*
X2200000Y100000D03*
G01*
X2300000Y100000D03*
G01*
X2400000Y100000D03*
G01*
X2500000Y100000D03*
G01*
X175000Y350000D03*
G01*
X175000Y450000D03*
D13*
G01*
X175000Y550000D03*
D14*
G01*
X2180000Y1075000D03*
G01*
X2282359Y1075000D03*
G01*
X2097319Y1075000D03*
G01*
X2365039Y1075000D03*
G01*
X2097319Y976579D03*
G01*
X2365039Y976579D03*
D15*
G01*
X1965429Y1193110D03*
G01*
X2231180Y1224609D03*
G01*
X2496930Y1193110D03*
D13*
G01*
X2450000Y375000D03*
D12*
G01*
X2550000Y375000D03*
D16*
G01*
X1300000Y300000D03*
D12*
G01*
X1200000Y300000D03*
G01*
X1100000Y300000D03*
G01*
X1000000Y300000D03*
G01*
X900000Y300000D03*
G01*
X800000Y300000D03*
G01*
X700000Y300000D03*
G01*
X600000Y300000D03*
G01*
X500000Y300000D03*
D11*
G01*
X1480000Y570000D03*
G01*
X495000Y645000D03*
G01*
X400000Y875000D03*
G01*
X575000Y950000D03*
G01*
X500000Y800000D03*
G01*
X900000Y850000D03*
G01*
X760000Y890000D03*
G01*
X1255000Y595000D03*
G01*
X190000Y895000D03*
G01*
X335000Y820000D03*
G01*
X300000Y550000D03*
G01*
X300000Y100000D03*
G01*
X350000Y1150000D03*
G01*
X1900000Y435000D03*
G01*
X2450000Y275000D03*
G01*
X2200000Y600000D03*
G01*
X2745000Y720000D03*
G01*
X100000Y1150000D03*
G01*
X100000Y200000D03*
G01*
X2850000Y125000D03*
G01*
X2850000Y1250000D03*
G01*
X2850000Y450000D03*
G01*
X1390000Y275000D03*
G01*
X1450000Y865000D03*
G01*
X1095000Y860000D03*
G01*
X850000Y575000D03*
G01*
X375000Y360000D03*
G01*
X2445000Y945000D03*
G01*
X1555000Y535000D03*
M02*
