M48
INCH,LZ
;FILE_FORMAT=2:4
;TYPE=PLATED
;Layer: PTH_Through_Via
;EasyEDA v6.5.39, 2024-02-04 17:50:00
;ca02cd42b7a24e50ad9d11446f9c8c94,5509f98a9368439c9cde498926e245b9,10
;Gerber Generator version 0.2
;Holesize 1 = 0.0200 inch
T01C0.0200
%
G05
G90
T01
X017500Y031500
X023250Y021000
X018750Y019500
X018750Y023750
X017750Y018000
X017750Y024750
X017750Y016500
X018250Y024250
X034250Y016500
X035900Y023000
X030800Y016250
X019000Y026000
X028600Y023000
X027500Y028500
X016500Y018600
X039750Y032250
X047000Y022250
X040250Y016000
X049500Y035750
X045500Y035250
X034000Y036000
X046000Y018250
X056500Y028250
X057500Y028750
X042000Y013750
X048000Y036750
X059400Y017200
X028400Y032050
X025200Y035350
X024000Y036250
X022250Y011150
X020650Y011150
X015750Y011150
X037750Y031500
X059500Y015750
X052500Y015000
X037750Y034750
X029600Y014750
X037750Y014750
X029250Y029000
X021250Y013500
X020000Y009750
X018000Y007000
X018000Y004750
X019550Y010450
X012750Y007750
X013150Y010450
X019000Y010050
X019000Y008250
X017050Y010200
X014700Y010150
X039500Y002250
X036500Y030500
X058500Y026250
X035000Y029500
X049500Y021250
X050500Y020250
X051500Y019250
X052500Y018750
X053000Y019750
X054500Y020750
X053500Y021750
X051000Y019750
X049000Y020750
X048000Y021750
X033000Y015500
X058800Y033800
X020000Y002500
X041000Y009000
X033250Y007000
X034750Y007000
X043000Y025500
X042800Y026250
X043250Y024750
X043650Y024050
X044500Y031000
X044750Y032000
X044200Y023600
X056000Y032250
X056500Y031750
X057000Y031250
X056500Y029250
X020567Y033879
X021500Y017500
X033500Y001750
X012500Y005250
X034750Y012000
X028650Y003850
X039000Y013750
X026050Y012700
X045250Y010250
X045250Y010250
X039000Y013750
X035000Y003850
X036000Y004650
X035500Y010150
X035500Y012800
X053000Y013250
X015750Y035431
X014250Y036417
X038000Y001000
X015750Y019000
X015000Y019500
X015750Y022000
X014950Y020450
X015000Y022750
X017450Y015350
X014850Y013100
X052800Y009500
X059250Y011000
X052000Y007150
X021000Y030500
X021000Y029000
X022500Y029000
X022500Y025000
X021000Y025000
X030250Y017350
X028650Y016750
X027000Y016750
X033150Y017150
X036859Y017500
X038500Y017150
X044400Y017350
X044800Y024800
X051200Y037700
X052050Y034000
X050450Y034000
X056500Y035250
X057500Y036150
X055500Y027750
X055500Y025500
X049900Y029500
X052000Y029300
X047050Y030950
X051000Y031000
X044950Y032700
X044750Y028900
X047000Y029750
X045800Y029400
X046304Y026500
X036600Y032400
X031400Y033200
X032500Y033200
X031000Y035600
X032500Y036200
X029950Y035650
X028950Y035650
X027950Y035650
X026650Y035350
X022400Y032150
X024950Y030750
X028050Y030000
X030600Y032100
X024000Y038000
X018000Y038000
X037050Y038050
X011250Y031000
X010500Y025600
X011300Y019450
X007500Y006450
X005000Y007050
X014900Y005850
X014950Y007250
X015950Y004150
X018250Y002950
X021600Y008300
X021600Y006200
X023000Y003950
X024400Y010050
X023000Y007850
X023000Y005605
X025350Y006700
X026000Y003500
X019250Y002500
X030000Y001000
X022000Y001000
X014000Y001000
X032500Y003850
X046000Y001000
X037650Y003700
X039050Y004000
X040800Y004000
X040250Y002150
X038550Y005300
X040500Y005300
X044850Y005350
X046250Y001950
X049850Y002050
X046750Y004500
X050150Y006950
X051000Y004050
X037750Y009850
X041400Y010350
X039750Y010300
X040000Y007500
X040200Y009000
X047500Y009150
X050450Y009150
X052600Y005350
X031350Y009250
X050000Y024050
X028250Y010250
X027100Y012050
X030450Y012600
X034050Y012600
X032500Y013750
X033500Y013750
X029150Y013650
X027350Y013650
X047684Y010250
X016750Y025500
X016750Y027250
X014950Y028800
X016950Y028850
X016500Y029985
X014950Y030000
X014950Y031000
X016600Y031000
X018450Y027350
X014900Y018100
X025750Y008600
X028550Y007400
X027250Y005450
X058490Y036159
X054500Y034200
X049400Y005000
X048300Y029500
X051500Y027550
X049700Y031000
X048450Y027550
X037000Y027500
X038500Y027500
X035450Y027500
X035300Y030300
X012000Y026650
X012050Y028750
X027250Y003800
X062500Y029250
X055750Y015750
X054750Y015750
X059350Y035250
X056750Y015500
X061518Y036500
X064768Y035500
X058500Y015700
X058500Y032000
X052000Y016000
X053750Y015750
X059250Y003500
X062250Y037600
X062250Y035400
X065350Y005400
X064768Y037500
X017250Y019500
X040700Y030000
X031650Y031450
X063000Y018250
X063000Y020750
X059900Y017750
X060650Y019750
X059650Y020750
X059000Y020250
X063250Y023250
X065800Y010500
X066500Y032750
X066500Y031250
X062750Y030750
X069500Y024250
X075000Y021500
X067500Y010000
X074750Y015000
X076300Y015800
X076800Y020300
X074400Y020850
X066500Y030000
X068250Y029000
X068000Y027250
X075000Y030000
X067250Y034750
X071500Y026750
X070000Y026750
X073000Y029500
X067000Y021750
X066250Y026000
X073750Y018500
X070000Y018500
X059000Y008000
X058750Y005500
X059250Y013800
X067650Y017950
X058500Y031339
X068750Y001000
X073750Y001000
X073750Y002500
X068850Y005200
X076500Y004250
X076500Y014250
X072750Y005200
X071250Y001000
X067250Y006750
X078250Y016500
X078250Y022500
X078250Y028500
X078250Y012000
X076500Y033000
X077500Y035000
X067000Y037000
X071750Y038000
X065650Y035200
X064750Y026000
X065500Y019750
X064750Y014250
X065500Y017750
X063750Y020250
X069550Y023600
X068000Y035100
X063300Y008300
X063300Y011900
X076750Y018500
X060800Y022900
X060900Y025600
X059500Y028250
X059900Y031450
X060650Y017050
X068250Y012750
X012650Y032350
X011600Y013500
X012250Y034000
X013000Y018500
X013000Y018500
X013000Y019500
X015000Y027000
X011250Y022000
X004500Y026500
X004500Y025000
X002500Y028000
X002750Y011750
X001000Y013000
X001000Y020000
X001000Y027000
X003500Y038000
X001000Y033750
X001000Y006000
X007000Y002200
X009050Y003450
X005500Y017000
X004500Y020000
X004500Y014000
X012000Y006750
X017350Y013000
X010950Y012500
X012600Y010000
X012500Y038000
X010500Y010000
X010550Y014200
X010500Y016000
X058500Y027500
X006300Y011650
X009000Y011350
X007500Y028250
X006750Y025750
X006600Y016950
X008250Y012750
X006600Y015050
X005500Y017741
X006600Y018500
X008600Y019250
X007750Y033000
X010400Y033000
X060500Y006750
X077250Y006250
X072250Y010750
X070750Y005250
X070750Y010750
X071500Y005050
X071450Y010350
X077750Y009000
X074500Y011250
X071550Y008250
X071667Y006917
X077250Y007750
X075500Y004900
X072250Y008250
X073850Y011750
X072900Y010350
X069300Y009600
X070050Y010850
X073150Y008100
X070300Y007900
X072450Y006900
X002370Y025907
X003250Y005950
X006750Y005150
X068500Y009000
X070650Y032450
X068350Y032650
X070000Y035350
X011250Y023500
X015750Y013850
X014950Y016300
M30
