G04 Layer: TopPasteMaskLayer*
G04 EasyEDA v6.5.39, 2024-02-04 17:50:00*
G04 ca02cd42b7a24e50ad9d11446f9c8c94,5509f98a9368439c9cde498926e245b9,10*
G04 Gerber Generator version 0.2*
G04 Scale: 100 percent, Rotated: No, Reflected: No *
G04 Dimensions in inches *
G04 leading zeros omitted , absolute positions ,3 integer and 6 decimal *
%FSLAX36Y36*%
%MOIN*%

%AMMACRO1*21,1,$1,$2,0,0,$3*%
%ADD10O,0.022597999999999997X0.080236*%
%ADD11MACRO1,0.0532X0.0555X90.0000*%
%ADD12MACRO1,0.0532X0.0555X-90.0000*%
%ADD13MACRO1,0.0532X0.0555X0.0000*%
%ADD14R,0.0532X0.0555*%
%ADD15R,0.0433X0.0945*%
%ADD16R,0.0244X0.0551*%
%ADD17R,0.0380X0.0360*%
%ADD18MACRO1,0.0265X0.062X-90.0000*%
%ADD19R,0.0360X0.0380*%
%ADD20MACRO1,0.1102X0.1185X0.0000*%
%ADD21MACRO1,0.1102X0.1185X90.0000*%
%ADD22MACRO1,0.1102X0.1185X-90.0000*%

%LPD*%
D10*
G01*
X7024970Y940970D03*
G01*
X7074970Y940970D03*
G01*
X7124970Y940970D03*
G01*
X7174970Y940970D03*
G01*
X7224970Y940970D03*
G01*
X7274970Y940970D03*
G01*
X7324970Y940970D03*
G01*
X7024970Y1159009D03*
G01*
X7074970Y1159009D03*
G01*
X7124970Y1159009D03*
G01*
X7174970Y1159009D03*
G01*
X7224970Y1159009D03*
G01*
X7274970Y1159009D03*
G01*
X7324970Y1159009D03*
D11*
G01*
X3839375Y1224995D03*
G01*
X3760630Y1224995D03*
D12*
G01*
X4160630Y724995D03*
G01*
X4239375Y724995D03*
D13*
G01*
X7390005Y764370D03*
D14*
G01*
X7390000Y685630D03*
D15*
G01*
X7444979Y537480D03*
G01*
X7444979Y183150D03*
G01*
X6809150Y183150D03*
G01*
X6809150Y537480D03*
D16*
G01*
X6863480Y614920D03*
G01*
X6906790Y614920D03*
G01*
X6950100Y614920D03*
G01*
X6993410Y614920D03*
G01*
X7036710Y614920D03*
G01*
X7080020Y614920D03*
G01*
X7123329Y614920D03*
G01*
X7166639Y614920D03*
G01*
X7209939Y614920D03*
D17*
G01*
X6850000Y821500D03*
G01*
X6850000Y758499D03*
G36*
X7689889Y662260D02*
G01*
X7616890Y662260D01*
X7615140Y662300D01*
X7613389Y662429D01*
X7611650Y662629D01*
X7609920Y662919D01*
X7608199Y663279D01*
X7606509Y663730D01*
X7604830Y664259D01*
X7603190Y664859D01*
X7601570Y665540D01*
X7599989Y666300D01*
X7598440Y667130D01*
X7596940Y668029D01*
X7595479Y669000D01*
X7594059Y670030D01*
X7592700Y671140D01*
X7591390Y672300D01*
X7590129Y673530D01*
X7588940Y674810D01*
X7587799Y676149D01*
X7586729Y677539D01*
X7585730Y678969D01*
X7584799Y680459D01*
X7583930Y681979D01*
X7583140Y683550D01*
X7582420Y686669D01*
X7515600Y686669D01*
X7515600Y712649D01*
X7582420Y712649D01*
X7583140Y715779D01*
X7583930Y717339D01*
X7584799Y718870D01*
X7585730Y720349D01*
X7586729Y721790D01*
X7587799Y723180D01*
X7588940Y724510D01*
X7590129Y725799D01*
X7591390Y727020D01*
X7592700Y728189D01*
X7594059Y729290D01*
X7595479Y730329D01*
X7596940Y731300D01*
X7598440Y732199D01*
X7599989Y733029D01*
X7601570Y733780D01*
X7603190Y734459D01*
X7604830Y735070D01*
X7606509Y735590D01*
X7608199Y736039D01*
X7609920Y736410D01*
X7611650Y736689D01*
X7613389Y736900D01*
X7615140Y737020D01*
X7616890Y737060D01*
X7689889Y737060D01*
X7691639Y737020D01*
X7693389Y736900D01*
X7695129Y736689D01*
X7696859Y736410D01*
X7698580Y736039D01*
X7700270Y735590D01*
X7701949Y735070D01*
X7703590Y734459D01*
X7705209Y733780D01*
X7706790Y733029D01*
X7708339Y732199D01*
X7709840Y731300D01*
X7711300Y730329D01*
X7712719Y729290D01*
X7714080Y728189D01*
X7715389Y727020D01*
X7716639Y725799D01*
X7717839Y724510D01*
X7718969Y723180D01*
X7720039Y721790D01*
X7721049Y720349D01*
X7721980Y718870D01*
X7722849Y717339D01*
X7723639Y715779D01*
X7724359Y714180D01*
X7725000Y712550D01*
X7725569Y710889D01*
X7726049Y709200D01*
X7726459Y707500D01*
X7726790Y705770D01*
X7727030Y704040D01*
X7727200Y702289D01*
X7727280Y700540D01*
X7727280Y698789D01*
X7727200Y697029D01*
X7727030Y695290D01*
X7726790Y693550D01*
X7726459Y691829D01*
X7726049Y690120D01*
X7725569Y688440D01*
X7725000Y686779D01*
X7724359Y685149D01*
X7723639Y683550D01*
X7722849Y681979D01*
X7721980Y680459D01*
X7721049Y678969D01*
X7720039Y677539D01*
X7718969Y676149D01*
X7717839Y674810D01*
X7716639Y673530D01*
X7715389Y672300D01*
X7714080Y671140D01*
X7712719Y670030D01*
X7711300Y669000D01*
X7709840Y668029D01*
X7708339Y667130D01*
X7706790Y666300D01*
X7705209Y665540D01*
X7703590Y664859D01*
X7701949Y664259D01*
X7700270Y663730D01*
X7698580Y663279D01*
X7696859Y662919D01*
X7695129Y662629D01*
X7693389Y662429D01*
X7691639Y662300D01*
X7689889Y662260D01*
G37*
D18*
G01*
X7546605Y640950D03*
G01*
X7546605Y759059D03*
D19*
G01*
X6948500Y1285000D03*
G01*
X7011499Y1285000D03*
G01*
X7008509Y705000D03*
G01*
X7071509Y705000D03*
G01*
X7611490Y565000D03*
G01*
X7548490Y565000D03*
D17*
G01*
X7390000Y1081489D03*
G01*
X7390000Y1018490D03*
D19*
G01*
X6908500Y850000D03*
G01*
X6971499Y850000D03*
D17*
G01*
X7385000Y1306500D03*
G01*
X7385000Y1243499D03*
G01*
X7275000Y1306500D03*
G01*
X7275000Y1243499D03*
D19*
G01*
X7176499Y1275000D03*
G01*
X7113500Y1275000D03*
D20*
G01*
X2256889Y1310000D03*
G01*
X2493110Y1310000D03*
D12*
G01*
X3674375Y1224995D03*
G01*
X3595630Y1224995D03*
D11*
G01*
X4325630Y724995D03*
G01*
X4404375Y724995D03*
D21*
G01*
X1425000Y3306890D03*
G01*
X1425000Y3543109D03*
D20*
G01*
X6469879Y3650000D03*
G01*
X6233660Y3650000D03*
D22*
G01*
X6075000Y568109D03*
G01*
X6075000Y331890D03*
D19*
G01*
X3493500Y1650000D03*
G01*
X3556499Y1650000D03*
M02*
