M48
METRIC,LZ,000.000
;FILE_FORMAT=3:3
;TYPE=NON_PLATED
;Layer: NPTH_Through
;EasyEDA v6.5.39, 2024-02-04 18:15:22
;34cdbf00d3e34c3386613b9734a0afe0,5509f98a9368439c9cde498926e245b9,10
;Gerber Generator version 0.2
;Holesize 1 = 4.200 mm
T01C4.200
%
G05
G90
T01
X000000Y009525
X-100013Y047625
X-014288Y028575
X114300Y085725
X-052388Y028575
X076200Y085725
X042863Y028575
X-061913Y047625
X123825Y066675
X061913Y028575
X-119063Y047625
X-066675Y066675
X095250Y085725
X-042863Y047625
X-023813Y047625
X-004763Y047625
X028575Y066675
X014288Y047625
X033338Y047625
X057150Y085725
X-114300Y085725
X-095250Y085725
X-076200Y085725
X-057150Y085725
X-038100Y085725
X-019050Y085725
X000000Y085725
X019050Y085725
X038100Y085725
X052388Y047625
X085725Y066675
X133350Y047625
X023813Y028575
X004763Y028575
X047625Y066675
X066675Y066675
X-104775Y066675
X-047625Y066675
X102394Y047625
X104775Y066675
X100013Y009525
X-080963Y047625
X071438Y047625
X080963Y028575
X-028575Y066675
X009525Y066675
X-123825Y066675
X-033338Y028575
X-085725Y066675
X-071438Y028575
X-009525Y066675
X-090488Y028575
X-121442Y028576
X116683Y028576
M30
