M48
METRIC,LZ,000.000
;FILE_FORMAT=3:3
;TYPE=PLATED
;Layer: PTH_Through
;EasyEDA v6.5.39, 2024-02-04 18:15:22
;34cdbf00d3e34c3386613b9734a0afe0,5509f98a9368439c9cde498926e245b9,10
;Gerber Generator version 0.2
;Holesize 1 = 0.889 mm
T01C0.889
;Holesize 2 = 1.600 mm
T02C1.600
%
G05
G90
T01
X034131Y-002381
X021431Y-002381
X023971Y-002381
X026511Y-002381
X029051Y-002381
X031591Y-002381
X036671Y-002381
X039211Y-002381
X041751Y-002381
X044291Y-002381
X054451Y-002381
X056991Y-002381
X059531Y-002381
X062071Y-002381
X064611Y-002381
X067151Y-002381
X069691Y-002381
X072231Y-002381
X-012700Y097631
X000000Y097631
X-002540Y097631
X-005080Y097631
X-007620Y097631
X-010160Y097631
X-015240Y097631
X-017780Y097631
X-020320Y097631
X-022860Y097631
X-033020Y097631
X-035560Y097631
X-038100Y097631
X-040640Y097631
X-043180Y097631
X-045720Y097631
X-048260Y097631
X-050800Y097631
X071438Y010795
X071438Y008255
X-009946Y090805
X009464Y037845
X-006425Y053503
X039370Y040640
X049362Y085757
X036091Y027265
X-039014Y093148
X-043470Y092689
X075544Y045952
X-033694Y081764
X090625Y-003957
X-006755Y094340
X093166Y015521
X-044203Y059416
X-014756Y061509
X-092275Y075138
X-019710Y034273
X-034781Y076115
X015891Y100902
T02
X-003810Y012065
X002540Y014605
X-103823Y050165
X-097473Y052705
X-018098Y031115
X-011748Y033655
X110490Y088265
X116840Y090805
X-056198Y031115
X-049848Y033655
X072390Y088265
X078740Y090805
X039053Y031115
X045403Y033655
X-065723Y050165
X-059373Y052705
X120015Y069215
X126365Y071755
X058103Y031115
X064453Y033655
X-122873Y050165
X-116523Y052705
X-070485Y069215
X-064135Y071755
X091440Y088265
X097790Y090805
X-046673Y050165
X-040323Y052705
X-027623Y050165
X-021273Y052705
X-008573Y050165
X-002223Y052705
X024765Y069215
X031115Y071755
X010478Y050165
X016828Y052705
X029528Y050165
X035878Y052705
X053340Y088265
X059690Y090805
X-118110Y088265
X-111760Y090805
X-099060Y088265
X-092710Y090805
X-080010Y088265
X-073660Y090805
X-060960Y088265
X-054610Y090805
X-041910Y088265
X-035560Y090805
X-022860Y088265
X-016510Y090805
X-003810Y088265
X002540Y090805
X015240Y088265
X021590Y090805
X034290Y088265
X040640Y090805
X048578Y050165
X054928Y052705
X081915Y069215
X088265Y071755
X129540Y050165
X135890Y052705
X020003Y031115
X026353Y033655
X000953Y031115
X007303Y033655
X043815Y069215
X050165Y071755
X062865Y069215
X069215Y071755
X-108585Y069215
X-102235Y071755
X-051435Y069215
X-045085Y071755
X098584Y050165
X104934Y052705
X100965Y069215
X107315Y071755
X096203Y012065
X102553Y014605
X-084773Y050165
X-078423Y052705
X067628Y050165
X073978Y052705
X077153Y031115
X083503Y033655
X-032385Y069215
X-026035Y071755
X005715Y069215
X012065Y071755
X-127635Y069215
X-121285Y071755
X-037148Y031115
X-030798Y033655
X-089535Y069215
X-083185Y071755
X-075248Y031115
X-068898Y033655
X-013335Y069215
X-006985Y071755
X-094298Y031115
X-087948Y033655
X-125252Y031116
X-118902Y033656
X112873Y031116
X119223Y033656
M30
