G04 Layer: TopLayer*
G04 EasyEDA v6.5.39, 2024-02-04 18:15:22*
G04 34cdbf00d3e34c3386613b9734a0afe0,5509f98a9368439c9cde498926e245b9,10*
G04 Gerber Generator version 0.2*
G04 Scale: 100 percent, Rotated: No, Reflected: No *
G04 Dimensions in millimeters *
G04 leading zeros omitted , absolute positions ,4 integer and 5 decimal *
%FSLAX45Y45*%
%MOMM*%

%AMMACRO1*21,1,$1,$2,0,0,$3*%
%ADD10C,0.5080*%
%ADD11R,1.3500X1.4100*%
%ADD12MACRO1,1.35X1.41X0.0000*%
%ADD13C,2.5000*%
%ADD14C,1.5748*%
%ADD15R,1.5748X1.5748*%
%ADD16C,1.6510*%
%ADD17C,0.0121*%

%LPD*%
D10*
X-9429750Y3111576D02*
G01*
X-8947150Y3594176D01*
X-8007350Y3594176D01*
X-7524750Y3111576D01*
X-4984752Y3365500D02*
G01*
X-4286252Y4064000D01*
X3937000Y4064000D01*
X3937000Y4064000D01*
X5542026Y4469460D02*
G01*
X5542026Y4394276D01*
X-1571751Y4394276D01*
X-2649473Y5471998D01*
X-5735827Y5471998D01*
X-5937250Y5270576D01*
X6445247Y3365502D02*
G01*
X6243571Y3567178D01*
X730247Y3567178D01*
X-10382250Y5016576D02*
G01*
X-10382250Y4429074D01*
X-10001250Y4048074D01*
X-6905751Y4048074D01*
X-5969000Y3111576D01*
X-5619750Y3111576D01*
X-12525247Y3111576D02*
G01*
X-12485877Y3150946D01*
X-10771123Y3150946D01*
X-7650987Y30810D01*
X2161794Y30810D01*
X2396998Y-204393D01*
X2396998Y-238175D01*
X1206500Y7175576D02*
G01*
X524002Y7858074D01*
X-3051047Y7858074D01*
X-3369309Y8176336D01*
X6811236Y1052502D02*
G01*
X6838236Y1079502D01*
X7143747Y1079502D01*
X6667497Y1052502D02*
G01*
X6811236Y1052502D01*
X3159122Y-238122D02*
G01*
X2476802Y444197D01*
X96568Y444197D01*
X-381002Y921768D01*
X-381002Y1206502D01*
X10096497Y6921502D02*
G01*
X10051387Y6966612D01*
X8236607Y6966612D01*
X8191497Y6921502D01*
X8191497Y6921502D02*
G01*
X7540800Y6270805D01*
X-970282Y6270805D01*
X-1333502Y6634025D01*
X-1333502Y6921502D01*
X-12287252Y5016502D02*
G01*
X-12763502Y5492752D01*
X-12763502Y6921502D01*
X4381497Y6921502D02*
G01*
X4336387Y6966612D01*
X2521607Y6966612D01*
X2476497Y6921502D01*
X95247Y3111502D02*
G01*
X134693Y3150948D01*
X1960801Y3150948D01*
X2000247Y3111502D01*
X1047747Y5016502D02*
G01*
X1002637Y5061612D01*
X-812142Y5061612D01*
X-857252Y5016502D01*
X4857747Y5016502D02*
G01*
X4812637Y5061612D01*
X2997857Y5061612D01*
X2952747Y5016502D01*
X2952747Y5016502D02*
G01*
X2920311Y5048938D01*
X1080183Y5048938D01*
X1047747Y5016502D01*
X-1524002Y9763127D02*
G01*
X-1196901Y10090228D01*
X1589097Y10090228D01*
X9858372Y5016502D02*
G01*
X9897818Y5055948D01*
X12914627Y5055948D01*
X12953997Y5016502D01*
X11048997Y8826502D02*
G01*
X9957229Y9918270D01*
X-127002Y9918270D01*
X-254002Y9791270D01*
X-254002Y9763127D01*
X-11176002Y9080502D02*
G01*
X-10316618Y9939886D01*
X-3732761Y9939886D01*
X-3556002Y9763127D01*
X3111497Y7175502D02*
G01*
X1891459Y7175502D01*
X1683687Y6967730D01*
X1044724Y6967730D01*
X836952Y7175502D01*
X-698502Y7175502D01*
X-698502Y7175502D02*
G01*
X-1134518Y7611518D01*
X-3478100Y7611518D01*
X-2286002Y8826502D02*
G01*
X-2331341Y8871841D01*
X-4145663Y8871841D01*
X-4191002Y8826502D01*
X-6096002Y8865313D02*
G01*
X-6096002Y8826502D01*
X-6096002Y8865313D02*
G01*
X-7962191Y8865313D01*
X-8001002Y8826502D01*
X-8001002Y8826502D02*
G01*
X-8045630Y8871130D01*
X-9861374Y8871130D01*
X-9906002Y8826502D01*
X-9906002Y8826502D02*
G01*
X-9952814Y8873314D01*
X-11764190Y8873314D01*
X-11811002Y8826502D01*
X-2286002Y8826502D02*
G01*
X-2245260Y8867244D01*
X-421744Y8867244D01*
X-381002Y8826502D01*
X-6096002Y8865313D02*
G01*
X-5675734Y9285582D01*
X-4650082Y9285582D01*
X-4191002Y8826502D01*
X-381002Y8826502D02*
G01*
X-381002Y8548448D01*
X-110797Y8278243D01*
X4863437Y8278243D01*
X5333997Y8748803D01*
X5333997Y8826502D01*
X6667497Y852502D02*
G01*
X5519747Y852502D01*
X4429122Y-238122D01*
X4429122Y-238122D02*
G01*
X1792577Y2398422D01*
X-492483Y2398422D01*
X-1521335Y3427275D01*
X-1971017Y3427275D01*
X-4508502Y7175502D02*
G01*
X-4846754Y7513754D01*
X-9227492Y7513754D01*
X7397747Y5270502D02*
G01*
X7190508Y5477741D01*
X1889986Y5477741D01*
X1682747Y5270502D01*
X-1475640Y6150866D02*
G01*
X802383Y6150866D01*
X1682747Y5270502D01*
X-8953502Y6921502D02*
G01*
X-8998612Y6966612D01*
X-10813392Y6966612D01*
X-10858502Y6921502D01*
X-3238502Y6921502D02*
G01*
X-3285822Y6968822D01*
X-5096182Y6968822D01*
X-5143502Y6921502D01*
X-5143502Y6921502D02*
G01*
X-5600753Y7378753D01*
X-8496251Y7378753D01*
X-8953502Y6921502D01*
X571497Y6921502D02*
G01*
X-765380Y6921502D01*
X-971222Y7127344D01*
X-1854202Y7127344D01*
X-2014070Y6967476D01*
X-3192528Y6967476D01*
X-3238502Y6921502D01*
X571497Y6921502D02*
G01*
X571497Y6639410D01*
X833676Y6377231D01*
X5742226Y6377231D01*
X6286497Y6921502D01*
X4175122Y-238122D02*
G01*
X4175122Y-398117D01*
X2143122Y-238122D02*
G01*
X2303117Y-398117D01*
X4175122Y-398117D01*
X4175122Y-398117D02*
G01*
X4887135Y-398117D01*
X5918934Y633681D01*
X6951926Y633681D01*
X7143747Y825502D01*
X-2032002Y9763127D02*
G01*
X-1871118Y9602243D01*
X-160886Y9602243D01*
X-2Y9763127D01*
X-2762252Y5016502D02*
G01*
X-2807362Y5061612D01*
X-4622142Y5061612D01*
X-4667252Y5016502D01*
X-4667252Y5016502D02*
G01*
X-4714242Y5063492D01*
X-6525262Y5063492D01*
X-6572252Y5016502D01*
X-1809752Y3111502D02*
G01*
X-1809752Y2827835D01*
X-888113Y1906196D01*
X1776803Y1906196D01*
X3921122Y-238122D01*
X-222252Y5270502D02*
G01*
X-893396Y5941646D01*
X-4420262Y5941646D01*
X5968997Y9080502D02*
G01*
X5758914Y9290585D01*
X2369080Y9290585D01*
X2158997Y9080502D01*
X-3302002Y9763127D02*
G01*
X-3147037Y9763127D01*
X5445122Y-238122D02*
G01*
X5764933Y-557933D01*
X9134650Y-557933D01*
X9316615Y-375968D01*
X9316615Y1552120D01*
X-3147037Y9763127D02*
G01*
X-2817929Y9434019D01*
X-675490Y9434019D01*
X-675490Y9434019D02*
G01*
X1805480Y9434019D01*
X2158997Y9080502D01*
X6715122Y-238122D02*
G01*
X6872729Y-395729D01*
X9062514Y-395729D01*
X-4572002Y9763127D02*
G01*
X-4572002Y9760689D01*
X-3891815Y9080502D01*
X-3556002Y9080502D01*
X8826497Y7175502D02*
G01*
X8616083Y7385916D01*
X1416911Y7385916D01*
X1206497Y7175502D01*
X10731497Y7175502D02*
G01*
X10776963Y7130112D01*
X10776963Y6558612D01*
X8813518Y4595243D01*
X7554363Y4595243D01*
X730247Y3567178D02*
G01*
X730247Y3365502D01*
X730247Y3567178D02*
G01*
X711197Y3586228D01*
X-2859026Y3586228D01*
X-3079752Y3365502D01*
X-4826002Y9763127D02*
G01*
X-4346983Y9284108D01*
X-4346983Y9268945D01*
X-3901391Y9314817D02*
G01*
X-1885317Y9314817D01*
X-1651002Y9080502D01*
X-2603502Y7175502D02*
G01*
X-3556002Y7175502D01*
X-5461002Y9080502D01*
X-11652252Y5270502D02*
G01*
X-11444023Y5478731D01*
X-6145481Y5478731D01*
X-5937252Y5270502D01*
X5542150Y4469462D02*
G01*
X5542150Y5221099D01*
X5492747Y5270502D01*
X13588997Y5270502D02*
G01*
X13634971Y5224477D01*
X13634971Y4643198D01*
X13428215Y4436315D01*
X5575297Y4436315D01*
X5542150Y4469462D01*
X7715247Y3111502D02*
G01*
X7670137Y3156612D01*
X5855357Y3156612D01*
X5810247Y3111502D01*
X3428997Y8826502D02*
G01*
X3383887Y8871612D01*
X1569107Y8871612D01*
X1523997Y8826502D01*
X9143997Y8826502D02*
G01*
X9104551Y8865948D01*
X7278443Y8865948D01*
X7238997Y8826502D01*
X3905247Y3111502D02*
G01*
X3937657Y3143912D01*
X5777837Y3143912D01*
X5810247Y3111502D01*
X3609058Y2726540D02*
G01*
X3905247Y3022729D01*
X3905247Y3111502D01*
X4864072Y8647813D02*
G01*
X5245503Y9029245D01*
X5663308Y9029245D01*
X5866051Y8826502D01*
X7238997Y8826502D01*
X3428997Y8826502D02*
G01*
X3466564Y8864069D01*
X4647816Y8864069D01*
X4864072Y8647813D01*
X4864072Y8647813D02*
G01*
X4936157Y8575728D01*
X-7842252Y5270502D02*
G01*
X-5937252Y3365502D01*
X-4984752Y3365502D01*
X-8318502Y7175502D02*
G01*
X-6885739Y5742739D01*
X-2519657Y5742739D01*
X-2127252Y5350334D01*
X-2127252Y5350334D02*
G01*
X-2127252Y5270502D01*
X-2127252Y5350334D02*
G01*
X-642520Y5350334D01*
X8350247Y3365502D02*
G01*
X7931198Y3784551D01*
X946401Y3784551D01*
X253997Y9080502D02*
G01*
X-994564Y9080502D01*
D11*
G01*
X6667500Y852500D03*
D12*
G01*
X6667500Y1052502D03*
D13*
G01*
X-381000Y1206500D03*
G01*
X254000Y1460500D03*
G01*
X-10382250Y5016500D03*
G01*
X-9747250Y5270500D03*
G01*
X-1809750Y3111500D03*
G01*
X-1174750Y3365500D03*
G01*
X11049000Y8826500D03*
G01*
X11684000Y9080500D03*
G01*
X-5619750Y3111500D03*
G01*
X-4984750Y3365500D03*
G01*
X7239000Y8826500D03*
G01*
X7874000Y9080500D03*
G01*
X3905250Y3111500D03*
G01*
X4540250Y3365500D03*
G01*
X-6572250Y5016500D03*
G01*
X-5937250Y5270500D03*
G01*
X12001500Y6921500D03*
G01*
X12636500Y7175500D03*
G01*
X5810250Y3111500D03*
G01*
X6445250Y3365500D03*
G01*
X-12287250Y5016500D03*
G01*
X-11652250Y5270500D03*
G01*
X-7048500Y6921500D03*
G01*
X-6413500Y7175500D03*
G01*
X9144000Y8826500D03*
G01*
X9779000Y9080500D03*
G01*
X-4667250Y5016500D03*
G01*
X-4032250Y5270500D03*
G01*
X-2762250Y5016500D03*
G01*
X-2127250Y5270500D03*
G01*
X-857250Y5016500D03*
G01*
X-222250Y5270500D03*
G01*
X2476500Y6921500D03*
G01*
X3111500Y7175500D03*
G01*
X1047750Y5016500D03*
G01*
X1682750Y5270500D03*
G01*
X2952750Y5016500D03*
G01*
X3587750Y5270500D03*
G01*
X5334000Y8826500D03*
G01*
X5969000Y9080500D03*
G01*
X-11811000Y8826500D03*
G01*
X-11176000Y9080500D03*
G01*
X-9906000Y8826500D03*
G01*
X-9271000Y9080500D03*
G01*
X-8001000Y8826500D03*
G01*
X-7366000Y9080500D03*
G01*
X-6096000Y8826500D03*
G01*
X-5461000Y9080500D03*
G01*
X-4191000Y8826500D03*
G01*
X-3556000Y9080500D03*
G01*
X-2286000Y8826500D03*
G01*
X-1651000Y9080500D03*
G01*
X-381000Y8826500D03*
G01*
X254000Y9080500D03*
G01*
X1524000Y8826500D03*
G01*
X2159000Y9080500D03*
G01*
X3429000Y8826500D03*
G01*
X4064000Y9080500D03*
G01*
X4857750Y5016500D03*
G01*
X5492750Y5270500D03*
G01*
X8191500Y6921500D03*
G01*
X8826500Y7175500D03*
G01*
X12954000Y5016500D03*
G01*
X13589000Y5270500D03*
G01*
X2000250Y3111500D03*
G01*
X2635250Y3365500D03*
G01*
X95250Y3111500D03*
G01*
X730250Y3365500D03*
G01*
X4381500Y6921500D03*
G01*
X5016500Y7175500D03*
G01*
X6286500Y6921500D03*
G01*
X6921500Y7175500D03*
G01*
X-10858500Y6921500D03*
G01*
X-10223500Y7175500D03*
G01*
X-5143500Y6921500D03*
G01*
X-4508500Y7175500D03*
G01*
X9858375Y5016500D03*
G01*
X10493375Y5270500D03*
G01*
X10096500Y6921500D03*
G01*
X10731500Y7175500D03*
G01*
X9620250Y1206500D03*
G01*
X10255250Y1460500D03*
G01*
X-8477250Y5016500D03*
G01*
X-7842250Y5270500D03*
G01*
X6762750Y5016500D03*
G01*
X7397750Y5270500D03*
G01*
X7715250Y3111500D03*
G01*
X8350250Y3365500D03*
G01*
X-3238500Y6921500D03*
G01*
X-2603500Y7175500D03*
G01*
X571500Y6921500D03*
G01*
X1206500Y7175500D03*
G01*
X-12763499Y6921500D03*
G01*
X-12128500Y7175500D03*
G01*
X-3714750Y3111500D03*
G01*
X-3079750Y3365500D03*
G01*
X-8953500Y6921500D03*
G01*
X-8318500Y7175500D03*
G01*
X-7524750Y3111500D03*
G01*
X-6889750Y3365500D03*
G01*
X-1333500Y6921500D03*
G01*
X-698500Y7175500D03*
G01*
X-9429750Y3111500D03*
G01*
X-8794750Y3365500D03*
G01*
X-12525247Y3111576D03*
G01*
X-11890247Y3365576D03*
G01*
X11287252Y3111576D03*
G01*
X11922252Y3365576D03*
D14*
G01*
X3413125Y-238125D03*
D15*
G01*
X2143125Y-238125D03*
D14*
G01*
X2397125Y-238125D03*
G01*
X2651125Y-238125D03*
G01*
X2905125Y-238125D03*
G01*
X3159125Y-238125D03*
G01*
X3667125Y-238125D03*
G01*
X3921125Y-238125D03*
G01*
X4175125Y-238125D03*
G01*
X4429125Y-238125D03*
D15*
G01*
X5445125Y-238125D03*
D14*
G01*
X5699125Y-238125D03*
G01*
X5953125Y-238125D03*
G01*
X6207125Y-238125D03*
G01*
X6461125Y-238125D03*
G01*
X6715125Y-238125D03*
G01*
X6969125Y-238125D03*
G01*
X7223125Y-238125D03*
G01*
X-1270000Y9763125D03*
D15*
G01*
X0Y9763125D03*
D14*
G01*
X-254000Y9763125D03*
G01*
X-508000Y9763125D03*
G01*
X-762000Y9763125D03*
G01*
X-1016000Y9763125D03*
G01*
X-1524000Y9763125D03*
G01*
X-1778000Y9763125D03*
G01*
X-2032000Y9763125D03*
G01*
X-2286000Y9763125D03*
D15*
G01*
X-3302000Y9763125D03*
D14*
G01*
X-3556000Y9763125D03*
G01*
X-3810000Y9763125D03*
G01*
X-4064000Y9763125D03*
G01*
X-4318000Y9763125D03*
G01*
X-4572000Y9763125D03*
G01*
X-4826000Y9763125D03*
G01*
X-5080000Y9763125D03*
G01*
X7143750Y1079500D03*
G01*
X7143750Y825500D03*
D16*
G01*
X-994562Y9080500D03*
G01*
X946404Y3784549D03*
G01*
X-642518Y5350332D03*
G01*
X3937000Y4064000D03*
G01*
X4936159Y8575725D03*
G01*
X3609060Y2726537D03*
G01*
X-3901389Y9314814D03*
G01*
X-4346981Y9268942D03*
G01*
X7554366Y4595240D03*
G01*
X-3369436Y8176437D03*
G01*
X9062516Y-395731D03*
G01*
X-675487Y9434017D03*
G01*
X9316618Y1552117D03*
G01*
X-4420260Y5941644D03*
G01*
X-1475638Y6150864D03*
G01*
X-9227489Y7513751D03*
G01*
X-1971014Y3427272D03*
G01*
X-3478098Y7611516D03*
G01*
X1589100Y10090226D03*
M02*
