G04 Layer: BottomLayer*
G04 EasyEDA v6.5.39, 2024-02-04 18:15:22*
G04 34cdbf00d3e34c3386613b9734a0afe0,5509f98a9368439c9cde498926e245b9,10*
G04 Gerber Generator version 0.2*
G04 Scale: 100 percent, Rotated: No, Reflected: No *
G04 Dimensions in millimeters *
G04 leading zeros omitted , absolute positions ,4 integer and 5 decimal *
%FSLAX45Y45*%
%MOMM*%

%ADD10C,0.5080*%
%ADD11C,2.5000*%
%ADD12C,1.5748*%
%ADD13R,1.5748X1.5748*%
%ADD14C,1.6510*%
%ADD15C,0.0166*%

%LPD*%
D10*
X-7524750Y3111576D02*
G01*
X-7696200Y2940126D01*
X-7696200Y2463876D01*
X-7239000Y2006676D01*
X-850900Y2006676D01*
X-723900Y2133676D01*
X-1333500Y6921576D02*
G01*
X-1316735Y6904812D01*
X-1316735Y4034612D01*
X-723900Y3441776D01*
X-723900Y2152726D01*
X-381000Y1809826D01*
X-381000Y1206576D01*
X95247Y3111502D02*
G01*
X-857252Y4064002D01*
X-857252Y5016502D01*
X8564626Y1460576D02*
G01*
X9080500Y1460576D01*
X9207500Y1333576D01*
X9410700Y1333576D01*
X9537700Y1460576D01*
X10255250Y1460576D01*
X11074400Y2903804D02*
G01*
X10947400Y2903804D01*
X10947400Y1864436D01*
X10335260Y1252550D01*
X9666224Y1252550D01*
X9620250Y1206576D01*
X11074400Y2903804D02*
G01*
X10938764Y2904058D01*
X9858248Y3988384D01*
X9858248Y5016576D01*
X11287252Y3111576D02*
G01*
X11079480Y2903804D01*
X4107434Y9036888D02*
G01*
X4376165Y9036888D01*
X4838700Y9499676D01*
X11264900Y9499676D01*
X11684000Y9080576D01*
X7874000Y9080576D02*
G01*
X7659878Y9294698D01*
X4925822Y9294698D01*
X4533900Y8902776D01*
X4533900Y8320608D01*
X3587750Y7374458D01*
X3587750Y5270576D01*
X4107434Y9036888D02*
G01*
X4381500Y9036888D01*
X4381500Y8445576D01*
X3111500Y7175576D01*
X-11890250Y3365578D02*
G01*
X-9090560Y3365578D01*
X-8882509Y3157527D01*
X-8713802Y3157527D01*
X-7250102Y4621227D01*
X-7250102Y7016777D01*
X-7091377Y7175502D01*
X-6413502Y7175502D01*
X-1016002Y9763127D02*
G01*
X-1333502Y9445627D01*
X-1333502Y6921502D01*
X-9429752Y3111502D02*
G01*
X-11931220Y3111502D01*
X-12287252Y3467534D01*
X-12287252Y5016502D01*
X3667122Y-238122D02*
G01*
X2000247Y1428752D01*
X2000247Y3111502D01*
X2952747Y5016502D02*
G01*
X2476497Y5492752D01*
X2476497Y6921502D01*
X1589097Y10090228D02*
G01*
X2476497Y9202828D01*
X2476497Y6921502D01*
X2397122Y-238122D02*
G01*
X2670299Y-511299D01*
X7902445Y-511299D01*
X9620247Y1206502D01*
X12953997Y5016502D02*
G01*
X12001497Y5969002D01*
X12001497Y6921502D01*
X12001497Y6921502D02*
G01*
X11048997Y7874002D01*
X11048997Y8826502D01*
X-10223502Y7175502D02*
G01*
X-9747252Y6699252D01*
X-9747252Y5270502D01*
X-11176002Y9080502D02*
G01*
X-10223502Y8128002D01*
X-10223502Y7175502D01*
X4063997Y9080502D02*
G01*
X4107533Y9036966D01*
X5699122Y-238122D02*
G01*
X5699122Y861773D01*
X3629149Y2931746D01*
X3629149Y4883863D01*
X3333112Y5179900D01*
X3333112Y6953912D01*
X3333087Y6953912D01*
X3111497Y7175502D01*
X-3556002Y9763127D02*
G01*
X-3556002Y9435442D01*
X-3763901Y9227543D01*
X-3763901Y8992339D01*
X-3503246Y8731684D01*
X-3503246Y8390740D01*
X-3528367Y8365619D01*
X-3528367Y7661785D01*
X-3478100Y7611518D01*
X-381002Y8826502D02*
G01*
X-381002Y9382127D01*
X-762002Y9763127D01*
X2905122Y-238122D02*
G01*
X1105329Y1561670D01*
X1105329Y4457448D01*
X-381002Y5943780D01*
X-381002Y8826502D01*
X-2286002Y9763127D02*
G01*
X-2496390Y9552739D01*
X-2496390Y8738618D01*
X-1920064Y8162292D01*
X-1920064Y3478227D01*
X-1971017Y3427275D01*
X5953122Y-238122D02*
G01*
X6118959Y-403959D01*
X7293912Y-403959D01*
X8564496Y866625D01*
X8564496Y1460502D01*
X8564496Y1460502D02*
G01*
X8564496Y4103753D01*
X7397747Y5270502D01*
X-9227492Y7513754D02*
G01*
X-9227492Y3798242D01*
X-8794752Y3365502D01*
X-9271002Y9080502D02*
G01*
X-9227492Y9036992D01*
X-9227492Y7513754D01*
X-4508502Y7175502D02*
G01*
X-4243758Y6910758D01*
X-4243758Y5193642D01*
X-3999867Y4949751D01*
X-3999867Y3110003D01*
X-3458339Y2568475D01*
X-1301168Y2568475D01*
X-1133198Y2736446D01*
X-1133198Y3323948D01*
X-1174752Y3365502D01*
X-1174752Y3365502D02*
G01*
X-1475640Y3666390D01*
X-1475640Y6150866D01*
X-3810002Y9763127D02*
G01*
X-4105785Y9467344D01*
X-4379470Y9467344D01*
X-4508502Y9338312D01*
X-4508502Y7175502D01*
X3413122Y-238122D02*
G01*
X1798876Y1376123D01*
X1798876Y4802863D01*
X571497Y6030241D01*
X571497Y6921502D01*
X-8477252Y5016502D02*
G01*
X-8953502Y5492752D01*
X-8953502Y6921502D01*
X-3714752Y3111502D02*
G01*
X-3675331Y3150923D01*
X-2999539Y3150923D01*
X-2866824Y3283638D01*
X-2866824Y4389909D01*
X-3238502Y4761588D01*
X-3238502Y6921502D01*
X-3238502Y6921502D02*
G01*
X-3210511Y6949493D01*
X-3210511Y9078826D01*
X-2371067Y9918270D01*
X-1425145Y9918270D01*
X-1270002Y9763127D01*
X4175122Y-238122D02*
G01*
X3093387Y843612D01*
X3093387Y3783662D01*
X2275126Y4601923D01*
X2275126Y8880248D01*
X2367353Y8972476D01*
X2367353Y9157007D01*
X1761233Y9763127D01*
X-2Y9763127D01*
X-4667252Y5016502D02*
G01*
X-4667252Y4064002D01*
X-5619752Y3111502D01*
X-7048502Y6921502D02*
G01*
X-7048502Y5492752D01*
X-6572252Y5016502D01*
X-1778002Y9763127D02*
G01*
X-1863422Y9677707D01*
X-1863422Y8994726D01*
X-1617957Y8749261D01*
X-1617957Y6233365D01*
X-1809752Y6041570D01*
X-1809752Y3111502D01*
X-2762252Y5016502D02*
G01*
X-2762252Y3985287D01*
X-1888467Y3111502D01*
X-1809752Y3111502D01*
X6921497Y7175502D02*
G01*
X6921497Y8128002D01*
X5968997Y9080502D01*
X-6889752Y3365502D02*
G01*
X-4420262Y5834992D01*
X-4420262Y5941646D01*
X9316615Y1552120D02*
G01*
X9316615Y5270502D01*
X10493372Y5270502D02*
G01*
X9316615Y5270502D01*
X9316615Y5270502D02*
G01*
X8826497Y5270502D01*
X6921497Y7175502D01*
X-222252Y5270502D02*
G01*
X-483567Y5531817D01*
X-483567Y8611567D01*
X-675490Y8803490D01*
X-675490Y9434019D01*
X9778997Y9080502D02*
G01*
X9822533Y9036966D01*
X9822533Y8107301D01*
X8890734Y7175502D01*
X8826497Y7175502D02*
G01*
X8890734Y7175502D01*
X8890734Y7175502D02*
G01*
X11922249Y4143987D01*
X11922249Y3365578D01*
X-6413502Y7175502D02*
G01*
X-6413502Y8795336D01*
X-5633138Y9575700D01*
X-4759429Y9575700D01*
X-4572002Y9763127D01*
X11922249Y3365578D02*
G01*
X11963397Y3324405D01*
X11963397Y2505179D01*
X9062514Y-395729D01*
X1206497Y7175502D02*
G01*
X2169132Y6212867D01*
X2169132Y3831617D01*
X2635247Y3365502D01*
X-3556002Y9080502D02*
G01*
X-3369439Y8893939D01*
X-3369439Y8176440D01*
X-3079752Y3365502D02*
G01*
X-3079752Y4318002D01*
X-4032252Y5270502D01*
X6969122Y-238122D02*
G01*
X6969122Y2841627D01*
X6445247Y3365502D01*
X7554363Y4595243D02*
G01*
X7554363Y4474618D01*
X6445247Y3365502D01*
X-4032252Y5270502D02*
G01*
X-4032252Y7217488D01*
X-4393948Y7579184D01*
X-4393948Y9221980D01*
X-4346983Y9268945D01*
X-4346983Y9268945D02*
G01*
X-3947264Y9268945D01*
X-3901391Y9314817D01*
X6461122Y-238122D02*
G01*
X6461122Y1444627D01*
X4540247Y3365502D01*
X5492747Y5270502D02*
G01*
X5535952Y5227297D01*
X5535952Y4361207D01*
X4540247Y3365502D01*
X-5461002Y9080502D02*
G01*
X-5000627Y9080502D01*
X-4318002Y9763127D01*
X-5937252Y5270502D02*
G01*
X-5419448Y5788306D01*
X-5419448Y9038948D01*
X-5461002Y9080502D01*
X2651122Y-238122D02*
G01*
X2809567Y-396567D01*
X4493841Y-396567D01*
X4584265Y-306143D01*
X4584265Y1751332D01*
X3609058Y2726540D01*
X5810247Y3111502D02*
G01*
X5810247Y4064002D01*
X6762747Y5016502D01*
X4936157Y8575728D02*
G01*
X4814948Y8454519D01*
X4814948Y7020105D01*
X6762747Y5072306D01*
X6762747Y5016502D01*
X1523997Y8826502D02*
G01*
X941372Y9409127D01*
X-154002Y9409127D01*
X-508002Y9763127D01*
X-4064002Y9763127D02*
G01*
X-4225876Y9925001D01*
X-6521503Y9925001D01*
X-7366002Y9080502D01*
X-7366002Y9080502D02*
G01*
X-8079971Y9080502D01*
X-8524801Y8635672D01*
X-7842252Y5270502D02*
G01*
X-7842252Y6354244D01*
X-8524801Y7036793D01*
X-8524801Y8635672D01*
X-8524801Y8635672D02*
G01*
X-9181594Y9292465D01*
X-11647121Y9292465D01*
X-12128502Y8811084D01*
X-12128502Y7175502D01*
X12636497Y7175502D02*
G01*
X12636497Y7771056D01*
X11123165Y9284413D01*
X8077908Y9284413D01*
X7873997Y9080502D01*
X3937000Y4064000D02*
G01*
X3937000Y4921250D01*
X3587747Y5270500D01*
X6207122Y-238125D02*
G01*
X6207122Y1341678D01*
X3937000Y3611803D01*
X3937000Y4064000D01*
X-5080002Y9763127D02*
G01*
X-5730877Y9763127D01*
X-8318502Y7175502D01*
X8350247Y3365502D02*
G01*
X8391801Y3323948D01*
X8391801Y930556D01*
X7223122Y-238122D01*
X8350247Y3365502D02*
G01*
X8350247Y3961056D01*
X7713291Y4598012D01*
X7713291Y4661080D01*
X7620200Y4754171D01*
X7557132Y4754171D01*
X5135801Y7175502D01*
X5016497Y7175502D01*
X946401Y3784551D02*
G01*
X934844Y3772994D01*
X253997Y1460502D02*
G01*
X934844Y2141349D01*
X934844Y3772969D01*
X934844Y3772994D01*
X934844Y3772994D02*
G01*
X-642520Y5350334D01*
X-642520Y5350334D02*
G01*
X-642520Y6831154D01*
X-994564Y7183198D01*
X-994564Y9080502D01*
D11*
G01*
X-381000Y1206500D03*
G01*
X254000Y1460500D03*
G01*
X-10382250Y5016500D03*
G01*
X-9747250Y5270500D03*
G01*
X-1809750Y3111500D03*
G01*
X-1174750Y3365500D03*
G01*
X11049000Y8826500D03*
G01*
X11684000Y9080500D03*
G01*
X-5619750Y3111500D03*
G01*
X-4984750Y3365500D03*
G01*
X7239000Y8826500D03*
G01*
X7874000Y9080500D03*
G01*
X3905250Y3111500D03*
G01*
X4540250Y3365500D03*
G01*
X-6572250Y5016500D03*
G01*
X-5937250Y5270500D03*
G01*
X12001500Y6921500D03*
G01*
X12636500Y7175500D03*
G01*
X5810250Y3111500D03*
G01*
X6445250Y3365500D03*
G01*
X-12287250Y5016500D03*
G01*
X-11652250Y5270500D03*
G01*
X-7048500Y6921500D03*
G01*
X-6413500Y7175500D03*
G01*
X9144000Y8826500D03*
G01*
X9779000Y9080500D03*
G01*
X-4667250Y5016500D03*
G01*
X-4032250Y5270500D03*
G01*
X-2762250Y5016500D03*
G01*
X-2127250Y5270500D03*
G01*
X-857250Y5016500D03*
G01*
X-222250Y5270500D03*
G01*
X2476500Y6921500D03*
G01*
X3111500Y7175500D03*
G01*
X1047750Y5016500D03*
G01*
X1682750Y5270500D03*
G01*
X2952750Y5016500D03*
G01*
X3587750Y5270500D03*
G01*
X5334000Y8826500D03*
G01*
X5969000Y9080500D03*
G01*
X-11811000Y8826500D03*
G01*
X-11176000Y9080500D03*
G01*
X-9906000Y8826500D03*
G01*
X-9271000Y9080500D03*
G01*
X-8001000Y8826500D03*
G01*
X-7366000Y9080500D03*
G01*
X-6096000Y8826500D03*
G01*
X-5461000Y9080500D03*
G01*
X-4191000Y8826500D03*
G01*
X-3556000Y9080500D03*
G01*
X-2286000Y8826500D03*
G01*
X-1651000Y9080500D03*
G01*
X-381000Y8826500D03*
G01*
X254000Y9080500D03*
G01*
X1524000Y8826500D03*
G01*
X2159000Y9080500D03*
G01*
X3429000Y8826500D03*
G01*
X4064000Y9080500D03*
G01*
X4857750Y5016500D03*
G01*
X5492750Y5270500D03*
G01*
X8191500Y6921500D03*
G01*
X8826500Y7175500D03*
G01*
X12954000Y5016500D03*
G01*
X13589000Y5270500D03*
G01*
X2000250Y3111500D03*
G01*
X2635250Y3365500D03*
G01*
X95250Y3111500D03*
G01*
X730250Y3365500D03*
G01*
X4381500Y6921500D03*
G01*
X5016500Y7175500D03*
G01*
X6286500Y6921500D03*
G01*
X6921500Y7175500D03*
G01*
X-10858500Y6921500D03*
G01*
X-10223500Y7175500D03*
G01*
X-5143500Y6921500D03*
G01*
X-4508500Y7175500D03*
G01*
X9858375Y5016500D03*
G01*
X10493375Y5270500D03*
G01*
X10096500Y6921500D03*
G01*
X10731500Y7175500D03*
G01*
X9620250Y1206500D03*
G01*
X10255250Y1460500D03*
G01*
X-8477250Y5016500D03*
G01*
X-7842250Y5270500D03*
G01*
X6762750Y5016500D03*
G01*
X7397750Y5270500D03*
G01*
X7715250Y3111500D03*
G01*
X8350250Y3365500D03*
G01*
X-3238500Y6921500D03*
G01*
X-2603500Y7175500D03*
G01*
X571500Y6921500D03*
G01*
X1206500Y7175500D03*
G01*
X-12763499Y6921500D03*
G01*
X-12128500Y7175500D03*
G01*
X-3714750Y3111500D03*
G01*
X-3079750Y3365500D03*
G01*
X-8953500Y6921500D03*
G01*
X-8318500Y7175500D03*
G01*
X-7524750Y3111500D03*
G01*
X-6889750Y3365500D03*
G01*
X-1333500Y6921500D03*
G01*
X-698500Y7175500D03*
G01*
X-9429750Y3111500D03*
G01*
X-8794750Y3365500D03*
G01*
X-12525247Y3111576D03*
G01*
X-11890247Y3365576D03*
G01*
X11287252Y3111576D03*
G01*
X11922252Y3365576D03*
D12*
G01*
X3413125Y-238125D03*
D13*
G01*
X2143125Y-238125D03*
D12*
G01*
X2397125Y-238125D03*
G01*
X2651125Y-238125D03*
G01*
X2905125Y-238125D03*
G01*
X3159125Y-238125D03*
G01*
X3667125Y-238125D03*
G01*
X3921125Y-238125D03*
G01*
X4175125Y-238125D03*
G01*
X4429125Y-238125D03*
D13*
G01*
X5445125Y-238125D03*
D12*
G01*
X5699125Y-238125D03*
G01*
X5953125Y-238125D03*
G01*
X6207125Y-238125D03*
G01*
X6461125Y-238125D03*
G01*
X6715125Y-238125D03*
G01*
X6969125Y-238125D03*
G01*
X7223125Y-238125D03*
G01*
X-1270000Y9763125D03*
D13*
G01*
X0Y9763125D03*
D12*
G01*
X-254000Y9763125D03*
G01*
X-508000Y9763125D03*
G01*
X-762000Y9763125D03*
G01*
X-1016000Y9763125D03*
G01*
X-1524000Y9763125D03*
G01*
X-1778000Y9763125D03*
G01*
X-2032000Y9763125D03*
G01*
X-2286000Y9763125D03*
D13*
G01*
X-3302000Y9763125D03*
D12*
G01*
X-3556000Y9763125D03*
G01*
X-3810000Y9763125D03*
G01*
X-4064000Y9763125D03*
G01*
X-4318000Y9763125D03*
G01*
X-4572000Y9763125D03*
G01*
X-4826000Y9763125D03*
G01*
X-5080000Y9763125D03*
G01*
X7143750Y1079500D03*
G01*
X7143750Y825500D03*
D14*
G01*
X-994562Y9080500D03*
G01*
X946404Y3784549D03*
G01*
X-642518Y5350332D03*
G01*
X3937000Y4064000D03*
G01*
X4936159Y8575725D03*
G01*
X3609060Y2726537D03*
G01*
X-3901389Y9314814D03*
G01*
X-4346981Y9268942D03*
G01*
X7554366Y4595240D03*
G01*
X-3369436Y8176437D03*
G01*
X9062516Y-395731D03*
G01*
X-675487Y9434017D03*
G01*
X9316618Y1552117D03*
G01*
X-4420260Y5941644D03*
G01*
X-1475638Y6150864D03*
G01*
X-9227489Y7513751D03*
G01*
X-1971014Y3427272D03*
G01*
X-3478098Y7611516D03*
G01*
X1589100Y10090226D03*
M02*
