G04 Layer: TopSilkscreenLayer*
G04 EasyEDA v6.5.39, 2024-02-04 18:15:22*
G04 34cdbf00d3e34c3386613b9734a0afe0,5509f98a9368439c9cde498926e245b9,10*
G04 Gerber Generator version 0.2*
G04 Scale: 100 percent, Rotated: No, Reflected: No *
G04 Dimensions in millimeters *
G04 leading zeros omitted , absolute positions ,4 integer and 5 decimal *
%FSLAX45Y45*%
%MOMM*%

%ADD10C,0.2500*%
%ADD11C,0.1524*%
%ADD12C,0.1778*%
%ADD13C,0.2032*%
%ADD14C,0.2540*%
%ADD15C,0.0164*%

%LPD*%
D10*
X-308355Y446023D02*
G01*
X-326643Y464057D01*
X-353821Y473202D01*
X-390143Y473202D01*
X-417575Y464057D01*
X-435609Y446023D01*
X-435609Y427736D01*
X-426719Y409702D01*
X-417575Y400557D01*
X-399287Y391414D01*
X-344677Y373380D01*
X-326643Y364236D01*
X-317500Y355092D01*
X-308355Y336804D01*
X-308355Y309626D01*
X-326643Y291338D01*
X-353821Y282447D01*
X-390143Y282447D01*
X-417575Y291338D01*
X-435609Y309626D01*
X-248411Y473202D02*
G01*
X-248411Y282447D01*
X-248411Y473202D02*
G01*
X-166623Y473202D01*
X-139445Y464057D01*
X-130301Y455168D01*
X-121157Y436880D01*
X-121157Y409702D01*
X-130301Y391414D01*
X-139445Y382270D01*
X-166623Y373380D01*
X-248411Y373380D01*
X11684Y473202D02*
G01*
X-61213Y282447D01*
X11684Y473202D02*
G01*
X84328Y282447D01*
X-33781Y345947D02*
G01*
X57150Y345947D01*
X280670Y427736D02*
G01*
X271526Y446023D01*
X253492Y464057D01*
X235204Y473202D01*
X198882Y473202D01*
X180594Y464057D01*
X162560Y446023D01*
X153415Y427736D01*
X144272Y400557D01*
X144272Y355092D01*
X153415Y327914D01*
X162560Y309626D01*
X180594Y291338D01*
X198882Y282447D01*
X235204Y282447D01*
X253492Y291338D01*
X271526Y309626D01*
X280670Y327914D01*
X340614Y473202D02*
G01*
X340614Y282447D01*
X340614Y473202D02*
G01*
X458978Y473202D01*
X340614Y382270D02*
G01*
X413512Y382270D01*
X340614Y282447D02*
G01*
X458978Y282447D01*
X-10528553Y4364481D02*
G01*
X-10601451Y4173473D01*
X-10528553Y4364481D02*
G01*
X-10455909Y4173473D01*
X-10574019Y4237228D02*
G01*
X-10483087Y4237228D01*
X-2028697Y2459228D02*
G01*
X-2028697Y2268473D01*
X-2028697Y2459228D02*
G01*
X-1946655Y2459228D01*
X-1919477Y2450338D01*
X-1910334Y2441194D01*
X-1901443Y2422906D01*
X-1901443Y2404872D01*
X-1910334Y2386584D01*
X-1919477Y2377439D01*
X-1946655Y2368550D01*
X-2028697Y2368550D02*
G01*
X-1946655Y2368550D01*
X-1919477Y2359406D01*
X-1910334Y2350262D01*
X-1901443Y2331973D01*
X-1901443Y2304796D01*
X-1910334Y2286507D01*
X-1919477Y2277618D01*
X-1946655Y2268473D01*
X-2028697Y2268473D01*
X11194288Y8093202D02*
G01*
X11194288Y7902447D01*
X11194288Y8093202D02*
G01*
X11276076Y8093202D01*
X11303254Y8084312D01*
X11312398Y8075168D01*
X11321542Y8056880D01*
X11321542Y8038846D01*
X11312398Y8020558D01*
X11303254Y8011414D01*
X11276076Y8002270D01*
X11194288Y8002270D02*
G01*
X11276076Y8002270D01*
X11303254Y7993380D01*
X11312398Y7984236D01*
X11321542Y7965947D01*
X11321542Y7938770D01*
X11312398Y7920481D01*
X11303254Y7911592D01*
X11276076Y7902447D01*
X11194288Y7902447D01*
X11381486Y8093202D02*
G01*
X11381486Y7902447D01*
X11381486Y8093202D02*
G01*
X11463274Y8093202D01*
X11490706Y8084312D01*
X11499596Y8075168D01*
X11508740Y8056880D01*
X11508740Y8038846D01*
X11499596Y8020558D01*
X11490706Y8011414D01*
X11463274Y8002270D01*
X11381486Y8002270D01*
X11445240Y8002270D02*
G01*
X11508740Y7902447D01*
X11568684Y8093202D02*
G01*
X11568684Y7902447D01*
X11696192Y8093202D02*
G01*
X11568684Y7965947D01*
X11614150Y8011414D02*
G01*
X11696192Y7902447D01*
X-5702553Y2414015D02*
G01*
X-5711697Y2432050D01*
X-5729731Y2450338D01*
X-5748019Y2459228D01*
X-5784341Y2459228D01*
X-5802629Y2450338D01*
X-5820663Y2432050D01*
X-5829807Y2414015D01*
X-5838951Y2386584D01*
X-5838951Y2341118D01*
X-5829807Y2313939D01*
X-5820663Y2295652D01*
X-5802629Y2277618D01*
X-5784341Y2268473D01*
X-5748019Y2268473D01*
X-5729731Y2277618D01*
X-5711697Y2295652D01*
X-5702553Y2313939D01*
X7320788Y8047736D02*
G01*
X7311644Y8066023D01*
X7293610Y8084312D01*
X7275322Y8093202D01*
X7239000Y8093202D01*
X7220712Y8084312D01*
X7202678Y8066023D01*
X7193534Y8047736D01*
X7184390Y8020558D01*
X7184390Y7975092D01*
X7193534Y7947914D01*
X7202678Y7929626D01*
X7220712Y7911592D01*
X7239000Y7902447D01*
X7275322Y7902447D01*
X7293610Y7911592D01*
X7311644Y7929626D01*
X7320788Y7947914D01*
X7435342Y8093202D02*
G01*
X7417308Y8084312D01*
X7399020Y8066023D01*
X7389876Y8047736D01*
X7380732Y8020558D01*
X7380732Y7975092D01*
X7389876Y7947914D01*
X7399020Y7929626D01*
X7417308Y7911592D01*
X7435342Y7902447D01*
X7471664Y7902447D01*
X7489952Y7911592D01*
X7507986Y7929626D01*
X7517130Y7947914D01*
X7526274Y7975092D01*
X7526274Y8020558D01*
X7517130Y8047736D01*
X7507986Y8066023D01*
X7489952Y8084312D01*
X7471664Y8093202D01*
X7435342Y8093202D01*
X7586218Y8093202D02*
G01*
X7586218Y7902447D01*
X7586218Y7902447D02*
G01*
X7695438Y7902447D01*
X7809992Y8093202D02*
G01*
X7791704Y8084312D01*
X7773670Y8066023D01*
X7764526Y8047736D01*
X7755382Y8020558D01*
X7755382Y7975092D01*
X7764526Y7947914D01*
X7773670Y7929626D01*
X7791704Y7911592D01*
X7809992Y7902447D01*
X7846314Y7902447D01*
X7864348Y7911592D01*
X7882636Y7929626D01*
X7891780Y7947914D01*
X7900924Y7975092D01*
X7900924Y8020558D01*
X7891780Y8047736D01*
X7882636Y8066023D01*
X7864348Y8084312D01*
X7846314Y8093202D01*
X7809992Y8093202D01*
X7960868Y8093202D02*
G01*
X7960868Y7902447D01*
X7960868Y8093202D02*
G01*
X8088122Y7902447D01*
X8088122Y8093202D02*
G01*
X8088122Y7902447D01*
X3887215Y2332989D02*
G01*
X3878072Y2351023D01*
X3859784Y2369312D01*
X3841750Y2378456D01*
X3805428Y2378456D01*
X3787140Y2369312D01*
X3769106Y2351023D01*
X3759962Y2332989D01*
X3750818Y2305557D01*
X3750818Y2260092D01*
X3759962Y2232914D01*
X3769106Y2214626D01*
X3787140Y2196592D01*
X3805428Y2187447D01*
X3841750Y2187447D01*
X3859784Y2196592D01*
X3878072Y2214626D01*
X3887215Y2232914D01*
X4001770Y2378456D02*
G01*
X3983482Y2369312D01*
X3965448Y2351023D01*
X3956304Y2332989D01*
X3947160Y2305557D01*
X3947160Y2260092D01*
X3956304Y2232914D01*
X3965448Y2214626D01*
X3983482Y2196592D01*
X4001770Y2187447D01*
X4038092Y2187447D01*
X4056380Y2196592D01*
X4074414Y2214626D01*
X4083558Y2232914D01*
X4092702Y2260092D01*
X4092702Y2305557D01*
X4083558Y2332989D01*
X4074414Y2351023D01*
X4056380Y2369312D01*
X4038092Y2378456D01*
X4001770Y2378456D01*
X4152646Y2378456D02*
G01*
X4152646Y2187447D01*
X4152646Y2378456D02*
G01*
X4225290Y2187447D01*
X4298188Y2378456D02*
G01*
X4225290Y2187447D01*
X4298188Y2378456D02*
G01*
X4298188Y2187447D01*
X4358132Y2378456D02*
G01*
X4358132Y2187447D01*
X4358132Y2378456D02*
G01*
X4430776Y2187447D01*
X4503420Y2378456D02*
G01*
X4430776Y2187447D01*
X4503420Y2378456D02*
G01*
X4503420Y2187447D01*
X4636262Y2378456D02*
G01*
X4563618Y2187447D01*
X4636262Y2378456D02*
G01*
X4708906Y2187447D01*
X4590796Y2250947D02*
G01*
X4681728Y2250947D01*
X-6791451Y4364481D02*
G01*
X-6791451Y4173473D01*
X-6791451Y4364481D02*
G01*
X-6727951Y4364481D01*
X-6700519Y4355338D01*
X-6682485Y4337304D01*
X-6673341Y4319015D01*
X-6664197Y4291838D01*
X-6664197Y4246372D01*
X-6673341Y4218939D01*
X-6682485Y4200906D01*
X-6700519Y4182618D01*
X-6727951Y4173473D01*
X-6791451Y4173473D01*
X12146788Y6188202D02*
G01*
X12146788Y5997194D01*
X12146788Y6188202D02*
G01*
X12210288Y6188202D01*
X12237720Y6179057D01*
X12255754Y6160770D01*
X12264898Y6142736D01*
X12274042Y6115304D01*
X12274042Y6069838D01*
X12264898Y6042660D01*
X12255754Y6024626D01*
X12237720Y6006338D01*
X12210288Y5997194D01*
X12146788Y5997194D01*
X12333986Y6188202D02*
G01*
X12333986Y5997194D01*
X12333986Y6188202D02*
G01*
X12452096Y6188202D01*
X12333986Y6097270D02*
G01*
X12406884Y6097270D01*
X12333986Y5997194D02*
G01*
X12452096Y5997194D01*
X12512294Y6188202D02*
G01*
X12512294Y5997194D01*
X12512294Y5997194D02*
G01*
X12621260Y5997194D01*
X5855462Y2378456D02*
G01*
X5855462Y2187447D01*
X5855462Y2378456D02*
G01*
X5919215Y2378456D01*
X5946394Y2369312D01*
X5964428Y2351023D01*
X5973572Y2332989D01*
X5982715Y2305557D01*
X5982715Y2260092D01*
X5973572Y2232914D01*
X5964428Y2214626D01*
X5946394Y2196592D01*
X5919215Y2187447D01*
X5855462Y2187447D01*
X6097270Y2378456D02*
G01*
X6078982Y2369312D01*
X6060948Y2351023D01*
X6051804Y2332989D01*
X6042660Y2305557D01*
X6042660Y2260092D01*
X6051804Y2232914D01*
X6060948Y2214626D01*
X6078982Y2196592D01*
X6097270Y2187447D01*
X6133592Y2187447D01*
X6151880Y2196592D01*
X6169914Y2214626D01*
X6179058Y2232914D01*
X6188202Y2260092D01*
X6188202Y2305557D01*
X6179058Y2332989D01*
X6169914Y2351023D01*
X6151880Y2369312D01*
X6133592Y2378456D01*
X6097270Y2378456D01*
X6311900Y2378456D02*
G01*
X6311900Y2187447D01*
X6248146Y2378456D02*
G01*
X6375400Y2378456D01*
X-12522225Y4354728D02*
G01*
X-12522225Y4163720D01*
X-12522225Y4354728D02*
G01*
X-12458471Y4354728D01*
X-12431293Y4345584D01*
X-12413005Y4327550D01*
X-12404115Y4309262D01*
X-12394971Y4282084D01*
X-12394971Y4236618D01*
X-12404115Y4209186D01*
X-12413005Y4191152D01*
X-12431293Y4172864D01*
X-12458471Y4163720D01*
X-12522225Y4163720D01*
X-12280417Y4354728D02*
G01*
X-12298451Y4345584D01*
X-12316739Y4327550D01*
X-12325883Y4309262D01*
X-12335027Y4282084D01*
X-12335027Y4236618D01*
X-12325883Y4209186D01*
X-12316739Y4191152D01*
X-12298451Y4172864D01*
X-12280417Y4163720D01*
X-12244095Y4163720D01*
X-12225807Y4172864D01*
X-12207773Y4191152D01*
X-12198629Y4209186D01*
X-12189485Y4236618D01*
X-12189485Y4282084D01*
X-12198629Y4309262D01*
X-12207773Y4327550D01*
X-12225807Y4345584D01*
X-12244095Y4354728D01*
X-12280417Y4354728D01*
X-12129541Y4354728D02*
G01*
X-12084075Y4163720D01*
X-12038609Y4354728D02*
G01*
X-12084075Y4163720D01*
X-12038609Y4354728D02*
G01*
X-11993143Y4163720D01*
X-11947677Y4354728D02*
G01*
X-11993143Y4163720D01*
X-11887733Y4354728D02*
G01*
X-11887733Y4163720D01*
X-11887733Y4354728D02*
G01*
X-11760479Y4163720D01*
X-11760479Y4354728D02*
G01*
X-11760479Y4163720D01*
X-7267447Y6269228D02*
G01*
X-7267447Y6078220D01*
X-7267447Y6269228D02*
G01*
X-7149337Y6269228D01*
X-7267447Y6178296D02*
G01*
X-7194803Y6178296D01*
X-7267447Y6078220D02*
G01*
X-7149337Y6078220D01*
X9089644Y8093202D02*
G01*
X9089644Y7902447D01*
X9089644Y8093202D02*
G01*
X9207754Y8093202D01*
X9089644Y8002270D02*
G01*
X9162288Y8002270D01*
X9089644Y7902447D02*
G01*
X9207754Y7902447D01*
X9322308Y8093202D02*
G01*
X9304274Y8084312D01*
X9285986Y8066023D01*
X9276842Y8047736D01*
X9267698Y8020558D01*
X9267698Y7975092D01*
X9276842Y7947914D01*
X9285986Y7929626D01*
X9304274Y7911592D01*
X9322308Y7902447D01*
X9358630Y7902447D01*
X9376918Y7911592D01*
X9394952Y7929626D01*
X9404096Y7947914D01*
X9413240Y7975092D01*
X9413240Y8020558D01*
X9404096Y8047736D01*
X9394952Y8066023D01*
X9376918Y8084312D01*
X9358630Y8093202D01*
X9322308Y8093202D01*
X9349740Y7938770D02*
G01*
X9404096Y7884160D01*
X9473184Y8093202D02*
G01*
X9473184Y7956804D01*
X9482328Y7929626D01*
X9500615Y7911592D01*
X9527794Y7902447D01*
X9546082Y7902447D01*
X9573260Y7911592D01*
X9591548Y7929626D01*
X9600438Y7956804D01*
X9600438Y8093202D01*
X9733280Y8093202D02*
G01*
X9660636Y7902447D01*
X9733280Y8093202D02*
G01*
X9805924Y7902447D01*
X9687814Y7965947D02*
G01*
X9778746Y7965947D01*
X9865868Y8093202D02*
G01*
X9865868Y7902447D01*
X9865868Y7902447D02*
G01*
X9975088Y7902447D01*
X-4886451Y4364481D02*
G01*
X-4886451Y4173473D01*
X-4886451Y4364481D02*
G01*
X-4768341Y4364481D01*
X-4886451Y4273550D02*
G01*
X-4813553Y4273550D01*
X-2844800Y4319015D02*
G01*
X-2853943Y4337304D01*
X-2871977Y4355338D01*
X-2890265Y4364481D01*
X-2926587Y4364481D01*
X-2944875Y4355338D01*
X-2962909Y4337304D01*
X-2972053Y4319015D01*
X-2981197Y4291838D01*
X-2981197Y4246372D01*
X-2972053Y4218939D01*
X-2962909Y4200906D01*
X-2944875Y4182618D01*
X-2926587Y4173473D01*
X-2890265Y4173473D01*
X-2871977Y4182618D01*
X-2853943Y4200906D01*
X-2844800Y4218939D01*
X-2844800Y4246372D01*
X-2890265Y4246372D02*
G01*
X-2844800Y4246372D01*
X-1076197Y4364481D02*
G01*
X-1076197Y4173473D01*
X-948943Y4364481D02*
G01*
X-948943Y4173473D01*
X-1076197Y4273550D02*
G01*
X-948943Y4273550D01*
X2257298Y6269228D02*
G01*
X2257298Y6078220D01*
X919480Y4364481D02*
G01*
X919480Y4218939D01*
X910336Y4191762D01*
X901192Y4182618D01*
X883158Y4173473D01*
X864870Y4173473D01*
X846836Y4182618D01*
X837692Y4191762D01*
X828548Y4218939D01*
X828548Y4237228D01*
X2733802Y4364481D02*
G01*
X2733802Y4173473D01*
X2861056Y4364481D02*
G01*
X2733802Y4237228D01*
X2779268Y4282694D02*
G01*
X2861056Y4173473D01*
X5114798Y8174228D02*
G01*
X5114798Y7983473D01*
X5242052Y8174228D02*
G01*
X5114798Y8046973D01*
X5160264Y8092439D02*
G01*
X5242052Y7983473D01*
X5301996Y7919720D02*
G01*
X5465826Y7919720D01*
X5580380Y8174228D02*
G01*
X5552948Y8165084D01*
X5534914Y8137906D01*
X5525770Y8092439D01*
X5525770Y8065262D01*
X5534914Y8019796D01*
X5552948Y7992364D01*
X5580380Y7983473D01*
X5598414Y7983473D01*
X5625846Y7992364D01*
X5643880Y8019796D01*
X5653024Y8065262D01*
X5653024Y8092439D01*
X5643880Y8137906D01*
X5625846Y8165084D01*
X5598414Y8174228D01*
X5580380Y8174228D01*
X-12029947Y8174228D02*
G01*
X-12029947Y7983473D01*
X-11902693Y8174228D02*
G01*
X-12029947Y8046973D01*
X-11984481Y8092439D02*
G01*
X-11902693Y7983473D01*
X-11842750Y7919720D02*
G01*
X-11679173Y7919720D01*
X-11618975Y8137906D02*
G01*
X-11600941Y8147050D01*
X-11573509Y8174228D01*
X-11573509Y7983473D01*
X-10124947Y8174228D02*
G01*
X-10124947Y7983473D01*
X-9997693Y8174228D02*
G01*
X-10124947Y8046973D01*
X-10079481Y8092439D02*
G01*
X-9997693Y7983473D01*
X-9937495Y7919720D02*
G01*
X-9773919Y7919720D01*
X-9704831Y8128762D02*
G01*
X-9704831Y8137906D01*
X-9695687Y8156194D01*
X-9686543Y8165084D01*
X-9668509Y8174228D01*
X-9632187Y8174228D01*
X-9613900Y8165084D01*
X-9604755Y8156194D01*
X-9595865Y8137906D01*
X-9595865Y8119872D01*
X-9604755Y8101584D01*
X-9623043Y8074406D01*
X-9713975Y7983473D01*
X-9586721Y7983473D01*
X-8220201Y8174228D02*
G01*
X-8220201Y7983473D01*
X-8092947Y8174228D02*
G01*
X-8220201Y8046973D01*
X-8174735Y8092439D02*
G01*
X-8092947Y7983473D01*
X-8033003Y7919720D02*
G01*
X-7869173Y7919720D01*
X-7791195Y8174228D02*
G01*
X-7691119Y8174228D01*
X-7745729Y8101584D01*
X-7718297Y8101584D01*
X-7700263Y8092439D01*
X-7691119Y8083296D01*
X-7681975Y8056118D01*
X-7681975Y8037830D01*
X-7691119Y8010652D01*
X-7709407Y7992364D01*
X-7736585Y7983473D01*
X-7763763Y7983473D01*
X-7791195Y7992364D01*
X-7800085Y8001508D01*
X-7809229Y8019796D01*
X-6314947Y8174228D02*
G01*
X-6314947Y7983473D01*
X-6187693Y8174228D02*
G01*
X-6314947Y8046973D01*
X-6269481Y8092439D02*
G01*
X-6187693Y7983473D01*
X-6127750Y7919720D02*
G01*
X-5964173Y7919720D01*
X-5813297Y8174228D02*
G01*
X-5904229Y8046973D01*
X-5767831Y8046973D01*
X-5813297Y8174228D02*
G01*
X-5813297Y7983473D01*
X-4409947Y8174228D02*
G01*
X-4409947Y7983473D01*
X-4282693Y8174228D02*
G01*
X-4409947Y8046973D01*
X-4364481Y8092439D02*
G01*
X-4282693Y7983473D01*
X-4222750Y7919720D02*
G01*
X-4058919Y7919720D01*
X-3890009Y8174228D02*
G01*
X-3980687Y8174228D01*
X-3989831Y8092439D01*
X-3980687Y8101584D01*
X-3953509Y8110728D01*
X-3926331Y8110728D01*
X-3898900Y8101584D01*
X-3880865Y8083296D01*
X-3871721Y8056118D01*
X-3871721Y8037830D01*
X-3880865Y8010652D01*
X-3898900Y7992364D01*
X-3926331Y7983473D01*
X-3953509Y7983473D01*
X-3980687Y7992364D01*
X-3989831Y8001508D01*
X-3998975Y8019796D01*
X-2505201Y8174228D02*
G01*
X-2505201Y7983473D01*
X-2377947Y8174228D02*
G01*
X-2505201Y8046973D01*
X-2459735Y8092439D02*
G01*
X-2377947Y7983473D01*
X-2318003Y7919720D02*
G01*
X-2154427Y7919720D01*
X-1985263Y8147050D02*
G01*
X-1994407Y8165084D01*
X-2021585Y8174228D01*
X-2039873Y8174228D01*
X-2067051Y8165084D01*
X-2085339Y8137906D01*
X-2094229Y8092439D01*
X-2094229Y8046973D01*
X-2085339Y8010652D01*
X-2067051Y7992364D01*
X-2039873Y7983473D01*
X-2030729Y7983473D01*
X-2003551Y7992364D01*
X-1985263Y8010652D01*
X-1976119Y8037830D01*
X-1976119Y8046973D01*
X-1985263Y8074406D01*
X-2003551Y8092439D01*
X-2030729Y8101584D01*
X-2039873Y8101584D01*
X-2067051Y8092439D01*
X-2085339Y8074406D01*
X-2094229Y8046973D01*
X-600201Y8174228D02*
G01*
X-600201Y7983473D01*
X-472947Y8174228D02*
G01*
X-600201Y8046973D01*
X-554735Y8092439D02*
G01*
X-472947Y7983473D01*
X-412750Y7919720D02*
G01*
X-249173Y7919720D01*
X-61975Y8174228D02*
G01*
X-152907Y7983473D01*
X-189229Y8174228D02*
G01*
X-61975Y8174228D01*
X1305052Y8174228D02*
G01*
X1305052Y7983473D01*
X1432306Y8174228D02*
G01*
X1305052Y8046973D01*
X1350518Y8092439D02*
G01*
X1432306Y7983473D01*
X1492250Y7919720D02*
G01*
X1656080Y7919720D01*
X1761490Y8174228D02*
G01*
X1734058Y8165084D01*
X1725168Y8147050D01*
X1725168Y8128762D01*
X1734058Y8110728D01*
X1752346Y8101584D01*
X1788668Y8092439D01*
X1815846Y8083296D01*
X1834134Y8065262D01*
X1843278Y8046973D01*
X1843278Y8019796D01*
X1834134Y8001508D01*
X1824990Y7992364D01*
X1797812Y7983473D01*
X1761490Y7983473D01*
X1734058Y7992364D01*
X1725168Y8001508D01*
X1716024Y8019796D01*
X1716024Y8046973D01*
X1725168Y8065262D01*
X1743202Y8083296D01*
X1770380Y8092439D01*
X1806956Y8101584D01*
X1824990Y8110728D01*
X1834134Y8128762D01*
X1834134Y8147050D01*
X1824990Y8165084D01*
X1797812Y8174228D01*
X1761490Y8174228D01*
X3209798Y8174228D02*
G01*
X3209798Y7983473D01*
X3337052Y8174228D02*
G01*
X3209798Y8046973D01*
X3255264Y8092439D02*
G01*
X3337052Y7983473D01*
X3396996Y7919720D02*
G01*
X3560572Y7919720D01*
X3738880Y8110728D02*
G01*
X3729736Y8083296D01*
X3711448Y8065262D01*
X3684270Y8056118D01*
X3675126Y8056118D01*
X3647948Y8065262D01*
X3629660Y8083296D01*
X3620515Y8110728D01*
X3620515Y8119872D01*
X3629660Y8147050D01*
X3647948Y8165084D01*
X3675126Y8174228D01*
X3684270Y8174228D01*
X3711448Y8165084D01*
X3729736Y8147050D01*
X3738880Y8110728D01*
X3738880Y8065262D01*
X3729736Y8019796D01*
X3711448Y7992364D01*
X3684270Y7983473D01*
X3665982Y7983473D01*
X3638804Y7992364D01*
X3629660Y8010652D01*
X4638802Y4364481D02*
G01*
X4638802Y4173473D01*
X4638802Y4173473D02*
G01*
X4748022Y4173473D01*
X8236965Y6188202D02*
G01*
X8236965Y5997194D01*
X8236965Y5997194D02*
G01*
X8345932Y5997194D01*
X8406130Y6188202D02*
G01*
X8406130Y5997194D01*
X8406130Y6188202D02*
G01*
X8524240Y6188202D01*
X8406130Y6097270D02*
G01*
X8478774Y6097270D01*
X8406130Y5997194D02*
G01*
X8524240Y5997194D01*
X8584184Y6188202D02*
G01*
X8584184Y5997194D01*
X8584184Y6188202D02*
G01*
X8702294Y6188202D01*
X8584184Y6097270D02*
G01*
X8657082Y6097270D01*
X8825992Y6188202D02*
G01*
X8825992Y5997194D01*
X8762492Y6188202D02*
G01*
X8889746Y6188202D01*
X12999212Y4283456D02*
G01*
X12999212Y4092702D01*
X12999212Y4092702D02*
G01*
X13108178Y4092702D01*
X13168376Y4283456D02*
G01*
X13168376Y4092702D01*
X13355574Y4256278D02*
G01*
X13337286Y4274312D01*
X13310108Y4283456D01*
X13273786Y4283456D01*
X13246354Y4274312D01*
X13228320Y4256278D01*
X13228320Y4237989D01*
X13237464Y4219956D01*
X13246354Y4210812D01*
X13264642Y4201668D01*
X13319252Y4183380D01*
X13337286Y4174489D01*
X13346430Y4165346D01*
X13355574Y4147057D01*
X13355574Y4119880D01*
X13337286Y4101592D01*
X13310108Y4092702D01*
X13273786Y4092702D01*
X13246354Y4101592D01*
X13228320Y4119880D01*
X13479272Y4283456D02*
G01*
X13479272Y4092702D01*
X13415518Y4283456D02*
G01*
X13542772Y4283456D01*
X1781302Y2459228D02*
G01*
X1781302Y2268473D01*
X1781302Y2459228D02*
G01*
X1853946Y2268473D01*
X1926590Y2459228D02*
G01*
X1853946Y2268473D01*
X1926590Y2459228D02*
G01*
X1926590Y2268473D01*
X-123951Y2459228D02*
G01*
X-123951Y2268473D01*
X-123951Y2459228D02*
G01*
X3302Y2268473D01*
X3302Y2459228D02*
G01*
X3302Y2268473D01*
X4216654Y6269228D02*
G01*
X4198620Y6260084D01*
X4180332Y6241796D01*
X4171188Y6223762D01*
X4162298Y6196330D01*
X4162298Y6150864D01*
X4171188Y6123686D01*
X4180332Y6105397D01*
X4198620Y6087364D01*
X4216654Y6078220D01*
X4253230Y6078220D01*
X4271264Y6087364D01*
X4289552Y6105397D01*
X4298442Y6123686D01*
X4307586Y6150864D01*
X4307586Y6196330D01*
X4298442Y6223762D01*
X4289552Y6241796D01*
X4271264Y6260084D01*
X4253230Y6269228D01*
X4216654Y6269228D01*
X6067298Y6269228D02*
G01*
X6067298Y6078220D01*
X6067298Y6269228D02*
G01*
X6149086Y6269228D01*
X6176518Y6260084D01*
X6185408Y6250939D01*
X6194552Y6232652D01*
X6194552Y6205473D01*
X6185408Y6187439D01*
X6176518Y6178296D01*
X6149086Y6169152D01*
X6067298Y6169152D01*
X-11022837Y6269228D02*
G01*
X-11040871Y6260084D01*
X-11059159Y6241796D01*
X-11068303Y6223762D01*
X-11077447Y6196330D01*
X-11077447Y6150864D01*
X-11068303Y6123686D01*
X-11059159Y6105397D01*
X-11040871Y6087364D01*
X-11022837Y6078220D01*
X-10986515Y6078220D01*
X-10968227Y6087364D01*
X-10950193Y6105397D01*
X-10941050Y6123686D01*
X-10931905Y6150864D01*
X-10931905Y6196330D01*
X-10941050Y6223762D01*
X-10950193Y6241796D01*
X-10968227Y6260084D01*
X-10986515Y6269228D01*
X-11022837Y6269228D01*
X-10995405Y6114542D02*
G01*
X-10941050Y6059931D01*
X-5362447Y6269228D02*
G01*
X-5362447Y6078220D01*
X-5362447Y6269228D02*
G01*
X-5280659Y6269228D01*
X-5253227Y6260084D01*
X-5244337Y6250939D01*
X-5235193Y6232652D01*
X-5235193Y6214618D01*
X-5244337Y6196330D01*
X-5253227Y6187439D01*
X-5280659Y6178296D01*
X-5362447Y6178296D01*
X-5298693Y6178296D02*
G01*
X-5235193Y6078220D01*
X9903840Y4283456D02*
G01*
X9903840Y4092702D01*
X9903840Y4283456D02*
G01*
X9985629Y4283456D01*
X10012807Y4274312D01*
X10021951Y4265422D01*
X10031095Y4247134D01*
X10031095Y4228846D01*
X10021951Y4210812D01*
X10012807Y4201668D01*
X9985629Y4192523D01*
X9903840Y4192523D01*
X9967340Y4192523D02*
G01*
X10031095Y4092702D01*
X10091039Y4283456D02*
G01*
X10091039Y4092702D01*
X10091039Y4283456D02*
G01*
X10209149Y4283456D01*
X10091039Y4192523D02*
G01*
X10163683Y4192523D01*
X10091039Y4092702D02*
G01*
X10209149Y4092702D01*
X10332847Y4283456D02*
G01*
X10332847Y4092702D01*
X10269347Y4283456D02*
G01*
X10396601Y4283456D01*
X10042144Y6188202D02*
G01*
X10042144Y5997194D01*
X10042144Y6188202D02*
G01*
X10123932Y6188202D01*
X10151110Y6179057D01*
X10160254Y6169914D01*
X10169398Y6151880D01*
X10169398Y6133592D01*
X10160254Y6115304D01*
X10151110Y6106414D01*
X10123932Y6097270D01*
X10042144Y6097270D01*
X10105644Y6097270D02*
G01*
X10169398Y5997194D01*
X10229342Y6188202D02*
G01*
X10229342Y5997194D01*
X10425684Y6142736D02*
G01*
X10416540Y6160770D01*
X10398506Y6179057D01*
X10380218Y6188202D01*
X10343896Y6188202D01*
X10325862Y6179057D01*
X10307574Y6160770D01*
X10298430Y6142736D01*
X10289286Y6115304D01*
X10289286Y6069838D01*
X10298430Y6042660D01*
X10307574Y6024626D01*
X10325862Y6006338D01*
X10343896Y5997194D01*
X10380218Y5997194D01*
X10398506Y6006338D01*
X10416540Y6024626D01*
X10425684Y6042660D01*
X10425684Y6069838D01*
X10380218Y6069838D02*
G01*
X10425684Y6069838D01*
X10485628Y6188202D02*
G01*
X10485628Y5997194D01*
X10613136Y6188202D02*
G01*
X10613136Y5997194D01*
X10485628Y6097270D02*
G01*
X10613136Y6097270D01*
X10736580Y6188202D02*
G01*
X10736580Y5997194D01*
X10673080Y6188202D02*
G01*
X10800334Y6188202D01*
X9765792Y473456D02*
G01*
X9765792Y282447D01*
X9765792Y473456D02*
G01*
X9847580Y473456D01*
X9874758Y464312D01*
X9883902Y455168D01*
X9893046Y436880D01*
X9893046Y418846D01*
X9883902Y400557D01*
X9874758Y391414D01*
X9847580Y382523D01*
X9765792Y382523D01*
X9829292Y382523D02*
G01*
X9893046Y282447D01*
X9952990Y473456D02*
G01*
X9952990Y282447D01*
X9952990Y473456D02*
G01*
X10034778Y473456D01*
X10062210Y464312D01*
X10071100Y455168D01*
X10080244Y436880D01*
X10080244Y409702D01*
X10071100Y391414D01*
X10062210Y382523D01*
X10034778Y373380D01*
X9952990Y373380D01*
X10203942Y473456D02*
G01*
X10203942Y282447D01*
X10140188Y473456D02*
G01*
X10267696Y473456D01*
X-8568943Y4337304D02*
G01*
X-8587231Y4355338D01*
X-8614409Y4364481D01*
X-8650731Y4364481D01*
X-8677909Y4355338D01*
X-8696197Y4337304D01*
X-8696197Y4319015D01*
X-8687053Y4300981D01*
X-8677909Y4291838D01*
X-8659875Y4282694D01*
X-8605265Y4264406D01*
X-8587231Y4255515D01*
X-8578087Y4246372D01*
X-8568943Y4228084D01*
X-8568943Y4200906D01*
X-8587231Y4182618D01*
X-8614409Y4173473D01*
X-8650731Y4173473D01*
X-8677909Y4182618D01*
X-8696197Y4200906D01*
X6735318Y4256278D02*
G01*
X6717030Y4274312D01*
X6689852Y4283456D01*
X6653530Y4283456D01*
X6626098Y4274312D01*
X6608064Y4256278D01*
X6608064Y4237989D01*
X6616954Y4219956D01*
X6626098Y4210812D01*
X6644386Y4201668D01*
X6698996Y4183380D01*
X6717030Y4174489D01*
X6726174Y4165346D01*
X6735318Y4147057D01*
X6735318Y4119880D01*
X6717030Y4101592D01*
X6689852Y4092702D01*
X6653530Y4092702D01*
X6626098Y4101592D01*
X6608064Y4119880D01*
X6795262Y4283456D02*
G01*
X6795262Y4092702D01*
X6795262Y4283456D02*
G01*
X6913372Y4283456D01*
X6795262Y4192523D02*
G01*
X6867906Y4192523D01*
X6795262Y4092702D02*
G01*
X6913372Y4092702D01*
X6973315Y4283456D02*
G01*
X6973315Y4092702D01*
X6973315Y4283456D02*
G01*
X7046214Y4092702D01*
X7118858Y4283456D02*
G01*
X7046214Y4092702D01*
X7118858Y4283456D02*
G01*
X7118858Y4092702D01*
X7178802Y4283456D02*
G01*
X7178802Y4092702D01*
X7375144Y4237989D02*
G01*
X7366254Y4256278D01*
X7347965Y4274312D01*
X7329678Y4283456D01*
X7293356Y4283456D01*
X7275322Y4274312D01*
X7257034Y4256278D01*
X7247890Y4237989D01*
X7238746Y4210812D01*
X7238746Y4165346D01*
X7247890Y4138168D01*
X7257034Y4119880D01*
X7275322Y4101592D01*
X7293356Y4092702D01*
X7329678Y4092702D01*
X7347965Y4101592D01*
X7366254Y4119880D01*
X7375144Y4138168D01*
X7489698Y4283456D02*
G01*
X7471664Y4274312D01*
X7453376Y4256278D01*
X7444232Y4237989D01*
X7435342Y4210812D01*
X7435342Y4165346D01*
X7444232Y4138168D01*
X7453376Y4119880D01*
X7471664Y4101592D01*
X7489698Y4092702D01*
X7526020Y4092702D01*
X7544308Y4101592D01*
X7562596Y4119880D01*
X7571486Y4138168D01*
X7580630Y4165346D01*
X7580630Y4210812D01*
X7571486Y4237989D01*
X7562596Y4256278D01*
X7544308Y4274312D01*
X7526020Y4283456D01*
X7489698Y4283456D01*
X7640574Y4283456D02*
G01*
X7640574Y4092702D01*
X7640574Y4092702D02*
G01*
X7749794Y4092702D01*
X7787894Y2351023D02*
G01*
X7769606Y2369312D01*
X7742428Y2378456D01*
X7706106Y2378456D01*
X7678674Y2369312D01*
X7660640Y2351023D01*
X7660640Y2332989D01*
X7669784Y2314702D01*
X7678674Y2305557D01*
X7696962Y2296414D01*
X7751572Y2278380D01*
X7769606Y2269236D01*
X7778750Y2260092D01*
X7787894Y2242057D01*
X7787894Y2214626D01*
X7769606Y2196592D01*
X7742428Y2187447D01*
X7706106Y2187447D01*
X7678674Y2196592D01*
X7660640Y2214626D01*
X7847838Y2378456D02*
G01*
X7847838Y2187447D01*
X7847838Y2187447D02*
G01*
X7957058Y2187447D01*
X8089646Y2378456D02*
G01*
X8017002Y2187447D01*
X8089646Y2378456D02*
G01*
X8162544Y2187447D01*
X8044180Y2250947D02*
G01*
X8135112Y2250947D01*
X8349742Y2351023D02*
G01*
X8331454Y2369312D01*
X8304276Y2378456D01*
X8267954Y2378456D01*
X8240522Y2369312D01*
X8222488Y2351023D01*
X8222488Y2332989D01*
X8231632Y2314702D01*
X8240522Y2305557D01*
X8258810Y2296414D01*
X8313420Y2278380D01*
X8331454Y2269236D01*
X8340598Y2260092D01*
X8349742Y2242057D01*
X8349742Y2214626D01*
X8331454Y2196592D01*
X8304276Y2187447D01*
X8267954Y2187447D01*
X8240522Y2196592D01*
X8222488Y2214626D01*
X8409686Y2378456D02*
G01*
X8409686Y2187447D01*
X8536940Y2378456D02*
G01*
X8536940Y2187447D01*
X8409686Y2287523D02*
G01*
X8536940Y2287523D01*
X-3394201Y6269228D02*
G01*
X-3394201Y6078220D01*
X-3457701Y6269228D02*
G01*
X-3330447Y6269228D01*
X352552Y6269228D02*
G01*
X352552Y6132830D01*
X361696Y6105397D01*
X379730Y6087364D01*
X407162Y6078220D01*
X425196Y6078220D01*
X452628Y6087364D01*
X470662Y6105397D01*
X479806Y6132830D01*
X479806Y6269228D01*
X-13004901Y6259779D02*
G01*
X-13004901Y6123381D01*
X-12995757Y6096203D01*
X-12977469Y6077915D01*
X-12950291Y6068771D01*
X-12932003Y6068771D01*
X-12904825Y6077915D01*
X-12886537Y6096203D01*
X-12877647Y6123381D01*
X-12877647Y6259779D01*
X-12817449Y6259779D02*
G01*
X-12817449Y6068771D01*
X-12817449Y6259779D02*
G01*
X-12735661Y6259779D01*
X-12708483Y6250635D01*
X-12699339Y6241491D01*
X-12690195Y6223457D01*
X-12690195Y6196025D01*
X-12699339Y6177991D01*
X-12708483Y6168847D01*
X-12735661Y6159703D01*
X-12817449Y6159703D01*
X-3933697Y2459228D02*
G01*
X-3861053Y2268473D01*
X-3788409Y2459228D02*
G01*
X-3861053Y2268473D01*
X-9172701Y6269228D02*
G01*
X-9127235Y6078220D01*
X-9081769Y6269228D02*
G01*
X-9127235Y6078220D01*
X-9081769Y6269228D02*
G01*
X-9036303Y6078220D01*
X-8990837Y6269228D02*
G01*
X-9036303Y6078220D01*
X-7743951Y2459228D02*
G01*
X-7616697Y2268473D01*
X-7616697Y2459228D02*
G01*
X-7743951Y2268473D01*
X-1552701Y6269228D02*
G01*
X-1479803Y6178296D01*
X-1479803Y6078220D01*
X-1407159Y6269228D02*
G01*
X-1479803Y6178296D01*
X-9521443Y2459228D02*
G01*
X-9648697Y2268473D01*
X-9648697Y2459228D02*
G01*
X-9521443Y2459228D01*
X-9648697Y2268473D02*
G01*
X-9521443Y2268473D01*
X-12452857Y2351100D02*
G01*
X-12470891Y2369134D01*
X-12498069Y2378278D01*
X-12534645Y2378278D01*
X-12561823Y2369134D01*
X-12580111Y2351100D01*
X-12580111Y2332812D01*
X-12570967Y2314778D01*
X-12561823Y2305634D01*
X-12543535Y2296490D01*
X-12489179Y2278456D01*
X-12470891Y2269312D01*
X-12461747Y2260168D01*
X-12452857Y2241880D01*
X-12452857Y2214702D01*
X-12470891Y2196414D01*
X-12498069Y2187524D01*
X-12534645Y2187524D01*
X-12561823Y2196414D01*
X-12580111Y2214702D01*
X-12392659Y2378278D02*
G01*
X-12392659Y2187524D01*
X-12265405Y2378278D02*
G01*
X-12265405Y2187524D01*
X-12392659Y2287346D02*
G01*
X-12265405Y2287346D01*
X-12205461Y2378278D02*
G01*
X-12205461Y2187524D01*
X-12145517Y2378278D02*
G01*
X-12145517Y2187524D01*
X-12145517Y2378278D02*
G01*
X-12027407Y2378278D01*
X-12145517Y2287346D02*
G01*
X-12072619Y2287346D01*
X-11903709Y2378278D02*
G01*
X-11903709Y2187524D01*
X-11967209Y2378278D02*
G01*
X-11839955Y2378278D01*
X-11780011Y2378278D02*
G01*
X-11780011Y2187524D01*
X-11780011Y2187524D02*
G01*
X-11671045Y2187524D01*
X11259565Y2351100D02*
G01*
X11241278Y2369134D01*
X11214100Y2378278D01*
X11177778Y2378278D01*
X11150600Y2369134D01*
X11132312Y2351100D01*
X11132312Y2332812D01*
X11141456Y2314778D01*
X11150600Y2305634D01*
X11168634Y2296490D01*
X11223244Y2278456D01*
X11241278Y2269312D01*
X11250422Y2260168D01*
X11259565Y2241880D01*
X11259565Y2214702D01*
X11241278Y2196414D01*
X11214100Y2187524D01*
X11177778Y2187524D01*
X11150600Y2196414D01*
X11132312Y2214702D01*
X11319510Y2378278D02*
G01*
X11319510Y2187524D01*
X11446764Y2378278D02*
G01*
X11446764Y2187524D01*
X11319510Y2287346D02*
G01*
X11446764Y2287346D01*
X11506962Y2378278D02*
G01*
X11506962Y2187524D01*
X11566906Y2378278D02*
G01*
X11566906Y2187524D01*
X11566906Y2378278D02*
G01*
X11685015Y2378278D01*
X11566906Y2287346D02*
G01*
X11639550Y2287346D01*
X11808714Y2378278D02*
G01*
X11808714Y2187524D01*
X11744960Y2378278D02*
G01*
X11872214Y2378278D01*
X11932412Y2378278D02*
G01*
X11932412Y2187524D01*
X11932412Y2378278D02*
G01*
X12014200Y2378278D01*
X12041378Y2369134D01*
X12050522Y2360244D01*
X12059665Y2341956D01*
X12059665Y2323668D01*
X12050522Y2305634D01*
X12041378Y2296490D01*
X12014200Y2287346D01*
X11932412Y2287346D01*
X11995912Y2287346D02*
G01*
X12059665Y2187524D01*
D11*
X1790700Y-202184D02*
G01*
X1790700Y-311150D01*
X1790700Y-202184D02*
G01*
X1837436Y-202184D01*
X1852930Y-207263D01*
X1858264Y-212597D01*
X1863344Y-223011D01*
X1863344Y-238505D01*
X1858264Y-248919D01*
X1852930Y-254000D01*
X1837436Y-259334D01*
X1790700Y-259334D01*
X1897634Y-223011D02*
G01*
X1908048Y-217677D01*
X1923796Y-202184D01*
X1923796Y-311150D01*
D12*
X4772025Y-173354D02*
G01*
X4772025Y-306704D01*
X4860925Y-173354D02*
G01*
X4772025Y-262254D01*
X4803775Y-230504D02*
G01*
X4860925Y-306704D01*
X4902835Y-173354D02*
G01*
X4902835Y-306704D01*
X4902835Y-173354D02*
G01*
X4959985Y-173354D01*
X4979035Y-179704D01*
X4985385Y-186054D01*
X4991735Y-198754D01*
X4991735Y-211454D01*
X4985385Y-224154D01*
X4979035Y-230504D01*
X4959985Y-236854D01*
X4902835Y-236854D02*
G01*
X4959985Y-236854D01*
X4979035Y-243204D01*
X4985385Y-249554D01*
X4991735Y-262254D01*
X4991735Y-281304D01*
X4985385Y-294004D01*
X4979035Y-300354D01*
X4959985Y-306704D01*
X4902835Y-306704D01*
X5033645Y-173354D02*
G01*
X5033645Y-306704D01*
X5033645Y-173354D02*
G01*
X5078095Y-173354D01*
X5097145Y-179704D01*
X5109845Y-192404D01*
X5116195Y-205104D01*
X5122545Y-224154D01*
X5122545Y-255904D01*
X5116195Y-274954D01*
X5109845Y-287654D01*
X5097145Y-300354D01*
X5078095Y-306704D01*
X5033645Y-306704D01*
D11*
X-5448300Y9818115D02*
G01*
X-5448300Y9709150D01*
X-5448300Y9818115D02*
G01*
X-5401563Y9818115D01*
X-5386069Y9813036D01*
X-5380735Y9807702D01*
X-5375655Y9797288D01*
X-5375655Y9781794D01*
X-5380735Y9771380D01*
X-5386069Y9766300D01*
X-5401563Y9760965D01*
X-5448300Y9760965D01*
X-5336031Y9792208D02*
G01*
X-5336031Y9797288D01*
X-5330951Y9807702D01*
X-5325617Y9813036D01*
X-5315203Y9818115D01*
X-5294629Y9818115D01*
X-5284215Y9813036D01*
X-5278881Y9807702D01*
X-5273801Y9797288D01*
X-5273801Y9786874D01*
X-5278881Y9776460D01*
X-5289295Y9760965D01*
X-5341365Y9709150D01*
X-5268467Y9709150D01*
D12*
X-2628900Y9698355D02*
G01*
X-2628900Y9831705D01*
X-2717800Y9698355D02*
G01*
X-2628900Y9787255D01*
X-2660650Y9755505D02*
G01*
X-2717800Y9831705D01*
X-2759709Y9698355D02*
G01*
X-2759709Y9831705D01*
X-2759709Y9698355D02*
G01*
X-2816859Y9698355D01*
X-2835909Y9704705D01*
X-2842259Y9711055D01*
X-2848609Y9723755D01*
X-2848609Y9736455D01*
X-2842259Y9749155D01*
X-2835909Y9755505D01*
X-2816859Y9761855D01*
X-2759709Y9761855D02*
G01*
X-2816859Y9761855D01*
X-2835909Y9768205D01*
X-2842259Y9774555D01*
X-2848609Y9787255D01*
X-2848609Y9806305D01*
X-2842259Y9819005D01*
X-2835909Y9825355D01*
X-2816859Y9831705D01*
X-2759709Y9831705D01*
X-2890519Y9698355D02*
G01*
X-2890519Y9831705D01*
X-2890519Y9698355D02*
G01*
X-2934969Y9698355D01*
X-2954019Y9704705D01*
X-2966719Y9717405D01*
X-2973069Y9730105D01*
X-2979419Y9749155D01*
X-2979419Y9780905D01*
X-2973069Y9799955D01*
X-2966719Y9812655D01*
X-2954019Y9825355D01*
X-2934969Y9831705D01*
X-2890519Y9831705D01*
D11*
X7118350Y1271015D02*
G01*
X7118350Y1162050D01*
X7118350Y1162050D02*
G01*
X7180580Y1162050D01*
X7214870Y1271015D02*
G01*
X7214870Y1162050D01*
X7214870Y1271015D02*
G01*
X7282434Y1271015D01*
X7214870Y1219200D02*
G01*
X7256526Y1219200D01*
X7214870Y1162050D02*
G01*
X7282434Y1162050D01*
X7316724Y1271015D02*
G01*
X7316724Y1162050D01*
X7316724Y1271015D02*
G01*
X7353300Y1271015D01*
X7368794Y1265936D01*
X7379208Y1255522D01*
X7384288Y1245107D01*
X7389622Y1229360D01*
X7389622Y1203452D01*
X7384288Y1187957D01*
X7379208Y1177544D01*
X7368794Y1167130D01*
X7353300Y1162050D01*
X7316724Y1162050D01*
X7423912Y1250188D02*
G01*
X7434326Y1255522D01*
X7449820Y1271015D01*
X7449820Y1162050D01*
X6425184Y952500D02*
G01*
X6534150Y952500D01*
X6425184Y952500D02*
G01*
X6425184Y999236D01*
X6430264Y1014730D01*
X6435598Y1020064D01*
X6446012Y1025144D01*
X6456426Y1025144D01*
X6466840Y1020064D01*
X6471920Y1014730D01*
X6477000Y999236D01*
X6477000Y952500D01*
X6477000Y988822D02*
G01*
X6534150Y1025144D01*
X6446012Y1059434D02*
G01*
X6440678Y1069847D01*
X6425184Y1085596D01*
X6534150Y1085596D01*
D13*
X-949972Y202501D02*
G01*
X-949972Y2506D01*
X-749973Y2506D01*
X750001Y2529D02*
G01*
X949995Y2529D01*
X949995Y202524D01*
X949970Y1702501D02*
G01*
X949970Y1902495D01*
X749975Y1902495D01*
X-750001Y1902470D02*
G01*
X-949995Y1902470D01*
X-949995Y1702475D01*
D14*
X780000Y1732500D02*
G01*
X780000Y172499D01*
X-780000Y1732500D02*
G01*
X780000Y1732500D01*
X-780000Y172499D02*
G01*
X780000Y172499D01*
X-780000Y1732500D02*
G01*
X-780000Y172499D01*
D13*
X-10951222Y4012501D02*
G01*
X-10951222Y3812506D01*
X-10751223Y3812506D01*
X-9251248Y3812529D02*
G01*
X-9051254Y3812529D01*
X-9051254Y4012524D01*
X-9051279Y5512501D02*
G01*
X-9051279Y5712495D01*
X-9251274Y5712495D01*
X-10751251Y5712470D02*
G01*
X-10951245Y5712470D01*
X-10951245Y5512475D01*
D14*
X-9221249Y5542500D02*
G01*
X-9221249Y3982499D01*
X-10781250Y5542500D02*
G01*
X-9221249Y5542500D01*
X-10781250Y3982499D02*
G01*
X-9221249Y3982499D01*
X-10781250Y5542500D02*
G01*
X-10781250Y3982499D01*
D13*
X-2378722Y2107501D02*
G01*
X-2378722Y1907506D01*
X-2178723Y1907506D01*
X-678748Y1907529D02*
G01*
X-478754Y1907529D01*
X-478754Y2107524D01*
X-478779Y3607501D02*
G01*
X-478779Y3807495D01*
X-678774Y3807495D01*
X-2178751Y3807470D02*
G01*
X-2378745Y3807470D01*
X-2378745Y3607475D01*
D14*
X-648749Y3637500D02*
G01*
X-648749Y2077499D01*
X-2208750Y3637500D02*
G01*
X-648749Y3637500D01*
X-2208750Y2077499D02*
G01*
X-648749Y2077499D01*
X-2208750Y3637500D02*
G01*
X-2208750Y2077499D01*
D13*
X10480027Y7822501D02*
G01*
X10480027Y7622506D01*
X10680026Y7622506D01*
X12180001Y7622529D02*
G01*
X12379995Y7622529D01*
X12379995Y7822524D01*
X12379970Y9322501D02*
G01*
X12379970Y9522495D01*
X12179975Y9522495D01*
X10679998Y9522470D02*
G01*
X10480004Y9522470D01*
X10480004Y9322475D01*
D14*
X12210000Y9352500D02*
G01*
X12210000Y7792499D01*
X10649999Y9352500D02*
G01*
X12210000Y9352500D01*
X10649999Y7792499D02*
G01*
X12210000Y7792499D01*
X10649999Y9352500D02*
G01*
X10649999Y7792499D01*
D13*
X-6188722Y2107501D02*
G01*
X-6188722Y1907506D01*
X-5988723Y1907506D01*
X-4488748Y1907529D02*
G01*
X-4288754Y1907529D01*
X-4288754Y2107524D01*
X-4288779Y3607501D02*
G01*
X-4288779Y3807495D01*
X-4488774Y3807495D01*
X-5988751Y3807470D02*
G01*
X-6188745Y3807470D01*
X-6188745Y3607475D01*
D14*
X-4458749Y3637500D02*
G01*
X-4458749Y2077499D01*
X-6018750Y3637500D02*
G01*
X-4458749Y3637500D01*
X-6018750Y2077499D02*
G01*
X-4458749Y2077499D01*
X-6018750Y3637500D02*
G01*
X-6018750Y2077499D01*
D13*
X6670027Y7822501D02*
G01*
X6670027Y7622506D01*
X6870026Y7622506D01*
X8370001Y7622529D02*
G01*
X8569995Y7622529D01*
X8569995Y7822524D01*
X8569970Y9322501D02*
G01*
X8569970Y9522495D01*
X8369975Y9522495D01*
X6869998Y9522470D02*
G01*
X6670004Y9522470D01*
X6670004Y9322475D01*
D14*
X8400000Y9352500D02*
G01*
X8400000Y7792499D01*
X6839999Y9352500D02*
G01*
X8400000Y9352500D01*
X6839999Y7792499D02*
G01*
X8400000Y7792499D01*
X6839999Y9352500D02*
G01*
X6839999Y7792499D01*
D13*
X3336277Y2107501D02*
G01*
X3336277Y1907506D01*
X3536276Y1907506D01*
X5036251Y1907529D02*
G01*
X5236245Y1907529D01*
X5236245Y2107524D01*
X5236220Y3607501D02*
G01*
X5236220Y3807495D01*
X5036225Y3807495D01*
X3536248Y3807470D02*
G01*
X3336254Y3807470D01*
X3336254Y3607475D01*
D14*
X5066250Y3637500D02*
G01*
X5066250Y2077499D01*
X3506249Y3637500D02*
G01*
X5066250Y3637500D01*
X3506249Y2077499D02*
G01*
X5066250Y2077499D01*
X3506249Y3637500D02*
G01*
X3506249Y2077499D01*
D13*
X-7141222Y4012501D02*
G01*
X-7141222Y3812506D01*
X-6941223Y3812506D01*
X-5441248Y3812529D02*
G01*
X-5241254Y3812529D01*
X-5241254Y4012524D01*
X-5241279Y5512501D02*
G01*
X-5241279Y5712495D01*
X-5441274Y5712495D01*
X-6941251Y5712470D02*
G01*
X-7141245Y5712470D01*
X-7141245Y5512475D01*
D14*
X-5411249Y5542500D02*
G01*
X-5411249Y3982499D01*
X-6971250Y5542500D02*
G01*
X-5411249Y5542500D01*
X-6971250Y3982499D02*
G01*
X-5411249Y3982499D01*
X-6971250Y5542500D02*
G01*
X-6971250Y3982499D01*
D13*
X11432527Y5917501D02*
G01*
X11432527Y5717506D01*
X11632526Y5717506D01*
X13132501Y5717529D02*
G01*
X13332495Y5717529D01*
X13332495Y5917524D01*
X13332470Y7417501D02*
G01*
X13332470Y7617495D01*
X13132475Y7617495D01*
X11632498Y7617470D02*
G01*
X11432504Y7617470D01*
X11432504Y7417475D01*
D14*
X13162500Y7447500D02*
G01*
X13162500Y5887499D01*
X11602499Y7447500D02*
G01*
X13162500Y7447500D01*
X11602499Y5887499D02*
G01*
X13162500Y5887499D01*
X11602499Y7447500D02*
G01*
X11602499Y5887499D01*
D13*
X5241277Y2107501D02*
G01*
X5241277Y1907506D01*
X5441276Y1907506D01*
X6941251Y1907529D02*
G01*
X7141245Y1907529D01*
X7141245Y2107524D01*
X7141220Y3607501D02*
G01*
X7141220Y3807495D01*
X6941225Y3807495D01*
X5441248Y3807470D02*
G01*
X5241254Y3807470D01*
X5241254Y3607475D01*
D14*
X6971250Y3637500D02*
G01*
X6971250Y2077499D01*
X5411249Y3637500D02*
G01*
X6971250Y3637500D01*
X5411249Y2077499D02*
G01*
X6971250Y2077499D01*
X5411249Y3637500D02*
G01*
X5411249Y2077499D01*
D13*
X-12856222Y4012501D02*
G01*
X-12856222Y3812506D01*
X-12656223Y3812506D01*
X-11156248Y3812529D02*
G01*
X-10956254Y3812529D01*
X-10956254Y4012524D01*
X-10956279Y5512501D02*
G01*
X-10956279Y5712495D01*
X-11156274Y5712495D01*
X-12656251Y5712470D02*
G01*
X-12856245Y5712470D01*
X-12856245Y5512475D01*
D14*
X-11126249Y5542500D02*
G01*
X-11126249Y3982499D01*
X-12686250Y5542500D02*
G01*
X-11126249Y5542500D01*
X-12686250Y3982499D02*
G01*
X-11126249Y3982499D01*
X-12686250Y5542500D02*
G01*
X-12686250Y3982499D01*
D13*
X-7617472Y5917501D02*
G01*
X-7617472Y5717506D01*
X-7417473Y5717506D01*
X-5917498Y5717529D02*
G01*
X-5717504Y5717529D01*
X-5717504Y5917524D01*
X-5717529Y7417501D02*
G01*
X-5717529Y7617495D01*
X-5917524Y7617495D01*
X-7417501Y7617470D02*
G01*
X-7617495Y7617470D01*
X-7617495Y7417475D01*
D14*
X-5887499Y7447500D02*
G01*
X-5887499Y5887499D01*
X-7447500Y7447500D02*
G01*
X-5887499Y7447500D01*
X-7447500Y5887499D02*
G01*
X-5887499Y5887499D01*
X-7447500Y7447500D02*
G01*
X-7447500Y5887499D01*
D13*
X8575027Y7822501D02*
G01*
X8575027Y7622506D01*
X8775026Y7622506D01*
X10275001Y7622529D02*
G01*
X10474995Y7622529D01*
X10474995Y7822524D01*
X10474970Y9322501D02*
G01*
X10474970Y9522495D01*
X10274975Y9522495D01*
X8774998Y9522470D02*
G01*
X8575004Y9522470D01*
X8575004Y9322475D01*
D14*
X10305000Y9352500D02*
G01*
X10305000Y7792499D01*
X8744999Y9352500D02*
G01*
X10305000Y9352500D01*
X8744999Y7792499D02*
G01*
X10305000Y7792499D01*
X8744999Y9352500D02*
G01*
X8744999Y7792499D01*
D13*
X-5236222Y4012501D02*
G01*
X-5236222Y3812506D01*
X-5036223Y3812506D01*
X-3536248Y3812529D02*
G01*
X-3336254Y3812529D01*
X-3336254Y4012524D01*
X-3336279Y5512501D02*
G01*
X-3336279Y5712495D01*
X-3536274Y5712495D01*
X-5036251Y5712470D02*
G01*
X-5236245Y5712470D01*
X-5236245Y5512475D01*
D14*
X-3506249Y5542500D02*
G01*
X-3506249Y3982499D01*
X-5066250Y5542500D02*
G01*
X-3506249Y5542500D01*
X-5066250Y3982499D02*
G01*
X-3506249Y3982499D01*
X-5066250Y5542500D02*
G01*
X-5066250Y3982499D01*
D13*
X-3331222Y4012501D02*
G01*
X-3331222Y3812506D01*
X-3131223Y3812506D01*
X-1631248Y3812529D02*
G01*
X-1431254Y3812529D01*
X-1431254Y4012524D01*
X-1431279Y5512501D02*
G01*
X-1431279Y5712495D01*
X-1631274Y5712495D01*
X-3131251Y5712470D02*
G01*
X-3331245Y5712470D01*
X-3331245Y5512475D01*
D14*
X-1601249Y5542500D02*
G01*
X-1601249Y3982499D01*
X-3161250Y5542500D02*
G01*
X-1601249Y5542500D01*
X-3161250Y3982499D02*
G01*
X-1601249Y3982499D01*
X-3161250Y5542500D02*
G01*
X-3161250Y3982499D01*
D13*
X-1426222Y4012501D02*
G01*
X-1426222Y3812506D01*
X-1226223Y3812506D01*
X273751Y3812529D02*
G01*
X473745Y3812529D01*
X473745Y4012524D01*
X473720Y5512501D02*
G01*
X473720Y5712495D01*
X273725Y5712495D01*
X-1226251Y5712470D02*
G01*
X-1426245Y5712470D01*
X-1426245Y5512475D01*
D14*
X303750Y5542500D02*
G01*
X303750Y3982499D01*
X-1256250Y5542500D02*
G01*
X303750Y5542500D01*
X-1256250Y3982499D02*
G01*
X303750Y3982499D01*
X-1256250Y5542500D02*
G01*
X-1256250Y3982499D01*
D13*
X1907527Y5917501D02*
G01*
X1907527Y5717506D01*
X2107526Y5717506D01*
X3607501Y5717529D02*
G01*
X3807495Y5717529D01*
X3807495Y5917524D01*
X3807470Y7417501D02*
G01*
X3807470Y7617495D01*
X3607475Y7617495D01*
X2107498Y7617470D02*
G01*
X1907504Y7617470D01*
X1907504Y7417475D01*
D14*
X3637500Y7447500D02*
G01*
X3637500Y5887499D01*
X2077499Y7447500D02*
G01*
X3637500Y7447500D01*
X2077499Y5887499D02*
G01*
X3637500Y5887499D01*
X2077499Y7447500D02*
G01*
X2077499Y5887499D01*
D13*
X478777Y4012501D02*
G01*
X478777Y3812506D01*
X678776Y3812506D01*
X2178751Y3812529D02*
G01*
X2378745Y3812529D01*
X2378745Y4012524D01*
X2378720Y5512501D02*
G01*
X2378720Y5712495D01*
X2178725Y5712495D01*
X678748Y5712470D02*
G01*
X478754Y5712470D01*
X478754Y5512475D01*
D14*
X2208750Y5542500D02*
G01*
X2208750Y3982499D01*
X648749Y5542500D02*
G01*
X2208750Y5542500D01*
X648749Y3982499D02*
G01*
X2208750Y3982499D01*
X648749Y5542500D02*
G01*
X648749Y3982499D01*
D13*
X2383777Y4012501D02*
G01*
X2383777Y3812506D01*
X2583776Y3812506D01*
X4083751Y3812529D02*
G01*
X4283745Y3812529D01*
X4283745Y4012524D01*
X4283720Y5512501D02*
G01*
X4283720Y5712495D01*
X4083725Y5712495D01*
X2583748Y5712470D02*
G01*
X2383754Y5712470D01*
X2383754Y5512475D01*
D14*
X4113750Y5542500D02*
G01*
X4113750Y3982499D01*
X2553749Y5542500D02*
G01*
X4113750Y5542500D01*
X2553749Y3982499D02*
G01*
X4113750Y3982499D01*
X2553749Y5542500D02*
G01*
X2553749Y3982499D01*
D13*
X4765027Y7822501D02*
G01*
X4765027Y7622506D01*
X4965026Y7622506D01*
X6465001Y7622529D02*
G01*
X6664995Y7622529D01*
X6664995Y7822524D01*
X6664970Y9322501D02*
G01*
X6664970Y9522495D01*
X6464975Y9522495D01*
X4964998Y9522470D02*
G01*
X4765004Y9522470D01*
X4765004Y9322475D01*
D14*
X6495000Y9352500D02*
G01*
X6495000Y7792499D01*
X4934999Y9352500D02*
G01*
X6495000Y9352500D01*
X4934999Y7792499D02*
G01*
X6495000Y7792499D01*
X4934999Y9352500D02*
G01*
X4934999Y7792499D01*
D13*
X-12379972Y7822501D02*
G01*
X-12379972Y7622506D01*
X-12179973Y7622506D01*
X-10679998Y7622529D02*
G01*
X-10480004Y7622529D01*
X-10480004Y7822524D01*
X-10480029Y9322501D02*
G01*
X-10480029Y9522495D01*
X-10680024Y9522495D01*
X-12180001Y9522470D02*
G01*
X-12379995Y9522470D01*
X-12379995Y9322475D01*
D14*
X-10649999Y9352500D02*
G01*
X-10649999Y7792499D01*
X-12210000Y9352500D02*
G01*
X-10649999Y9352500D01*
X-12210000Y7792499D02*
G01*
X-10649999Y7792499D01*
X-12210000Y9352500D02*
G01*
X-12210000Y7792499D01*
D13*
X-10474972Y7822501D02*
G01*
X-10474972Y7622506D01*
X-10274973Y7622506D01*
X-8774998Y7622529D02*
G01*
X-8575004Y7622529D01*
X-8575004Y7822524D01*
X-8575029Y9322501D02*
G01*
X-8575029Y9522495D01*
X-8775024Y9522495D01*
X-10275001Y9522470D02*
G01*
X-10474995Y9522470D01*
X-10474995Y9322475D01*
D14*
X-8744999Y9352500D02*
G01*
X-8744999Y7792499D01*
X-10305000Y9352500D02*
G01*
X-8744999Y9352500D01*
X-10305000Y7792499D02*
G01*
X-8744999Y7792499D01*
X-10305000Y9352500D02*
G01*
X-10305000Y7792499D01*
D13*
X-8569972Y7822501D02*
G01*
X-8569972Y7622506D01*
X-8369973Y7622506D01*
X-6869998Y7622529D02*
G01*
X-6670004Y7622529D01*
X-6670004Y7822524D01*
X-6670029Y9322501D02*
G01*
X-6670029Y9522495D01*
X-6870024Y9522495D01*
X-8370001Y9522470D02*
G01*
X-8569995Y9522470D01*
X-8569995Y9322475D01*
D14*
X-6839999Y9352500D02*
G01*
X-6839999Y7792499D01*
X-8400000Y9352500D02*
G01*
X-6839999Y9352500D01*
X-8400000Y7792499D02*
G01*
X-6839999Y7792499D01*
X-8400000Y9352500D02*
G01*
X-8400000Y7792499D01*
D13*
X-6664972Y7822501D02*
G01*
X-6664972Y7622506D01*
X-6464973Y7622506D01*
X-4964998Y7622529D02*
G01*
X-4765004Y7622529D01*
X-4765004Y7822524D01*
X-4765029Y9322501D02*
G01*
X-4765029Y9522495D01*
X-4965024Y9522495D01*
X-6465001Y9522470D02*
G01*
X-6664995Y9522470D01*
X-6664995Y9322475D01*
D14*
X-4934999Y9352500D02*
G01*
X-4934999Y7792499D01*
X-6495000Y9352500D02*
G01*
X-4934999Y9352500D01*
X-6495000Y7792499D02*
G01*
X-4934999Y7792499D01*
X-6495000Y9352500D02*
G01*
X-6495000Y7792499D01*
D13*
X-4759972Y7822501D02*
G01*
X-4759972Y7622506D01*
X-4559973Y7622506D01*
X-3059998Y7622529D02*
G01*
X-2860004Y7622529D01*
X-2860004Y7822524D01*
X-2860029Y9322501D02*
G01*
X-2860029Y9522495D01*
X-3060024Y9522495D01*
X-4560001Y9522470D02*
G01*
X-4759995Y9522470D01*
X-4759995Y9322475D01*
D14*
X-3029999Y9352500D02*
G01*
X-3029999Y7792499D01*
X-4590000Y9352500D02*
G01*
X-3029999Y9352500D01*
X-4590000Y7792499D02*
G01*
X-3029999Y7792499D01*
X-4590000Y9352500D02*
G01*
X-4590000Y7792499D01*
D13*
X-2854972Y7822501D02*
G01*
X-2854972Y7622506D01*
X-2654973Y7622506D01*
X-1154998Y7622529D02*
G01*
X-955004Y7622529D01*
X-955004Y7822524D01*
X-955029Y9322501D02*
G01*
X-955029Y9522495D01*
X-1155024Y9522495D01*
X-2655001Y9522470D02*
G01*
X-2854995Y9522470D01*
X-2854995Y9322475D01*
D14*
X-1124999Y9352500D02*
G01*
X-1124999Y7792499D01*
X-2685000Y9352500D02*
G01*
X-1124999Y9352500D01*
X-2685000Y7792499D02*
G01*
X-1124999Y7792499D01*
X-2685000Y9352500D02*
G01*
X-2685000Y7792499D01*
D13*
X-949972Y7822501D02*
G01*
X-949972Y7622506D01*
X-749973Y7622506D01*
X750001Y7622529D02*
G01*
X949995Y7622529D01*
X949995Y7822524D01*
X949970Y9322501D02*
G01*
X949970Y9522495D01*
X749975Y9522495D01*
X-750001Y9522470D02*
G01*
X-949995Y9522470D01*
X-949995Y9322475D01*
D14*
X780000Y9352500D02*
G01*
X780000Y7792499D01*
X-780000Y9352500D02*
G01*
X780000Y9352500D01*
X-780000Y7792499D02*
G01*
X780000Y7792499D01*
X-780000Y9352500D02*
G01*
X-780000Y7792499D01*
D13*
X955027Y7822501D02*
G01*
X955027Y7622506D01*
X1155026Y7622506D01*
X2655001Y7622529D02*
G01*
X2854995Y7622529D01*
X2854995Y7822524D01*
X2854970Y9322501D02*
G01*
X2854970Y9522495D01*
X2654975Y9522495D01*
X1154998Y9522470D02*
G01*
X955004Y9522470D01*
X955004Y9322475D01*
D14*
X2685000Y9352500D02*
G01*
X2685000Y7792499D01*
X1124999Y9352500D02*
G01*
X2685000Y9352500D01*
X1124999Y7792499D02*
G01*
X2685000Y7792499D01*
X1124999Y9352500D02*
G01*
X1124999Y7792499D01*
D13*
X2860027Y7822501D02*
G01*
X2860027Y7622506D01*
X3060026Y7622506D01*
X4560001Y7622529D02*
G01*
X4759995Y7622529D01*
X4759995Y7822524D01*
X4759970Y9322501D02*
G01*
X4759970Y9522495D01*
X4559975Y9522495D01*
X3059998Y9522470D02*
G01*
X2860004Y9522470D01*
X2860004Y9322475D01*
D14*
X4590000Y9352500D02*
G01*
X4590000Y7792499D01*
X3029999Y9352500D02*
G01*
X4590000Y9352500D01*
X3029999Y7792499D02*
G01*
X4590000Y7792499D01*
X3029999Y9352500D02*
G01*
X3029999Y7792499D01*
D13*
X4288777Y4012501D02*
G01*
X4288777Y3812506D01*
X4488776Y3812506D01*
X5988751Y3812529D02*
G01*
X6188745Y3812529D01*
X6188745Y4012524D01*
X6188720Y5512501D02*
G01*
X6188720Y5712495D01*
X5988725Y5712495D01*
X4488748Y5712470D02*
G01*
X4288754Y5712470D01*
X4288754Y5512475D01*
D14*
X6018750Y5542500D02*
G01*
X6018750Y3982499D01*
X4458749Y5542500D02*
G01*
X6018750Y5542500D01*
X4458749Y3982499D02*
G01*
X6018750Y3982499D01*
X4458749Y5542500D02*
G01*
X4458749Y3982499D01*
D13*
X7622527Y5917501D02*
G01*
X7622527Y5717506D01*
X7822526Y5717506D01*
X9322501Y5717529D02*
G01*
X9522495Y5717529D01*
X9522495Y5917524D01*
X9522470Y7417501D02*
G01*
X9522470Y7617495D01*
X9322475Y7617495D01*
X7822498Y7617470D02*
G01*
X7622504Y7617470D01*
X7622504Y7417475D01*
D14*
X9352500Y7447500D02*
G01*
X9352500Y5887499D01*
X7792499Y7447500D02*
G01*
X9352500Y7447500D01*
X7792499Y5887499D02*
G01*
X9352500Y5887499D01*
X7792499Y7447500D02*
G01*
X7792499Y5887499D01*
D13*
X12385027Y4012501D02*
G01*
X12385027Y3812506D01*
X12585026Y3812506D01*
X14085001Y3812529D02*
G01*
X14284995Y3812529D01*
X14284995Y4012524D01*
X14284970Y5512501D02*
G01*
X14284970Y5712495D01*
X14084975Y5712495D01*
X12584998Y5712470D02*
G01*
X12385004Y5712470D01*
X12385004Y5512475D01*
D14*
X14115000Y5542500D02*
G01*
X14115000Y3982499D01*
X12554999Y5542500D02*
G01*
X14115000Y5542500D01*
X12554999Y3982499D02*
G01*
X14115000Y3982499D01*
X12554999Y5542500D02*
G01*
X12554999Y3982499D01*
D13*
X1431277Y2107501D02*
G01*
X1431277Y1907506D01*
X1631276Y1907506D01*
X3131251Y1907529D02*
G01*
X3331245Y1907529D01*
X3331245Y2107524D01*
X3331220Y3607501D02*
G01*
X3331220Y3807495D01*
X3131225Y3807495D01*
X1631248Y3807470D02*
G01*
X1431254Y3807470D01*
X1431254Y3607475D01*
D14*
X3161250Y3637500D02*
G01*
X3161250Y2077499D01*
X1601249Y3637500D02*
G01*
X3161250Y3637500D01*
X1601249Y2077499D02*
G01*
X3161250Y2077499D01*
X1601249Y3637500D02*
G01*
X1601249Y2077499D01*
D13*
X-473722Y2107501D02*
G01*
X-473722Y1907506D01*
X-273723Y1907506D01*
X1226251Y1907529D02*
G01*
X1426245Y1907529D01*
X1426245Y2107524D01*
X1426220Y3607501D02*
G01*
X1426220Y3807495D01*
X1226225Y3807495D01*
X-273751Y3807470D02*
G01*
X-473745Y3807470D01*
X-473745Y3607475D01*
D14*
X1256250Y3637500D02*
G01*
X1256250Y2077499D01*
X-303750Y3637500D02*
G01*
X1256250Y3637500D01*
X-303750Y2077499D02*
G01*
X1256250Y2077499D01*
X-303750Y3637500D02*
G01*
X-303750Y2077499D01*
D13*
X3812527Y5917501D02*
G01*
X3812527Y5717506D01*
X4012526Y5717506D01*
X5512501Y5717529D02*
G01*
X5712495Y5717529D01*
X5712495Y5917524D01*
X5712470Y7417501D02*
G01*
X5712470Y7617495D01*
X5512475Y7617495D01*
X4012498Y7617470D02*
G01*
X3812504Y7617470D01*
X3812504Y7417475D01*
D14*
X5542500Y7447500D02*
G01*
X5542500Y5887499D01*
X3982499Y7447500D02*
G01*
X5542500Y7447500D01*
X3982499Y5887499D02*
G01*
X5542500Y5887499D01*
X3982499Y7447500D02*
G01*
X3982499Y5887499D01*
D13*
X5717527Y5917501D02*
G01*
X5717527Y5717506D01*
X5917526Y5717506D01*
X7417501Y5717529D02*
G01*
X7617495Y5717529D01*
X7617495Y5917524D01*
X7617470Y7417501D02*
G01*
X7617470Y7617495D01*
X7417475Y7617495D01*
X5917498Y7617470D02*
G01*
X5717504Y7617470D01*
X5717504Y7417475D01*
D14*
X7447500Y7447500D02*
G01*
X7447500Y5887499D01*
X5887499Y7447500D02*
G01*
X7447500Y7447500D01*
X5887499Y5887499D02*
G01*
X7447500Y5887499D01*
X5887499Y7447500D02*
G01*
X5887499Y5887499D01*
D13*
X-11427472Y5917501D02*
G01*
X-11427472Y5717506D01*
X-11227473Y5717506D01*
X-9727498Y5717529D02*
G01*
X-9527504Y5717529D01*
X-9527504Y5917524D01*
X-9527529Y7417501D02*
G01*
X-9527529Y7617495D01*
X-9727524Y7617495D01*
X-11227501Y7617470D02*
G01*
X-11427495Y7617470D01*
X-11427495Y7417475D01*
D14*
X-9697499Y7447500D02*
G01*
X-9697499Y5887499D01*
X-11257500Y7447500D02*
G01*
X-9697499Y7447500D01*
X-11257500Y5887499D02*
G01*
X-9697499Y5887499D01*
X-11257500Y7447500D02*
G01*
X-11257500Y5887499D01*
D13*
X-5712472Y5917501D02*
G01*
X-5712472Y5717506D01*
X-5512473Y5717506D01*
X-4012498Y5717529D02*
G01*
X-3812504Y5717529D01*
X-3812504Y5917524D01*
X-3812529Y7417501D02*
G01*
X-3812529Y7617495D01*
X-4012524Y7617495D01*
X-5512501Y7617470D02*
G01*
X-5712495Y7617470D01*
X-5712495Y7417475D01*
D14*
X-3982499Y7447500D02*
G01*
X-3982499Y5887499D01*
X-5542500Y7447500D02*
G01*
X-3982499Y7447500D01*
X-5542500Y5887499D02*
G01*
X-3982499Y5887499D01*
X-5542500Y7447500D02*
G01*
X-5542500Y5887499D01*
D13*
X9289402Y4012501D02*
G01*
X9289402Y3812506D01*
X9489401Y3812506D01*
X10989376Y3812529D02*
G01*
X11189370Y3812529D01*
X11189370Y4012524D01*
X11189345Y5512501D02*
G01*
X11189345Y5712495D01*
X10989350Y5712495D01*
X9489373Y5712470D02*
G01*
X9289379Y5712470D01*
X9289379Y5512475D01*
D14*
X11019375Y5542500D02*
G01*
X11019375Y3982499D01*
X9459374Y5542500D02*
G01*
X11019375Y5542500D01*
X9459374Y3982499D02*
G01*
X11019375Y3982499D01*
X9459374Y5542500D02*
G01*
X9459374Y3982499D01*
D13*
X9527527Y5917501D02*
G01*
X9527527Y5717506D01*
X9727526Y5717506D01*
X11227501Y5717529D02*
G01*
X11427495Y5717529D01*
X11427495Y5917524D01*
X11427470Y7417501D02*
G01*
X11427470Y7617495D01*
X11227475Y7617495D01*
X9727498Y7617470D02*
G01*
X9527504Y7617470D01*
X9527504Y7417475D01*
D14*
X11257500Y7447500D02*
G01*
X11257500Y5887499D01*
X9697499Y7447500D02*
G01*
X11257500Y7447500D01*
X9697499Y5887499D02*
G01*
X11257500Y5887499D01*
X9697499Y7447500D02*
G01*
X9697499Y5887499D01*
D13*
X9051277Y202501D02*
G01*
X9051277Y2506D01*
X9251276Y2506D01*
X10751251Y2529D02*
G01*
X10951245Y2529D01*
X10951245Y202524D01*
X10951220Y1702501D02*
G01*
X10951220Y1902495D01*
X10751225Y1902495D01*
X9251248Y1902470D02*
G01*
X9051254Y1902470D01*
X9051254Y1702475D01*
D14*
X10781250Y1732500D02*
G01*
X10781250Y172499D01*
X9221249Y1732500D02*
G01*
X10781250Y1732500D01*
X9221249Y172499D02*
G01*
X10781250Y172499D01*
X9221249Y1732500D02*
G01*
X9221249Y172499D01*
D13*
X-9046222Y4012501D02*
G01*
X-9046222Y3812506D01*
X-8846223Y3812506D01*
X-7346248Y3812529D02*
G01*
X-7146254Y3812529D01*
X-7146254Y4012524D01*
X-7146279Y5512501D02*
G01*
X-7146279Y5712495D01*
X-7346274Y5712495D01*
X-8846251Y5712470D02*
G01*
X-9046245Y5712470D01*
X-9046245Y5512475D01*
D14*
X-7316249Y5542500D02*
G01*
X-7316249Y3982499D01*
X-8876250Y5542500D02*
G01*
X-7316249Y5542500D01*
X-8876250Y3982499D02*
G01*
X-7316249Y3982499D01*
X-8876250Y5542500D02*
G01*
X-8876250Y3982499D01*
D13*
X6193777Y4012501D02*
G01*
X6193777Y3812506D01*
X6393776Y3812506D01*
X7893751Y3812529D02*
G01*
X8093745Y3812529D01*
X8093745Y4012524D01*
X8093720Y5512501D02*
G01*
X8093720Y5712495D01*
X7893725Y5712495D01*
X6393748Y5712470D02*
G01*
X6193754Y5712470D01*
X6193754Y5512475D01*
D14*
X7923750Y5542500D02*
G01*
X7923750Y3982499D01*
X6363749Y5542500D02*
G01*
X7923750Y5542500D01*
X6363749Y3982499D02*
G01*
X7923750Y3982499D01*
X6363749Y5542500D02*
G01*
X6363749Y3982499D01*
D13*
X7146277Y2107501D02*
G01*
X7146277Y1907506D01*
X7346276Y1907506D01*
X8846251Y1907529D02*
G01*
X9046245Y1907529D01*
X9046245Y2107524D01*
X9046220Y3607501D02*
G01*
X9046220Y3807495D01*
X8846225Y3807495D01*
X7346248Y3807470D02*
G01*
X7146254Y3807470D01*
X7146254Y3607475D01*
D14*
X8876250Y3637500D02*
G01*
X8876250Y2077499D01*
X7316249Y3637500D02*
G01*
X8876250Y3637500D01*
X7316249Y2077499D02*
G01*
X8876250Y2077499D01*
X7316249Y3637500D02*
G01*
X7316249Y2077499D01*
D13*
X-3807472Y5917501D02*
G01*
X-3807472Y5717506D01*
X-3607473Y5717506D01*
X-2107498Y5717529D02*
G01*
X-1907504Y5717529D01*
X-1907504Y5917524D01*
X-1907529Y7417501D02*
G01*
X-1907529Y7617495D01*
X-2107524Y7617495D01*
X-3607501Y7617470D02*
G01*
X-3807495Y7617470D01*
X-3807495Y7417475D01*
D14*
X-2077499Y7447500D02*
G01*
X-2077499Y5887499D01*
X-3637500Y7447500D02*
G01*
X-2077499Y7447500D01*
X-3637500Y5887499D02*
G01*
X-2077499Y5887499D01*
X-3637500Y7447500D02*
G01*
X-3637500Y5887499D01*
D13*
X2527Y5917501D02*
G01*
X2527Y5717506D01*
X202526Y5717506D01*
X1702501Y5717529D02*
G01*
X1902495Y5717529D01*
X1902495Y5917524D01*
X1902470Y7417501D02*
G01*
X1902470Y7617495D01*
X1702475Y7617495D01*
X202498Y7617470D02*
G01*
X2504Y7617470D01*
X2504Y7417475D01*
D14*
X1732500Y7447500D02*
G01*
X1732500Y5887499D01*
X172499Y7447500D02*
G01*
X1732500Y7447500D01*
X172499Y5887499D02*
G01*
X1732500Y5887499D01*
X172499Y7447500D02*
G01*
X172499Y5887499D01*
D13*
X-13332472Y5917501D02*
G01*
X-13332472Y5717506D01*
X-13132473Y5717506D01*
X-11632498Y5717529D02*
G01*
X-11432504Y5717529D01*
X-11432504Y5917524D01*
X-11432529Y7417501D02*
G01*
X-11432529Y7617495D01*
X-11632524Y7617495D01*
X-13132501Y7617470D02*
G01*
X-13332495Y7617470D01*
X-13332495Y7417475D01*
D14*
X-11602499Y7447500D02*
G01*
X-11602499Y5887499D01*
X-13162500Y7447500D02*
G01*
X-11602499Y7447500D01*
X-13162500Y5887499D02*
G01*
X-11602499Y5887499D01*
X-13162500Y7447500D02*
G01*
X-13162500Y5887499D01*
D13*
X-4283722Y2107501D02*
G01*
X-4283722Y1907506D01*
X-4083723Y1907506D01*
X-2583748Y1907529D02*
G01*
X-2383754Y1907529D01*
X-2383754Y2107524D01*
X-2383779Y3607501D02*
G01*
X-2383779Y3807495D01*
X-2583774Y3807495D01*
X-4083751Y3807470D02*
G01*
X-4283745Y3807470D01*
X-4283745Y3607475D01*
D14*
X-2553749Y3637500D02*
G01*
X-2553749Y2077499D01*
X-4113750Y3637500D02*
G01*
X-2553749Y3637500D01*
X-4113750Y2077499D02*
G01*
X-2553749Y2077499D01*
X-4113750Y3637500D02*
G01*
X-4113750Y2077499D01*
D13*
X-9522472Y5917501D02*
G01*
X-9522472Y5717506D01*
X-9322473Y5717506D01*
X-7822498Y5717529D02*
G01*
X-7622504Y5717529D01*
X-7622504Y5917524D01*
X-7622529Y7417501D02*
G01*
X-7622529Y7617495D01*
X-7822524Y7617495D01*
X-9322501Y7617470D02*
G01*
X-9522495Y7617470D01*
X-9522495Y7417475D01*
D14*
X-7792499Y7447500D02*
G01*
X-7792499Y5887499D01*
X-9352500Y7447500D02*
G01*
X-7792499Y7447500D01*
X-9352500Y5887499D02*
G01*
X-7792499Y5887499D01*
X-9352500Y7447500D02*
G01*
X-9352500Y5887499D01*
D13*
X-8093722Y2107501D02*
G01*
X-8093722Y1907506D01*
X-7893723Y1907506D01*
X-6393748Y1907529D02*
G01*
X-6193754Y1907529D01*
X-6193754Y2107524D01*
X-6193779Y3607501D02*
G01*
X-6193779Y3807495D01*
X-6393774Y3807495D01*
X-7893751Y3807470D02*
G01*
X-8093745Y3807470D01*
X-8093745Y3607475D01*
D14*
X-6363749Y3637500D02*
G01*
X-6363749Y2077499D01*
X-7923750Y3637500D02*
G01*
X-6363749Y3637500D01*
X-7923750Y2077499D02*
G01*
X-6363749Y2077499D01*
X-7923750Y3637500D02*
G01*
X-7923750Y2077499D01*
D13*
X-1902472Y5917501D02*
G01*
X-1902472Y5717506D01*
X-1702473Y5717506D01*
X-202498Y5717529D02*
G01*
X-2504Y5717529D01*
X-2504Y5917524D01*
X-2529Y7417501D02*
G01*
X-2529Y7617495D01*
X-202524Y7617495D01*
X-1702501Y7617470D02*
G01*
X-1902495Y7617470D01*
X-1902495Y7417475D01*
D14*
X-172499Y7447500D02*
G01*
X-172499Y5887499D01*
X-1732500Y7447500D02*
G01*
X-172499Y7447500D01*
X-1732500Y5887499D02*
G01*
X-172499Y5887499D01*
X-1732500Y7447500D02*
G01*
X-1732500Y5887499D01*
D13*
X-9998722Y2107501D02*
G01*
X-9998722Y1907506D01*
X-9798723Y1907506D01*
X-8298748Y1907529D02*
G01*
X-8098754Y1907529D01*
X-8098754Y2107524D01*
X-8098779Y3607501D02*
G01*
X-8098779Y3807495D01*
X-8298774Y3807495D01*
X-9798751Y3807470D02*
G01*
X-9998745Y3807470D01*
X-9998745Y3607475D01*
D14*
X-8268749Y3637500D02*
G01*
X-8268749Y2077499D01*
X-9828750Y3637500D02*
G01*
X-8268749Y3637500D01*
X-9828750Y2077499D02*
G01*
X-8268749Y2077499D01*
X-9828750Y3637500D02*
G01*
X-9828750Y2077499D01*
D13*
X-13094220Y2107577D02*
G01*
X-13094220Y1907583D01*
X-12894221Y1907583D01*
X-11394246Y1907606D02*
G01*
X-11194252Y1907606D01*
X-11194252Y2107600D01*
X-11194277Y3607577D02*
G01*
X-11194277Y3807571D01*
X-11394272Y3807571D01*
X-12894249Y3807546D02*
G01*
X-13094243Y3807546D01*
X-13094243Y3607551D01*
D14*
X-11364247Y3637577D02*
G01*
X-11364247Y2077575D01*
X-12924248Y3637577D02*
G01*
X-11364247Y3637577D01*
X-12924248Y2077575D02*
G01*
X-11364247Y2077575D01*
X-12924248Y3637577D02*
G01*
X-12924248Y2077575D01*
D13*
X10718279Y2107577D02*
G01*
X10718279Y1907583D01*
X10918278Y1907583D01*
X12418253Y1907606D02*
G01*
X12618247Y1907606D01*
X12618247Y2107600D01*
X12618222Y3607577D02*
G01*
X12618222Y3807571D01*
X12418227Y3807571D01*
X10918250Y3807546D02*
G01*
X10718256Y3807546D01*
X10718256Y3607551D01*
D14*
X12448252Y3637577D02*
G01*
X12448252Y2077575D01*
X10888251Y3637577D02*
G01*
X12448252Y3637577D01*
X10888251Y2077575D02*
G01*
X12448252Y2077575D01*
X10888251Y3637577D02*
G01*
X10888251Y2077575D01*
D13*
X5318125Y-111125D02*
G01*
X5318125Y-365125D01*
X2016125Y-111125D02*
G01*
X7350125Y-111125D01*
X7350125Y-365125D01*
X2016125Y-365125D01*
X2016125Y-111125D01*
X4556125Y-111125D02*
G01*
X4556125Y-365125D01*
X4048125Y-111125D02*
G01*
X4048125Y-365125D01*
X-3175000Y9636125D02*
G01*
X-3175000Y9890125D01*
X127000Y9636125D02*
G01*
X-5207000Y9636125D01*
X-5207000Y9890125D01*
X127000Y9890125D01*
X127000Y9636125D01*
X-2413000Y9636125D02*
G01*
X-2413000Y9890125D01*
X-1905000Y9636125D02*
G01*
X-1905000Y9890125D01*
D14*
X7016750Y784352D02*
G01*
X7271537Y783818D01*
D11*
X6577136Y1133617D02*
G01*
X6577136Y992621D01*
X6757863Y992621D02*
G01*
X6757863Y1133617D01*
X6742620Y1148859D02*
G01*
X6592379Y1148859D01*
X6577136Y771382D02*
G01*
X6577136Y912378D01*
X6757863Y912378D02*
G01*
X6757863Y771382D01*
X6742620Y756140D02*
G01*
X6592379Y756140D01*
D14*
G75*
G01*
X7270293Y784352D02*
G03*
X7016801Y784352I-126746J154710D01*
D11*
G75*
G01*
X6592380Y756140D02*
G02*
X6577140Y771380I0J15240D01*
G75*
G01*
X6757861Y771380D02*
G02*
X6742621Y756140I-15240J0D01*
G75*
G01*
X6592380Y1148860D02*
G03*
X6577140Y1133620I0J-15240D01*
G75*
G01*
X6757861Y1133620D02*
G03*
X6742621Y1148860I-15240J0D01*
M02*
